<svg xmlns="http://www.w3.org/2000/svg" width="430.5" height="299.657" viewBox="0 0 430.5 299.657"><defs><style>.a{opacity:0.4;}.b{fill:#efd8de;}.c{fill:#b1bcf2;}.d{fill:#fff;}.e{fill:#464a79;}.f{fill:#d9e1ff;}.g{fill:#e9eeff;}.h{fill:#919dd8;}.i{fill:#7e8cc1;}.j{fill:#6167a5;}.k{fill:#7881bc;}.l{opacity:0.5;}.m{fill:#d86c23;}.n{fill:#ff9444;}.o{fill:#fc6;}.p{fill:#ea7e34;}.q{fill:#545c91;}.r{fill:#505893;}.s{fill:#394372;}.t{fill:#454d87;}.u{fill:#2e2f4d;}.v{fill:#f6a49d;}.w{fill:#d47c74;}.x{fill:#e96362;}.y{fill:#4f1d30;}.z{fill:#ffefe7;}.aa{fill:#474b7b;}.ab{fill:#f7d1c1;}.ac{fill:#25335a;}.ad{fill:#2f426b;}.ae{fill:#bf3976;}.af{fill:#b0c0d2;}.ag{fill:#747dbe;}.ah{fill:#848ebf;}.ai{fill:#b4c1ef;}</style></defs><g transform="translate(12.449 -48.242)"><g class="a" transform="translate(-12.449 50.233)"><path class="b" d="M180.6,51.33A143,143,0,0,1,297.39,111.667h0s16.523,23.66,25.306,29.955c9.218,6.6,20.481,9.733,31.744,11.055a86.379,86.379,0,0,1-9.19,172.148c-25.561.288-125.706,3.778-164.648,3.778-79.081,0-143.172-55.029-143.172-134.1A143.171,143.171,0,0,1,180.6,51.33Z" transform="translate(-37.43 -51.33)"/><path class="c" d="M719.09,76.256c-18.213-1.274-34.272,17.23-27.019,33.985,6.358,14.678,15.353,30.706,27.1,40.7,26.308,22.366,59.275,14.518,69.411-11.107s-13.18-50.064-39.54-58.168A127.211,127.211,0,0,0,719.09,76.256Z" transform="translate(-429.538 -66.263)"/></g><path class="d" d="M133.806,795.632c-.123-6.248,4.612-14,4.814-14.322l.7.43c-.049.075-4.814,7.872-4.694,13.878Z" transform="translate(-84.725 -458.459)"/><path class="d" d="M909.618,796.106l-.608-.1a18.53,18.53,0,0,0-3.79-14.07l.461-.408A19.171,19.171,0,0,1,909.618,796.106Z" transform="translate(-549.829 -452.442)"/><path class="d" d="M920.2,791.489l-.47-.4c.045-.053,4.671-5.589,5.459-9.052l.6.138C924.969,785.785,920.394,791.258,920.2,791.489Z" transform="translate(-560.256 -452.809)"/><path class="d" d="M902.6,814.488c-3.641-.2-6.866-3.939-7-4.108l.47-.4c.031.037,3.188,3.709,6.565,3.892Z" transform="translate(-542.916 -472.886)"/><path class="d" d="M847.378,819.372c-3.247-2.7-10.11-4.874-10.178-4.874l.183-.588c.281.09,7.035,2.22,10.389,5Z" transform="translate(-500.949 -475.71)"/><path class="d" d="M860.242,812.4l-.616-.017a10.412,10.412,0,0,0-1.126-4.9l.537-.3A10.883,10.883,0,0,1,860.242,812.4Z" transform="translate(-516.256 -470.874)"/><rect class="e" width="169.958" height="263.454" rx="24.04" transform="translate(111.942 79.049)"/><path class="f" d="M476.636,149.944V394.21a2.282,2.282,0,0,1-2.286,2.282H323.585a3.447,3.447,0,0,1-3.454-3.447v-243.1a3.451,3.451,0,0,1,3.458-3.454H473.178A3.458,3.458,0,0,1,476.636,149.944Z" transform="translate(-201.466 -60.719)"/><path class="d" d="M482.7,175.514V400.96a2.062,2.062,0,0,1-2.02,2.106h-133.5a3.118,3.118,0,0,1-3.059-3.182V175.5a3.055,3.055,0,0,1,3.062-3.059H479.646a3.251,3.251,0,0,1,.471.034,3.055,3.055,0,0,1,2.469,2.125,1.551,1.551,0,0,1,.075.3,1.121,1.121,0,0,1,.03.153A3.192,3.192,0,0,1,482.7,175.514Z" transform="translate(-216.502 -76.978)"/><path class="c" d="M482.706,175.514v31.6H344.13V175.5a3.055,3.055,0,0,1,3.062-3.059H479.647a3.252,3.252,0,0,1,.471.034,3.077,3.077,0,0,1,2.469,2.125,2.606,2.606,0,0,1,.075.3.74.74,0,0,0,.03.153A3.188,3.188,0,0,1,482.706,175.514Z" transform="translate(-216.503 -76.978)"/><rect class="g" width="86.493" height="4.467" transform="translate(170.048 107.204)"/><rect class="g" width="63.029" height="4.467" transform="translate(181.782 113.922)"/><rect class="h" width="24.779" height="24.779" rx="3.78" transform="translate(137.292 100.975)"/><rect class="f" width="24.779" height="24.779" rx="3.78" transform="translate(138.461 99.843)"/><path class="i" d="M400.261,205.005A7.719,7.719,0,1,1,398,199.521a7.746,7.746,0,0,1,2.261,5.485Z" transform="translate(-241.966 -92.528)"/><path class="h" d="M401.851,203.734a7.734,7.734,0,1,1-2.269-5.473A7.746,7.746,0,0,1,401.851,203.734Z" transform="translate(-242.962 -91.739)"/><circle class="f" cx="2.581" cy="2.581" r="2.581" transform="translate(148.526 105.874)"/><path class="f" d="M403.582,220.025a7.742,7.742,0,0,1-10.382,0,5.228,5.228,0,0,1,10.382,0Z" transform="translate(-247.247 -103.907)"/><path class="c" d="M360.657,618H470.364a4.381,4.381,0,0,1,4.381,4.381v42.377a4.381,4.381,0,0,1-4.381,4.381H360.657a4.377,4.377,0,0,1-4.377-4.377V622.384A4.377,4.377,0,0,1,360.657,618Z" transform="translate(-224.116 -356.139)"/><rect class="f" width="116.628" height="50.335" rx="11.54" transform="translate(138.603 255.456)"/><path class="c" d="M497.883,687.984H431.822a5.6,5.6,0,0,1-5.6-5.6h0a5.6,5.6,0,0,1,5.6-5.6h66.061a5.6,5.6,0,0,1,5.6,5.6h0A5.6,5.6,0,0,1,497.883,687.984Z" transform="translate(-267.936 -392.967)"/><rect class="d" width="71.529" height="3.055" transform="translate(161.152 274.88)"/><rect class="d" width="101.42" height="3.055" transform="translate(146.207 266.234)"/><circle class="c" cx="16.907" cy="16.907" r="16.907" transform="translate(170.987 225.483) rotate(-45)"/><circle class="f" cx="16.907" cy="16.907" r="16.907" transform="translate(175.031 225.48) rotate(-45)"/><path class="j" d="M531.885,500.849l-.7-.022v-.078a.415.415,0,0,0-.411-.426h-8.5a.415.415,0,0,0-.411.418h-.7a1.12,1.12,0,0,1,1.12-1.12h8.489a1.087,1.087,0,0,1,.8.34,1.12,1.12,0,0,1,.314.807Z" transform="translate(-327.426 -281.969)"/><rect class="j" width="1.21" height="0.672" transform="translate(198.745 217.289)"/><path class="j" d="M533.48,493.7l-.691-.1a3.693,3.693,0,0,1,.4-1.173,1.121,1.121,0,0,0,.034-1.02c-.1-.2-.441-.325-.866-.146-.321.131-.373.777-.351.945l-.7.03c0-.131-.034-1.285.781-1.621a1.339,1.339,0,0,1,1.759.482,1.8,1.8,0,0,1-.06,1.692A2.877,2.877,0,0,0,533.48,493.7Z" transform="translate(-333.779 -276.24)"/><path class="k" d="M523.422,518.167l6.972-.09s-.265-2.17-.747-4.224-3.059-5.684-3.216-6.431.269-1.542.937-2.887-.045-2.009.336-2.7a5.867,5.867,0,0,0,.2-2.42,7.018,7.018,0,0,0-1.12-.082,5.584,5.584,0,0,1-3.272,1.415h-.093a5,5,0,0,1-3.133-1.415,9.71,9.71,0,0,0-1.266.12,5.679,5.679,0,0,0,.187,2.383c.377.691-.332,1.363.336,2.7s1.1,2.147.941,2.887-2.73,4.358-3.219,6.416-.747,4.224-.747,4.224l6.976.09Z" transform="translate(-324.512 -281.787)"/><circle class="c" cx="16.907" cy="16.907" r="16.907" transform="translate(132.913 238.043) rotate(-76.72)"/><circle class="f" cx="16.907" cy="16.907" r="16.907" transform="translate(136.956 238.042) rotate(-76.72)"/><circle class="c" cx="16.907" cy="16.907" r="16.907" transform="translate(216.193 238.044) rotate(-76.72)"/><circle class="f" cx="16.907" cy="16.907" r="16.907" transform="translate(220.233 238.04) rotate(-76.72)"/><path class="k" d="M416.59,510.592c-.907-1.079-.8-3.428-.713-4.325a.254.254,0,0,0-.314-.269l-5.187,1.281-5.187-1.292a.254.254,0,0,0-.314.269c.082.9.194,3.245-.713,4.325a6.592,6.592,0,0,0-1.595,4.5l7.809-.071,7.809.071A6.511,6.511,0,0,0,416.59,510.592Z" transform="translate(-253.103 -285.954)"/><circle class="k" cx="5.535" cy="5.535" r="5.535" transform="translate(150.066 217.121) rotate(-22.5)"/><path class="c" d="M417.223,531.384l-.026.022H398.482l-.022-.022a11.591,11.591,0,0,1,.142-1.524c.142-.956,6.95-3.581,6.95-3.581a9.716,9.716,0,0,0-.239-3.735c-.134-.627-.258-1.057-.258-1.057l2.379-1.027h.81l2.379,1.027s-.142.5-.291,1.2a9.725,9.725,0,0,0-.205,3.585s6.812,2.614,6.95,3.582A11.28,11.28,0,0,1,417.223,531.384Z" transform="translate(-250.543 -295.026)"/><g class="l" transform="translate(154.501 225.438)"><path class="k" d="M421.658,521.5s-.142.5-.288,1.2a3.63,3.63,0,0,1-2.439,1.244,3.322,3.322,0,0,1-2.584-1.386c-.134-.631-.258-1.061-.258-1.061l2.375-1.027h.818Z" transform="translate(-416.09 -520.47)"/></g><path class="c" d="M420.475,501.893a4.534,4.534,0,0,0-4.855-4.78,4.482,4.482,0,0,0-4.351,4.355,9.965,9.965,0,0,0,.84,3.589c.224.665,1.677,3.5,3.787,3.395,2.241-.112,3.5-2.659,3.794-3.32A7.659,7.659,0,0,0,420.475,501.893Z" transform="translate(-258.565 -280.392)"/><path class="c" d="M434.014,513.477a1.277,1.277,0,1,1-1.277-1.277A1.277,1.277,0,0,1,434.014,513.477Z" transform="translate(-271.219 -289.851)"/><path class="c" d="M411.4,512.857a1.277,1.277,0,1,1-1.277-1.277,1.277,1.277,0,0,1,1.277,1.277Z" transform="translate(-257.053 -289.462)"/><path class="k" d="M423.886,502.027a8.866,8.866,0,0,1-5.228-2.853c-1.7-1.774-1.867-2.7-1.867-2.7s3.44-1.344,5.105,0S424.842,500.033,423.886,502.027Z" transform="translate(-262.028 -279.626)"/><path class="k" d="M410.869,502.772s4.067-1.71,4.455-3.764l-2.446-1.527A4.134,4.134,0,0,0,410.869,502.772Z" transform="translate(-258.131 -280.628)"/><circle class="c" cx="0.747" cy="0.747" r="0.747" transform="translate(156.551 224.736)"/><path class="k" d="M639.918,498.261a9.864,9.864,0,0,1-2.047-3.111,6.488,6.488,0,0,1-4.694,2.752c-2.114.239-2.67-.568-2.67-.568a7.029,7.029,0,0,0-1.315,3.111l-2.114,6.861s-3.951,1-4.429,1.636.12,1.494.12,1.494l.6,2.95c.747.519,7.421,1.158,8.9.478s2.114-2.353,2.394-4.108,2.711-5.624,2.711-5.624c.6.2,1,8.855,1,8.855h.84s.4-7.66.478-9.015S641.273,499.576,639.918,498.261Zm-6.943,10.569c-2.073.96-5.229-.556-5.229-.556s2.513-7.062,3.361-7.342a16.816,16.816,0,0,0,4.829-1.673,6.723,6.723,0,0,0,2.472-2.555S635.052,507.874,632.975,508.83Z" transform="translate(-390.89 -279.168)"/><path class="c" d="M379.325,390.4l1.259,3.877a1.688,1.688,0,0,0,1.606,1.165h4.074a1.688,1.688,0,0,1,.99,3.04l-3.3,2.394a1.692,1.692,0,0,0-.612,1.886l1.262,3.877a1.688,1.688,0,0,1-2.6,1.886l-3.3-2.4a1.688,1.688,0,0,0-1.983,0l-3.3,2.4a1.684,1.684,0,0,1-2.592-1.886l1.259-3.876a1.692,1.692,0,0,0-.612-1.886l-3.3-2.394a1.688,1.688,0,0,1,.99-3.051h4.078a1.684,1.684,0,0,0,1.6-1.165l1.259-3.877a1.688,1.688,0,0,1,3.208.011Z" transform="translate(-231.143 -212.807)"/><path class="c" d="M445.3,390.4l1.259,3.877a1.684,1.684,0,0,0,1.6,1.165h4.078a1.688,1.688,0,0,1,.99,3.051l-3.3,2.394a1.692,1.692,0,0,0-.612,1.886l1.259,3.876a1.684,1.684,0,0,1-2.592,1.886l-3.3-2.4a1.688,1.688,0,0,0-1.983,0l-3.3,2.4a1.688,1.688,0,0,1-2.6-1.886l1.262-3.877a1.692,1.692,0,0,0-.612-1.886l-3.3-2.405a1.688,1.688,0,0,1,.99-3.051h4.074a1.688,1.688,0,0,0,1.606-1.165l1.259-3.877a1.688,1.688,0,0,1,3.208.011Z" transform="translate(-272.482 -212.807)"/><path class="c" d="M511.275,390.4l1.262,3.877a1.681,1.681,0,0,0,1.6,1.165h4.074a1.688,1.688,0,0,1,.993,3.051l-3.3,2.394a1.684,1.684,0,0,0-.612,1.886l1.259,3.877a1.688,1.688,0,0,1-2.614,1.886l-3.3-2.4a1.681,1.681,0,0,0-1.979,0l-3.3,2.4a1.688,1.688,0,0,1-2.614-1.886l1.259-3.877a1.681,1.681,0,0,0-.612-1.886l-3.26-2.405a1.688,1.688,0,0,1,.993-3.051h4.074a1.688,1.688,0,0,0,1.606-1.165l1.259-3.876a1.684,1.684,0,0,1,3.2.011Z" transform="translate(-313.815 -212.803)"/><path class="c" d="M577.255,390.4l1.259,3.876a1.688,1.688,0,0,0,1.606,1.165h4.074a1.688,1.688,0,0,1,.993,3.051l-3.3,2.394a1.681,1.681,0,0,0-.612,1.886l1.259,3.877a1.688,1.688,0,0,1-2.614,1.886l-3.3-2.4a1.68,1.68,0,0,0-1.979,0l-3.3,2.4a1.688,1.688,0,0,1-2.614-1.886l1.259-3.877a1.684,1.684,0,0,0-.612-1.886l-3.26-2.405a1.688,1.688,0,0,1,.993-3.051h4.074a1.681,1.681,0,0,0,1.6-1.165l1.262-3.877a1.684,1.684,0,0,1,3.2.011Z" transform="translate(-355.154 -212.803)"/><path class="c" d="M644.69,390.545,646.1,394.9a1.9,1.9,0,0,0,1.8,1.309h4.576a1.9,1.9,0,0,1,1.111,3.426l-3.7,2.688a1.9,1.9,0,0,0-.688,2.118l1.417,4.353a1.9,1.9,0,0,1-2.936,2.118l-3.7-2.693a1.9,1.9,0,0,0-2.227,0l-3.7,2.693a1.891,1.891,0,0,1-2.911-2.118l1.413-4.353a1.9,1.9,0,0,0-.688-2.118l-3.682-2.7a1.9,1.9,0,0,1,1.111-3.426h4.58a1.891,1.891,0,0,0,1.8-1.308l1.413-4.353a1.9,1.9,0,0,1,3.6.013Z" transform="translate(-350.174 -214.315)"/><path class="f" d="M384.982,388.781l1.259,3.873a1.684,1.684,0,0,0,1.6,1.165h4.078a1.688,1.688,0,0,1,.99,3.051l-3.3,2.4a1.684,1.684,0,0,0-.612,1.867l1.27,3.891a1.684,1.684,0,0,1-2.614,1.886l-3.3-2.4a1.688,1.688,0,0,0-1.983,0l-3.3,2.4a1.688,1.688,0,0,1-2.6-1.886l1.262-3.877a1.684,1.684,0,0,0-.612-1.867l-3.294-2.413a1.688,1.688,0,0,1,.99-3.051H378.9a1.688,1.688,0,0,0,1.606-1.165l1.259-3.873a1.688,1.688,0,0,1,3.216,0Z" transform="translate(-234.683 -211.789)"/><path class="f" d="M450.971,388.806l1.262,3.873a1.681,1.681,0,0,0,1.6,1.165h4.074a1.688,1.688,0,0,1,.993,3.051l-3.3,2.4a1.677,1.677,0,0,0-.612,1.867l1.277,3.891a1.688,1.688,0,0,1-2.614,1.886l-3.3-2.4a1.681,1.681,0,0,0-1.979,0l-3.313,2.4a1.688,1.688,0,0,1-2.614-1.886l1.259-3.877a1.673,1.673,0,0,0-.612-1.867l-3.26-2.413a1.688,1.688,0,0,1,.993-3.051h4.074a1.681,1.681,0,0,0,1.6-1.165l1.262-3.873a1.684,1.684,0,0,1,3.2,0Z" transform="translate(-276.034 -211.813)"/><path class="f" d="M516.964,388.829l1.259,3.873a1.688,1.688,0,0,0,1.606,1.165H523.9a1.688,1.688,0,0,1,.99,3.051l-3.3,2.4a1.677,1.677,0,0,0-.609,1.867l1.259,3.877a1.688,1.688,0,0,1-2.588,1.9l-3.3-2.4a1.688,1.688,0,0,0-1.983,0l-3.309,2.4a1.688,1.688,0,0,1-2.6-1.886l1.259-3.877a1.677,1.677,0,0,0-.612-1.867l-3.279-2.413a1.688,1.688,0,0,1,.993-3.051h4.074a1.684,1.684,0,0,0,1.6-1.165l1.259-3.873a1.688,1.688,0,0,1,3.2,0Z" transform="translate(-317.386 -211.836)"/><path class="f" d="M582.956,388.847l1.259,3.873a1.688,1.688,0,0,0,1.6,1.165h4.078a1.688,1.688,0,0,1,.99,3.051l-3.3,2.4a1.684,1.684,0,0,0-.612,1.867l1.262,3.877a1.688,1.688,0,0,1-2.581,1.9l-3.3-2.4a1.688,1.688,0,0,0-1.983,0l-3.309,2.4a1.684,1.684,0,0,1-2.592-1.886l1.259-3.877a1.684,1.684,0,0,0-.613-1.867l-3.283-2.413a1.688,1.688,0,0,1,.99-3.051h4.078a1.684,1.684,0,0,0,1.6-1.165l1.259-3.873a1.688,1.688,0,0,1,3.189,0Z" transform="translate(-358.737 -211.854)"/><path class="f" d="M650.348,388.937l1.413,4.349a1.891,1.891,0,0,0,1.8,1.309h4.58a1.9,1.9,0,0,1,1.111,3.426l-3.7,2.693a1.892,1.892,0,0,0-.688,2.1l1.413,4.353a1.892,1.892,0,0,1-2.911,2.118l-3.7-2.693a1.9,1.9,0,0,0-2.227,0l-3.691,2.709a1.9,1.9,0,0,1-2.936-2.118l1.418-4.353a1.892,1.892,0,0,0-.688-2.1l-3.7-2.693a1.9,1.9,0,0,1,1.111-3.426h4.576a1.9,1.9,0,0,0,1.8-1.309l1.413-4.349a1.9,1.9,0,0,1,3.611-.017Z" transform="translate(-353.455 -213.382)"/><rect class="g" width="121.139" height="6.259" transform="translate(136.347 143.108)"/><rect class="g" width="88.271" height="6.259" transform="translate(152.779 156.351)"/><path class="m" d="M692.544,671.033a1.3,1.3,0,0,0,1.3-1.269c.318-11.748,4.654-19.638,8.5-19.638s8.189,7.879,8.509,19.638a1.3,1.3,0,0,0,2.6-.07c-.34-12.64-5.119-22.174-11.112-22.174s-10.766,9.534-11.109,22.174a1.3,1.3,0,0,0,1.269,1.337Z" transform="translate(-396.06 -356.141)"/><ellipse class="n" cx="19.982" cy="19.982" rx="19.982" ry="19.982" transform="translate(282.228 309.004) rotate(-13.28)"/><ellipse class="o" cx="19.982" cy="19.982" rx="19.982" ry="19.982" transform="translate(277.451 309.004) rotate(-13.28)"/><ellipse class="n" cx="2.687" cy="2.687" rx="2.687" ry="2.687" transform="translate(308.379 310.739)"/><ellipse class="n" cx="2.687" cy="2.687" rx="2.687" ry="2.687" transform="translate(289.238 310.739)"/><path class="p" d="M675.511,671.033a1.3,1.3,0,0,0,1.3-1.269c.318-11.748,4.654-19.638,8.5-19.638s8.188,7.879,8.506,19.638a1.3,1.3,0,0,0,2.606-.07c-.343-12.64-5.119-22.174-11.112-22.174s-10.766,9.534-11.109,22.174a1.3,1.3,0,0,0,1.269,1.337Z" transform="translate(-383.823 -356.141)"/><rect class="h" width="8.484" height="12.55" transform="translate(323.627 331.283)"/><rect class="q" width="11.174" height="24.214" transform="translate(338.299 319.619)"/><path class="h" d="M769.879,648.384s-3.939,1.421-10.521,6.348c-.217.152-.436.31-.647.464a29.7,29.7,0,0,0-6.191,6.073,25.97,25.97,0,0,0-3.7,6.835,18.7,18.7,0,0,0-1.061,4.291v.093l-3.717-.02-17.424-.087a26.169,26.169,0,0,1-1.28-4.277c-.332-1.787-.386-3.658.613-4.381a51.246,51.246,0,0,1,4.944-2.946c3-1.688,6.379-3.557,7.66-4.713a.81.81,0,0,0,.143-.191c.425-.751.816-3.078,1.165-6.32.208-1.888.4-4.089.58-6.472.152-2.04.3-4.221.431-6.43s.25-4.4.363-6.59c.084-1.731.166-3.441.242-5.09s.141-3.245.2-4.733c.082-2,.149-3.824.206-5.372.115-3.222.177-5.262.177-5.262l8.661-.332-.332,2.507.1.017,9.781,1.407,6.331.9s-1.857,11.94-.771,18.074c1.035,5.757,3.692,14.987,4.016,16.1Z" transform="translate(-420.411 -328.655)"/><g class="l" transform="translate(310.48 280.62)"><path class="r" d="M765.112,611.8l.107.017c-2.175,13.079-7.381,43.841-8.327,46.331-1.21,3.191-6.013,5.152-8.644,5.152-1.365,0-2.189-1.278-2.628-2.5,3-1.688,6.382-3.56,7.66-4.716,2.192-1.97,3.506-46.452,3.506-46.452l8.661-.335Z" transform="translate(-745.62 -609.29)"/></g><path class="j" d="M834.27,717.216a1.039,1.039,0,0,1-.132,0,.844.844,0,0,1-.706-.971,19.36,19.36,0,0,1,8.754-13.687.849.849,0,0,1,.822,1.486h0a17.967,17.967,0,0,0-7.9,12.466A.844.844,0,0,1,834.27,717.216Z" transform="translate(-498.234 -395.617)"/><path class="q" d="M753.058,818.35v4.384h-8.484v-.017l-17.424-.09a26.178,26.178,0,0,1-1.28-4.277Z" transform="translate(-420.947 -478.901)"/><path class="j" d="M770.68,773.428a.759.759,0,0,1-.208-.028l-9.348-2.336a.85.85,0,1,1,.411-1.649l9.348,2.338a.85.85,0,1,1-.2,1.688Z" transform="translate(-445.818 -443.718)"/><path class="j" d="M775.35,751.091a.874.874,0,0,1-.208-.025l-9.348-2.341a.85.85,0,0,1,.411-1.649l9.351,2.338a.844.844,0,0,1-.205,1.671Z" transform="translate(-449.174 -427.664)"/><path class="j" d="M780.024,728.785a.845.845,0,0,1-.206-.025l-9.35-2.338a.848.848,0,1,1,.411-1.646l9.351,2.338a.844.844,0,0,1-.206,1.672Z" transform="translate(-452.533 -411.639)"/><path class="j" d="M782.624,706.2a.871.871,0,0,1-.208-.025l-9.348-2.338a.848.848,0,1,1,.411-1.646l9.348,2.336a.85.85,0,1,1-.2,1.688Z" transform="translate(-454.402 -395.413)"/><path class="j" d="M782.1,682.325a.881.881,0,0,1-.208-.025l-9.348-2.338a.848.848,0,0,1,.411-1.646l9.351,2.336a.85.85,0,1,1-.205,1.688Z" transform="translate(-454.028 -378.253)"/><path class="j" d="M784.7,664.694a.845.845,0,0,1-.205-.025l-9.351-2.338a.849.849,0,1,1,.414-1.646l9.348,2.336a.85.85,0,0,1-.205,1.688Z" transform="translate(-455.892 -365.583)"/><path class="j" d="M786.254,648.086a.848.848,0,0,1-.206-.025l-9.351-2.33a.848.848,0,1,1,.411-1.646l9.351,2.336a.85.85,0,1,1-.205,1.688Z" transform="translate(-457.01 -353.655)"/><path class="j" d="M788.594,629.375a.877.877,0,0,1-.208-.025l-9.348-2.338a.848.848,0,0,1,.411-1.646L788.8,627.7a.844.844,0,0,1-.2,1.674Z" transform="translate(-458.692 -340.202)"/><rect class="h" width="8.484" height="12.55" transform="translate(351.119 331.283)"/><rect class="q" width="11.174" height="24.211" transform="translate(365.791 319.619)"/><path class="h" d="M867.53,648.4s-3.94,1.421-10.518,6.345a29.947,29.947,0,0,0-6.835,6.54,25.907,25.907,0,0,0-3.712,6.835A17.991,17.991,0,0,0,845.4,672.5l-3.714-.017-17.427-.09a26.009,26.009,0,0,1-1.278-4.277c-.335-1.787-.385-3.658.613-4.381a50.638,50.638,0,0,1,4.941-2.943c3-1.688,6.382-3.56,7.662-4.716,2.189-1.97,3.506-46.453,3.506-46.453l8.659-.335-.332,2.507.1.017,16.11,2.3s-1.857,11.94-.771,18.074S867.53,648.4,867.53,648.4Z" transform="translate(-490.573 -328.669)"/><g class="l" transform="translate(337.97 280.62)"><path class="r" d="M862.8,611.8l.1.017c-2.172,13.079-7.381,43.841-8.326,46.331-1.21,3.191-6.013,5.152-8.642,5.152-1.368,0-2.192-1.278-2.631-2.5,3-1.688,6.382-3.56,7.662-4.716,2.189-1.97,3.506-46.452,3.506-46.452l8.659-.335Z" transform="translate(-843.31 -609.29)"/></g><path class="j" d="M931.96,717.216h-.132a.844.844,0,0,1-.706-.971,19.369,19.369,0,0,1,8.754-13.687.849.849,0,1,1,.822,1.486,17.978,17.978,0,0,0-7.9,12.466A.844.844,0,0,1,931.96,717.216Z" transform="translate(-568.434 -395.617)"/><path class="j" d="M868.37,773.428a.739.739,0,0,1-.205-.028l-9.351-2.336a.85.85,0,1,1,.411-1.649l9.351,2.338a.85.85,0,0,1-.205,1.688Z" transform="translate(-516.019 -443.718)"/><path class="j" d="M873.043,751.09a.849.849,0,0,1-.206-.025l-9.35-2.341a.85.85,0,0,1,.414-1.649l9.348,2.338a.844.844,0,0,1-.205,1.671Z" transform="translate(-519.377 -427.663)"/><path class="j" d="M877.7,728.785a.842.842,0,0,1-.214-.025l-9.348-2.338a.848.848,0,1,1,.411-1.646l9.348,2.338a.844.844,0,0,1-.205,1.672Z" transform="translate(-522.719 -411.639)"/><path class="j" d="M880.314,706.2a.845.845,0,0,1-.206-.025l-9.35-2.338a.848.848,0,1,1,.411-1.646l9.351,2.336a.85.85,0,0,1-.205,1.688Z" transform="translate(-524.602 -395.413)"/><path class="j" d="M879.8,682.324a.843.843,0,0,1-.205-.025l-9.351-2.338a.849.849,0,1,1,.414-1.646L880,680.65a.85.85,0,0,1-.205,1.688Z" transform="translate(-524.232 -378.252)"/><path class="j" d="M882.391,664.695a.875.875,0,0,1-.205-.025l-9.348-2.338a.848.848,0,0,1,.411-1.646l9.348,2.336a.85.85,0,1,1-.205,1.688Z" transform="translate(-526.097 -365.584)"/><path class="j" d="M883.925,648.086a.847.847,0,0,1-.205-.025l-9.362-2.33a.848.848,0,0,1,.411-1.646l9.348,2.336a.85.85,0,0,1-.205,1.688Z" transform="translate(-527.189 -353.655)"/><path class="j" d="M886.284,629.375a.844.844,0,0,1-.206-.025l-9.351-2.338a.848.848,0,1,1,.411-1.646l9.351,2.336a.844.844,0,0,1-.205,1.674Z" transform="translate(-528.892 -340.202)"/><path class="q" d="M850.729,818.35v4.384h-8.5v-.017l-17.427-.09a26.013,26.013,0,0,1-1.278-4.277Z" transform="translate(-491.126 -478.901)"/><path class="s" d="M257.15,551.23c-24.219,0-43.93,22.576-43.93,50.331q0,1.632.09,3.234h9.71c-.078-1.068-.112-2.147-.112-3.234,0-22.408,15.353-40.614,34.224-40.614s34.246,18.206,34.246,40.614c0,1.087-.034,2.166-.112,3.234h9.729q.09-1.6.09-3.234C301.084,573.806,281.376,551.23,257.15,551.23Z" transform="translate(-134.483 -314.305)"/><path class="t" d="M134.96,744.654h0a2.017,2.017,0,0,1-2.11-1.9V691.44h10.644l-6.438,51.537a2.047,2.047,0,0,1-2.1,1.677Z" transform="translate(-84.128 -402.152)"/><path class="s" d="M198.595,744.654h0a1.9,1.9,0,0,1-1.9-1.9V691.44h9.62l-5.822,51.537A1.9,1.9,0,0,1,198.595,744.654Z" transform="translate(-124.126 -402.152)"/><path class="t" d="M347.493,744.654h0a2,2,0,0,0,2.084-1.9V691.44H339.06l6.349,51.537a2.024,2.024,0,0,0,2.084,1.677Z" transform="translate(-213.327 -402.152)"/><path class="s" d="M436.716,744.654h0a1.9,1.9,0,0,0,1.9-1.9V691.44H429l5.822,51.537A1.9,1.9,0,0,0,436.716,744.654Z" transform="translate(-269.678 -402.152)"/><path class="n" d="M181.687,498,164.471,415.1a15.5,15.5,0,0,0-16.324-12.317v-.049H111.175a15.658,15.658,0,0,0-3.171.329,15.027,15.027,0,0,0-1.494.373v20.227h8.829l19.267,74.363,15.409-.146,1.337,6.427a15.5,15.5,0,0,0,18.322,12.022h0A15.5,15.5,0,0,0,181.687,498Z" transform="translate(-67.625 -221.264)"/><path class="n" d="M303.762,645.366a15.491,15.491,0,0,1-15.5,15.491H219.809a15.5,15.5,0,1,1,0-31h68.455a15.5,15.5,0,0,1,15.5,15.51Z" transform="translate(-128.9 -363.57)"/><rect class="o" width="99.445" height="30.993" rx="15.497" transform="translate(46.127 266.298)"/><path class="o" d="M113.318,516.388a15.88,15.88,0,0,1-3.167.325A15.491,15.491,0,0,1,95,504.366L77.784,421.458a15.487,15.487,0,0,1,10.528-17.926,15.02,15.02,0,0,1,1.494-.373,15.472,15.472,0,0,1,18.326,12.018l1.785,8.59,15.431,74.319A15.5,15.5,0,0,1,113.318,516.388Z" transform="translate(-49.422 -221.326)"/><path class="u" d="M308.463,375.717l-3.361-.022a12.117,12.117,0,0,0,.373-5.781,24.6,24.6,0,0,1-3.089,5.755l-9.871-.078c-1.916-6.636.037-7.843,1.826-12.7a21.01,21.01,0,0,0,1.58-7.873l10.419,2.592a10.339,10.339,0,0,0,.09,6.02C309.445,371.071,308.463,375.717,308.463,375.717Z" transform="translate(-183.671 -191.371)"/><circle class="u" cx="15.267" cy="15.267" r="15.267" transform="translate(92.791 146.888)"/><path class="v" d="M284.681,424.946q0,.542-.045,1.1c-.019.243-.052.489-.086.747a2.577,2.577,0,0,1-.056.373c-.041.25-.093.508-.149.747s-.116.515-.183.781-.142.53-.224.807-.168.553-.265.84-.194.571-.3.866c-.03.086-.06.172-.1.261a1.161,1.161,0,0,1-.067.2c-.049.153-.123.3-.179.456l-.146,1.094-2.136,9.841v.022l-.889,4.108v.067l.112,3.062v.2l.034,1.027.067,1.819.123,3.361.03.889-9.075.052h-3.559l-7.193.041-3.41.03c.045-.564-.325-3.473-.325-3.473q.034-.523.056-1.064c.022-.564.049-1.12.063-1.714v-.049c.683-.71-1.43-10.6-2.48-13.941-.2-.721-.411-1.475-.627-2.241-.172-.613-.347-1.236-.519-1.867v-.03c-.153-.549-.306-1.12-.463-1.666-.59-2.114-1.191-4.291-1.766-6.379a89.215,89.215,0,0,1-1.494-12.858l2.039-.695,3.242-1.1,1.867-.631,3.268-1.12.556.373a9.428,9.428,0,0,0,.874.5,10.306,10.306,0,0,0,10.771-.833l.049-.041,4.653.874,2.935.556.818,1.9,2.7,6.3c.194.452.373.885.519,1.307.052.146.1.284.149.422.093.28.179.549.261.814A13.594,13.594,0,0,1,284.681,424.946Z" transform="translate(-157.17 -225.136)"/><path class="w" d="M273.06,362c-.332,1.143-2.592,1.494-5.045.773s-4.045-2.159-3.843-3.361c.265-1.595,2.588-1.494,5.042-.777S273.377,360.861,273.06,362Z" transform="translate(-166.395 -193.325)"/><path class="v" d="M287.781,385.358a7.323,7.323,0,0,1-1.662,3.779c-1.561,1.953-4.571,6.98-11.708,4.8a10.146,10.146,0,0,1-7.331-9.03c1.4-.355,3.152-.433,3.8-1.247.81-1.016.512-9.056.31-13.034-.067-1.341-.123-2.218-.123-2.218l11.764,4.81s-.146,3.286-.224,5.949a28.248,28.248,0,0,0,0,3.268C282.922,384.689,287.781,385.358,287.781,385.358Z" transform="translate(-168.228 -199.761)"/><path class="u" d="M256.482,375.748l-2.371-.019a9.431,9.431,0,0,0,.837-3.044,21.922,21.922,0,0,1-2.876,3.029l-5.635-.045c-2.573-2.752-2.85-7.708-2.85-7.708-1.531,4.534-.392,6.864.205,7.686l-3.272-.026c-1.912-6.636.041-7.843,1.83-12.7a21.14,21.14,0,0,0,1.591-7.854l5.875,4.743,3.914,1.427C259.974,370.729,256.482,375.748,256.482,375.748Z" transform="translate(-151.095 -191.403)"/><path class="w" d="M289.514,373.22s-.146,3.286-.224,5.949a6.24,6.24,0,0,1-2.506.411c-6.263-.5-9.034-11.17-9.034-11.17Z" transform="translate(-174.913 -199.761)"/><path class="v" d="M273.659,340.984c.086.926.2,1.931.288,2.932.717,7.921,5.374,13.964,10.853,13.471,4.108-.373,7.156-3.843,8.1-8.918.026-.142.052-.291.075-.441a19.907,19.907,0,0,0,.232-3.686,3.969,3.969,0,0,0-.026-.556c0-.258-.03-.519-.056-.781-.172-1.89-.489-4.482-.855-6.252a1.307,1.307,0,0,0-1.737-.978c-.56.2-1.232.444-2.028.71-2.909.986-8.029.575-11.6.777a3.432,3.432,0,0,0-3.245,3.723Z" transform="translate(-172.342 -179.262)"/><path class="x" d="M298.88,375.721s2.988-1.12,3.567-.911l.575.217a1.564,1.564,0,0,1,.575-.452,20.635,20.635,0,0,1,2.117,0,3.694,3.694,0,0,1-.441,2.569,1.142,1.142,0,0,1-.1.134,3.477,3.477,0,0,1-4.19,1,4.189,4.189,0,0,1-.881-.654A5.2,5.2,0,0,1,298.88,375.721Z" transform="translate(-188.152 -203.606)"/><path class="d" d="M305.714,374.64a10.118,10.118,0,0,1-6.834,1.139,4.19,4.19,0,0,0,4.235,2.02C305.55,377.389,305.714,374.64,305.714,374.64Z" transform="translate(-188.152 -203.664)"/><path class="w" d="M307.39,363.862l.5-.134c.336-.09.549-.373.456-.583l-.71-1.669a.553.553,0,0,0-.661-.2h0c-.3.082-.5.3-.478.508l.209,1.8C306.732,363.825,307.057,363.952,307.39,363.862Z" transform="translate(-192.924 -195.265)"/><path class="y" d="M291.091,355.909c.086.523.463.9.844.833a.867.867,0,0,0,.538-1.061c-.082-.523-.463-.9-.844-.833A.864.864,0,0,0,291.091,355.909Z" transform="translate(-183.261 -191.259)"/><path class="u" d="M289.464,348.157a1.423,1.423,0,0,0-.161-.213,2.443,2.443,0,0,0-.527-.459,2.7,2.7,0,0,0-.415-.22,2.812,2.812,0,0,0-.5-.168,2.775,2.775,0,0,0-.564-.071,2.653,2.653,0,0,0-.594.041,3.012,3.012,0,0,0-.571.157c-.179.075-.347.172-.508.258a2.617,2.617,0,0,0-.415.325,2.93,2.93,0,0,0-.314.347,1.736,1.736,0,0,0-.224.321,2.687,2.687,0,0,0-.138.273,1.907,1.907,0,0,0-.1.243s.093-.034.239-.1c.075-.034.161-.075.254-.127a2.912,2.912,0,0,1,.321-.149c.12-.049.232-.123.373-.172s.265-.1.4-.161.28-.09.422-.134a1.971,1.971,0,0,1,.441-.093,3.008,3.008,0,0,1,.444-.056c.149-.022.3,0,.444-.022a1.5,1.5,0,0,1,.429.019c.138.019.269.019.4.037.25.026.467.063.624.09Z" transform="translate(-179.099 -186.361)"/><path class="y" d="M315.791,351.479c.086.523.463.9.844.833a.867.867,0,0,0,.538-1.061c-.082-.523-.463-.9-.844-.833A.864.864,0,0,0,315.791,351.479Z" transform="translate(-198.737 -188.484)"/><path class="u" d="M314.164,343.724a1.317,1.317,0,0,0-.161-.217,2.44,2.44,0,0,0-.527-.456,3.077,3.077,0,0,0-.414-.224,2.811,2.811,0,0,0-.5-.164,2.335,2.335,0,0,0-.564-.071,2.445,2.445,0,0,0-.594.037,3.322,3.322,0,0,0-.571.161,4.3,4.3,0,0,0-.508.258c-.149.1-.288.22-.415.325a2.936,2.936,0,0,0-.314.347,1.519,1.519,0,0,0-.224.321,2.666,2.666,0,0,0-.138.269,2.058,2.058,0,0,0-.1.246l.239-.1c.075-.037.161-.075.254-.127s.205-.1.321-.153a3.187,3.187,0,0,1,.373-.168c.142-.049.265-.1.4-.161s.28-.09.422-.134a1.973,1.973,0,0,1,.441-.093,3.627,3.627,0,0,1,.444-.06c.149-.019.3,0,.444-.019a3.3,3.3,0,0,1,.43,0l.4.037c.25.026.467.063.624.09Z" transform="translate(-194.574 -183.583)"/><g class="l" transform="translate(106.097 166.843)"><path class="w" d="M286.548,366.2a2.088,2.088,0,1,0,1.542-2.577,2.11,2.11,0,0,0-1.542,2.577Z" transform="translate(-286.481 -363.573)"/></g><g class="l" transform="translate(118.334 164.469)"><path class="w" d="M319.307,359.851a2.121,2.121,0,0,0,2.241,1.662,19.9,19.9,0,0,0,.232-3.686,3.965,3.965,0,0,0-.026-.556,1.913,1.913,0,0,0-.9,0A2.14,2.14,0,0,0,319.307,359.851Z" transform="translate(-319.245 -357.217)"/></g><path class="z" d="M330.529,434.365c.1.19.209.4.317.594,1.52,2.868,2.906,6.326,4.482,9.094.06.108.149.276.269.474a.933.933,0,0,0,.09.149,11.137,11.137,0,0,0,2.465,2.928c.1.078.213.149.317.22a3.779,3.779,0,0,0,.325.2l.067.037h0a2.261,2.261,0,0,0,.3.149,1.321,1.321,0,0,0,.168.067,2.749,2.749,0,0,0,.422.127,7.469,7.469,0,0,0,3.07.041,3.663,3.663,0,0,0,.542-.422c1.632-1.438,4.157-5.087,3.925-7.1-.519-4.34,1.281,1.524-4.033-8l-.127-.228c-.217-.373-.444-.8-.683-1.24-3.137-5.774-6.4-12.377-9.064-15.768-2.177-2.771-4.082-2.872-4.082-2.872S327.223,428.065,330.529,434.365Z" transform="translate(-206.808 -227.585)"/><path class="z" d="M227.05,448.747v.041a5.937,5.937,0,0,0,1.542,3.171c.12.157,2.551,1.371,5.882,2.988a44.462,44.462,0,0,0,4.482-10,49.21,49.21,0,0,0,1.434-5.419c1.374-6.984-4.975-21-4.975-21s-1.654.19-3.1,3.286c-1.184,2.536-2.062,7.383-3.245,12.63a80.721,80.721,0,0,0-1.987,13.37C227.072,448.138,227.057,448.44,227.05,448.747Z" transform="translate(-143.148 -231.163)"/><path class="z" d="M284.65,426.475q0,.542-.045,1.1c-.019.243-.052.489-.086.747a2.579,2.579,0,0,1-.056.373c-.041.25-.093.508-.149.747s-.116.515-.183.781-.142.53-.224.807-.168.553-.265.84-.194.571-.3.866c-.03.086-.06.172-.1.261a1.159,1.159,0,0,1-.067.2c-.049.153-.123.3-.179.456l-.146,1.094-1.613,14.778-.25,2.3-.026.217-.3,2.79-.392,3.589-.112-.153-.026-.034-23.4-.183c0-.06-1.423-15.659-2.472-19-.239-.747-.448-1.516-.627-2.241s-.336-1.318-.519-1.867v-.03c-.06-.205-.131-.4-.2-.579a47.014,47.014,0,0,1-2.032-7.469,89.226,89.226,0,0,1-1.494-12.858l2.039-.695,3.242-1.1,1.867-.631a6.191,6.191,0,0,0,4.422,6.08.1.1,0,0,1,.045,0,15.118,15.118,0,0,0,5.74.695,15.823,15.823,0,0,0,4.183-.747l.123-.041c5.3-1.867,5.658-6.222,5.658-6.222l2.935.556.818,1.9,2.7,6.3c.194.452.373.885.519,1.307.052.146.1.284.149.422.093.28.179.549.261.814A13.6,13.6,0,0,1,284.65,426.475Z" transform="translate(-157.138 -226.664)"/><path class="u" d="M272.68,343.741s1.8.747,2.939-.213,1.74-5.027,4.175-5.751,3.014-.777,7.551-.418,4.978-.515,4.978-.515l-.373-.747a1.46,1.46,0,0,0-1.7-.725,17.463,17.463,0,0,1-1.946.415,47.551,47.551,0,0,1-8.216.037l-4.183.1a2.966,2.966,0,0,0-1.352.373h0a2.92,2.92,0,0,0-1.494,2.536Z" transform="translate(-171.737 -179.024)"/><path class="aa" d="M317.9,329.509s-.037-3.163-.964-4.246-.665.646-.239,1.643-.986.583-1.165-.235-1.038.373-.788,1.625-1.18-.161-1.3.456a1.3,1.3,0,0,0,1.7,1.139c.807-.355-.31-1.494.747-1.169s.96.3,1.217-.187.329,1.094.635,1.229C317.922,329.848,317.9,329.509,317.9,329.509Z" transform="translate(-197.272 -172.511)"/><path class="aa" d="M254.262,341.306a.146.146,0,0,1-.269-.1,17.214,17.214,0,0,1,.373-3.193c.631-2.211,1.774-4.145,1.867-3.032.146,2.215-.919,3.316.329,2.913s1.58-2.129,2.02-.7.22,1.912,1.251,1.617,2.032-2.278,1.752-.769.635,2.439,1.3,1.55.373,1.77-.881,1.046a1.867,1.867,0,0,1-1.038-1.378.142.142,0,0,0-.239-.09,2.24,2.24,0,0,1-1.6.6c-.725-.049-1.008-.784-1.12-1.285a.146.146,0,0,0-.265-.049,1.415,1.415,0,0,1-1.438.777C255.588,339.107,254.8,340.3,254.262,341.306Z" transform="translate(-160.026 -178.61)"/><path class="ab" d="M318.31,469.306l1.893.71a11.783,11.783,0,0,0,5.833.639l.131-1.1c.056-.153.127-.3.179-.452a1.463,1.463,0,0,0,.067-.205c.034-.086.067-.176.1-.265l-.063.03a11.827,11.827,0,0,1-5.8.881Z" transform="translate(-200.326 -262.553)"/><path class="ab" d="M283.708,470.463h-.568a5.192,5.192,0,0,0-.646.03c-.246.03-.508.019-.8.03s-.605.03-.934.03H278.1l-.556-.026c-.187,0-.373-.019-.556-.03a3.978,3.978,0,0,1-.556-.037l-.545-.045c-.179-.019-.373-.041-.534-.052s-.347-.045-.519-.06-.336-.03-.5-.056c-.325-.041-.639-.071-.926-.12s-.556-.071-.8-.1l-.631-.082c-.351-.049-.568-.06-.568-.06a5.1,5.1,0,0,0,.426.373,4.72,4.72,0,0,0,.542.418c.1.075.217.146.332.224l.373.22a8.876,8.876,0,0,0,.9.437,9.869,9.869,0,0,0,1.064.373,9.576,9.576,0,0,0,1.173.261c.2.037.407.064.616.082s.415.045.624.049h.624a4.283,4.283,0,0,0,.62-.03c.205-.03.407-.037.605-.06a5.809,5.809,0,0,0,.586-.093c.194-.037.373-.071.564-.116s.373-.1.53-.149c.34-.1.654-.232.941-.344s.545-.261.769-.373a4.537,4.537,0,0,0,.545-.344c.149-.1.269-.19.344-.246Z" transform="translate(-170.941 -263.336)"/><rect class="ab" width="0.93" height="17.269" transform="translate(92.427 190.06) rotate(-12.6)"/><path class="ab" d="M334.756,439.314l-.052-.926.026.463-.026-.463a3.974,3.974,0,0,0,2.614-1.4c.848-1.076,1.091-2.666.725-4.728a65.4,65.4,0,0,0-3.652-12.5l.859-.373a67.007,67.007,0,0,1,3.712,12.7c.415,2.342.1,4.186-.922,5.479A4.817,4.817,0,0,1,334.756,439.314Z" transform="translate(-210.401 -231.702)"/><path class="v" d="M317.486,573.419c-.022.321-.049.65-.075.975,0,.22-.037.441-.052.665-.071.747-.142,1.494-.224,2.263h-.142c-.373.019-.863.03-1.494.026-2.431,0-6.745-.146-11.921-.508-.747-.049-1.471-.1-2.241-.161-.687-.052-1.378-.112-2.088-.172l.019-.456h-.146v-3.735h-31.77c-2.685-.56-4.8-1.359-6.043-2.745h0l-1.408-3.044c-1.363-7.368,2.7-27.591,2.92-28.674v-.045l16.828-.09.941.526c.347.191.721.4,1.12.631l.833.441.908.512.967.553,1.023.586.534.306,1.1.639,1.733,1,.6.351c3.8,2.241,8.1,4.821,12.164,7.428l1.9,1.236q1.255.825,2.45,1.636c.4.269.792.542,1.176.807s.766.534,1.12.8a64.063,64.063,0,0,1,6.073,4.769c.157.142.306.28.448.418a14.173,14.173,0,0,1,1.7,1.9c.078.116.149.228.22.34a2.978,2.978,0,0,1,.172.314,7.2,7.2,0,0,1,.575,2.013c.056.373.1.747.138,1.146.022.273.041.553.06.844A54,54,0,0,1,317.486,573.419Z" transform="translate(-163.556 -305.84)"/><path class="v" d="M396.013,619.491c.784,6.831,3.992,17.683,7.021,27.094q.28.866.56,1.718c.108.34.22.68.325,1.012.224.687.444,1.356.665,2.017,1.714,5.206,3.215,9.557,3.944,11.913h0a8.966,8.966,0,0,1,.53,2.577,9.713,9.713,0,0,1-.131,1.236h0c-.575,3.454-2.678,5.471.261,8.194a19.576,19.576,0,0,0,3.018,2.181h0a3.077,3.077,0,0,1,.4.235h0c3.462,2.05,7.7,3.891,9.154,5.37,2.028,2.05,12,1.52,11.159-.168a1.868,1.868,0,0,0-.355-.456h0c-1.12-1.262-4.482-4.052-7.925-7.357h0c-4.089-3.944-8.306-8.59-8.963-12.164-.478-2.543-1.143-6.928-1.71-12.7q-.157-1.494-.288-3.115c-.138-1.632-.265-3.361-.373-5.161q-.1-1.6-.179-3.286v-.2c-.127-2.7-.22-5.542-.261-8.526-.037-2.786-.276-11.551-.474-18.154-.284-1.639-.583-3.137-.9-4.448a26.732,26.732,0,0,0-.84-2.835h0l-1.247-1.457h0L407.4,600.71h0l-1.12.373-.205.067h0l-.489.164-8.216,2.741S394.877,609.692,396.013,619.491Z" transform="translate(-248.824 -345.306)"/><path class="ac" d="M438.582,805.9l-.351,8.911-.773.09-.317-9.411Z" transform="translate(-274.778 -473.609)"/><path class="ad" d="M426.93,798.89l2.644,12.048,1.49-.176-.045-9.236Z" transform="translate(-268.381 -469.474)"/><path class="ac" d="M451.507,787.082a1.259,1.259,0,0,1-1.1,1.292l-10.457,1.27c-.265.03-2.767-2.394-5.228-4.481s-9.374-3.514-10.886-6.274c-1.143-2.08.134-7.637.829-10.236.228-.848.392-1.382.392-1.382A21.469,21.469,0,0,1,430,770.258c2.1,1.819,3.7,7.122,5.228,8.59s6.349.665,7.723.5c.982-.116,5.568,4.291,8.171,6.887A1.251,1.251,0,0,1,451.507,787.082Z" transform="translate(-266.154 -449.663)"/><path class="ad" d="M453.689,787.057a39.819,39.819,0,0,1-14.012-4.676,32.748,32.748,0,0,1-12.817-13.77c.228-.848.392-1.382.392-1.382a21.471,21.471,0,0,1,4.945,2.988c2.1,1.819,3.7,7.122,5.228,8.59s6.349.665,7.723.5c.982-.116,5.568,4.291,8.171,6.887A1.251,1.251,0,0,1,453.689,787.057Z" transform="translate(-268.337 -449.637)"/><path class="w" d="M396.01,620.086c.784,6.831,3.992,17.683,7.021,27.095q.28.866.56,1.718c.108.34.22.68.325,1.012.224.687.444,1.356.665,2.017l9.385-1.12q-.157-1.494-.288-3.115c-.138-1.632-.265-3.361-.373-5.161q-.1-1.6-.179-3.286v-.2c-.127-2.7-.22-5.542-.261-8.526-.037-2.786-.276-11.551-.474-18.154-.284-1.64-.583-3.137-.9-4.448l-.09-.22c-.7-1.688-2.577-3.772-5.139-6.039l-.205.067h0l-.489.164-8.216,2.741S394.875,610.287,396.01,620.086Z" transform="translate(-248.822 -345.901)"/><path class="ac" d="M294.37,534.6l1.27,17.9,32.2,12.287,10.166,42.365,2.091-.25,10.083-1.2,2.013-.243s-1.042-21.915-3.313-35.083a44.072,44.072,0,0,0-1.74-7.282h0c-.06-.142-.112-.284-.168-.418-3.6-8.69-38.179-27.853-38.179-27.853Z" transform="translate(-185.326 -303.885)"/><path class="v" d="M355.7,665.561a17.866,17.866,0,0,0,2.005,3.141h0a4.4,4.4,0,0,1,.288.373c2.461,3.186,5.721,6.457,6.536,8.369,1.12,2.652,10.6,5.83,10.457,3.947a2.2,2.2,0,0,0-.164-.556h0c-.594-1.587-2.681-5.419-4.668-9.755h0c-2.368-5.184-4.571-11.047-3.888-14.621.43-2.211,1.236-5.748,2.484-10.3.246-.881.5-1.793.777-2.749.986-3.413,8.47-42.2,7.1-44.27-1.464-2.241-5.6-5.255-5.6-5.255s-5.072,2.188-6.969,6.763a43.147,43.147,0,0,0-1.8,5.359,59.058,59.058,0,0,0-1.083,5.856c-.519,6.128-.967,20.962-1.3,31.393-.03.956-.056,1.867-.082,2.756-.123,4.108-.235,7.133-.3,8.108h0a8.915,8.915,0,0,1-.456,2.588,8.458,8.458,0,0,1-.579,1.12h0C356.659,660.844,353.97,661.942,355.7,665.561Z" transform="translate(-223.404 -341.033)"/><path class="ad" d="M349.322,782.59l-1.972,12.179,1.449.385,3.357-8.608Z" transform="translate(-218.521 -459.261)"/><path class="ac" d="M355.585,793.391l-3.6,8.156-.754-.2,3.171-8.87Z" transform="translate(-220.952 -465.458)"/><path class="ac" d="M373.4,781.7a1.258,1.258,0,0,1-1.494.8l-10.177-2.663c-.258-.067-1.692-3.242-3.2-6.1s-7.424-6.722-7.817-9.841c-.3-2.353,2.935-7.051,4.538-9.213.523-.7.874-1.12.874-1.12a21.391,21.391,0,0,1,3.488,4.616c1.288,2.465.822,7.981,1.7,9.893s5.654,2.95,7,3.309c.952.254,3.6,6.039,5.064,9.411A1.259,1.259,0,0,1,373.4,781.7Z" transform="translate(-220.613 -441.073)"/><path class="ad" d="M381.031,781.7a39.736,39.736,0,0,1-11.308-9.5,32.911,32.911,0,0,1-6.853-17.519c.523-.7.874-1.12.874-1.12a21.391,21.391,0,0,1,3.488,4.616c1.288,2.465.822,7.981,1.7,9.893s5.654,2.95,7,3.309c.952.254,3.6,6.039,5.064,9.411A1.259,1.259,0,0,1,381.031,781.7Z" transform="translate(-228.244 -441.073)"/><path class="w" d="M367.64,647.892l8.941.138c.247-.881.5-1.793.777-2.749.986-3.413,2.192-7.283,3.649-11.48q.452-1.322.949-2.685h0q.168-.463.347-.93c.949-5.576,1.893-11.256,2.323-14.285a.168.168,0,0,1,0-.041c.568-6,.616-11.036-.418-13.108a11.993,11.993,0,0,0-2.536-2.988c-.982-.9-2.166-1.867-3.518-2.894-1.247.179-4.377,1.076-6.259,5.658a43.151,43.151,0,0,0-1.8,5.359c-.3,1.076-.568,2.241-.807,3.54-.1.478-.187,1.27-.276,2.315-.519,6.128-.967,20.962-1.3,31.393C367.692,646.092,367.666,647.018,367.64,647.892Z" transform="translate(-231.233 -342.9)"/><path class="ad" d="M316.785,571.452c-.022.321-.049.646-.075.975,0,.22-.037.441-.052.665q-.1,1.12-.22,2.241a4.822,4.822,0,0,1-.056.5c-.037.284-.082.6-.131.967a.128.128,0,0,0,0,.037c-.429,3.029-1.374,8.709-2.323,14.281-1.318,7.682-2.644,15.148-2.644,15.148l-2.3-.034-9.635-.146-2.047-.037s1.225-31.987,1.12-31.991h0a3.735,3.735,0,0,0-3.735-3.735H265.61v.067c-2.162-.549-3.873-1.344-4.855-2.614a1.226,1.226,0,0,1-.142-.2h0a9.644,9.644,0,0,1-1.412-3.044c-2.286-8.033,1.681-24.047,2.924-28.674v-.045c.213-.792.34-1.236.34-1.236l14.86.25s.594.317,1.628.9l.941.527c.347.19.721.4,1.12.631l.829.467.908.512.967.553,1.023.586.534.306c.373.205.728.422,1.1.639l1.733,1,.6.351c3.8,2.241,8.1,4.821,12.164,7.428q.964.616,1.9,1.236c.837.549,1.654,1.091,2.45,1.636q.6.4,1.176.807c.373.269.766.534,1.12.8a63.5,63.5,0,0,1,6.072,4.765c.157.142.306.284.448.422a14.166,14.166,0,0,1,1.7,1.9c.078.116.153.228.22.34a2.984,2.984,0,0,1,.176.314,7.094,7.094,0,0,1,.571,2.013c.056.373.1.747.138,1.146.022.273.045.553.06.844A53.984,53.984,0,0,1,316.785,571.452Z" transform="translate(-162.856 -303.873)"/><rect class="ad" width="24.529" height="3.708" transform="translate(123.739 231.084) rotate(180)"/><rect class="ac" width="22.8" height="0.848" transform="translate(100.342 231.349)"/><path class="v" d="M428.589,416.965s1.389-.482.926-1.43c-.422-.878-2.1-.829-2.1-.829s-.09-.889-1.393-1.161c-1.386-.291-7.634,1.12-8.552.373s1.356-1.374,2.166-2.114a5.566,5.566,0,0,0,1.232-2.144,31,31,0,0,0-6.565,3.26,54.359,54.359,0,0,0-6.58,6.491l-.373.415,4.306,4.631s.31-.187.792-.444h0a12.378,12.378,0,0,1,4.343-1.546c2.024-.1,9.1-1.169,9.617-1.632a2.525,2.525,0,0,0,.639-1.359,3.241,3.241,0,0,0,1.442-.769C428.921,418.216,428.589,416.965,428.589,416.965Z" transform="translate(-256.113 -225.606)"/><path class="v" d="M355.887,507.111h0l3.959.373a7.47,7.47,0,0,1-3.07-.041,2.748,2.748,0,0,1-.422-.127l-.149-.06h-.019a2.237,2.237,0,0,1-.3-.149h0l-.067-.037Z" transform="translate(-223.827 -286.637)"/><path class="v" d="M350.812,462.023c.1.078.213.149.317.22a3.787,3.787,0,0,0,.325.2h5.538a10.127,10.127,0,0,0,2-1.408,47.326,47.326,0,0,0,4.254-4.351q.594-.669,1.191-1.378c.612-.721,1.225-1.464,1.837-2.215.721-.889,1.442-1.781,2.136-2.674,4.037-5.176,7.4-10,7.4-10h0l-4.728-4.6h0c-.205.153-6.767,4.907-12.16,9.131-.542.426-1.068.848-1.58,1.255h0l-1.4,1.12c-.941.781-1.77,1.494-2.424,2.088-.485.452-.878.829-1.15,1.143a11.832,11.832,0,0,0-.848,1.1c-.142.209-.276.426-.4.642a18.751,18.751,0,0,0-2.241,6.517l1.841,2.958a1.463,1.463,0,0,0,.112.22Z" transform="translate(-219.473 -241.99)"/><path class="w" d="M371.46,463.56l.022.034,5.912,10.457c1-1.12,2.02-2.353,3.036-3.6l-8.937-6.875Z" transform="translate(-233.626 -259.376)"/><path class="z" d="M346.3,475.662s.03.052.078.149.149.276.269.474a.93.93,0,0,0,.09.149,11.137,11.137,0,0,0,2.465,2.928c.1.078.213.149.317.22a3.778,3.778,0,0,0,.325.2l.067.037h0a2.267,2.267,0,0,0,.3.149,1.313,1.313,0,0,0,.168.067,2.747,2.747,0,0,0,.422.127,7.468,7.468,0,0,0,3.07.041,7.924,7.924,0,0,0,1.494-.422c4.564-1.7,7.727-6.778,7.727-6.778l-.284-.373-7.1-9.083-.026-.037-1.494.941-.724.452a13.344,13.344,0,0,0-3.384,2.988l-.4.5C347.816,470.736,346.33,472.678,346.3,475.662Z" transform="translate(-217.863 -259.345)"/><path class="v" d="M311.345,545.8s.818,1.221,1.617.53c.747-.635.265-2.241.265-2.241s.837-.314.766-1.643c-.071-1.412-3.018-7.1-2.562-8.171s1.677.964,2.614,1.554a5.7,5.7,0,0,0,2.386.646,31.032,31.032,0,0,0-4.829-5.516,54.444,54.444,0,0,0-7.955-4.7l-.5-.246-3.361,5.348s.258.246.631.65h0a12.548,12.548,0,0,1,2.614,3.806c.616,1.931,3.454,8.5,4.033,8.881a2.539,2.539,0,0,0,1.494.273,3.237,3.237,0,0,0,1.12,1.2C310.221,546.457,311.345,545.8,311.345,545.8Z" transform="translate(-188.722 -298.503)"/><path class="v" d="M226.986,489.125a4.547,4.547,0,0,0,0,.553v.041a5.937,5.937,0,0,0,1.542,3.171c.112.149,2.282,1.24,5.329,2.73l.553.269,1.908.93c7.6,3.675,18.068,8.623,18.427,8.788h0l3.238-5.748h-.022c-.321-.269-14.7-10.767-19.073-13.956l-1.24-.9a6.722,6.722,0,0,0-4.687-1.1,9.276,9.276,0,0,0-3.462,1.12.029.029,0,0,0-.026.022,4.81,4.81,0,0,0-.825.747,8.272,8.272,0,0,0-1.587,2.961,2.616,2.616,0,0,0-.075.377Z" transform="translate(-143.102 -272.079)"/><path class="w" d="M245.45,500.526l.553.269,1.908.93,3.735-10.035Z" transform="translate(-154.676 -277.001)"/><path class="z" d="M239.616,483.883l-2.241-2.413-6.722-2.241-3.5,1-.777,4.567s-.721,3.54,1.714,5.187a39.349,39.349,0,0,0,5.553,2.973Z" transform="translate(-142.661 -269.194)"/><path class="t" d="M213.17,591.752c-7.843-13.68-21.392-22.732-36.726-22.732-24.226,0-43.934,22.572-43.934,50.316,0,1.091.03,2.166.093,3.234h9.71c-.078-1.068-.112-2.144-.112-3.234,0-22.408,15.357-40.61,34.228-40.61,9.9,0,18.841,5.016,25.093,13.026a44.808,44.808,0,0,1,9.135,27.584c0,.978-.034,2.36-.093,3.4h9.71c.052-1.042.078-2.424.078-3.4A55.306,55.306,0,0,0,213.17,591.752Z" transform="translate(-83.915 -325.451)"/><circle class="ae" cx="22.471" cy="22.471" r="22.471" transform="translate(54.716 105.766)"/><path class="k" d="M204.035,311.82,196.6,324.7,189.16,311.82Z" transform="translate(-119.408 -164.305)"/><path class="af" d="M183.147,242.348a4.153,4.153,0,0,1-2.685-.982L169.038,231.7a4.157,4.157,0,1,1,5.367-6.349l8.851,7.469,19.976-20.581a4.155,4.155,0,1,1,5.1,6.562L185.7,241.482A4.168,4.168,0,0,1,183.147,242.348Z" transform="translate(-105.878 -101.369)"/><rect class="h" width="144.984" height="3.552" transform="translate(266.629 54.732)"/><ellipse class="h" cx="6.857" cy="6.857" rx="6.857" ry="6.857" transform="translate(256.699 49.653)"/><path class="ag" d="M586,102.249A6.857,6.857,0,1,1,575.554,94,6.857,6.857,0,0,0,586,102.262Z" transform="translate(-316.201 -42.9)"/><path class="d" d="M593.97,98.113c-.419.566-2.1.038-3.691-1.179s-2.567-2.663-2.139-3.229,2.1-.038,3.691,1.178S594.4,97.547,593.97,98.113Z" transform="translate(-324.996 -42.597)"/><ellipse class="h" cx="6.857" cy="6.857" rx="6.857" ry="6.857" transform="translate(404.337 49.653)"/><path class="ag" d="M938.014,102.249A6.857,6.857,0,1,1,927.575,94a6.853,6.853,0,0,0,10.439,8.262Z" transform="translate(-520.583 -42.9)"/><path class="d" d="M945.995,98.113c-.419.566-2.1.038-3.691-1.179s-2.571-2.663-2.143-3.229,2.1-.038,3.695,1.178S946.422,97.547,945.995,98.113Z" transform="translate(-529.381 -42.597)"/><rect class="n" width="1.954" height="23.926" transform="translate(308.578 73.609)"/><rect class="n" width="1.954" height="23.926" transform="translate(284.093 73.051)"/><path class="j" d="M678.021,93.876h-4.165a2.554,2.554,0,1,0-5.108.038v15.367H664.58V93.914A6.71,6.71,0,1,1,678,93.876Z" transform="translate(-369.436 -38.943)"/><path class="j" d="M656.306,148.307a3.117,3.117,0,0,0-.419-.839,3.251,3.251,0,0,0-1.472-1.183l-3.322-1.363-7.692-3.154-18.332-7.511-2.189-.9-1.979.809-18.428,7.549-11.127,4.559a3.225,3.225,0,0,0,1.225,6.207h60.623a3.183,3.183,0,0,0,3.158-2.6A3.283,3.283,0,0,0,656.306,148.307Zm-58.921,0,5.091-2.1,20.424-8.388,12.427,5.091,8.107,3.326,2.89,1.187,2.1.839Z" transform="translate(-325.756 -65.753)"/><rect class="p" width="28.389" height="23.142" transform="translate(282.932 115.64)"/><path class="ae" d="M669.3,218.027s15.706,4.295,18.965-5.335a47.723,47.723,0,0,0,2.37-18.223S671.6,198.693,669.3,218.027Z" transform="translate(-372.176 -101.234)"/><path class="ae" d="M639.633,218.293s-15.7,4.3-18.961-5.33a47.724,47.724,0,0,1-2.37-18.223S637.339,198.963,639.633,218.293Z" transform="translate(-342.509 -101.39)"/><path class="n" d="M704.968,162.94l-.05-19.1a2.487,2.487,0,0,0-2.453-2.462l-3.02-.029a.508.508,0,0,0-.516.512H697a2.458,2.458,0,0,1,2.483-2.466l3.02.029a4.441,4.441,0,0,1,4.366,4.416l.063,19.091Z" transform="translate(-388.259 -69.259)"/><path class="n" d="M620.134,162.952H618.18l.063-19.091a4.441,4.441,0,0,1,4.387-4.412l3.02-.029a2.458,2.458,0,0,1,2.483,2.466h-1.95a.528.528,0,0,0-.151-.365.52.52,0,0,0-.361-.147h0l-3.02.029a2.479,2.479,0,0,0-2.449,2.453Z" transform="translate(-342.496 -69.271)"/><path class="ae" d="M651.86,370.746H558.44l20.55-73.5c1.367-4.613,2.709-9.227,3.674-13.932A11.789,11.789,0,0,1,594.21,273.9h21.427a11.781,11.781,0,0,1,11.542,9.413c.964,4.7,2.306,9.321,3.678,13.931Z" transform="translate(-307.81 -147.352)"/><path class="p" d="M730.7,420.876H717.612L715.28,360.24Z" transform="translate(-398.873 -197.481)"/><path class="p" d="M661.437,429.481H654.32l6.928-54.421Z" transform="translate(-363.479 -206.086)"/><path class="p" d="M602.189,336.23l-5.406,70.706H578.07Z" transform="translate(-319.208 -183.541)"/><path class="ag" d="M770.911,93.876h-4.169a2.554,2.554,0,0,0-5.1.038v15.367H757.47V93.914a6.71,6.71,0,0,1,13.421-.038Z" transform="translate(-423.368 -38.943)"/><path class="ag" d="M747.27,146.2l-.109-.046-29.236-11.982-2.189-.9-1.98.809-26.233,10.753L684.2,146.2a3.208,3.208,0,0,0-1.464,1.183,3.117,3.117,0,0,0-.419.839,3.234,3.234,0,0,0,3.087,4.169H746.05a3.356,3.356,0,0,0,1.111-.189,3.233,3.233,0,0,0,.109-6.018Zm-57.038,2.038,2.1-.839,23.406-9.625,25.524,10.485Z" transform="translate(-379.655 -65.701)"/><path class="j" d="M751.358,299.228v58.493H695V299.228a24,24,0,0,1,24-24h8.354a24,24,0,0,1,24,24Z" transform="translate(-387.098 -148.124)"/><path class="j" d="M754.063,146.284v45.823a7.448,7.448,0,0,1-7.444,7.44H719.228a7.319,7.319,0,0,1-3.1-.679,7.444,7.444,0,0,1-4.345-6.769V146.284l12-5.574v7.13a9.143,9.143,0,1,0,18.286,0v-7.13Z" transform="translate(-396.84 -70.02)"/><path class="r" d="M739.563,259.618c-.419,0-4.5-3.322-4.391-15.518,0,0-3.535,14.356-.419,15.425Z" transform="translate(-409.433 -130.049)"/><path class="r" d="M724.422,266.659H723.8a7.318,7.318,0,0,1-3.1-.679l-.126-.109c-1.929-1.715-.147-9.571-.147-9.571A16.41,16.41,0,0,0,724.422,266.659Z" transform="translate(-401.422 -137.133)"/><path class="r" d="M785.446,239.8s.5,15.216-5.716,17.287H786.3S788.231,244.585,785.446,239.8Z" transform="translate(-436.293 -127.552)"/><path class="r" d="M766.321,273.11a11.825,11.825,0,0,0,1.858-5.7s-2.3,5.574-5.519,5.788Z" transform="translate(-426.382 -143.583)"/><path class="r" d="M737.2,281.1s-6.534,9.227-5.247,20.357c0,0-5.679-13.073-.109-20.357Z" transform="translate(-407.067 -151.532)"/><path class="r" d="M792.6,316.105c4.92-15.853-3.754-35.128-3.754-35.128l3.255-.277a24.01,24.01,0,0,1,6.035,4.089C800.7,296.7,792.817,315.6,792.6,316.105Z" transform="translate(-441.587 -151.299)"/><path class="r" d="M758.19,281.036a25.773,25.773,0,0,1,3.108,12.536s4.32-7.839,2.428-12.582Z" transform="translate(-423.787 -151.468)"/><rect class="r" width="56.354" height="10.07" transform="translate(307.906 199.527)"/><path class="ah" d="M862.315,93.876h-4.152a2.554,2.554,0,1,0-5.108.038v15.367H848.89V93.914a6.71,6.71,0,0,1,13.421-.038Z" transform="translate(-476.447 -38.943)"/><path class="ah" d="M838.691,146.2l-29.357-12.028-2.185-.9-1.979.809-29.441,12.079-.1.046a3.234,3.234,0,0,0,.1,6.018,3.405,3.405,0,0,0,1.116.189h60.623a3.225,3.225,0,0,0,1.225-6.207Zm-57.037,2.038,25.5-10.464,25.52,10.485Z" transform="translate(-432.748 -65.701)"/><rect class="ai" width="27.105" height="4.177" transform="translate(360.855 69.465)"/><path class="ai" d="M798.656,145.8,812.3,170.3l13.676-24.426,18.428,7.176L828.332,198.9H798.014L782.48,152.619Z" transform="translate(-437.889 -72.976)"/><path class="ai" d="M776.26,189.747l-9.34,50.6H754.85l11.588-77.781,7.1,12.464Z" transform="translate(-421.847 -82.712)"/><path class="ai" d="M906.59,189.747l9.336,50.6H928L916.408,162.57l-7.1,12.464Z" transform="translate(-509.948 -82.712)"/><rect class="ag" width="30.855" height="5.679" transform="translate(360.125 125.391)"/><path class="ai" d="M809.946,284.42h28.5a8.962,8.962,0,0,1,8.962,8.962v62.46H801v-62.46A8.962,8.962,0,0,1,809.946,284.42Z" transform="translate(-448.642 -153.46)"/></g></svg>