<svg xmlns="http://www.w3.org/2000/svg" width="44" height="44" viewBox="0 0 44 44"><defs><style>.a,.b{fill:none;}.b{stroke:#bf3976;stroke-linecap:round;stroke-linejoin:round;stroke-width:2px;}</style></defs><g transform="translate(8473 10427)"><rect class="a" width="44" height="44" transform="translate(-8473 -10427)"/><g transform="translate(-8469 -10425)"><path class="b" d="M114.1,276.5a9.605,9.605,0,1,0-17.811,5l.9,1.569c1.859,3.228,2.509,3.468,3.5,7.056h7.606c1-3.588,1.649-3.828,3.508-7.056l.9-1.569A9.585,9.585,0,0,0,114.1,276.5Z" transform="translate(-86.694 -256.905)"/><line class="b" y1="5.547" transform="translate(17.801 0)"/><line class="b" y1="4.788" x2="2.819" transform="translate(25.747 2.849)"/><line class="b" y1="2.689" x2="4.858" transform="translate(30.735 10.785)"/><line class="b" x1="2.819" y1="4.788" transform="translate(7.027 2.849)"/><line class="b" x1="4.858" y1="2.689" transform="translate(0 10.785)"/><line class="b" x2="6.707" transform="translate(14.443 37.002)"/><line class="b" x2="6.707" transform="translate(14.443 40)"/></g></g></svg>