<svg xmlns="http://www.w3.org/2000/svg" width="44" height="44" viewBox="0 0 44 44"><defs><style>.a,.b{fill:none;}.b{stroke:#bf3976;stroke-linecap:round;stroke-linejoin:round;stroke-width:2px;}</style></defs><g transform="translate(8586 10426)"><rect class="a" width="44" height="44" transform="translate(-8586 -10426)"/><g transform="translate(-8584 -10424)"><path class="b" d="M468.09,185.161l3.9-.411-.1-6.911-3.9-.3a16.413,16.413,0,0,0-2.005-4.714l2.486-3.009-4.912-4.855-3.008,2.528a16.415,16.415,0,0,0-4.742-1.946l-.361-3.9h-6.9l-.361,3.9a16.517,16.517,0,0,0-5.464,2.477l-3.128-2.357-4.642,5.115,2.657,2.879a16.335,16.335,0,0,0-1.744,4.825l-3.88.511.281,6.9,3.91.2a16.675,16.675,0,0,0,2.145,4.654l-2.4,3.089,5.013,4.714,2.917-2.618a16.276,16.276,0,0,0,4.792,1.815l.461,3.892,6.907-.191.241-3.912a16.4,16.4,0,0,0,4.682-2.076L464,197.909l4.782-5.015-2.566-2.959A16.236,16.236,0,0,0,468.09,185.161Z" transform="translate(-431.99 -161.64)"/><ellipse class="b" cx="10.878" cy="10.888" rx="10.878" ry="10.888" transform="translate(9.169 9.046)"/></g></g></svg>