<svg xmlns="http://www.w3.org/2000/svg" xmlns:xlink="http://www.w3.org/1999/xlink" width="421" height="281.102" viewBox="0 0 421 281.102"><defs><style>.a,.ac,.ae,.ai,.an,.ao,.e,.g,.h,.o,.t,.v,.w,.x,.z{fill:none;}.b,.i{fill:#efd8de;}.ab,.aq,.ar,.b{opacity:0.5;}.c{fill:#521335;}.d{fill:#f7edf0;}.e,.g,.h{stroke:#7f7caa;}.ac,.ae,.an,.ao,.e,.g,.o,.v,.w,.x{stroke-miterlimit:10;}.e{stroke-width:0.5px;}.f{fill:#d4b8c5;}.ai,.h,.t,.z{stroke-linecap:round;stroke-linejoin:round;}.j{fill:#dfbcc8;}.k,.r{fill:#fff;}.l{clip-path:url(#a);}.m{fill:#f7b897;}.n{fill:#cac1db;}.ai,.o{stroke:#fff;}.p{fill:#16142a;}.q{fill:#e68566;}.r{opacity:0.7;}.s{fill:#de8759;}.t,.x{stroke:#de8759;}.u{fill:#7f7caa;}.v{stroke:#16142a;}.w{stroke:#f6f1ef;}.y{fill:#dd5850;}.z{stroke:#7e718f;}.aa,.ab{fill:#b0a5c7;}.ac{stroke:#b0a5c7;}.ad{fill:#ea5459;}.ae{stroke:#efecdb;}.af{fill:#11458f;}.ag{fill:#135996;}.ah{fill:#7e2c50;}.aj{fill:#3d405b;}.ak,.aq{fill:#be3b5e;}.al{fill:#e07a5f;}.am{fill:#e95459;}.an{stroke:#7e2c50;}.ao{stroke:#988db5;}.ap{fill:#f5c283;}.ar{fill:#d97386;}.as{fill:#ffdecc;}</style><clipPath id="a"><rect class="a" width="199.603" height="179.36" transform="translate(0 0)"/></clipPath></defs><g transform="translate(-220.025 -565.461)"><path class="b" d="M1466.17,636.875c25.52,26.756,111.731,41.541,118.418,2.224,6.786-39.911-55.623-22.241-92.084-63.564C1464.452,543.744,1424.821,593.533,1466.17,636.875Z" transform="translate(-994.354)"/><path class="b" d="M474.883,921.894s-74.049-200.688,17.891-245.888,142.915,121.172,229.492,84.634,85.782,105.086,69.977,161.254Z" transform="translate(-183.501 -83.138)"/><rect class="c" width="396.078" height="8.191" rx="4.096" transform="translate(244.053 838.371)"/><rect class="d" width="34.001" height="48.563" transform="translate(607.266 583.833) rotate(6.83)"/><path class="e" d="M2321.97,683.33a3.279,3.279,0,0,1-1.371,2.063c-.126.1-1.311-.093-1.609.609a7.1,7.1,0,0,0-.19,2.312" transform="translate(-1699.048 -95.421)"/><path class="e" d="M2333.37,685.411s.888-2.763,1.143-3.761c0,0-.556.533-.865.069" transform="translate(-1710.86 -94.061)"/><path class="e" d="M2338.213,699.481s.1-1.7.042-1.956-1.385-1.1-1.385-1.1" transform="translate(-1713.693 -106.018)"/><path class="e" d="M2323.591,703.78a6,6,0,0,0-.19,1.156" transform="translate(-1702.789 -111.976)"/><path class="e" d="M2320.687,709.689l-5.8-.689a4.69,4.69,0,0,0-.069,1.244,20.308,20.308,0,0,1-.208,3.146" transform="translate(-1695.672 -116.202)"/><path class="e" d="M2345.581,714.38s-.223,2.541-.271,3.468" transform="translate(-1720.526 -120.558)"/><path class="e" d="M2322.8,720.485l.2-.215s-.762-2.308-.41-2.426.741,2.539.741,2.539" transform="translate(-1702.061 -123.359)"/><path class="e" d="M2328.49,728.69l.013.585.215.072.5-.516" transform="translate(-1706.909 -132.142)"/><path class="e" d="M2308.62,730.36a8.018,8.018,0,0,1,1.714.571,10.059,10.059,0,0,0-1.589-.24l1.312.657" transform="translate(-1690.823 -133.494)"/><path class="e" d="M2299.927,734.56a62.466,62.466,0,0,0-3.019,5.634c-.179.792,2.931,1.615,2.931,1.615" transform="translate(-1681.336 -136.894)"/><path class="e" d="M2304.845,736.12a57.177,57.177,0,0,0-1.4,6.285c-.221,2.038-.421,3.5-.421,3.5" transform="translate(-1686.29 -138.157)"/><path class="e" d="M2343.956,734.91l.952.078-1.2.423.933.177s.409,1.958.571,2.958a14.307,14.307,0,0,1,.025,3.954" transform="translate(-1719.23 -137.178)"/><path class="e" d="M2346.61,746.82s2.923-1.08,3.377-1.234c0,0-1.693-5.053-2.646-5.946" transform="translate(-1721.578 -141.007)"/><path class="e" d="M2311.354,737.142a5.719,5.719,0,0,0-1.775-1.539,2.783,2.783,0,0,0-1.85-.421s.779-1.9,1-2.432a27.533,27.533,0,0,1,1.3-2.542,9.162,9.162,0,0,1,3.028-.343,3.387,3.387,0,0,0-.617-.284c-.316-.1-2.43-.821-2.43-.821" transform="translate(-1690.103 -132.199)"/><path class="e" d="M2307.664,762.48c-.135.242.649,1.057.885,1.23" transform="translate(-1690.037 -159.497)"/><path class="e" d="M2310.954,763a17.228,17.228,0,0,0-.312,2.611c-.109,1.752-.209,6.22-.282,6.822" transform="translate(-1692.232 -159.918)"/><path class="e" d="M2310.054,769.3s-1.969,7.949-2.3,8.825a7.587,7.587,0,0,1-.9,1.642" transform="translate(-1689.39 -165.018)"/><path class="e" d="M2311.88,776.05a5.042,5.042,0,0,1,1.838.347" transform="translate(-1693.462 -170.483)"/><path class="e" d="M2300.271,812a20.358,20.358,0,0,0-1.714,5.283c-.267,2.31-.417,6.839-.417,6.839" transform="translate(-1682.339 -199.586)"/><path class="e" d="M2300.667,832.369a22.124,22.124,0,0,1,.581-6.342,33.991,33.991,0,0,0,1.023-3.687" transform="translate(-1684.365 -207.957)"/><path class="e" d="M2296.671,876.77l-.941.19s.19,4.571.632,5.576.794,1.6.887,1.524a11.347,11.347,0,0,0-.1-3.32A34.554,34.554,0,0,1,2296.671,876.77Z" transform="translate(-1680.388 -252.02)"/><path class="e" d="M2326.29,745.4a5.723,5.723,0,0,1,2.1-1.076,2.784,2.784,0,0,1,1.9.029s-.309-2.028-.4-2.6a26.423,26.423,0,0,0-.663-2.777" transform="translate(-1705.128 -140.464)"/><path class="e" d="M2342.353,767.21c.076.267-.88.874-1.143.987" transform="translate(-1717.206 -163.326)"/><path class="e" d="M2334.506,766.37a17.109,17.109,0,0,1-.312,2.609c-.308,1.729-1.265,6.094-1.333,6.7" transform="translate(-1710.447 -162.646)"/><path class="e" d="M2330.12,770.07s.036,8.189.151,9.119a7.668,7.668,0,0,0,.49,1.809" transform="translate(-1708.229 -165.641)"/><path class="e" d="M2332.066,778.713a5.066,5.066,0,0,0-1.866-.1" transform="translate(-1708.293 -172.506)"/><path class="e" d="M2330.681,814.94a20.705,20.705,0,0,1,.428,5.544c-.276,2.306-1.209,6.742-1.209,6.742" transform="translate(-1708.05 -201.966)"/><path class="e" d="M2327.4,835.194a22.1,22.1,0,0,0,.933-6.3,34.117,34.117,0,0,1-.122-3.824" transform="translate(-1706.026 -210.167)"/><path class="e" d="M2317.35,879.94l.872.4s-1.27,4.38-1.933,5.27-1.143,1.364-1.223,1.28a11.243,11.243,0,0,1,.88-3.2A34.945,34.945,0,0,0,2317.35,879.94Z" transform="translate(-1696.036 -254.587)"/><rect class="f" width="14.627" height="3.316" transform="translate(626.163 636.23) rotate(-40.58)"/><rect class="f" width="14.627" height="3.316" transform="translate(601.725 587.677) rotate(-24.02)"/><rect class="d" width="32.862" height="47.921" transform="translate(223.932 581.331) rotate(-12.73)"/><path class="e" d="M329.252,650.695s-.131-2.525-.238-3.415c0,0-.289.606-.684.324" transform="translate(-87.678 -66.237)"/><line class="e" x2="4.685" y2="0.114" transform="translate(238.193 584.268)"/><path class="e" d="M325.24,653.094a4.776,4.776,0,0,0,.828-2.424" transform="translate(-85.177 -68.981)"/><path class="e" d="M321.39,664.36l1.83,5-.162.04a24.314,24.314,0,0,0-.369,4.35l3.938.358s.825-3.394,1.032-3.942l-1.293-1.588-.368.017-.644-4.112,1.508,4.051" transform="translate(-82.06 -80.064)"/><path class="e" d="M351.27,686.57a7.736,7.736,0,0,1,2.683,3.285c.693,1.952.952,2.615.952,2.615" transform="translate(-106.25 -98.044)"/><line class="e" x1="1.577" y1="1.198" transform="translate(240.629 593.685)"/><path class="e" d="M319.3,664.31l1.453,6.607s-.208,4.057.571,5.9l.429,1.611a5.172,5.172,0,0,1,1.234.739" transform="translate(-80.368 -80.023)"/><path class="e" d="M327.7,664.511l-.038,4.449-2.445-4.51" transform="translate(-85.161 -80.137)"/><path class="e" d="M330.56,689.634a31.175,31.175,0,0,1,3.719-2.083" transform="translate(-89.484 -98.837)"/><path class="e" d="M347.4,695.74l2.015,2.177-3.1,3.015-.469-1.48a42.65,42.65,0,0,0,.232,4.38c.232,1.861.5,6.487.19,7.54" transform="translate(-101.862 -105.468)"/><path class="e" d="M350.2,720.82s1.51,5.2,1.792,6.026.7,1.714.7,1.714" transform="translate(-105.383 -125.771)"/><path class="e" d="M357.68,713.91a23.613,23.613,0,0,1,.6,3.792c.011,1.316-.093,3.659.526,4.837" transform="translate(-111.439 -120.177)"/><line class="e" x1="1.181" y2="1.889" transform="translate(246.377 592.449)"/><path class="e" d="M365.54,765.42s3.095,4.952,3.641,9.119" transform="translate(-117.802 -161.877)"/><path class="e" d="M365.81,758.29a11.377,11.377,0,0,1,2.554,3.889,18.05,18.05,0,0,1,1.306,6.531" transform="translate(-118.02 -156.105)"/><path class="e" d="M384,814.65l.529.128s.069.775.242,1.973.491,4.258-.133,4.171-.533-1.524-.571-2.306S384,814.65,384,814.65Z" transform="translate(-132.746 -201.731)"/><path class="e" d="M356.275,819.28l-1.015.64s1.64,3.085,2.158,3.959,1.175,1.383,1.6.891,0-.916-.585-1.714S356.422,820.274,356.275,819.28Z" transform="translate(-109.48 -205.479)"/><path class="e" d="M351.654,781.225a27.423,27.423,0,0,1-1.019-4.1,9.028,9.028,0,0,0-.762-3.076,4.364,4.364,0,0,1-.059-1.893" transform="translate(-105.004 -167.333)"/><path class="e" d="M345.728,765.64s-.48.6.072,3.935a23.214,23.214,0,0,0,1.984,6.106" transform="translate(-101.606 -162.055)"/><path class="e" d="M335.74,714.34s.5,3.459.969,5.388,1.276,4.135,1.276,4.135" transform="translate(-93.677 -120.525)"/><rect class="f" width="15.901" height="3.605" transform="matrix(0.627, -0.779, 0.779, 0.627, 220.025, 588.885)"/><rect class="f" width="15.901" height="3.605" transform="matrix(0.823, -0.568, 0.568, 0.823, 254.834, 622.864)"/><path class="g" d="M1821,580.018h.158a.472.472,0,0,0,.348-.152,1.878,1.878,0,1,1,2.217,2.819.48.48,0,0,0-.267.423v2.3" transform="translate(-1296.07 -10.981)"/><path class="g" d="M1770.77,613.911l-.665-.937a1.027,1.027,0,0,0-.838-.434h-3.31a1.026,1.026,0,0,0-.838.434l-.665.937a1.015,1.015,0,0,1-.482.37l-10.966,4.039a1.5,1.5,0,0,0-.975,1.482h0a1.5,1.5,0,0,0,1.491,1.413h28.187a1.493,1.493,0,0,0,1.491-1.413h0a1.493,1.493,0,0,0-.975-1.482l-10.966-4.039a1.015,1.015,0,0,1-.49-.37Z" transform="translate(-1240.235 -38.113)"/><path class="g" d="M568.155,591.276h0a3.278,3.278,0,0,1-2.4,3.948l-21.521,5.254a3.276,3.276,0,0,1-3.948-2.4h0a3.276,3.276,0,0,1,2.4-3.948l21.521-5.255a3.276,3.276,0,0,1,3.948,2.4Z" transform="translate(-259.195 -18.883)"/><path class="g" d="M656.168,588.75a3.266,3.266,0,1,1-2.4,3.948A3.266,3.266,0,0,1,656.168,588.75Z" transform="translate(-351.063 -18.778)"/><path class="g" d="M542.8,613.9l2.725-.667.587,2.407a.339.339,0,0,1-.25.406l-3.047.741a.451.451,0,0,0,.213.876l3.047-.743a.339.339,0,0,1,.409.25l.587,2.4-2.822.689a3.274,3.274,0,0,1-4.011-2.718A3.337,3.337,0,0,1,542.8,613.9Z" transform="translate(-259.205 -38.672)"/><path class="g" d="M2123.252,598.35a8.547,8.547,0,1,0-5.229,10.9A8.547,8.547,0,0,0,2123.252,598.35Zm-11.158.259a1.308,1.308,0,1,1-.8,1.668A1.308,1.308,0,0,1,2112.094,598.609Zm3.9-1.369a1.308,1.308,0,1,1-.8,1.668,1.308,1.308,0,0,1,.8-1.668Zm-1.605,7.885a1.308,1.308,0,1,1,.8-1.668,1.308,1.308,0,0,1-.8,1.668Zm2.228-2.169a1.308,1.308,0,1,1,1.668.8,1.308,1.308,0,0,1-1.668-.8Z" transform="translate(-1527.31 -21.999)"/><path class="g" d="M2131.524,609.812a6.045,6.045,0,1,0-3.7,7.706A6.045,6.045,0,0,0,2131.524,609.812Zm-9.6,1.1a1.308,1.308,0,1,1,1.67.8,1.309,1.309,0,0,1-1.67-.8Zm3.093,4.847a1.308,1.308,0,1,1,.8-1.668,1.308,1.308,0,0,1-.8,1.668Zm.806-6.216a1.308,1.308,0,1,1,1.668.8,1.309,1.309,0,0,1-1.668-.8Zm3.091,4.841a1.308,1.308,0,1,1,.8-1.668A1.308,1.308,0,0,1,2128.915,614.383Z" transform="translate(-1537.943 -32.631)"/><path class="h" d="M1145.978,588.645l1.889.56-1.1,3.687-1.882-.56a.27.27,0,0,1-.19-.337l.941-3.165a.27.27,0,0,1,.343-.185Z" transform="translate(-748.558 -18.759)"/><path class="h" d="M1260.36,622.747l-.941,3.167a.265.265,0,0,1-.337.177l-1.882-.56,1.1-3.681,1.882.562a.262.262,0,0,1,.183.335Z" transform="translate(-839.646 -45.65)"/><path class="h" d="M1173.478,582.387l-.762,2.567-1.1,3.681-.762,2.569a.512.512,0,0,1-.634.341l-18.373-5.466a.507.507,0,0,1-.341-.628l.762-2.563,1.1-3.687.762-2.563a.5.5,0,0,1,.629-.341l18.369,5.462a.506.506,0,0,1,.345.628Z" transform="translate(-754.069 -8.754)"/><path class="h" d="M1163.71,591.227l4.493-9.317-.059,10.635,6.42-8.742-.2,10.591,5.443-9.035-.981,10.36" transform="translate(-763.961 -13.316)"/><rect class="c" width="50.831" height="68.71" transform="translate(405.484 761.991)"/><rect class="c" width="315.333" height="205.287" rx="102.644" transform="translate(273.232 585.833)"/><rect class="i" width="184.302" height="294.349" rx="91.85" transform="translate(578.075 596.325) rotate(90)"/><path class="j" d="M882.936,789.6v9.643H609.57V789.6a7.014,7.014,0,0,1,7-7H875.933A7.012,7.012,0,0,1,882.936,789.6Z" transform="translate(-315.356 -175.785)"/><circle class="k" cx="2.683" cy="2.683" r="2.683" transform="translate(306.463 612.984)"/><circle class="k" cx="2.683" cy="2.683" r="2.683" transform="translate(314.02 612.984)"/><circle class="k" cx="2.683" cy="2.683" r="2.683" transform="translate(321.575 612.984)"/><rect class="c" width="192.935" height="13.48" rx="6.74" transform="translate(334.431 824.805)"/><path class="k" d="M882.963,870v140.053c0,.238-.011.478-.032.716a7.028,7.028,0,0,1-6.965,6.3H616.587a7.012,7.012,0,0,1-7-7.018V870Z" transform="translate(-315.373 -246.54)"/><rect class="i" width="166.811" height="121.741" transform="translate(300.121 629.732)"/><rect class="j" width="142.49" height="5.222" transform="translate(300.121 757.146)"/><rect class="i" width="90.016" height="64.303" transform="translate(471.812 629.732)"/><path class="k" d="M1743.6,1001.7,1715.06,985.22v32.955Z" transform="translate(-1210.306 -339.816)"/><rect class="i" width="90.016" height="64.303" transform="translate(471.812 698.231)"/><path class="k" d="M1743.6,1361.378,1715.06,1344.9v32.955Z" transform="translate(-1210.306 -630.995)"/><g class="l" transform="translate(270.356 572.113)"><path class="m" d="M1315.037,1352.46a5.289,5.289,0,1,0-10.475,1.047l.137,33.2.381,4.761,4.976-.25,1.586-3.719s1.289-7.58,4.093-18.178C1317.907,1361.125,1316.89,1356.859,1315.037,1352.46Z" transform="translate(-1148.26 -1204.955)"/><path class="m" d="M1400.577,1145.641c.571-.206-.966-5.816-.966-5.816.261.5,1.84,4.917,2.343,4.761.349-.107.1-1.046-.284-2.619-.478-1.958-1.3-3.563-.981-3.676.6-.211,2.339,1.994,2.632,1.8.491-.316-.215-1.3-.609-1.794a24.114,24.114,0,0,0-2.323-2.8,5.332,5.332,0,0,1-1.594-2.384,80.347,80.347,0,0,1-2.011-7.94c-1.03-4.815-1.524-7.306-1.546-7.412h0a4.681,4.681,0,0,0-9.2,1.7,4.629,4.629,0,0,0,.621,1.714h0c.979,1.9,6.538,11.671,7.075,12.96a28.04,28.04,0,0,1,1.457,4.38c.173.781,1.544,5.235,1.925,5.344.484.141-.2-4.22-.2-4.22s1.354,5.38,1.885,5.624.811-.411.811-.411S1400.063,1145.822,1400.577,1145.641Z" transform="translate(-1214.261 -1016.268)"/><path class="n" d="M1258.48,1560.1v1.407a.289.289,0,0,0,.289.29h16.038a.29.29,0,0,0,.288-.322l-.676-5.887h-.979c-.855,0-1.926.015-2.348.781s-1.276,1.333-1.836.381c-.352-.607-.638-1.605-1.773-1.945a10.384,10.384,0,0,1-4.23,2.442C1261.654,1557.893,1258.3,1558.623,1258.48,1560.1Z" transform="translate(-1111.032 -1373.041)"/><line class="o" x2="14.055" transform="translate(147.442 187.065)"/><path class="m" d="M1397.662,1353.77a5.287,5.287,0,1,1,10.241-2.419l8.256,35.02-1.76,5.313-5.176-4.523s-3.55-7.334-8.165-17.588C1397.586,1361.844,1397.348,1358.527,1397.662,1353.77Z" transform="translate(-1223.48 -1204.619)"/><path class="p" d="M1241.2,933.92a3.769,3.769,0,0,0-3.4,0c-1.79.918-2.329,2.5-3.076,4.239s-2.447,3.619-4.978,3.283-5.714.5-6.925,3.316-6.475,2.108-6.475,2.108-.83,5.639,1.524,7.671a6.122,6.122,0,0,0,4-1.626c1.407-1.585,2.362-3.278,4.013-3.342a6,6,0,0,0-3.017,3.28,5.22,5.22,0,0,1-2.769,3.08,16.836,16.836,0,0,0,13.688,5.38c8.648-.714,14.392-10.284,14.392-10.284a3.816,3.816,0,0,0-.52-3.979c-1.575-1.72-.665-4.237-2.158-5.736S1241.2,933.92,1241.2,933.92Z" transform="translate(-1076.813 -870.072)"/><path class="q" d="M1142.964,1012.192a4.931,4.931,0,0,1,6.95-.032l8.761,8.684,1.087,1.076,3.4,3.371a4.913,4.913,0,1,1-6.919,6.978l-2.613-2.583-1.99-1.973-8.648-8.57A4.931,4.931,0,0,1,1142.964,1012.192Z" transform="translate(-1016.372 -932.592)"/><path class="m" d="M1246.575,1024.839a.8.8,0,0,1-.12.988c.51-.238.878.114.762.627-.13.571-1.4.5-1.08,1.552.191.608,2.826,1.663,2.219,2.192-.571.507-1.164-.341-1.794-.366-.789-.029-1.034.314-2.243.411-.762.061-1.6-.291-2.6.394-.836.571-2.889,2.049-6.441,5.064-3.756,3.186-5.658,4.864-5.75,4.931h0a4.683,4.683,0,1,1-4.714-7.947h0c1.935-.908,12.3-5.256,13.522-5.95a28.232,28.232,0,0,0,3.826-2.582c.617-.514,2.236-1.846,2.9-1.333.312.244.118.783.118.783s.49-.1.7.166a.64.64,0,0,1-.146.931S1246.274,1024.42,1246.575,1024.839Z" transform="translate(-1081.364 -942.275)"/><path class="q" d="M1223.3,1048.85s.438,5.944-.992,9.17c0,0-5.826,6.569-8.654,5.6s-6.148-4.337-4.79-7.146,5.938-4.329,5.938-4.329a9.461,9.461,0,0,1,1.937-.64,3.386,3.386,0,0,0,2.118-1.143C1219.454,1049.785,1222.465,1049.223,1223.3,1048.85Z" transform="translate(-1070.619 -963.441)"/><path class="m" d="M1371.414,1047.624h0a4.923,4.923,0,0,1-5.959-3.563l-4.548-18.074a4.923,4.923,0,0,1,3.563-5.959h0a4.927,4.927,0,0,1,5.961,3.563l4.546,18.074A4.923,4.923,0,0,1,1371.414,1047.624Z" transform="translate(-1193.839 -939.99)"/><path class="m" d="M1331.76,985.776l.05-6.016,5.211.762.712,5.247S1335.243,988,1331.76,985.776Z" transform="translate(-1170.362 -907.509)"/><path class="m" d="M1258.651,1046.665h0a4.925,4.925,0,0,1-3.769-5.832l3.912-18.222a4.925,4.925,0,0,1,5.832-3.769h0a4.925,4.925,0,0,1,3.771,5.832l-3.914,18.22A4.923,4.923,0,0,1,1258.651,1046.665Z" transform="translate(-1108.038 -939.061)"/><path class="r" d="M1385.684,1020.41c2.6.518,4.916,5.616,5.771,9.631s1.1,10.242,2.137,13.356,2.868,13.876,2.868,13.876-2.563,2.615-5.129,2.337-8.608-11.505-8.21-16.485S1385.684,1020.41,1385.684,1020.41Z" transform="translate(-1211.925 -940.417)"/><path class="s" d="M1343.488,992.317s-2.994-.023-4.268-1.567l4.011-.32Z" transform="translate(-1176.401 -916.147)"/><path class="m" d="M1338.4,943.388a3.825,3.825,0,0,1-7.649-.162l.093-4.38a3.238,3.238,0,0,1,6.475.137,7.545,7.545,0,0,0,.689,2.651c.021.042.036.074.044.088v.01A3.809,3.809,0,0,1,1338.4,943.388Z" transform="translate(-1169.548 -871.821)"/><path class="t" d="M1352.7,962.29s.128,1.625.84,1.965a.783.783,0,0,1-.726.354" transform="translate(-1187.314 -893.366)"/><path class="p" d="M1344.124,961.528c0,.238-.122.43-.261.427s-.248-.19-.244-.438.122-.43.261-.427S1344.13,961.29,1344.124,961.528Z" transform="translate(-1179.963 -892.395)"/><path class="p" d="M1336.4,937.342s-.526-1.276-1.4-1.291-1.493-.3-1.617-.87a1.505,1.505,0,0,1-1.167,1.352c-1.089.21-1.9,1.754-1.99,2.651a10.837,10.837,0,0,0,.209,2.388l-.834-.653a33.752,33.752,0,0,1,.314-4.9,3.3,3.3,0,0,1,3.367-2.217s1.065-.537,1.714.023.918,1.306,1.625,1.9S1336.4,937.342,1336.4,937.342Z" transform="translate(-1168.613 -870.117)"/><path class="u" d="M1314.9,1022.254a11.82,11.82,0,0,1-.874,4.8,22.824,22.824,0,0,0-1.3,3.832,28.364,28.364,0,0,0,.6,6.965l-16.76-1.79a14.076,14.076,0,0,0-1.425-6.626l-2.653-16.544,7.479-1.524h5.973l6.388,1.725C1313.276,1017.381,1314.87,1019.658,1314.9,1022.254Z" transform="translate(-1138.571 -933.099)"/><path class="n" d="M1472.667,1560.08v1.407a.284.284,0,0,1-.284.284h-16.049a.284.284,0,0,1-.282-.316l.676-5.892h.979c.855,0,1.925.015,2.348.781s1.276,1.333,1.836.381c.352-.608.638-1.605,1.773-1.945a10.383,10.383,0,0,0,4.23,2.442C1469.492,1557.869,1472.85,1558.6,1472.667,1560.08Z" transform="translate(-1270.981 -1373.017)"/><line class="o" x1="14.057" transform="translate(187.637 187.065)"/><path class="p" d="M1358.562,961.208c0,.238-.122.428-.261.427s-.248-.19-.242-.438.122-.43.261-.427S1358.568,960.968,1358.562,961.208Z" transform="translate(-1191.652 -892.136)"/><path class="v" d="M1341.12,958.32a1.079,1.079,0,0,1,1.167-.369" transform="translate(-1177.939 -889.833)"/><path class="v" d="M1357.44,956.964a1.076,1.076,0,0,1,1.082.289" transform="translate(-1191.151 -889.02)"/><path class="m" d="M1325.274,973.352a1.418,1.418,0,1,1-.238-1.746A1.266,1.266,0,0,1,1325.274,973.352Z" transform="translate(-1163.289 -900.543)"/><circle class="w" cx="1.103" cy="1.103" r="1.103" transform="translate(159.535 72.568) rotate(-4.79)"/><line class="x" x1="1.181" y1="0.842" transform="translate(160.524 71.371)"/><path class="y" d="M1349.809,978.526a7.228,7.228,0,0,0-.737-.076,2.818,2.818,0,0,0-.444.065,2.114,2.114,0,0,0-.349-.065c-.19,0-.84.076-.84.076s.225,1.244,1.185,1.244S1349.809,978.526,1349.809,978.526Z" transform="translate(-1183.056 -906.449)"/><path class="k" d="M1348.7,979.173a4.645,4.645,0,0,1-1.16-.213,1.449,1.449,0,0,0,1.16.745,1.483,1.483,0,0,0,1.173-.745A4.823,4.823,0,0,1,1348.7,979.173Z" transform="translate(-1183.136 -906.861)"/><path class="z" d="M1225.42,972.5s4.19,1.143,5.481-1.743,3.666-3.908,6.856-3.323c3.339.609,4.729-1.672,5.226-4.074" transform="translate(-1084.274 -894.233)"/><path class="z" d="M1230.59,1001.219a4.3,4.3,0,0,0,3.379-2.51c1.12-2.363,2.954-2.666,6.009-2.918,3.221-.274,3.739-2.411,3.739-2.411" transform="translate(-1088.46 -918.535)"/><path class="m" d="M1318.278,1168.315a10.085,10.085,0,1,1,19.552-4.729h0l5.333,31.325a5.292,5.292,0,1,1-10.06,3.289l-14.211-28.411h0A10.1,10.1,0,0,1,1318.278,1168.315Z" transform="translate(-1158.929 -1049.118)"/><path class="m" d="M1288.94,1156.036a10.094,10.094,0,1,1,20.142,1.05,10.386,10.386,0,0,1-.206,1.573h0l-6.3,31.144a5.291,5.291,0,1,1-10.568-.55l-3.03-31.63h0A9.967,9.967,0,0,1,1288.94,1156.036Z" transform="translate(-1135.685 -1042.118)"/><path class="r" d="M1258.877,1303.881s-.908,24.924-1.946,32.982-4.7,17.409-4.7,17.409h56.11a97.553,97.553,0,0,0-8.4-14.691c-4.557-6.226-10.871-35.7-10.871-35.7l-12.246-5.451Z" transform="translate(-1105.978 -1165.489)"/><path class="m" d="M1331.76,1011.352l5.982,13.242-.009-13.244Z" transform="translate(-1170.362 -933.083)"/><path class="aa" d="M1321.908,1008.71s-1.535.608-2.318,1.044l4.1,8.6-1.783,2.931,6.42,6.319-.731-5.8-5.689-12.593Z" transform="translate(-1160.51 -930.946)"/><path class="aa" d="M1361.792,1006.63a15.652,15.652,0,0,1,1.868,1.286l-.151,7.521,2.228,1.693-3.377,8.793-.731-6.809.284-11.585Z" transform="translate(-1194.543 -929.262)"/><path class="ab" d="M1355.84,1311.28s-.068,14.069,1.2,22.126-4.2,15.2-4.2,15.2,3.708-10.562,2.2-16.424S1354.543,1313.7,1355.84,1311.28Z" transform="translate(-1187.427 -1175.891)"/><path class="u" d="M1313.4,1163.829h-10.4l-2.042-4.27-.25,4.27h-18s-1.282-19.173-.307-24.058,5.253-9.89,5.483-14.341l15.893,2.969s5.4,8.441,6.222,13.939S1313.4,1163.829,1313.4,1163.829Z" transform="translate(-1130.117 -1025.437)"/><path class="ac" d="M1361.63,1077.48a27.915,27.915,0,0,1,.609,9.13c-.5,5.064.88,18.283,3.152,34.13" transform="translate(-1194.543 -986.618)"/><path class="ac" d="M1311.9,1183.74s-1.464,4.213-5.434,5.557" transform="translate(-1149.888 -1072.641)"/><path class="ac" d="M1402.27,1183.74a7.2,7.2,0,0,0,3.908,4.152" transform="translate(-1227.443 -1072.641)"/><path class="aa" d="M1353.606,1165.11a.741.741,0,0,1-.5.891c-.333.04-.651-.291-.707-.743a.743.743,0,0,1,.5-.893C1353.235,1164.323,1353.551,1164.656,1353.606,1165.11Z" transform="translate(-1187.06 -1056.953)"/><path class="aa" d="M1358.056,1212.558a.742.742,0,0,1-.5.893c-.335.042-.651-.292-.706-.743a.743.743,0,0,1,.5-.893C1357.685,1211.773,1358.01,1212.106,1358.056,1212.558Z" transform="translate(-1190.662 -1095.367)"/><path class="m" d="M1259.426,1149.88c.611,0,1-5.811,1-5.811.082.56-.333,5.028.19,5.047.366.015.67-.726.825-2.337.19-2.007.172-3.8.5-3.809s.434.509.354,1.076c-.076.537-.173,1.244-.042,1.345.457.35.952-.952,1.015-1.665a8.215,8.215,0,0,0-.7-3.487,5.366,5.366,0,0,1-.722-2.777,81.342,81.342,0,0,1,.707-8.159c.609-4.887.969-7.4.975-7.509h0a4.681,4.681,0,1,0-9.227.411h0c.3,2.118,2.342,13.17,2.428,14.564a28.042,28.042,0,0,1-.065,4.616c-.091.8.059,5.378.516,5.378.5,0,.741-3.75.741-3.75s-.488,5.523-.065,5.929.9-.12.9-.12S1258.879,1149.882,1259.426,1149.88Z" transform="translate(-1107.577 -1018.251)"/><path class="aa" d="M1364,1258.82a.739.739,0,0,1-.5.891c-.335.04-.651-.291-.707-.743a.743.743,0,0,1,.5-.893C1363.625,1258.033,1363.941,1258.362,1364,1258.82Z" transform="translate(-1195.471 -1132.816)"/><path class="aa" d="M1367.146,1282.82a.743.743,0,0,1-.5.893c-.335.042-.651-.293-.707-.745a.742.742,0,0,1,.5-.893C1366.774,1282.033,1367.083,1282.362,1367.146,1282.82Z" transform="translate(-1198.021 -1152.245)"/><path class="aa" d="M1356.808,1191.158a.742.742,0,0,1-.507.893c-.335.042-.651-.291-.707-.743a.745.745,0,0,1,.5-.893C1356.433,1190.373,1356.751,1190.714,1356.808,1191.158Z" transform="translate(-1189.65 -1078.042)"/><path class="aa" d="M1360.876,1235.45a.741.741,0,0,1-.5.891c-.333.04-.651-.292-.707-.743a.743.743,0,0,1,.5-.893C1360.5,1234.663,1360.821,1235,1360.876,1235.45Z" transform="translate(-1192.945 -1113.897)"/><ellipse class="aa" cx="0.611" cy="0.825" rx="0.611" ry="0.825" transform="translate(165.329 102.708)"/><path class="r" d="M1257.477,1019.37a6.022,6.022,0,0,0-4.43,5.095c-.3,2.339-1.765,10.094-2.857,12.93s-1.333,4.8-.247,7.664,2.5,9.829,2.318,11.427a4.749,4.749,0,0,0,.506,2.744s3.346.731,5.085,0c0,0,.745-6.285,1.272-9.033a55.845,55.845,0,0,1,1.565-7.9,9.23,9.23,0,0,0-.55-6.369Z" transform="translate(-1103.557 -939.576)"/><path class="ab" d="M1441.943,1471.726s-.274-5.321-5.129-12.111-6.615-16.205-6.615-16.205,3.5,14.775,5.241,17.712,2.611,10.524,2.611,10.524Z" transform="translate(-1250.054 -1282.857)"/><path class="ab" d="M1292.3,1476.085s1.893-2.051,3.047-8.462.55-18.683.55-18.683,1.143,14.958,1.364,19.293a19.572,19.572,0,0,1-1.3,7.885Z" transform="translate(-1138.417 -1287.334)"/><path class="p" d="M1095.631,939.457c-2.369,1.826-3.786,1.558-3.276,4.072s.571,3.725-.571,4.62a3.087,3.087,0,0,0-1.484,2.516h14.889a1.2,1.2,0,0,0,.489-1.583c-.4-1.169-.952-2.116-.735-3.38s.726-5.654-.152-6.759a15.694,15.694,0,0,0-2.981-2.453l-3.891.809Z" transform="translate(-974.882 -872.48)"/><path class="p" d="M1136.8,931.431a2.227,2.227,0,0,1,2.316-.118c1.208.691,2.122-.019,3.238.773s-.137,2.078,1.011,2.786c1.887,1.166.636,2.819-1.524,2.64-1.358-.112-.773,2.583-1.739,1.3S1136.8,931.431,1136.8,931.431Z" transform="translate(-1012.532 -868.062)"/><path class="q" d="M1097.365,1010.92s-6.342,2.476-6.959,7.14c-.552,4.177,3.847,14.3,3.556,17.575H1108a49.536,49.536,0,0,1,1.446-6.241c.914-2.857,1.369-6.624.524-9.02-1.053-2.977-3.618-4.245-5.443-9.454h-7.155Z" transform="translate(-974.934 -932.735)"/><path class="m" d="M1127.15,985.33l.049-6.02,5.216.771.712,5.249S1130.637,987.551,1127.15,985.33Z" transform="translate(-1004.72 -907.145)"/><path class="s" d="M1140.281,990.628a4.688,4.688,0,0,1-3.737-1.362c-1.307-1.6,3.451-.735,3.451-.735Z" transform="translate(-1012.141 -914.422)"/><path class="m" d="M1132.728,942.638a3.828,3.828,0,0,1-7.652.25l-.143-4.38a3.239,3.239,0,0,1,6.475-.213,7.525,7.525,0,0,0,.834,2.615c.021.04.04.07.048.084a3.792,3.792,0,0,1,.438,1.645Z" transform="translate(-1002.923 -871.404)"/><path class="t" d="M1151.08,961.3s.215,1.617.952,1.918a.788.788,0,0,1-.707.4" transform="translate(-1024.092 -892.565)"/><path class="p" d="M1144.853,963.533c0,.24-.1.438-.238.442s-.259-.19-.267-.425.1-.436.238-.44S1144.853,963.295,1144.853,963.533Z" transform="translate(-1018.642 -894.03)"/><path class="p" d="M1116.5,934.375c-.059.707.2,1.032-.571,1.741s-1.076,3.417-.857,4.363l-.316,2.432s-2.179-.535-2.2-1.322.413-.922.253-1.615-1.373-1.562-.924-2.476,1.217-1.213,1.316-1.977-.522-1.75.878-2.857,3.508.061,3.508.061Z" transform="translate(-992.276 -868.997)"/><path class="p" d="M1159.393,961.284c0,.24-.1.438-.238.442s-.259-.19-.267-.425.1-.436.238-.442S1159.385,961.046,1159.393,961.284Z" transform="translate(-1030.413 -892.208)"/><path class="v" d="M1139.39,957.72a1.074,1.074,0,0,1,1.143-.432" transform="translate(-1014.628 -889.307)"/><path class="v" d="M1155.54,955.65a1.078,1.078,0,0,1,1.1.232" transform="translate(-1027.703 -887.942)"/><path class="m" d="M1120.32,973.828a1.421,1.421,0,1,1-.333-1.733A1.265,1.265,0,0,1,1120.32,973.828Z" transform="translate(-997.314 -900.983)"/><path class="o" d="M1120.518,983.623a1.1,1.1,0,1,1-.349-.771A1.1,1.1,0,0,1,1120.518,983.623Z" transform="translate(-997.566 -909.773)"/><line class="x" x1="1.226" y1="0.779" transform="translate(121.467 71.485)"/><path class="ad" d="M1147,977.683a.406.406,0,0,0,.594-.145c.158-.25.331-.322.482-.2.091.076.175.049.248-.067s.261-.158.394.055c.236.381.5.219.682.07,0,0-.55.891-1.158.952C1147.655,978.4,1147,977.683,1147,977.683Z" transform="translate(-1020.789 -905.417)"/><path class="m" d="M1097.563,1162.673a10.094,10.094,0,0,1,19.652-4.539,9.988,9.988,0,0,1,.234,1.569h0l2.529,31.676a5.292,5.292,0,1,1-10.313,2.381l-11.617-29.575h0A10.134,10.134,0,0,1,1097.563,1162.673Z" transform="translate(-980.627 -1045.912)"/><path class="m" d="M1159.661,1349.111a5.293,5.293,0,1,1,10.446-1.333l4.952,37.842-4.908.878-2.327-2.695s-2.9-7.917-6.424-18.6C1158.745,1357.138,1158.852,1353.811,1159.661,1349.111Z" transform="translate(-1030.63 -1201.263)"/><path class="k" d="M1217.694,1560.028v1.411a.272.272,0,0,1-.272.272h-16.087a.274.274,0,0,1-.271-.3l.68-5.9h.981c.853,0,1.925.013,2.348.781s1.278,1.333,1.838.381c.352-.608.638-1.607,1.773-1.946a10.389,10.389,0,0,0,4.234,2.443C1214.517,1557.807,1217.876,1558.546,1217.694,1560.028Z" transform="translate(-1064.555 -1372.969)"/><line class="ae" x1="14.065" transform="translate(139.08 187.061)"/><path class="af" d="M1123.359,1140.69a84.114,84.114,0,0,1,3.348,7.808c.807,2.569,8.05,53.979,8.05,53.979s-4.087,3.352-14.023,2.824L1109.38,1140.7Z" transform="translate(-990.334 -1037.79)"/><path class="m" d="M1053,1350.413a5.291,5.291,0,1,1,9.915,3.552l-11.257,31.424-1.524,4.531-4.771-1.447-.64-4s.8-7.833,2.512-18.955C1048.533,1357.147,1050.142,1354.233,1053,1350.413Z" transform="translate(-937.988 -1204.336)"/><path class="ag" d="M1054.512,1140.69a20.18,20.18,0,0,0-5.228,7.858c-2.085,5.306,0,34.99,0,34.99s-3.956,5.63-7.744,18.079c0,0,4.344,4.293,13.593,3.525,0,0,5.35-14.807,6.6-18.736s6.738-45.708,6.738-45.708Z" transform="translate(-935.414 -1037.79)"/><path class="k" d="M1048.284,1552.183v1.411a.272.272,0,0,1-.272.272h-8.633a.281.281,0,0,1-.1-.021l-6.845-2.8a.272.272,0,0,1-.148-.356l2.384-5.658.952.236a2.5,2.5,0,0,1,1.838,1.607c.642,1.451,2.011-.291,3.969-.011a4.615,4.615,0,0,0,3.874,3.082C1047.013,1550.167,1048.465,1550.7,1048.284,1552.183Z" transform="translate(-927.902 -1365.124)"/><path class="ae" d="M1059.614,1575.387h-8.591l-4.773-1.7" transform="translate(-939.227 -1388.325)"/><path class="q" d="M1093.226,1035.929l2.518,2.457h0c.017.013.053.05.109.1l6.81,6.635.463.449.463.451.13.124h0l2.857,2.786a4.925,4.925,0,0,0,6.948-.093c.08-.082.154-.16.223-.246a4.927,4.927,0,0,0-.311-6.7l-1.826-1.777-.6-.588-1.025-1-1.03-1-8.877-8.646a4.916,4.916,0,0,0-6.856,7.047Z" transform="translate(-976.044 -946.148)"/><path class="ah" d="M1264.154,1093.613c1.143-.47-.952-6.557-2.708-6.258s-.977,4.15-.977,4.15l2.944,2.36Z" transform="translate(-1112.508 -994.604)"/><path class="ai" d="M1082.2,1365.67a6.651,6.651,0,0,0,5.015.5" transform="translate(-968.33 -1219.923)"/><path class="m" d="M1162.681,1092.191a4.851,4.851,0,0,1,3.238-1.985c.137-.076,14.4-.48,16.523-.6l2.476,4.369c-1.055.436-5.656,2.164-10.644,3.862a61.741,61.741,0,0,1-6.032,1.785,4.87,4.87,0,0,1-5.55-7.427Z" transform="translate(-1032.764 -996.438)"/><path class="m" d="M1270.17,1076.241c1.442-.209,2.331-2.143,3.782-2.809s3.855-.209,3.917.236-1.3.6-1.3.6a1.045,1.045,0,0,1,.169,1.143s.512.739.023,1.194c0,0,.423.345,0,1.192,0,0,.663.526.37,1.087s-4.495,1.729-4.495,1.729Z" transform="translate(-1120.502 -983.069)"/><path class="q" d="M1154.67,1094.1h0c1.166,1.394,3.984,4.952,5.875,4.626,1.562-.272,7.746-2.329,11.617-3.222a18.39,18.39,0,0,1,2.095-.381c3.125-.312,4.38-1.482,4.38-1.482-1.546-.061-2.708-6.26-2.708-6.26l-13.543.47-6.755.109-.817,5.213Z" transform="translate(-1026.999 -994.633)"/><path class="p" d="M1134.39,936.889a4.967,4.967,0,0,1,4.676,1.131,2.228,2.228,0,0,0-.783-2.362,4.024,4.024,0,0,0-2.407-.674Z" transform="translate(-1010.581 -871.258)"/><path class="p" d="M1136.5,936.861c.665.653,1.3,1.107,2.095.783.935-.381,1.51.39,1.764,1.008s1.333.659,1.333.659l-.1-2.546-5.089-1.714Z" transform="translate(-1012.289 -871.314)"/><path class="o" d="M1140.575,960.566a1.166,1.166,0,1,1-1.335-1.192A1.283,1.283,0,0,1,1140.575,960.566Z" transform="translate(-1013.734 -890.997)"/><path class="o" d="M1155.805,957.886a1.166,1.166,0,1,1-1.335-1.192A1.284,1.284,0,0,1,1155.805,957.886Z" transform="translate(-1026.064 -888.827)"/><path class="o" d="M1149.54,962.413s.158-.269.779-.15" transform="translate(-1022.845 -893.32)"/><path class="ai" d="M1120.61,1180.355s4.881-2.857,5.982-6.475" transform="translate(-999.425 -1064.659)"/><path class="ai" d="M1117.519,1096.149c-1.813-1.556-4.123-2.7-5.553-3.9s-5.275-4.773-5.275-4.773" transform="translate(-988.156 -994.714)"/><path class="ai" d="M1179.1,1077.22s3.059,1.714,2.476,4.6" transform="translate(-1046.776 -986.408)"/><line class="ai" x1="2.628" y2="0.122" transform="translate(134.562 93.111)"/><path class="m" d="M777.053,1996.905a12.593,12.593,0,1,0-24.934,2.495l7.9,79.054.889,11.332,11.85-.592,3.779-8.856s2.666-18.548,5.11-45.213C783.485,2015.026,781.449,2007.374,777.053,1996.905Z" transform="translate(-700.91 -1720.738)"/><path class="p" d="M602.518,1000.366a8.956,8.956,0,0,0-8.086,0c-4.266,2.188-5.552,5.95-7.328,10.094s-5.828,8.633-11.852,7.82-13.629,1.2-16.493,7.9-15.406,5.018-15.406,5.018-1.975,13.431,3.655,18.27c0,0,6.172-.1,9.505-3.876s5.622-7.808,9.555-7.959c0,0-5.7,2.626-7.186,7.808s-6.591,7.332-6.591,7.332a40.067,40.067,0,0,0,32.59,12.813c20.591-1.7,34.271-24.471,34.271-24.471s2.516-5.378-1.238-9.477-1.581-10.094-5.142-13.659S602.518,1000.366,602.518,1000.366Z" transform="translate(-531.834 -923.403)"/><path class="m" d="M739.991,1536.087a24,24,0,1,0-47.7,3.761h0l11.111,74.79a12.592,12.592,0,1,0,25.184,0l11.11-74.79h0A24.233,24.233,0,0,0,739.991,1536.087Z" transform="translate(-652.441 -1338.474)"/><path class="m" d="M818.09,1123.868l.12-14.328,12.408,1.834,1.7,12.494S826.386,1129.151,818.09,1123.868Z" transform="translate(-754.52 -1012.573)"/><path class="s" d="M846.032,1139.461s-7.13-.055-10.162-3.729l9.551-.762Z" transform="translate(-768.914 -1033.16)"/><path class="m" d="M833.93,1022.143a9.109,9.109,0,1,1-18.214-.381l.22-10.437a7.717,7.717,0,1,1,15.426.326,17.947,17.947,0,0,0,1.644,6.317c.048.1.086.173.1.206a.072.072,0,0,1,0,.025A9.058,9.058,0,0,1,833.93,1022.143Z" transform="translate(-752.597 -926.802)"/><path class="t" d="M868,1068s.3,3.87,2,4.679a1.869,1.869,0,0,1-1.729.847" transform="translate(-794.925 -978.944)"/><path class="aj" d="M847.58,1066.141c-.013.571-.291,1.025-.623,1.017s-.59-.472-.571-1.042.29-1.025.621-1.017S847.591,1065.572,847.58,1066.141Z" transform="translate(-777.426 -976.596)"/><path class="p" d="M829.173,1008.547s-1.249-3.036-3.323-3.072-3.554-.7-3.851-2.074a3.608,3.608,0,0,1-2.777,3.221c-2.586.518-4.555,4.178-4.74,6.312a27.229,27.229,0,0,0,.5,5.689L813,1017.066s0-8.481.745-11.665,5.18-5.938,8.016-5.277c0,0,2.537-1.278,4.074.055s2.186,3.112,3.87,4.518S829.173,1008.547,829.173,1008.547Z" transform="translate(-750.399 -923.548)"/><path class="aj" d="M881.92,1065.364c-.013.571-.291,1.025-.623,1.017s-.59-.474-.571-1.042.291-1.025.623-1.019S881.937,1064.794,881.92,1065.364Z" transform="translate(-805.226 -975.965)"/><path class="v" d="M840.4,1058.435a2.561,2.561,0,0,1,2.779-.88" transform="translate(-772.581 -970.438)"/><path class="v" d="M879.25,1055.276a2.57,2.57,0,0,1,2.579.693" transform="translate(-804.032 -968.563)"/><ellipse class="m" cx="2.607" cy="3.291" rx="2.607" ry="3.291" transform="matrix(0.692, -0.722, 0.722, 0.692, 58.413, 95.645)"/><circle class="w" cx="2.624" cy="2.624" r="2.624" transform="matrix(0.99, -0.139, 0.139, 0.99, 58.985, 97.918)"/><path class="m" d="M795.7,1565.45a24,24,0,1,1,46.327-11.972h0l13.844,74.332a12.593,12.593,0,1,1-23.806,8.2l-34.852-67.1h0A24.31,24.31,0,0,1,795.7,1565.45Z" transform="translate(-735.339 -1355.923)"/><line class="x" x1="2.815" y1="2.005" transform="translate(61.49 94.874)"/><path class="m" d="M989.2,2000.053a12.593,12.593,0,1,1,24.387-5.759l19.672,83.388-4.19,12.652-12.33-10.768s-8.45-17.464-19.439-41.882C989.017,2019.278,988.451,2011.38,989.2,2000.053Z" transform="translate(-892.482 -1719.966)"/><path class="ak" d="M537.1,1222.462h0a11.728,11.728,0,0,1-1.784-16.439l27.806-34.582a11.724,11.724,0,0,1,16.438-1.785h0a11.726,11.726,0,0,1,1.783,16.438l-27.806,34.584A11.728,11.728,0,0,1,537.1,1222.462Z" transform="translate(-523.524 -1059.161)"/><path class="m" d="M1115.308,1201.845c-1.244,1.889-5.418,4.19-11,8.332-4.7,3.493-20.407,18.913-27.716,25.634-1.322,1.217-2.371,2.15-3.028,2.666a11.814,11.814,0,0,1-3.582,1.48l-.049.01c-.131.034-.272.061-.406.088a12,12,0,0,1-11.547-4.171.049.049,0,0,0-.023-.031,12.019,12.019,0,0,1,3.022-17.817l2.364-1.116c9.084-4.287,22.525-10.64,25.09-12,3.938-2.095,6.361-5.308,7.894-7a21,21,0,0,1,6.77-4.691c2.082-.745,3.777-1.021,4.131-.571s-.943,1.306-2.767,2.5-3.238,3.032-2.876,3.6,5.23-.922,8.833-1.762c7.618-1.769,10.284-6.889,11.45-6.247S1116.551,1199.956,1115.308,1201.845Z" transform="translate(-946.526 -1078.276)"/><path class="m" d="M1327.63,1221.945a12.272,12.272,0,0,0,2.272-4.893c.288-2.337.676-3.716,1.333-3.733s1.524,6.553.2,9.414" transform="translate(-1167.018 -1096.588)"/><path class="m" d="M1351.09,1205.649a6.835,6.835,0,0,0,1.278-4.021c-.177-2.051,0-2.8.5-2.948s1.434.75,1.714,3.259a13.222,13.222,0,0,1-1.868,7.445" transform="translate(-1186.01 -1084.723)"/><path class="m" d="M1369.09,1189.828a9.276,9.276,0,0,0,1.006-3.653c.19-2.365,1.419-2.3,1.79-.451.415,2.08-.288,6.982-1.84,9.048" transform="translate(-1200.582 -1073.147)"/><path class="t" d="M1327.63,1221.945a12.272,12.272,0,0,0,2.272-4.893c.288-2.337.676-3.716,1.333-3.733s1.524,6.553.2,9.414" transform="translate(-1167.018 -1096.588)"/><path class="t" d="M1351.09,1205.649a6.835,6.835,0,0,0,1.278-4.021c-.177-2.051,0-2.8.5-2.948s1.434.75,1.714,3.259a13.222,13.222,0,0,1-1.868,7.445" transform="translate(-1186.01 -1084.723)"/><path class="t" d="M1369.09,1189.828a9.276,9.276,0,0,0,1.006-3.653c.19-2.365,1.419-2.3,1.79-.451.415,2.08-.288,6.982-1.84,9.048" transform="translate(-1200.582 -1073.147)"/><path class="m" d="M922.129,1241.727h0a11.726,11.726,0,0,1-16.188,3.371l-37.121-24.32a11.73,11.73,0,0,1-3.373-16.188h0a11.726,11.726,0,0,1,16.188-3.371l37.12,24.32A11.728,11.728,0,0,1,922.129,1241.727Z" transform="translate(-791.32 -1085.252)"/><path class="ak" d="M758.92,1171.753,746.7,1168.69l-1.7,33.769s6.517,20.294,5.826,28.1h37.328a31.075,31.075,0,0,1,.592-14.122c2.171-6.814,5.78-12.714,5.729-18.763-.053-6.26-8.888-10.6-13.232-22.995l-9.389-2.923Z" transform="translate(-695.35 -1060.458)"/><path class="ak" d="M802.59,1165.333s-.217-3.786,1.754-3.657c2.2.147,15.426,1.524,17.824,2.013,2.308.474,1.143,3.889,1.143,3.889l-10.606,1.653Z" transform="translate(-741.966 -1054.777)"/><path class="ak" d="M650.033,1306.345s-6.051,11.176-10.737,14.329,10.107,4.639,11.452,16.39-7.092,7.536-7.092,7.536l-15.1-16.141,3.767-16.725,19.765-12.225Z" transform="translate(-601.086 -1166.363)"/><path class="al" d="M861.083,1106.617a15.565,15.565,0,0,0-1.754-.179,6.725,6.725,0,0,0-1.057.152,4.512,4.512,0,0,0-.832-.152c-.461-.008-2,.179-2,.179s.535,2.962,2.823,2.962S861.083,1106.617,861.083,1106.617Z" transform="translate(-784.757 -1010.061)"/><path class="k" d="M858.442,1108.167a11.09,11.09,0,0,1-2.762-.507,3.491,3.491,0,0,0,2.762,1.771,3.535,3.535,0,0,0,2.794-1.771,11.487,11.487,0,0,1-2.794.506Z" transform="translate(-784.951 -1011.051)"/><ellipse class="am" cx="3.262" cy="10.172" rx="3.262" ry="10.172" transform="matrix(0.723, -0.691, 0.691, 0.723, 141.719, 125.263)"/><path class="ak" d="M992.8,1223.667s-11.536,11.286-17.017,15.878-15.729,9.985-22.9,8.14-35.784-18.773-35.784-18.773l3.464-28.722a50.292,50.292,0,0,1,13.594,5.077c7.184,3.92,15.777,8.852,18.592,11.046s3.481,3.9,3.481,3.9a37.592,37.592,0,0,1,7.85-4.445c4.74-2,14.665-6.812,14.665-6.812Z" transform="translate(-834.673 -1085.958)"/><path class="ak" d="M595.2,1390.3s1.213-.3,1.406-1.219-1.918-1.455-1.918-1.455a.888.888,0,0,0-.032-1.12c-.491-.488-1.948-1.373-5.045-1.844-2.891-.438-6.717.065-11.536,1.891a1.51,1.51,0,0,1-1.714-.459c-3.161-3.954-23.66-31.017-24-31.177a11.589,11.589,0,1,0-15.032,17.521,146.779,146.779,0,0,0,11.793,9.216c10.183,7.309,19.892,13.834,22.2,15.276a8.2,8.2,0,0,0,6.666.554,67.757,67.757,0,0,1,9.372-1.918c1.3-.013,2.946-.381,2.956-.939.019-.952-5.369-1.817-7.416-1.556,0,0,5.234-1.931,9.456-.853s4.359-.141,4.451-.486S596.225,1390.456,595.2,1390.3Z" transform="translate(-523.304 -1208.385)"/><path class="ag" d="M724.69,1654.654c0-1.56-7.332-2.821-16.379-2.821s-16.379,1.261-16.379,2.821c-.175-1.333-18.186-137.238-15.046-150,3.158-12.84,15.6-27.16,15.6-27.16h26.472Z" transform="translate(-639.912 -1310.447)"/><path class="ag" d="M852.535,1645.5c-.5-1.457-7.858-.615-16.495,1.891-8.686,2.527-15.373,5.778-14.933,7.273L766.73,1477.49H808.5c-.1,4.249,3.853,9.384,7.9,16.487s7.6,25.482,11.353,40.5C831.477,1549.351,852.177,1643.834,852.535,1645.5Z" transform="translate(-712.941 -1310.447)"/><path class="ah" d="M1109.125,1305.48s-4.822,4.731-2.744,8.761S1106.807,1311.216,1109.125,1305.48Z" transform="translate(-987.485 -1171.196)"/><path class="an" d="M1087.57,1316.777c0-8.888,6.616-10.757,6.616-10.757s-.272,7.868,4.319,13.743" transform="translate(-972.678 -1171.633)"/><path class="ak" d="M773.755,1337.332c.444-6.368,1.192-16.441,1.192-16.441H722.954s.592,12.591,0,20.887a112.055,112.055,0,0,1-2.034,14.665.508.508,0,0,0-.04.19c0,1.9,12.1,3.458,27.044,3.458s27.044-1.548,27.044-3.458C774.949,1356.634,773.309,1343.7,773.755,1337.332Z" transform="translate(-675.824 -1183.671)"/><ellipse class="p" cx="7.888" cy="8.963" rx="7.888" ry="8.963" transform="matrix(0.805, -0.593, 0.593, 0.805, 43.622, 70.365)"/><path class="ao" d="M564.88,1092.271s9.959,2.74,13.052-4.148,8.732-9.305,16.352-7.915c7.949,1.451,11.259-3.98,12.444-9.7" transform="translate(-549.534 -980.976)"/><path class="ao" d="M748.57,948.31s1.461,8.587,12.57,9.185" transform="translate(-698.24 -882.049)"/><path class="ao" d="M733,972.43s1.967,6.319,15.236,5.382" transform="translate(-685.635 -901.575)"/><path class="ao" d="M577.19,1160.664a10.252,10.252,0,0,0,8.048-5.974c2.666-5.63,7.031-6.329,14.308-6.949,7.666-.655,8.9-5.74,8.9-5.74" transform="translate(-559.499 -1038.851)"/><line class="ae" y1="41.019" x2="2.746" transform="translate(82.032 218.049)"/><path class="an" d="M965.52,1278.676s1.032-9.9,1.023-14.042-5.732-9.877-8.993-13.234" transform="translate(-867.42 -1127.416)"/><path class="v" d="M742.589,967.406s-6.03,2.763-10.4-.545-5.237-9.362-1.5-13.141" transform="translate(-681.863 -886.428)"/><path class="v" d="M742.645,964.441s-5.5,2.529-9.846-1.223-3.95-10.475-.2-12.789" transform="translate(-682.934 -883.765)"/><path class="k" d="M803.468,1243.09c-.061,1.958-.124,3.1-.124,3.1h-3.4s.042-1.143.084-3.1c.215-9.74.68-39.539-1.845-47.7-3.047-9.793-4.691-18.07-4.691-18.07l1.733-.278s1.586,4.278,5.761,18.451C804.416,1207.169,803.8,1233.977,803.468,1243.09Z" transform="translate(-734.605 -1067.217)"/><path class="k" d="M918.861,1262.493h-2.285s-.021-.825-.072-2.259c-.268-9-1.35-42.167-2.362-47.207-1.185-5.845-2.761-20.348-2.761-20.348l.206.063s2.9,14.646,4.845,20.759c1.68,5.277,2.268,37.827,2.4,46.732C918.851,1261.668,918.861,1262.493,918.861,1262.493Z" transform="translate(-830.043 -1079.879)"/><path class="ap" d="M830.9,1523.85c-.061,1.958-.124,3.1-.124,3.1h-3.4s.042-1.143.084-3.1Z" transform="translate(-762.032 -1347.978)"/><path class="ap" d="M940.638,1549.649h-2.285s-.021-.825-.072-2.259h2.327C940.628,1548.824,940.638,1549.649,940.638,1549.649Z" transform="translate(-851.82 -1367.034)"/></g><path class="ap" d="M803.06,1621.2h0l7.351-49.075c.133-.9.821-1.544,1.524-1.423h0a1.472,1.472,0,0,1,.941,1.853Z" transform="translate(-471.996 -813.786)"/><circle class="aa" cx="2.596" cy="2.596" r="2.596" transform="matrix(0.98, -0.2, 0.2, 0.98, 336.844, 754.916)"/><path class="ap" d="M863.25,1771.4h0l38.732-31.022a1.478,1.478,0,0,1,2.078-.013h0a1.478,1.478,0,0,1-.571,2Z" transform="translate(-520.723 -950.809)"/><circle class="aa" cx="2.608" cy="2.608" r="2.608" transform="translate(381.186 789.489) rotate(-22.225)"/><path class="ap" d="M676.925,1621.607h0l-11.256-48.33a1.476,1.476,0,0,1,.886-1.882h0c.689-.141,1.4.482,1.556,1.377Z" transform="translate(-360.727 -814.339)"/><circle class="ak" cx="2.596" cy="2.596" r="2.596" transform="translate(302.364 758.273) rotate(-64.16)"/><path class="ap" d="M438.481,1786.341h0l-41.3-27.51a1.472,1.472,0,0,1-.644-1.975h0a1.484,1.484,0,0,1,2.078-.065Z" transform="translate(-142.747 -964.13)"/><circle class="ak" cx="2.602" cy="2.602" r="2.602" transform="matrix(0.948, -0.319, 0.319, 0.948, 251.227, 791.628)"/><path class="ap" d="M540.639,1646.151s-12.189-46.256-14.124-51.962-3.249-5.359-3.891-5.157c-.571.181-1.9.674-.225,6.456S540.639,1646.151,540.639,1646.151ZM523.4,1591.492c.6-.191,1.465.87,1.935,2.361s.368,2.857-.23,3.047-1.461-.869-1.931-2.362-.37-2.865.227-3.051Z" transform="translate(-244.124 -828.56)"/><path class="ap" d="M847.86,1686.135s27.057-39.45,30.112-44.641,1.935-5.963,1.364-6.315c-.514-.318-1.76-1.008-5.035,4.047S847.86,1686.135,847.86,1686.135Zm30.118-48.766c.533.331.3,1.678-.524,3.009s-1.92,2.143-2.455,1.813-.3-1.672.526-3S877.45,1637.041,877.978,1637.369Z" transform="translate(-508.264 -865.811)"/><path class="ak" d="M579.9,1775v.036a43.788,43.788,0,0,1-.465,6.376H491.057a43.774,43.774,0,0,1-.457-6.369V1775a44.648,44.648,0,1,1,89.3-.008Z" transform="translate(-219.044 -943.037)"/><rect class="ap" width="97.093" height="6.378" rx="3.189" transform="translate(267.657 831.995)"/><path class="ap" d="M835.88,1798.275h0l6.184-18.375c.114-.337.632-.449,1.143-.248h0c.512.2.815.636.669.952Z" transform="translate(-498.566 -982.868)"/><path class="aa" d="M865.7,1769.991a2.6,2.6,0,1,1-1.466-3.367A2.6,2.6,0,0,1,865.7,1769.991Z" transform="translate(-518.646 -972.256)"/><path class="ap" d="M621.8,1742.97h0l-8.909-17.22c-.162-.316.116-.762.617-.994h0c.5-.229,1.023-.143,1.154.191Z" transform="translate(-318.01 -938.404)"/><path class="ak" d="M607.647,1713.181a2.6,2.6,0,1,1-3.44-1.288,2.6,2.6,0,0,1,3.44,1.288Z" transform="translate(-309.782 -927.905)"/><path class="ap" d="M586.475,1841.03h0l-8.911-17.222c-.162-.314.116-.762.617-.992h0c.5-.229,1.023-.143,1.154.19Z" transform="translate(-289.409 -1017.789)"/><circle class="aa" cx="2.596" cy="2.596" r="2.596" transform="translate(285.451 806.624) rotate(-70.22)"/><path class="ap" d="M742.19,1812.617h0l4.095-18.954c.074-.346.571-.516,1.106-.381h0c.531.143.88.541.762.88Z" transform="translate(-422.719 -993.946)"/><circle class="aa" cx="2.596" cy="2.596" r="2.596" transform="translate(321.142 800.311) rotate(-60.73)"/><path class="u" d="M1774.152,880.438c1.385,2.162.541,14.5,10.528,18.4s24.838,1.143,29.329,9.058c4.15,7.306,2.247,14.678-.217,21.357s-7.911,18.418-14.525,35.408c-6.639,17.053-11.808,31.908-9.332,44.1s13.1,20.759,16.472,41.764c2.889,18-3.74,36.286-5.7,41.158a2.006,2.006,0,0,1-1.868,1.255h-70.823a2.015,2.015,0,0,1-1.973-1.594c-1.185-5.582-5.19-24.214-7.047-29.923-2.205-6.744-5.837-18.936,1.686-34.5s8.761-34.437,5.578-42.47-7.685-11.9-7.618-18.451,3.988-24.286,3.4-30.318-3.112-12.9-.906-16.537,10.856-8.2,15.3-9.76,9.793-3.3,10.96-7.273-.076-10.431-1.255-13.663C1744.452,883.809,1772.77,878.277,1774.152,880.438Z" transform="translate(-1211.194 -254.6)"/><path class="ao" d="M1888.56,889.839s19.974-.173,25.162-7.349" transform="translate(-1350.763 -256.651)"/><path class="ao" d="M1879.94,987.4s9.97,2.508,18.95-1.038,14.967-7.808,17.9-8.353" transform="translate(-1343.785 -333.979)"/><path class="ak" d="M2063.852,983.29c-3.156,6.551-23.852,19.334-23.852,19.334s5.9-21.588,8.86-25.419c1.278-1.661,1.872-1.36,2.611-1a2.347,2.347,0,0,0,1.83.261,2.874,2.874,0,0,0,.411-.15,3.784,3.784,0,0,1,3.952.665c.038.027.082.053.12.086.777.606,2.192.609,3.449.533a11.254,11.254,0,0,1,2.443-.091C2067.265,978.723,2064.187,982.6,2063.852,983.29Z" transform="translate(-1473.362 -332.291)"/><path class="ak" d="M1788.608,1020.151c-2.167,9.724-8.511,22.345-8.511,22.345s-2.461-15.385-4.116-17.969c-1.436-2.253-.179-2.607,1.078-3.392a4.339,4.339,0,0,0,.545-.381,3.639,3.639,0,0,0,.832-.891,3.94,3.94,0,0,1,1.644-1.7,2.932,2.932,0,0,1,2.607-.31,3.936,3.936,0,0,0,2.221.049,3.358,3.358,0,0,0,1.223-.632c.72-.592.882-1.251,2-1.251C1789.7,1016.026,1788.768,1019.471,1788.608,1020.151Z" transform="translate(-1259.108 -364.75)"/><path class="ak" d="M1738.524,1114.27s-7.007,19.354-10.955,30.8-.718,16,1.116,19.961,7.237,15.845,6.384,24.873a60.655,60.655,0,0,1,8.622,0c3.742.366,3.082.3,5.613,0s1.541-.623,4.072-.293,2.973.425,4.733.543,1.762-.118,4.293,0c0,0-2.857-22.283-4.6-39.006-.712-6.788-4.872-8.53-2.047-14.52,1.8-3.822-.154-6.881-3.068-8.652C1744.464,1122.989,1738.524,1114.27,1738.524,1114.27Z" transform="translate(-1218.915 -444.289)"/><path class="ak" d="M1920.949,1163.879s-7.886,1.185-9.924.571-2.476-1.32-5.778-1.046-4.9,1.373-7.759.467-4.072-.594-7.319-.034a19.264,19.264,0,0,1-6.649-.227s.421-36.313,11.381-53.476c8.365-13.1,21.037-28.364,21.037-28.364s1.415,18.129,2.076,27.154,3.963,20.471,3.853,30.6S1920.949,1163.879,1920.949,1163.879Z" transform="translate(-1346.683 -417.978)"/><path class="ak" d="M2040.411,1281.437c5.262-4.552,16.011-20.511,18.194-25.737,0,0-8.823,24.267-10,32.186s-.16,18.908-5.216,16.792a13.369,13.369,0,0,0-4.1,0c-2.377.341-9.319-2.411-9.319-2.411Z" transform="translate(-1465.242 -558.783)"/><path class="ah" d="M1807.72,1037.167a37.874,37.874,0,0,0,1.187-13.964,3.936,3.936,0,0,0,2.221.05,3.361,3.361,0,0,0,1.223-.632C1811.91,1027.252,1807.981,1036.557,1807.72,1037.167Z" transform="translate(-1285.319 -370.094)"/><path class="ah" d="M1787.412,1044.3a38.047,38.047,0,0,0-2.962-6.83,4.317,4.317,0,0,0,.545-.381,3.635,3.635,0,0,0,.832-.891A21.4,21.4,0,0,1,1787.412,1044.3Z" transform="translate(-1266.481 -381.087)"/><path class="aq" d="M1755.829,1590.753h-111.9s5.5-30.714,9.686-47.378,15.259-45.327,15.259-45.327l26.177-2.6,2.563-.251,3.106-.311,15,1.714,4.213.478,10.932,1.246s9.917,24.516,16.632,39.731S1755.829,1590.753,1755.829,1590.753Z" transform="translate(-1152.723 -752.42)"/><path class="ah" d="M1788.073,1114.27l-1.173,3.247,4.333.781Z" transform="translate(-1268.465 -444.289)"/><path class="ah" d="M2073.283,977.681a44.223,44.223,0,0,1-2.232,5.6,64.83,64.83,0,0,1-6.361,9.9l6.763-15.76A2.339,2.339,0,0,0,2073.283,977.681Z" transform="translate(-1493.35 -333.502)"/><path class="ah" d="M2097.718,982.129c-2.236,9.422-12.021,15.341-12.657,15.718,5.774-4.458,8.447-13.779,9.088-16.337.038.027.082.053.12.086C2095.045,982.2,2096.46,982.205,2097.718,982.129Z" transform="translate(-1509.84 -336.813)"/><path class="ah" d="M1941.533,1182.2s-13.5,13.612-14.823,41.053C1926.71,1223.253,1931.993,1199.152,1941.533,1182.2Z" transform="translate(-1381.648 -499.281)"/><path class="an" d="M1883.408,1364s-3.583,20.681-3.478,28.013" transform="translate(-1343.776 -646.458)"/><path class="an" d="M1818.05,1186.24s8.189,16.188,10.753,31.259" transform="translate(-1293.682 -502.552)"/><path class="an" d="M1815.108,1407.13s-1.179-12.124-5.818-22.13" transform="translate(-1286.59 -663.458)"/><path class="an" d="M1973.559,1413.72s-.882-6.639,5.87-20.58" transform="translate(-1419.544 -670.048)"/><path class="aq" d="M1739.969,1702.2a237.6,237.6,0,0,1,8.761-40.973c-.267,3.085-1.954,22.128-3.7,31.424-1.35,7.151-1.263,23.679-1.095,32.757h-7.2C1737.477,1720.923,1738.566,1713.6,1739.969,1702.2Z" transform="translate(-1227.849 -887.08)"/><path class="ar" d="M1799.838,1659v.314s-.011.038-.038.114C1799.817,1659.143,1799.838,1659,1799.838,1659Z" transform="translate(-1278.908 -885.275)"/><path class="aq" d="M2122.315,1754.08c.2-14.263-3.455-57.439-3.455-57.439a70.621,70.621,0,0,1,5.24,20.569c1.04,9.979,2,30.323,2.3,36.875Z" transform="translate(-1537.203 -915.747)"/><path class="aq" d="M1899.679,1496.47a30.159,30.159,0,0,1-.747,3.129c-3.3,3.935-4.518,37.159-4.518,37.159s-3.081-31.352,2.251-39.383c.158-.234.3-.453.442-.653Z" transform="translate(-1354.787 -753.699)"/><path class="aq" d="M2028.568,1533.7c-.232-.556-7.759-18.514-7.662-29.849l4.213.478c.1,1.175.152,2,.152,2A87.508,87.508,0,0,0,2028.568,1533.7Z" transform="translate(-1457.903 -759.673)"/><path class="aq" d="M2003.809,1787.158h-5.039V1737.5C2000.795,1756.014,2002.726,1775.784,2003.809,1787.158Z" transform="translate(-1439.984 -948.825)"/><path class="p" d="M1678.55,1204.886a2.679,2.679,0,0,1,2.75-.455c1.537.661,2.529-.312,3.967.482s.12,2.5,1.588,3.19c2.411,1.143,1.143,3.28-1.472,3.362-1.636.05-.571,3.188-1.9,1.784S1678.55,1204.886,1678.55,1204.886Z" transform="translate(-1180.75 -517.109)"/><path class="q" d="M1658.566,1284.481a5.929,5.929,0,0,1,3.39-7.633l13.836-5.319,1.714-.661,5.371-2.064a5.9,5.9,0,0,1,4.236,11.023l-4.116,1.583-3.142,1.205-13.661,5.253A5.925,5.925,0,0,1,1658.566,1284.481Z" transform="translate(-1164.256 -569.072)"/><path class="as" d="M1640.267,1300.55l-2.5.7-5.018,9.046s3.777,16.017,3.428,19.957h16.864a59.364,59.364,0,0,1,1.737-7.5c1.1-3.441,1.647-7.961.629-10.84-1.265-3.578-4.346-5.1-6.54-11.36h-8.6Z" transform="translate(-1143.672 -595.092)"/><path class="m" d="M1672.22,1269.787l.059-7.237,6.268.927.857,6.31S1676.41,1272.455,1672.22,1269.787Z" transform="translate(-1175.625 -564.329)"/><path class="s" d="M1687.99,1276.15s-2.92.286-4.493-1.636,4.15-.884,4.15-.884Z" transform="translate(-1184.533 -573.072)"/><path class="m" d="M1676.772,1217.564a4.6,4.6,0,1,1-9.1,1.333l-.762-5.216a3.9,3.9,0,0,1,7.711-1.143,9.021,9.021,0,0,0,1.35,3.007l.069.1a.022.022,0,0,1,0,.011A4.541,4.541,0,0,1,1676.772,1217.564Z" transform="translate(-1171.291 -521.148)"/><path class="t" d="M1699.44,1239.42s.478,1.9,1.39,2.162a.952.952,0,0,1-.79.571" transform="translate(-1197.661 -545.604)"/><path class="p" d="M1691.037,1240.042c.042.284-.059.535-.225.56s-.333-.19-.381-.472.059-.533.223-.558S1691,1239.758,1691.037,1240.042Z" transform="translate(-1190.359 -545.725)"/><path class="p" d="M1657.716,1209.735c.029.853.381,1.206-.455,2.158s-.819,4.226-.429,5.333l-.5,3s-2.222-.394-2.362-1.333.368-1.154.084-1.962-1.853-1.68-1.44-2.834,1.287-1.615,1.3-2.541-.863-2.019.659-3.523,4.19-.4,4.19-.4Z" transform="translate(-1159.7 -519.553)"/><path class="p" d="M1708.087,1235.384c.042.284-.059.533-.225.558s-.333-.19-.381-.47.057-.535.223-.56S1708.045,1235.1,1708.087,1235.384Z" transform="translate(-1204.162 -541.953)"/><path class="v" d="M1685.24,1236.142a1.294,1.294,0,0,1,1.31-.672" transform="translate(-1186.166 -542.406)"/><path class="v" d="M1704,1231.788a1.265,1.265,0,0,1,1.333.127" transform="translate(-1201.353 -539.314)"/><ellipse class="m" cx="1.318" cy="1.663" rx="1.318" ry="1.663" transform="matrix(0.562, -0.827, 0.827, 0.562, 494.1, 698.518)"/><path class="o" d="M1666.532,1269.561a1.333,1.333,0,1,1-1.5-1.118,1.333,1.333,0,0,1,1.5,1.118Z" transform="translate(-1168.874 -569.089)"/><line class="x" x1="1.571" y1="0.762" transform="translate(495.561 697.852)"/><path class="ad" d="M1697,1258.667a.488.488,0,0,0,.691-.253c.154-.318.352-.43.547-.3.122.078.215.036.288-.112s.29-.225.478.011c.333.419.623.19.825,0,0,0-.537,1.143-1.255,1.289C1697.9,1259.437,1697,1258.667,1697,1258.667Z" transform="translate(-1195.686 -560.53)"/><path class="m" d="M1636.223,1480.912a12.12,12.12,0,1,1,23.9-3.567h0l3.028,38.067a6.359,6.359,0,1,1-12.393,2.857l-13.964-35.542h0A12.2,12.2,0,0,1,1636.223,1480.912Z" transform="translate(-1146.233 -729.089)"/><path class="m" d="M1711.278,1707.052a6.359,6.359,0,1,1,12.554-1.605l5.944,45.478-5.9,1.055-2.8-3.238s-3.489-9.522-7.719-22.359C1710.171,1716.7,1710.3,1712.7,1711.278,1707.052Z" transform="translate(-1206.751 -917.877)"/><path class="k" d="M1781.037,1960.42v1.7a.326.326,0,0,1-.326.328h-19.336a.328.328,0,0,1-.324-.364l.815-7.1h1.179c1.027,0,2.316.019,2.824.939s1.533,1.609,2.207.45c.423-.729.762-1.931,2.131-2.339a12.433,12.433,0,0,0,5.087,2.937C1777.217,1957.748,1781.254,1958.637,1781.037,1960.42Z" transform="translate(-1247.537 -1124.117)"/><line class="ae" x1="16.902" transform="translate(516.603 836.303)"/><path class="af" d="M1667.66,1456.5s3.047,6.3,4.024,9.378,9.675,64.871,9.675,64.871-4.912,4.03-16.853,3.394L1650.86,1456.5Z" transform="translate(-1158.333 -721.341)"/><path class="m" d="M1583.2,1708.5a6.359,6.359,0,1,1,11.913,4.27l-13.522,37.776-1.819,5.443-5.736-1.737-.762-4.8s.952-9.414,3.019-22.78C1577.829,1716.589,1579.762,1713.089,1583.2,1708.5Z" transform="translate(-1095.52 -921.448)"/><path class="ag" d="M1584.91,1456.5a24.283,24.283,0,0,0-6.285,9.444c-2.51,6.378,0,42.047,0,42.047s-4.761,6.767-9.305,21.73c0,0,5.222,5.157,16.337,4.236,0,0,6.428-17.8,7.934-22.517s8.1-54.941,8.1-54.941Z" transform="translate(-1092.323 -721.341)"/><path class="q" d="M1607.072,1309.633c-1.541,11.467-5.87,36.267-3.579,62.468,0,0,13.4,1.154,21.1-.937,0,0,.823-38.353-.609-46.5-3-17.057-6.14-22.016-8.323-23.863l-1.956.64C1611.711,1302.362,1607.973,1302.933,1607.072,1309.633Z" transform="translate(-1119.457 -595.294)"/><path class="k" d="M1577.43,1951.053v1.7a.328.328,0,0,1-.326.328h-10.376a.356.356,0,0,1-.124-.025l-8.227-3.367a.326.326,0,0,1-.177-.428l2.857-6.8,1.143.286a3,3,0,0,1,2.207,1.931c.773,1.745,2.419-.35,4.773-.013,1.312,2.881,3.141,3.512,4.655,3.7C1575.9,1948.629,1577.65,1949.271,1577.43,1951.053Z" transform="translate(-1083.3 -1114.75)"/><path class="ae" d="M1591.051,1978.918h-10.324l-5.736-2.038" transform="translate(-1096.913 -1142.615)"/><path class="q" d="M1640.174,1320.565l4.089,1.076a1.569,1.569,0,0,1,.173.04l11.046,2.9.75.19.75.19.208.053h0l4.643,1.219a5.921,5.921,0,0,0,7.208-4.217,3.57,3.57,0,0,0,.088-.381,5.921,5.921,0,0,0-4.295-6.82l-2.963-.777-.979-.257-1.665-.438-1.67-.436-14.4-3.78a5.907,5.907,0,1,0-3,11.427Z" transform="translate(-1146.097 -601.88)"/><path class="ah" d="M1851.395,1297.461c.939-1.143-4.706-6.426-6.4-5.123s1.3,4.952,1.3,4.952l4.455.848Z" transform="translate(-1315.078 -588.278)"/><path class="ai" d="M1618.19,1726.87s2.143,1.474,6.026.6" transform="translate(-1131.885 -940.219)"/><path class="m" d="M1785.184,1171.911a.965.965,0,0,1,.457,1.106.619.619,0,0,1,1.167.2c.206.678-1.169,1.348-.213,2.263.552.528,3.94.07,3.619.983-.307.872-1.421.332-2.095.678-.842.436-.9.939-2.1,1.754-.762.518-1.844.638-2.493,1.952a98.187,98.187,0,0,0-3.752,9.1c-2.049,5.553-3.047,8.435-3.106,8.557h0a5.628,5.628,0,1,1-9.625-5.535h0c1.489-2.095,9.776-12.77,10.635-14.211a33.786,33.786,0,0,0,2.476-4.963c.341-.9,1.251-3.253,2.255-3.1.47.071.585.749.585.749s.457-.381.832-.24a.745.745,0,0,1,.4,1.061C1784.223,1172.26,1784.619,1171.65,1785.184,1171.911Z" transform="translate(-1251.353 -489.966)"/><path class="q" d="M1771.749,1228.87s3.967,5.961,4.38,10.185c0,0-2.219,10.313-5.75,10.974s-9-.909-9.233-4.651,3.66-8.037,3.66-8.037a11.333,11.333,0,0,1,1.649-1.813,4.051,4.051,0,0,0,1.541-2.449C1768.271,1232.115,1771.09,1229.754,1771.749,1228.87Z" transform="translate(-1247.607 -537.063)"/><path class="q" d="M1709.94,1294.566s4.914,13.836,5.3,18.4,2.285,51.909,2.285,51.909a49.621,49.621,0,0,0,7.789-.179s-1.078-27.425-1.817-32.578-4.262-29.167-5.6-32.965a13.8,13.8,0,0,0-4.344-6,5,5,0,0,0-1.7.257A20.573,20.573,0,0,0,1709.94,1294.566Z" transform="translate(-1206.161 -589.108)"/><path class="m" d="M1749.778,1307.253a5.835,5.835,0,0,1,2.314-3.923c.1-.158,15.019-8.612,17.209-9.93l5.087,3.238c-.876,1.057-4.79,5.481-9.13,10.094a74.532,74.532,0,0,1-5.4,5.289,5.853,5.853,0,0,1-10.079-4.773Z" transform="translate(-1238.37 -589.304)"/><path class="m" d="M1852.52,1262.884c1.413-1.034,1.27-3.588,2.436-5.112s3.975-2.392,4.293-1.954-1.038,1.367-1.038,1.367a1.263,1.263,0,0,1,.821,1.114s.952.5.693,1.255c0,0,.644.128.676,1.263,0,0,1,.19,1,.952s-3.8,4.363-3.8,4.363Z" transform="translate(-1321.587 -558.787)"/><path class="q" d="M1738.1,1312.284h0c2.023.825,7.016,3.017,8.843,1.605,1.5-1.167,6.913-6.831,10.526-9.962a22.364,22.364,0,0,1,2.011-1.585c3.144-2.095,3.809-4.037,3.809-4.037-1.678.806-6.4-5.125-6.4-5.125l-14.118,8.121-7.111,3.917,2.063,6Z" transform="translate(-1226.983 -589.126)"/><path class="ai" d="M1779.417,1293.21s-5.161,3.238-8.66,5.112-5.862,3.428-7.287,6.108" transform="translate(-1249.497 -589.15)"/><line class="ai" x1="13.356" y1="3.264" transform="translate(502.939 709.044)"/><path class="p" d="M1677.29,1211.487a5.969,5.969,0,0,1,5.738.714,2.679,2.679,0,0,0-1.257-2.714,4.836,4.836,0,0,0-2.967-.478Z" transform="translate(-1179.73 -520.938)"/><path class="p" d="M1678.779,1212.208c.882.689,1.7,1.143,2.615.648,1.064-.571,1.857.261,2.243.964s1.691.6,1.691.6l-.469-3.024-6.31-1.356Z" transform="translate(-1180.75 -521.82)"/><ellipse class="o" cx="1.375" cy="1.645" rx="1.375" ry="1.645" transform="matrix(0.967, -0.253, 0.253, 0.967, 498.639, 693.939)"/><path class="o" d="M1705.36,1234.052a1.4,1.4,0,1,1-1.746-1.244A1.53,1.53,0,0,1,1705.36,1234.052Z" transform="translate(-1200.25 -540.221)"/><path class="o" d="M1697.85,1240.63s.152-.341.91-.286" transform="translate(-1196.374 -546.347)"/><line class="ai" x1="6.628" y1="1.796" transform="translate(496.208 719.192)"/><path class="ai" d="M1784.214,1279.715a6.729,6.729,0,0,0-3.824-6.365s1.053,1.388.467,4.177" transform="translate(-1263.194 -573.072)"/><path class="ai" d="M1655.89,1524.62s5.868-3.428,7.189-7.77" transform="translate(-1162.405 -770.198)"/></g></svg>