<svg xmlns="http://www.w3.org/2000/svg" width="100" height="100" viewBox="0 0 100 100"><defs><style>.a{fill:#bf3976;}.b{fill:#fff;}</style></defs><g transform="translate(-294 -5775)"><g transform="translate(114.386 4788.269)"><g transform="translate(179.614 986.418)"><circle class="a" cx="50" cy="50" r="50" transform="translate(0 0.313)"/></g><g transform="translate(194.774 1001.888)"><path class="b" d="M275.771,63.29,266.4,33.339a3.358,3.358,0,0,0-.267-6.02l2.834-11.336a10.067,10.067,0,0,0,.3-2.446v-.953a5.825,5.825,0,0,0-4.5-5.66V0H262.51V6.836a5.79,5.79,0,0,0-4.479,3.585l-.025.063-.025-.063A5.791,5.791,0,0,0,253.5,6.836V0h-2.252V6.923a5.826,5.826,0,0,0-4.5,5.66,17.814,17.814,0,0,0,.533,4.323l2.6,10.413a3.358,3.358,0,0,0-.267,6.02L240.241,63.29a5.456,5.456,0,0,0,1.465,5.6.408.408,0,0,0,.032.029,3.36,3.36,0,0,0,4.579-.027l.447-.428a1.1,1.1,0,0,1,1.494,0l.447.429a3.365,3.365,0,0,0,4.611,0l.446-.428a1.1,1.1,0,0,1,1.494,0l.447.429a3.363,3.363,0,0,0,4.609,0l.447-.429a1.1,1.1,0,0,1,1.493,0l.447.429a3.361,3.361,0,0,0,4.609,0l.447-.428a1.1,1.1,0,0,1,1.494,0l.447.429a3.364,3.364,0,0,0,4.578.029l.034-.031a5.454,5.454,0,0,0,1.463-5.6Zm-24.52-31.762a1.126,1.126,0,0,1,0-2.252h13.51a1.126,1.126,0,1,1,0,2.252ZM249,12.585a3.574,3.574,0,0,1,6.891-1.328l1.07,2.675a1.125,1.125,0,0,0,2.09,0l1.071-2.675a3.574,3.574,0,0,1,6.891,1.328v.953a7.843,7.843,0,0,1-.234,1.9l-2.9,11.586H252.13l-2.666-10.663A15.581,15.581,0,0,1,249,12.585Zm-3.793,54.249-.448.429a1.1,1.1,0,0,1-1.492,0l-.025-.024a3.217,3.217,0,0,1-.852-3.276l9.447-30.183h1.418L246.811,66a3.289,3.289,0,0,0-1.6.834Zm7,0-.446.429a1.1,1.1,0,0,1-1.493,0l-.448-.43a3.222,3.222,0,0,0-.769-.529l6.5-32.524h1.329V66.9l-.069-.065a3.365,3.365,0,0,0-4.61,0Zm13.546.429a1.1,1.1,0,0,1-1.492,0l-.448-.43a3.365,3.365,0,0,0-4.608,0l-.069.065V33.78h1.328L266.966,66.3a3.183,3.183,0,0,0-.769.53Zm7.023-.024-.026.024a1.105,1.105,0,0,1-1.491,0l-.448-.43A3.275,3.275,0,0,0,269.2,66l-6.445-32.22h1.419l9.447,30.184a3.22,3.22,0,0,1-.852,3.275Zm0,0" transform="translate(-206.217 0)"/><path class="b" d="M38.041,27.717a1.124,1.124,0,0,0,.2-.965l-4.5-18.014a1.124,1.124,0,0,0-.648-.762L25.9,4.892V1.13A1.126,1.126,0,0,0,24.769,0H13.511A1.126,1.126,0,0,0,12.385,1.13V4.892l-7.2,3.085a1.126,1.126,0,0,0-.649.762L.034,26.752a1.126,1.126,0,0,0,1.092,1.4H6.756a1.127,1.127,0,0,0,1.079-.8l1.59-5.3.712,10.679a1.125,1.125,0,0,0,1.123,1.052H27.021a1.126,1.126,0,0,0,1.124-1.052l.712-10.679,1.59,5.3a1.125,1.125,0,0,0,1.077.8h5.629a1.125,1.125,0,0,0,.887-.433Zm-18.9-9.67L15.108,6.759h8.063Zm-4.5-15.792h9.007V4.507H14.637ZM5.918,25.9H2.568L6.587,9.826l.6-.258L8.96,15.759Zm5.339-10.207a1.1,1.1,0,0,0-.041-.234L9.277,8.672,12.853,7.14,18.014,21.59v9.938h-5.7Zm14.71,15.836h-5.7V21.59L25.427,7.139,29,8.672l-1.938,6.784.015,0a1.048,1.048,0,0,0-.056.23Zm6.4-5.629L29.32,15.758l1.768-6.191.6.259L35.711,25.9Zm0,0" transform="translate(0 0)"/><path class="b" d="M88.888,256H73.126A1.126,1.126,0,0,0,72,257.13v31.524a1.125,1.125,0,0,0,1.126,1.126h4.5a1.126,1.126,0,0,0,1.112-.95l2.265-14.348,2.265,14.348a1.127,1.127,0,0,0,1.113.95h4.5a1.126,1.126,0,0,0,1.126-1.126V257.13A1.126,1.126,0,0,0,88.888,256Zm-1.126,31.524H85.346l-3.228-20.441a1.126,1.126,0,0,0-2.224,0l-3.226,20.441H74.252V258.256h13.51Zm0,0" transform="translate(-61.867 -219.973)"/></g></g></g></svg>