<svg xmlns="http://www.w3.org/2000/svg" width="330.884" height="257.129" viewBox="0 0 330.884 257.129"><defs><style>.a{fill:#b1d2eb;}.b{fill:#dcebf5;}.c{fill:#e0e0e0;}.d{fill:#fff;}.e{fill:#ebebeb;}.f{fill:#f5f5f5;}.g{fill:#263238;}.h{fill:#bf3976;}.i{fill:#455a64;}.j,.l{opacity:0.2;}.k{fill:#ffbe9d;}.m{fill:#eb996e;}.n{opacity:0.3;}.o{fill:#0ac4bf;}</style></defs><g transform="translate(-128.465 -61.66)"><g transform="translate(128.465 70.665)"><path class="a" d="M515.258,370.347c-.2.611,6.869,27.475,6.869,27.475l4.849-1.017-6.663-26.465Z" transform="translate(-258.397 -167.323)"/><path class="b" d="M565.549,364.76l-9.7,31.321h5.66l9.293-29.1Z" transform="translate(-271.109 -165.576)"/><path class="a" d="M577.847,357.71,566.74,393.874h5.653L583.1,359.929Z" transform="translate(-274.519 -163.368)"/><path class="a" d="M520.26,407.12l5.66,19.6H554.4l5.255-19.6Z" transform="translate(-259.965 -178.84)"/><path class="c" d="M535.209,388.689a.907.907,0,0,1-.062-.2c-.041-.158-.089-.35-.151-.6l-.549-2.308-1.958-8.558c-1.628-7.274-3.881-17.323-6.395-28.539l.179.137H521.28l.179-.22c2.528,11.23,4.808,21.293,6.429,28.567.8,3.613,1.442,6.539,1.9,8.579l.494,2.328c.048.254.089.453.117.611a.963.963,0,0,1,.034.206,1.124,1.124,0,0,1-.069-.2c-.034-.158-.089-.35-.151-.6-.131-.556-.323-1.333-.556-2.315-.481-2.061-1.161-4.952-2.006-8.558-1.662-7.274-3.97-17.323-6.539-28.539l-.048-.22h5.351v.137c2.473,11.23,4.685,21.293,6.285,28.567.776,3.613,1.408,6.539,1.848,8.579.206,1,.371,1.779.481,2.328.055.254.089.453.124.611A1.19,1.19,0,0,1,535.209,388.689Z" transform="translate(-260.216 -160.409)"/><rect class="b" width="48.239" height="33.588" transform="translate(44.53)"/><rect class="a" width="48.239" height="4.197" transform="translate(44.53)"/><path class="d" d="M209.483,77.771a.5.5,0,1,1-.5-.5A.5.5,0,0,1,209.483,77.771Z" transform="translate(-162.336 -75.553)"/><path class="d" d="M212.457,77.759a.508.508,0,1,1-.508-.529.515.515,0,0,1,.508.529Z" transform="translate(-163.263 -75.54)"/><path class="d" d="M215.427,77.759a.508.508,0,1,1-.5-.529A.515.515,0,0,1,215.427,77.759Z" transform="translate(-164.193 -75.54)"/><rect class="c" width="6.876" height="16.492" transform="translate(49.118 8.311)"/><rect class="e" width="6.876" height="16.492" transform="translate(59.716 8.311)"/><rect class="d" width="6.876" height="16.492" transform="translate(70.315 8.311)"/><rect class="e" width="6.876" height="16.492" transform="translate(80.92 8.442)"/><rect class="a" width="41.665" height="3.771" transform="translate(48.321 26.623)"/><path class="c" d="M264,117.19l.893,4.533.735-1.264,1.587,2.26.79-.508-1.58-2.26,1.449-.213Z" transform="translate(-179.721 -88.053)"/><rect class="b" width="84.45" height="58.81" transform="translate(0 45.203)"/><rect class="a" width="84.45" height="7.349" transform="translate(0 45.203)"/><path class="d" d="M147.2,145.81a.879.879,0,1,1-.879-.92A.9.9,0,0,1,147.2,145.81Z" transform="translate(-142.597 -96.727)"/><path class="d" d="M152.372,145.81a.886.886,0,1,1-.886-.92A.907.907,0,0,1,152.372,145.81Z" transform="translate(-144.212 -96.727)"/><path class="d" d="M157.572,145.81a.886.886,0,1,1-.879-.92A.907.907,0,0,1,157.572,145.81Z" transform="translate(-145.841 -96.727)"/><path class="a" d="M584.75,175.75v16.162l26.293.721-.467-16.437Z" transform="translate(-280.159 -106.39)"/><path class="e" d="M584.737,175.011l-.027-1.621,25.874.357v2.287Z" transform="translate(-280.146 -105.651)"/><path class="e" d="M588.12,181.66l.282,3.29,3.51.041.082-3.166Z" transform="translate(-281.214 -108.241)"/><path class="f" d="M595.632,184.314l-.192-1.374,7.782.5-.151,1.422Z" transform="translate(-283.506 -108.642)"/><path class="e" d="M613,182.55l.646,3.414,4-.206-.234-2.947Z" transform="translate(-289.005 -108.52)"/><path class="e" d="M588.19,189.56l.282,3.29,3.51.041.089-3.166Z" transform="translate(-281.236 -110.715)"/><path class="f" d="M595.668,191.973l-.158-1.133,5.68.515-.089,1.168Z" transform="translate(-283.528 -111.115)"/><path class="e" d="M613.07,190.45l.653,3.414,4-.2-.234-2.947Z" transform="translate(-289.027 -110.993)"/></g><g transform="translate(131.871 317.813)"><path class="g" d="M415.925,434.769c0,.1-72.427.185-161.747.185s-161.758-.082-161.758-.185,72.41-.179,161.758-.179S415.925,434.672,415.925,434.769Z" transform="translate(-92.42 -434.59)"/></g><g transform="translate(229.07 61.66)"><rect class="d" width="178.18" height="113.69" transform="translate(11.21 0.213)"/><path class="g" d="M482.207,175.563c0-1.147-.055-44.255-.137-113.69l.137.144H304.041l.179-.179v113.69l-.165-.165,178.18.165-178.18.165h-.165V61.66h.192l178.166.041h.144v.192C482.262,131.308,482.207,174.416,482.207,175.563Z" transform="translate(-292.818 -61.66)"/><path class="h" d="M304.043,66.68l-.1,5.831,178.084.316.2-6.147Z" transform="translate(-292.833 -63.232)"/><path class="g" d="M546.319,101.15l-.659,36.933,28.5.831.831-37.352Z" transform="translate(-368.524 -74.026)"/><path class="i" d="M546.744,104.646l20.812.11-.172-1.841,7.851.3.055-1.648-28.67-.412Z" transform="translate(-368.825 -74.026)"/><path class="h" d="M548.387,103.67l-.027,1,5.213.007-.213-.968Z" transform="translate(-369.369 -74.815)"/><path class="h" d="M557.794,103.69l-.034,1,5.22.014-.22-.975Z" transform="translate(-372.313 -74.821)"/><path class="h" d="M567.394,103.88l-.034,1,5.22.007-.22-.968Z" transform="translate(-375.319 -74.88)"/><path class="i" d="M549,108.73l-.213,18.635,17.694.632-.611-18.717Z" transform="translate(-369.504 -76.399)"/><path class="h" d="M565.814,111.2s-.22.3-.611.852-.941,1.374-1.607,2.432c-.337.522-.687,1.1-1.14,1.71a11.234,11.234,0,0,0-1.147,2.061c-.344.756-.687,1.587-1.078,2.432a7.955,7.955,0,0,1-1.628,2.473l-.206.2-.124-.261a27.965,27.965,0,0,1-1.58-4.032,16.9,16.9,0,0,1-.687-3.434l.357.137a18.746,18.746,0,0,0-3.091,4.87c-.392.8-.769,1.552-1.161,2.246l-1.106,1.868-1.6,2.658a6.477,6.477,0,0,1-.625.941,6.442,6.442,0,0,1,.494-1.017l1.5-2.747,1.058-1.9c.371-.687.728-1.442,1.113-2.239a18.312,18.312,0,0,1,3.125-5.014l.323-.33.034.467a17.168,17.168,0,0,0,.687,3.366,27.507,27.507,0,0,0,1.545,3.977l-.33-.069a7.9,7.9,0,0,0,1.559-2.335c.385-.838.749-1.648,1.106-2.418a11.209,11.209,0,0,1,1.216-2.061c.433-.591.817-1.154,1.168-1.669.687-1.023,1.284-1.834,1.717-2.363a3.905,3.905,0,0,1,.721-.8Z" transform="translate(-369.501 -77.173)"/><rect class="i" width="2.274" height="2.274" transform="translate(197.723 33.984) rotate(0.47)"/><path class="h" d="M579.85,111.67l.089,1.023,4.369-.014-.069-.707Z" transform="translate(-379.23 -77.32)"/><rect class="i" width="2.274" height="2.274" transform="translate(198.045 37.352) rotate(0.47)"/><path class="h" d="M580.31,116.6l.1,1.023,4.362-.014-.062-.707Z" transform="translate(-379.374 -78.864)"/><rect class="i" width="2.274" height="2.274" transform="translate(197.931 41.253) rotate(0.47)"/><path class="h" d="M580.14,122.28l.1,1.023,4.368-.014-.069-.707Z" transform="translate(-379.321 -80.642)"/><path class="i" d="M549.42,138.7l21.258.412-.069,1.9-21.3-.79Z" transform="translate(-369.667 -85.784)"/><path class="h" d="M580.389,139.3l2.535.014-.076,1.9-2.528-.014Z" transform="translate(-379.377 -85.972)"/><path class="i" d="M549.89,143.81l23.566.371-.014,2.171-23.663-1.017Z" transform="translate(-369.814 -87.384)"/><path class="h" d="M566.306,144.03l2.528.014-.076,1.9-2.528-.014Z" transform="translate(-374.965 -87.453)"/><path class="i" d="M550.35,148.73l21.265.412-.076,1.9-21.3-.783Z" transform="translate(-369.958 -88.925)"/><path class="h" d="M581.326,149.33l2.528.014-.075,1.9-2.528-.021Z" transform="translate(-379.668 -89.112)"/><path class="g" d="M287.77,63.875l4.066-.185.364,57.436-3.771-.543Z" transform="translate(-287.77 -62.296)"/><path class="h" d="M288.87,66.88l.412,2.741,1.456-.131.22-2.96Z" transform="translate(-288.114 -63.185)"/><path class="h" d="M289.65,108.16l.412,2.741,1.456-.131.22-2.96Z" transform="translate(-288.359 -76.111)"/><path class="h" d="M289.09,73.5l2.308-.151.268,2.967h-2.493Z" transform="translate(-288.183 -65.321)"/><path class="h" d="M289.37,87.186l2.006-.076.22,3.242-2.164-.1Z" transform="translate(-288.271 -69.629)"/><path class="h" d="M289.57,93.936l2.006-.076.22,3.242-2.164-.1Z" transform="translate(-288.334 -71.743)"/><path class="h" d="M289.81,100.936l2.006-.076.22,3.242-2.164-.1Z" transform="translate(-288.409 -73.935)"/><path class="h" d="M290,116.136l2.006-.076.22,3.242-2.164-.1Z" transform="translate(-288.468 -78.694)"/><path class="h" d="M289.28,80.25l2.349.227.1,3.036-2.212-.021Z" transform="translate(-288.243 -67.481)"/><rect class="g" width="178.18" height="3.235" transform="translate(11.21 0.213)"/><path class="h" d="M308.348,63.85a.639.639,0,1,1-.221-.438.639.639,0,0,1,.221.438Z" transform="translate(-293.814 -62.16)"/><path class="h" d="M312.1,63.91a.639.639,0,1,1-.221-.438A.639.639,0,0,1,312.1,63.91Z" transform="translate(-294.988 -62.179)"/><path class="h" d="M315.848,63.95a.639.639,0,1,1-.687-.591A.646.646,0,0,1,315.848,63.95Z" transform="translate(-296.163 -62.192)"/><path class="i" d="M320.84,63.52l.1,1.223,8.579.014-.227-1.209Z" transform="translate(-298.125 -62.242)"/><path class="i" d="M336.06,63.723l.165,1.216,6.01-.124-.261-1.2Z" transform="translate(-302.891 -62.274)"/><path class="i" d="M349.39,64.01l.13,1.216,6.01.041-.22-1.209Z" transform="translate(-307.065 -62.396)"/><path class="d" d="M343.43,95.98l4.032,96.938,119.59.714-1.278-94.918Z" transform="translate(-305.199 -72.407)"/><path class="i" d="M343.43,95.994h2.26l6.608.131,25.023.515,88.462,1.9h.151v.206c.385,28.265.824,60.5,1.291,94.561v.536h-.185l-119.577-.769h-.144v-.144c-1.188-29.254-2.171-53.5-2.857-70.445-.337-8.448-.6-15.111-.776-19.6-.089-2.246-.158-3.977-.2-5.145s-.055-1.752-.055-1.752.034.611.089,1.786.13,2.905.234,5.172c.192,4.526.481,11.168.852,19.631.721,16.924,1.758,41.136,3.008,70.342l-.151-.144,119.6.687-.185.179v-.35c-.453-34.069-.879-66.3-1.257-94.561l.158.158-88.352-2.061-25.057-.6-6.642-.172-1.71-.055Z" transform="translate(-305.199 -72.407)"/><path class="g" d="M343.32,94.56l.1,3.737,122.324-.027V95.048Z" transform="translate(-305.165 -71.962)"/><path class="c" d="M495.17,112.98l.81,5.955,11.931.041-.563-5.481Z" transform="translate(-352.714 -77.73)"/><path class="i" d="M495.191,114.416l12.178.515-.021-1.436-12.178-.515Z" transform="translate(-352.714 -77.73)"/><rect class="h" width="1.848" height="1.848" transform="translate(145.167 37.671) rotate(-0.94)"/><rect class="g" width="1.848" height="1.848" transform="translate(145.203 36.758) rotate(-1.146)"/><rect class="h" width="1.848" height="1.848" transform="translate(144.288 38.475) rotate(-0.94)"/><path class="g" d="M504.439,117.72l-.089.941,5.3-.131-.062-.6Z" transform="translate(-355.588 -79.214)"/><path class="c" d="M495.33,123.06l.81,5.948,11.938.041-.57-5.474Z" transform="translate(-352.764 -80.886)"/><path class="i" d="M495.351,124.489l12.185.515-.027-1.429-12.178-.515Z" transform="translate(-352.764 -80.886)"/><rect class="h" width="1.848" height="1.848" transform="translate(145.281 44.592) rotate(-0.94)"/><rect class="g" width="1.848" height="1.848" transform="translate(145.348 43.673) rotate(-1.146)"/><rect class="h" width="1.848" height="1.848" transform="matrix(1, -0.016, 0.016, 1, 144.385, 45.444)"/><path class="g" d="M504.6,127.8l-.082.941,5.289-.137-.055-.591Z" transform="translate(-355.642 -82.371)"/><rect class="i" width="2.885" height="2.885" transform="translate(50.572 52.83) rotate(-0.24)"/><rect class="i" width="2.885" height="2.885" transform="translate(149.208 53.605) rotate(-0.24)"/><rect class="i" width="2.885" height="2.885" transform="translate(148.868 96.954) rotate(-0.24)"/><rect class="i" width="2.885" height="2.885" transform="translate(52.35 93.725) rotate(-0.24)"/><rect class="i" width="1.896" height="1.896" transform="translate(103.233 54.052) rotate(89.76)"/><rect class="i" width="1.896" height="1.896" transform="translate(53.35 74.821) rotate(89.76)"/><rect class="i" width="1.896" height="1.896" transform="translate(151.502 73.179) rotate(89.76)"/><rect class="i" width="1.896" height="1.896" transform="translate(102.157 95.81) rotate(89.76)"/><path class="i" d="M461.81,141.044h-7.48l-20.606-.137-70.878-.687.412-.426c.453,12.844.934,26.788,1.436,41.212v.426l-.419-.412,96.848,2.562-.323.3c.275-13.208.495-23.9.646-31.3.089-3.709.158-6.594.206-8.565,0-.982.055-1.731.069-2.246v-.79a4.654,4.654,0,0,1,0,.728v2.239c0,1.958,0,4.808-.048,8.5-.076,7.446-.179,18.2-.309,31.486v.316h-.316L364.2,181.933h-.405v-.838c-.488-14.424-.962-28.4-1.374-41.212v-.433h.426l71.166,1.065,20.51.364,5.447.117,1.374.048a2.529,2.529,0,0,1,.467,0Z" transform="translate(-311.145 -86.019)"/><path class="g" d="M508.78,209.31l1.628,7.315,1.209-2.486,2.912-.467Z" transform="translate(-356.976 -107.894)"/><rect class="h" width="3.881" height="3.881" transform="translate(124.769 105.729)"/><rect class="c" width="3.881" height="3.881" transform="translate(130.299 105.729)"/><rect class="i" width="3.881" height="3.881" transform="translate(135.835 105.729)"/><rect class="g" width="3.881" height="3.881" transform="translate(141.364 105.729)"/><path class="h" d="M461.1,182.058l-89.231-2.6L370.41,144.17l90.694,1.223Z" transform="translate(-313.647 -87.497)"/><path class="c" d="M394.527,172.456l-18.765-.385-.611-15.351,19.377.275Z" transform="translate(-315.132 -91.426)"/><path class="i" d="M537.19,212.43l2.493,29.515,24.294.405-1.855-28.258Z" transform="translate(-365.872 -108.871)"/><path class="g" d="M536.95,210.59l.316,2.995,24.844.9-.137-2.919Z" transform="translate(-365.797 -108.295)"/><path class="g" d="M546.17,222.87l1.236,16.265,14.06.735-.749-16.9Z" transform="translate(-368.684 -112.14)"/><path class="c" d="M560.86,236.494a15.112,15.112,0,0,1-3.008.2c-1.868.048-4.465.076-7.384.069h-.282v-.288c0-.309-.062-.646-.089-.982-.288-3.132-.515-5.969-.646-8.023a16.68,16.68,0,0,1-.082-3.338,17.749,17.749,0,0,1,.522,3.3c.247,2.061.543,4.877.831,8,0,.337.062.687.089.989l-.309-.288c2.912,0,5.495.069,7.377.137a14.863,14.863,0,0,1,2.981.227Z" transform="translate(-369.67 -112.535)"/><path class="h" d="M549.624,243.383c.137.11.076.412-.13.687s-.481.392-.618.289-.082-.412.124-.687S549.453,243.28,549.624,243.383Z" transform="translate(-369.507 -118.552)"/><path class="h" d="M554.192,236.912c.137.11-.137.687-.618,1.305s-.982,1.03-1.12.92.137-.687.618-1.305S554.061,236.8,554.192,236.912Z" transform="translate(-370.64 -116.532)"/><path class="h" d="M559.272,230.432c.137.1-.137.687-.618,1.305s-.982,1.023-1.12.92.137-.687.618-1.312S559.134,230.322,559.272,230.432Z" transform="translate(-372.231 -114.502)"/><path class="h" d="M563.325,225.782c.137.11.082.412-.124.687s-.488.392-.625.282-.076-.405.131-.687S563.188,225.679,563.325,225.782Z" transform="translate(-373.798 -113.04)"/><path class="h" d="M539.69,217.07l.158,1.305,5.481.076.213-1.346Z" transform="translate(-366.655 -110.324)"/><path class="c" d="M534.72,81.99l.817,5.955,11.931.041-.57-5.474Z" transform="translate(-365.098 -68.026)"/><path class="i" d="M534.747,83.426l12.178.515-.027-1.429L534.72,81.99Z" transform="translate(-365.098 -68.026)"/><rect class="h" width="1.848" height="1.848" transform="translate(172.589 15.067) rotate(-1.146)"/><rect class="g" width="1.848" height="1.848" transform="translate(172.307 15.369) rotate(-1.146)"/><rect class="h" width="1.848" height="1.848" transform="translate(171.458 17.192) rotate(-0.94)"/><path class="g" d="M543.992,86.73l-.082.948,5.3-.137-.062-.6Z" transform="translate(-367.976 -69.51)"/></g><g transform="translate(234.909 124.858)"><path class="h" d="M301.64,296.017v-3.434s-.137-4.355,5.715-4.76,26.321-.041,26.321-.041,6.072-.151,6.072,3.716v4.629Z" transform="translate(-297.951 -195.617)"/><path class="j" d="M301.64,296.017v-3.434s-.137-4.355,5.715-4.76,26.321-.041,26.321-.041,6.072-.151,6.072,3.716v4.629Z" transform="translate(-297.951 -195.617)"/><path class="g" d="M301.64,299.84s17.776,1.092,18.7,4.616h3.3s2.177-3.654,16.107-4.478Z" transform="translate(-297.952 -199.44)"/><path class="g" d="M310.49,392.472h27.825l-10.6-6.979-.144-40.436h5.172v-1.092h-5.172l-.041-11.409-.969-2.7-.137-29.837H323.2c-.11.6,0,29.748,0,29.748l-.975,2.583v11.615h-8.448v1.078h8.414V385.48Z" transform="translate(-300.723 -199.497)"/><path class="g" d="M316.512,198.8a11.677,11.677,0,0,1-17.309-2.747,8.387,8.387,0,0,1-1.415-5.632,5.419,5.419,0,0,1,3.5-4.417c.749-.24,1.552-.275,2.315-.481a2.576,2.576,0,0,0,1.813-1.374c.364-.92-.144-1.971,0-2.954.282-1.594,2.15-2.315,3.139-3.6,1.319-1.71.914-4.121.446-6.237l1.436-1.229Z" transform="translate(-296.73 -158.824)"/><path class="k" d="M392.948,242.483s-5.076-1.559-4.932-2.061,3.153.288,4.121.632,1.545,0,1.332-.543c-.137-.385-3.16-1.518-4.156-1.841s-3.73-1.147-2.061-1.841,2.713-1.848,2.747-2.356a.57.57,0,0,0-1.01-.371,6.733,6.733,0,0,1-1.532,1.01,4.4,4.4,0,0,1-1.374.446,14.946,14.946,0,0,1-2.96.172l-1.477-.687s-17.8-7.02-19.871-8.339c-.687-.419-12.721-16.966-12.721-16.966l-6.237,7.253s10.99,16.519,12.556,17.652,26.314,7.6,26.314,7.6h.1a62.415,62.415,0,0,0,5.811,3.434c2.459,1.126,2.562.914,2.644.6.227-.831-4.245-2.157-3.118-2.432s5.275,2.26,5.495,1.374c.261-1.14-4.444-2.438-4.808-2.583s-.206-.687.144-.563c.495.213,5.763,2.267,6.024,1.147C394.088,242.641,392.948,242.483,392.948,242.483Z" transform="translate(-310.846 -171.227)"/><path class="h" d="M296.6,219.163l1.023-13.469c1.7-9.472,13.82-8.668,13.82-8.668l10.42-.165s7.24.227,11.381,6.1c3.366,4.808,7.02,9.836,7.02,9.836l-7.775,7.892-2.747-4.76a6.319,6.319,0,0,1,1.236,4.54c-.316,3.62-2.967,4.307-2.967,4.307l1.188,24.384-32.928-.3,5.454-12.556-1.072-17.6Z" transform="translate(-296.27 -167.194)"/><path class="h" d="M315.107,229.518c.289-.048.6.35.749.859s.11,1.017-.158,1.14-.687-.24-.872-.831S314.811,229.559,315.107,229.518Z" transform="translate(-302.056 -177.419)"/><path class="h" d="M316.4,210.519c.3.041.46,1,.364,2.129s-.419,2.061-.687,2.061-.453-.962-.357-2.129S316.11,210.478,316.4,210.519Z" transform="translate(-302.352 -171.471)"/><path class="h" d="M313.75,223.507a.488.488,0,0,1-.337-.749.495.495,0,0,1,.8-.206.536.536,0,0,1-.46.955Z" transform="translate(-301.614 -175.2)"/><path class="h" d="M325.887,212.107c.3.055.426.618.3,1.257s-.453,1.106-.749,1.044-.426-.618-.3-1.25S325.6,212.031,325.887,212.107Z" transform="translate(-305.295 -171.966)"/><path class="h" d="M338.67,213.342c.055.288-.44.625-1.106.577s-1.1-.446-1.01-.728.57-.378,1.092-.343S338.622,213.053,338.67,213.342Z" transform="translate(-308.881 -172.198)"/><path class="h" d="M340.955,210.7c-.185.234-.831.041-1.449-.433s-.975-1.051-.8-1.284.831-.041,1.449.433S341.127,210.468,340.955,210.7Z" transform="translate(-309.545 -170.96)"/><path class="h" d="M344.039,208.7c-.3,0-.536-.728-.3-1.594s.8-1.374,1.051-1.229.172.8,0,1.5S344.342,208.7,344.039,208.7Z" transform="translate(-311.104 -170.01)"/><path class="h" d="M348.283,208.89c.22.2,0,.79-.481,1.312s-1.051.79-1.271.591,0-.79.481-1.312S348.063,208.691,348.283,208.89Z" transform="translate(-311.982 -170.94)"/><path class="h" d="M345.594,214.846c-.048.3-.687.419-1.436.288s-1.305-.481-1.25-.769.687-.419,1.436-.288S345.649,214.558,345.594,214.846Z" transform="translate(-310.873 -172.569)"/><path class="h" d="M333.382,213.839c-.069.288-.639.412-1.278.268s-1.106-.488-1.037-.776.632-.412,1.271-.268S333.444,213.55,333.382,213.839Z" transform="translate(-307.164 -172.249)"/><path class="h" d="M335.314,209.631c-.144.261-.687.213-1.236-.1s-.845-.769-.687-1.03.687-.206,1.236.1S335.465,209.376,335.314,209.631Z" transform="translate(-307.88 -170.788)"/><path class="h" d="M341.445,206.152c-.254.144-.749-.268-.907-.968s.1-1.284.392-1.264.522.474.653,1.023S341.713,206.035,341.445,206.152Z" transform="translate(-310.117 -169.404)"/><path class="h" d="M348.241,205.1a.749.749,0,1,1-.811.385A.687.687,0,0,1,348.241,205.1Z" transform="translate(-312.263 -169.766)"/><path class="h" d="M351.932,210.9c.076.282-.172.6-.563.687a.687.687,0,0,1-.845-.33c-.076-.288.179-.6.563-.687a.687.687,0,0,1,.845.33Z" transform="translate(-313.255 -171.474)"/><path class="h" d="M334.213,203.234c.165-.247.9-.041,1.5.625s.728,1.422.467,1.552-.762-.282-1.264-.838S334.055,203.481,334.213,203.234Z" transform="translate(-308.139 -169.158)"/><path class="h" d="M343.816,201.22c.3,0,.536.371.536.824s-.24.838-.536.838-.536-.371-.536-.831S343.514,201.22,343.816,201.22Z" transform="translate(-310.99 -168.559)"/><path class="h" d="M327.355,209.287c.1-.282.776-.3,1.511-.055s1.264.687,1.168.962-.769.309-1.511.055S327.259,209.568,327.355,209.287Z" transform="translate(-306 -171.014)"/><path class="h" d="M331.233,205.3c-.206.213-.639.124-.955-.192s-.405-.742-.2-.955.639-.124.955.192S331.439,205.1,331.233,205.3Z" transform="translate(-306.822 -169.443)"/><path class="h" d="M338.588,199.54c.3,0,.57.405.611.955s-.165,1.01-.46,1.03-.57-.405-.611-.955S338.292,199.561,338.588,199.54Z" transform="translate(-309.375 -168.033)"/><path class="h" d="M319.749,208.913c.275.1.288.728,0,1.374s-.687,1.113-.969,1-.288-.728-.034-1.374S319.474,208.8,319.749,208.913Z" transform="translate(-303.25 -170.963)"/><path class="h" d="M322.974,208.618c.3-.055.632.44.756,1.106s0,1.243-.3,1.3-.632-.433-.756-1.1S322.686,208.673,322.974,208.618Z" transform="translate(-304.525 -170.874)"/><path class="h" d="M328.043,206.9c0,.3-.584.5-1.264.467s-1.223-.309-1.209-.6.584-.5,1.264-.467S328.063,206.607,328.043,206.9Z" transform="translate(-305.445 -170.148)"/><path class="h" d="M316.883,206.583c.062.288-.343.625-.9.742s-1.058,0-1.126-.3.343-.625.9-.742S316.814,206.294,316.883,206.583Z" transform="translate(-302.088 -170.13)"/><path class="h" d="M322.34,205.01c.11.275-.185.639-.646.817s-.92.089-1.023-.192.185-.639.646-.817S322.264,204.729,322.34,205.01Z" transform="translate(-303.904 -169.657)"/><path class="h" d="M316.77,203.447c.034.3-.783.618-1.806.529s-1.779-.543-1.7-.824.865-.323,1.786-.247S316.743,203.152,316.77,203.447Z" transform="translate(-301.59 -169.076)"/><path class="h" d="M319.421,200.963c-.124.275-.962.172-1.875-.227s-1.559-.941-1.442-1.216.955-.165,1.875.234S319.538,200.7,319.421,200.963Z" transform="translate(-302.476 -167.98)"/><path class="h" d="M334.478,199.642c.124.275-.185.687-.639.982s-.955.426-1.154.206,0-.749.563-1.106S334.362,199.374,334.478,199.642Z" transform="translate(-307.649 -168.004)"/><path class="h" d="M312.431,200.2c-.11.282-.543.364-.975.2s-.687-.529-.577-.8.543-.364.975-.2S312.541,199.921,312.431,200.2Z" transform="translate(-300.836 -167.961)"/><path class="h" d="M333.224,244.11c0,.3-.687.563-1.58.591s-1.607-.185-1.614-.488.687-.556,1.58-.584S333.21,243.814,333.224,244.11Z" transform="translate(-306.841 -181.838)"/><path class="h" d="M336.2,240.778c-.213.206-.756,0-1.216-.488s-.687-1.03-.447-1.236.756,0,1.216.488S336.418,240.572,336.2,240.778Z" transform="translate(-308.222 -180.381)"/><path class="h" d="M339.011,239.049c-.282.055-.639-.536-.584-1.326s.495-1.333.769-1.229.343.687.3,1.305S339.307,238.994,339.011,239.049Z" transform="translate(-309.469 -179.601)"/><path class="h" d="M340.493,242.161c.192.227.041.687-.3,1.051s-.79.556-1.03.378-.144-.687.24-1.106S340.3,241.941,340.493,242.161Z" transform="translate(-309.659 -181.346)"/><path class="h" d="M339.986,248.053c-.3,0-.522-.453-.426-.989s.46-.879.742-.79.392.522.316.975S340.281,248.059,339.986,248.053Z" transform="translate(-309.818 -182.663)"/><path class="h" d="M336.045,246.312a.591.591,0,0,1,.227.618.611.611,0,0,1-.639.165.46.46,0,1,1,.412-.783Z" transform="translate(-308.481 -182.639)"/><path class="h" d="M342.261,234.842c.275.1.288.769-.089,1.436s-.955,1.01-1.181.824-.082-.762.247-1.374S341.979,234.739,342.261,234.842Z" transform="translate(-310.239 -179.082)"/><path class="h" d="M338.471,234.218c0,.3-.57.57-1.3.611s-1.339-.165-1.374-.467.563-.563,1.3-.6S338.451,233.922,338.471,234.218Z" transform="translate(-308.648 -178.746)"/><path class="h" d="M332.21,240.771c-.234.185-.639.062-.914-.275s-.3-.769-.069-.955.639-.055.907.282S332.444,240.585,332.21,240.771Z" transform="translate(-307.167 -180.532)"/><path class="h" d="M325.631,243.595c-.206.213-.879-.117-1.326-.865s-.412-1.5-.131-1.573.687.412,1.051,1.023S325.837,243.382,325.631,243.595Z" transform="translate(-304.942 -181.062)"/><path class="h" d="M322.331,244.316c-.076.282-.5.419-.948.3s-.749-.446-.687-.735.5-.419.948-.3S322.407,244.027,322.331,244.316Z" transform="translate(-303.916 -181.81)"/><path class="h" d="M300.987,266.72c-.3-.041-.433-.735-.316-1.552s.453-1.449.749-1.408.433.742.316,1.559S301.282,266.761,300.987,266.72Z" transform="translate(-297.635 -188.142)"/><path class="h" d="M306.246,265.93c-.268.124-.824-.495-1.243-1.374s-.536-1.71-.268-1.834.824.495,1.243,1.374S306.541,265.8,306.246,265.93Z" transform="translate(-298.876 -187.813)"/><path class="h" d="M310.853,262.758c-.192.227-.948-.11-1.745-.687s-1.374-1.175-1.2-1.429.989-.041,1.827.556S311.045,262.538,310.853,262.758Z" transform="translate(-299.904 -187.133)"/><path class="h" d="M303.8,257.681c.275.11.316.646.089,1.2s-.625.914-.9.8-.316-.687-.1-1.2S303.528,257.564,303.8,257.681Z" transform="translate(-298.301 -186.232)"/><path class="h" d="M311.734,267.472c-.234.179-.735-.082-1.12-.591s-.5-1.058-.261-1.236.735.089,1.12.591S311.967,267.293,311.734,267.472Z" transform="translate(-300.641 -188.715)"/><path class="h" d="M303.525,269.164c-.3.048-.584-.3-.687-.762s.117-.872.412-.914.584.3.653.762S303.814,269.123,303.525,269.164Z" transform="translate(-298.319 -189.309)"/><path class="h" d="M318.577,261.554c-.076.288-1.03.337-2.122.11s-1.944-.646-1.9-.941.989-.343,2.116-.11S318.653,261.265,318.577,261.554Z" transform="translate(-301.996 -187.111)"/><path class="h" d="M318.163,267.13c-.185.227-.955-.1-1.717-.721s-1.229-1.326-1.044-1.552.962.089,1.724.721S318.355,266.9,318.163,267.13Z" transform="translate(-302.248 -188.463)"/><path class="h" d="M323.827,265.992c-.089.282-.728.33-1.442.11s-1.209-.625-1.12-.907.735-.337,1.442-.117S323.944,265.71,323.827,265.992Z" transform="translate(-304.094 -188.513)"/><path class="h" d="M328.494,267.343c0,.3-.412.563-.9.79s-.969.364-1.188.158.055-.817.749-1.133S328.487,267.048,328.494,267.343Z" transform="translate(-305.683 -189.157)"/><path class="h" d="M327.152,263.169c-.144.254-.687.213-1.264-.1s-.879-.769-.735-1.03.687-.213,1.264.1S327.3,262.908,327.152,263.169Z" transform="translate(-305.303 -187.552)"/><path class="h" d="M332.051,263.229a.975.975,0,0,1-.2.913c-.213.3-.488.549-.783.515s-.467-.591-.1-1.12S331.921,262.968,332.051,263.229Z" transform="translate(-307.07 -187.927)"/><path class="h" d="M336.132,266.564c0,.3-.556.556-1.264.577s-1.291-.2-1.3-.495.556-.556,1.264-.577S336.118,266.269,336.132,266.564Z" transform="translate(-307.95 -188.865)"/><path class="h" d="M337.042,263.786c-.117.275-.687.289-1.25.048s-.948-.687-.831-.941.687-.3,1.257-.048S337.138,263.511,337.042,263.786Z" transform="translate(-308.379 -187.804)"/><path class="h" d="M340.983,264.8c-.3-.041-.474-.495-.3-.975s.6-.687.852-.549a.776.776,0,0,1,.158.92C341.567,264.555,341.278,264.837,340.983,264.8Z" transform="translate(-310.156 -187.976)"/><path class="h" d="M315.8,224.713c.247-.165.79.227,1.216.872s.57,1.3.323,1.463-.8-.227-1.223-.872S315.557,224.9,315.8,224.713Z" transform="translate(-302.348 -175.904)"/><path class="h" d="M321.543,223.307c.247.158.041.934-.467,1.731s-1.126,1.312-1.374,1.154-.041-.934.467-1.731S321.3,223.149,321.543,223.307Z" transform="translate(-303.575 -175.466)"/><path class="h" d="M324.849,227.6c.1.282-.4.721-1.12,1s-1.374.268-1.5,0,.4-.687,1.12-.989S324.746,227.328,324.849,227.6Z" transform="translate(-304.394 -176.754)"/><path class="h" d="M324.165,233.841c-.179.234-.831.048-1.374-.488s-.8-1.168-.577-1.374.79.089,1.312.577S324.336,233.6,324.165,233.841Z" transform="translate(-304.369 -178.17)"/><path class="h" d="M319.01,236c-.282.069-.687-.687-.632-1.683s.563-1.7.838-1.587.275.824.234,1.655S319.3,235.936,319.01,236Z" transform="translate(-303.191 -178.424)"/><path class="h" d="M320.287,230.374c-.076.288-.543.405-1.044.268s-.831-.488-.749-.769.543-.405,1.044-.268S320.369,230.092,320.287,230.374Z" transform="translate(-303.225 -177.43)"/><path class="h" d="M326.084,222.7c.24.172,0,.914-.687,1.532s-1.436.783-1.58.529.282-.79.859-1.326S325.843,222.529,326.084,222.7Z" transform="translate(-304.887 -175.272)"/><path class="h" d="M318.232,220.117c.282-.069.646.446.687,1.168s-.268,1.264-.563,1.229-.474-.563-.508-1.175S317.951,220.179,318.232,220.117Z" transform="translate(-303.025 -174.475)"/><path class="h" d="M323.613,217.337c.282.069.364.749.076,1.477s-.817,1.175-1.072,1.023-.185-.762.076-1.415S323.318,217.268,323.613,217.337Z" transform="translate(-304.47 -173.604)"/><path class="h" d="M330.436,226.735c0,.3-.405.577-.962.632s-1.037-.144-1.065-.44.405-.577.962-.632S330.408,226.44,330.436,226.735Z" transform="translate(-306.334 -176.408)"/><path class="h" d="M328.056,232.052c-.1.282-.687.337-1.374.131s-1.092-.611-1.017-.9.687-.343,1.374-.124S328.159,231.777,328.056,232.052Z" transform="translate(-305.472 -177.892)"/><path class="h" d="M322.649,237.85c-.254.144-.742-.234-.934-.907s0-1.243.3-1.264.57.419.735.962S322.91,237.706,322.649,237.85Z" transform="translate(-304.213 -179.349)"/><path class="h" d="M318.849,241.734c-.3,0-.556-.385-.591-.893s.185-.941.481-.962.563.385.591.9S319.144,241.72,318.849,241.734Z" transform="translate(-303.154 -180.665)"/><path class="h" d="M328.25,239.545c-.275.124-.742-.33-1.154-.955s-.625-1.236-.4-1.436.845.151,1.3.852S328.525,239.421,328.25,239.545Z" transform="translate(-305.769 -179.794)"/><path class="h" d="M332.315,236.371c-.151.254-.824.144-1.559-.151s-1.284-.687-1.209-.989.817-.337,1.621,0S332.459,236.131,332.315,236.371Z" transform="translate(-306.688 -179.134)"/><path class="h" d="M333.2,231.889a.941.941,0,0,1-.941-.076c-.323-.179-.611-.44-.591-.742s.543-.495,1.092-.206S333.435,231.71,333.2,231.889Z" transform="translate(-307.354 -177.798)"/><path class="h" d="M320.666,213.6c.3.048.426.728.35,1.518s-.337,1.429-.632,1.422-.515-.687-.433-1.525S320.344,213.551,320.666,213.6Z" transform="translate(-303.68 -172.435)"/><path class="h" d="M329.029,216.971c.22.2,0,.824-.529,1.374s-1.1.872-1.319.687,0-.817.522-1.374S328.8,216.758,329.029,216.971Z" transform="translate(-305.923 -173.471)"/><path class="h" d="M331.147,219.052a.508.508,0,0,1,.687.062.536.536,0,0,1-.859.639.5.5,0,0,1,.172-.7Z" transform="translate(-307.113 -174.11)"/><path class="h" d="M306,215.443c-.1.282-.852.275-1.655-.1s-1.305-.934-1.154-1.188.852-.13,1.6.213S306.093,215.161,306,215.443Z" transform="translate(-298.428 -172.568)"/><path class="h" d="M302.012,223.573c-.268.11-.687-.3-.852-.941s0-1.209.3-1.243.6.405.742.975S302.294,223.463,302.012,223.573Z" transform="translate(-297.781 -174.874)"/><path class="h" d="M307.807,219.99c-.22.2-.762-.055-1.2-.556s-.618-1.072-.4-1.264.762.055,1.2.556S308.034,219.8,307.807,219.99Z" transform="translate(-299.352 -173.846)"/><path class="h" d="M304.5,207.97c.206.206-.172.941-.859,1.635s-1.408,1.085-1.621.879.172-.941.859-1.635S304.29,207.737,304.5,207.97Z" transform="translate(-298.053 -170.653)"/><path class="h" d="M300.564,206.106c.282.1.316.687.082,1.374s-.653,1.133-.934,1.037-.316-.721-.076-1.374S300.29,206.031,300.564,206.106Z" transform="translate(-297.274 -170.087)"/><path class="h" d="M300.467,213.544c.165.247-.082.687-.467,1.106s-.838.687-1.092.5-.158-.756.323-1.243S300.3,213.3,300.467,213.544Z" transform="translate(-297.053 -172.379)"/><path class="h" d="M299.205,212.012c-.268.117-.625-.117-.646-.543s.309-.687.591-.6a.584.584,0,0,1,.055,1.14Z" transform="translate(-296.987 -171.576)"/><path class="h" d="M307.029,211.365c.041.3-.46.6-1.12.687s-1.229-.076-1.271-.364.46-.611,1.12-.687S306.988,211.077,307.029,211.365Z" transform="translate(-298.89 -171.616)"/><path class="h" d="M304.155,204.138c.247.172.11.769-.3,1.374s-.934.9-1.175.728-.11-.776.3-1.374S303.915,203.966,304.155,204.138Z" transform="translate(-298.241 -169.458)"/><path class="h" d="M307.049,225.059c-.213.206-.859-.13-1.243-.886s-.282-1.477,0-1.525.632.44.948,1.037S307.268,224.853,307.049,225.059Z" transform="translate(-299.177 -175.268)"/><path class="h" d="M298.576,226.81c-.3.034-.577-.426-.529-1.017s.405-1,.687-.927.419.522.385,1.01S298.872,226.782,298.576,226.81Z" transform="translate(-296.825 -175.961)"/><path class="h" d="M303.67,227.186c-.082.288-.625.371-1.216.192s-.989-.556-.9-.838.632-.371,1.216-.192S303.759,226.9,303.67,227.186Z" transform="translate(-297.921 -176.399)"/><path class="h" d="M311.194,224.678c-.22.2-.769-.062-1.23-.577s-.687-1.092-.433-1.291.776.062,1.229.577S311.421,224.479,311.194,224.678Z" transform="translate(-300.389 -175.299)"/><path class="h" d="M312.38,213.55c0,.3-.625.57-1.436.618s-1.484-.151-1.5-.446.625-.577,1.442-.625S312.366,213.255,312.38,213.55Z" transform="translate(-300.394 -172.276)"/><path class="h" d="M310.31,206.142c.151.254-.268.762-.927,1.133s-1.312.467-1.456.206.268-.769.927-1.14S310.166,205.881,310.31,206.142Z" transform="translate(-299.911 -170.054)"/><path class="h" d="M302.356,202.205a.687.687,0,0,1,.131.9c-.192.357-.556.543-.817.4a.687.687,0,0,1-.13-.9C301.724,202.246,302.1,202.047,302.356,202.205Z" transform="translate(-297.885 -168.85)"/><path class="h" d="M309,202.028c.213.206,0,.783-.488,1.291s-1.051.749-1.264.549,0-.783.488-1.291S308.791,201.829,309,202.028Z" transform="translate(-299.683 -168.79)"/><path class="h" d="M313.154,209.691c.055.288-.426.625-1.078.749s-1.223,0-1.278-.3.426-.625,1.078-.749S313.1,209.4,313.154,209.691Z" transform="translate(-300.818 -171.103)"/><path class="h" d="M313.732,219.474c-.172.24-.8.1-1.442-.261s-1.092-.824-.968-1.092.8-.234,1.49.158S313.9,219.227,313.732,219.474Z" transform="translate(-300.976 -173.797)"/><path class="h" d="M339.211,227c-.089.282-.838.3-1.669.034s-1.436-.687-1.374-.982.831-.3,1.662-.041S339.293,226.722,339.211,227Z" transform="translate(-308.762 -176.264)"/><path class="h" d="M340.217,230.965c-.192.227-.721.082-1.168-.316s-.687-.907-.467-1.126.721-.082,1.175.323S340.382,230.745,340.217,230.965Z" transform="translate(-309.494 -177.389)"/><path class="h" d="M340.131,222.112c.1.282-.536.8-1.408,1.161s-1.7.433-1.82.165.5-.79,1.374-1.161S340.035,221.831,340.131,222.112Z" transform="translate(-308.989 -175.048)"/><path class="h" d="M342.479,224.768c0,.3-.412.549-.934.563s-.948-.213-.955-.515.405-.543.927-.556S342.465,224.452,342.479,224.768Z" transform="translate(-310.148 -175.773)"/><path class="h" d="M344.452,229.7c-.282.117-.687-.2-1.126-.522s-.838-.646-.8-.941c0-.144.206-.254.481-.261a1.724,1.724,0,0,1,1.566,1.2C344.637,229.443,344.582,229.642,344.452,229.7Z" transform="translate(-310.754 -176.939)"/><path class="h" d="M344.6,233.636c-.234.185-.776-.117-1.209-.687s-.6-1.154-.364-1.333.776.117,1.209.687S344.838,233.457,344.6,233.636Z" transform="translate(-310.879 -178.061)"/><path class="h" d="M329.589,222.669c.144-.254.962-.062,1.827.426s1.449,1.1,1.305,1.374-.969.062-1.834-.426S329.438,222.93,329.589,222.669Z" transform="translate(-306.696 -175.24)"/><path class="h" d="M334.436,216.48c.3,0,.577.817.632,1.855s-.144,1.9-.446,1.916-.577-.817-.625-1.861S334.141,216.494,334.436,216.48Z" transform="translate(-308.081 -173.338)"/><path class="h" d="M339.963,217.547c.179.234-.2.831-.852,1.339s-1.333.728-1.511.495.2-.831.852-1.339S339.777,217.314,339.963,217.547Z" transform="translate(-309.198 -173.643)"/><path class="h" d="M345.973,218.788c.069.288-.549.687-1.374.893s-1.566.131-1.642-.158.549-.687,1.374-.886S345.9,218.5,345.973,218.788Z" transform="translate(-310.887 -173.977)"/><path class="h" d="M347.935,223.528c-.089.288-.735.337-1.449.124s-1.23-.625-1.14-.907.735-.337,1.449-.124S348.017,223.26,347.935,223.528Z" transform="translate(-311.634 -175.22)"/><path class="h" d="M352.207,219.824c.041.3-.412.6-1.017.687s-1.14-.069-1.181-.364.412-.6,1.017-.687S352.166,219.521,352.207,219.824Z" transform="translate(-313.097 -174.263)"/><path class="h" d="M349.979,225.671c.124.268-.227.687-.8.824s-1.072-.089-1.085-.385.371-.549.845-.687S349.855,225.4,349.979,225.671Z" transform="translate(-312.496 -176.12)"/><path class="h" d="M352.685,224.331c-.282.089-.646-.254-.687-.79s.309-.914.6-.845.453.419.474.8S352.933,224.276,352.685,224.331Z" transform="translate(-313.719 -175.282)"/><path class="h" d="M349.781,213.908c.3.055.419.687.275,1.449s-.488,1.305-.776,1.25-.412-.687-.275-1.449S349.492,213.853,349.781,213.908Z" transform="translate(-312.765 -172.531)"/><path class="h" d="M353.725,216.138c-.3-.034-.495-.474-.44-1s.33-.92.625-.893.495.474.44,1S354.021,216.186,353.725,216.138Z" transform="translate(-314.121 -172.639)"/><path class="h" d="M356.256,220.175c-.3,0-.591-.412-.687-1s.11-1.1.4-1.133.591.412.687,1S356.544,220.141,356.256,220.175Z" transform="translate(-314.831 -173.825)"/><path class="h" d="M298.924,221.465c-.3,0-.57-.927-.536-2.095s.364-2.095.687-2.061.446.962.412,2.061S299.22,221.451,298.924,221.465Z" transform="translate(-296.933 -173.597)"/><path class="h" d="M303.18,219.47c-.254.158-.886-.392-1.422-1.236s-.769-1.642-.515-1.806.886.392,1.415,1.229S303.427,219.3,303.18,219.47Z" transform="translate(-297.795 -173.312)"/><path class="h" d="M335.985,230.885c-.261.144-.9-.508-1.429-1.456s-.749-1.834-.495-1.978.9.508,1.429,1.456S336.246,230.741,335.985,230.885Z" transform="translate(-308.071 -176.767)"/><g class="l" transform="translate(1.217 31.349)"><path class="d" d="M315.107,229.518c.289-.048.6.35.749.859s.11,1.017-.158,1.14-.687-.24-.872-.831S314.811,229.559,315.107,229.518Z" transform="translate(-303.273 -208.768)"/><path class="d" d="M316.4,210.519c.3.041.46,1,.364,2.129s-.419,2.061-.687,2.061-.453-.962-.357-2.129S316.11,210.478,316.4,210.519Z" transform="translate(-303.569 -202.819)"/><path class="d" d="M313.75,223.507a.488.488,0,0,1-.337-.749.495.495,0,0,1,.8-.206.536.536,0,0,1-.46.955Z" transform="translate(-302.831 -206.548)"/><path class="d" d="M325.887,212.107c.3.055.426.618.3,1.257s-.453,1.106-.749,1.044-.426-.618-.3-1.25S325.6,212.031,325.887,212.107Z" transform="translate(-306.513 -203.314)"/><path class="d" d="M338.67,213.342c.055.288-.44.625-1.106.577s-1.1-.446-1.01-.728.57-.378,1.092-.343S338.622,213.053,338.67,213.342Z" transform="translate(-310.098 -203.547)"/><path class="d" d="M340.955,210.7c-.185.234-.831.041-1.449-.433s-.975-1.051-.8-1.284.831-.041,1.449.433S341.127,210.468,340.955,210.7Z" transform="translate(-310.762 -202.308)"/><path class="d" d="M344.039,208.7c-.3,0-.536-.728-.3-1.594s.8-1.374,1.051-1.229.172.8,0,1.5S344.342,208.7,344.039,208.7Z" transform="translate(-312.321 -201.359)"/><path class="d" d="M348.283,208.89c.22.2,0,.79-.481,1.312s-1.051.79-1.271.591,0-.79.481-1.312S348.063,208.691,348.283,208.89Z" transform="translate(-313.199 -202.289)"/><path class="d" d="M345.594,214.846c-.048.3-.687.419-1.436.288s-1.305-.481-1.25-.769.687-.419,1.436-.288S345.649,214.558,345.594,214.846Z" transform="translate(-312.09 -203.918)"/><path class="d" d="M333.382,213.839c-.069.288-.639.412-1.278.268s-1.106-.488-1.037-.776.632-.412,1.271-.268S333.444,213.55,333.382,213.839Z" transform="translate(-308.381 -203.597)"/><path class="d" d="M335.314,209.631c-.144.261-.687.213-1.236-.1s-.845-.769-.687-1.03.687-.206,1.236.1S335.465,209.376,335.314,209.631Z" transform="translate(-309.098 -202.137)"/><path class="d" d="M341.445,206.152c-.254.144-.749-.268-.907-.968s.1-1.284.392-1.264.522.474.653,1.023S341.713,206.035,341.445,206.152Z" transform="translate(-311.334 -200.753)"/><path class="d" d="M348.241,205.1a.749.749,0,1,1-.811.385A.687.687,0,0,1,348.241,205.1Z" transform="translate(-313.48 -201.115)"/><path class="d" d="M351.932,210.9c.076.282-.172.6-.563.687a.687.687,0,0,1-.845-.33c-.076-.288.179-.6.563-.687a.687.687,0,0,1,.845.33Z" transform="translate(-314.472 -202.823)"/><path class="d" d="M334.213,203.234c.165-.247.9-.041,1.5.625s.728,1.422.467,1.552-.762-.282-1.264-.838S334.055,203.481,334.213,203.234Z" transform="translate(-309.357 -200.507)"/><path class="d" d="M343.816,201.22c.3,0,.536.371.536.824s-.24.838-.536.838-.536-.371-.536-.831S343.514,201.22,343.816,201.22Z" transform="translate(-312.208 -199.908)"/><path class="d" d="M327.355,209.287c.1-.282.776-.3,1.511-.055s1.264.687,1.168.962-.769.309-1.511.055S327.259,209.568,327.355,209.287Z" transform="translate(-307.217 -202.363)"/><path class="d" d="M331.233,205.3c-.206.213-.639.124-.955-.192s-.405-.742-.2-.955.639-.124.955.192S331.439,205.1,331.233,205.3Z" transform="translate(-308.039 -200.791)"/><path class="d" d="M338.588,199.54c.3,0,.57.405.611.955s-.165,1.01-.46,1.03-.57-.405-.611-.955S338.292,199.561,338.588,199.54Z" transform="translate(-310.593 -199.382)"/><path class="d" d="M319.749,208.913c.275.1.288.728,0,1.374s-.687,1.113-.969,1-.288-.728-.034-1.374S319.474,208.8,319.749,208.913Z" transform="translate(-304.468 -202.312)"/><path class="d" d="M322.974,208.618c.3-.055.632.44.756,1.106s0,1.243-.3,1.3-.632-.433-.756-1.1S322.686,208.673,322.974,208.618Z" transform="translate(-305.742 -202.223)"/><path class="d" d="M328.043,206.9c0,.3-.584.5-1.264.467s-1.223-.309-1.209-.6.584-.5,1.264-.467S328.063,206.607,328.043,206.9Z" transform="translate(-306.662 -201.497)"/><path class="d" d="M316.883,206.583c.062.288-.343.625-.9.742s-1.058,0-1.126-.3.343-.625.9-.742S316.814,206.294,316.883,206.583Z" transform="translate(-303.305 -201.479)"/><path class="d" d="M322.34,205.01c.11.275-.185.639-.646.817s-.92.089-1.023-.192.185-.639.646-.817S322.264,204.729,322.34,205.01Z" transform="translate(-305.121 -201.006)"/><path class="d" d="M316.77,203.447c.034.3-.783.618-1.806.529s-1.779-.543-1.7-.824.865-.323,1.786-.247S316.743,203.152,316.77,203.447Z" transform="translate(-302.808 -200.425)"/><path class="d" d="M319.421,200.963c-.124.275-.962.172-1.875-.227s-1.559-.941-1.442-1.216.955-.165,1.875.234S319.538,200.7,319.421,200.963Z" transform="translate(-303.694 -199.328)"/><path class="d" d="M334.478,199.642c.124.275-.185.687-.639.982s-.955.426-1.154.206,0-.749.563-1.106S334.362,199.374,334.478,199.642Z" transform="translate(-308.867 -199.353)"/><path class="d" d="M312.431,200.2c-.11.282-.543.364-.975.2s-.687-.529-.577-.8.543-.364.975-.2S312.541,199.921,312.431,200.2Z" transform="translate(-302.054 -199.31)"/><path class="d" d="M333.224,244.11c0,.3-.687.563-1.58.591s-1.607-.185-1.614-.488.687-.556,1.58-.584S333.21,243.814,333.224,244.11Z" transform="translate(-308.059 -213.187)"/><path class="d" d="M336.2,240.778c-.213.206-.756,0-1.216-.488s-.687-1.03-.447-1.236.756,0,1.216.488S336.418,240.572,336.2,240.778Z" transform="translate(-309.439 -211.73)"/><path class="d" d="M339.011,239.049c-.282.055-.639-.536-.584-1.326s.495-1.333.769-1.229.343.687.3,1.305S339.307,238.994,339.011,239.049Z" transform="translate(-310.686 -210.949)"/><path class="d" d="M340.493,242.161c.192.227.041.687-.3,1.051s-.79.556-1.03.378-.144-.687.24-1.106S340.3,241.941,340.493,242.161Z" transform="translate(-310.877 -212.694)"/><path class="d" d="M339.986,248.053c-.3,0-.522-.453-.426-.989s.46-.879.742-.79.392.522.316.975S340.281,248.059,339.986,248.053Z" transform="translate(-311.036 -214.011)"/><path class="d" d="M336.045,246.312a.591.591,0,0,1,.227.618.611.611,0,0,1-.639.165.46.46,0,1,1,.412-.783Z" transform="translate(-309.698 -213.988)"/><path class="d" d="M342.261,234.842c.275.1.288.769-.089,1.436s-.955,1.01-1.181.824-.082-.762.247-1.374S341.979,234.739,342.261,234.842Z" transform="translate(-311.456 -210.431)"/><path class="d" d="M338.471,234.218c0,.3-.57.57-1.3.611s-1.339-.165-1.374-.467.563-.563,1.3-.6S338.451,233.922,338.471,234.218Z" transform="translate(-309.865 -210.095)"/><path class="d" d="M332.21,240.771c-.234.185-.639.062-.914-.275s-.3-.769-.069-.955.639-.055.907.282S332.444,240.585,332.21,240.771Z" transform="translate(-308.384 -211.881)"/><path class="d" d="M325.631,243.595c-.206.213-.879-.117-1.326-.865s-.412-1.5-.131-1.573.687.412,1.051,1.023S325.837,243.382,325.631,243.595Z" transform="translate(-306.16 -212.411)"/><path class="d" d="M322.331,244.316c-.076.282-.5.419-.948.3s-.749-.446-.687-.735.5-.419.948-.3S322.407,244.027,322.331,244.316Z" transform="translate(-305.133 -213.159)"/><path class="d" d="M300.987,266.72c-.3-.041-.433-.735-.316-1.552s.453-1.449.749-1.408.433.742.316,1.559S301.282,266.761,300.987,266.72Z" transform="translate(-298.852 -219.49)"/><path class="d" d="M306.246,265.93c-.268.124-.824-.495-1.243-1.374s-.536-1.71-.268-1.834.824.495,1.243,1.374S306.541,265.8,306.246,265.93Z" transform="translate(-300.093 -219.161)"/><path class="d" d="M310.853,262.758c-.192.227-.948-.11-1.745-.687s-1.374-1.175-1.2-1.429.989-.041,1.827.556S311.045,262.538,310.853,262.758Z" transform="translate(-301.121 -218.482)"/><path class="d" d="M303.8,257.681c.275.11.316.646.089,1.2s-.625.914-.9.8-.316-.687-.1-1.2S303.528,257.564,303.8,257.681Z" transform="translate(-299.518 -217.581)"/><path class="d" d="M311.734,267.472c-.234.179-.735-.082-1.12-.591s-.5-1.058-.261-1.236.735.089,1.12.591S311.967,267.293,311.734,267.472Z" transform="translate(-301.858 -220.064)"/><path class="d" d="M303.525,269.164c-.3.048-.584-.3-.687-.762s.117-.872.412-.914.584.3.653.762S303.814,269.123,303.525,269.164Z" transform="translate(-299.536 -220.658)"/><path class="d" d="M318.577,261.554c-.076.288-1.03.337-2.122.11s-1.944-.646-1.9-.941.989-.343,2.116-.11S318.653,261.265,318.577,261.554Z" transform="translate(-303.214 -218.459)"/><path class="d" d="M318.163,267.13c-.185.227-.955-.1-1.717-.721s-1.229-1.326-1.044-1.552.962.089,1.724.721S318.355,266.9,318.163,267.13Z" transform="translate(-303.465 -219.812)"/><path class="d" d="M323.827,265.992c-.089.282-.728.33-1.442.11s-1.209-.625-1.12-.907.735-.337,1.442-.117S323.944,265.71,323.827,265.992Z" transform="translate(-305.311 -219.862)"/><path class="d" d="M328.494,267.343c0,.3-.412.563-.9.79s-.969.364-1.188.158.055-.817.749-1.133S328.487,267.048,328.494,267.343Z" transform="translate(-306.901 -220.505)"/><path class="d" d="M327.152,263.169c-.144.254-.687.213-1.264-.1s-.879-.769-.735-1.03.687-.213,1.264.1S327.3,262.908,327.152,263.169Z" transform="translate(-306.521 -218.901)"/><path class="d" d="M332.051,263.229a.975.975,0,0,1-.2.913c-.213.3-.488.549-.783.515s-.467-.591-.1-1.12S331.921,262.968,332.051,263.229Z" transform="translate(-308.287 -219.276)"/><path class="d" d="M336.132,266.564c0,.3-.556.556-1.264.577s-1.291-.2-1.3-.495.556-.556,1.264-.577S336.118,266.269,336.132,266.564Z" transform="translate(-309.167 -220.214)"/><path class="d" d="M337.042,263.786c-.117.275-.687.289-1.25.048s-.948-.687-.831-.941.687-.3,1.257-.048S337.138,263.511,337.042,263.786Z" transform="translate(-309.596 -219.153)"/><path class="d" d="M340.983,264.8c-.3-.041-.474-.495-.3-.975s.6-.687.852-.549a.776.776,0,0,1,.158.92C341.567,264.555,341.278,264.837,340.983,264.8Z" transform="translate(-311.374 -219.325)"/><path class="d" d="M315.8,224.713c.247-.165.79.227,1.216.872s.57,1.3.323,1.463-.8-.227-1.223-.872S315.557,224.9,315.8,224.713Z" transform="translate(-303.566 -207.252)"/><path class="d" d="M321.543,223.307c.247.158.041.934-.467,1.731s-1.126,1.312-1.374,1.154-.041-.934.467-1.731S321.3,223.149,321.543,223.307Z" transform="translate(-304.792 -206.815)"/><path class="d" d="M324.849,227.6c.1.282-.4.721-1.12,1s-1.374.268-1.5,0,.4-.687,1.12-.989S324.746,227.328,324.849,227.6Z" transform="translate(-305.611 -208.103)"/><path class="d" d="M324.165,233.841c-.179.234-.831.048-1.374-.488s-.8-1.168-.577-1.374.79.089,1.312.577S324.336,233.6,324.165,233.841Z" transform="translate(-305.586 -209.519)"/><path class="d" d="M319.01,236c-.282.069-.687-.687-.632-1.683s.563-1.7.838-1.587.275.824.234,1.655S319.3,235.936,319.01,236Z" transform="translate(-304.408 -209.773)"/><path class="d" d="M320.287,230.374c-.076.288-.543.405-1.044.268s-.831-.488-.749-.769.543-.405,1.044-.268S320.369,230.092,320.287,230.374Z" transform="translate(-304.442 -208.778)"/><path class="d" d="M326.084,222.7c.24.172,0,.914-.687,1.532s-1.436.783-1.58.529.282-.79.859-1.326S325.843,222.529,326.084,222.7Z" transform="translate(-306.104 -206.621)"/><path class="d" d="M318.232,220.117c.282-.069.646.446.687,1.168s-.268,1.264-.563,1.229-.474-.563-.508-1.175S317.951,220.179,318.232,220.117Z" transform="translate(-304.242 -205.823)"/><path class="d" d="M323.613,217.337c.282.069.364.749.076,1.477s-.817,1.175-1.072,1.023-.185-.762.076-1.415S323.318,217.268,323.613,217.337Z" transform="translate(-305.688 -204.953)"/><path class="d" d="M330.436,226.735c0,.3-.405.577-.962.632s-1.037-.144-1.065-.44.405-.577.962-.632S330.408,226.44,330.436,226.735Z" transform="translate(-307.551 -207.757)"/><path class="d" d="M328.056,232.052c-.1.282-.687.337-1.374.131s-1.092-.611-1.017-.9.687-.343,1.374-.124S328.159,231.777,328.056,232.052Z" transform="translate(-306.689 -209.24)"/><path class="d" d="M322.649,237.85c-.254.144-.742-.234-.934-.907s0-1.243.3-1.264.57.419.735.962S322.91,237.706,322.649,237.85Z" transform="translate(-305.431 -210.698)"/><path class="d" d="M318.849,241.734c-.3,0-.556-.385-.591-.893s.185-.941.481-.962.563.385.591.9S319.144,241.72,318.849,241.734Z" transform="translate(-304.371 -212.013)"/><path class="d" d="M328.25,239.545c-.275.124-.742-.33-1.154-.955s-.625-1.236-.4-1.436.845.151,1.3.852S328.525,239.421,328.25,239.545Z" transform="translate(-306.986 -211.143)"/><path class="d" d="M332.315,236.371c-.151.254-.824.144-1.559-.151s-1.284-.687-1.209-.989.817-.337,1.621,0S332.459,236.131,332.315,236.371Z" transform="translate(-307.905 -210.483)"/><path class="d" d="M333.2,231.889a.941.941,0,0,1-.941-.076c-.323-.179-.611-.44-.591-.742s.543-.495,1.092-.206S333.435,231.71,333.2,231.889Z" transform="translate(-308.572 -209.146)"/><path class="d" d="M320.666,213.6c.3.048.426.728.35,1.518s-.337,1.429-.632,1.422-.515-.687-.433-1.525S320.344,213.551,320.666,213.6Z" transform="translate(-304.897 -203.783)"/><path class="d" d="M329.029,216.971c.22.2,0,.824-.529,1.374s-1.1.872-1.319.687,0-.817.522-1.374S328.8,216.758,329.029,216.971Z" transform="translate(-307.14 -204.82)"/><path class="d" d="M331.147,219.052a.508.508,0,0,1,.687.062.536.536,0,0,1-.859.639.5.5,0,0,1,.172-.7Z" transform="translate(-308.33 -205.459)"/><path class="d" d="M306,215.443c-.1.282-.852.275-1.655-.1s-1.305-.934-1.154-1.188.852-.13,1.6.213S306.093,215.161,306,215.443Z" transform="translate(-299.645 -203.917)"/><path class="d" d="M302.012,223.573c-.268.11-.687-.3-.852-.941s0-1.209.3-1.243.6.405.742.975S302.294,223.463,302.012,223.573Z" transform="translate(-298.998 -206.223)"/><path class="d" d="M307.807,219.99c-.22.2-.762-.055-1.2-.556s-.618-1.072-.4-1.264.762.055,1.2.556S308.034,219.8,307.807,219.99Z" transform="translate(-300.569 -205.195)"/><path class="d" d="M304.5,207.97c.206.206-.172.941-.859,1.635s-1.408,1.085-1.621.879.172-.941.859-1.635S304.29,207.737,304.5,207.97Z" transform="translate(-299.27 -202.001)"/><path class="d" d="M300.564,206.106c.282.1.316.687.082,1.374s-.653,1.133-.934,1.037-.316-.721-.076-1.374S300.29,206.031,300.564,206.106Z" transform="translate(-298.491 -201.435)"/><path class="d" d="M300.467,213.544c.165.247-.082.687-.467,1.106s-.838.687-1.092.5-.158-.756.323-1.243S300.3,213.3,300.467,213.544Z" transform="translate(-298.27 -203.728)"/><path class="d" d="M299.205,212.012c-.268.117-.625-.117-.646-.543s.309-.687.591-.6a.584.584,0,0,1,.055,1.14Z" transform="translate(-298.204 -202.925)"/><path class="d" d="M307.029,211.365c.041.3-.46.6-1.12.687s-1.229-.076-1.271-.364.46-.611,1.12-.687S306.988,211.077,307.029,211.365Z" transform="translate(-300.107 -202.965)"/><path class="d" d="M304.155,204.138c.247.172.11.769-.3,1.374s-.934.9-1.175.728-.11-.776.3-1.374S303.915,203.966,304.155,204.138Z" transform="translate(-299.458 -200.807)"/><path class="d" d="M307.049,225.059c-.213.206-.859-.13-1.243-.886s-.282-1.477,0-1.525.632.44.948,1.037S307.268,224.853,307.049,225.059Z" transform="translate(-300.394 -206.617)"/><path class="d" d="M298.576,226.81c-.3.034-.577-.426-.529-1.017s.405-1,.687-.927.419.522.385,1.01S298.872,226.782,298.576,226.81Z" transform="translate(-298.042 -207.309)"/><path class="d" d="M303.67,227.186c-.082.288-.625.371-1.216.192s-.989-.556-.9-.838.632-.371,1.216-.192S303.759,226.9,303.67,227.186Z" transform="translate(-299.138 -207.747)"/><path class="d" d="M311.194,224.678c-.22.2-.769-.062-1.23-.577s-.687-1.092-.433-1.291.776.062,1.229.577S311.421,224.479,311.194,224.678Z" transform="translate(-301.607 -206.647)"/><path class="d" d="M312.38,213.55c0,.3-.625.57-1.436.618s-1.484-.151-1.5-.446.625-.577,1.442-.625S312.366,213.255,312.38,213.55Z" transform="translate(-301.611 -203.625)"/><path class="d" d="M310.31,206.142c.151.254-.268.762-.927,1.133s-1.312.467-1.456.206.268-.769.927-1.14S310.166,205.881,310.31,206.142Z" transform="translate(-301.128 -201.402)"/><path class="d" d="M302.356,202.205a.687.687,0,0,1,.131.9c-.192.357-.556.543-.817.4a.687.687,0,0,1-.13-.9C301.724,202.246,302.1,202.047,302.356,202.205Z" transform="translate(-299.102 -200.199)"/><path class="d" d="M309,202.028c.213.206,0,.783-.488,1.291s-1.051.749-1.264.549,0-.783.488-1.291S308.791,201.829,309,202.028Z" transform="translate(-300.9 -200.139)"/><path class="d" d="M313.154,209.691c.055.288-.426.625-1.078.749s-1.223,0-1.278-.3.426-.625,1.078-.749S313.1,209.4,313.154,209.691Z" transform="translate(-302.035 -202.452)"/><path class="d" d="M313.732,219.474c-.172.24-.8.1-1.442-.261s-1.092-.824-.968-1.092.8-.234,1.49.158S313.9,219.227,313.732,219.474Z" transform="translate(-302.194 -205.146)"/><path class="d" d="M339.211,227c-.089.282-.838.3-1.669.034s-1.436-.687-1.374-.982.831-.3,1.662-.041S339.293,226.722,339.211,227Z" transform="translate(-309.979 -207.613)"/><path class="d" d="M340.217,230.965c-.192.227-.721.082-1.168-.316s-.687-.907-.467-1.126.721-.082,1.175.323S340.382,230.745,340.217,230.965Z" transform="translate(-310.711 -208.738)"/><path class="d" d="M340.131,222.112c.1.282-.536.8-1.408,1.161s-1.7.433-1.82.165.5-.79,1.374-1.161S340.035,221.831,340.131,222.112Z" transform="translate(-310.206 -206.396)"/><path class="d" d="M342.479,224.768c0,.3-.412.549-.934.563s-.948-.213-.955-.515.405-.543.927-.556S342.465,224.452,342.479,224.768Z" transform="translate(-311.365 -207.122)"/><path class="d" d="M344.452,229.7c-.282.117-.687-.2-1.126-.522s-.838-.646-.8-.941c0-.144.206-.254.481-.261a1.724,1.724,0,0,1,1.566,1.2C344.637,229.443,344.582,229.642,344.452,229.7Z" transform="translate(-311.971 -208.287)"/><path class="d" d="M344.6,233.636c-.234.185-.776-.117-1.209-.687s-.6-1.154-.364-1.333.776.117,1.209.687S344.838,233.457,344.6,233.636Z" transform="translate(-312.097 -209.41)"/><path class="d" d="M329.589,222.669c.144-.254.962-.062,1.827.426s1.449,1.1,1.305,1.374-.969.062-1.834-.426S329.438,222.93,329.589,222.669Z" transform="translate(-307.913 -206.589)"/><path class="d" d="M334.436,216.48c.3,0,.577.817.632,1.855s-.144,1.9-.446,1.916-.577-.817-.625-1.861S334.141,216.494,334.436,216.48Z" transform="translate(-309.298 -204.686)"/><path class="d" d="M339.963,217.547c.179.234-.2.831-.852,1.339s-1.333.728-1.511.495.2-.831.852-1.339S339.777,217.314,339.963,217.547Z" transform="translate(-310.415 -204.991)"/><path class="d" d="M345.973,218.788c.069.288-.549.687-1.374.893s-1.566.131-1.642-.158.549-.687,1.374-.886S345.9,218.5,345.973,218.788Z" transform="translate(-312.105 -205.325)"/><path class="d" d="M347.935,223.528c-.089.288-.735.337-1.449.124s-1.23-.625-1.14-.907.735-.337,1.449-.124S348.017,223.26,347.935,223.528Z" transform="translate(-312.851 -206.569)"/><path class="d" d="M352.207,219.824c.041.3-.412.6-1.017.687s-1.14-.069-1.181-.364.412-.6,1.017-.687S352.166,219.521,352.207,219.824Z" transform="translate(-314.314 -205.612)"/><path class="d" d="M349.979,225.671c.124.268-.227.687-.8.824s-1.072-.089-1.085-.385.371-.549.845-.687S349.855,225.4,349.979,225.671Z" transform="translate(-313.714 -207.469)"/><path class="d" d="M352.685,224.331c-.282.089-.646-.254-.687-.79s.309-.914.6-.845.453.419.474.8S352.933,224.276,352.685,224.331Z" transform="translate(-314.937 -206.63)"/><path class="d" d="M349.781,213.908c.3.055.419.687.275,1.449s-.488,1.305-.776,1.25-.412-.687-.275-1.449S349.492,213.853,349.781,213.908Z" transform="translate(-313.983 -203.88)"/><path class="d" d="M353.725,216.138c-.3-.034-.495-.474-.44-1s.33-.92.625-.893.495.474.44,1S354.021,216.186,353.725,216.138Z" transform="translate(-315.338 -203.987)"/><path class="d" d="M356.256,220.175c-.3,0-.591-.412-.687-1s.11-1.1.4-1.133.591.412.687,1S356.544,220.141,356.256,220.175Z" transform="translate(-316.048 -205.174)"/><path class="d" d="M298.924,221.465c-.3,0-.57-.927-.536-2.095s.364-2.095.687-2.061.446.962.412,2.061S299.22,221.451,298.924,221.465Z" transform="translate(-298.15 -204.946)"/><path class="d" d="M303.18,219.47c-.254.158-.886-.392-1.422-1.236s-.769-1.642-.515-1.806.886.392,1.415,1.229S303.427,219.3,303.18,219.47Z" transform="translate(-299.012 -204.66)"/><path class="d" d="M335.985,230.885c-.261.144-.9-.508-1.429-1.456s-.749-1.834-.495-1.978.9.508,1.429,1.456S336.246,230.741,335.985,230.885Z" transform="translate(-309.288 -208.115)"/></g><path class="g" d="M313.914,211c.055,0,.137,2.6.179,5.8s0,5.811-.034,5.811-.137-2.6-.179-5.811S313.852,211,313.914,211Z" transform="translate(-301.777 -171.622)"/><path class="g" d="M314.794,214.09a4.807,4.807,0,0,1-.3,1.037,5.25,5.25,0,0,1-.316,1.03,1.93,1.93,0,0,1,.117-1.092A1.971,1.971,0,0,1,314.794,214.09Z" transform="translate(-301.867 -172.589)"/><path class="g" d="M328.719,197.067a.469.469,0,0,0,.055.172,3.561,3.561,0,0,1,.1.529,4.87,4.87,0,0,1-.192,1.951,5.158,5.158,0,0,1-1.58,2.425,5.1,5.1,0,0,1-6.628-.172,5.234,5.234,0,0,1-1.456-2.507,5.008,5.008,0,0,1-.089-1.951,3.49,3.49,0,0,1,.124-.522.5.5,0,0,1,.069-.172,5.549,5.549,0,0,0,.048,2.61,5.069,5.069,0,0,0,1.442,2.4,4.973,4.973,0,0,0,6.367.165,5.152,5.152,0,0,0,1.559-2.322A5.687,5.687,0,0,0,328.719,197.067Z" transform="translate(-303.346 -167.181)"/><path class="g" d="M341.83,217.1a4.314,4.314,0,0,1,.46.831c.343.687.687,1.333,1.023,2.061l1.037,2.061a4.317,4.317,0,0,1,.385.865,3.75,3.75,0,0,1-.522-.79c-.3-.508-.687-1.216-1.092-2.013s-.735-1.532-.969-2.061A3.885,3.885,0,0,1,341.83,217.1Z" transform="translate(-310.536 -173.532)"/><path class="h" d="M367.709,426.036,366.6,419.82l-11.677,2.013,1.552,9.1.728-.076c3.249-.378,16.485-2.143,18.545-3.166C378,426.551,367.709,426.036,367.709,426.036Z" transform="translate(-314.635 -237.01)"/><path class="h" d="M361.127,433.578a4.121,4.121,0,0,0-1.916-2.232,3.99,3.99,0,0,0-2.871-.378l.556,3.263Z" transform="translate(-315.08 -240.465)"/><path class="h" d="M373.472,429.49s3.647.4,3.311,1.044-13.648,2.94-19.6,3.434v-.261l15.551-2.541S372.8,429.634,373.472,429.49Z" transform="translate(-315.343 -240.038)"/><path class="g" d="M356.87,434.119h.206l.577-.069,2.136-.275c1.8-.24,4.286-.611,7.02-1.078s5.2-.948,6.979-1.319l2.1-.453.57-.131.2-.055h-.206l-.57.11-2.116.405c-1.786.343-4.252.8-6.985,1.271s-5.206.859-7.006,1.126l-2.129.316-.577.089Z" transform="translate(-315.246 -240.43)"/><path class="g" d="M379.795,431.279a4.5,4.5,0,0,1,.22-1.085,4.6,4.6,0,0,1,.584-.934,1.607,1.607,0,0,0-.687.886,1.587,1.587,0,0,0-.117,1.133Z" transform="translate(-322.407 -239.966)"/><path class="g" d="M374.37,430.044a1.389,1.389,0,0,0,.3-.515A1.277,1.277,0,0,0,374.8,429a2.079,2.079,0,0,0-.433,1.044Z" transform="translate(-320.726 -239.885)"/><path class="g" d="M372.868,429.642a1.1,1.1,0,0,0,.364-.35c.165-.22.282-.405.254-.433s-.192.13-.364.35A1.144,1.144,0,0,0,372.868,429.642Z" transform="translate(-320.254 -239.839)"/><path class="g" d="M371.73,428.395a1.333,1.333,0,0,0,.618,0,.316.316,0,1,0,0-.137,1.511,1.511,0,0,0-.618.137Z" transform="translate(-319.899 -239.575)"/><path class="g" d="M371.24,427.437a1.209,1.209,0,0,0,.687.076,1.182,1.182,0,0,0,.687-.213,3.3,3.3,0,0,0-.687.076,3.362,3.362,0,0,0-.687.062Z" transform="translate(-319.746 -239.352)"/><path class="g" d="M374.69,428.339a2.26,2.26,0,0,0,.749-.137,4.385,4.385,0,0,0,.769-.309,2.7,2.7,0,0,0,.426-.268.412.412,0,0,0,.144-.268.282.282,0,0,0-.165-.275,1.374,1.374,0,0,0-1.628.687,1.257,1.257,0,0,0-.158.543c0,.131,0,.206,0,.2a2.169,2.169,0,0,1,.227-.687,1.429,1.429,0,0,1,.57-.529,1.188,1.188,0,0,1,.907-.089c.13.069.11.213,0,.316a2.132,2.132,0,0,1-.392.254,5.373,5.373,0,0,1-.735.33C374.972,428.264,374.69,428.312,374.69,428.339Z" transform="translate(-320.826 -239.265)"/><path class="g" d="M374.465,428.336a.777.777,0,0,0,0-.536,1.27,1.27,0,0,0-.3-.508.769.769,0,0,0-.687-.275.3.3,0,0,0-.172.385.935.935,0,0,0,.185.316,2.446,2.446,0,0,0,.433.391,1.14,1.14,0,0,0,.481.227s-.172-.11-.419-.309a2.7,2.7,0,0,1-.392-.4c-.13-.137-.247-.412-.069-.481s.412.11.549.234a1.312,1.312,0,0,1,.3.453,3.282,3.282,0,0,1,.089.5Z" transform="translate(-320.388 -239.262)"/><path class="g" d="M356.42,430.893a4.414,4.414,0,0,1,.865-.117,3.7,3.7,0,0,1,3.469,1.91,8.464,8.464,0,0,1,.364.79,1.179,1.179,0,0,0-.034-.234,3.373,3.373,0,0,0-.24-.6,3.619,3.619,0,0,0-1.477-1.539,3.675,3.675,0,0,0-2.061-.426,3.01,3.01,0,0,0-.639.131A.356.356,0,0,0,356.42,430.893Z" transform="translate(-315.105 -240.404)"/><path class="g" d="M357,423.59a21.081,21.081,0,0,0,.309,2.411,22.032,22.032,0,0,0,.453,2.39,19.516,19.516,0,0,0-.309-2.411,20.6,20.6,0,0,0-.453-2.39Z" transform="translate(-315.287 -238.191)"/><path class="g" d="M365.16,432.537a6.375,6.375,0,0,0,1.731-.124,6.922,6.922,0,0,0,1.683-.426c0-.041-.769.137-1.7.288S365.153,432.5,365.16,432.537Z" transform="translate(-317.842 -240.818)"/><path class="g" d="M361.83,433.357a1.768,1.768,0,0,0,.2.316c.11.165.179.309.213.3s.034-.192-.1-.378S361.851,433.322,361.83,433.357Z" transform="translate(-316.799 -241.246)"/><path class="g" d="M360.31,432a.736.736,0,0,0,.213.24c.144.1.275.158.3.124s-.076-.137-.22-.24A.641.641,0,0,0,360.31,432Z" transform="translate(-316.323 -240.824)"/><path class="g" d="M358.39,431.563c0,.041.172,0,.35.041s.323.1.35.069-.1-.172-.323-.206S358.376,431.529,358.39,431.563Z" transform="translate(-315.721 -240.655)"/><path class="g" d="M357.06,431.488c0,.034.069.082.172.1a.563.563,0,0,0,.2,0,.294.294,0,0,0-.172-.11C357.156,431.46,357.067,431.447,357.06,431.488Z" transform="translate(-315.305 -240.655)"/><path class="i" d="M346.657,272.489s37.537,6.292,34.577,17.6-25.126,38.465-25.126,38.465l-14.046-8.888s20.764-25.764,19.967-26.616-29.219-7-29.219-7l-6.34-16.244Z" transform="translate(-305.727 -190.037)"/><path class="g" d="M341.416,290.015c0,.1-.261.137-.543.082s-.488-.172-.474-.275.261-.131.543-.076S341.43,289.912,341.416,290.015Z" transform="translate(-310.088 -196.271)"/><path class="g" d="M346.7,291.087c0,.1-.474.089-1.017,0s-.968-.282-.948-.378.474-.082,1.023,0S346.725,290.991,346.7,291.087Z" transform="translate(-311.447 -196.56)"/><path class="g" d="M352.417,292.312c0,.1-.481.076-1.017-.048s-.962-.3-.941-.392.474-.076,1.017.041S352.438,292.209,352.417,292.312Z" transform="translate(-313.238 -196.926)"/><path class="g" d="M358.11,293.631c0,.1-.481.069-1.017-.055s-.955-.316-.934-.412.481-.069,1.017.062S358.11,293.535,358.11,293.631Z" transform="translate(-315.023 -197.332)"/><path class="g" d="M363.763,295.057c0,.1-.481.062-1.017-.076s-.948-.33-.927-.426.481-.062,1.017.076S363.791,294.96,363.763,295.057Z" transform="translate(-316.796 -197.768)"/><path class="g" d="M369.4,296.582c0,.1-.481.048-1.01-.1s-.948-.343-.92-.44.481-.055,1.01.1S369.427,296.486,369.4,296.582Z" transform="translate(-318.565 -198.236)"/><path class="g" d="M375.013,298.2c0,.1-.481.041-1.017-.117s-.934-.357-.907-.453.481-.041,1.01.117S375.04,298.1,375.013,298.2Z" transform="translate(-320.324 -198.733)"/><path class="g" d="M380.589,299.914c0,.089-.481.034-1.01-.13s-.927-.378-.9-.474.481-.034,1.01.13S380.623,299.818,380.589,299.914Z" transform="translate(-322.075 -199.26)"/><path class="g" d="M382.9,303.638c-.089-.062.158-.46.385-.914s.117-.845.22-.9.117.076.2.268a1.167,1.167,0,0,1-.1.783C383.341,303.411,382.963,303.686,382.9,303.638Z" transform="translate(-323.391 -200.058)"/><path class="g" d="M379.443,308.436c-.076-.055.124-.467.453-.914s.687-.756.735-.687-.124.467-.447.913S379.525,308.5,379.443,308.436Z" transform="translate(-322.309 -201.628)"/><path class="g" d="M375.993,313.136c-.076-.055.124-.467.453-.914s.687-.756.735-.687-.124.467-.446.914S376.068,313.225,375.993,313.136Z" transform="translate(-321.229 -203.1)"/><path class="g" d="M372.523,317.845c-.076-.062.124-.467.453-.914s.687-.762.735-.687-.124.467-.446.914S372.605,317.9,372.523,317.845Z" transform="translate(-320.142 -204.574)"/><path class="g" d="M369.063,322.545c-.076-.062.124-.467.453-.914s.687-.762.735-.687-.117.467-.446.914S369.145,322.6,369.063,322.545Z" transform="translate(-319.059 -206.046)"/><path class="g" d="M365.6,327.265c-.076-.062.124-.467.453-.914s.687-.762.735-.687-.117.467-.446.914S365.685,327.307,365.6,327.265Z" transform="translate(-317.975 -207.524)"/><path class="g" d="M362.152,331.945c-.082-.062.117-.467.446-.914s.687-.762.742-.687-.124.467-.453.914S362.227,332,362.152,331.945Z" transform="translate(-316.894 -208.989)"/><path class="g" d="M358.692,336.645c-.082-.055.117-.467.446-.914s.687-.762.742-.687-.124.467-.453.914S358.767,336.707,358.692,336.645Z" transform="translate(-315.81 -210.461)"/><path class="g" d="M356.065,340.555c-.082-.055,0-.288.158-.522s.371-.364.453-.309,0,.3-.165.522S356.141,340.6,356.065,340.555Z" transform="translate(-314.984 -211.926)"/><path class="g" d="M382.96,301.26a9.065,9.065,0,0,1-2.377,1,9.224,9.224,0,0,1-2.493.687,9.953,9.953,0,0,1,2.377-1A9.808,9.808,0,0,1,382.96,301.26Z" transform="translate(-321.891 -199.885)"/><path class="g" d="M383.346,303.133a14.135,14.135,0,0,1-5.536.453,15.114,15.114,0,0,1,2.747-.309,14.506,14.506,0,0,1,2.789-.144Z" transform="translate(-321.803 -200.467)"/><path class="g" d="M365.019,350.236l-8.448-5.495s-.687-6.979-2.3-8.771l13.435,10.811Z" transform="translate(-314.432 -210.754)"/><path class="i" d="M297.847,272s-2.3,7.349,5.131,18.442l25.016,38.7,5.667,50.265,18.545-1.648-6.278-55.671-26.389-49.406Z" transform="translate(-296.658 -190.723)"/><path class="g" d="M300.719,273.58c-.1,0-.179-.227-.179-.522s.082-.515.185-.508.179.24.179.522S300.856,273.546,300.719,273.58Z" transform="translate(-297.607 -190.895)"/><path class="g" d="M301.518,279.076c-.1,0-.268-.412-.385-.975s-.137-1.037-.041-1.051.275.426.392.975S301.614,279.076,301.518,279.076Z" transform="translate(-297.761 -192.304)"/><path class="g" d="M303.319,284.816c-.089.041-.33-.364-.536-.907s-.288-1-.2-1.03.337.378.536.907S303.415,284.775,303.319,284.816Z" transform="translate(-298.236 -194.129)"/><path class="g" d="M305.878,290.259c-.082.055-.378-.316-.687-.817s-.405-.962-.316-1,.371.337.632.838S305.968,290.2,305.878,290.259Z" transform="translate(-298.955 -195.869)"/><path class="g" d="M309.024,295.419c-.082.048-.4-.3-.687-.783s-.488-.914-.405-.969.4.3.687.776S309.106,295.364,309.024,295.419Z" transform="translate(-299.916 -197.506)"/><path class="g" d="M312.328,300.468c-.082.055-.405-.289-.687-.769s-.5-.907-.419-.962.405.288.687.769S312.438,300.413,312.328,300.468Z" transform="translate(-300.946 -199.093)"/><path class="g" d="M315.655,305.484c-.082.055-.405-.282-.721-.762s-.515-.9-.433-.955.405.282.728.756S315.738,305.43,315.655,305.484Z" transform="translate(-301.973 -200.668)"/><path class="g" d="M319.039,310.484c-.082.055-.412-.282-.728-.756s-.522-.907-.44-.962.412.282.735.756S319.122,310.43,319.039,310.484Z" transform="translate(-303.029 -202.234)"/><path class="g" d="M322.459,315.474c-.082.055-.412-.282-.735-.756s-.515-.907-.433-.962.405.282.728.756S322.528,315.42,322.459,315.474Z" transform="translate(-304.099 -203.797)"/><path class="g" d="M325.839,320.448c-.076.055-.405-.282-.728-.749s-.522-.907-.44-.962.412.282.735.756S325.922,320.393,325.839,320.448Z" transform="translate(-305.158 -205.356)"/><path class="g" d="M329.249,325.428c-.082.055-.405-.282-.728-.756s-.522-.9-.44-.955.405.282.735.756S329.332,325.373,329.249,325.428Z" transform="translate(-306.225 -206.915)"/><path class="g" d="M332.659,330.408c-.082.055-.412-.282-.735-.756s-.515-.9-.433-.955.405.282.728.756S332.741,330.353,332.659,330.408Z" transform="translate(-307.293 -208.475)"/><path class="g" d="M336.052,335.394c-.082.055-.405-.288-.728-.762s-.515-.9-.433-.955.405.282.728.756S336.135,335.34,336.052,335.394Z" transform="translate(-308.358 -210.034)"/><path class="g" d="M339.462,340.394c-.082.055-.412-.282-.728-.762s-.515-.9-.433-.955.412.282.728.756S339.524,340.34,339.462,340.394Z" transform="translate(-309.426 -211.6)"/><path class="g" d="M342.771,345.425c-.082.055-.4-.288-.687-.769s-.495-.914-.412-.969.4.3.687.769S342.86,345.37,342.771,345.425Z" transform="translate(-310.481 -213.169)"/><path class="g" d="M345.863,350.595c-.082,0-.316-.35-.6-.845s-.46-.927-.378-.982.4.3.687.81S345.973,350.567,345.863,350.595Z" transform="translate(-311.485 -214.759)"/><path class="g" d="M346.853,356.474c-.1,0-.227-.44-.288-1.01s-.041-1.037.062-1.044.227.44.289,1.01S346.983,356.467,346.853,356.474Z" transform="translate(-312.008 -216.531)"/><path class="g" d="M347.547,362.464c-.1,0-.227-.44-.288-1.01a1.881,1.881,0,0,1,.069-1.044,1.922,1.922,0,0,1,.288,1.01C347.677,361.99,347.643,362.457,347.547,362.464Z" transform="translate(-312.228 -218.407)"/><path class="g" d="M348.178,368.461c-.1,0-.227-.447-.282-1.017s-.034-1.037.069-1.044.227.44.282,1.01S348.281,368.447,348.178,368.461Z" transform="translate(-312.427 -220.282)"/><path class="g" d="M348.857,374.451c-.1,0-.227-.44-.289-1.01a.534.534,0,1,1,.357-.041A2,2,0,0,1,348.857,374.451Z" transform="translate(-312.638 -222.158)"/><path class="g" d="M349.42,380.451c-.1,0-.22-.44-.282-1.01a.535.535,0,1,1,.357-.034C349.557,379.977,349.523,380.444,349.42,380.451Z" transform="translate(-312.817 -224.037)"/><path class="g" d="M350.037,386.451c-.1,0-.227-.446-.288-1.017a1.78,1.78,0,0,1,.076-1.044c.076-.007.227.44.282,1.01S350.133,386.437,350.037,386.451Z" transform="translate(-313.008 -225.916)"/><path class="g" d="M350.651,392.451c-.1,0-.227-.446-.282-1.01a2,2,0,0,1,.069-1.051,1.881,1.881,0,0,1,.282,1.01C350.775,391.97,350.748,392.444,350.651,392.451Z" transform="translate(-313.203 -227.795)"/><path class="g" d="M351.261,398.451c-.1,0-.227-.44-.282-1.01a2,2,0,0,1,.069-1.051,1.89,1.89,0,0,1,.282,1.017C351.385,397.977,351.358,398.444,351.261,398.451Z" transform="translate(-313.394 -229.673)"/><path class="g" d="M351.86,404.45c-.1,0-.22-.44-.282-1.01a1.822,1.822,0,0,1,.076-1.051c.076-.014.227.446.282,1.017S351.963,404.444,351.86,404.45Z" transform="translate(-313.581 -231.552)"/><path class="g" d="M352.471,410.457c-.1,0-.227-.446-.282-1.017a1.891,1.891,0,0,1,.076-1.051c.076-.014.22.446.282,1.017S352.568,410.444,352.471,410.457Z" transform="translate(-313.773 -233.431)"/><path class="g" d="M353.071,416.461c-.1,0-.227-.446-.282-1.01a1.89,1.89,0,0,1,.076-1.051c.076-.007.227.44.282,1.01S353.168,416.454,353.071,416.461Z" transform="translate(-313.961 -235.313)"/><path class="g" d="M353.67,422.467c-.1,0-.22-.446-.282-1.017a1.821,1.821,0,0,1,.076-1.051c.076-.014.227.446.282,1.017S353.8,422.454,353.67,422.467Z" transform="translate(-314.148 -237.192)"/><path class="g" d="M354.152,427.446c-.1,0-.2-.206-.227-.488s0-.522.124-.529.206.206.234.488S354.255,427.44,354.152,427.446Z" transform="translate(-314.321 -239.08)"/><path class="g" d="M366.008,345.982c-.062,0-.158-1-.426-2.6a30.737,30.737,0,0,0-1.676-6.113,35.393,35.393,0,0,0-2.912-5.639,23.358,23.358,0,0,1-1.374-2.267,2.8,2.8,0,0,1,.46.549c.268.364.687.9,1.113,1.587a29.344,29.344,0,0,1,3.029,5.639,26.1,26.1,0,0,1,1.594,6.182c.1.817.165,1.477.179,1.93A2.392,2.392,0,0,1,366.008,345.982Z" transform="translate(-316.107 -208.684)"/><path class="g" d="M348.6,423.144l.556,3.283,19.576-2.232-.563-3.915Z" transform="translate(-312.656 -237.154)"/><path class="g" d="M333.051,269.94a6.866,6.866,0,0,1-.041,1.291c-.055.824-.151,2-.282,3.434V274.6a33.788,33.788,0,0,0,1.916,4.451c1.188,2.363,2.335,4.471,3.091,6.038.378.776.687,1.422.859,1.868a3.05,3.05,0,0,1,.254.687,3.115,3.115,0,0,1-.385-.687l-.955-1.82c-.81-1.532-1.992-3.613-3.18-5.989a28.5,28.5,0,0,1-1.889-4.52h0c.158-1.408.3-2.576.405-3.393a6.639,6.639,0,0,1,.206-1.3Z" transform="translate(-307.596 -190.078)"/><path class="k" d="M346.374,249.434c-.1-1.484-3.792-2.747-5.282-3.153h0l-.474-.1-.165-.048h0l-28.4-6.065L308.9,229H298.63c.261.515,2.356,18.758,7.871,20.043s29.1,3.2,29.1,3.2l1.758.185v.048c0,.962,1.03,1.058,2.129,1.1,2.747.11,3.517-1.065,3.517-1.065h0a6.533,6.533,0,0,0,1.511-1.848s.618,1.868.872,2.981c.364,1.58,1,1.374,1,1.374S346.45,250.492,346.374,249.434Z" transform="translate(-297.009 -177.258)"/><path class="m" d="M359.252,263.448a6.182,6.182,0,0,1-2.136,0A6.669,6.669,0,0,1,355,263.1a6.256,6.256,0,0,1,2.143,0,6.554,6.554,0,0,1,2.109.35Z" transform="translate(-314.66 -187.906)"/><path class="m" d="M362.38,261.791a.39.39,0,0,1,.261-.034.687.687,0,0,1,.522.4.577.577,0,0,1-.1.687c-.13.124-.247.124-.254.1s.069-.076.137-.192a.515.515,0,0,0,0-.474C362.806,261.874,362.359,261.853,362.38,261.791Z" transform="translate(-316.971 -187.513)"/><path class="m" d="M364,259.878c0-.062.446-.048.646.419s-.151.811-.185.749a1.727,1.727,0,0,0,0-.687C364.343,260,364,259.954,364,259.878Z" transform="translate(-317.479 -186.919)"/><path class="i" d="M361.19,252.118l2.747-4.932c.4-.082.611,0,.687.254l-2.651,4.959Z" transform="translate(-316.599 -182.943)"/><path class="i" d="M356.106,263.13,355,265.2v1.078l1.106-.756,1.25-2.212Z" transform="translate(-314.66 -187.945)"/><path class="g" d="M305.55,165.166a1.449,1.449,0,0,1-.4-.55,3.7,3.7,0,0,1-.364-1.8,5.082,5.082,0,0,1,.893-2.576,5.571,5.571,0,0,1,2.562-2.143,4.073,4.073,0,0,1,3.324.089,3.269,3.269,0,0,1,1.731,2.1,2.816,2.816,0,0,1-.165,1.834c-.185.4-.378.563-.392.55s.124-.206.261-.6a2.857,2.857,0,0,0,.048-1.717,3.029,3.029,0,0,0-1.628-1.868,3.812,3.812,0,0,0-3.05-.055,5.426,5.426,0,0,0-2.418,2,4.98,4.98,0,0,0-.914,2.4,3.791,3.791,0,0,0,.24,1.731C305.433,164.953,305.571,165.145,305.55,165.166Z" transform="translate(-298.936 -154.959)"/><path class="k" d="M328.842,187.147c.055-2.782.158-5.708.158-5.708s3.352-.46,4.121-5.11c.735-4.43.206-14.761.206-14.761h0a11.835,11.835,0,0,0-14.019,2.864h0l-.069,22.612a4.808,4.808,0,0,0,4.72,4.808h0a4.808,4.808,0,0,0,4.884-4.705Z" transform="translate(-303.463 -155.778)"/><path class="g" d="M337.586,172.84a.563.563,0,1,1-.57-.57A.57.57,0,0,1,337.586,172.84Z" transform="translate(-308.855 -159.494)"/><path class="g" d="M338.422,171.862c-.076.076-.495-.275-1.092-.3s-1.051.288-1.12.206.041-.179.24-.316a1.444,1.444,0,0,1,1.758.076C338.395,171.684,338.457,171.828,338.422,171.862Z" transform="translate(-308.77 -159.155)"/><path class="g" d="M328.046,172.84a.563.563,0,1,1-.57-.57A.57.57,0,0,1,328.046,172.84Z" transform="translate(-305.868 -159.494)"/><path class="g" d="M328.707,172.032c-.069.076-.488-.275-1.092-.3s-1.051.282-1.113.206.041-.179.234-.323a1.469,1.469,0,0,1,1.765.082C328.679,171.854,328.741,172,328.707,172.032Z" transform="translate(-305.731 -159.208)"/><path class="g" d="M332.915,177.425a3.886,3.886,0,0,1,.982-.144c.158,0,.3-.041.33-.151a.851.851,0,0,0-.1-.495l-.433-1.271a22.913,22.913,0,0,1-.969-3.324,23.638,23.638,0,0,1,1.216,3.235l.412,1.284a1.01,1.01,0,0,1,.069.646.385.385,0,0,1-.254.234.916.916,0,0,1-.261,0A3.318,3.318,0,0,1,332.915,177.425Z" transform="translate(-307.687 -159.422)"/><path class="m" d="M330.795,190.129a10.715,10.715,0,0,1-5.825-1.909,5.637,5.637,0,0,0,5.742,3.008Z" transform="translate(-305.257 -164.488)"/><path class="m" d="M331.868,181.757a1.2,1.2,0,0,0-.687-.865.927.927,0,0,0-.776,0,.687.687,0,0,0-.357.687.776.776,0,0,0,.625.577,2.061,2.061,0,0,0,.893-.062.563.563,0,0,0,.234-.082.22.22,0,0,0,.1-.22" transform="translate(-306.845 -162.167)"/><path class="g" d="M330.475,179.85c.1,0,.089.687.646,1.216s1.25.474,1.25.57-.158.131-.453.131a1.607,1.607,0,0,1-1.539-1.456C330.358,180.015,330.433,179.843,330.475,179.85Z" transform="translate(-306.949 -161.867)"/><path class="g" d="M323.111,160.022c1.5,2.706,5.639,5.612,8.641,6.374-.337-.549-2.15-1.964-2.48-2.514,1.326,1.243,3.235,2.919,5.048,3.112a1,1,0,0,0,.632-.089,1.037,1.037,0,0,0,.343-.776,24.3,24.3,0,0,0,0-4.581,5.385,5.385,0,0,0-1.463-3.338,6.874,6.874,0,0,0-4.355-1.545,8.7,8.7,0,0,0-3.9.433,3.963,3.963,0,0,0-2.507,2.837" transform="translate(-304.662 -154.588)"/><path class="g" d="M321.756,161.327s1.333,5.3-2.061,8.778c0,0-.453,4.98-2.816,7.329a74.833,74.833,0,0,1-1.271-8.421c-.041-2.349-1.092-10.99,6.642-9.953Z" transform="translate(-302.304 -155.331)"/><path class="g" d="M312.373,165.235a4.121,4.121,0,0,0-.687-4.238,4.808,4.808,0,0,0-4.073-1.559,5.893,5.893,0,0,0-3.874,2.116,4.863,4.863,0,0,0-1.23,3.221,4.348,4.348,0,0,0,2.6,3.675,5.722,5.722,0,0,0,4.616-.117,8.462,8.462,0,0,0,3.489-3.125" transform="translate(-298.224 -155.467)"/><path class="h" d="M308.085,160.076,305.86,155.7v-.811l.749.405,2.274,4.4Z" transform="translate(-299.273 -154.052)"/><path class="h" d="M311.39,159.31v-5.2a.481.481,0,0,1,.495-.371.433.433,0,0,1,.405.392v5.282Z" transform="translate(-301.005 -153.691)"/><path class="n" d="M311.39,159.31v-5.2a.481.481,0,0,1,.495-.371.433.433,0,0,1,.405.392v5.282Z" transform="translate(-301.005 -153.691)"/><path class="h" d="M311.724,159.495l-.014-5.255h.337v5.289Z" transform="translate(-301.105 -153.848)"/><path class="i" d="M311.39,154.089h.9s-.041-.419-.405-.419a.481.481,0,0,0-.495.419Z" transform="translate(-301.005 -153.67)"/><path class="i" d="M305.854,155.741a.371.371,0,0,0,.282,0,.275.275,0,0,0,.131-.227s.233.062.323,0,0-.206,0-.206l-.529-.288-.22.124Z" transform="translate(-299.267 -154.092)"/><path class="g" d="M311.59,163.485a2.493,2.493,0,0,1,.323.811,5.262,5.262,0,0,1,.048,2.39,5.028,5.028,0,0,1-1.909,2.981,4.87,4.87,0,0,1-4.217.845,4.808,4.808,0,0,1-2.013-1.078,4.732,4.732,0,0,1-1.2-1.765,4.561,4.561,0,0,1,.1-3.531,5.907,5.907,0,0,1,1.449-1.9,3.055,3.055,0,0,1,.687-.515,7.068,7.068,0,0,1-.611.618,6.23,6.23,0,0,0-1.312,1.9,4.306,4.306,0,0,0,0,3.3,4.382,4.382,0,0,0,3,2.624,4.609,4.609,0,0,0,3.929-.762,4.87,4.87,0,0,0,1.855-2.747,5.393,5.393,0,0,0,.062-2.3C311.672,163.787,311.555,163.492,311.59,163.485Z" transform="translate(-298.161 -156.19)"/><path class="g" d="M328.864,166.223c.048,0-.124.44-.749.611a1.772,1.772,0,0,1-1.085-.076,3.366,3.366,0,0,1-1.1-.687,5.35,5.35,0,0,1-1.374-1.861,1.827,1.827,0,0,1-.247-.92,10.414,10.414,0,0,0,1.855,2.514,2.411,2.411,0,0,0,1.9.79,2.129,2.129,0,0,0,.8-.371Z" transform="translate(-305.05 -156.682)"/><path class="k" d="M320.548,175.047a2.582,2.582,0,0,0-1.408.055,1.813,1.813,0,0,0-1.051.9,1.882,1.882,0,0,0-.048,1.374,3.152,3.152,0,0,0,.762,1.2,2.06,2.06,0,0,0,.831.584,1.044,1.044,0,0,0,.975-.124" transform="translate(-303.054 -160.341)"/><path class="m" d="M320.653,178.166c.055,0-.158.3-.577.165a.907.907,0,0,1-.515-.474,2.06,2.06,0,0,1-.213-.776,1.23,1.23,0,0,1,.22-.817.79.79,0,0,1,.625-.343c.44,0,.563.309.515.316a.857.857,0,0,0-.495-.069.79.79,0,0,0-.508.886,1.326,1.326,0,0,0,.46,1.044C320.433,178.242,320.625,178.125,320.653,178.166Z" transform="translate(-303.495 -160.637)"/><path class="h" d="M318.783,180.362c.048.034-.2.3-.213.783a1.037,1.037,0,0,0,.3.735.907.907,0,0,0,.872.261.838.838,0,0,0,.625-.639,1.106,1.106,0,0,0-.11-.8c-.24-.426-.556-.584-.522-.632s.385,0,.735.5a1.3,1.3,0,0,1,.22,1,1.14,1.14,0,0,1-.865.914,1.188,1.188,0,0,1-1.2-.385,1.243,1.243,0,0,1-.3-.975C318.439,180.527,318.783,180.328,318.783,180.362Z" transform="translate(-303.17 -161.933)"/><path class="g" d="M314.862,167.895a3.826,3.826,0,0,1,.865-4.245,16.491,16.491,0,0,0-.742,2.061A17.063,17.063,0,0,0,314.862,167.895Z" transform="translate(-301.997 -156.795)"/></g><g transform="translate(176.649 175.632)"><path class="i" d="M331.52,269.44l.769-.79H351.3l.6.886Z" transform="translate(-249.048 -240.447)"/><path class="g" d="M231.35,272.42l24.178,111.156h2.823L233.857,272.42Z" transform="translate(-217.681 -241.628)"/><path class="g" d="M256.153,272.42l-24.8,111.156h2.425L258.351,272.42h-2.2" transform="translate(-217.681 -241.628)"/><path class="g" d="M238.13,411.75h17.426v-2.26H238.879Z" transform="translate(-219.804 -284.549)"/><path class="g" d="M440.57,272.42,464.748,383.9h2.823L443.077,272.42Z" transform="translate(-283.195 -241.628)"/><path class="g" d="M465.373,272.42,440.57,383.9h2.425L467.571,272.42h-2.2" transform="translate(-283.195 -241.628)"/><path class="g" d="M447.35,412.157h17.426V409.89H448.1Z" transform="translate(-285.318 -284.674)"/><path class="g" d="M418.255,227.611l-9.918,28.972H363.45l.33-1.5,18.154-.556,8.359-26.939Z" transform="translate(-259.046 -227.59)"/><path class="d" d="M414.232,246.632a2.058,2.058,0,0,0,1.14,2.6,1.973,1.973,0,0,0,2.2-1.7,2.061,2.061,0,0,0-1.133-2.6A1.986,1.986,0,0,0,414.232,246.632Z" transform="translate(-274.921 -233.005)"/><path class="d" d="M417.13,254.47l.927,2.418,9.183-4.417-.872-2.411Z" transform="translate(-275.855 -234.626)"/><path class="i" d="M418.18,254.931l.6,1.339,8.112-3.785-.446-1.655Z" transform="translate(-276.184 -234.867)"/><path class="d" d="M428.388,235.759a2.919,2.919,0,1,1-2.919-2.919,2.919,2.919,0,0,1,2.919,2.919Z" transform="translate(-277.552 -229.234)"/><path class="h" d="M425.265,233.65a2.425,2.425,0,0,0-1.765,2.363,2.61,2.61,0,0,0,1.848,2.335,2.012,2.012,0,0,0,1.415-.076,2.314,2.314,0,0,0,.969-1.065,2.892,2.892,0,0,0,.3-1.923,2.219,2.219,0,0,0-1.374-1.559,2.253,2.253,0,0,0-2.061.254" transform="translate(-277.85 -229.467)"/><path class="d" d="M402.048,254.506l2.8-1.236,1.944,1.532-1.415,3.434-3.6-1.449Z" transform="translate(-271.049 -235.631)"/><path class="h" d="M402.455,254.934l2.48-1.154,1.587,1.333-1.175,2.857L402.29,256.8Z" transform="translate(-271.208 -235.791)"/><rect class="g" width="196.183" height="1.896" transform="translate(0 28.993)"/><path class="o" d="M459.88,243.757a13.181,13.181,0,0,1-3.606-8.325,5.651,5.651,0,0,1,1.154-4.162,3.675,3.675,0,0,1,5.1-.1c1.374,1.374,1.374,3.579,1.037,5.495-.515,2.83-1.944,4.932-3.558,7.308" transform="translate(-288.108 -228.405)"/><path class="o" d="M466.056,246.871a9.87,9.87,0,0,1,3.737-5.632,4.231,4.231,0,0,1,3.077-.975A2.747,2.747,0,0,1,475,243.416c-.3,1.374-1.676,2.315-3.008,2.871a13.952,13.952,0,0,1-6.01.749" transform="translate(-291.152 -231.554)"/><path class="g" d="M461.469,253.129a59.947,59.947,0,0,1-.048-6.443,56.853,56.853,0,0,1,.316-6.436,59,59,0,0,1,.041,6.443A57.812,57.812,0,0,1,461.469,253.129Z" transform="translate(-289.704 -231.554)"/><path class="g" d="M470.906,244.33a6.657,6.657,0,0,1-1.291.968c-.824.556-1.985,1.284-3.3,2.061s-2.528,1.408-3.434,1.848a6.409,6.409,0,0,1-1.484.632,7.932,7.932,0,0,1,1.374-.859l3.359-1.93,3.345-1.951A7.666,7.666,0,0,1,470.906,244.33Z" transform="translate(-289.718 -232.832)"/><path class="i" d="M452.54,257.45l13.023.653-1.291,7.913h-10.44l-1.291-8.565" transform="translate(-286.943 -236.94)"/><path class="g" d="M459.4,254.113a8,8,0,0,1-2.693-.769,7.824,7.824,0,0,1-2.452-1.374,18.771,18.771,0,0,1,2.589,1.044,18.543,18.543,0,0,1,2.555,1.1Z" transform="translate(-287.482 -235.224)"/></g></g></svg>