<svg xmlns="http://www.w3.org/2000/svg" width="277.762" height="269.542" viewBox="0 0 277.762 269.542"><defs><style>.a{fill:#e0e0e0;}.b{fill:#fafafa;}.c{fill:#ebebeb;}.d{fill:#263238;}.e{fill:#dcebf5;}.f{fill:#bf3976;}.g{opacity:0.3;}.h{fill:#fff;}.i{fill:#455a64;}.j{fill:#f5f5f5;}.k{fill:#efd8de;}.l{fill:#b1d2eb;}.m{fill:#74a6cb;}.n{fill:#ffbe9d;}.o{fill:#eb996e;}.p{fill:#339ce9;}.q{opacity:0.6;}</style></defs><g transform="translate(-30.479 -44.58)"><g transform="translate(106.686 44.58)"><path class="a" d="M168.614,369.911a20.155,20.155,0,0,0-8.621-2.949,5.765,5.765,0,0,0-4.072.747.841.841,0,0,0-.42.747.878.878,0,0,0,.4.508,12.322,12.322,0,0,0,12.719.966" transform="translate(-153.26 -164.654)"/><path class="a" d="M170.554,363.289a42.615,42.615,0,0,1-5.566-4.9,14.106,14.106,0,0,1-3.489-6.45,2.6,2.6,0,0,1,.276-2.158c4.436,3.464,7.925,7.944,8.785,13.509" transform="translate(-155.45 -158.277)"/><path class="a" d="M176.152,363.724a20.116,20.116,0,0,1,.107-7.3,9.876,9.876,0,0,1,3.89-6.03,8.639,8.639,0,0,1-.1,5.729,27.954,27.954,0,0,1-3.859,8.157" transform="translate(-160.848 -158.504)"/><path class="a" d="M176.815,384.06a12.757,12.757,0,0,0-6.9,3.5,13.1,13.1,0,0,0-3.953,6.783c2.591-.157,4.788-1.983,6.381-4.035s2.7-4.292,4.449-6.206" transform="translate(-157.157 -171.047)"/><path class="a" d="M184.056,376.48a17.029,17.029,0,0,1,1.97-16.12,20.549,20.549,0,0,1-1.97,16.12" transform="translate(-163.456 -162.218)"/><path class="a" d="M186.821,396.986a12.317,12.317,0,0,0-11.784,6.783.9.9,0,0,0-.082.922.885.885,0,0,0,.784.232,10.247,10.247,0,0,0,6.08-3.137,57.981,57.981,0,0,1,5.051-4.806" transform="translate(-160.474 -175.853)"/><path class="a" d="M193.043,386.669a21.911,21.911,0,0,1-.22-12.261c.433-1.575,1.155-3.238,2.617-3.978a.515.515,0,0,1,.4-.069.521.521,0,0,1,.251.289,7.348,7.348,0,0,1,.627,3.52,21.579,21.579,0,0,1-.552,3.564c-.458,2.171-.7,4.512-1.882,6.388a13.172,13.172,0,0,0-.759,1.406c-.226.477-.226.627-.433,1.023" transform="translate(-166.878 -165.939)"/><path class="a" d="M217.618,391.982a15.8,15.8,0,0,1,2.767-12.995c.2-.257.464-.54.791-.508.5.05.627.709.627,1.211a23.474,23.474,0,0,1-4.185,12.292" transform="translate(-176.243 -168.967)"/><path class="a" d="M220.05,398.814a18.905,18.905,0,0,0,15.517-3.137,12.55,12.55,0,0,0-8.4-1.029,11.849,11.849,0,0,0-7.122,4.185" transform="translate(-177.307 -174.877)"/><path class="a" d="M221.9,392.077a17.977,17.977,0,0,1,14.08-8.157,8.661,8.661,0,0,1-4.606,5.1,25.846,25.846,0,0,1-6.758,1.977,4.747,4.747,0,0,0-2.717,1.073" transform="translate(-177.996 -170.995)"/><path class="a" d="M217.129,365.108a40.72,40.72,0,0,0,1.8-8.251,13.692,13.692,0,0,0-1.644-8.157,17.966,17.966,0,0,0-.238,16.691" transform="translate(-175.465 -157.874)"/><path class="a" d="M233,360.889c3.188-5.792,9.688-10.416,16.264-11.069-2.51,6.319-9.456,11.2-16.264,11.069" transform="translate(-182.131 -158.292)"/><path class="a" d="M229.76,368.7c4.75.728,8.785,3.765,13.24,5.6a5.986,5.986,0,0,0,2.993.571,2.346,2.346,0,0,0,1.468-4.148,6.47,6.47,0,0,0-2.177-1.318,24.144,24.144,0,0,0-15.116-.841" transform="translate(-180.924 -164.97)"/><path class="a" d="M225.37,374.446a5.625,5.625,0,0,1,2.3,1.587,24.811,24.811,0,0,0,10.04,5.158c.389.094.891.132,1.079-.213s-.044-.665-.257-.935a13.8,13.8,0,0,0-6.068-4.116c-2.315-.866-4.323-1.882-7.09-1.682" transform="translate(-179.289 -167.381)"/><path class="a" d="M220.411,342.194a19.025,19.025,0,0,0,14.57,4.957,1.01,1.01,0,0,0,.627-.238c.37-.4-.069-1.016-.5-1.349a16.786,16.786,0,0,0-14.733-3.37" transform="translate(-177.43 -155.259)"/><path class="a" d="M226.29,338a20.318,20.318,0,0,1,18.2-3,14.432,14.432,0,0,1-8.659,3.8,27.37,27.37,0,0,1-9.519-.8" transform="translate(-179.631 -152.416)"/><path class="a" d="M222.542,317.991c-.42-4.273-.144-7.649-.446-11.922,0-.345-.094-.753-.414-.878-.452-.176-.822.376-.966.835a13.7,13.7,0,0,0,1.82,11.922" transform="translate(-177.32 -141.653)"/><path class="a" d="M223.47,318.369a25.1,25.1,0,0,0,7.084-6.9c1.4-1.914,2.579-4.2,2.259-6.557a6.777,6.777,0,0,0-5.108,2.541,14.175,14.175,0,0,0-2.6,5.239c-.571,1.882-.966,3.815-1.631,5.647" transform="translate(-178.581 -141.561)"/><path class="a" d="M234.5,316.924a57.149,57.149,0,0,0,17.431-10.278c-2.083-.835-4.468-.333-6.551.5a20.663,20.663,0,0,0-10.974,9.732" transform="translate(-182.656 -142.048)"/><path class="a" d="M226.59,327.1a35.437,35.437,0,0,0,9.676.044,40.742,40.742,0,0,0,9.036-3,1.06,1.06,0,0,0,.627-.464.7.7,0,0,0-.22-.772,1.825,1.825,0,0,0-.772-.364,16.711,16.711,0,0,0-9.763.584A45.014,45.014,0,0,0,226.6,327.1" transform="translate(-179.743 -147.948)"/><path class="a" d="M196.353,334.318a17.12,17.12,0,0,1-.157-14.168,10.812,10.812,0,0,1,1.255,7.046c-.245,2.422-.979,4.907-1.029,7.341" transform="translate(-167.878 -147.239)"/><path class="a" d="M174.619,335.679a19.765,19.765,0,0,0-14.689,6.275,13.741,13.741,0,0,0,8.044-1.493,40.619,40.619,0,0,0,6.9-4.612" transform="translate(-154.91 -153.023)"/><path class="a" d="M165.741,332.385c-2.679-.22-5.258-.552-7.837.238a9.412,9.412,0,0,0-5.973,5.07,14.181,14.181,0,0,0,7.348-1.393,42.712,42.712,0,0,0,6.463-3.915" transform="translate(-151.93 -151.7)"/><path class="a" d="M178.518,330.239a24.613,24.613,0,0,0-7.7-3.84c-2.811-.653-6.061-.176-8.019,1.945,2.271,1.33,5.02,1.487,7.668,1.487s5.867,0,8.352.847" transform="translate(-155.979 -149.465)"/><path class="a" d="M185.093,322.88c-4.122-4.053-5.685-11.326-4.022-16.86a25.726,25.726,0,0,1,4.022,16.86" transform="translate(-162.542 -141.975)"/><path class="a" d="M205.94,306.7c.778-1.807,1.324-3.7,2.027-5.547a15.918,15.918,0,0,1,2.88-5.108,7.58,7.58,0,0,1,5.108-2.648,20.569,20.569,0,0,1-9.914,13.334" transform="translate(-172.05 -137.273)"/><path class="a" d="M196.341,314.1c-1.255-1.769-2.773-4.173-4.518-5.5a7.542,7.542,0,0,0-6.143-1.613,14.3,14.3,0,0,0,10.667,7.109" transform="translate(-164.503 -142.278)"/><path class="a" d="M202.019,306.95a30.314,30.314,0,0,1-2.033-6.588,10.246,10.246,0,0,1,1.029-6.7c2.265,4.279,2.993,8.872,1.117,13.334" transform="translate(-169.768 -137.37)"/><path class="a" d="M206,288.29c1.255-4.242,5.164-7.36,9.356-8.785a3.452,3.452,0,0,1,1.644-.245,1.418,1.418,0,0,1,1.2,1.01c.157.722-.439,1.368-1,1.845A31.819,31.819,0,0,1,206,288.29" transform="translate(-172.073 -132)"/><path class="a" d="M206.009,279.676a30.32,30.32,0,0,1,1.224-8.1,10.254,10.254,0,0,1,5.1-6.155c.427,2.761-.791,5.509-2.259,7.881s-3.244,4.624-4.129,7.272" transform="translate(-172.05 -126.85)"/><path class="a" d="M201.224,282.311c-1.054-3.093-1.167-7.021-3.018-9.713-1.293-1.882-3.363-3.137-4.48-5.158a7.824,7.824,0,0,0,.264,5.854,16.865,16.865,0,0,0,3.42,4.9c1.374,1.468,2.51,2.566,3.815,4.116" transform="translate(-167.335 -127.602)"/><path class="a" d="M205.9,381.526c-.082,0-.157-20.619-.163-46.05s.056-46.056.138-46.056.157,20.612.163,46.056S205.972,381.526,205.9,381.526Z" transform="translate(-171.976 -135.791)"/><path class="a" d="M223.981,337.77a4.561,4.561,0,0,1-.778.289l-2.133.722c-1.8.627-4.273,1.5-6.952,2.6s-5.164,2.064-6.588,3.3a4.945,4.945,0,0,0-1.324,1.751c-.2.489-.238.784-.27.778a.729.729,0,0,1,0-.22,3.139,3.139,0,0,1,.151-.6,4.669,4.669,0,0,1,1.293-1.882,11.547,11.547,0,0,1,2.855-1.776c1.142-.533,2.409-1.086,3.765-1.644,2.692-1.1,5.183-1.958,7-2.51.9-.282,1.65-.489,2.165-.627a4.258,4.258,0,0,1,.816-.182Z" transform="translate(-172.046 -153.803)"/><path class="a" d="M230.751,314.65a1.364,1.364,0,0,1-.22.232l-.627.628-2.472,2.24-8.22,7.323c-3.213,2.855-5.986,5.584-7.906,7.643-.96,1.029-1.719,1.882-2.24,2.472l-.6.678a1.3,1.3,0,0,1-.22.226,2.417,2.417,0,0,1,.176-.264c.125-.169.307-.408.552-.715.489-.627,1.255-1.493,2.171-2.541a105.131,105.131,0,0,1,7.862-7.718c3.219-2.855,6.149-5.415,8.283-7.26l2.51-2.171.7-.577a1.382,1.382,0,0,1,.251-.194Z" transform="translate(-172.911 -145.19)"/><path class="a" d="M220.145,331.641c-.088-.038.584-1.588,1.255-3.545s.991-3.608,1.073-3.6a12.034,12.034,0,0,1-.791,3.7,24.623,24.623,0,0,1-1,2.478A3.965,3.965,0,0,1,220.145,331.641Z" transform="translate(-177.339 -148.859)"/><path class="a" d="M198.911,346.822a3.545,3.545,0,0,1-.5-.571l-1.255-1.625c-1.067-1.374-2.51-3.275-4.185-5.352s-3.137-3.947-4.26-5.3l-1.3-1.6a4.241,4.241,0,0,1-.446-.628,3.281,3.281,0,0,1,.533.533c.333.358.8.885,1.368,1.544,1.142,1.311,2.686,3.137,4.336,5.239s3.1,4,4.122,5.415c.508.7.916,1.255,1.192,1.682A4.556,4.556,0,0,1,198.911,346.822Z" transform="translate(-164.984 -151.56)"/><path class="a" d="M198.494,343.972a7.254,7.254,0,0,1-1.657-3.1,8.859,8.859,0,0,1-.376-3.137h.132c-.056.238-.1.364-.125.358s0-.138,0-.383h.125a14.431,14.431,0,0,0,.533,3.037,23.452,23.452,0,0,0,1.368,3.225Z" transform="translate(-168.513 -153.78)"/><path class="a" d="M186.283,336.689a5.6,5.6,0,0,0-1.155-.671,7.731,7.731,0,0,0-3.206-.251,19.1,19.1,0,0,0-3.231.521,9.143,9.143,0,0,1-1.33.314,4.776,4.776,0,0,1,1.255-.521,14.9,14.9,0,0,1,3.263-.627,6.952,6.952,0,0,1,3.307.358A2.071,2.071,0,0,1,186.283,336.689Z" transform="translate(-161.403 -152.916)"/><path class="a" d="M182.207,333.881c0,.05-.671-.27-1.769-.627a17.857,17.857,0,0,0-8.923-.684c-1.142.207-1.832.42-1.845.37a1.72,1.72,0,0,1,.471-.2,11.453,11.453,0,0,1,1.337-.377,15.725,15.725,0,0,1,9.036.69,10.946,10.946,0,0,1,1.255.571A1.588,1.588,0,0,1,182.207,333.881Z" transform="translate(-158.539 -151.652)"/><path class="a" d="M204.58,319.132a38.118,38.118,0,0,1-1.286-4.48,36.666,36.666,0,0,1-1-4.562,36.351,36.351,0,0,1,1.293,4.486,35.686,35.686,0,0,1,1,4.555Z" transform="translate(-170.691 -143.491)"/><path class="a" d="M203.973,321.617a21.467,21.467,0,0,0-1.431-2.686,11.73,11.73,0,0,0-2.1-2.171,1.92,1.92,0,0,1,.809.42,6.5,6.5,0,0,1,1.537,1.581,5.9,5.9,0,0,1,1.186,2.855Z" transform="translate(-170.001 -145.976)"/><path class="a" d="M194.783,400.823s-.094-.5-.326-1.368a19.621,19.621,0,0,0-1.38-3.57,49.35,49.35,0,0,0-7.31-10.3c-1.631-1.882-3.213-3.62-4.562-5.308a37.02,37.02,0,0,1-3.257-4.7,22.7,22.7,0,0,1-1.65-3.495c-.151-.427-.257-.766-.32-1a1.819,1.819,0,0,1-.088-.351s.176.471.521,1.311a25.343,25.343,0,0,0,1.719,3.426,39.706,39.706,0,0,0,3.288,4.637c1.355,1.663,2.937,3.413,4.574,5.283a47.086,47.086,0,0,1,7.279,10.4,18.053,18.053,0,0,1,1.3,3.633c.094.445.157.8.182,1.035A1.977,1.977,0,0,1,194.783,400.823Z" transform="translate(-160.856 -166.081)"/><path class="a" d="M222.267,389.38a6.693,6.693,0,0,1-.853.477,18.772,18.772,0,0,0-2.215,1.468,25.241,25.241,0,0,0-2.905,2.648c-1.023,1.079-2.071,2.328-3.137,3.671-2.146,2.692-4.154,5.076-5.352,6.971a24.05,24.05,0,0,0-1.343,2.3,7.665,7.665,0,0,1-.471.86.6.6,0,0,1,.075-.238c.075-.151.151-.389.289-.671a21.009,21.009,0,0,1,1.255-2.353,76.181,76.181,0,0,1,5.29-7.053c1.073-1.343,2.133-2.6,3.175-3.671a23.556,23.556,0,0,1,2.98-2.629,15.3,15.3,0,0,1,2.284-1.4c.282-.144.515-.232.665-.295a.961.961,0,0,1,.264-.082Z" transform="translate(-172.069 -173.029)"/><path class="a" d="M225.757,398.878a12.909,12.909,0,0,1-1.807.264,23.847,23.847,0,0,0-4.279.841,12.857,12.857,0,0,0-3.828,2.008c-.885.684-1.3,1.255-1.343,1.217a1.468,1.468,0,0,1,.27-.414,6.8,6.8,0,0,1,.941-.966,11.609,11.609,0,0,1,3.871-2.127,19.376,19.376,0,0,1,4.348-.772A9.94,9.94,0,0,1,225.757,398.878Z" transform="translate(-175.239 -176.559)"/><path class="a" d="M215.336,401.119c-.094-.05.722-1.293,1.349-2.962s.734-3.137.841-3.137a3.1,3.1,0,0,1-.031.973,9.871,9.871,0,0,1-1.575,4.392C215.6,400.849,215.373,401.144,215.336,401.119Z" transform="translate(-175.548 -175.13)"/><path class="a" d="M227.53,363.85a1.136,1.136,0,0,1-.289.157l-.847.383c-.37.157-.822.364-1.33.627s-1.1.533-1.719.91l-.985.558c-.345.194-.678.427-1.042.627-.722.439-1.449.979-2.228,1.537a37.919,37.919,0,0,0-8.577,8.879c-.527.791-1.042,1.537-1.462,2.278-.207.364-.433.709-.627,1.06l-.527,1c-.351.627-.627,1.255-.847,1.751s-.433.973-.584,1.349l-.351.86a1.512,1.512,0,0,1-.144.295,1.1,1.1,0,0,1,.088-.314c.075-.232.176-.527.3-.879q.235-.7.54-1.38c.232-.527.471-1.136.809-1.782l.515-1.017c.176-.351.4-.7.627-1.073.414-.753.922-1.506,1.449-2.309a36.738,36.738,0,0,1,8.64-8.948c.784-.546,1.525-1.086,2.259-1.518.364-.226.709-.452,1.054-.627l1-.546c.627-.364,1.255-.627,1.757-.872s.973-.439,1.355-.584l.872-.333a1.718,1.718,0,0,1,.295-.094Z" transform="translate(-172.062 -163.518)"/><path class="a" d="M219.79,376.332a2.127,2.127,0,0,1,.709-1.054,4.467,4.467,0,0,1,2.855-1.1,7.837,7.837,0,0,1,3.006.59,4.167,4.167,0,0,1,1.136.552,6.584,6.584,0,0,1-1.2-.351,9.048,9.048,0,0,0-2.924-.489,4.674,4.674,0,0,0-2.729.954A9.325,9.325,0,0,0,219.79,376.332Z" transform="translate(-177.21 -167.366)"/><path class="a" d="M216.72,377.58a10.761,10.761,0,0,0,.816-2.635,11.068,11.068,0,0,0-.182-2.755,1.732,1.732,0,0,1,.333.766,5.553,5.553,0,0,1,.144,2.02,5.4,5.4,0,0,1-.627,1.933C216.971,377.367,216.751,377.6,216.72,377.58Z" transform="translate(-176.066 -166.625)"/><path class="a" d="M183.28,423.4c.446,7.881,2.817,15.894,6.469,24h15.887a69.093,69.093,0,0,0,6.086-24Z" transform="translate(-163.609 -185.702)"/><path class="b" d="M210.641,443.634c0,.082-5.233.151-11.683.151s-11.677-.069-11.677-.151,5.227-.144,11.677-.144S210.641,443.553,210.641,443.634Z" transform="translate(-165.099 -193.187)"/><path class="b" d="M210.924,448.184c0,.082-4.9.151-10.949.151S189,448.266,189,448.184s4.9-.144,10.949-.144S210.924,448.1,210.924,448.184Z" transform="translate(-165.74 -194.882)"/><path class="b" d="M193.911,431.65a44.5,44.5,0,0,1,0,7.316A44.507,44.507,0,0,1,193.911,431.65Z" transform="translate(-167.513 -188.776)"/><path class="b" d="M207.474,431.65a47.686,47.686,0,0,1,0,7.574A49.752,49.752,0,0,1,207.474,431.65Z" transform="translate(-172.568 -188.776)"/><path class="b" d="M220.211,431.54a51.829,51.829,0,0,1,0,7.73,49.677,49.677,0,0,1,0-7.73Z" transform="translate(-177.311 -188.735)"/><path class="b" d="M211.535,431.561c0,.082-6.13.144-13.7.144s-13.7-.063-13.7-.144,6.13-.151,13.7-.151S211.535,431.479,211.535,431.561Z" transform="translate(-163.929 -188.686)"/><rect class="a" width="59.923" height="99.19" transform="translate(36.92)"/><rect class="c" width="59.923" height="99.19" transform="translate(34.931)"/><rect class="b" width="54.822" height="95.168" transform="translate(37.479 2.008)"/><rect class="c" width="33.708" height="70.433" transform="translate(47.92 14.375)"/><path class="a" d="M228.3,124.573c-.082-6.582,5.835-13,12.355-13.924,3.106-.433,6.406.182,9.305-1.01,5.183-2.127,6.833-9.01,12.047-11.05l.238,50.907H228.3Z" transform="translate(-180.38 -64.7)"/></g><g transform="translate(32.688 306.071)"><path class="d" d="M306.321,461.489c0,.088-60.959.163-136.161.163S34,461.577,34,461.489s60.946-.169,136.161-.169S306.321,461.4,306.321,461.489Z" transform="translate(-34 -461.32)"/></g><g transform="translate(30.479 56.546)"><rect class="e" width="68.545" height="68.545" rx="9.43" transform="translate(209.067 161.799)"/><path class="f" d="M371.8,371.464s9.092-24.829,11.332-26.3,11.57-4.116,11.57-4.116l6.946,22.884,8.27-23.248s8.741,2.642,11.257,6.563,8.967,24.264,8.967,24.264l-13.8,5.308,1.763,8.352-34.881-.458,2.108-7.159Z" transform="translate(-157.632 -166.852)"/><g class="g" transform="translate(226.084 176.538)"><path d="M397.824,358.026A24.471,24.471,0,0,1,394.279,345l-3.489,1.337a26.742,26.742,0,0,0,4.079,13.139,4.173,4.173,0,0,0,1.449,1.556,1.594,1.594,0,0,0,1.958-.276C398.872,359.965,398.313,358.867,397.824,358.026Z" transform="translate(-390.79 -345)"/></g><g class="g" transform="translate(233.831 202.236)"><path d="M406.816,386.786a1.474,1.474,0,0,0-1.255-.8h0a2.083,2.083,0,1,0-.038,4.116,1.612,1.612,0,0,0,1.023-.565,2.165,2.165,0,0,0,.4-1.035A2.779,2.779,0,0,0,406.816,386.786Z" transform="translate(-403.137 -385.955)"/></g><g class="g" transform="translate(243.409 205.377)"><path d="M434.012,397.1a14.432,14.432,0,0,1-4.687,3.526,6.588,6.588,0,0,1-5.773,0c-.809-.452-1.6-1.148-2.51-1.042-.665.075-1.311.577-1.945.351a1.136,1.136,0,0,1-.684-.891,1.882,1.882,0,0,1,1.016-1.882,3.683,3.683,0,0,1,2.234-.314c.759.094,1.493.307,2.253.42,3.075.439,6.764-1.97,8.954-4.424l1.631-1.882-.816,4.524Z" transform="translate(-418.402 -390.96)"/></g><path class="d" d="M445.22,379.39a55.274,55.274,0,0,1-1.073,5.955,57.073,57.073,0,0,1-1.387,5.892,56.357,56.357,0,0,1,1.067-5.961A57.115,57.115,0,0,1,445.22,379.39Z" transform="translate(-184.067 -181.273)"/><path class="h" d="M438.707,347.24a1.825,1.825,0,0,1-.125.6,8.279,8.279,0,0,1-.628,1.544,9.261,9.261,0,0,1-9.224,4.85,8.156,8.156,0,0,1-1.625-.345,1.915,1.915,0,0,1-.565-.238c0-.063.835.251,2.215.351a9.494,9.494,0,0,0,9-4.737C438.443,348.068,438.644,347.221,438.707,347.24Z" transform="translate(-178.024 -169.296)"/><path class="h" d="M440.959,351a3.017,3.017,0,0,1-.289.665,10.784,10.784,0,0,1-1.079,1.656,12.022,12.022,0,0,1-11.671,4.392,10.36,10.36,0,0,1-1.882-.533,2.636,2.636,0,0,1-.628-.307c0-.063.966.364,2.6.628a12.342,12.342,0,0,0,11.445-4.317C440.469,351.877,440.9,350.935,440.959,351Z" transform="translate(-177.603 -170.695)"/><path class="h" d="M407.725,373.63a3.293,3.293,0,0,1-.722.307c-.471.169-1.148.439-1.97.791a34.726,34.726,0,0,0-11.426,7.919c-.627.627-1.111,1.18-1.437,1.562a3.766,3.766,0,0,1-.54.565,3.408,3.408,0,0,1,.439-.628c.3-.408.766-.973,1.368-1.644a31.3,31.3,0,0,1,5.3-4.631,30.59,30.59,0,0,1,6.212-3.313c.841-.326,1.531-.565,2.02-.7a4.2,4.2,0,0,1,.759-.232Z" transform="translate(-165.019 -179.127)"/><path class="h" d="M406.434,369.52a3.175,3.175,0,0,1-.715.257c-.471.144-1.142.358-1.97.627a55.944,55.944,0,0,0-6.306,2.554,56.908,56.908,0,0,0-5.93,3.326c-.734.477-1.318.866-1.726,1.142a3.427,3.427,0,0,1-.627.4,3.559,3.559,0,0,1,.527-.471c.383-.314.954-.734,1.669-1.255a44.115,44.115,0,0,1,12.3-5.9c.841-.251,1.525-.433,2-.533A3.93,3.93,0,0,1,406.434,369.52Z" transform="translate(-164.099 -177.596)"/><path class="h" d="M452.325,389.764a29.559,29.559,0,0,0-3.169-2.51,30.273,30.273,0,0,0-3.627-1.744,3.475,3.475,0,0,1,1.173.245,11.68,11.68,0,0,1,2.629,1.224,11.816,11.816,0,0,1,2.253,1.82A3.594,3.594,0,0,1,452.325,389.764Z" transform="translate(-185.099 -183.553)"/><path class="h" d="M378.222,387.816a15.163,15.163,0,0,1-1.707-3.689,15.41,15.41,0,0,1-.985-3.947c.094,0,.546,1.732,1.293,3.834S378.335,387.779,378.222,387.816Z" transform="translate(-159.021 -181.567)"/><path class="h" d="M398.906,408.757a16.539,16.539,0,0,1-3.6-1.675,16.314,16.314,0,0,1-3.294-2.234c.05-.075,1.55.872,3.451,1.945S398.937,408.706,398.906,408.757Z" transform="translate(-165.161 -190.755)"/><path class="d" d="M412.325,369.415a6.534,6.534,0,0,1-.414-1.016c-.245-.665-.59-1.631-1-2.824-.828-2.384-1.933-5.7-3.106-9.368s-2.177-7.021-2.88-9.45c-.351-1.211-.628-2.2-.809-2.88a7.417,7.417,0,0,1-.251-1.067,6.41,6.41,0,0,1,.377,1.035c.232.722.533,1.682.91,2.849.772,2.453,1.813,5.76,2.968,9.412s2.227,6.94,3.012,9.412c.37,1.161.678,2.127.9,2.849a8.216,8.216,0,0,1,.295,1.048Z" transform="translate(-169.575 -167.646)"/><path class="d" d="M420.242,385.292a3.471,3.471,0,0,1-1.481.169,3.552,3.552,0,0,1-1.481-.151,6.676,6.676,0,0,1,2.962,0Z" transform="translate(-174.575 -183.417)"/><path class="d" d="M430.919,341.07c.088,0-1.813,6.275-4.235,13.949s-4.468,13.886-4.555,13.854,1.813-6.275,4.242-13.955S430.831,341.026,430.919,341.07Z" transform="translate(-176.38 -166.998)"/><path class="d" d="M391.419,391.461c-.088,0-.86-2.968-1.732-6.676s-1.5-6.726-1.412-6.745.866,2.968,1.732,6.676S391.507,391.443,391.419,391.461Z" transform="translate(-163.766 -180.77)"/><rect class="h" width="68.545" height="68.545" rx="9.43" transform="translate(209.067 80.9)"/><path class="f" d="M363.582,198.42v-.684a5.986,5.986,0,0,1,.546-1.92A5.917,5.917,0,0,1,366.3,193.4a5.811,5.811,0,0,1,1.926-.809,11.076,11.076,0,0,1,2.366-.144l28.286-.056h27.64a5.9,5.9,0,0,1,2.717.791,6.061,6.061,0,0,1,3.018,4.719c.057,1.951,0,3.878,0,5.861v51.377a6.074,6.074,0,0,1-5.239,6.024,11.981,11.981,0,0,1-1.7.063H369.794a6.274,6.274,0,0,1-2.729-.515,6.055,6.055,0,0,1-3.42-4.035,10.128,10.128,0,0,1-.195-2.629V237.116c0-11.922.038-21.6.05-28.286,0-3.338,0-5.93.031-7.693v7.693c0,6.683.031,16.346.056,28.286v16.929a9.674,9.674,0,0,0,.195,2.56,5.8,5.8,0,0,0,3.269,3.853,6.056,6.056,0,0,0,2.617.483H425.35a11.119,11.119,0,0,0,1.656-.063,5.54,5.54,0,0,0,1.569-.452,5.767,5.767,0,0,0,3.388-5.246V203.8c0-1.97.031-3.934,0-5.835a5.817,5.817,0,0,0-2.874-4.5,5.647,5.647,0,0,0-2.585-.753c-.9-.031-1.832,0-2.736,0H398.877l-28.286-.05a10.492,10.492,0,0,0-2.347.132,5.647,5.647,0,0,0-1.882.778,5.841,5.841,0,0,0-2.133,2.366,6.375,6.375,0,0,0-.646,2.478Z" transform="translate(-154.515 -111.61)"/><path class="d" d="M394.041,214.508s-11.9,23.9-12.041,38.533a10.234,10.234,0,0,1,3.037,0c1.449.264,2.372,2.108,4.091,2.24s2.152-1.186,3.52-1.449,1.1,1.732,2.811,1.462,1.845-1.989,3.432-1.726.791,1.387,3.426,1.751,3.545-1.751,5.02-1.355.929,2,3.175,1.4,2.108-2.058,3.821-1.795,1.512,3.194,3.658,1.926,2.064-3.508,3.953-2.849,1.493,1.713,2.943.922a6.1,6.1,0,0,1,2.642-.791s-3.225-29.083-9.538-38.947l-12.374.389Z" transform="translate(-161.432 -119.597)"/><path class="i" d="M395.709,236.45a4.012,4.012,0,0,1,.063-.86c.063-.552.169-1.355.326-2.334.307-1.964.835-4.668,1.581-7.611s1.587-5.566,2.259-7.442c.333-.935.628-1.688.828-2.2a4.81,4.81,0,0,1,.358-.791,3.992,3.992,0,0,1-.238.835c-.188.584-.433,1.337-.728,2.234-.627,1.882-1.412,4.512-2.165,7.448s-1.3,5.616-1.669,7.567c-.169.929-.314,1.707-.427,2.315a4.622,4.622,0,0,1-.188.841Z" transform="translate(-166.538 -120.111)"/><path class="i" d="M400.138,264.62a49.952,49.952,0,0,1-.113,8.069,49.979,49.979,0,0,1,.113-8.069Z" transform="translate(-168.094 -138.518)"/><path class="i" d="M408.941,247.15a3.281,3.281,0,0,1-.056.759c-.075.552-.163,1.255-.264,2.058-.226,1.732-.527,4.129-.791,6.783s-.452,5.064-.577,6.808c-.056.816-.107,1.512-.151,2.064a3.137,3.137,0,0,1-.094.759,3.9,3.9,0,0,1,0-.766c0-.489,0-1.2.044-2.071.069-1.751.213-4.166.483-6.827s.627-5.057.885-6.789c.144-.86.27-1.562.37-2.039A3.409,3.409,0,0,1,408.941,247.15Z" transform="translate(-170.741 -132.01)"/><path class="i" d="M420.461,224.85a6.383,6.383,0,0,1-.307-1.5c-.138-.929-.295-2.228-.408-3.658s-.163-2.736-.176-3.677a6.9,6.9,0,0,1,.063-1.525A7.079,7.079,0,0,1,419.8,216c.075,1.06.169,2.3.27,3.664s.22,2.6.314,3.658A7.738,7.738,0,0,1,420.461,224.85Z" transform="translate(-175.422 -119.843)"/><path class="i" d="M422.853,228.309a18.76,18.76,0,0,1-.107-2.165c-.05-1.343-.163-3.188-.427-5.208s-.628-3.84-.935-5.145a18.186,18.186,0,0,1-.464-2.121,1.959,1.959,0,0,1,.226.546c.125.351.282.872.464,1.518a39.528,39.528,0,0,1,1.029,5.158,38.52,38.52,0,0,1,.339,5.246,14,14,0,0,1-.05,1.594A2.4,2.4,0,0,1,422.853,228.309Z" transform="translate(-175.931 -119.537)"/><path class="i" d="M421.88,257.25c.088,0,.27,2.886.4,6.444s.169,6.457.082,6.463a61.7,61.7,0,0,1-.408-6.45,62.558,62.558,0,0,1-.075-6.457Z" transform="translate(-176.27 -135.772)"/><path class="i" d="M432.527,265.557a3.721,3.721,0,0,1-.125-.828c-.069-.6-.144-1.349-.245-2.253-.195-1.882-.477-4.53-.847-7.423s-.766-5.509-1.085-7.4c-.157-.891-.289-1.638-.4-2.228a4.812,4.812,0,0,1-.119-.828,4.174,4.174,0,0,1,.245.8c.132.515.307,1.255.5,2.215.383,1.882.816,4.493,1.186,7.392s.627,5.534.753,7.448c.075.954.113,1.726.138,2.265A4.787,4.787,0,0,1,432.527,265.557Z" transform="translate(-179.205 -131.06)"/><path class="i" d="M439.633,227.819a14.173,14.173,0,0,1-.709-1.945c-.408-1.217-.973-2.893-1.619-4.737s-1.255-3.5-1.7-4.706a13.458,13.458,0,0,1-.665-1.97,12.762,12.762,0,0,1,.878,1.882c.5,1.186,1.142,2.836,1.795,4.687s1.18,3.539,1.531,4.775a11.825,11.825,0,0,1,.489,2.014Z" transform="translate(-181.154 -119.831)"/><path class="i" d="M439.505,252.606a1.883,1.883,0,0,1-.1-.383c-.063-.282-.138-.628-.232-1.1-.2-1-.477-2.372-.822-4.047-.7-3.42-1.7-8.157-2.93-13.309s-2.466-9.839-3.388-13.177c-.452-1.65-.828-3-1.1-3.984-.119-.439-.213-.8-.289-1.086a1.41,1.41,0,0,1-.075-.383,2.747,2.747,0,0,1,.138.364l.351,1.073c.295.929.709,2.278,1.192,3.953.979,3.351,2.246,8.007,3.482,13.177s2.209,9.908,2.842,13.34c.32,1.713.565,3.106.722,4.066l.169,1.117A1.512,1.512,0,0,1,439.505,252.606Z" transform="translate(-179.526 -120.085)"/><circle class="j" cx="0.496" cy="0.496" r="0.496" transform="translate(227.64 111.213)"/><path class="j" d="M423.978,245.146a.5.5,0,1,1-.147-.353A.5.5,0,0,1,423.978,245.146Z" transform="translate(-176.698 -131.078)"/><circle class="j" cx="0.496" cy="0.496" r="0.496" transform="translate(249.357 130.589)"/><path class="j" d="M439.411,267.2a.5.5,0,1,1-.143-.355.5.5,0,0,1,.143.355Z" transform="translate(-182.45 -139.293)"/><circle class="j" cx="0.496" cy="0.496" r="0.496" transform="translate(253.291 114.067)"/><path class="j" d="M428.074,219.908a.5.5,0,0,1-.5.5.5.5,0,1,1,.5-.5Z" transform="translate(-178.222 -121.672)"/><path class="j" d="M445.064,241.786a.5.5,0,1,1-.5-.5.5.5,0,0,1,.5.5Z" transform="translate(-184.551 -129.826)"/><circle class="j" cx="0.496" cy="0.496" r="0.496" transform="translate(261.304 124.258)"/><path class="j" d="M404.548,259.526a.5.5,0,0,1-.5.5.5.5,0,1,1,.5-.5Z" transform="translate(-169.46 -136.435)"/><circle class="j" cx="0.496" cy="0.496" r="0.496" transform="translate(239.116 102.077)"/><circle class="j" cx="0.496" cy="0.496" r="0.496" transform="translate(227.144 119.803)"/><circle class="j" cx="0.496" cy="0.496" r="0.496" transform="translate(227.64 131.059)"/><path class="j" d="M388.516,264.355a.5.5,0,1,1-.5-.446A.5.5,0,0,1,388.516,264.355Z" transform="translate(-163.486 -138.253)"/><circle class="j" cx="0.496" cy="0.496" r="0.496" transform="translate(239.656 110.215)"/><path class="j" d="M417.411,256.956a.5.5,0,1,1-.5-.5A.5.5,0,0,1,417.411,256.956Z" transform="translate(-174.254 -135.478)"/><circle class="j" cx="0.496" cy="0.496" r="0.496" transform="translate(239.116 130.564)"/><path class="j" d="M404.366,224.568a.5.5,0,0,1,0-1" transform="translate(-169.579 -123.225)"/><path class="j" d="M407.087,269.281a.5.5,0,0,1,.075-.991" transform="translate(-170.606 -139.884)"/><path class="j" d="M402.287,245.641a.5.5,0,0,1-.458-.533.5.5,0,0,1,.533-.458" transform="translate(-168.818 -131.078)"/><path class="j" d="M423.471,229.541a.5.5,0,0,1-.113-.991" transform="translate(-176.693 -125.08)"/><path class="j" d="M439.592,227.632a.5.5,0,0,1-.376-.922" transform="translate(-182.631 -124.395)"/><path class="j" d="M432.1,260.021a.5.5,0,0,1-.113-.991" transform="translate(-179.908 -136.435)"/><path class="i" d="M402.246,239.611a5.107,5.107,0,0,1,0-.979c0-.627.063-1.537.126-2.66.126-2.246.364-5.346.709-8.785s.747-6.5,1.073-8.728c.163-1.111.307-2.008.414-2.629a7.053,7.053,0,0,1,.2-.96,4.739,4.739,0,0,1-.075.979c-.075.684-.182,1.569-.307,2.642-.27,2.234-.628,5.315-.979,8.728s-.628,6.507-.8,8.747c-.094,1.073-.169,1.97-.232,2.654a5.985,5.985,0,0,1-.125.991Z" transform="translate(-168.965 -119.984)"/><rect class="k" width="68.545" height="68.545" rx="9.43" transform="translate(209.067)"/><path class="e" d="M394.017,77.22s-3.137,21.372-3.137,22.714,2.447,11.847,2.447,11.847l-2.447,16.942h33.839l-2.773-16.942s3.043-12.411,3.288-14.564S423.49,78.1,423.49,78.1l-2.246-.885s-4.336,16.6-12.273,16.521c-6.475-.056-11.991-11.345-12.895-16.521Z" transform="translate(-164.74 -68.705)"/><g transform="translate(234.95 29.869)"><path class="l" d="M411.189,111.97a2.51,2.51,0,0,0-2.6,1.092c-.182.3-.295.627-.489.929a6.772,6.772,0,0,0-.5.722.722.722,0,0,0,.075.822c.358.339.954,0,1.431.088a3.943,3.943,0,0,1,.759.389,1.669,1.669,0,0,0,1.751-.389,4.882,4.882,0,0,0,1.029-1.581,12.1,12.1,0,0,1-1.255.678.659.659,0,0,1-.59.05c-.176-.1-.163-.439.044-.446a1.255,1.255,0,0,1-.784.132c-.264-.075-.464-.4-.314-.627s.4-.182.59-.289c.527-.282,1-1.487.86-1.575" transform="translate(-405.881 -111.501)"/><path class="l" d="M422.159,133.482a2.454,2.454,0,0,0,2.052,1.933c.351.044.7,0,1.054.069a5.929,5.929,0,0,0,.86.163.715.715,0,0,0,.722-.4c.163-.464-.4-.866-.5-1.349a3.855,3.855,0,0,1,.044-.847,1.682,1.682,0,0,0-1.067-1.443,4.9,4.9,0,0,0-1.882-.295,11.758,11.758,0,0,1,1.129.872.684.684,0,0,1,.289.515c0,.2-.339.333-.427.144a1.3,1.3,0,0,1,.439.665c.038.264-.176.584-.439.533s-.326-.282-.5-.414a2.183,2.183,0,0,0-1.788-.151" transform="translate(-411.335 -118.726)"/><path class="l" d="M416.113,112a2.177,2.177,0,0,0-.985-.094,1.255,1.255,0,0,0-.841.489.91.91,0,0,0-.075.947c.126.238.389.446.333.709a1.966,1.966,0,0,1-.132.289.226.226,0,0,0,.05.289c.107.063.238-.031.326-.119l.948-.916a2.115,2.115,0,0,0,.571-.759.709.709,0,0,0-.238-.853" transform="translate(-408.345 -111.49)"/><path class="l" d="M421.818,111.966c-.364-.157-.295-.276-.628-.483a1.2,1.2,0,0,0-1.136-.151,1.569,1.569,0,0,0-.627,1.18c-.126.627-.251,1.305-.383,1.958a2.146,2.146,0,0,0,0,1.255,1.393,1.393,0,0,0,1.337.747,3.137,3.137,0,0,0,1.5-.571,1.945,1.945,0,0,0,.866-.979.791.791,0,0,0-.54-1.029,1.506,1.506,0,0,0-.847.32.747.747,0,0,1-.86,0c-.251-.238-.094-.7.182-.9s.628-.289.941-.477a.7.7,0,0,0,.364-.878" transform="translate(-410.147 -111.253)"/><path class="l" d="M407.951,121.565c-.213-.282-.439-.295-.784-.5a1.2,1.2,0,0,0-1.136-.151,1.544,1.544,0,0,0-.627,1.18c-.132.627-.257,1.305-.389,1.958a2.146,2.146,0,0,0,0,1.255,1.4,1.4,0,0,0,1.336.747,3.137,3.137,0,0,0,1.5-.571,1.957,1.957,0,0,0,.866-.966.8.8,0,0,0-.546-1.029,1.474,1.474,0,0,0-.847.32.688.688,0,0,1-.853,0,.666.666,0,0,1,.176-.91,9.4,9.4,0,0,1,.941-.471.7.7,0,0,0,.364-.878" transform="translate(-404.921 -114.822)"/><path class="l" d="M428.256,119.6c-.389.088-.4-.05-.8,0a1.217,1.217,0,0,0-1,.558,1.575,1.575,0,0,0,.188,1.324c.289.627.577,1.2.86,1.807a2.153,2.153,0,0,0,.747.991,1.374,1.374,0,0,0,1.512-.195,3.037,3.037,0,0,0,.866-1.349,1.926,1.926,0,0,0,.119-1.293.791.791,0,0,0-1.048-.5,1.487,1.487,0,0,0-.489.759c-.126.282-.364.571-.671.533s-.489-.5-.389-.835a9.29,9.29,0,0,1,.471-.935.722.722,0,0,0-.232-.929" transform="translate(-412.915 -114.34)"/><path class="l" d="M429.811,113.059a3.193,3.193,0,0,1-.91-.063,2.58,2.58,0,0,0-.9,0,.891.891,0,0,0-.671.558,2.446,2.446,0,0,0,.031.853c0,.22-.031.439-.038.627a.879.879,0,0,0,.176.627,1.142,1.142,0,0,0,.678.3.95.95,0,0,0,1.412-.74c.2-.627.408-1.311.628-1.97Z" transform="translate(-413.259 -111.888)"/><path class="l" d="M407.334,130.789a2.768,2.768,0,0,1-.753-.05,2.058,2.058,0,0,0-.759,0,.734.734,0,0,0-.558.458,2.292,2.292,0,0,0,0,.715v.54a.74.74,0,0,0,.144.515.991.991,0,0,0,.565.251,1.086,1.086,0,0,0,.91-.1,1.029,1.029,0,0,0,.264-.5l.508-1.644Z" transform="translate(-405.038 -118.499)"/><path class="l" d="M413.361,129.021a2.008,2.008,0,0,0-2.309.063,1.839,1.839,0,0,0-.452,2.146c.132.276.333.515.483.784a6.942,6.942,0,0,0,.8,1.65,1.882,1.882,0,0,0,2.328.056,5.327,5.327,0,0,0,1.537-1.983,1.255,1.255,0,0,0-.351-1.882,1.625,1.625,0,0,0-.565-.427.533.533,0,0,0-.628.169c-.169.27.031.627.119.9a1.161,1.161,0,0,1-.715,1.406.96.96,0,0,1-1.2-.885c.038-.772,1.073-1.255.96-2.033" transform="translate(-406.973 -117.748)"/><path class="l" d="M422.374,125.583a2.723,2.723,0,0,1-1.744.295c-.276-.05-.59-.2-.627-.483s.207-.389.376-.546a1.493,1.493,0,0,0,.5-1.1,1.035,1.035,0,0,0-.678-.954.791.791,0,0,0-.979.527,1.882,1.882,0,0,0,.144.885.747.747,0,0,1-.195.828.565.565,0,0,1-.659-.107,1.343,1.343,0,0,1-.351-.627,2.6,2.6,0,0,1,.282-2.554,3.307,3.307,0,0,1,1.939-.784,1,1,0,0,1,1.362.8,2.19,2.19,0,0,1,.194,1.65c-.119.276-.364.521-.351.828,0,.527.8.816.759,1.343" transform="translate(-409.775 -114.843)"/><path class="l" d="M412.147,122.789a1.519,1.519,0,0,1,.571.7,4.224,4.224,0,0,1,.194.8,1.042,1.042,0,0,0,.527.759.885.885,0,0,0,1-.364,2.554,2.554,0,0,0,.376-1.073,1.707,1.707,0,0,0-.082-1.224,1.255,1.255,0,0,0-.96-.489,2.667,2.667,0,0,0-1.462.27.583.583,0,0,0-.314.282.251.251,0,0,0,.151.345" transform="translate(-407.548 -115.212)"/><path class="l" d="M422.242,132.735a.54.54,0,0,1,.383-.477,4.358,4.358,0,0,1,.628-.119.684.684,0,0,0,.527-.339.628.628,0,0,0-.22-.684,1.883,1.883,0,0,0-.715-.282,1.142,1.142,0,0,0-.828,0,.835.835,0,0,0-.358.627,1.807,1.807,0,0,0,.138,1,.433.433,0,0,0,.182.226c.088.038.22,0,.238-.094" transform="translate(-411.149 -118.519)"/></g><rect class="e" width="68.545" height="68.545" rx="9.43" transform="translate(0.151 162.201)"/><path class="f" d="M54.87,357.711l5.9,12.411S49.443,381.147,50.848,384l25.042-11.376L71.6,365.5,67.213,352.39Z" transform="translate(-38.022 -171.215)"/><path class="d" d="M76.035,383.722l-1.286-2.152L50.987,393.134a2.3,2.3,0,0,0-.132,1.726Z" transform="translate(-38.029 -182.085)"/><path class="d" d="M66,381.433c.056.125.7-.1,1.487,0s1.349.5,1.437.4-.414-.715-1.368-.841S65.915,381.333,66,381.433Z" transform="translate(-43.708 -181.86)"/><path class="d" d="M62.559,385.261c0,.132.627.1,1.318.433s1.023.828,1.148.766-.119-.8-.941-1.192S62.508,385.141,62.559,385.261Z" transform="translate(-42.429 -183.385)"/><path class="d" d="M61.3,390.5c.125,0,0-.722-.627-1.255s-1.324-.54-1.33-.408.521.32,1.023.766S61.172,390.544,61.3,390.5Z" transform="translate(-41.231 -184.766)"/><path class="d" d="M64.178,376.065c.107.088.627-.339,1.311-.627s1.362-.295,1.38-.427-.709-.339-1.55,0S64.059,376,64.178,376.065Z" transform="translate(-43.026 -179.573)"/><path class="d" d="M63.793,374.209a1.155,1.155,0,0,1-.351-.439,2.667,2.667,0,0,1-.314-1.512,2.63,2.63,0,0,1,.094-.515,1.067,1.067,0,0,1,.314-.527.515.515,0,0,1,.722.05.96.96,0,0,1,.107.7c-.044.42-.094.86-.144,1.311l-.038.345v.176a.339.339,0,0,1-.138.27.377.377,0,0,1-.295.038l-.176-.038-.364-.082a9.413,9.413,0,0,1-1.368-.452c-.213-.088-.42-.188-.627-.289a1.549,1.549,0,0,1-.577-.408.533.533,0,0,1-.119-.408.477.477,0,0,1,.245-.339,1.016,1.016,0,0,1,.627-.082,2.955,2.955,0,0,1,1.023.37,2.861,2.861,0,0,1,1.073,1.1,1.173,1.173,0,0,1,.188.533,5.245,5.245,0,0,1-.295-.464,3.031,3.031,0,0,0-1.079-.966,2.711,2.711,0,0,0-.947-.3.735.735,0,0,0-.471.063.188.188,0,0,0-.038.307,1.436,1.436,0,0,0,.483.32c.195.094.4.182.627.27a10.227,10.227,0,0,0,1.324.433l.345.075.176.038h.063v.044c0-.019-.056-.031,0-.031a.338.338,0,0,0,0-.05v-.169l.038-.345c.056-.452.113-.891.163-1.311a.747.747,0,0,0,0-.489c-.056-.094-.22-.088-.333,0a1.449,1.449,0,0,0-.4.853,2.836,2.836,0,0,0,.2,1.431,4.8,4.8,0,0,1,.264.489Z" transform="translate(-41.668 -178.182)"/><path class="h" d="M74.648,360.728a2.539,2.539,0,0,1-2.152.471,2.207,2.207,0,0,0-2.077.628,7.386,7.386,0,0,1-.383.734c-.333.408-.935.414-1.456.471a4.655,4.655,0,0,0-2.328.935c-.138.107-.282.251-.264.42s.226.3.42.326c.759.094,1.406-.627,2.171-.678.627,0,1.255.433,1.8.22s.791-1.016,1.374-1.255a2.7,2.7,0,0,1,1.161.05,2.566,2.566,0,0,0,2.19-1.01l-.458-1.349" transform="translate(-43.707 -174.307)"/><path class="h" d="M65.52,375.365a1.462,1.462,0,0,1,1.531-.5c.358.1.772.333,1.06.107s.182-.759.446-1.029.508-.195.74-.339c.627-.351.389-1.38.947-1.807.351-.27.885-.176,1.255-.427a1.951,1.951,0,0,0,.5-.627,1.01,1.01,0,0,1,.627-.515c.27-.05.59.213.489.471-.044.132-.176.207-.289.289a2.027,2.027,0,0,0-.791,1.255c-.088.477,0,1.048-.389,1.368s-.784.251-.985.584,0,.816-.245,1.1-.766.151-1.1.351-.376.489-.627.671a1.092,1.092,0,0,1-.878.094,5.325,5.325,0,0,0-.885-.207.791.791,0,0,0-.766.383" transform="translate(-43.533 -177.857)"/><path class="h" d="M80.179,377.053c-.056-.314-.508-.383-.766-.194a1.726,1.726,0,0,0-.477.791,1.1,1.1,0,0,1-.627.684,4.45,4.45,0,0,0-.59.082c-.3.132-.389.533-.678.684s-.715-.063-1.054.05-.527.6-.847.841c-.489.376-1.255.125-1.776.4s-.747.991-1.374,1.155a3.246,3.246,0,0,1-.954,0c-.314,0-.69.144-.747.458a.571.571,0,0,0,.546.584,1.425,1.425,0,0,0,.841-.27,2.353,2.353,0,0,1,.816-.376c.333-.05.678.063,1.01,0s.778-.464,1.211-.445.728.295,1.035.119.282-.427.477-.577c.314-.245.809-.031,1.148-.238a1.739,1.739,0,0,0,.414-.489,2.391,2.391,0,0,1,.671-.5,10.353,10.353,0,0,1,2.7-1.224" transform="translate(-45.31 -180.291)"/><path class="h" d="M53.6,392.645a.452.452,0,0,1,.565-.276,2.133,2.133,0,0,1,.627.351.747.747,0,0,0,.659.138c.333-.125.414-.627.734-.759s.7.094,1.054.069a1.381,1.381,0,0,0,.715-.339l1.192-.872a1.883,1.883,0,0,1,.772-.4.627.627,0,0,1,.709.376.709.709,0,0,1-.427.759,9.334,9.334,0,0,0-.872.376c-.364.232-.627.628-1,.8s-.772,0-1.142.132-.671.489-1.048.627c-.251.113-.54.132-.784.251a2.767,2.767,0,0,0-.69.627,8.946,8.946,0,0,1-3.589,1.914,10.329,10.329,0,0,1,2.673-3.953" transform="translate(-38.15 -185.43)"/><path class="h" d="M59.049,363.09a.991.991,0,0,0,1.324-.627,1.55,1.55,0,0,1,.188-.627.784.784,0,0,1,.7-.163,1.167,1.167,0,0,0,.734-.044c.389-.226.4-.866.809-1.029.213-.082.458,0,.678-.063.433-.125.508-.722.853-1.016a2.755,2.755,0,0,1,.684-.326c.232-.113.458-.32.439-.571a.489.489,0,0,0-.376-.408.934.934,0,0,0-.584.05c-.772.276-1.374,1.048-2.2,1.06-.32,0-.671-.1-.941.069s-.345.558-.627.772c-.414.37-1.142.113-1.562.471-.157.132-.276.345-.477.351a1.328,1.328,0,0,1-.364-.107c-.125,0-.295.063-.257.188" transform="translate(-40.758 -173.375)"/><path class="f" d="M87.15,364.383,93.041,376.8s-11.294,11.025-9.92,13.88L108.163,379.3l-4.3-7.09L99.473,359.1Z" transform="translate(-50.047 -173.715)"/><path class="d" d="M108.305,390.376l-1.3-2.146-23.75,11.577a2.3,2.3,0,0,0-.132,1.726Z" transform="translate(-50.051 -184.566)"/><path class="d" d="M98.266,388.078c.056.119.7-.1,1.487,0s1.349.489,1.437.389-.414-.728-1.368-.86S98.185,387.977,98.266,388.078Z" transform="translate(-55.729 -184.326)"/><path class="d" d="M94.838,391.885c0,.132.627.1,1.311.433s1.029.828,1.148.766-.119-.8-.941-1.192S94.782,391.791,94.838,391.885Z" transform="translate(-54.454 -185.855)"/><path class="d" d="M93.571,397.159c.126,0,0-.722-.627-1.255s-1.324-.54-1.324-.414.515.326,1.017.772S93.446,397.2,93.571,397.159Z" transform="translate(-53.256 -187.246)"/><path class="d" d="M96.451,382.722c.107.088.627-.339,1.311-.628s1.368-.295,1.38-.433-.7-.333-1.55,0S96.351,382.652,96.451,382.722Z" transform="translate(-55.05 -182.051)"/><path class="d" d="M96.049,380.869a1.154,1.154,0,0,1-.351-.439,2.635,2.635,0,0,1-.213-2.027,1.01,1.01,0,0,1,.307-.527.515.515,0,0,1,.722.05.916.916,0,0,1,.107.7c-.044.427-.094.866-.144,1.318l-.038.345v.176a.37.37,0,0,1-.144.27.408.408,0,0,1-.295.038l-.176-.038-.358-.082a9.269,9.269,0,0,1-1.374-.452c-.213-.088-.42-.188-.627-.289a1.682,1.682,0,0,1-.577-.408.54.54,0,0,1-.119-.408.489.489,0,0,1,.245-.339,1.016,1.016,0,0,1,.627-.082,2.906,2.906,0,0,1,1.023.37,2.818,2.818,0,0,1,1.073,1.1,1.092,1.092,0,0,1,.188.527s-.1-.169-.295-.464a3.024,3.024,0,0,0-1.079-.96,2.711,2.711,0,0,0-.947-.3.784.784,0,0,0-.471.056.188.188,0,0,0,0,.314,1.311,1.311,0,0,0,.477.314,5.871,5.871,0,0,0,.627.276,10.226,10.226,0,0,0,1.324.433l.345.075.176.038h.063v.044c0-.019-.05-.031-.031-.031a.339.339,0,0,0,0-.05v-.169l.038-.345c.056-.452.113-.891.163-1.311a.747.747,0,0,0,0-.489c-.056-.094-.22-.088-.326,0a1.374,1.374,0,0,0-.345.847,2.773,2.773,0,0,0,.195,1.431,4.8,4.8,0,0,1,.213.5Z" transform="translate(-53.682 -180.663)"/><path class="h" d="M106.924,367.381a2.539,2.539,0,0,1-2.159.477,2.207,2.207,0,0,0-2.077.627,6.85,6.85,0,0,1-.383.74c-.333.408-.929.408-1.449.471a4.655,4.655,0,0,0-2.334.935c-.138.107-.282.245-.264.42s.226.3.42.326c.766.094,1.406-.628,2.177-.678.627,0,1.224.433,1.8.22s.784-1.016,1.368-1.255a2.73,2.73,0,0,1,1.167.05,2.554,2.554,0,0,0,2.184-1.01l-.452-1.355" transform="translate(-55.729 -176.788)"/><path class="h" d="M97.79,382.025a1.475,1.475,0,0,1,1.531-.508c.358.107.772.339,1.067.113s.176-.759.446-1.035.5-.195.734-.333c.627-.351.4-1.38.947-1.807.351-.27.885-.176,1.255-.427a2.058,2.058,0,0,0,.508-.627.985.985,0,0,1,.627-.515c.27-.05.59.213.5.471a.766.766,0,0,1-.295.289,2.014,2.014,0,0,0-.791,1.255c-.082.477,0,1.048-.389,1.368s-.784.251-.985.584,0,.816-.238,1.1-.766.151-1.111.351-.376.489-.627.671a1.079,1.079,0,0,1-.872.094,5.652,5.652,0,0,0-.885-.207.778.778,0,0,0-.766.383" transform="translate(-55.555 -180.338)"/><path class="h" d="M112.452,383.712c-.056-.314-.508-.383-.766-.2a1.776,1.776,0,0,0-.477.8,1.079,1.079,0,0,1-.627.684,3.6,3.6,0,0,0-.59.082c-.295.132-.389.533-.678.678s-.709-.056-1.054.05-.527.627-.847.847c-.489.376-1.255.126-1.776.4s-.791,1-1.374,1.161a3.765,3.765,0,0,1-.954,0c-.314,0-.69.138-.74.458a.565.565,0,0,0,.546.584,1.487,1.487,0,0,0,.841-.27,2.379,2.379,0,0,1,.809-.376c.333-.05.678.063,1.01,0,.427-.088.778-.464,1.211-.445s.728.295,1.035.119.282-.427.483-.583c.307-.238.8,0,1.148-.232a1.97,1.97,0,0,0,.414-.489,2.3,2.3,0,0,1,.665-.5,10.54,10.54,0,0,1,2.7-1.217" transform="translate(-57.335 -182.771)"/><path class="h" d="M85.872,399.3a.452.452,0,0,1,.565-.276,2.178,2.178,0,0,1,.627.345.734.734,0,0,0,.659.144c.339-.126.414-.628.74-.759s.7.094,1.048.069a1.431,1.431,0,0,0,.715-.339l1.2-.872a1.882,1.882,0,0,1,.766-.4.627.627,0,0,1,.715.37.728.728,0,0,1-.433.766,9.192,9.192,0,0,0-.866.377c-.364.232-.627.627-1.01.8s-.772,0-1.142.132-.671.489-1.048.659c-.251.113-.54.132-.784.251a2.767,2.767,0,0,0-.69.627,8.967,8.967,0,0,1-3.583,1.914,10.316,10.316,0,0,1,2.667-3.953" transform="translate(-50.175 -187.91)"/><path class="h" d="M91.341,369.7a1,1,0,0,0,1.33-.627,1.437,1.437,0,0,1,.182-.628.784.784,0,0,1,.7-.163,1.186,1.186,0,0,0,.74-.044c.383-.226.389-.872.8-1.029.213-.082.458,0,.678-.063.433-.125.508-.722.853-1.017a2.881,2.881,0,0,1,.684-.333c.232-.107.464-.314.439-.565a.5.5,0,0,0-.376-.414.96.96,0,0,0-.577.056c-.778.276-1.38,1.048-2.2,1.06-.32,0-.665-.1-.941.069s-.345.558-.59.772c-.42.37-1.148.107-1.569.471-.151.132-.27.345-.477.351s-.238-.082-.364-.107-.295.063-.251.182" transform="translate(-52.801 -175.837)"/><path class="k" d="M8.587,0h51.37a8.587,8.587,0,0,1,8.587,8.587v51.37a8.587,8.587,0,0,1-8.587,8.587H8.587A8.587,8.587,0,0,1,0,59.958V8.587A8.587,8.587,0,0,1,8.587,0Z" transform="translate(0.151 81.176)"/><path class="m" d="M53.409,216.186s-8.785,20.349-8.377,31.373l22.934,6.9,3.915-7.448,3.319,7.448s17.72-4.323,22.526-8.653c0,0-4.693-23.787-8.358-29.56,0,0,2.284-4.806.515-5.02s-4.656.238-6.814,0-2.886.345-5.528-.069-2.422,2.955-5.647,2.234-3.25-1.412-6.607-2.265-5.258,1.82-7.41,1.1a32.182,32.182,0,0,0-4.712-1,2.347,2.347,0,0,0-2.7,1.795.835.835,0,0,0,.627,1.092A3.765,3.765,0,0,1,53.409,216.186Z" transform="translate(-35.895 -118.527)"/><path class="d" d="M106.927,211.91a4.355,4.355,0,0,1-.5,2.61,4.254,4.254,0,0,1-1.682,2.052,19.549,19.549,0,0,0,1.387-2.19,19.947,19.947,0,0,0,.791-2.472Z" transform="translate(-58.147 -118.882)"/><path class="b" d="M81.957,233.04a4.394,4.394,0,0,1-.364-.4l-.941-1.111c-.828-.985-1.945-2.334-3.275-3.934h.22l-4.449,5.547v-.207l.113.151,4.342,5.647h-.226c1.33-1.663,2.447-3.068,3.269-4.1.383-.471.7-.86.947-1.161a4.443,4.443,0,0,1,.364-.414,2.308,2.308,0,0,1-.276.42l-.872,1.155L77.6,238.888l-.113.144-.113-.144-4.392-5.6-.113-.151-.082-.1.082-.1,4.486-5.515.113-.138.107.138,3.231,4.079.872,1.129a2.19,2.19,0,0,1,.276.414Z" transform="translate(-46.241 -124.607)"/><path class="b" d="M108.622,227.431a4.392,4.392,0,0,1-.364-.4l-.941-1.1-3.275-3.94h.22l-4.474,5.541v-.207l.113.151,4.342,5.647h-.226c1.33-1.663,2.447-3.068,3.269-4.1l.947-1.161a4.443,4.443,0,0,1,.364-.414,2.31,2.31,0,0,1-.276.42l-.872,1.18-3.206,4.254-.113.144-.113-.144-4.392-5.6-.113-.151-.082-.1.082-.1c1.644-2.014,3.175-3.9,4.486-5.515l.113-.138.107.138,3.213,4.085.872,1.136A2.065,2.065,0,0,1,108.622,227.431Z" transform="translate(-56.166 -122.525)"/><path class="b" d="M94.41,211.91a29.2,29.2,0,0,1,2.836,3.388H97l.038-.044.069-.088.138-.182.27-.345.515-.627.891-1.086a5.366,5.366,0,0,1,.878-.954,4.975,4.975,0,0,1-.7,1.092l-.835,1.129c-.163.22-.326.439-.5.665l-.264.345-.138.176-.069.094-.038.044H97a30.454,30.454,0,0,1-2.585-3.608Z" transform="translate(-54.295 -118.882)"/><path class="b" d="M65.135,216.844a5.735,5.735,0,0,1-.947-1.01c-.552-.627-1.305-1.562-2.115-2.585l-.188-.238h.27c-.627,1.06-1.2,2-1.638,2.667a5.02,5.02,0,0,1-.747,1.048,5.414,5.414,0,0,1,.552-1.161c.383-.7.929-1.657,1.55-2.723l.125-.2.144.182.188.238c.809,1.023,1.531,1.958,2.039,2.642a5.772,5.772,0,0,1,.766,1.142Z" transform="translate(-41.391 -119.153)"/><path class="b" d="M99.8,255.525a4.387,4.387,0,0,1-.364-.4l-.941-1.1-3.275-3.941h.22l-4.449,5.547v-.207l.113.151,4.342,5.647h-.226c1.33-1.663,2.447-3.068,3.269-4.1.383-.471.7-.853.947-1.161a4.441,4.441,0,0,1,.364-.414,2.31,2.31,0,0,1-.276.42c-.226.307-.515.7-.872,1.18L95.443,261.4l-.113.144-.113-.144-4.392-5.6-.113-.151-.082-.1.082-.1c1.644-2.014,3.175-3.9,4.486-5.515l.113-.138.107.138,3.213,4.085c.358.458.627.835.872,1.136a2.064,2.064,0,0,1,.295.376Z" transform="translate(-52.887 -132.993)"/><path class="b" d="M68.535,262.914a4.392,4.392,0,0,1-.364-.4l-.941-1.111c-.822-.991-1.945-2.334-3.269-3.934h.182l-4.449,5.541v-.2l.113.144c1.587,2.052,3.068,3.984,4.342,5.647h-.226l3.269-4.11c.389-.471.7-.853.947-1.161a4.789,4.789,0,0,1,.364-.408,2.184,2.184,0,0,1-.276.414l-.872,1.186-3.213,4.235-.113.151-.113-.151-4.392-5.6-.113-.144-.082-.107.082-.1,4.493-5.515.107-.132.107.132,3.219,4.085.866,1.136a2.192,2.192,0,0,1,.333.4Z" transform="translate(-41.227 -135.739)"/><path class="b" d="M47.65,243.79a2.327,2.327,0,0,1,.458-.427c.307-.257.759-.627,1.324-1.067,1.129-.885,2.7-2.089,4.442-3.407l.627-.489-.044.207c-.954-1.757-1.795-3.326-2.384-4.455a13.759,13.759,0,0,1-.885-1.882,14.8,14.8,0,0,1,1.073,1.776c.627,1.1,1.512,2.654,2.472,4.392l.069.126-.113.082c-.207.157-.42.326-.627.489-1.744,1.318-3.338,2.51-4.5,3.338-.577.42-1.054.753-1.387.979a2.417,2.417,0,0,1-.527.339Z" transform="translate(-36.876 -126.466)"/><path class="b" d="M123.627,250.217a2.22,2.22,0,0,1-.489-.383c-.3-.257-.728-.627-1.255-1.123-1.048-.96-2.51-2.3-4.047-3.765l-.075-.075.038-.1h0c.715-2.046,1.38-3.9,1.882-5.227.251-.665.458-1.2.627-1.575a2.235,2.235,0,0,1,.264-.558,2.447,2.447,0,0,1-.144.627c-.113.383-.289.929-.508,1.606-.439,1.355-1.073,3.213-1.788,5.264h0l-.044-.169c1.569,1.5,2.974,2.868,3.984,3.872.5.5.9.91,1.18,1.2a2.236,2.236,0,0,1,.376.408Z" transform="translate(-62.994 -128.381)"/><path class="d" d="M94.624,218.577a1.442,1.442,0,0,1-.358.094,9.469,9.469,0,0,1-1.035.188,20.079,20.079,0,0,1-3.884.176c-1.638-.056-3.583-.282-5.723-.558a50.146,50.146,0,0,0-6.984-.533,69.038,69.038,0,0,0-7,.489c-2.152.213-4.091.383-5.735.433a31.661,31.661,0,0,1-3.878-.094c-.458-.038-.809-.094-1.048-.125a2.329,2.329,0,0,1-.358-.069,1.381,1.381,0,0,1,.37,0c.238,0,.59.05,1.048.069.91.044,2.228.069,3.859,0s3.564-.27,5.71-.5,4.524-.489,7.028-.515a47.451,47.451,0,0,1,7.028.565c2.146.295,4.072.533,5.7.627a22.757,22.757,0,0,0,3.853-.069C94.1,218.646,94.624,218.546,94.624,218.577Z" transform="translate(-40.962 -121.012)"/><path class="d" d="M62.76,235.849a3.189,3.189,0,0,1,0-.665c.031-.427.088-1.042.182-1.795.176-1.512.508-3.6,1.01-5.861s1.086-4.3,1.562-5.741a17.939,17.939,0,0,1,.627-1.7,2.722,2.722,0,0,1,.27-.627,2.566,2.566,0,0,1-.151.628l-.5,1.732c-.42,1.456-.966,3.482-1.468,5.741s-.866,4.323-1.1,5.823c-.107.7-.2,1.255-.282,1.776a2.315,2.315,0,0,1-.151.69Z" transform="translate(-42.498 -121.694)"/><path class="d" d="M68,229.72a41.139,41.139,0,0,1,.7-5.12,41.523,41.523,0,0,1,1.023-5.07,41.14,41.14,0,0,1-.7,5.12A41.519,41.519,0,0,1,68,229.72Z" transform="translate(-44.457 -121.72)"/><path class="d" d="M108.207,244.725a6.59,6.59,0,0,1-.433-.929c-.27-.627-.627-1.487-1.017-2.6a62.988,62.988,0,0,1-2.51-8.86,64.459,64.459,0,0,1-1.18-9.123c-.063-1.18-.088-2.133-.082-2.792a5.717,5.717,0,0,1,.044-1.023,7.192,7.192,0,0,1,.088,1.023c0,.627.088,1.606.182,2.773a74.041,74.041,0,0,0,3.677,17.914c.37,1.111.684,2.008.916,2.629A6.439,6.439,0,0,1,108.207,244.725Z" transform="translate(-57.488 -121.672)"/><path class="d" d="M108.774,229.03a5.333,5.333,0,0,1-.5-1.293c-.27-.809-.627-1.939-.929-3.206s-.571-2.416-.728-3.257a5.4,5.4,0,0,1-.176-1.374,6.475,6.475,0,0,1,.4,1.324c.238.954.515,2.033.822,3.225l.828,3.225A6.369,6.369,0,0,1,108.774,229.03Z" transform="translate(-58.777 -121.858)"/><path class="d" d="M69.305,271.856a1.185,1.185,0,0,1-.264,0,4.28,4.28,0,0,1-.74-.126,24.127,24.127,0,0,1-2.667-.74,74.9,74.9,0,0,1-8.308-3.708,35.41,35.41,0,0,0-8.49-3.093,19.251,19.251,0,0,0-2.717-.333,8.675,8.675,0,0,1-1.01-.056.709.709,0,0,1,.257-.038,7.375,7.375,0,0,1,.753-.031,15.905,15.905,0,0,1,2.761.232,32.527,32.527,0,0,1,8.584,3.024,90.6,90.6,0,0,0,8.251,3.765c1.086.4,1.989.671,2.617.835A6.516,6.516,0,0,1,69.305,271.856Z" transform="translate(-35.93 -138.186)"/><path class="d" d="M114.492,261.61a5.527,5.527,0,0,1-.8.546c-.527.332-1.305.8-2.278,1.343a72.527,72.527,0,0,1-7.875,3.765,71.746,71.746,0,0,1-8.27,2.792c-1.079.289-1.958.5-2.573.628a4.913,4.913,0,0,1-.954.169,5.7,5.7,0,0,1,.922-.289c.627-.169,1.468-.414,2.51-.728,2.133-.627,5.057-1.594,8.207-2.874s5.917-2.635,7.887-3.671c.985-.514,1.782-.947,2.328-1.255A5.734,5.734,0,0,1,114.492,261.61Z" transform="translate(-53.301 -137.396)"/><path class="d" d="M109.818,215.11a3.244,3.244,0,0,1-.941,1.625,3.288,3.288,0,0,1-1.518,1.111c-.05-.082.627-.577,1.255-1.33a17.41,17.41,0,0,1,1.2-1.406Z" transform="translate(-59.118 -120.074)"/><path class="d" d="M71.386,212.38c.1,0,.163.966.571,2.071s.973,1.882.9,1.945a3.608,3.608,0,0,1-1.2-1.839A3.765,3.765,0,0,1,71.386,212.38Z" transform="translate(-45.697 -119.057)"/><rect class="e" width="68.545" height="68.545" rx="9.43" transform="translate(0.151 0.151)"/><path class="f" d="M30.63,69.74v-.684a5.911,5.911,0,0,1,2.686-4.342,5.767,5.767,0,0,1,1.945-.822,10.723,10.723,0,0,1,2.366-.151l28.318-.031h27.64a5.923,5.923,0,0,1,2.686.809,6.068,6.068,0,0,1,3.024,4.725c.056,1.945,0,3.878,0,5.854v51.377a6.074,6.074,0,0,1-3.583,5.547,5.736,5.736,0,0,1-1.663.477,11.865,11.865,0,0,1-1.694.063H36.842a6.338,6.338,0,0,1-2.729-.515,6.074,6.074,0,0,1-3.426-4.041,9.851,9.851,0,0,1-.188-2.629V108.455c0-11.922.044-21.6.056-28.293,0-3.332,0-5.923.031-7.686v0c0,1.763,0,4.355.031,7.686,0,6.689.031,16.352.05,28.293v16.923a9.945,9.945,0,0,0,.188,2.56,5.792,5.792,0,0,0,3.275,3.853,6.042,6.042,0,0,0,2.617.489H92.3a11.953,11.953,0,0,0,1.65-.056,5.691,5.691,0,0,0,1.569-.452,5.754,5.754,0,0,0,3.395-5.252V69.313a5.766,5.766,0,0,0-2.874-4.5,5.647,5.647,0,0,0-2.491-.835H85.458l-19.514-.038-28.318-.05a11.232,11.232,0,0,0-2.34.132A5.647,5.647,0,0,0,33.4,64.8a5.81,5.81,0,0,0-2.133,2.372A6.225,6.225,0,0,0,30.63,69.74Z" transform="translate(-30.479 -63.672)"/><path class="f" d="M91.4,124.09c-.226-.477-3.087-10.792-3.087-10.792l.527-10.987.521-15.222-7.4-1.318c-5.365,3.137-13.8,4.392-19.27,1.882,0,0-2.949.138-4.392,1.462-.552.508.345,4.944,1.155,9.318.853,4.6,3.25,16.032,3.25,16.032s-4.066,9.807-4.932,12.625c0,0,24.848-4.505,33.168,0C90.938,127.1,92.695,126.85,91.4,124.09Z" transform="translate(-40.646 -71.89)"/><path class="f" d="M44.1,96.606l9.261-5.716,2.51,12.744-4.775,4.06S43.839,103.96,44.1,96.606Z" transform="translate(-35.549 -73.798)"/><path class="f" d="M107.22,87.87l9.412,4.079s-3.093,11.8-4.9,13.177l-4.775-2.02-1.173,3.671-.063-14.821Z" transform="translate(-58.509 -72.673)"/><path class="a" d="M52.668,109.4a1.738,1.738,0,0,1-.477-.22,10.184,10.184,0,0,1-1.167-.778,13.264,13.264,0,0,1-3.2-3.426,13.039,13.039,0,0,1-1.192-2.347,10.755,10.755,0,0,1-.515-2.052,8.113,8.113,0,0,1-.1-1.418,1.387,1.387,0,0,1,.05-.521c.056,0,.05.74.276,1.882a12.172,12.172,0,0,0,.571,1.989,14.1,14.1,0,0,0,1.142,2.253,14.809,14.809,0,0,0,3.068,3.42C52.065,108.968,52.7,109.351,52.668,109.4Z" transform="translate(-36.265 -76.685)"/><path class="a" d="M57.425,103.58a1.884,1.884,0,0,1-.364-.182,7.153,7.153,0,0,1-.784-.709,22.525,22.525,0,0,1-2.215-2.767A29.247,29.247,0,0,1,52.223,96.9a4.091,4.091,0,0,1-.533-1.368c.044,0,.27.489.74,1.255s1.123,1.813,1.882,2.943a30.741,30.741,0,0,0,2.115,2.8c.295.333.546.59.722.766S57.431,103.555,57.425,103.58Z" transform="translate(-38.381 -75.526)"/><path class="a" d="M89.24,89.25a8.745,8.745,0,0,1-1.136.295c-.734.182-1.788.464-3.075.86l-4.537,1.418a37.247,37.247,0,0,1-5.647,1.318A22.783,22.783,0,0,1,64.329,92.1,21.805,21.805,0,0,1,61.38,90.85c-.339-.169-.584-.333-.759-.433a1.217,1.217,0,0,1-.251-.176,9.153,9.153,0,0,1,1.067.489A25.324,25.324,0,0,0,64.4,91.9a23.448,23.448,0,0,0,10.366.929,38.325,38.325,0,0,0,5.647-1.255c1.713-.5,3.244-.991,4.549-1.355s2.372-.627,3.137-.759c.37-.075.627-.113.86-.144A.847.847,0,0,1,89.24,89.25Z" transform="translate(-41.614 -73.187)"/><path class="a" d="M90.163,102.992a1.694,1.694,0,0,1-.3.069L89,103.2c-.753.125-1.845.264-3.2.4-2.711.282-6.475.5-10.667.508s-7.925-.151-10.667-.289l-3.162-.2-.872-.069a1.544,1.544,0,0,1-.307-.044.978.978,0,0,1,.307,0H61.3l3.225.082c2.717.082,6.475.2,10.629.195s7.9-.188,10.611-.414c1.355-.107,2.453-.213,3.213-.295l.872-.082a.96.96,0,0,1,.314,0Z" transform="translate(-41.521 -78.301)"/><path class="a" d="M90.5,112.13a6.276,6.276,0,0,1-1.067.345c-.345.107-.772.2-1.255.314s-1.073.232-1.713.326a71.257,71.257,0,0,1-10.039.878,97.425,97.425,0,0,1-10.039-.2c-1.255-.094-2.328-.207-3.043-.3a8.585,8.585,0,0,1-1.1-.195,6.426,6.426,0,0,1,1.117.069c.722.05,1.757.132,3.043.195,2.566.119,6.124.22,10.039.107a84.3,84.3,0,0,0,10.039-.778c.627-.082,1.211-.182,1.713-.282s.935-.169,1.255-.257a9.017,9.017,0,0,1,1.054-.22Z" transform="translate(-42.311 -81.71)"/><path class="a" d="M90.428,124.613a6.858,6.858,0,0,1-1.023.151c-.627.075-1.619.163-2.8.264-2.372.182-5.647.37-9.287.414s-6.9-.088-9.293-.3c-1.186-.113-2.146-.22-2.8-.339a7.143,7.143,0,0,1-1.016-.188,5.779,5.779,0,0,1,1.035.063c.627.075,1.619.151,2.8.232,2.372.157,5.647.257,9.274.207s6.9-.195,9.274-.32l2.811-.157A5.9,5.9,0,0,1,90.428,124.613Z" transform="translate(-43.041 -86.356)"/><path class="a" d="M91.579,136.369a6.8,6.8,0,0,1-1.117-.044l-3.043-.213c-2.566-.169-6.124-.345-10.039-.345s-7.486.176-10.04.345l-3.043.213a6.8,6.8,0,0,1-1.117.044,7.724,7.724,0,0,1,1.1-.169c.715-.094,1.751-.2,3.037-.32,2.566-.226,6.13-.439,10.039-.439s7.492.213,10.04.439c1.255.113,2.322.226,3.037.32A7.73,7.73,0,0,1,91.579,136.369Z" transform="translate(-42.661 -90.394)"/><path class="a" d="M111.314,93.069a11.808,11.808,0,0,1-3.137,4.963c-.075-.056.734-1.092,1.581-2.46A19.943,19.943,0,0,1,111.314,93.069Z" transform="translate(-59.422 -74.609)"/><path class="d" d="M59.15,98.68a3.614,3.614,0,0,1,.2.8l.471,2.2c.4,1.926.935,4.461,1.525,7.266s1.092,5.415,1.431,7.285c.163.935.289,1.694.364,2.221a4.474,4.474,0,0,1,.075.828,3.765,3.765,0,0,1-.2-.8l-.471-2.2c-.4-1.92-.935-4.461-1.518-7.266s-1.1-5.409-1.431-7.285c-.169-.935-.295-1.694-.37-2.221A4.424,4.424,0,0,1,59.15,98.68Z" transform="translate(-41.16 -76.7)"/><path class="d" d="M107.557,104.06a2.78,2.78,0,0,1,0,.627c0,.408-.038,1-.069,1.726-.075,1.449-.2,3.457-.358,5.647s-.32,4.223-.452,5.647c-.069.728-.126,1.318-.176,1.719a2.786,2.786,0,0,1-.107.627,2.082,2.082,0,0,1,0-.627c0-.408,0-1,.069-1.726.075-1.449.2-3.457.358-5.647s.32-4.223.452-5.647c.063-.728.126-1.311.176-1.719A2.026,2.026,0,0,1,107.557,104.06Z" transform="translate(-58.752 -78.704)"/><path class="a" d="M116.592,92.86a16.44,16.44,0,0,1-.772,1.882c-.489,1.148-1.117,2.755-1.7,4.562s-.991,3.489-1.255,4.712a17.038,17.038,0,0,1-.458,1.97,1.731,1.731,0,0,1,0-.546c.038-.351.107-.853.213-1.475a35.344,35.344,0,0,1,1.173-4.756,35.992,35.992,0,0,1,1.8-4.562c.27-.565.5-1.017.678-1.324A2.077,2.077,0,0,1,116.592,92.86Z" transform="translate(-60.992 -74.532)"/><path class="a" d="M91.45,146.171a2.047,2.047,0,0,1-.345-.063l-.966-.232c-.42-.107-.935-.232-1.537-.351s-1.255-.289-2.046-.4-1.594-.276-2.51-.37-1.882-.195-2.886-.282a55.515,55.515,0,0,0-6.626,0,54.183,54.183,0,0,0-6.576.885c-1,.22-1.945.408-2.817.659s-1.688.471-2.428.7-1.393.464-1.97.665-1.073.389-1.475.552l-.929.364A1.254,1.254,0,0,1,58,148.4a1.8,1.8,0,0,1,.307-.163l.9-.414c.4-.182.878-.4,1.462-.627s1.255-.489,1.964-.715,1.544-.515,2.428-.747,1.826-.464,2.824-.69a47.255,47.255,0,0,1,13.327-.878c1.016.094,1.989.169,2.893.314s1.744.264,2.51.414,1.443.307,2.046.452,1.111.276,1.525.408l.954.289A1.091,1.091,0,0,1,91.45,146.171Z" transform="translate(-40.732 -93.595)"/></g><g transform="translate(119.035 88.797)"><path class="d" d="M224.2,169.31c0,2.2.809,3-.414,4.668a4.514,4.514,0,0,0-1.192,2.033c-.088.948.627,1.795.671,2.748,0,1.123-.966,1.97-1.518,2.949-1.211,2.152-.307,4.831.627,7.128l20.386-5.766a1.412,1.412,0,0,0,1.255-1.945,72.163,72.163,0,0,0-2.7-11.539" transform="translate(-190.069 -135.263)"/><path class="d" d="M244.758,116.66c-4.21.678-8.785,3.765-10.4,7.724s-1.475,8.992-1.4,13.252c1.3-.257,2.121.351,3.445.264a3.232,3.232,0,0,0,2.108-1.362,21.961,21.961,0,0,0,2.93-5.308q2.88-6.626,5.647-13.3" transform="translate(-194.449 -115.649)"/><path class="d" d="M235.808,126.87c-6.607,4.279-4.944,12.211-6.231,14.074a5.025,5.025,0,0,0-1.18,2.366c-.044.872.627,1.838.627,2.792,0,1.324-1.167,2.391-1.939,3.539a6.206,6.206,0,0,0-.835,5.246,1.475,1.475,0,0,0,.659.947,2.159,2.159,0,0,0,.885.169q9.412.433,18.855.188a9.16,9.16,0,0,0,4.154-.772c1.657-.91,2.334-2.679,2.886-4.3s1.173-3.457,1.8-5.158a19.685,19.685,0,0,0,.941-3.4,34.642,34.642,0,0,0,.094-4.844,44.6,44.6,0,0,0,.069-4.486,6.494,6.494,0,0,0-1.769-4.141" transform="translate(-191.874 -119.452)"/><path class="n" d="M259.319,130.773a10.554,10.554,0,0,0-10.78-10.7,10.868,10.868,0,0,0-10.617,10.353,108.449,108.449,0,0,0-.163,11.665c.627,5.359,4.041,7.115,5.4,7.6a7.2,7.2,0,0,0,1.475.2h0a.038.038,0,0,1,.031.038L244.1,156.2c-.132,4.091,2.51,7.448,6.7,7.6s7.065-3.269,7.272-7.373Z" transform="translate(-196.215 -116.918)"/><path class="d" d="M242.16,142.847a.86.86,0,0,0,.8.891A.835.835,0,0,0,243.9,143a.86.86,0,0,0-.8-.9.841.841,0,0,0-.935.74Z" transform="translate(-197.892 -125.126)"/><path class="d" d="M240.226,138.206c.075.119.816,0,1.707.27a16.256,16.256,0,0,1,1.556.816c.056,0,0-.213-.232-.471a2.893,2.893,0,0,0-1.211-.753,2.654,2.654,0,0,0-1.393-.107C240.327,138.031,240.189,138.156,240.226,138.206Z" transform="translate(-197.17 -123.567)"/><path class="d" d="M256.579,142.846a.847.847,0,0,0,.8.891.828.828,0,0,0,.929-.734.853.853,0,0,0-.8-.9.835.835,0,0,0-.935.74Z" transform="translate(-203.264 -125.126)"/><path class="d" d="M255.392,140.029c.138.038.671-.546,1.613-.916s1.769-.326,1.838-.439-.132-.144-.5-.176a3.652,3.652,0,0,0-1.512.264,3.307,3.307,0,0,0-1.255.822C255.367,139.841,255.323,140.017,255.392,140.029Z" transform="translate(-202.811 -123.783)"/><path class="d" d="M247.715,145.651a6.606,6.606,0,0,0-1.512-.326c-.238-.031-.464-.088-.5-.251a1.161,1.161,0,0,1,.195-.69c.245-.565.508-1.148.784-1.763a31.848,31.848,0,0,0,1.795-4.631,33.231,33.231,0,0,0-2.171,4.474c-.264.627-.514,1.211-.753,1.782a1.318,1.318,0,0,0-.169.916.627.627,0,0,0,.383.358,1.487,1.487,0,0,0,.4.075A5.749,5.749,0,0,0,247.715,145.651Z" transform="translate(-199.087 -123.594)"/><path class="o" d="M248.747,166.374A15.221,15.221,0,0,0,257,164.31s-1.638,4.65-8.414,3.765Z" transform="translate(-200.288 -133.4)"/><path class="f" d="M249.5,153.426a1.707,1.707,0,0,1,1.544-.558,1.55,1.55,0,0,1,1.042.628.954.954,0,0,1,0,1.1,1.161,1.161,0,0,1-1.255.257,3.451,3.451,0,0,1-1.167-.753.916.916,0,0,1-.257-.282.3.3,0,0,1,0-.339" transform="translate(-200.574 -129.13)"/><path class="d" d="M251.629,151.39c-.151,0-.2.985-1.1,1.663s-1.977.527-2,.665.238.2.69.232a2.591,2.591,0,0,0,1.669-.5,2.184,2.184,0,0,0,.853-1.4C251.8,151.641,251.7,151.39,251.629,151.39Z" transform="translate(-200.265 -128.587)"/><path class="d" d="M254.835,134.307c.113.245,1.035.05,2.146.088s2.014.257,2.146,0c.056-.113-.119-.339-.5-.552a3.57,3.57,0,0,0-1.619-.414,3.677,3.677,0,0,0-1.65.333C254.973,133.981,254.785,134.194,254.835,134.307Z" transform="translate(-202.612 -121.895)"/><path class="d" d="M240.3,132.484c.151.213.809,0,1.587.044s1.431.195,1.587,0c.075-.107,0-.32-.3-.527a2.315,2.315,0,0,0-2.56,0C240.329,132.151,240.229,132.365,240.3,132.484Z" transform="translate(-197.191 -121.22)"/><path class="d" d="M251.233,115.57a5.647,5.647,0,0,0,2.642,7.335c1.142.627,2.6.941,3.137,2.1.439.9.195,2.052.759,2.886s1.588.991,2.353,1.55a4.636,4.636,0,0,1,1.581,3.426,33.265,33.265,0,0,0,.238,3.878,3.721,3.721,0,0,0,2.259,2.937A42.918,42.918,0,0,0,265.5,128.54a15.943,15.943,0,0,0-4.022-10.253c-2.61-2.723-6.764-4.047-10.272-2.717" transform="translate(-201.093 -115.048)"/><path class="d" d="M257.089,115.12c4.512.169,9.544,3.238,11.081,7.479.772,2.14.96,4.593,2.453,6.275.941,1.086,2.328,1.757,3.1,2.962,1.65,2.585-.251,6.137.778,9.023a15.812,15.812,0,0,0,2.246,3.439,4.188,4.188,0,0,1,.822,3.853,3.407,3.407,0,0,1-2.115,1.8,10.208,10.208,0,0,1-2.83.4l-14.582.69a4.154,4.154,0,0,1,.27-3.357c.966-1.537,3.344-2.949,2.817-5.152s-1.613-1.933-1.644-4.229,1.556-4.486,1.293-6.482-.922-1.525-1.757-4.668-2.591-4-2.591-4l1.374-7.53" transform="translate(-203.209 -115.075)"/><path class="d" d="M231.173,144.414a3.782,3.782,0,0,0,.9-2.629,17.757,17.757,0,0,0-.772-1.832,3.137,3.137,0,0,1,.238-2.441c.3-.772.722-1.506.966-2.3.2-.627.282-1.305.546-1.92a2.027,2.027,0,0,1,1.406-1.3c.458,2.962-.69,5.923-.847,8.923a5.138,5.138,0,0,1-.3,1.933,1.418,1.418,0,0,1-1.575.878" transform="translate(-193.795 -121.36)"/><path class="i" d="M232.869,134.581c-.05-.082,1.085-.835,2.246-2.033s1.882-2.359,1.97-2.309a7.021,7.021,0,0,1-1.738,2.51A6.9,6.9,0,0,1,232.869,134.581Z" transform="translate(-194.431 -120.707)"/><path class="i" d="M236.037,137.77a2.893,2.893,0,0,1-1.625.483,2.937,2.937,0,0,1-1.682-.238,9.889,9.889,0,0,1,1.657-.088A8.956,8.956,0,0,1,236.037,137.77Z" transform="translate(-194.38 -123.513)"/><path class="n" d="M186.317,169.852l.59,22.815L203.761,183l1.255,11.294s-16.854,12.01-25.281,9.732c-1.38-.376-3.953-3.577-3.809-5.02l2.723-29.24Z" transform="translate(-173.216 -135.434)"/><path class="n" d="M183.689,162.713a5.847,5.847,0,0,0,1.926-2.836c.245-1.475-.345-10.1-.345-10.1s-1.148-.157-1.613,1.544a35.763,35.763,0,0,0-.627,4.053l-2.353-6.331c-.527-1.418-1.406-3.539-2.2-3.464s.176,2.836.345,4.079.452,3.006.452,3.006-2.2-5.553-3.219-6.9c-.734-.979-1.845.107-1.255,1.374,0,0-1.148-1-1.255.207s2.14,6.651,1.738,6.745-2.51-4.229-3.244-4.336c-.433-.063-.627.558-.169,1.682s4.141,9.556,4.919,10.585a3.018,3.018,0,0,0,1.449,1.192Z" transform="translate(-171.611 -126.35)"/><path class="o" d="M185.4,166.4s-.207-.176-.552-.427a5.208,5.208,0,0,0-3.137-1c-.433,0-.7.056-.7,0a.59.59,0,0,1,.182-.05,2.756,2.756,0,0,1,.508-.069,4.712,4.712,0,0,1,3.188,1.01,3.937,3.937,0,0,1,.383.351C185.4,166.343,185.427,166.393,185.4,166.4Z" transform="translate(-175.112 -133.6)"/><path class="o" d="M188.96,163a13.7,13.7,0,0,0-.627,1.255c-.289.728-.345,1.33-.383,1.324a3.922,3.922,0,0,1,.991-2.566Z" transform="translate(-177.698 -132.912)"/><path class="o" d="M176.559,147.42c.031,0,.69,1.475,1.468,3.326s1.38,3.363,1.349,3.376-.69-1.475-1.468-3.326S176.528,147.433,176.559,147.42Z" transform="translate(-173.454 -127.108)"/><path class="o" d="M192.588,212.242c-.038-.044.238-.289.508-.8a4.505,4.505,0,0,0,.5-2.165,9.919,9.919,0,0,0-.364-2.246,3.137,3.137,0,0,1-.195-.947,2.793,2.793,0,0,1,.414.878,7.311,7.311,0,0,1,.471,2.315,4.047,4.047,0,0,1-.627,2.284C192.952,212.079,192.607,212.267,192.588,212.242Z" transform="translate(-179.424 -148.961)"/><path class="n" d="M310.155,150.212s.885,7.053,1.882,14.57a79.4,79.4,0,0,1,.929,10.36l-14.074-3.966-4.022,9.362s18.981,8.6,25.3,5.93h0c4.079-1.851,5.647-6.94,4.449-10.04l-7.53-26.718Z" transform="translate(-217.529 -127.961)"/><path class="n" d="M318.262,142.6a5.818,5.818,0,0,1-2.228-2.6c-.408-1.443-.784-10.071-.784-10.071s1.129-.282,1.782,1.355a36.919,36.919,0,0,1,1.073,3.959l1.625-6.557c.37-1.468,1-3.671,1.8-3.69s.144,2.842.113,4.1-.113,3.031-.113,3.031,1.569-5.766,2.422-7.21c.627-1.054,1.845-.1,1.387,1.224,0,0,1.035-1.117,1.286.069s-1.38,6.852-.973,6.9,2-4.48,2.742-4.668c.42-.113.7.483.351,1.65s-3.049,9.958-3.708,11.069a3.037,3.037,0,0,1-1.305,1.349Z" transform="translate(-225.121 -118.555)"/><path class="o" d="M322.23,146.245s.182-.195.5-.483a5.345,5.345,0,0,1,1.393-.916,5.484,5.484,0,0,1,1.606-.427c.427-.038.7,0,.7-.044s-.063,0-.182-.031a3.247,3.247,0,0,0-.521,0,4.774,4.774,0,0,0-1.65.4,4.706,4.706,0,0,0-1.4.96,2.986,2.986,0,0,0-.339.389C322.255,146.182,322.223,146.239,322.23,146.245Z" transform="translate(-227.721 -125.958)"/><path class="o" d="M320.23,143.27a12.715,12.715,0,0,1,.747,1.161c.358.678.483,1.255.527,1.255a3.3,3.3,0,0,0-.414-1.337,3.137,3.137,0,0,0-.86-1.079Z" transform="translate(-226.976 -125.562)"/><path class="o" d="M330.191,126.32c-.031,0-.521,1.544-1.086,3.47s-1,3.5-.966,3.508.521-1.544,1.086-3.47S330.228,126.333,330.191,126.32Z" transform="translate(-229.922 -119.247)"/><path class="o" d="M324.9,196.757a9.908,9.908,0,0,1-1.048-7.147,35.012,35.012,0,0,0,.188,3.627,36.126,36.126,0,0,0,.86,3.52Z" transform="translate(-228.229 -142.825)"/><path class="n" d="M232.73,364.339s.916,7.034,3.464,24.007c1.487,9.92,4.129,31.166,4.129,31.166l9.556.207-.295-43.753V365.889c0-3.3-4.455-8.069-4.455-8.069Z" transform="translate(-194.38 -205.489)"/><path class="n" d="M261.979,361.366c-.295,3.238,1.374,54.05,1.374,54.05l8.37,3.363s4.035-27.546,5.2-35.138c.9-5.892,3.765-25.331,3.765-25.331Z" transform="translate(-205.263 -205.671)"/><path class="d" d="M215.038,253.1s-20.562,41.3-20.788,66.612a17.569,17.569,0,0,1,5.246,0c2.51.458,4.1,3.646,7.065,3.878s3.727-2.052,6.086-2.51,1.882,3,4.863,2.51,3.188-3.432,5.923-2.98,1.374,2.4,5.93,3.024,6.13-3.024,8.653-2.34,1.613,3.457,5.49,2.416,3.646-3.551,6.607-3.1,2.617,5.522,6.325,3.332,3.564-6.068,6.827-4.926,2.585,2.962,5.1,1.594a10.5,10.5,0,0,1,4.562-1.368s-5.578-50.267-16.484-67.321L238.016,241.49Z" transform="translate(-180.045 -162.152)"/><path class="i" d="M217.894,297.2a1.8,1.8,0,0,1,0-.389c.038-.282.082-.627.132-1.1.119-.954.32-2.328.627-4.028.558-3.388,1.468-8.057,2.767-13.139s2.73-9.619,3.865-12.863c.565-1.625,1.048-2.93,1.4-3.821.169-.42.3-.766.408-1.029a1.412,1.412,0,0,1,.169-.351,1.884,1.884,0,0,1-.107.37c-.088.276-.207.627-.351,1.054-.314.9-.759,2.221-1.3,3.853-1.079,3.257-2.472,7.793-3.765,12.869s-2.24,9.719-2.855,13.1c-.307,1.688-.546,3.056-.7,4-.075.446-.144.8-.195,1.092A1.543,1.543,0,0,1,217.894,297.2Z" transform="translate(-188.849 -169.226)"/><path class="i" d="M225.653,345.92c.094,0,.126,3.137.069,6.977s-.169,6.971-.257,6.971-.119-3.137-.069-6.977S225.565,345.92,225.653,345.92Z" transform="translate(-191.639 -201.055)"/><path class="i" d="M240.806,315.72a1.38,1.38,0,0,1,0,.339c-.031.257-.069.577-.125.966-.119.885-.289,2.083-.489,3.545-.414,3-.941,7.141-1.406,11.727s-.766,8.785-.954,11.778c-.094,1.475-.169,2.686-.226,3.577,0,.389-.05.709-.069.973a1.254,1.254,0,0,1-.044.333,1.162,1.162,0,0,1,0-.339c0-.257,0-.584,0-.973,0-.847.05-2.071.119-3.583.132-3.024.4-7.2.86-11.8s1.029-8.741,1.5-11.727c.238-1.493.446-2.7.627-3.533l.188-.96a1.093,1.093,0,0,1,.019-.326Z" transform="translate(-196.149 -189.805)"/><path class="i" d="M260.676,277.113a3.251,3.251,0,0,1-.151-.69c-.082-.452-.182-1.1-.289-1.882-.22-1.613-.477-3.846-.671-6.325s-.3-4.725-.339-6.35v-1.926a3,3,0,0,1,.038-.709,2.611,2.611,0,0,1,.088.7c0,.527.069,1.167.119,1.92.094,1.625.238,3.865.433,6.337s.414,4.706.571,6.319q.113,1.136.188,1.92A2.785,2.785,0,0,1,260.676,277.113Z" transform="translate(-204.248 -168.761)"/><path class="i" d="M264.782,283.136a6.351,6.351,0,0,1-.044-1c0-.627,0-1.587-.044-2.748-.069-2.315-.257-5.509-.715-9.01a89.423,89.423,0,0,0-1.65-8.891c-.264-1.129-.5-2.039-.659-2.667a5.269,5.269,0,0,1-.22-.985,6.8,6.8,0,0,1,.339.954c.207.627.471,1.518.765,2.642a71.883,71.883,0,0,1,2.378,17.958c0,1.161,0,2.1-.05,2.748A5.953,5.953,0,0,1,264.782,283.136Z" transform="translate(-205.079 -168.239)"/><path class="i" d="M263.156,333.18c.094,0,.351,4.988.584,11.144s.345,11.156.257,11.163-.351-5.02-.584-11.15S263.043,333.186,263.156,333.18Z" transform="translate(-205.699 -196.309)"/><path class="i" d="M281.562,347.5a1.613,1.613,0,0,1-.063-.37c0-.276-.063-.627-.107-1.06-.094-.96-.22-2.284-.376-3.9-.32-3.294-.8-7.837-1.437-12.844s-1.337-9.525-1.882-12.782c-.289-1.625-.54-2.943-.722-3.846-.075-.427-.144-.772-.195-1.048a1.486,1.486,0,0,1-.05-.37,1.508,1.508,0,0,1,.113.358c.069.27.157.627.257,1.029.22.9.508,2.215.822,3.84.627,3.244,1.374,7.762,2.014,12.775s1.079,9.569,1.337,12.863c.138,1.65.226,2.987.276,3.915,0,.433.038.784.05,1.067a1.546,1.546,0,0,1-.038.37Z" transform="translate(-210.771 -188.151)"/><path class="i" d="M293.829,282.261a4.729,4.729,0,0,1-.339-.9c-.207-.627-.483-1.481-.816-2.51-.684-2.108-1.644-5.02-2.761-8.2s-2.19-6.055-2.974-8.157l-.929-2.453a5.922,5.922,0,0,1-.3-.916,5.478,5.478,0,0,1,.42.866c.251.565.627,1.393,1.023,2.416.841,2.058,1.945,4.913,3.068,8.107s2.046,6.112,2.673,8.239c.32,1.06.565,1.926.722,2.51A6.036,6.036,0,0,1,293.829,282.261Z" transform="translate(-214.116 -168.72)"/><path class="i" d="M293.616,325.118a.572.572,0,0,1-.05-.169l-.107-.489c-.088-.464-.213-1.1-.376-1.882-.333-1.682-.8-4.066-1.38-7.009-1.18-5.911-2.905-14.062-5.02-23.009s-4.273-17-5.886-22.815l-1.933-6.9-.521-1.882c-.05-.2-.094-.358-.132-.489a.673.673,0,0,1-.031-.169.628.628,0,0,1,.069.163l.157.477c.138.445.333,1.067.584,1.882.5,1.613,1.192,3.953,2.027,6.852,1.669,5.8,3.846,13.842,5.986,22.8s3.821,17.117,4.944,23.041c.565,2.962,1,5.365,1.255,7.028q.207,1.224.32,1.92c.031.2.05.364.075.5A.739.739,0,0,1,293.616,325.118Z" transform="translate(-211.311 -169.159)"/><path class="j" d="M215.4,305.75a.86.86,0,1,1-.86-.86A.86.86,0,0,1,215.4,305.75Z" transform="translate(-187.283 -185.77)"/><path class="j" d="M266.759,312.256a.86.86,0,1,1-.25-.612A.86.86,0,0,1,266.759,312.256Z" transform="translate(-206.416 -188.192)"/><path class="j" d="M275.229,359.13a.86.86,0,1,1-.86-.86A.86.86,0,0,1,275.229,359.13Z" transform="translate(-209.572 -205.656)"/><path class="j" d="M293.492,350.376a.866.866,0,1,1-.86-.866A.866.866,0,0,1,293.492,350.376Z" transform="translate(-216.37 -202.393)"/><path class="j" d="M286.059,313.63a.86.86,0,1,1-.86-.86A.86.86,0,0,1,286.059,313.63Z" transform="translate(-213.606 -188.706)"/><path class="j" d="M273.859,268.63a.86.86,0,1,1-.86-.86A.86.86,0,0,1,273.859,268.63Z" transform="translate(-209.061 -171.942)"/><path class="j" d="M303.219,306.49a.86.86,0,1,1-.86-.86A.86.86,0,0,1,303.219,306.49Z" transform="translate(-219.999 -186.046)"/><path class="j" d="M308.139,341.7a.86.86,0,1,1-.86-.866A.86.86,0,0,1,308.139,341.7Z" transform="translate(-221.832 -199.159)"/><path class="j" d="M233.172,337.11a.866.866,0,1,1-.86-.86A.866.866,0,0,1,233.172,337.11Z" transform="translate(-193.899 -197.453)"/><path class="j" d="M246.979,280.58a.86.86,0,1,1-.86-.86A.86.86,0,0,1,246.979,280.58Z" transform="translate(-199.048 -176.394)"/><path class="j" d="M214.029,329.42a.86.86,0,1,1-.86-.86A.86.86,0,0,1,214.029,329.42Z" transform="translate(-186.773 -194.588)"/><path class="j" d="M215.4,360.426a.86.86,0,1,1-.25-.612.86.86,0,0,1,.25.612Z" transform="translate(-187.283 -206.137)"/><path class="j" d="M205.469,345.41a.86.86,0,1,1-.86-.86.86.86,0,0,1,.86.86Z" transform="translate(-183.584 -200.545)"/><path class="j" d="M248.509,303a.86.86,0,1,1-.86-.86.86.86,0,0,1,.86.86Z" transform="translate(-199.618 -184.746)"/><path class="j" d="M255.382,332.67a.86.86,0,1,1-.254-.61A.866.866,0,0,1,255.382,332.67Z" transform="translate(-202.173 -195.799)"/><circle class="j" cx="0.86" cy="0.86" r="0.86" transform="translate(46.231 152.564)"/><path class="j" d="M232.87,276.689a.86.86,0,1,1,0-1.719" transform="translate(-194.111 -174.624)"/><path class="j" d="M237.527,353.978a.862.862,0,0,1,.132-1.719" transform="translate(-195.87 -203.416)"/><path class="j" d="M229.277,313.118a.862.862,0,1,1,.132-1.719" transform="translate(-192.797 -188.194)"/><path class="j" d="M265.821,285.277a.86.86,0,1,1-.194-1.707" transform="translate(-206.337 -177.828)"/><path class="j" d="M293.784,281.984a.86.86,0,0,1-.628-1.594" transform="translate(-216.713 -176.643)"/><path class="j" d="M280.731,337.987a.86.86,0,1,1-.195-1.707" transform="translate(-211.892 -197.464)"/><path class="i" d="M229.215,302.728a3.036,3.036,0,0,1,0-.439,12.3,12.3,0,0,1,.05-1.255c.044-1.086.125-2.654.251-4.593.245-3.884.659-9.236,1.255-15.141s1.255-11.232,1.826-15.059c.27-1.92.5-3.476.678-4.549.088-.515.157-.922.213-1.255a2.026,2.026,0,0,1,.094-.427,2.786,2.786,0,0,1,0,.433c-.038.32-.088.734-.151,1.255-.138,1.111-.333,2.66-.577,4.562-.483,3.859-1.123,9.186-1.726,15.059s-1.048,11.251-1.349,15.122c-.151,1.914-.27,3.47-.358,4.593-.044.515-.082.929-.107,1.255a2.259,2.259,0,0,1-.1.439Z" transform="translate(-193.067 -169.051)"/><path class="n" d="M234.73,177.65l9.8-3.25,20.851.584s-1.374,7.53-1.619,7.925-15.141,4.951-15.141,4.951Z" transform="translate(-195.125 -137.159)"/><path class="p" d="M269.938,224.887c-.295-.627-4-13.955-4-13.955l.69-14.206,1.813-19.571-10.717-1.826c-6.9,4.028-17.889,5.71-24.917,2.441,0,0-3.815.182-5.647,1.882-.722.665.439,6.4,1.487,12.054,1.1,5.948,4.2,20.706,4.2,20.706S227.6,225.1,226.48,228.728c0,0,32.133-5.829,42.894,0C269.342,228.778,271.62,228.458,269.938,224.887Z" transform="translate(-192.051 -137.505)"/><path class="p" d="M208.735,189.373,220.72,182l3.238,16.471-6.181,5.246S208.4,198.873,208.735,189.373Z" transform="translate(-185.438 -139.99)"/><path class="p" d="M290.347,178l12.179,5.264s-3.966,15.285-6.306,17.042l-6.174-2.585-1.518,4.788-.088-19.163Z" transform="translate(-215.133 -138.5)"/><path class="a" d="M219.866,205.912a2.861,2.861,0,0,1-.627-.307,13.434,13.434,0,0,1-1.525-1.017,17.174,17.174,0,0,1-4.085-4.424,16.176,16.176,0,0,1-1.481-3,13.548,13.548,0,0,1-.678-2.642,8.733,8.733,0,0,1-.113-1.042,5.133,5.133,0,0,1-.031-.791,2.51,2.51,0,0,1,.044-.671c.069,0,.05.96.326,2.466a15.731,15.731,0,0,0,.734,2.579,17.754,17.754,0,0,0,1.475,2.924,18.93,18.93,0,0,0,3.984,4.392C219.069,205.373,219.9,205.856,219.866,205.912Z" transform="translate(-186.404 -143.723)"/><path class="a" d="M225.958,198.363a3.376,3.376,0,0,1-.452-.245l-.471-.383-.571-.546a30.212,30.212,0,0,1-2.842-3.583,39.974,39.974,0,0,1-2.391-3.9,6.318,6.318,0,0,1-.722-1.751c.044,0,.333.627.929,1.638s1.443,2.366,2.453,3.828a44.234,44.234,0,0,0,2.742,3.608l.533.571.42.414C225.833,198.219,225.971,198.345,225.958,198.363Z" transform="translate(-189.082 -142.21)"/><path class="a" d="M267.142,179.82a1.793,1.793,0,0,1-.383.113l-1.092.257c-.947.226-2.315.59-3.984,1.092l-5.867,1.826a48.058,48.058,0,0,1-7.341,1.7,29.266,29.266,0,0,1-7.53.057,30,30,0,0,1-6-1.38,27.218,27.218,0,0,1-3.815-1.631c-.439-.22-.759-.427-.985-.552a2.063,2.063,0,0,1-.326-.213,1.756,1.756,0,0,1,.358.157c.232.107.565.295,1.01.5a31.519,31.519,0,0,0,3.834,1.525,30.59,30.59,0,0,0,5.961,1.3,29.818,29.818,0,0,0,7.461-.075,49.811,49.811,0,0,0,7.3-1.669c2.215-.627,4.2-1.255,5.886-1.757s3.062-.809,4.028-1c.477-.1.853-.157,1.111-.2a2.51,2.51,0,0,1,.376-.044Z" transform="translate(-193.296 -139.178)"/><path class="a" d="M268.283,197.531a1.827,1.827,0,0,1-.389.082l-1.123.176c-.973.151-2.384.326-4.141.5-3.508.358-8.37.627-13.748.627s-10.247-.195-13.76-.364l-4.166-.226-1.129-.082a1.563,1.563,0,0,1-.4-.05,1.481,1.481,0,0,1,.4,0h1.136l4.166.119c3.52.113,8.383.276,13.754.27s10.221-.251,13.729-.552c1.751-.144,3.169-.282,4.148-.4l1.129-.113A1.569,1.569,0,0,1,268.283,197.531Z" transform="translate(-193.15 -145.77)"/><path class="a" d="M268.729,209.428a2.632,2.632,0,0,1-.358.126l-1.029.295c-.452.138-1,.257-1.657.4s-1.387.295-2.209.42a94.71,94.71,0,0,1-12.982,1.123c-5.089.144-9.7-.031-13.026-.251-1.663-.119-3.006-.257-3.928-.37L232.474,211a1.5,1.5,0,0,1-.364-.075,1.557,1.557,0,0,1,.376,0l1.067.1c.929.075,2.271.176,3.934.264,3.319.163,7.925.3,13,.157a107.987,107.987,0,0,0,12.926-1.035c.822-.107,1.562-.245,2.209-.37s1.211-.226,1.663-.345l1.042-.238a1.4,1.4,0,0,1,.4-.031Z" transform="translate(-194.149 -150.207)"/><path class="a" d="M268.655,225.558a1.337,1.337,0,0,1-.339.063l-.985.119c-.853.088-2.1.2-3.627.32-3.068.232-7.316.464-12.01.527s-8.954-.107-12.016-.376c-1.537-.144-2.773-.282-3.627-.42l-.979-.157a1.155,1.155,0,0,1-.333-.075,1.305,1.305,0,0,1,.345,0l.985.094c.853.1,2.089.2,3.62.314,3.068.207,7.31.345,12,.282s8.929-.257,12-.433l3.633-.22.991-.05a1.211,1.211,0,0,1,.345.013Z" transform="translate(-195.129 -156.21)"/><path class="a" d="M270.177,240.8a1.719,1.719,0,0,1-.376,0l-1.067-.075-3.934-.289c-3.326-.232-7.919-.458-13-.458s-9.676.232-13,.458l-3.928.289-1.073.075a1.72,1.72,0,0,1-.376,0,1.382,1.382,0,0,1,.37-.069l1.067-.138c.922-.113,2.265-.251,3.928-.4,3.319-.282,7.925-.552,13.014-.552s9.694.264,13.02.552c1.657.144,3,.282,3.928.4l1.06.138A1.382,1.382,0,0,1,270.177,240.8Z" transform="translate(-194.637 -161.466)"/><path class="a" d="M295.715,184.77a12.309,12.309,0,0,1-1.631,3.439,12.5,12.5,0,0,1-2.366,2.987c-.069-.063.991-1.387,2.083-3.137S295.659,184.732,295.715,184.77Z" transform="translate(-216.353 -141.022)"/><path class="d" d="M228.22,192a7.408,7.408,0,0,1,.238,1.042c.151.728.351,1.688.59,2.849.508,2.46,1.2,5.754,1.958,9.412s1.424,7,1.882,9.412c.22,1.211.383,2.2.483,2.874a6.9,6.9,0,0,1,.119,1.06,6.275,6.275,0,0,1-.245-1.042c-.151-.722-.345-1.682-.584-2.849-.515-2.453-1.2-5.754-1.958-9.412s-1.424-7-1.882-9.412c-.22-1.211-.383-2.19-.489-2.868A6.273,6.273,0,0,1,228.22,192Z" transform="translate(-192.7 -143.715)"/><path class="d" d="M290.827,199a3.624,3.624,0,0,1,0,.822c0,.59-.063,1.337-.107,2.228-.1,1.882-.27,4.474-.471,7.341s-.408,5.459-.571,7.335c-.088.891-.157,1.631-.213,2.221a4.488,4.488,0,0,1-.119.816,3.626,3.626,0,0,1,0-.822c.031-.59.063-1.337.107-2.228.107-1.882.27-4.474.477-7.341s.408-5.465.571-7.341c.082-.885.151-1.631.207-2.221a4.467,4.467,0,0,1,.119-.809Z" transform="translate(-215.462 -146.323)"/><path class="a" d="M302.514,184.5a2.767,2.767,0,0,1-.257.659l-.766,1.751c-.627,1.487-1.468,3.558-2.215,5.9s-1.255,4.518-1.613,6.1c-.157.734-.282,1.362-.389,1.882a2.51,2.51,0,0,1-.176.684,3.465,3.465,0,0,1,.05-.7c.05-.452.144-1.1.282-1.882a48.757,48.757,0,0,1,3.846-12.047c.345-.728.628-1.318.866-1.713A3.309,3.309,0,0,1,302.514,184.5Z" transform="translate(-218.359 -140.921)"/><path class="a" d="M270.018,253.472a4.142,4.142,0,0,1-.439-.088l-1.255-.314c-.54-.144-1.2-.307-1.983-.464s-1.657-.376-2.642-.521l-1.544-.264c-.54-.094-1.1-.144-1.688-.226-1.161-.169-2.416-.257-3.727-.364a68.6,68.6,0,0,0-8.584,0,69.59,69.59,0,0,0-8.5,1.142c-1.293.289-2.51.54-3.652.86-.565.157-1.117.289-1.638.445l-1.5.471c-.96.276-1.8.627-2.548.872s-1.387.508-1.882.722l-1.192.471a1.924,1.924,0,0,1-.433.144l.4-.2,1.18-.533c.508-.232,1.136-.5,1.882-.778s1.581-.627,2.51-.916l1.493-.489c.521-.169,1.079-.307,1.644-.464,1.129-.339,2.366-.627,3.658-.9a61.611,61.611,0,0,1,17.18-1.173c1.324.119,2.579.213,3.765.4.584.088,1.148.151,1.688.245l1.55.282c.985.169,1.882.4,2.642.577s1.437.358,1.977.521l1.255.37A2.087,2.087,0,0,1,270.018,253.472Z" transform="translate(-192.174 -165.6)"/><g class="g" transform="translate(43.427 73.498)"><path d="M278.79,232.649h.276l.194-.069Z" transform="translate(-254.966 -232.331)"/><path d="M264.922,232.482a24.709,24.709,0,0,1-10.981,1.2c-3.7-.307-7.492-1.073-11.257-1.456a2.51,2.51,0,0,0-1.293.1.9.9,0,0,0-.54,1.067c.157.389.627.527,1.048.627a55.412,55.412,0,0,0,20.763.157c1.117-.207,2.428-.627,2.755-1.707Z" transform="translate(-240.821 -232.183)"/></g><path class="f" d="M236.106,449.427v.7s-11.922,4.618-12.066,6.865l23.543.163-.27-7.837a13.446,13.446,0,0,1-11.207.107Z" transform="translate(-191.142 -239.575)"/><g class="q" transform="translate(52.598 212.214)"><path class="h" d="M256.606,453.277a.954.954,0,0,1,.628,1.1.922.922,0,0,1-1.086.659,1.017,1.017,0,0,1-.69-1.173.954.954,0,0,1,1.2-.558" transform="translate(-255.437 -453.255)"/></g><g class="q" transform="translate(32.883 215.7)"><path class="h" d="M247.568,460.692l-.069-1.882-22.539.533s-1.048.445-.935,1.186Z" transform="translate(-224.016 -458.81)"/></g><path class="d" d="M243.12,450.651c0,.119.577.176,1.142.546s.86.86.966.816-.056-.709-.747-1.148S243.1,450.544,243.12,450.651Z" transform="translate(-198.25 -240.034)"/><path class="d" d="M239.179,452.281c-.031.113.471.314.853.8s.5,1,.627,1,.188-.627-.3-1.255S239.179,452.175,239.179,452.281Z" transform="translate(-196.782 -240.66)"/><path class="d" d="M236.389,455.819c.107,0,.27-.552,0-1.18s-.822-.885-.872-.791.282.433.508.954S236.276,455.819,236.389,455.819Z" transform="translate(-195.416 -241.255)"/><path class="f" d="M263.542,448.85s6.074,3.765,8.741.107l.828,1.669,3.953,11.96a1.619,1.619,0,0,1-.841,2,1.65,1.65,0,0,1-1.725-.232c-2.51-2.115-11.79-9.945-11.759-11.075l-.119-2.974A1.537,1.537,0,0,1,263.542,448.85Z" transform="translate(-205.514 -239.4)"/><g class="q" transform="translate(57.168 212.838)"><path class="h" d="M275.972,466.686,262.72,454.25l.038.628a1.883,1.883,0,0,0,.665,1.405c1.086,1.286,4.06,4.141,11.062,10.039a1.637,1.637,0,0,0,1.487.326Z" transform="translate(-262.72 -454.25)"/></g><g class="q" transform="translate(57.497 210.671)"><path class="h" d="M264.66,450.924a.929.929,0,0,1,.339,1.255.954.954,0,0,1-1.255.339.91.91,0,1,1,.991-1.512" transform="translate(-263.244 -450.796)"/></g><path class="d" d="M277.509,462.588c.094.038.4-.791,1.318-1.255a5.02,5.02,0,0,1,1.795-.433c0-.038-.195-.151-.565-.182a2.623,2.623,0,0,0-1.4.32,2.51,2.51,0,0,0-1.01,1C277.484,462.349,277.472,462.575,277.509,462.588Z" transform="translate(-211.055 -243.82)"/><path class="d" d="M279.483,466.142a12.882,12.882,0,0,1,1.362-.734,12.676,12.676,0,0,1,1.525-.276,1.839,1.839,0,0,0-1.644-.044C279.8,465.407,279.4,466.11,279.483,466.142Z" transform="translate(-211.792 -245.385)"/><path class="d" d="M274,458.519a15.749,15.749,0,0,1,2.02-1.255,15.565,15.565,0,0,1,2.309-.627,3.69,3.69,0,0,0-2.453.351A3.533,3.533,0,0,0,274,458.519Z" transform="translate(-209.754 -242.273)"/><path class="d" d="M273.22,453.337c.044.088.9-.314,2.027-.414s2.046.113,2.071,0a3.219,3.219,0,0,0-2.1-.351A3.137,3.137,0,0,0,273.22,453.337Z" transform="translate(-209.464 -240.769)"/><path class="d" d="M275.88,451.388a1.255,1.255,0,0,0-.119-.571,4.111,4.111,0,0,0-.809-1.343,1.844,1.844,0,0,0-.973-.627.627.627,0,0,0-.678.3,1,1,0,0,0-.082.734,2.284,2.284,0,0,0,2.441,1.544,2.642,2.642,0,0,0,2.215-1.882.9.9,0,0,0-.138-.734.627.627,0,0,0-.728-.169,2.228,2.228,0,0,0-.885.753,4.606,4.606,0,0,0-.766,1.406,1.368,1.368,0,0,0-.107.571,7.092,7.092,0,0,1,1.06-1.826,2.115,2.115,0,0,1,.791-.627.345.345,0,0,1,.4.094.628.628,0,0,1,.063.483,2.372,2.372,0,0,1-1.939,1.638,1.983,1.983,0,0,1-2.09-1.286.7.7,0,0,1,0-.508.351.351,0,0,1,.37-.176,1.656,1.656,0,0,1,.835.533,6.074,6.074,0,0,1,1.142,1.694Z" transform="translate(-209.45 -239.302)"/><path class="d" d="M280.454,172.121c-.627-.5-1.418-1-1.6-1.807a4.393,4.393,0,0,1,.289-1.964,7.228,7.228,0,0,0-1.079-5.377,19.69,19.69,0,0,0-3.194-4.342l-17.513,7.185c.088,1.882.684,2.2.232,3.137s-1.431,1.631-1.393,2.648c0,.891.878,1.6.891,2.51s-.9,1.606-1.387,2.416c-.759,1.255-.508,2.83-.238,4.261.056.282.138.627.4.722a.872.872,0,0,0,.552,0l9.632-1.782.489-1.769a1.255,1.255,0,0,0,.991,1.192,3.577,3.577,0,0,0,1.663-.113A47.245,47.245,0,0,0,280.2,175.5c.584-.295,1.224-.69,1.374-1.337C281.753,173.363,281.106,172.616,280.454,172.121Z" transform="translate(-202.749 -131.284)"/><path class="i" d="M267.457,129.591a4.058,4.058,0,0,1-.772,0,7.693,7.693,0,0,1-.9-.075c-.345-.044-.747-.082-1.18-.176a20.333,20.333,0,0,1-3.006-.791,24.51,24.51,0,0,1-3.476-1.537,26.988,26.988,0,0,1-3.188-2.089,22.97,22.97,0,0,1-2.315-2.071c-.314-.307-.571-.627-.8-.878a8.153,8.153,0,0,1-.571-.7,3.39,3.39,0,0,1-.439-.627c.05-.038.715.828,1.977,2.046a28.328,28.328,0,0,0,2.34,2,28.615,28.615,0,0,0,3.137,2.039,27.139,27.139,0,0,0,3.42,1.544,23.47,23.47,0,0,0,2.949.847C266.365,129.478,267.457,129.528,267.457,129.591Z" transform="translate(-201.115 -117.135)"/><path class="i" d="M271.215,135.2a5.127,5.127,0,0,1-1.393.445,17.35,17.35,0,0,1-3.508.446,18.028,18.028,0,0,1-3.526-.251,4.957,4.957,0,0,1-1.418-.377,44.376,44.376,0,0,0,4.938.3A45.991,45.991,0,0,0,271.215,135.2Z" transform="translate(-205.049 -122.556)"/><path class="i" d="M276.2,160.851s.151-.358.427-1a6.733,6.733,0,0,0,.671-2.817,3.827,3.827,0,0,0-.628-1.882,8.12,8.12,0,0,0-1.556-1.694c-.627-.546-1.305-1.079-1.97-1.713a5.39,5.39,0,0,1-1.562-2.372,5.1,5.1,0,0,1,.113-2.836c.245-.878.584-1.688.784-2.472a5.647,5.647,0,0,0,.195-2.271,2.88,2.88,0,0,0-.9-1.707c-.446-.42-.929-.728-1.311-1.054a4,4,0,0,1-.872-.96,1.989,1.989,0,0,1-.295-.766.627.627,0,0,1,0-.282,2.661,2.661,0,0,0,.4.979,4,4,0,0,0,.878.885c.389.307.872.627,1.355,1.029a3.137,3.137,0,0,1,1.01,1.832,5.867,5.867,0,0,1-.169,2.384c-.207.822-.54,1.631-.772,2.51a4.85,4.85,0,0,0-.107,2.66,5.132,5.132,0,0,0,1.475,2.234c.627.627,1.324,1.155,1.945,1.713a8.068,8.068,0,0,1,1.581,1.782,3.953,3.953,0,0,1,.627,2,6.45,6.45,0,0,1-.791,2.88c-.157.314-.289.552-.383.715A.96.96,0,0,1,276.2,160.851Z" transform="translate(-207.997 -123.234)"/></g><g transform="translate(187.14 62.681)"><path class="b" d="M280.15,103.319l3.326-5.867a15.743,15.743,0,1,1,3.765,4.191h0Z" transform="translate(-280.15 -73.438)"/><path class="d" d="M280.15,103.309l7.116-1.6h.107l-.063-.088h0l-.1.1a15.687,15.687,0,0,0,7.53,3.188,14.094,14.094,0,0,0,2.51.132c.427,0,.866-.038,1.305-.069l1.33-.2a15.906,15.906,0,0,0,9.845-6.312,15.73,15.73,0,0,0,2.66-6.086,16.026,16.026,0,0,0-.182-7,15.835,15.835,0,0,0-22.984-9.977,15.95,15.95,0,0,0-7.467,9.2,16.9,16.9,0,0,0-.684,5.12,15.611,15.611,0,0,0,2.359,7.8v-.069l-3.269,5.9c.245-.414,1.255-2.165,3.388-5.835h0v-.038a15.574,15.574,0,0,1-2.278-7.73,16.944,16.944,0,0,1,.7-5.02,15.755,15.755,0,0,1,7.379-9.029,15.166,15.166,0,0,1,6.375-1.882,15.8,15.8,0,0,1,6.9,1.067,15.549,15.549,0,0,1,5.961,4.261,15.228,15.228,0,0,1,3.313,6.356,15.875,15.875,0,0,1,.195,6.9,15.493,15.493,0,0,1-2.61,5.98,15.687,15.687,0,0,1-9.669,6.275l-1.311.2c-.433.038-.86.05-1.286.075a13.8,13.8,0,0,1-2.46-.113,15.637,15.637,0,0,1-7.479-3.1H287.1l.075.082h0l.044-.113Z" transform="translate(-280.15 -73.428)"/><path class="f" d="M295.579,95.183a4.029,4.029,0,0,1,1.067-2.2,3.872,3.872,0,0,1,2.046-1.255,3.2,3.2,0,0,1,2.46.508,3.138,3.138,0,0,1,.991,1.148,3.137,3.137,0,0,1,3.413-1.468,3.928,3.928,0,0,1,2.027,1.255A4.091,4.091,0,0,1,308.6,95.4a4.907,4.907,0,0,1-.628,3.031,6.9,6.9,0,0,1-2.435,2.234c-1.581.935-3.664,2.1-3.664,2.1s-1.738-1.33-3.307-2.3a6.9,6.9,0,0,1-2.384-2.284A4.888,4.888,0,0,1,295.579,95.183Z" transform="translate(-285.885 -80.223)"/></g><g transform="translate(85.069 99.709)"><path class="d" d="M130.22,146.7s2.679,17.87,3.018,17.644,4.913-4.468,4.913-4.468l7.479,7.592,4.806-4.8-7.486-7.479,4.693-4.468Z" transform="translate(-122.226 -137.752)"/><path class="d" d="M124.269,148.12a17.709,17.709,0,0,1-3.376.627,18.058,18.058,0,0,1-3.413.3,18.309,18.309,0,0,1,3.37-.627A18.786,18.786,0,0,1,124.269,148.12Z" transform="translate(-117.48 -138.281)"/><path class="d" d="M124.321,143.177a14.036,14.036,0,0,1-2.711-1.211,13.742,13.742,0,0,1-2.56-1.506,13.586,13.586,0,0,1,2.711,1.211,13.741,13.741,0,0,1,2.56,1.506Z" transform="translate(-118.065 -135.428)"/><path class="d" d="M128.552,139.587a23.976,23.976,0,0,1-1.682-3.508,22.5,22.5,0,0,1-1.38-3.639,23.58,23.58,0,0,1,1.682,3.508A24.026,24.026,0,0,1,128.552,139.587Z" transform="translate(-120.464 -132.44)"/><path class="d" d="M134.2,136.73a8.747,8.747,0,0,1-.37,2.322,8.508,8.508,0,0,1-.684,2.253,16.6,16.6,0,0,1,1.054-4.574Z" transform="translate(-123.318 -134.038)"/></g></g></svg>