<svg xmlns="http://www.w3.org/2000/svg" width="78.806" height="74.65" viewBox="0 0 78.806 74.65"><defs><style>.a{fill:none;stroke:#000;stroke-linecap:round;stroke-linejoin:round;stroke-miterlimit:10;stroke-width:15px;}.b{fill:#339ce9;}.c{fill:#7cc5ff;}.d{fill:#fcf1f2;}.e{fill:#f4e5e0;}.f{fill:#e6d6d1;}.g{fill:#d3c6c3;}.h{fill:#fff;}.i{fill:#c3aff0;}.j{fill:#6f6571;}.k{fill:#cdf2f9;}.l{fill:#71ddf9;}.m{fill:#514a54;}</style></defs><g transform="translate(0 -13.498)"><g transform="translate(1.154 14.653)"><path class="a" d="M67.5,159h10v7.234h-10Z" transform="translate(-58.265 -137.759)"/><path class="b" d="M84,68.714H7.5v-43.1A4.617,4.617,0,0,1,12.118,21H79.379A4.617,4.617,0,0,1,84,25.618Z" transform="translate(-7.5 -21)"/><path class="c" d="M453.735,25.618v43.1h-4.617v-43.1A4.617,4.617,0,0,0,444.5,21h4.618A4.617,4.617,0,0,1,453.735,25.618Z" transform="translate(-377.238 -21)"/><path class="d" d="M79.379,341H12.118A4.617,4.617,0,0,1,7.5,336.387V331H84v5.387A4.617,4.617,0,0,1,79.379,341Z" transform="translate(-7.5 -283.286)"/><path class="e" d="M453.735,331v5.387A4.617,4.617,0,0,1,449.118,341H444.5a4.617,4.617,0,0,0,4.618-4.618V331Z" transform="translate(-377.238 -283.286)"/><path class="f" d="M204.78,406H182l2.463-10h17.854Z" transform="translate(-155.141 -338.281)"/><path class="g" d="M291.08,406h-4.617L284,396h4.617Z" transform="translate(-241.442 -338.281)"/><path class="d" d="M147.7,465.617h32.034a.769.769,0,0,0,.73-1.013l-.675-2.026A2.309,2.309,0,0,0,177.6,461H149.839a2.309,2.309,0,0,0-2.19,1.579l-.675,2.026A.769.769,0,0,0,147.7,465.617Z" transform="translate(-125.472 -393.276)"/><path class="e" d="M322.942,465.617h-4.618a.769.769,0,0,0,.731-1.013l-.676-2.026A2.308,2.308,0,0,0,316.19,461h4.618a2.307,2.307,0,0,1,2.19,1.579l.676,2.026A.769.769,0,0,1,322.942,465.617Z" transform="translate(-268.677 -393.276)"/><path class="h" d="M104.3,51H37.962a.462.462,0,0,0-.462.462V94.1h67.262V51.462A.462.462,0,0,0,104.3,51Z" transform="translate(-32.882 -46.382)"/><path class="i" d="M104.762,55.618H37.5V51.462A.462.462,0,0,1,37.962,51H104.3a.462.462,0,0,1,.462.462Z" transform="translate(-32.882 -46.382)"/><path class="j" d="M76.735,140.244H68.27a.77.77,0,0,1-.77-.77V111.77a.77.77,0,0,1,.77-.77h8.465a.77.77,0,0,1,.77.77v27.705A.77.77,0,0,1,76.735,140.244Z" transform="translate(-58.265 -97.147)"/><path class="k" d="M205.135,140.244H163.27a.77.77,0,0,1-.77-.77V111.77a.77.77,0,0,1,.77-.77h41.865a.77.77,0,0,1,.77.77v27.705A.77.77,0,0,1,205.135,140.244Z" transform="translate(-138.643 -97.147)"/><g transform="translate(35.555 18.47)"><path class="l" d="M342.348,145.618H339.27a.77.77,0,0,1-.77-.77V141.77a.77.77,0,0,1,.77-.77h3.078a.77.77,0,0,1,.77.77v3.078A.77.77,0,0,1,342.348,145.618Z" transform="translate(-323.108 -141)"/><path class="l" d="M342.348,245.618H339.27a.77.77,0,0,1-.77-.77V241.77a.77.77,0,0,1,.77-.77h3.078a.77.77,0,0,1,.77.77v3.078A.77.77,0,0,1,342.348,245.618Z" transform="translate(-323.108 -225.608)"/><path class="l" d="M242.348,145.618H239.27a.77.77,0,0,1-.77-.77V141.77a.77.77,0,0,1,.77-.77h3.078a.77.77,0,0,1,.77.77v3.078A.77.77,0,0,1,242.348,145.618Z" transform="translate(-238.5 -141)"/><path class="l" d="M242.348,245.618H239.27a.77.77,0,0,1-.77-.77V241.77a.77.77,0,0,1,.77-.77h3.078a.77.77,0,0,1,.77.77v3.078A.77.77,0,0,1,242.348,245.618Z" transform="translate(-238.5 -225.608)"/></g><path class="m" d="M67.5,206h10v7.234h-10Z" transform="translate(-58.265 -177.525)"/><path class="m" d="M77.5,118.388h-10V111.77a.77.77,0,0,1,.77-.77h8.465a.77.77,0,0,1,.77.77Z" transform="translate(-58.265 -97.147)"/></g><g transform="translate(0 13.498)"><path d="M73.034,13.5H5.772A5.778,5.778,0,0,0,0,19.27V67.754a5.778,5.778,0,0,0,5.772,5.772H29l-1.894,7.7H25.521a3.459,3.459,0,0,0-3.286,2.368l-.675,2.026a1.938,1.938,0,0,0,1.825,2.532h22.9a1.154,1.154,0,0,0,0-2.309H23.919l.507-1.519a1.153,1.153,0,0,1,1.1-.789H53.284a1.153,1.153,0,0,1,1.1.789l.507,1.519H51.677a1.154,1.154,0,0,0,0,2.309H55.42a1.938,1.938,0,0,0,1.825-2.532l-.675-2.026a3.459,3.459,0,0,0-3.286-2.368H51.7l-1.894-7.7H73.034a5.778,5.778,0,0,0,5.772-5.772V19.27A5.778,5.778,0,0,0,73.034,13.5ZM5.772,15.807H73.034A3.467,3.467,0,0,1,76.5,19.27V61.212H74.188V19.732a1.618,1.618,0,0,0-1.616-1.616H6.234a1.618,1.618,0,0,0-1.616,1.616v15.7a1.154,1.154,0,0,0,2.309,0V25.042H71.879V61.212H6.926V40.818a1.154,1.154,0,1,0-2.309,0V61.212H2.309V19.27a3.467,3.467,0,0,1,3.463-3.463Zm66.107,6.926H6.926V20.424H71.879ZM49.32,81.222H29.486l1.894-7.7H47.425Zm23.714-10H5.772a3.467,3.467,0,0,1-3.463-3.463V63.521H76.5v4.233A3.467,3.467,0,0,1,73.034,71.217Z" transform="translate(0 -13.498)"/><path d="M156.924,135.051h41.865a1.926,1.926,0,0,0,1.924-1.924V105.422a1.926,1.926,0,0,0-1.924-1.924H156.924A1.926,1.926,0,0,0,155,105.422v27.705A1.926,1.926,0,0,0,156.924,135.051Zm.385-29.244h41.1v26.935h-41.1Z" transform="translate(-131.143 -89.645)"/><path d="M61.924,135.051h8.465a1.926,1.926,0,0,0,1.924-1.924V105.422a1.926,1.926,0,0,0-1.924-1.924H61.924A1.926,1.926,0,0,0,60,105.422v27.705A1.926,1.926,0,0,0,61.924,135.051Zm.385-14.622H70v4.925h-7.7ZM70,118.12h-7.7v-4.925H70Zm0,14.622h-7.7v-5.079H70Zm-7.7-26.935H70v5.079h-7.7Z" transform="translate(-50.765 -89.645)"/></g></g></svg>