<svg xmlns="http://www.w3.org/2000/svg" xmlns:xlink="http://www.w3.org/1999/xlink" width="426" height="259" viewBox="0 0 426 259"><defs><style>.a{fill:none;}.b{fill:#dcebf5;}.c{fill:#b1d2eb;}.d{fill:#fff;}.e{opacity:0.5;}.f{fill:#ebebeb;}.g{fill:#e0e0e0;}.h{fill:#263238;}.i{fill:#455a64;}.j{fill:#fafafa;}.k{clip-path:url(#a);}.l{fill:#bf3976;}.m{opacity:0.2;}.n{fill:#3b88c2;}.o{opacity:0.4;}.p{fill:#b78876;}.q{opacity:0.3;}.r{fill:#995037;}.s{fill:#339ce9;}.t{fill:#89b3d2;}.u{fill:#5d809a;}.v{clip-path:url(#b);}.w{clip-path:url(#c);}.x{opacity:0.8;}.y{opacity:0.7;}</style><clipPath id="a"><path class="a" d="M353.64,173.8s-8.194-.111-10,2.569-9.241,19.357-9.241,19.357l11.625,6.05,2.5-7.146,4.078,14.94c-4.67,3.7-11.286,37.353-9.968,51.528l43.667.142s.3-39.33-11.508-52.261l2.766-15.617,2.668,7.621,12.321-5.113-9.272-16.677a8.982,8.982,0,0,0-7.8-4.614h-3.025s-1.275,11.163-9.389,10.948S353.64,173.8,353.64,173.8Z" transform="translate(-334.4 -173.799)"/></clipPath><clipPath id="b"><path class="a" d="M222.74,216.522,233.121,209l13.492,15.975A6.838,6.838,0,0,1,248,231.135l-4.547,17.25a5.785,5.785,0,0,1-5.994,4.313h0a5.785,5.785,0,0,1-5.317-6.543l2-15.593Z" transform="translate(-222.74 -209)"/></clipPath><clipPath id="c"><path class="a" d="M231.44,207.547,241.821,200l13.492,15.975a6.832,6.832,0,0,1,1.386,6.161l-4.54,17.25a5.785,5.785,0,0,1-6,4.313h0a5.785,5.785,0,0,1-5.329-6.506l2.008-15.562Z" transform="translate(-231.44 -200)"/></clipPath></defs><g transform="translate(-321 -1945)"><rect class="b" width="426" height="259" rx="22" transform="translate(321 1945)"/><g transform="translate(286 1877.8)"><g transform="translate(115.074 85.989)"><path class="c" d="M525.932,203.116l-98.319-17.527a4.645,4.645,0,0,1-3.758-5.391l10.824-60.745a4.651,4.651,0,0,1,5.391-3.758l98.338,17.527a4.645,4.645,0,0,1,3.758,5.391l-10.831,60.745a4.645,4.645,0,0,1-5.4,3.758Z" transform="translate(-258.578 -101.508)"/><path class="d" d="M577.511,161.808a7.522,7.522,0,1,1-1.232-5.636,7.535,7.535,0,0,1,1.232,5.636Z" transform="translate(-311.858 -115.838)"/><path class="d" d="M584.448,170.748a8.175,8.175,0,0,1-1.392-.123,7.824,7.824,0,1,1,1.392.123Zm0-15.075a7.233,7.233,0,1,0,7.116,8.5h0a7.227,7.227,0,0,0-5.847-8.379,6.849,6.849,0,0,0-1.288-.136Z" transform="translate(-317.255 -116.665)"/><path class="d" d="M443.973,189.533l-1.06,5.964-.616-.111.967-5.421-1.4-.246.092-.548Z" transform="translate(-265.519 -129.745)"/><path class="d" d="M451.012,196.625l-.092.548-4.189-.745.08-.437,2.914-1.99c.789-.542.992-.918,1.06-1.331.123-.69-.283-1.2-1.2-1.362a2.045,2.045,0,0,0-1.75.37l-.363-.45a2.7,2.7,0,0,1,2.261-.474c1.232.216,1.848.967,1.694,1.959a2.513,2.513,0,0,1-1.312,1.694l-2.384,1.633Z" transform="translate(-267.389 -130.325)"/><path class="d" d="M460.945,197.518l-1.189-.216-.283,1.571-.616-.111.277-1.565-3.364-.616.074-.444,3.869-3.388.684.117-3.74,3.308,2.594.462.246-1.38.616.111-.24,1.38,1.189.209Z" transform="translate(-270.86 -131.12)"/><path class="d" d="M475.775,200.155l-1.2-.209-.277,1.565-.616-.1.277-1.571-3.364-.616.08-.444,3.869-3.395.678.123-3.727,3.339,2.594.462.246-1.38.616.1-.246,1.38,1.189.216Z" transform="translate(-276.553 -132.129)"/><path class="d" d="M484.757,201.318c-.185,1.017-1.035,1.682-2.464,1.423a3.111,3.111,0,0,1-2-1.152l.382-.431a2.63,2.63,0,0,0,1.713,1.017c1.01.179,1.639-.216,1.768-.943s-.259-1.331-1.774-1.6l-1.269-.222.838-2.939,3.265.579-.1.548-2.723-.487-.542,1.848.764.142C484.387,199.433,484.941,200.259,484.757,201.318Z" transform="translate(-280.273 -132.548)"/><path class="d" d="M494.4,203.133a1.891,1.891,0,0,1-2.366,1.472c-1.583-.283-2.249-1.534-1.916-3.419.364-2.027,1.657-2.889,3.278-2.6a2.754,2.754,0,0,1,1.355.573l-.333.45a2.187,2.187,0,0,0-1.109-.487c-1.288-.228-2.261.45-2.551,2.07,0,.136-.043.308-.062.493a1.941,1.941,0,0,1,2.008-.7A1.835,1.835,0,0,1,494.4,203.133Zm-.616-.086c.142-.789-.351-1.392-1.269-1.559a1.4,1.4,0,0,0-1.762,1.029c-.117.653.314,1.374,1.349,1.559a1.325,1.325,0,0,0,1.688-1.029Z" transform="translate(-284.014 -133.339)"/><path class="d" d="M507.563,205.378c-.179,1-1.041,1.633-2.464,1.374a3.123,3.123,0,0,1-2.008-1.146l.382-.431a2.661,2.661,0,0,0,1.725,1.017c.992.179,1.62-.185,1.75-.93s-.29-1.269-1.4-1.472l-.425-.074.08-.45,2.021-1.78-3.05-.542.1-.542,3.832.684-.074.431-2.07,1.848C507.211,203.634,507.729,204.423,507.563,205.378Z" transform="translate(-289.027 -134.057)"/><path class="d" d="M517.36,207.229a1.891,1.891,0,0,1-2.366,1.466c-1.583-.283-2.249-1.534-1.916-3.419.364-2.027,1.657-2.889,3.278-2.6a2.865,2.865,0,0,1,1.362.579l-.339.45a2.138,2.138,0,0,0-1.109-.487c-1.288-.234-2.261.45-2.551,2.07,0,.136-.043.308-.062.487a1.941,1.941,0,0,1,2.008-.7A1.854,1.854,0,0,1,517.36,207.229Zm-.616-.092c.142-.782-.351-1.392-1.269-1.553a1.4,1.4,0,0,0-1.768,1.029c-.117.653.32,1.374,1.349,1.559a1.325,1.325,0,0,0,1.694-1Z" transform="translate(-292.829 -134.91)"/><path class="d" d="M527.271,204.4l-.08.437-3.481,5.083-.665-.117,3.419-4.984-3.08-.548-.2,1.121-.616-.111.3-1.663Z" transform="translate(-296.506 -135.293)"/><path class="d" d="M541.071,206.872l-.074.437-3.487,5.083-.665-.117,3.425-4.984-3.08-.548-.2,1.121-.616-.111.3-1.663Z" transform="translate(-301.804 -136.241)"/><path class="d" d="M549.433,213.042c-.191,1.053-1.232,1.553-2.625,1.3s-2.187-1.072-2-2.125a1.522,1.522,0,0,1,1.411-1.263,1.368,1.368,0,0,1-.7-1.479c.172-.973,1.109-1.429,2.366-1.2s2,.98,1.848,1.947a1.38,1.38,0,0,1-1.189,1.146A1.534,1.534,0,0,1,549.433,213.042Zm-.616-.123c.129-.733-.419-1.306-1.479-1.5s-1.762.166-1.891.9.407,1.312,1.466,1.5,1.756-.16,1.891-.9Zm-1.392-1.978c.93.16,1.559-.154,1.676-.8s-.394-1.189-1.294-1.349-1.546.148-1.663.813.339,1.171,1.269,1.337Z" transform="translate(-305.035 -137.058)"/><path class="d" d="M559.243,213.323c-.364,2.027-1.657,2.883-3.278,2.594a2.754,2.754,0,0,1-1.355-.573l.333-.45a2.137,2.137,0,0,0,1.109.487c1.288.228,2.261-.45,2.551-2.07a4.563,4.563,0,0,0,.062-.487,1.947,1.947,0,0,1-2.008.7,1.835,1.835,0,0,1-1.688-2.15,1.891,1.891,0,0,1,2.36-1.472C558.916,210.181,559.582,211.438,559.243,213.323Zm-.616-1.337c.117-.659-.314-1.38-1.349-1.559a1.325,1.325,0,0,0-1.688,1.035c-.135.782.351,1.386,1.275,1.552a1.4,1.4,0,0,0,1.743-1.029Z" transform="translate(-308.807 -137.677)"/><path class="d" d="M571.475,212.263l-1.066,5.964-.616-.111.967-5.421-1.411-.246.1-.548Z" transform="translate(-314.466 -138.472)"/><path class="d" d="M578.51,219.374l-.117.579-4.183-.745.08-.437,2.908-1.99c.795-.542.992-.918,1.066-1.331.123-.69-.283-1.2-1.2-1.362a2.046,2.046,0,0,0-1.75.37l-.37-.45a2.723,2.723,0,0,1,2.267-.474c1.232.216,1.848.967,1.694,1.965a2.511,2.511,0,0,1-1.318,1.688l-2.384,1.633Z" transform="translate(-316.332 -139.071)"/><path class="d" d="M587.433,219.608c-.179,1-1.041,1.639-2.464,1.38a3.13,3.13,0,0,1-2.008-1.152l.382-.431a2.674,2.674,0,0,0,1.725,1.023c.992.173,1.62-.185,1.75-.93s-.29-1.275-1.4-1.472l-.425-.074.08-.45,2.021-1.78-3.05-.542.1-.548,3.832.684-.074.437-2.07,1.848C587.082,217.871,587.6,218.653,587.433,219.608Z" transform="translate(-319.691 -139.52)"/><rect class="d" width="2.631" height="48.547" transform="matrix(0.176, -0.984, 0.984, 0.176, 220.391, 80.659)"/><rect class="d" width="2.631" height="24.896" transform="matrix(0.176, -0.984, 0.984, 0.176, 242.75, 89.983)"/><g class="e" transform="translate(175.725 39.021)"><rect class="f" width="20.367" height="15.217" rx="4.96" transform="matrix(0.984, 0.176, -0.176, 0.984, 2.671, 0)"/></g><path class="g" d="M442.07,169.735l.173-.961,10.325,1.848a2.2,2.2,0,0,0,.77-4.313l-10.325-1.848.173-.961,10.325,1.848A3.173,3.173,0,0,1,452.4,171.6Z" transform="translate(-265.6 -119.89)"/><rect class="g" width="0.973" height="7.196" transform="translate(189.908 49.511) rotate(-79.84)"/><rect class="d" width="52.385" height="4.497" transform="matrix(0.984, 0.176, -0.176, 0.984, 182.971, 27.103)"/><rect class="c" width="87.322" height="90.095" rx="8.76" transform="translate(0 20.622) rotate(-13.66)"/><path class="d" d="M241.878,122.936a.464.464,0,0,0-.166.055l-.493.142-1.922.505-7.14,1.793-24.027,5.9-.16.043-.062-.16-1.528-3.844c-4.43-11.262-8.385-21.322-10.966-27.871l.148.074-6.407,1.5-1.713.382-.444.092a.456.456,0,0,1-.148,0,.347.347,0,0,0,.142-.055l.437-.123,1.688-.444L195.5,99.31h.1l.043.1,11.089,27.822c.524,1.318,1.041,2.618,1.522,3.844l-.222-.117,24.027-5.773,7.165-1.682,1.941-.437.505-.1Z" transform="translate(-167.614 -55.984)"/><path class="d" d="M212.12,121.272l.166-.062.5-.136,1.922-.5,7.214-1.811,24.908-6.118-.142.191c-.277-4.374-.585-9.106-.9-14-.154-2.52-.314-5-.462-7.356l.24.179L216.18,98.736l-8.711,2.058-2.353.536-.616.129a.678.678,0,0,1-.209.031,1.165,1.165,0,0,1,.2-.068l.616-.16,2.335-.616,8.687-2.169,29.356-7.2.222-.055v.228c.148,2.36.308,4.836.468,7.356.308,4.892.616,9.623.881,14v.16L246.9,113,221.977,119l-7.239,1.7-1.941.437-.5.111A.912.912,0,0,1,212.12,121.272Z" transform="translate(-174.31 -52.878)"/><path class="d" d="M234.283,160.758c-.037,0-.1-.29-.376-.758a3.463,3.463,0,0,0-1.67-1.472,3.308,3.308,0,1,0,1.232,5.157,3.493,3.493,0,0,0,.807-2.076c0-.536-.055-.838,0-.85s.037.074.08.216a2.685,2.685,0,0,1,.092.616,3.481,3.481,0,0,1-.745,2.249,3.6,3.6,0,0,1-3.2,1.355,3.641,3.641,0,0,1-1.62-6.672,3.592,3.592,0,0,1,3.468-.265,3.45,3.45,0,0,1,1.688,1.651,2.624,2.624,0,0,1,.216.616C234.289,160.684,234.3,160.758,234.283,160.758Z" transform="translate(-183.116 -78.49)"/><path class="d" d="M269.581,152.238c-.037,0-.111-.29-.376-.764a3.456,3.456,0,0,0-1.67-1.466,3.3,3.3,0,1,0,1.232,5.15,3.518,3.518,0,0,0,.807-2.07c0-.542-.055-.844,0-.85s.037.068.08.209a2.5,2.5,0,0,1,.086.616,3.45,3.45,0,0,1-.776,2.255,3.586,3.586,0,0,1-3.2,1.355A3.641,3.641,0,0,1,264.141,150a3.592,3.592,0,0,1,3.469-.265,3.444,3.444,0,0,1,1.694,1.651,2.3,2.3,0,0,1,.209.616A.536.536,0,0,1,269.581,152.238Z" transform="translate(-196.654 -75.219)"/><path class="d" d="M270.321,78.278a9.919,9.919,0,1,1-11.976-7.294,9.919,9.919,0,0,1,11.976,7.294Z" transform="translate(-192.152 -45)"/><path class="g" d="M268.2,80.81a10.367,10.367,0,0,1-.893,1.848c-.616,1.115-1.442,2.643-2.4,4.313l-1.029,1.78-.086.154-.16-.08c-1.232-.672-2.347-1.232-3.08-1.688a6.1,6.1,0,0,1-1.177-.739,5.846,5.846,0,0,1,1.288.53c.789.376,1.9.918,3.173,1.565l-.246.074c.314-.567.659-1.171,1.01-1.793.955-1.676,1.848-3.179,2.5-4.257a9.673,9.673,0,0,1,1.1-1.707Z" transform="translate(-195.456 -48.881)"/></g><g transform="translate(50 316.165)"><path class="h" d="M445.088,466.49c0,.086-88.45.16-197.532.16S50,466.576,50,466.49s88.431-.16,197.55-.16S445.088,466.4,445.088,466.49Z" transform="translate(-50 -466.33)"/></g><g transform="translate(194.58 75.2)"><path class="i" d="M384.28,316.448l-81.851-.382a17.829,17.829,0,0,1-17.749-17.9l.869-205.22A17.866,17.866,0,0,1,303.464,75.2l81.833.376a17.866,17.866,0,0,1,17.749,17.909l-.85,205.226A17.866,17.866,0,0,1,384.28,316.448Z" transform="translate(-284.68 -75.2)"/><path class="j" d="M388.589,87.091l-15.87-.074a3.943,3.943,0,0,0-3.869,4.011V93.9a3.937,3.937,0,0,1-3.869,4.011l-30.939-.142a3.937,3.937,0,0,1-3.832-4.048V90.849a3.955,3.955,0,0,0-3.838-4.048H320.79L306.9,86.74a12.488,12.488,0,0,0-12.543,12.432l-.844,200.273a12.488,12.488,0,0,0,12.426,12.543l81.691.376a12.488,12.488,0,0,0,12.543-12.439l.838-200.3a12.488,12.488,0,0,0-12.42-12.537Z" transform="translate(-288.07 -79.63)"/><path class="h" d="M444.578,114.95a13.235,13.235,0,0,1-2.052.1c-1.275,0-3.043.049-5.039.055h-.142v-.136c-.037-.271-.08-.554-.117-.838-.345-2.464-.616-4.645-.789-6.062l.1.086a11.137,11.137,0,0,1-1.848-.1,11.706,11.706,0,0,1,1.848-.1h.086v.086c.228,1.411.561,3.6.9,6.05.043.283.08.567.117.832l-.154-.136c2,0,3.764,0,5.039.055a13.233,13.233,0,0,1,2.052.1Z" transform="translate(-342.273 -87.775)"/><path class="h" d="M438.51,114.144a3,3,0,0,1,.548-.049l1.516-.043c1.3,0,3.123-.049,5.237-.055l-.154.123.493-2.822c.092-.505.179-1,.265-1.479l.154.185c-2.464,0-4.614,0-6.161-.055l-1.848-.043a2.463,2.463,0,0,1-.659-.062,3.161,3.161,0,0,1,.659-.055l1.848-.049c1.553,0,3.7-.043,6.161-.049h.191v.185c-.086.474-.172.973-.259,1.479-.179.986-.351,1.934-.505,2.822v.129h-.129c-2.113,0-3.937,0-5.237-.055l-1.516-.043A2.169,2.169,0,0,1,438.51,114.144Z" transform="translate(-343.505 -88.442)"/><path class="h" d="M441.121,121.91c-.049,0-.049-.277-.345-.474a.616.616,0,0,0-.554-.055.567.567,0,0,0,0,1.053.616.616,0,0,0,.554-.055c.3-.191.3-.481.345-.468s.049.062.043.185a.739.739,0,0,1-.253.468.819.819,0,0,1-.789.148.85.85,0,0,1,0-1.608.82.82,0,0,1,.789.148.739.739,0,0,1,.253.468C441.17,121.842,441.145,121.91,441.121,121.91Z" transform="translate(-344.138 -92.807)"/><path class="h" d="M448.527,121.91c-.049,0-.049-.277-.345-.474a.616.616,0,0,0-.554-.055.567.567,0,0,0,0,1.053.616.616,0,0,0,.554-.055c.3-.191.3-.481.345-.468s.049.062.043.185a.739.739,0,0,1-.253.468.819.819,0,0,1-.789.148.844.844,0,0,1-.579-.8.856.856,0,0,1,.579-.807.819.819,0,0,1,.789.148.739.739,0,0,1,.253.468C448.576,121.842,448.552,121.91,448.527,121.91Z" transform="translate(-346.98 -92.807)"/><path class="h" d="M324.991,120.417a116.427,116.427,0,0,1-12.211,0,116.427,116.427,0,0,1,12.211,0Z" transform="translate(-295.468 -92.49)"/><path class="h" d="M324.991,116.668a116.421,116.421,0,0,1-12.211,0,116.449,116.449,0,0,1,12.211,0Z" transform="translate(-295.468 -91.052)"/><path class="h" d="M324.991,112.888a116.435,116.435,0,0,1-12.211,0,116.438,116.438,0,0,1,12.211,0Z" transform="translate(-295.468 -89.601)"/><g class="k" transform="translate(30.631 60.744)"><path class="l" d="M353.64,173.8s-8.194-.111-10,2.569-9.241,19.357-9.241,19.357l11.625,6.05,2.5-7.146,4.078,14.94c-4.67,3.7-11.286,37.353-9.968,51.528l43.667.142s.3-39.33-11.508-52.261l2.766-15.617,2.668,7.621,12.321-5.113-9.272-16.677a8.982,8.982,0,0,0-7.8-4.614h-3.025s-1.275,11.163-9.389,10.948S353.64,173.8,353.64,173.8Z" transform="translate(-334.4 -173.799)"/><path class="j" d="M418.484,252.183a1.013,1.013,0,0,1,0-.2,2.7,2.7,0,0,0-.049-.579,5.93,5.93,0,0,0-.1-.936,9.24,9.24,0,0,0-.265-1.232,11.614,11.614,0,0,0-1.362-3.228,12.093,12.093,0,0,0-14.527-5.138,11.206,11.206,0,0,0-3.05,1.645,13.466,13.466,0,0,0-1.368,1.158,13.71,13.71,0,0,0-1.183,1.4,12.106,12.106,0,0,0-2.347,7.122,13.067,13.067,0,0,0,.616,3.807,11.853,11.853,0,0,0,1.725,3.327,11.09,11.09,0,0,0,2.551,2.563,11.378,11.378,0,0,0,3.05,1.645A12.112,12.112,0,0,0,416.7,258.4a11.428,11.428,0,0,0,1.362-3.228,9.389,9.389,0,0,0,.265-1.232,6.083,6.083,0,0,0,.1-.936,5.531,5.531,0,0,1,.049-.579,1.013,1.013,0,0,1,0-.2.967.967,0,0,1,0,.2v.585a5.749,5.749,0,0,1-.08.943,8.264,8.264,0,0,1-.234,1.269,11.5,11.5,0,0,1-1.331,3.29,12.282,12.282,0,0,1-14.78,5.329,11.526,11.526,0,0,1-3.136-1.676,14.94,14.94,0,0,1-1.4-1.189,13.553,13.553,0,0,1-1.232-1.435,12.03,12.03,0,0,1-1.774-3.407,13.172,13.172,0,0,1-.616-3.912,12.414,12.414,0,0,1,2.409-7.356,13.512,13.512,0,0,1,1.232-1.429,14.075,14.075,0,0,1,1.4-1.189,11.812,11.812,0,0,1,3.136-1.682,12.276,12.276,0,0,1,14.78,5.335,11.471,11.471,0,0,1,1.331,3.284,8.2,8.2,0,0,1,.234,1.275,5.7,5.7,0,0,1,.08.943v.585A.969.969,0,0,1,418.484,252.183Z" transform="translate(-357.24 -199.151)"/><path class="j" d="M359.973,209.6a15.454,15.454,0,0,0-.345-2.193,8.93,8.93,0,0,0-15.827-3.08,8.828,8.828,0,0,0,0,10.473,8.269,8.269,0,0,0,1.848,1.885,8.361,8.361,0,0,0,2.243,1.232,8.884,8.884,0,0,0,4.67.394,8.779,8.779,0,0,0,3.752-1.651,9.007,9.007,0,0,0,3.29-4.929,15.325,15.325,0,0,0,.345-2.187.537.537,0,0,1,0,.148c0,.111,0,.253,0,.431a3.859,3.859,0,0,1-.055.7,6.235,6.235,0,0,1-.166.943,8.57,8.57,0,0,1-.98,2.464,9.161,9.161,0,0,1-10.978,3.931,8.347,8.347,0,0,1-2.329-1.232,8.583,8.583,0,0,1-1.947-1.947,9.124,9.124,0,0,1,0-10.861,8.712,8.712,0,0,1,1.947-1.947,8.49,8.49,0,0,1,2.329-1.232,9.1,9.1,0,0,1,10.954,3.961,8.624,8.624,0,0,1,.98,2.433,6.441,6.441,0,0,1,.166.949,3.777,3.777,0,0,1,.055.7v.431a.535.535,0,0,1,.049.191Z" transform="translate(-337.203 -184.01)"/><path class="j" d="M367.786,299.842c-.031,0-.031-.246-.148-.659a2.742,2.742,0,0,0-1.017-1.448,2.631,2.631,0,1,0,0,4.22,2.742,2.742,0,0,0,1.017-1.448c.117-.419.117-.665.148-.665s0,.062,0,.179a2.251,2.251,0,0,1-.049.517,2.754,2.754,0,0,1-1,1.6,2.877,2.877,0,0,1-2.742.45,2.908,2.908,0,0,1,0-5.477,2.877,2.877,0,0,1,2.742.45,2.754,2.754,0,0,1,1,1.6,2.2,2.2,0,0,1,.049.511C367.8,299.786,367.8,299.842,367.786,299.842Z" transform="translate(-345.022 -221.076)"/><path class="j" d="M360,184.7c-.031,0-.031-.246-.148-.659a2.742,2.742,0,0,0-1.017-1.448,2.631,2.631,0,1,0,0,4.22,2.779,2.779,0,0,0,1.016-1.454c.117-.413.117-.659.148-.659a.456.456,0,0,1,0,.179,1.67,1.67,0,0,1-.049.511,2.7,2.7,0,0,1-1,1.6,2.859,2.859,0,0,1-2.735.45,2.908,2.908,0,0,1,0-5.477,2.859,2.859,0,0,1,2.735.45,2.692,2.692,0,0,1,1,1.6,1.683,1.683,0,0,1,.049.511A.456.456,0,0,1,360,184.7Z" transform="translate(-342.035 -176.87)"/><path class="j" d="M368.3,271.566a1.675,1.675,0,0,1-.055-.259c-.037-.191-.08-.437-.136-.739-.111-.665-.271-1.6-.468-2.772l-1.614-9.8.154.117-13.591,2.162.136-.185h0v.222l.037.228.074.468c.049.308.092.616.142.918.1.616.191,1.232.283,1.817.191,1.2.376,2.378.548,3.518.357,2.279.69,4.436,1,6.413l-.16-.117,9.833-1.448,2.785-.4.745-.1.265-.031a.972.972,0,0,1-.228.055l-.715.129-2.742.468-9.888,1.626h-.136v-.142c-.314-1.978-.659-4.128-1.023-6.407q-.277-1.719-.561-3.518c-.092-.616-.185-1.2-.283-1.817l-.148-.918-.074-.468-.037-.228v-.222h0c-.123.166.16-.222.129-.185l13.6-2.113h.142v.136c.616,4.078,1.127,7.491,1.491,9.913.166,1.164.3,2.088.394,2.754.037.3.074.53.1.715A1.144,1.144,0,0,1,368.3,271.566Z" transform="translate(-341.314 -206.065)"/><path class="j" d="M396.585,208.375a1.755,1.755,0,0,1,.154-.271c.117-.185.277-.431.468-.745l1.774-2.791c1.546-2.4,3.7-5.791,6.333-9.857l.037.2-13.591-8.828.222-.049h0l-.037.062-.08.111-.148.234-.3.462-.616.924-1.183,1.848-2.286,3.505-4.189,6.4-.043-.2,9.771,6.45,2.754,1.848.733.493.253.185a1.232,1.232,0,0,1-.246-.142l-.727-.45L392.871,206l-9.943-6.358-.117-.074.074-.117c1.288-1.978,2.68-4.134,4.165-6.413l2.279-3.518,1.183-1.811.616-.924.3-.462.154-.234.074-.117.037-.055h0l.228-.049,13.554,8.865.117.074-.074.117-6.5,9.857-1.817,2.723-.48.708q-.064.083-.136.16Z" transform="translate(-352.986 -178.433)"/><path class="j" d="M383.206,289.7l-.055.1-.154.283-.616,1.078-2.236,3.986c-1.9,3.364-4.645,8.151-7.861,13.745l-.129-.228h22.08l-.129.228c-3.216-5.594-5.97-10.381-7.861-13.745l-2.236-3.986-.616-1.078c-.062-.111-.117-.2-.154-.283l-.055-.1a2.671,2.671,0,0,1,.209.339l.616,1.029L386.335,295c2.015,3.4,4.781,8.175,8.009,13.745l.129.228h-22.6l.136-.228c3.234-5.545,6-10.344,8.009-13.745l2.329-3.931.616-1.029A2.671,2.671,0,0,1,383.206,289.7Z" transform="translate(-348.786 -218.296)"/><path class="j" d="M376.059,232.52s.031.092.08.246.117.407.2.672l.715,2.464c.616,2.064,1.411,5.058,2.36,8.551l-.253-.068L383.532,240l4.393-4.374.068.253c-3.493-.955-6.487-1.768-8.551-2.36l-2.464-.721-.672-.2a1.424,1.424,0,0,1-.246-.08l.209.043.647.16,2.464.616c2.175.536,5.169,1.331,8.662,2.249l.259.068-.191.185c-1.349,1.362-2.834,2.846-4.374,4.393l-4.386,4.374-.185.185-.062-.271c-.924-3.5-1.713-6.487-2.255-8.662-.253-1.035-.456-1.848-.616-2.464l-.154-.653A.875.875,0,0,1,376.059,232.52Z" transform="translate(-350.394 -196.344)"/></g><path class="h" d="M386.509,230.974c0,.092-4.929.283-11.089.431s-11.089.2-11.089.111,4.929-.283,11.089-.431S386.509,230.887,386.509,230.974Z" transform="translate(-315.26 -134.989)"/><path class="h" d="M351.4,191.18a54.466,54.466,0,0,1,2.064,5.434,55.115,55.115,0,0,1,1.762,5.545,50.872,50.872,0,0,1-2.064-5.44A51.693,51.693,0,0,1,351.4,191.18Z" transform="translate(-310.295 -119.728)"/><path class="h" d="M405.156,192.41a9.413,9.413,0,0,1-.117,1.774c-.117,1.09-.314,2.587-.579,4.239s-.548,3.142-.776,4.214a9.182,9.182,0,0,1-.444,1.719,9.575,9.575,0,0,1,.222-1.762l.684-4.22c.253-1.6.48-3.037.671-4.22a9.69,9.69,0,0,1,.339-1.743Z" transform="translate(-330.198 -120.2)"/><path class="h" d="M368.053,238.969a3.209,3.209,0,0,1-.24-1.171,9.106,9.106,0,0,1,1.368-5.545,3.161,3.161,0,0,1,.758-.924,12.247,12.247,0,0,0-1.885,7.627Z" transform="translate(-316.586 -135.142)"/><path class="h" d="M373.384,235.646a3.844,3.844,0,0,1-.345-2,3.912,3.912,0,0,1,.4-1.99,18.064,18.064,0,0,1-.08,2C373.335,234.747,373.477,235.628,373.384,235.646Z" transform="translate(-318.597 -135.269)"/><path class="h" d="M395.575,277.5a1.583,1.583,0,0,1-.37-.154,10.589,10.589,0,0,1-1.023-.53,18.827,18.827,0,0,1-3.425-2.5,23.867,23.867,0,0,1-4.023-4.824,30.867,30.867,0,0,1-3.265-6.968,56.477,56.477,0,0,1-2.292-13.757c-.1-1.78-.154-3.228-.185-4.226V243.39a1.658,1.658,0,0,1,0-.4,2.725,2.725,0,0,1,.049.394c0,.3.049.678.08,1.146.074,1.035.173,2.464.29,4.214a59.766,59.766,0,0,0,2.372,13.677,31.078,31.078,0,0,0,3.21,6.906,24.341,24.341,0,0,0,3.924,4.818,20.393,20.393,0,0,0,3.333,2.557C395.094,277.219,395.587,277.5,395.575,277.5Z" transform="translate(-321.652 -139.619)"/><g class="m" transform="translate(59.242 107.603)"><path d="M381.37,249.86a25.037,25.037,0,0,0,9.241,16.178c1.848,1.442,3.986,2.779,4.762,4.978a7.613,7.613,0,0,1-.585,5.5,2.6,2.6,0,0,1-1.479,1.62,2.633,2.633,0,0,1-2.125-.715c-4.048-3.05-6.654-7.7-8.114-12.549s-1.848-9.95-2.23-15" transform="translate(-380.84 -249.86)"/></g><path class="h" d="M392.029,354.45c0,.092-10.412.16-23.244.16s-23.244-.068-23.244-.16,10.405-.16,23.244-.16S392.029,354.364,392.029,354.45Z" transform="translate(-308.046 -182.35)"/><path class="h" d="M392.029,146.41c0,.086-10.412.16-23.244.16s-23.244-.074-23.244-.16,10.405-.16,23.244-.16S392.029,146.318,392.029,146.41Z" transform="translate(-308.046 -102.478)"/><path class="h" d="M392.029,360.68c0,.086-10.412.16-23.244.16s-23.244-.074-23.244-.16,10.405-.16,23.244-.16S392.029,360.594,392.029,360.68Z" transform="translate(-308.046 -184.742)"/><path d="M376.349,378.92v6.691H374.8v-5.452H373.46v-1.232Z" transform="translate(-318.765 -191.806)"/><path d="M380,382.192c0-2.212,1.232-3.462,2.871-3.462s2.871,1.232,2.871,3.462-1.232,3.462-2.871,3.462S380,384.4,380,382.192Zm4.183,0c0-1.522-.536-2.15-1.312-2.15s-1.3.616-1.3,2.15.536,2.15,1.3,2.15,1.337-.628,1.337-2.15Z" transform="translate(-321.276 -191.733)"/><path class="h" d="M394.889,380.452a1.331,1.331,0,0,1-1.392,1.466,1.429,1.429,0,0,1-.752-.191l.234-.462a.844.844,0,0,0,.505.136.721.721,0,0,0,.77-.789.955.955,0,0,1-.678.24.863.863,0,0,1-.936-.844.936.936,0,0,1,1.029-.912C394.427,379.1,394.889,379.571,394.889,380.452Zm-.7-.474c0-.234-.179-.407-.48-.407a.41.41,0,1,0,.012.813.425.425,0,0,0,.468-.407Z" transform="translate(-326.129 -191.872)"/><path class="h" d="M398.909,380.452a1.331,1.331,0,0,1-1.392,1.466,1.429,1.429,0,0,1-.752-.191l.234-.462a.85.85,0,0,0,.511.136.721.721,0,0,0,.764-.789.955.955,0,0,1-.678.24.863.863,0,0,1-.936-.844.936.936,0,0,1,1.029-.912C398.447,379.1,398.909,379.571,398.909,380.452Zm-.708-.474a.468.468,0,1,0-.462.407.419.419,0,0,0,.462-.407Z" transform="translate(-327.672 -191.872)"/><rect class="h" width="4.781" height="0.604" transform="translate(66.431 190.977)"/><path class="l" d="M388.83,346.49c0,.086-5.76.16-12.87.16s-12.87-.074-12.87-.16,5.76-.16,12.87-.16S388.83,346.4,388.83,346.49Z" transform="translate(-314.784 -179.294)"/><circle class="n" cx="9.29" cy="9.29" r="9.29" transform="translate(83.031 184.971) rotate(-22.5)"/><path class="j" d="M435.35,385.583a3,3,0,0,1,.511-.456c.345-.283.844-.678,1.466-1.158,1.232-.967,2.982-2.286,4.929-3.727v.259h0l-.043-.037-.092-.068-.179-.129-.351-.271-.69-.518-1.306-.986-2.2-1.682-1.466-1.158a3.159,3.159,0,0,1-.511-.462,2.644,2.644,0,0,1,.585.357l1.528,1.078,2.243,1.633,1.312.967.7.518.357.265.179.136.086.062.049.037h0v.259c-1.928,1.442-3.7,2.729-4.966,3.647l-1.528,1.078A2.642,2.642,0,0,1,435.35,385.583Z" transform="translate(-342.526 -190.374)"/><circle class="n" cx="9.29" cy="9.29" r="9.29" transform="translate(14.187 197.693) rotate(-80.78)"/><path class="j" d="M324.387,375.14a2.838,2.838,0,0,1-.511.462c-.339.277-.844.672-1.466,1.158-1.232.967-2.976,2.279-4.929,3.7V380.2h0l.049.031.086.068.179.136.357.265.69.517,1.306.986,2.193,1.688c.616.481,1.127.875,1.466,1.158a2.713,2.713,0,0,1,.511.456,2.816,2.816,0,0,1-.585-.357l-1.528-1.078-2.236-1.626-1.318-.973-.69-.517-.357-.259-.179-.136-.092-.068-.043-.031h0V380.2c1.928-1.435,3.7-2.723,4.959-3.647.616-.419,1.109-.782,1.528-1.078a2.816,2.816,0,0,1,.61-.339Z" transform="translate(-297.2 -190.355)"/><rect class="g" width="18.562" height="18.562" transform="translate(18.341 205.83)"/><rect class="g" width="18.562" height="18.562" transform="translate(41.887 205.83)"/><rect class="g" width="18.562" height="18.562" transform="translate(65.439 205.83)"/><rect class="g" width="18.562" height="18.562" transform="translate(88.986 205.83)"/><rect class="l" width="34.636" height="1.971" transform="translate(43.014 37.488)"/></g><g transform="translate(374.966 265.663)"><path class="h" d="M596.885,399.927a1.283,1.283,0,0,1-.031-.363c0-.277,0-.616,0-1.047,0-.955-.031-2.261-.049-3.857v-4.146a11.643,11.643,0,0,1,.049-1.589,5.28,5.28,0,0,1,10.313-.721,5.749,5.749,0,0,1,.2,1.6v4.146c0,1.6-.037,2.9-.049,3.857a10.321,10.321,0,0,1-.031,1.047,1.667,1.667,0,0,1,0,.363,1.279,1.279,0,0,1,0-.363c0-.277,0-.616-.031-1.047,0-.955,0-2.261-.055-3.857v-2.661a11.54,11.54,0,0,0-.21-2.994,4.99,4.99,0,0,0-8.28-2.193,5.045,5.045,0,0,0-1.454,2.871,12.975,12.975,0,0,0-.056,1.546v4.146c0,1.6-.037,2.9-.049,3.857v1.047a1.662,1.662,0,0,1-.265.363Z" transform="translate(-584.896 -384.356)"/><path class="h" d="M607.2,399.927a1.276,1.276,0,0,1,0-.363c0-.277,0-.616-.031-1.047,0-.955,0-2.261-.055-3.857v-4.146a11.653,11.653,0,0,1,.049-1.589,5.277,5.277,0,0,1,10.307-.721,5.548,5.548,0,0,1,.2,1.6v4.146c0,1.6-.037,2.9-.049,3.857v1.047a1.667,1.667,0,0,1,0,.363,1.4,1.4,0,0,1-.037-.363V397.8c0-.955-.031-2.261-.055-3.857v-2.661a11.541,11.541,0,0,0-.21-2.994,4.99,4.99,0,0,0-9.734.678,11.8,11.8,0,0,0-.055,1.546v4.146c0,1.6-.037,2.9-.049,3.857l-.031,1.047A1.661,1.661,0,0,1,607.2,399.927Z" transform="translate(-588.854 -384.357)"/><path class="l" d="M581.762,405.23l-4.282,37.821h29.4l3.709-37.821Z" transform="translate(-577.48 -392.37)"/><path class="l" d="M628.909,405.23h6.142l5.187,37.821H625.2Z" transform="translate(-595.801 -392.37)"/><g class="o" transform="translate(29.399 12.86)"><path d="M628.909,405.23h6.142l5.187,37.821H625.2Z" transform="translate(-625.2 -405.23)"/></g><path class="j" d="M581.418,422.5l28.253,7.522-1.435,14.656-28.506-7.245Z" transform="translate(-578.344 -399)"/></g><g transform="translate(280.005 210.388)"><path class="h" d="M500.856,311a19.043,19.043,0,0,0-.2,11.576c.7,2.31,1.848,4.621,1.5,7-.29,1.947-1.553,3.647-1.805,5.6-.505,3.968,3.265,7.726,2.255,11.595a6.161,6.161,0,0,1-3.616,3.912,11.243,11.243,0,0,1-5.421.684c-2.7-.234-5.631-1.232-6.882-3.7-1-1.922-.684-4.232-.339-6.364,1.528-9.438,3.29-18.944,7.116-27.723" transform="translate(-447.4 -300.918)"/><path class="h" d="M509.265,341.8a2.044,2.044,0,0,1-.314.1,3.316,3.316,0,0,1-.955.08,3.641,3.641,0,0,1-1.454-.419,3.271,3.271,0,0,1-1.392-1.423,3.61,3.61,0,0,1-.277-2.4,3.4,3.4,0,0,1,.579-1.232,5.194,5.194,0,0,1,1.029-1.017,28.114,28.114,0,0,0,2.464-1.848,4.885,4.885,0,0,0,1.368-2.852,8.219,8.219,0,0,0-.234-3.21,18.524,18.524,0,0,0-1.072-2.846,23.684,23.684,0,0,1-1.848-4.836,7.308,7.308,0,0,1,0-3.487,3.776,3.776,0,0,1,.505-1.177,6.509,6.509,0,0,0-.388,4.633,24.031,24.031,0,0,0,1.891,4.793,18.777,18.777,0,0,1,1.1,2.871,8.484,8.484,0,0,1,.24,3.29,5.027,5.027,0,0,1-1.429,2.957,26.6,26.6,0,0,1-2.464,1.848,3.807,3.807,0,0,0-1.553,2.15,3.45,3.45,0,0,0,.24,2.3,3.228,3.228,0,0,0,1.325,1.392,3.7,3.7,0,0,0,1.4.437A4.088,4.088,0,0,0,509.265,341.8Z" transform="translate(-454.607 -302.542)"/><path class="p" d="M440.744,457l-1.54,5.9-15.864-.148s1.164-2.778,9.857-2.649l.616-3.08Z" transform="translate(-423.34 -356.971)"/><path class="i" d="M542.733,313.36c-.154.3-4.183,21-4.183,21l9.494.444,3.7-17.8Z" transform="translate(-467.572 -301.824)"/><path class="h" d="M537.874,334.393l-1.084-.462,4.109-20.4,1.288-.086Z" transform="translate(-466.897 -301.855)"/><path class="h" d="M551.527,320.432a.493.493,0,1,0,.548-.425.487.487,0,0,0-.548.425Z" transform="translate(-472.553 -304.374)"/><path class="p" d="M552.272,338l.142-2.711-4.054-1.676,1.583-3.752A3.271,3.271,0,0,1,554.5,328.3l1.651.893a4.657,4.657,0,0,1,2.31,3,60.717,60.717,0,0,1,.943,6.623" transform="translate(-471.339 -307.41)"/><path class="l" d="M569.934,456.28s16.683,4.621,17.355,4.855c1,.357.838,4.035-.727,3.98-.739,0-12.814.45-14.342.357s-6.13-1.91-6.13-1.91Z" transform="translate(-478.145 -356.695)"/><path class="h" d="M583.609,464.547a15.777,15.777,0,0,1,.739-1.793,15.994,15.994,0,0,1,1.177-1.534,3.7,3.7,0,0,0-1.916,3.327Z" transform="translate(-484.871 -358.591)"/><path class="h" d="M580.788,463.355c.08,0,.253-.776.7-1.645s.967-1.485.906-1.54a3.15,3.15,0,0,0-1.158,1.411,3.229,3.229,0,0,0-.443,1.774Z" transform="translate(-483.788 -358.188)"/><path class="h" d="M578.087,462.557a12.041,12.041,0,0,1,.394-1.762,11.81,11.81,0,0,1,.906-1.565A3.136,3.136,0,0,0,578.087,462.557Z" transform="translate(-482.719 -357.827)"/><path class="h" d="M577.8,458.716a2.915,2.915,0,0,0,.179-1.232,5.7,5.7,0,0,0-.166-1.355,5.927,5.927,0,0,0-.247-.776.9.9,0,0,0-.271-.407.45.45,0,0,0-.573,0,.752.752,0,0,0-.222.474,2.65,2.65,0,0,0,0,.437,3.474,3.474,0,0,0,.1.819,4.925,4.925,0,0,0,.518,1.275,3.48,3.48,0,0,0,.745,1c.043,0-.24-.413-.573-1.1a5.776,5.776,0,0,1-.437-1.232,3.821,3.821,0,0,1-.08-.764c0-.259,0-.579.154-.7a.172.172,0,0,1,.222,0,.763.763,0,0,1,.185.3,7.381,7.381,0,0,1,.253.733,6.674,6.674,0,0,1,.216,1.306C577.835,458.236,577.761,458.71,577.8,458.716Z" transform="translate(-482.14 -356.143)"/><path class="h" d="M576.513,460.739a2.465,2.465,0,0,0-1.078-.173,4.837,4.837,0,0,0-1.183.148,2.384,2.384,0,0,0-.684.253.7.7,0,0,0-.376.758.832.832,0,0,0,.616.616,1.523,1.523,0,0,0,.745,0,2.835,2.835,0,0,0,1.084-.536,2.915,2.915,0,0,0,.776-.764,7.053,7.053,0,0,0-.887.616,3,3,0,0,1-1.023.444,1.325,1.325,0,0,1-.616,0,.561.561,0,0,1-.407-.394.443.443,0,0,1,.253-.468,2.554,2.554,0,0,1,.616-.234,5.748,5.748,0,0,1,1.121-.2C576.094,460.721,576.507,460.789,576.513,460.739Z" transform="translate(-480.868 -358.339)"/><path class="h" d="M587.691,465.154a8.535,8.535,0,0,1,.327-1.5,8.2,8.2,0,0,1,.819-1.306,1.989,1.989,0,0,0-1.078,1.2A1.947,1.947,0,0,0,587.691,465.154Z" transform="translate(-486.384 -359.02)"/><path class="h" d="M568.88,468.157a3.522,3.522,0,0,0,.616.3,14.1,14.1,0,0,0,1.848.573,26.038,26.038,0,0,0,6.37.616c2.5,0,4.756-.136,6.389-.2l1.934-.1a3.513,3.513,0,0,0,.7-.074,3.382,3.382,0,0,0-.708-.031H584.1l-6.383.123a29.762,29.762,0,0,1-6.327-.518C569.829,468.514,568.9,468.1,568.88,468.157Z" transform="translate(-479.217 -361.253)"/><path class="h" d="M568.08,467.895a13.048,13.048,0,0,0,1.232-.561,5.822,5.822,0,0,1,3.154-.53,5.033,5.033,0,0,1,2.729,1.626,10.2,10.2,0,0,0,.961.98,5.329,5.329,0,0,0-.813-1.115,6.78,6.78,0,0,0-1.109-1.035,3.907,3.907,0,0,0-1.725-.727,5.471,5.471,0,0,0-3.284.616,4.449,4.449,0,0,0-1.146.746Z" transform="translate(-478.91 -360.615)"/><path class="l" d="M533.185,448.81s-15.765,10.338-16.381,10.763c-.85.616.129,3.7,1.6,3.173.7-.253,13.942-3.937,15.365-4.491s5.261-3.7,5.261-3.7Z" transform="translate(-459.102 -353.827)"/><path class="h" d="M534.234,460.467a3.019,3.019,0,0,0-1.06-1.688,2.932,2.932,0,0,0-1.774-.9,15.4,15.4,0,0,1,1.589,1.1,17.484,17.484,0,0,1,1.244,1.485Z" transform="translate(-464.827 -357.309)"/><path class="h" d="M536.743,458.414a4.158,4.158,0,0,0-2.464-2.544c-.043.068.653.487,1.331,1.189S536.669,458.451,536.743,458.414Z" transform="translate(-465.932 -356.537)"/><path class="h" d="M539.189,456.792a3.13,3.13,0,0,0-2.249-2.772,11.32,11.32,0,0,1,1.337,1.232,11.738,11.738,0,0,1,.912,1.54Z" transform="translate(-466.954 -355.827)"/><path class="h" d="M538.555,452.874c.037,0-.179-.444-.357-1.177a6.4,6.4,0,0,1-.185-1.312,6.614,6.614,0,0,1,0-.776.794.794,0,0,1,.086-.333.16.16,0,0,1,.216-.049c.185.074.277.376.363.616a3.739,3.739,0,0,1,.154.745,5.347,5.347,0,0,1-.043,1.318c-.111.745-.259,1.232-.216,1.232a3.384,3.384,0,0,0,.413-1.189,4.925,4.925,0,0,0,.1-1.368,3.9,3.9,0,0,0-.148-.813,4.231,4.231,0,0,0-.154-.413.757.757,0,0,0-.357-.382.45.45,0,0,0-.555.148.967.967,0,0,0-.129.474,5.967,5.967,0,0,0,0,.813,5.855,5.855,0,0,0,.253,1.343,2.859,2.859,0,0,0,.561,1.121Z" transform="translate(-467.256 -353.874)"/><path class="h" d="M539,454.6c0,.043.394-.148,1.029-.3a5.732,5.732,0,0,1,1.134-.154,2.274,2.274,0,0,1,.647.043.425.425,0,0,1,.376.37.561.561,0,0,1-.265.5,1.325,1.325,0,0,1-.616.2,3.037,3.037,0,0,1-1.115-.111,6.777,6.777,0,0,0-1.029-.308,2.853,2.853,0,0,0,.973.493,2.81,2.81,0,0,0,1.2.179,1.553,1.553,0,0,0,.715-.222.838.838,0,0,0,.388-.752.7.7,0,0,0-.616-.616,2.648,2.648,0,0,0-.721-.037,4.932,4.932,0,0,0-1.177.222A2.465,2.465,0,0,0,539,454.6Z" transform="translate(-467.745 -355.771)"/><path class="h" d="M521.856,468.056a1.038,1.038,0,0,0,.388-.616,2.341,2.341,0,0,0-.3-1.713,6.485,6.485,0,0,0-.53-.789,2.846,2.846,0,0,0-.536-.573.93.93,0,0,0-.505-.216c-.129,0-.2,0-.2.043a1.5,1.5,0,0,1,.573.32,3.7,3.7,0,0,1,.456.573c.16.24.339.493.493.776a2.427,2.427,0,0,1,.345,1.54A6.275,6.275,0,0,1,521.856,468.056Z" transform="translate(-460.52 -359.716)"/><path class="h" d="M530.887,462.169a2.378,2.378,0,0,0-1.947-2.329,8.629,8.629,0,0,1,1.177.992,9.132,9.132,0,0,1,.77,1.337Z" transform="translate(-463.883 -358.062)"/><path class="h" d="M538.064,459.07a5.4,5.4,0,0,0-.69.474,19.707,19.707,0,0,1-1.947,1.2,25.144,25.144,0,0,1-3.08,1.374c-1.2.45-2.538.869-3.955,1.281-2.84.813-5.409,1.565-7.263,2.119l-2.2.678a5.029,5.029,0,0,0-.789.283,5.452,5.452,0,0,0,.819-.179l2.218-.616c1.848-.505,4.448-1.232,7.294-2.045,1.417-.413,2.766-.838,3.968-1.306a23.409,23.409,0,0,0,3.08-1.442,15.406,15.406,0,0,0,1.916-1.275A4,4,0,0,0,538.064,459.07Z" transform="translate(-459.736 -357.766)"/><path class="h" d="M546.911,459.138a4.349,4.349,0,0,0-1.337-.357,5.483,5.483,0,0,0-3.314.407,3.911,3.911,0,0,0-1.423,1.232,6.781,6.781,0,0,0-.739,1.318,5.079,5.079,0,0,0-.437,1.312,10.253,10.253,0,0,0,.616-1.232,5,5,0,0,1,2.107-2.378,5.785,5.785,0,0,1,3.167-.456C546.388,459.064,546.9,459.181,546.911,459.138Z" transform="translate(-467.998 -357.618)"/><path class="l" d="M476.662,347.074l12.938,1.232,5.261,1.491a14.317,14.317,0,0,1,5.988,3.432L517.8,369.5l3.08-25.259,8.471.733L527.932,377.5a9.685,9.685,0,0,1-9.241,6.746,10.03,10.03,0,0,1-6.82-2.8L499.8,370.1l-.357,16.215,8.372,6.777-32.288,17.989s-1.75-6.875-.955-22.179c.148-2.809-5-11.336-5.4-13.843-1.509-9.642-1.275-23.743-1.275-23.743Z" transform="translate(-440.443 -313.68)"/><path class="l" d="M457.456,355.22s-6.549,2.433-8.132,7.559c-1.4,4.553-6.093,30.132-6.093,30.132l-4.651,27.107,9.74.37,11.206-46.144Z" transform="translate(-429.191 -317.895)"/><path class="h" d="M468.51,394.749a2.429,2.429,0,0,0,.2-.548c.111-.357.259-.881.431-1.528.351-1.3.8-3.08,1.232-5.095s.813-3.813,1.053-5.138c.117-.659.209-1.2.265-1.565a2.288,2.288,0,0,0,.055-.585,2.725,2.725,0,0,0-.166.567c-.092.425-.209.936-.351,1.546-.3,1.374-.7,3.148-1.127,5.113l-1.171,5.107c-.136.616-.246,1.127-.345,1.552A2.6,2.6,0,0,0,468.51,394.749Z" transform="translate(-440.682 -327.52)"/><path class="h" d="M565.209,347.731a3.079,3.079,0,0,0,.253-1.275,3.309,3.309,0,0,0,0-1.306,3.08,3.08,0,0,0-.253,1.281A3.272,3.272,0,0,0,565.209,347.731Z" transform="translate(-477.782 -314.029)"/><path class="h" d="M561.165,347.759a3.346,3.346,0,0,0,.209-1.355,3.6,3.6,0,0,0-.068-1.374,3.364,3.364,0,0,0-.209,1.362A3.559,3.559,0,0,0,561.165,347.759Z" transform="translate(-476.214 -313.983)"/><path class="h" d="M557.177,347.313a4.528,4.528,0,0,0,.222-1.516,4.127,4.127,0,0,0-.055-1.528,4.275,4.275,0,0,0-.222,1.516A4.127,4.127,0,0,0,557.177,347.313Z" transform="translate(-474.684 -313.691)"/><path class="h" d="M549.2,388.748a9.125,9.125,0,0,0-.093-2.236,8.924,8.924,0,0,0-.37-2.212,9.125,9.125,0,0,0,.092,2.236,8.66,8.66,0,0,0,.37,2.212Z" transform="translate(-471.473 -329.06)"/><path class="h" d="M451.474,456.38a3.487,3.487,0,0,0-.376,1.355,3.646,3.646,0,0,0-.1,1.4,3.488,3.488,0,0,0,.376-1.355,3.645,3.645,0,0,0,.1-1.4Z" transform="translate(-433.947 -356.733)"/><path class="h" d="M446.307,456.37a3.129,3.129,0,0,0-.345,1.232,3.043,3.043,0,0,0-.074,1.275,2.921,2.921,0,0,0,.351-1.232,3.131,3.131,0,0,0,.068-1.275Z" transform="translate(-431.983 -356.729)"/><path class="h" d="M441.362,455.87a4.551,4.551,0,0,0-.32,1.392,4.713,4.713,0,0,0-.154,1.417,3.08,3.08,0,0,0,.431-1.368,3.252,3.252,0,0,0,.043-1.442Z" transform="translate(-430.075 -356.537)"/><path class="h" d="M460.69,360.3c0,.055.678,0,1.731.234a8.218,8.218,0,0,1,3.7,1.848,8.317,8.317,0,0,1,2.323,3.438c.363,1.017.413,1.694.462,1.688a1.331,1.331,0,0,0,0-.48,6.874,6.874,0,0,0-.271-1.269,7.867,7.867,0,0,0-2.323-3.586,7.966,7.966,0,0,0-3.863-1.848,6.779,6.779,0,0,0-1.294-.092A1.646,1.646,0,0,0,460.69,360.3Z" transform="translate(-437.68 -319.817)"/><path class="h" d="M516.977,388.445c-.055,0,.253-.8.561-2.1a18.371,18.371,0,0,0-.548-10.288c-.444-1.263-.832-2-.782-2.027s.135.166.32.493a12.324,12.324,0,0,1,.672,1.454,16.542,16.542,0,0,1,.555,10.424,11.014,11.014,0,0,1-.518,1.516,2.209,2.209,0,0,1-.259.53Z" transform="translate(-458.993 -325.115)"/><path class="h" d="M510.38,409.527a2.237,2.237,0,0,1-.561.037,13.768,13.768,0,0,1-1.522-.068,26.078,26.078,0,0,1-9.642-2.76c-.573-.3-1.029-.554-1.331-.752a1.908,1.908,0,0,1-.456-.327c0-.043.721.339,1.885.875a31.854,31.854,0,0,0,9.568,2.735,20.445,20.445,0,0,1,2.058.259Z" transform="translate(-451.57 -337.258)"/><g class="m" transform="translate(44.505 67.759)"><path d="M495.592,404.62a5.751,5.751,0,0,0,3.943,1.017c1.355-.025,2.711-.3,4.072-.271a5.046,5.046,0,0,1,3.7,1.4,1.848,1.848,0,0,1,.53,1.115,1,1,0,0,1-.616.992,1.583,1.583,0,0,1-.776,0c-3.813-.789-7.91-1.682-10.861-4.22" transform="translate(-495.58 -404.62)"/></g><g class="m" transform="translate(29.005 53.959)"><path d="M473.457,397.228c1-.29,1.164-1.466,1.232-2.507a22.709,22.709,0,0,0-2.421-12.5c-.474,2.828-1.263,5.779-1.848,8.662Z" transform="translate(-470.42 -382.22)"/></g><path class="j" d="M463.007,387.069a2.464,2.464,0,0,0-.826-.37,2.785,2.785,0,0,0-2.273.653,5.157,5.157,0,0,0-1.534,3.241,9.53,9.53,0,0,1-1.448,4.38,3.394,3.394,0,0,1-2.088,1.232,16.872,16.872,0,0,1-2.224.16,4.793,4.793,0,0,0-3.3,1.355,5.071,5.071,0,0,0-1.306,2.082c-.173.567-.191.9-.228.893a.787.787,0,0,1,0-.24,3,3,0,0,1,.111-.684,5.021,5.021,0,0,1,2.711-3.241,5.483,5.483,0,0,1,1.99-.462,17.606,17.606,0,0,0,2.181-.173,3.08,3.08,0,0,0,1.9-1.146,5.828,5.828,0,0,0,.961-2.082c.2-.727.3-1.46.45-2.156a5.409,5.409,0,0,1,1.682-3.358,2.865,2.865,0,0,1,2.464-.616,1.731,1.731,0,0,1,.616.314C462.958,387,463.014,387.057,463.007,387.069Z" transform="translate(-432.721 -329.894)"/><path class="j" d="M511.352,367.055a4.152,4.152,0,0,1-.807,1.232,6.124,6.124,0,0,1-3.555,1.9,5.816,5.816,0,0,1-2.815-.222,9.241,9.241,0,0,1-2.748-1.713A15.456,15.456,0,0,0,498.6,366.2a4.571,4.571,0,0,0-1.737-.481,5.445,5.445,0,0,0-1.848.234,12.488,12.488,0,0,0-3.321,1.719,20.292,20.292,0,0,1-3.08,1.848,7.843,7.843,0,0,1-3.167.678,9.057,9.057,0,0,1-2.785-.462,8.4,8.4,0,0,1-3.413-2.187,6.773,6.773,0,0,1-.678-.869,1.545,1.545,0,0,1-.191-.333c.031,0,.3.437.961,1.115a8.538,8.538,0,0,0,3.388,2.058,8.058,8.058,0,0,0,5.766-.265,21.9,21.9,0,0,0,3-1.848,12.365,12.365,0,0,1,3.4-1.768,5.458,5.458,0,0,1,1.959-.24,4.831,4.831,0,0,1,1.848.511,15.742,15.742,0,0,1,2.883,2.107,9.02,9.02,0,0,0,2.649,1.688,5.625,5.625,0,0,0,2.692.253,6.161,6.161,0,0,0,3.493-1.768,9.7,9.7,0,0,0,.93-1.14Z" transform="translate(-444.471 -321.801)"/><path class="j" d="M544.026,398.86a8.517,8.517,0,0,1-.253-1.134,14.5,14.5,0,0,0-.85-3.006,6.876,6.876,0,0,0-1.164-1.8,4.522,4.522,0,0,0-2.015-1.331,8.367,8.367,0,0,0-2.7-.271,11.237,11.237,0,0,1-3.013-.216,6.642,6.642,0,0,1-2.631-1.509,23.7,23.7,0,0,1-1.953-2,8.277,8.277,0,0,0-3.727-2.655,3.752,3.752,0,0,0-2.976.45,3.628,3.628,0,0,0-.8.813,1.552,1.552,0,0,1,.129-.271,2.57,2.57,0,0,1,.616-.616,3.826,3.826,0,0,1,3.08-.567,8.305,8.305,0,0,1,3.887,2.674c.616.616,1.232,1.337,1.947,1.959a6.333,6.333,0,0,0,2.507,1.442c1.934.487,3.955-.092,5.723.511a4.8,4.8,0,0,1,2.119,1.435,6.808,6.808,0,0,1,1.171,1.891,12.648,12.648,0,0,1,.8,3.08c.056.37.092.659.111.856a.937.937,0,0,1-.006.259Z" transform="translate(-461.195 -329.191)"/><path class="j" d="M501.555,391.049a1.19,1.19,0,0,1-.314.049,4.023,4.023,0,0,1-.912-.031,11.5,11.5,0,0,1-3.154-1.14,13.166,13.166,0,0,0-2.125-.826,5.662,5.662,0,0,0-2.563-.086,10.825,10.825,0,0,0-5.1,2.969A58.573,58.573,0,0,1,483,396.193a9.807,9.807,0,0,1-4.534,2.033,9.315,9.315,0,0,1-3.351-.049,6.84,6.84,0,0,1-.887-.228,1.232,1.232,0,0,1-.3-.117c0-.031.431.1,1.2.222a9.8,9.8,0,0,0,7.682-2.095c1.46-1.14,2.785-2.711,4.35-4.208a10.84,10.84,0,0,1,5.267-3.025,5.919,5.919,0,0,1,2.686.117,12.761,12.761,0,0,1,2.156.881,12.519,12.519,0,0,0,3.08,1.232A11.923,11.923,0,0,0,501.555,391.049Z" transform="translate(-442.763 -330.72)"/><path class="j" d="M508.282,410.111a4.028,4.028,0,0,0-1.232.505c-.616.444-.715,1.072-.807,1.053s-.068-.172,0-.437a1.768,1.768,0,0,1,.616-.869,1.7,1.7,0,0,1,.992-.363C508.134,410,508.288,410.068,508.282,410.111Z" transform="translate(-455.145 -338.927)"/><path class="j" d="M516.786,406.1a3.838,3.838,0,0,1-.789,1.848,3.893,3.893,0,0,1-1.417,1.448,17.842,17.842,0,0,1,1.152-1.626,19.494,19.494,0,0,1,1.054-1.67Z" transform="translate(-458.369 -337.429)"/><path class="j" d="M481.32,419.961c-.031.086-.7-.1-1.528-.1a12.228,12.228,0,0,1-1.522.074,2.236,2.236,0,0,1,1.528-.394,2.279,2.279,0,0,1,1.522.419Z" transform="translate(-444.429 -342.585)"/><path class="j" d="M454.519,368.7a2.333,2.333,0,0,0,.4.148,1.848,1.848,0,0,0,1.121-.1,3.08,3.08,0,0,0,1.294-1.078,15.589,15.589,0,0,1,1.374-1.707,7.3,7.3,0,0,1,3.493-1.916,6.825,6.825,0,0,1,1.2-.154c.29,0,.444,0,.444.043s-.616.062-1.589.333a7.751,7.751,0,0,0-3.321,1.922,16.588,16.588,0,0,0-1.368,1.67,3.265,3.265,0,0,1-1.454,1.1,1.848,1.848,0,0,1-1.232,0C454.606,368.837,454.507,368.7,454.519,368.7Z" transform="translate(-435.31 -321.224)"/><path class="j" d="M503.9,352a2.394,2.394,0,0,1-.7.807A5.822,5.822,0,0,1,500.916,354a5.737,5.737,0,0,1-2.581.086,2.273,2.273,0,0,1-1-.363,7.54,7.54,0,0,1,1.029.129,6.985,6.985,0,0,0,2.464-.173,6.906,6.906,0,0,0,2.23-1.053A7.556,7.556,0,0,1,503.9,352Z" transform="translate(-451.747 -316.659)"/><path class="j" d="M454.93,426.511c0,.031-.259,0-.708.123a4.615,4.615,0,0,0-1.725.838,7.11,7.11,0,0,0-1.848,2.181c-.554.943-1.01,2.064-1.6,3.2a8.581,8.581,0,0,1-2.193,2.883,4.054,4.054,0,0,1-2.8.949,3.08,3.08,0,0,1-1.848-.69,1.85,1.85,0,0,1-.37-.4c-.068-.1-.1-.16-.086-.166a4.541,4.541,0,0,0,.536.474,3.166,3.166,0,0,0,1.8.561,3.924,3.924,0,0,0,2.606-.955,8.686,8.686,0,0,0,2.095-2.8c.573-1.121,1.047-2.249,1.626-3.2a7.072,7.072,0,0,1,1.959-2.218,4.313,4.313,0,0,1,1.848-.776,2.617,2.617,0,0,1,.542,0C454.844,426.493,454.93,426.5,454.93,426.511Z" transform="translate(-430.41 -345.26)"/><g class="q" transform="translate(75.826 55.345)"><path d="M547.682,384.6a5.545,5.545,0,0,0-1.109,4.824c.068.277.191.579.462.659a.616.616,0,0,0,.616-.234,1.62,1.62,0,0,0,.259-.616,9.857,9.857,0,0,0-.086-4.762" transform="translate(-546.419 -384.47)"/></g><path class="j" d="M560.588,361.57a8.973,8.973,0,0,0-1.552,1.848,14.658,14.658,0,0,0-1.121,2.4c-.351.93-.7,1.99-1.189,3.08a7.836,7.836,0,0,1-1.916,2.7,4.929,4.929,0,0,1-2.464,1.121,3.364,3.364,0,0,1-1.811-.234,2.468,2.468,0,0,1-.425-.253c-.092-.068-.135-.111-.129-.117s.21.111.616.253a3.462,3.462,0,0,0,1.731.123,4.768,4.768,0,0,0,2.31-1.115,7.78,7.78,0,0,0,1.848-2.612c.481-1.041.832-2.088,1.232-3.031a13.483,13.483,0,0,1,1.232-2.409,6.457,6.457,0,0,1,1.189-1.374,1.911,1.911,0,0,1,.45-.376Z" transform="translate(-471.96 -320.333)"/><path class="j" d="M562.318,350.458a3.883,3.883,0,0,1-1.084.949,8.933,8.933,0,0,1-6.672,1.318,3.923,3.923,0,0,1-1.362-.462c0-.055.536.111,1.4.234a9.993,9.993,0,0,0,6.518-1.288C561.887,350.791,562.318,350.415,562.318,350.458Z" transform="translate(-473.197 -316.066)"/><path class="h" d="M537.789,438.437s-38.714-25.413-40.3-25.943-5.415-3.037-9.241-1.984-7.264,4.5-8.982,9.512-1.848,16.252-1.848,16.252,3.037,8.853,8.982,10.7a14.941,14.941,0,0,0,1.546.388,18.285,18.285,0,0,0,18.7-8.077l.869-1.318s25.327,9.3,25.721,9.173Z" transform="translate(-444.103 -339.025)"/><path class="h" d="M569.919,407.321a7.553,7.553,0,0,1,4.756,7c.037,10.171-20.552,21.409-20.552,21.409l-27.4-18.162v-1.922S562.009,402.959,569.919,407.321Z" transform="translate(-463.03 -337.548)"/><path class="i" d="M497.66,432.48l.216.1.616.253,2.464.943,9.124,3.438c3.875,1.442,8.514,3.16,13.72,5.058s10.978,3.974,17.145,6.056l.111.037.055-.1,3.025-5.773,1.54-2.945.062-.117-.111-.068-29.522-18.747-8.872-5.594-2.409-1.5-.616-.388-.216-.123.2.148.616.407L507.2,415.1l8.822,5.668L545.5,439.59l-.049-.179-1.54,2.945-3.043,5.76.166-.068c-6.161-2.082-11.933-4.152-17.145-6.031l-13.745-4.99L501,433.675l-2.464-.9-.616-.228Z" transform="translate(-451.873 -340.078)"/><path class="i" d="M549.25,430.484a5.687,5.687,0,0,0,.715-.487c.45-.32,1.09-.807,1.848-1.411,1.571-1.232,3.7-2.933,6-4.929s4.313-3.826,5.754-5.193c.721-.684,1.294-1.232,1.682-1.639a4.5,4.5,0,0,0,.616-.616,5.544,5.544,0,0,0-.659.554l-1.743,1.571c-1.466,1.331-3.505,3.154-5.8,5.12s-4.4,3.7-5.945,4.966l-1.848,1.479a5.29,5.29,0,0,0-.622.585Z" transform="translate(-471.68 -341.311)"/><path class="i" d="M581.18,414.018a5.384,5.384,0,0,0-2.643.24,5.317,5.317,0,0,0-2.347,1.232c.043.074,1.041-.567,2.427-.967S581.18,414.1,581.18,414.018Z" transform="translate(-482.023 -340.443)"/><path class="i" d="M578.914,411.46a4.177,4.177,0,0,0-2.464,3.08,18.973,18.973,0,0,1,1.072-1.676C578.212,412.021,578.964,411.528,578.914,411.46Z" transform="translate(-482.123 -339.487)"/><path class="h" d="M598.336,463.722c0-.031-.326-.1-.708.216a2.55,2.55,0,0,0-.789,1.589,3.123,3.123,0,0,0,.246,1.756,1.625,1.625,0,0,0,.431.616c.025,0-.111-.259-.246-.665a3.493,3.493,0,0,1-.154-1.645,2.747,2.747,0,0,1,.647-1.485A1.8,1.8,0,0,1,598.336,463.722Z" transform="translate(-489.938 -359.541)"/><path class="h" d="M462.108,315.891a3.894,3.894,0,0,0-5.668.246,6.629,6.629,0,0,0-1.306,3.438,16.559,16.559,0,0,1-.721,3.647,3.74,3.74,0,0,1-2.587,2.464c-.924.172-2.021-.111-2.729.505a1.774,1.774,0,0,0-.16,2.206,4.116,4.116,0,0,0,1.9,1.423c.29.129.616.314.616.616,0,.413-.53.561-.912.721a2.285,2.285,0,0,0-.838,3.191,3.7,3.7,0,0,0,3.2,1.6,10.8,10.8,0,0,0,3.622-.832,1.4,1.4,0,0,0-.037,1.787,1.935,1.935,0,0,0,1.75.653,3.154,3.154,0,0,0,1.7-.881,6.117,6.117,0,0,0,1.67-3.358,20.075,20.075,0,0,0,.222-3.8,101.961,101.961,0,0,1,.967-13.554" transform="translate(-433.048 -302.371)"/><path class="p" d="M485.651,302.374a9.37,9.37,0,0,1,8.933,9.352c0,3.875-.055,8.089-.3,10.59-.573,5.816-4.929,6.808-4.929,6.808s.136,3.616.333,7.042a6.284,6.284,0,0,1-5.988,6.419h0a5.978,5.978,0,0,1-6.654-5.323l-1.171-25.093a9.37,9.37,0,0,1,9.789-9.8Z" transform="translate(-443.505 -297.602)"/><path class="h" d="M503.177,321.306a.739.739,0,0,1-.678.813.7.7,0,0,1-.8-.616.739.739,0,0,1,.672-.789.7.7,0,0,1,.807.591Z" transform="translate(-453.423 -304.644)"/><path class="h" d="M502.239,319.388c-.086.1-.672-.277-1.466-.228s-1.349.481-1.442.388.037-.216.277-.419a2.088,2.088,0,0,1,1.152-.431,2.033,2.033,0,0,1,1.177.3C502.2,319.179,502.282,319.345,502.239,319.388Z" transform="translate(-452.504 -303.872)"/><path class="h" d="M489.745,322a.745.745,0,0,1-.665.789.708.708,0,0,1-.8-.616.739.739,0,0,1,.665-.789.708.708,0,0,1,.8.616Z" transform="translate(-448.271 -304.903)"/><path class="h" d="M488.8,320.658c-.086.1-.665-.277-1.46-.228s-1.355.48-1.448.388.037-.222.283-.419a2,2,0,0,1,1.146-.431,1.972,1.972,0,0,1,1.177.3C488.75,320.442,488.842,320.6,488.8,320.658Z" transform="translate(-447.344 -304.359)"/><path class="h" d="M495.418,326.263a5.077,5.077,0,0,1,1.275-.314c.2-.031.388-.08.419-.222a1.078,1.078,0,0,0-.172-.616l-.69-1.509a26.437,26.437,0,0,1-1.589-3.961,27.268,27.268,0,0,1,1.9,3.826c.234.53.456,1.035.665,1.522a1.164,1.164,0,0,1,.154.789.53.53,0,0,1-.32.32,1.566,1.566,0,0,1-.339.068,5.624,5.624,0,0,1-1.306.1Z" transform="translate(-450.722 -304.235)"/><path class="r" d="M492.867,344.731A15.778,15.778,0,0,1,485,343s2.15,4.14,7.941,3.388Z" transform="translate(-447.013 -313.204)"/><path class="h" d="M486.372,316.934c.092.142.672-.1,1.392-.259s1.349-.2,1.374-.363-.653-.407-1.5-.216S486.274,316.811,486.372,316.934Z" transform="translate(-447.535 -302.847)"/><path class="h" d="M499.159,314.9c.037.16.69.142,1.472.154s1.435.043,1.479-.117-.616-.474-1.472-.481S499.116,314.75,499.159,314.9Z" transform="translate(-452.448 -302.246)"/><path class="h" d="M470.578,331.282c-.055-1.2,1.281-6.383,1.817-9.568s-1.552-3.7-1.885-5.582a6.481,6.481,0,0,1,.616-3.666c3.043,1.09,4.245-1.078,5.908-2.36,1.762-1.368,2.15-3.043,2.871-5.157s1.565-3.425,3.789-3.635a6.6,6.6,0,0,1,2.957,3.395c.678,1.978,1.232,9.691,1.232,9.691.308-3.7,3.308-5.249,2.5-10.7-.351-2.347-2.3-5.545-5.3-6.025-.875-.142-2.526-.246-2.526-.246-1.793-1.614-2.668-1.565-4.386-2.329-3.7-1.645-8.169,1.294-10.627,4.516-1.9,2.464-2.815,5.834-3.333,8.988a26.132,26.132,0,0,0-.142,6.617,4.356,4.356,0,0,1-1.331,3.986c-1.848,1.435-2.329,4.171-1.053,7.818s-3.425,9.857-3.425,9.857a28.951,28.951,0,0,1,4.189-2.84A72.068,72.068,0,0,1,470.578,331.282Z" transform="translate(-436.743 -294.635)"/><path class="r" d="M493.121,333.231a1.2,1.2,0,0,0-1.1-.363,1.115,1.115,0,0,0-.721.462.7.7,0,0,0,0,.789.807.807,0,0,0,.881.154,2.623,2.623,0,0,0,.807-.567.7.7,0,0,0,.173-.21.222.222,0,0,0,0-.246" transform="translate(-449.386 -309.306)"/><path class="h" d="M491.451,331.83c.1,0,.16.7.813,1.164s1.4.327,1.417.425-.16.154-.48.185a1.774,1.774,0,0,1-1.183-.314,1.571,1.571,0,0,1-.616-.98C491.334,332.015,491.4,331.83,491.451,331.83Z" transform="translate(-449.46 -308.915)"/><path class="h" d="M450.676,323.651a5.853,5.853,0,0,0,.062.8,2.877,2.877,0,0,0,.3.881,2.026,2.026,0,0,0,.863.838,1.688,1.688,0,0,0,1.417.068,1.8,1.8,0,0,0,.949-1.306,7.128,7.128,0,0,0,.1-1.9c0-.665-.062-1.362-.062-2.076a8.3,8.3,0,0,1,.776-3.949,3.931,3.931,0,0,1,2.464-2.119,3.136,3.136,0,0,1,2.193.172,1.96,1.96,0,0,1,.616.493,5.162,5.162,0,0,0-.678-.425,3.142,3.142,0,0,0-2.132-.1,3.82,3.82,0,0,0-2.335,2.07,8.261,8.261,0,0,0-.739,3.857c0,.715.037,1.4.062,2.076a7.3,7.3,0,0,1-.117,1.953,1.971,1.971,0,0,1-1.06,1.411,1.848,1.848,0,0,1-1.54-.092,2.113,2.113,0,0,1-.893-.912,2.747,2.747,0,0,1-.283-.918A2.465,2.465,0,0,1,450.676,323.651Z" transform="translate(-433.814 -302.362)"/><path class="i" d="M464.012,331.053a1.509,1.509,0,0,1-.308-.29,2.428,2.428,0,0,1-.45-1.14,3.345,3.345,0,0,1,.333-1.91,7.333,7.333,0,0,1,1.6-2.015,13.6,13.6,0,0,0,2.095-2.267,5.322,5.322,0,0,0,.733-3.388,35.638,35.638,0,0,1-.3-3.937,5.181,5.181,0,0,1,.481-2.058,3.7,3.7,0,0,1,1.5-1.565c1.294-.733,2.742-.936,3.924-1.59a6.394,6.394,0,0,0,2.538-2.865c.567-1.115.973-2.249,1.5-3.241a7,7,0,0,1,1.941-2.464,3.789,3.789,0,0,1,2.421-.826,3.013,3.013,0,0,1,1.793.721,2.249,2.249,0,0,1,.69,1.01,1.133,1.133,0,0,1,.074.308v.111a1.066,1.066,0,0,0-.123-.407,2.249,2.249,0,0,0-.7-.967,2.982,2.982,0,0,0-1.75-.672,3.7,3.7,0,0,0-2.329.832,6.815,6.815,0,0,0-1.885,2.4c-.511.986-.912,2.113-1.485,3.247a6.555,6.555,0,0,1-2.606,2.951c-1.232.678-2.668.875-3.912,1.589a3.456,3.456,0,0,0-1.429,1.485,5.139,5.139,0,0,0-.468,1.978,36.264,36.264,0,0,0,.29,3.918,5.49,5.49,0,0,1-.752,3.475,13.683,13.683,0,0,1-2.138,2.28,7.317,7.317,0,0,0-1.6,1.965,3.333,3.333,0,0,0-.357,1.848A2.384,2.384,0,0,0,464.012,331.053Z" transform="translate(-438.655 -297.27)"/><path class="j" d="M466.822,318.909a2.957,2.957,0,0,1,.733-3.5,13.42,13.42,0,0,0-.616,1.694,12.32,12.32,0,0,0-.117,1.805Z" transform="translate(-439.925 -302.611)"/><path class="h" d="M470.169,345.07a13.744,13.744,0,0,0,1.8,8.908,7,7,0,0,0,2.2,2.427,3.635,3.635,0,0,0,3.16.45,2.464,2.464,0,0,0,1.633-2.581c-.246-1.54-2.144-2.507-2.156-4.072.69.419,1.626.819,2.23.283a1.368,1.368,0,0,0,.228-1.516,5.873,5.873,0,0,0-.936-1.337,8.379,8.379,0,0,1-1.676-6.376c.092-.616.259-2.551.271-3.179s-.173,0-.616-.413a1.953,1.953,0,0,0-1.762-.327,3.746,3.746,0,0,0-1.559.98,7.214,7.214,0,0,0-2.144,5.471" transform="translate(-441.269 -310.998)"/></g><g transform="translate(66.388 250.836)"><rect class="s" width="59.223" height="39.638" transform="translate(0.185 25.931)"/><g class="q" transform="translate(0.185 25.931)"><rect width="59.223" height="39.638"/></g><rect class="l" width="4.701" height="8.04" transform="translate(47.394 25.986)"/><rect class="l" width="4.701" height="8.04" transform="translate(46.877 57.535)"/><path class="h" d="M104.31,441.857c-.086,0-.16-8.884-.16-19.844s.074-19.844.16-19.844.16,8.884.16,19.844S104.4,441.857,104.31,441.857Z" transform="translate(-87.177 -376.369)"/><path class="h" d="M114.729,437.32c0,.092-8.533.16-19.061.16s-19.067-.068-19.067-.16,8.533-.16,19.1-.16S114.729,437.234,114.729,437.32Z" transform="translate(-76.6 -389.802)"/><path class="h" d="M99.966,393.388a10.671,10.671,0,0,1,1.374-1.023,15.4,15.4,0,0,1,7.873-2.464,2.9,2.9,0,0,1,.992.08.906.906,0,0,1,.653.826,1.312,1.312,0,0,1-.419,1.01,2.7,2.7,0,0,1-.961.561,18.741,18.741,0,0,1-9.752.949H99.6V393.2a23.626,23.626,0,0,1,1.423-6.161,21.792,21.792,0,0,1,1.429-3.08,4.042,4.042,0,0,1,1.171-1.337,2.181,2.181,0,0,1,1.8-.339,1.885,1.885,0,0,1,1.232,1.392,3.08,3.08,0,0,1-.191,1.848,16.018,16.018,0,0,1-1.941,3.173,20.743,20.743,0,0,1-5.686,5.126l-.062.037h-.062l-.678-.172-.69-.234a11.958,11.958,0,0,1-4.966-3.5,11.373,11.373,0,0,1-1.62-2.526,2.828,2.828,0,0,1-.382-1.479.807.807,0,0,1,.493-.684,1.146,1.146,0,0,1,.813.037,11.989,11.989,0,0,1,6.838,8.194l-.277.086a32.2,32.2,0,0,1-2.36-12.186,3.659,3.659,0,0,1,.246-1.386,1.466,1.466,0,0,1,.425-.585,1.1,1.1,0,0,1,.684-.228,1.374,1.374,0,0,1,1.115.727,3.937,3.937,0,0,1,.474,1.177,35.347,35.347,0,0,1,.585,4.423,34.21,34.21,0,0,1-.154,6.272c-.086.727-.173,1.275-.24,1.645-.031.179-.062.314-.08.425s0,.142-.037.136a1.23,1.23,0,0,1,0-.142,2.264,2.264,0,0,1,.055-.425c.055-.37.123-.924.2-1.645a36.781,36.781,0,0,0,.074-6.253,34.925,34.925,0,0,0-.616-4.386,3.549,3.549,0,0,0-.456-1.109,1.164,1.164,0,0,0-.93-.616.992.992,0,0,0-.893.684,3.357,3.357,0,0,0-.222,1.3,32.165,32.165,0,0,0,2.39,12.069l-.277.086a11.706,11.706,0,0,0-6.66-7.96.869.869,0,0,0-.616-.043.505.505,0,0,0-.3.437,2.514,2.514,0,0,0,.363,1.3,10.924,10.924,0,0,0,1.565,2.464,11.706,11.706,0,0,0,4.836,3.407l.672.228.659.166h-.117a20.577,20.577,0,0,0,5.6-5.046,15.949,15.949,0,0,0,1.9-3.08,2.711,2.711,0,0,0,.179-1.67,1.571,1.571,0,0,0-1.01-1.177,1.9,1.9,0,0,0-1.546.29,3.8,3.8,0,0,0-1.078,1.232,22.318,22.318,0,0,0-1.417,3.019,23.527,23.527,0,0,0-1.38,6.111l-.1-.142a18.63,18.63,0,0,0,9.623-.881,2.649,2.649,0,0,0,.893-.511,1.1,1.1,0,0,0,.363-.85.709.709,0,0,0-.511-.653,2.712,2.712,0,0,0-.924-.074,15.285,15.285,0,0,0-3.413.462,15.506,15.506,0,0,0-4.423,1.848c-.481.29-.826.536-1.06.7S99.966,393.388,99.966,393.388Z" transform="translate(-81.89 -367.55)"/><rect class="t" width="97.709" height="65.396" transform="translate(38.012 0.216)"/><g class="m" transform="translate(101.751 0.216)"><rect width="33.97" height="65.396"/></g><rect class="u" width="7.756" height="13.264" transform="translate(115.902 0.302)"/><rect class="u" width="7.756" height="13.264" transform="translate(115.052 52.354)"/><path class="h" d="M183.59,425.766c-.086,0-.16-14.656-.16-32.738s.074-32.738.16-32.738.16,14.656.16,32.738S183.683,425.766,183.59,425.766Z" transform="translate(-117.615 -360.29)"/></g><g transform="translate(156.42 193.361)"><g class="v" transform="translate(0 5.545)"><path class="l" d="M222.74,216.522,233.121,209l13.492,15.975A6.838,6.838,0,0,1,248,231.135l-4.547,17.25a5.785,5.785,0,0,1-5.994,4.313h0a5.785,5.785,0,0,1-5.317-6.543l2-15.593Z" transform="translate(-222.74 -209)"/><path class="j" d="M237.848,232.46a4.448,4.448,0,0,1-.265-.616,15.118,15.118,0,0,1-.585-1.682,20.627,20.627,0,0,1,0-11.638,15.114,15.114,0,0,1,.616-1.688,3.623,3.623,0,0,1,.271-.616,4.269,4.269,0,0,1-.2.616c-.148.394-.327.973-.53,1.694a22.092,22.092,0,0,0,0,11.564c.2.721.376,1.3.524,1.694A3.7,3.7,0,0,1,237.848,232.46Z" transform="translate(-227.892 -211.772)"/><path class="j" d="M238.429,230.38a8.989,8.989,0,0,0-1.041,2.464,8.761,8.761,0,0,0-.086,2.649,2.249,2.249,0,0,1-.2-.77,5.686,5.686,0,0,1,.819-3.7A2.267,2.267,0,0,1,238.429,230.38Z" transform="translate(-228.239 -217.208)"/><path class="j" d="M233.66,224.8a2.064,2.064,0,0,1,.481.53,5.9,5.9,0,0,1,.8,1.528,5.976,5.976,0,0,1,.339,1.7,2.131,2.131,0,0,1-.043.715,12.044,12.044,0,0,0-.474-2.347A12.317,12.317,0,0,0,233.66,224.8Z" transform="translate(-226.932 -215.066)"/><path class="j" d="M238.453,221.68a6.161,6.161,0,0,0-1.953,3.542,4.122,4.122,0,0,1,1.953-3.542Z" transform="translate(-228.023 -213.868)"/><path class="j" d="M237.006,216.62a3.838,3.838,0,0,1-.062,3.234c-.055,0,.185-.721.191-1.614A16.15,16.15,0,0,0,237.006,216.62Z" transform="translate(-228.19 -211.926)"/><path class="j" d="M256.208,268.1a4.31,4.31,0,0,1-.271-.616,16.194,16.194,0,0,1-.585-1.688,20.774,20.774,0,0,1,0-11.638,16.282,16.282,0,0,1,.616-1.682,4.312,4.312,0,0,1,.271-.616,4.262,4.262,0,0,1-.2.616c-.142.394-.327.973-.524,1.694a22.006,22.006,0,0,0,0,11.564c.2.727.382,1.306.524,1.7A4.27,4.27,0,0,1,256.208,268.1Z" transform="translate(-234.941 -225.455)"/><path class="j" d="M256.781,266a8.766,8.766,0,0,0-1.041,2.464,8.958,8.958,0,0,0-.086,2.643,2.286,2.286,0,0,1-.191-.77,5.649,5.649,0,0,1,.086-1.916,5.546,5.546,0,0,1,.733-1.774,2.329,2.329,0,0,1,.5-.647Z" transform="translate(-235.286 -230.884)"/><path class="j" d="M252,260.44a2.614,2.614,0,0,1,.481.524,5.866,5.866,0,0,1,.8,1.534,5.938,5.938,0,0,1,.339,1.694,1.946,1.946,0,0,1-.043.715,12.129,12.129,0,0,0-.474-2.347A11.878,11.878,0,0,0,252,260.44Z" transform="translate(-233.974 -228.749)"/><path class="j" d="M256.783,257.31a9.047,9.047,0,0,0-1.269,1.614,8.011,8.011,0,0,0-.678,1.935,3.487,3.487,0,0,1,.505-2.033A3.561,3.561,0,0,1,256.783,257.31Z" transform="translate(-235.06 -227.548)"/><path class="j" d="M255.36,252.25a3.869,3.869,0,0,1-.055,3.234c-.055,0,.179-.721.191-1.614S255.3,252.268,255.36,252.25Z" transform="translate(-235.239 -225.605)"/><path class="j" d="M247.6,253.88a4.445,4.445,0,0,1-.265-.616,13.944,13.944,0,0,1-.616-1.682,20.626,20.626,0,0,1,0-11.638,14.662,14.662,0,0,1,.616-1.688,3.626,3.626,0,0,1,.271-.616,4.566,4.566,0,0,1-.2.616c-.148.388-.333.967-.53,1.694a22.092,22.092,0,0,0,0,11.564c.2.721.376,1.3.524,1.694A3.7,3.7,0,0,1,247.6,253.88Z" transform="translate(-231.624 -219.996)"/><path class="j" d="M248.2,251.75a8.995,8.995,0,0,0-1.047,2.433,8.872,8.872,0,0,0-.08,2.649,2.249,2.249,0,0,1-.2-.77,5.662,5.662,0,0,1,.819-3.7A2.266,2.266,0,0,1,248.2,251.75Z" transform="translate(-231.989 -225.413)"/><path class="j" d="M243.43,246.17a2.052,2.052,0,0,1,.481.53,5.9,5.9,0,0,1,.8,1.528,5.975,5.975,0,0,1,.339,1.7,2.075,2.075,0,0,1-.043.708,8.625,8.625,0,0,0-1.577-4.467Z" transform="translate(-230.683 -223.271)"/><path class="j" d="M248.223,243.05a8.477,8.477,0,0,0-1.275,1.608,8.816,8.816,0,0,0-.678,1.934,4.122,4.122,0,0,1,1.953-3.542Z" transform="translate(-231.774 -222.073)"/><path class="j" d="M229.4,221.35a4.308,4.308,0,0,1-.271-.616,16.736,16.736,0,0,1-.585-1.688,20.774,20.774,0,0,1,0-11.638,16.29,16.29,0,0,1,.616-1.682,3.919,3.919,0,0,1,.271-.616,4.271,4.271,0,0,1-.2.616c-.142.394-.327.973-.524,1.694a22.006,22.006,0,0,0,0,11.564c.2.721.382,1.306.524,1.694a4.458,4.458,0,0,1,.173.672Z" transform="translate(-224.648 -207.507)"/><path class="j" d="M229.971,219.27a8.767,8.767,0,0,0-1.041,2.433,8.958,8.958,0,0,0-.086,2.643,2.285,2.285,0,0,1-.191-.77,5.649,5.649,0,0,1,.086-1.916,5.544,5.544,0,0,1,.733-1.774,2.2,2.2,0,0,1,.5-.616Z" transform="translate(-224.993 -212.943)"/><path class="j" d="M225.2,213.68a1.94,1.94,0,0,1,.481.53,5.864,5.864,0,0,1,.8,1.534,5.939,5.939,0,0,1,.339,1.694,1.947,1.947,0,0,1-.043.715,8.625,8.625,0,0,0-1.577-4.473Z" transform="translate(-223.684 -210.797)"/><path class="j" d="M229.993,210.56a9.136,9.136,0,0,0-1.269,1.608,8.1,8.1,0,0,0-.678,1.941,3.481,3.481,0,0,1,.505-2.033,3.561,3.561,0,0,1,1.442-1.516Z" transform="translate(-224.774 -209.599)"/><path class="j" d="M245.63,214.59a5.159,5.159,0,0,1,.388.524,16.575,16.575,0,0,1,.936,1.522A20.651,20.651,0,0,1,249.419,228a16.025,16.025,0,0,1-.216,1.774,4.4,4.4,0,0,1-.136.616,4.832,4.832,0,0,1,.062-.653c.062-.413.117-1.023.154-1.768a22.024,22.024,0,0,0-2.464-11.3c-.345-.659-.647-1.189-.875-1.54A3.974,3.974,0,0,1,245.63,214.59Z" transform="translate(-231.528 -211.146)"/><path class="j" d="M247.88,223.34a8.865,8.865,0,0,0,.5-2.6,8.526,8.526,0,0,0-.493-2.6,2.046,2.046,0,0,1,.357.708,5.544,5.544,0,0,1,.327,1.891,5.7,5.7,0,0,1-.333,1.891,2.181,2.181,0,0,1-.357.708Z" transform="translate(-232.392 -212.509)"/><path class="j" d="M253.011,228.319a2.027,2.027,0,0,1-.585-.413,6.1,6.1,0,0,1-1.115-1.325,6.012,6.012,0,0,1-.69-1.583,2,2,0,0,1-.111-.708,12.187,12.187,0,0,0,.967,2.187,12.718,12.718,0,0,0,1.534,1.842Z" transform="translate(-233.401 -214.87)"/><path class="j" d="M249.37,232.751a8.8,8.8,0,0,0,.893-1.848,8.483,8.483,0,0,0,.246-2.033,3.474,3.474,0,0,1-.062,2.089A3.517,3.517,0,0,1,249.37,232.751Z" transform="translate(-232.964 -216.629)"/><path class="j" d="M252.512,237.573a3.081,3.081,0,0,1-.672-1.516,3.142,3.142,0,0,1,0-1.657c.062,0,0,.739.16,1.62A13.508,13.508,0,0,0,252.512,237.573Z" transform="translate(-233.87 -218.752)"/><path class="j" d="M256.67,234.91a4.358,4.358,0,0,1,.388.524,15.3,15.3,0,0,1,.936,1.522,20.651,20.651,0,0,1,2.464,11.367,14.785,14.785,0,0,1-.216,1.774,3.929,3.929,0,0,1-.136.616,4.872,4.872,0,0,1,.062-.616c.062-.419.117-1.023.154-1.768a22.025,22.025,0,0,0-2.464-11.3c-.345-.665-.647-1.189-.875-1.546A3.766,3.766,0,0,1,256.67,234.91Z" transform="translate(-235.767 -218.948)"/><path class="j" d="M258.92,243.656a8.864,8.864,0,0,0,.5-2.6,9.007,9.007,0,0,0-.487-2.606,2.286,2.286,0,0,1,.351.715,5.544,5.544,0,0,1,.327,1.891,5.7,5.7,0,0,1-.333,1.891,2.181,2.181,0,0,1-.357.708Z" transform="translate(-236.63 -220.307)"/><path class="j" d="M264.051,248.639a2.027,2.027,0,0,1-.585-.413,6.223,6.223,0,0,1-1.109-1.325,6.061,6.061,0,0,1-.7-1.583,2.193,2.193,0,0,1-.111-.708,12.183,12.183,0,0,0,.967,2.187A12.718,12.718,0,0,0,264.051,248.639Z" transform="translate(-237.64 -222.672)"/><path class="j" d="M260.41,253.071a8.984,8.984,0,0,0,.9-1.848,8.877,8.877,0,0,0,.246-2.033,3.6,3.6,0,0,1-.062,2.088A3.555,3.555,0,0,1,260.41,253.071Z" transform="translate(-237.203 -224.43)"/><path class="j" d="M263.572,257.893a3.081,3.081,0,0,1-.672-1.516,3.142,3.142,0,0,1,0-1.657c.062,0,0,.739.16,1.62A11.168,11.168,0,0,0,263.572,257.893Z" transform="translate(-238.116 -226.553)"/><path class="j" d="M231.45,250.3a4,4,0,0,1,.53.382,16.629,16.629,0,0,1,1.349,1.171,20.694,20.694,0,0,1,5.785,10.1,16.387,16.387,0,0,1,.327,1.756,3.871,3.871,0,0,1,.062.653,4.4,4.4,0,0,1-.136-.616c-.068-.413-.2-1.01-.388-1.731a22.21,22.21,0,0,0-2.2-5.4,22.475,22.475,0,0,0-3.542-4.633c-.536-.53-.98-.943-1.3-1.232A4.627,4.627,0,0,1,231.45,250.3Z" transform="translate(-226.084 -224.856)"/><path class="j" d="M236.24,257.966a8.564,8.564,0,0,0-.308-2.624A8.8,8.8,0,0,0,234.7,253a2.261,2.261,0,0,1,.554.573,5.643,5.643,0,0,1,1.127,3.61,2.039,2.039,0,0,1-.142.782Z" transform="translate(-227.332 -225.893)"/><path class="j" d="M242.622,261.192a1.848,1.848,0,0,1-.684-.216,6.161,6.161,0,0,1-2.594-2.23,1.922,1.922,0,0,1-.314-.616,12.261,12.261,0,0,0,1.577,1.8A11.854,11.854,0,0,0,242.622,261.192Z" transform="translate(-228.994 -227.862)"/><path class="j" d="M241.154,266.288a8.873,8.873,0,0,0,.3-2.033,8.52,8.52,0,0,0-.376-2.015,4.134,4.134,0,0,1,.074,4.048Z" transform="translate(-229.781 -229.44)"/><path class="j" d="M245.025,270.132a3.081,3.081,0,0,1-1.1-1.232,3.117,3.117,0,0,1-.468-1.589c.062,0,.2.715.616,1.5A11.518,11.518,0,0,0,245.025,270.132Z" transform="translate(-230.695 -231.387)"/><path class="j" d="M248.439,275.437a6.925,6.925,0,0,0-11.249-5.243l1.288,4.362,5.594,2.723Z" transform="translate(-228.288 -231.911)"/><path class="j" d="M263.566,245.25a6.832,6.832,0,0,1-3.912-12.1l5.754,3.66Z" transform="translate(-235.953 -218.272)"/></g><g class="o" transform="translate(0 5.545)"><path d="M222.74,216.522,233.121,209l13.492,15.975A6.838,6.838,0,0,1,248,231.135l-4.547,17.25a5.785,5.785,0,0,1-5.994,4.313h0a5.785,5.785,0,0,1-5.317-6.543l2-15.593Z" transform="translate(-222.74 -209)"/></g><g class="w" transform="translate(5.36)"><path class="l" d="M231.44,207.547,241.821,200l13.492,15.975a6.832,6.832,0,0,1,1.386,6.161l-4.54,17.25a5.785,5.785,0,0,1-6,4.313h0a5.785,5.785,0,0,1-5.329-6.506l2.008-15.562Z" transform="translate(-231.44 -200)"/><path class="j" d="M246.552,223.5a4.985,4.985,0,0,1-.265-.616,16.2,16.2,0,0,1-.585-1.688,20.774,20.774,0,0,1,0-11.638,16.284,16.284,0,0,1,.616-1.682,4.31,4.31,0,0,1,.271-.616,4.269,4.269,0,0,1-.2.616c-.148.394-.327.973-.53,1.694a22.092,22.092,0,0,0,0,11.564c.2.727.382,1.306.524,1.7a3.7,3.7,0,0,1,.173.665Z" transform="translate(-236.596 -202.787)"/><path class="j" d="M247.148,221.42a7.159,7.159,0,0,0-1.127,5.076,2.187,2.187,0,0,1-.2-.77,5.673,5.673,0,0,1,.092-1.916,5.545,5.545,0,0,1,.733-1.774A2.194,2.194,0,0,1,247.148,221.42Z" transform="translate(-236.946 -208.224)"/><path class="j" d="M242.36,215.84a2.851,2.851,0,0,1,.481.524,6.055,6.055,0,0,1,.8,1.534,5.939,5.939,0,0,1,.339,1.694,2.131,2.131,0,0,1-.043.715,12.131,12.131,0,0,0-.474-2.347,12.37,12.37,0,0,0-1.1-2.119Z" transform="translate(-235.632 -206.081)"/><path class="j" d="M247.153,212.71a9.243,9.243,0,0,0-1.275,1.614,8.706,8.706,0,0,0-.678,1.934A4.122,4.122,0,0,1,247.153,212.71Z" transform="translate(-236.723 -204.88)"/><path class="j" d="M245.706,207.65a3.117,3.117,0,0,1,.326,1.626,3.031,3.031,0,0,1-.388,1.608c-.055,0,.185-.721.191-1.614S245.651,207.668,245.706,207.65Z" transform="translate(-236.89 -202.937)"/><path class="j" d="M264.948,259.134a3.569,3.569,0,0,1-.271-.616,16.016,16.016,0,0,1-.585-1.682,20.768,20.768,0,0,1,0-11.638,15.766,15.766,0,0,1,.616-1.682,4.353,4.353,0,0,1,.271-.616,4.268,4.268,0,0,1-.2.616c-.142.394-.327.973-.524,1.694a22.006,22.006,0,0,0,0,11.564c.2.721.382,1.3.524,1.694a4.267,4.267,0,0,1,.173.665Z" transform="translate(-243.656 -216.47)"/><path class="j" d="M265.481,257.06a8.778,8.778,0,0,0-1.041,2.427,9,9,0,0,0-.086,2.649,2.346,2.346,0,0,1-.191-.77,5.649,5.649,0,0,1,.086-1.916,5.545,5.545,0,0,1,.733-1.78A2.1,2.1,0,0,1,265.481,257.06Z" transform="translate(-243.986 -221.907)"/><path class="j" d="M260.71,251.47a1.94,1.94,0,0,1,.481.53,6.049,6.049,0,0,1,.807,1.534,6.116,6.116,0,0,1,.333,1.694,1.946,1.946,0,0,1-.043.715,12.045,12.045,0,0,0-.474-2.347A11.809,11.809,0,0,0,260.71,251.47Z" transform="translate(-242.678 -219.761)"/><path class="j" d="M265.5,248.35a8.859,8.859,0,0,0-1.269,1.608,8.2,8.2,0,0,0-.678,1.934,3.462,3.462,0,0,1,.505-2.027,3.561,3.561,0,0,1,1.442-1.516Z" transform="translate(-243.768 -218.563)"/><path class="j" d="M264.06,243.29a3.081,3.081,0,0,1,.326,1.62,3.166,3.166,0,0,1-.382,1.614c-.055,0,.179-.721.191-1.614S264,243.3,264.06,243.29Z" transform="translate(-243.939 -216.62)"/><path class="j" d="M256.318,244.88a4.981,4.981,0,0,1-.265-.616,14.109,14.109,0,0,1-.585-1.688,20.626,20.626,0,0,1,0-11.638,14.926,14.926,0,0,1,.616-1.682,3.921,3.921,0,0,1,.271-.616,4.269,4.269,0,0,1-.2.616c-.148.394-.333.973-.53,1.694a22.092,22.092,0,0,0,0,11.564c.2.727.376,1.306.524,1.694A3.851,3.851,0,0,1,256.318,244.88Z" transform="translate(-240.343 -210.996)"/><path class="j" d="M256.9,242.79a7.079,7.079,0,0,0-1.127,5.076,2.187,2.187,0,0,1-.2-.77,5.656,5.656,0,0,1,.819-3.7,2.144,2.144,0,0,1,.505-.61Z" transform="translate(-240.689 -216.428)"/><path class="j" d="M252.13,237.2a2.2,2.2,0,0,1,.481.53,6.057,6.057,0,0,1,.8,1.534,5.94,5.94,0,0,1,.339,1.694,2.131,2.131,0,0,1-.043.715,12.716,12.716,0,0,0-.474-2.347,12.587,12.587,0,0,0-1.1-2.125Z" transform="translate(-239.383 -214.282)"/><path class="j" d="M256.92,234.08a8.995,8.995,0,0,0-1.275,1.608,8.8,8.8,0,0,0-.678,1.941,3.586,3.586,0,0,1,.511-2.033,3.524,3.524,0,0,1,1.442-1.516Z" transform="translate(-240.471 -213.084)"/><path class="j" d="M238.079,212.384a3.917,3.917,0,0,1-.271-.616,16.017,16.017,0,0,1-.616-1.682,20.768,20.768,0,0,1,0-11.638,15.765,15.765,0,0,1,.616-1.682,4.339,4.339,0,0,1,.271-.616,4.27,4.27,0,0,1-.2.616c-.142.394-.327.973-.524,1.694a22.006,22.006,0,0,0,0,11.564c.2.721.382,1.3.524,1.694a4.268,4.268,0,0,1,.2.665Z" transform="translate(-233.329 -198.522)"/><path class="j" d="M238.671,210.3a7.165,7.165,0,0,0-1.127,5.083,2.347,2.347,0,0,1-.191-.77,5.649,5.649,0,0,1,.086-1.916,5.545,5.545,0,0,1,.733-1.78A2.329,2.329,0,0,1,238.671,210.3Z" transform="translate(-233.693 -203.954)"/><path class="j" d="M233.9,204.72a1.941,1.941,0,0,1,.481.53,5.92,5.92,0,0,1,.8,1.528,6.014,6.014,0,0,1,.339,1.7,1.947,1.947,0,0,1-.043.715,12.045,12.045,0,0,0-.474-2.347A11.811,11.811,0,0,0,233.9,204.72Z" transform="translate(-232.384 -201.812)"/><path class="j" d="M238.693,201.6a8.624,8.624,0,0,0-1.269,1.608,8.2,8.2,0,0,0-.678,1.934,3.462,3.462,0,0,1,.505-2.027A3.561,3.561,0,0,1,238.693,201.6Z" transform="translate(-233.474 -200.614)"/><path class="j" d="M254.33,205.62a5.918,5.918,0,0,1,.388.53,16.318,16.318,0,0,1,.936,1.516,20.688,20.688,0,0,1,2.464,11.373,15.85,15.85,0,0,1-.216,1.768,4.155,4.155,0,0,1-.136.616,5,5,0,0,1,.062-.653c.062-.413.117-1.017.154-1.768a22.018,22.018,0,0,0-2.464-11.293,13.515,13.515,0,0,0-.875-1.546,3.6,3.6,0,0,1-.314-.542Z" transform="translate(-240.228 -202.158)"/><path class="j" d="M256.58,214.376a8.865,8.865,0,0,0,.5-2.6,8.541,8.541,0,0,0-.493-2.606,2,2,0,0,1,.357.715,5.545,5.545,0,0,1,.327,1.891,5.73,5.73,0,0,1-.333,1.891A2.273,2.273,0,0,1,256.58,214.376Z" transform="translate(-241.092 -203.521)"/><path class="j" d="M261.711,219.353a1.879,1.879,0,0,1-.585-.413,6.018,6.018,0,0,1-1.109-1.318,5.8,5.8,0,0,1-.7-1.589,1.972,1.972,0,0,1-.111-.7,12.184,12.184,0,0,0,.967,2.187A12.056,12.056,0,0,0,261.711,219.353Z" transform="translate(-242.101 -205.886)"/><path class="j" d="M258.07,223.777a8.626,8.626,0,0,0,.893-1.848,8.139,8.139,0,0,0,.246-2.039,3.5,3.5,0,0,1-.062,2.095A3.45,3.45,0,0,1,258.07,223.777Z" transform="translate(-241.664 -207.636)"/><path class="j" d="M261.266,228.607a3.826,3.826,0,0,1-.616-3.167c.062,0,0,.739.16,1.614S261.315,228.582,261.266,228.607Z" transform="translate(-242.611 -209.767)"/><path class="j" d="M265.37,225.94a4.2,4.2,0,0,1,.388.524,16.081,16.081,0,0,1,.936,1.522,20.687,20.687,0,0,1,2.464,11.373,14.5,14.5,0,0,1-.216,1.768,4.4,4.4,0,0,1-.136.616,5,5,0,0,1,.062-.653c.062-.413.117-1.017.154-1.768a22.018,22.018,0,0,0-2.464-11.293c-.345-.665-.647-1.2-.875-1.546a3.6,3.6,0,0,1-.314-.542Z" transform="translate(-244.467 -209.959)"/><path class="j" d="M267.62,234.7a7.122,7.122,0,0,0,0-5.206,2.112,2.112,0,0,1,.351.708,5.594,5.594,0,0,1,.326,1.9,5.655,5.655,0,0,1-.333,1.885A2.268,2.268,0,0,1,267.62,234.7Z" transform="translate(-245.33 -211.322)"/><path class="j" d="M272.751,239.673a1.879,1.879,0,0,1-.585-.413,6.161,6.161,0,0,1-1.805-2.908,2.169,2.169,0,0,1-.111-.7,12.4,12.4,0,0,0,.967,2.187A12.052,12.052,0,0,0,272.751,239.673Z" transform="translate(-246.34 -213.687)"/><path class="j" d="M269.11,244.1a6.161,6.161,0,0,0,1.146-3.881,3.623,3.623,0,0,1-.062,2.095A3.481,3.481,0,0,1,269.11,244.1Z" transform="translate(-245.903 -215.442)"/><path class="j" d="M272.306,248.927a3.826,3.826,0,0,1-.616-3.167c.062,0,0,.739.16,1.614S272.355,248.9,272.306,248.927Z" transform="translate(-246.85 -217.568)"/><path class="j" d="M240.15,241.34a3.371,3.371,0,0,1,.53.382,15.46,15.46,0,0,1,1.349,1.171,20.694,20.694,0,0,1,5.785,10.1,15.133,15.133,0,0,1,.327,1.75,3.912,3.912,0,0,1,.062.653,4.4,4.4,0,0,1-.136-.616c-.068-.413-.2-1-.388-1.731a22.406,22.406,0,0,0-2.2-5.4,22.794,22.794,0,0,0-3.542-4.633c-.536-.524-.98-.936-1.3-1.232A5.172,5.172,0,0,1,240.15,241.34Z" transform="translate(-234.784 -215.872)"/><path class="j" d="M244.932,249.006a7.134,7.134,0,0,0-1.553-4.966,2.015,2.015,0,0,1,.554.573,5.643,5.643,0,0,1,1.127,3.61A2.04,2.04,0,0,1,244.932,249.006Z" transform="translate(-236.024 -216.908)"/><path class="j" d="M251.322,252.228a1.848,1.848,0,0,1-.684-.216,6.111,6.111,0,0,1-2.594-2.236,1.811,1.811,0,0,1-.314-.616,8.57,8.57,0,0,0,3.592,3.08Z" transform="translate(-237.694 -218.874)"/><path class="j" d="M249.854,257.321a8.7,8.7,0,0,0,.3-2.027,8.433,8.433,0,0,0-.376-2.015,4.119,4.119,0,0,1,.074,4.041Z" transform="translate(-238.481 -220.456)"/><path class="j" d="M253.725,261.165a2.976,2.976,0,0,1-1.1-1.232,3.167,3.167,0,0,1-.468-1.583c.062,0,.2.708.616,1.491a15.547,15.547,0,0,0,.949,1.325Z" transform="translate(-239.395 -222.402)"/><g class="x" transform="translate(8.902 36.789)"><path class="d" d="M257.139,266.477a6.925,6.925,0,0,0-11.249-5.243l1.288,4.356,5.594,2.729Z" transform="translate(-245.89 -259.716)"/></g><g class="x" transform="translate(21.196 14.897)"><path class="d" d="M272.262,236.286a6.832,6.832,0,0,1-3.912-12.106l5.754,3.666Z" transform="translate(-265.845 -224.18)"/></g></g></g><g transform="translate(108.533 219.015)"><rect class="l" width="18.322" height="27.421" rx="3.58" transform="matrix(0.377, -0.926, 0.926, 0.377, 3.173, 21.484)"/><g class="o" transform="translate(3.173 4.514)"><rect width="18.322" height="27.421" rx="3.58" transform="matrix(0.377, -0.926, 0.926, 0.377, 0, 16.97)"/></g><path class="h" d="M533.721,230.534a1.4,1.4,0,0,1,.129-.327c.117-.24.259-.536.431-.906a21.644,21.644,0,0,0,1.355-3.4,8.274,8.274,0,0,0-.111-5.28,5.39,5.39,0,0,0-1.935-2.421,15.075,15.075,0,0,0-3.08-1.553,9.847,9.847,0,0,0-6.426-.708,5.908,5.908,0,0,0-2.421,1.448,8.627,8.627,0,0,0-1.509,2,18.15,18.15,0,0,0-1.38,3.388l-.3.955a2.069,2.069,0,0,1-.123.327,1.126,1.126,0,0,1,.062-.345c.049-.222.129-.554.24-.973a16.817,16.817,0,0,1,1.3-3.462,8.687,8.687,0,0,1,1.528-2.07,6.013,6.013,0,0,1,2.52-1.546,7.479,7.479,0,0,1,3.259-.228,14.207,14.207,0,0,1,3.376.924,15.056,15.056,0,0,1,3.08,1.6,5.618,5.618,0,0,1,2.027,2.563,8.348,8.348,0,0,1,.055,5.452,19.186,19.186,0,0,1-1.46,3.395c-.2.388-.37.684-.481.881A1.847,1.847,0,0,1,533.721,230.534Z" transform="translate(-506.436 -215.343)"/><rect class="l" width="18.322" height="27.421" rx="3.58" transform="matrix(0.377, -0.926, 0.926, 0.377, 0, 20.08)"/><g class="y" transform="translate(3.739 10.878)"><path class="d" d="M505.08,233a45.588,45.588,0,0,0,5.243,2.933c1.848.764.123,1.232,3.179.9s3.327-.345,4.011.209.992,1.355,1.516,1.639a15.752,15.752,0,0,0,1.466.616s2.23.93,2.742,1.072c3.592,1,4.411.136,5.434,1.645s1.694,1.589,1.694,1.589l.7-1.713-3.234-1.312s-1.491-1.232-1.928-1.516-.616-.893-1.4-.567a4.768,4.768,0,0,1-1.941.3c-.456,0-2.07-.277-2.07-.277l-1.4-.573-.314-1.232-1.281-.887-.69-.1-1.731-.431-2.409-.345-2.464-.616-1.4-.573-2.125-.136Z" transform="translate(-505.08 -233)"/></g><g class="y" transform="translate(3.234 14.118)"><path class="d" d="M504.26,238.26l3.666,2.852,1.817,1.565a12.436,12.436,0,0,0,3.278,1.331,7.011,7.011,0,0,1,2.156.517l1.232,1.023,1.713.7,1.9.246,1.707.049,1.485.616,1.953.795,1.793.733,1.09.444.277.745.616-1.546-5.076-3.45-3.826-.444-3.161-1.281-1.442-1.7-2.557-.2-2.39-.616L507.9,239.4l-2.729-1.109Z" transform="translate(-504.26 -238.26)"/></g><g class="y" transform="translate(1.712 15.16)"><path class="d" d="M501.79,240.634l1.645,4.239,1.4,1.928,4.448,1.811-2.76-4.393-2.15-1.423-1.756-2.169-.548-.678Z" transform="translate(-501.79 -239.95)"/></g><g class="y" transform="translate(8.631 19.86)"><path class="d" d="M513.02,247.58,516,250.34l.487,2.378,2.889,1.171,3.351,1.368,2.212-.961,2.76-.29,1.17.025-2.261-.918-2.791.136-2.156-.29-2.224-1.9-2.5-1.017-.708-1.152-1.2-.856Z" transform="translate(-513.02 -247.58)"/></g><g class="y" transform="translate(4.676 7.428)"><path class="d" d="M507.715,228.127l4.251.733,3.505-.844,2.464-.616,2.668,1.725,3.08,1.442,3.832.739,2.464.265,1.9,1.6.875,2.994.049.764-.345.85-2.138-3.241a21,21,0,0,0-1.743-1.528c-.234-.1-1.312-.807-1.793-.733a9.185,9.185,0,0,1-3.08-.444c-1.121-.363-3.117-.9-3.117-.9l-1.848-1.134-1.09-.444h-2.643l-1.509.567-1.368.684-2.267-.918-3.265-1.017.487-1.183Z" transform="translate(-506.6 -227.4)"/></g><g class="y" transform="translate(5.347 4.902)"><path class="d" d="M512.945,223.3l-4.885,1.109-.37.9,2.809.025,2.643-.228,1.737-1.017Z" transform="translate(-507.69 -223.3)"/></g><path class="h" d="M522.7,247.187a2.742,2.742,0,0,0,.869.129,2.162,2.162,0,0,0,1.941-1.343l3.493-8.724q.567-1.386,1.164-2.889c.2-.5.431-1.023.616-1.528a2.076,2.076,0,0,0-.179-1.565,2.218,2.218,0,0,0-1.294-1.023l-1.7-.69-3.555-1.435-15.821-6.407a2.058,2.058,0,0,0-1.99.253,2.014,2.014,0,0,0-.616.795l-.425,1.017-1.639,4.035q-1.626,3.968-3.111,7.621a2.705,2.705,0,0,0-.265.887,2.082,2.082,0,0,0,1.331,2.107l3.351,1.368,6,2.464,8.687,3.592,2.353.992.616.265a1.411,1.411,0,0,1,.2.1,1.066,1.066,0,0,1-.216-.068l-.616-.234-2.378-.936-8.724-3.493-6.019-2.433-3.351-1.355a2.353,2.353,0,0,1-1.374-1.38,2.327,2.327,0,0,1-.142-1.01,3.011,3.011,0,0,1,.277-.973l3.08-7.633c.542-1.318,1.084-2.668,1.639-4.029.142-.345.271-.684.425-1.035a2.317,2.317,0,0,1,.727-.912,2.378,2.378,0,0,1,2.3-.29l15.8,6.45,3.542,1.454,1.7.7a2.464,2.464,0,0,1,1.423,1.146,2.335,2.335,0,0,1,.191,1.768c-.2.554-.419,1.041-.616,1.546l-1.183,2.883c-1.516,3.653-2.742,6.617-3.592,8.68a2.261,2.261,0,0,1-1,1.1,2.194,2.194,0,0,1-1.053.271A1.7,1.7,0,0,1,522.7,247.187Z" transform="translate(-499.355 -217.611)"/></g><g transform="translate(372.046 184.208)"><path class="h" d="M624.81,278.767v-.4l.129-1.171c0-.259.074-.548.08-.869s0-.672,0-1.047.031-.789,0-1.232-.08-.9-.117-1.386a22.489,22.489,0,0,0-1.848-6.9,22.214,22.214,0,0,0-5.545-7.584l-1-.875c-.357-.271-.733-.53-1.109-.8a21.922,21.922,0,0,0-2.39-1.472,22.319,22.319,0,0,0-5.6-2.027,22.982,22.982,0,0,0-3.08-.487c-.53-.055-1.066,0-1.608-.049H601.9c-.277,0-.548.043-.819.062a21.218,21.218,0,0,0-6.586,1.454,22.444,22.444,0,0,0-11.015,9.1,22.844,22.844,0,0,0-3.191,14.952q.074.505.166,1.017v.068l-.037.055-7.214,10.079-.154-.246,10.707-1.657h.1l.049.08a22.345,22.345,0,0,0,13.166,9.272,17.544,17.544,0,0,0,2.464.456l1.232.154c.406.049.819.031,1.232.043a22.333,22.333,0,0,0,8.9-1.583,23,23,0,0,0,6.623-4.078l1.263-1.183,1.078-1.232a11.983,11.983,0,0,0,.943-1.232,12.217,12.217,0,0,0,.826-1.189,23.5,23.5,0,0,0,2.082-4.251l.554-1.62c.117-.481.209-.887.29-1.232s.135-.567.179-.745a1.918,1.918,0,0,1,.074-.253,1.154,1.154,0,0,1-.043.259c-.043.166-.092.425-.16.752s-.16.745-.265,1.232-.333,1.023-.53,1.639a23.024,23.024,0,0,1-2.058,4.313c-.228.413-.536.782-.819,1.2a11.493,11.493,0,0,1-.943,1.232l-1.078,1.232-1.269,1.2a23.093,23.093,0,0,1-6.66,4.146A22.536,22.536,0,0,1,602,297.594a11.815,11.815,0,0,1-1.232-.043l-1.232-.148a17.961,17.961,0,0,1-2.514-.456,22.616,22.616,0,0,1-13.35-9.37l.154.068-10.707,1.663-.376.062.222-.308,7.251-10.079-.031.123q-.092-.518-.166-1.035a23.1,23.1,0,0,1,3.216-15.174,22.8,22.8,0,0,1,11.176-9.241,21.679,21.679,0,0,1,6.678-1.46c.277,0,.555-.049.826-.055h.826a14.357,14.357,0,0,1,1.633.062,23.686,23.686,0,0,1,3.142.5,22.177,22.177,0,0,1,5.649,2.07,20.959,20.959,0,0,1,2.415,1.5c.376.271.758.53,1.115.807l1.017.887a22.364,22.364,0,0,1,7.393,14.644c.037.493.068.955.1,1.4s0,.844,0,1.232,0,.733-.031,1.053-.068.616-.1.869c-.068.505-.123.893-.16,1.171A1.859,1.859,0,0,1,624.81,278.767Z" transform="translate(-572.74 -252.14)"/><path class="i" d="M622.26,275.07l2.7,20.484H604.93l2.92-20.484Z" transform="translate(-585.099 -260.944)"/><path class="d" d="M612.31,279.875a9.2,9.2,0,0,0,1.041,1.916,5.267,5.267,0,0,0,1.743,1.54,5.7,5.7,0,0,0,2.76.672,5.891,5.891,0,0,0,2.772-.616,4.732,4.732,0,0,0,1.719-1.552,8.621,8.621,0,0,0,.924-1.984,1.565,1.565,0,0,1-.08.616,5.544,5.544,0,0,1-.653,1.509,4.83,4.83,0,0,1-1.768,1.688,5.982,5.982,0,0,1-2.914.672,5.847,5.847,0,0,1-2.9-.733,5.292,5.292,0,0,1-1.787-1.67,5.626,5.626,0,0,1-.721-1.472,1.522,1.522,0,0,1-.136-.585Z" transform="translate(-587.932 -262.779)"/></g></g></g></svg>