<svg xmlns="http://www.w3.org/2000/svg" width="426" height="259" viewBox="0 0 426 259"><defs><style>.a{fill:#dcebf5;}.b{fill:#e0e0e0;}.c{fill:#455a64;}.d{fill:#f5f5f5;}.e{fill:#fafafa;}.f,.l,.m{fill:#fff;}.g{fill:#ebebeb;}.h{fill:#263238;}.i{fill:#3b88c2;}.j,.q{opacity:0.3;}.k{fill:#bf3976;}.l,.n{opacity:0.4;}.m{opacity:0.7;}.o{fill:#c69481;}.p{fill:#936457;}.r{opacity:0.6;}</style></defs><g transform="translate(-321 -1286)"><rect class="a" width="426" height="259" rx="22" transform="translate(321 1286)"/><g transform="translate(326.37 1270.311)"><g transform="translate(21.63 22.69)"><rect class="b" width="36.012" height="37.54" transform="translate(335.262 81.801)"/><rect class="c" width="36.012" height="37.54" transform="translate(332.82 81.801)"/><path class="d" d="M680.575,213.331H644.52V175.77h36.055Z" transform="translate(-311.711 -93.98)"/><rect class="e" width="26.33" height="27.447" transform="translate(337.666 86.845)"/><path class="b" d="M649.419,236.94a4.392,4.392,0,0,1-.652.759c-.422.443-1.01,1.042-1.672,1.694s-1.272,1.234-1.72,1.646a3.926,3.926,0,0,1-.764.636,4.522,4.522,0,0,1,.646-.753c.422-.443,1.015-1.069,1.678-1.7s1.277-1.234,1.726-1.651A4.3,4.3,0,0,1,649.419,236.94Z" transform="translate(-311.752 -122.466)"/><path class="b" d="M702.88,236.82a4.191,4.191,0,0,1,.759.63c.443.422,1.069,1.015,1.694,1.672s1.234,1.272,1.651,1.72a4.2,4.2,0,0,1,.63.764,4.217,4.217,0,0,1-.753-.646c-.443-.422-1.069-1.015-1.7-1.678s-1.234-1.277-1.651-1.726A4.409,4.409,0,0,1,702.88,236.82Z" transform="translate(-338.889 -122.411)"/><path class="b" d="M702.75,181.262a4.2,4.2,0,0,1,.668-.732c.417-.449,1.01-1.069,1.672-1.7s1.272-1.234,1.72-1.646a4.523,4.523,0,0,1,.759-.636,4.214,4.214,0,0,1-.646.753c-.422.443-1.01,1.069-1.678,1.7s-1.272,1.24-1.72,1.651A4.012,4.012,0,0,1,702.75,181.262Z" transform="translate(-338.828 -94.343)"/><path class="b" d="M649.344,181.309a4.5,4.5,0,0,1-.753-.652c-.443-.422-1.069-1.01-1.7-1.672s-1.234-1.272-1.646-1.72a4.191,4.191,0,0,1-.636-.764,4.275,4.275,0,0,1,.753.647c.443.422,1.069,1.015,1.7,1.678s1.24,1.277,1.651,1.726a4.014,4.014,0,0,1,.631.759Z" transform="translate(-311.752 -94.319)"/><path class="b" d="M679.772,212.57v-2c0-1.3,0-3.206-.027-5.594,0-4.809-.032-11.653-.053-19.855l.1.1H653.538l.112-.118v27.447l-.1-.1,19.01.053,5.343.027h.021l-5.343.027-19.075.053h-.1V185h26.474v.1c0,8.228-.037,15.1-.053,19.919,0,2.394,0,4.274-.027,5.573v1.833a.98.98,0,0,1-.032.144Z" transform="translate(-315.851 -98.278)"/><path class="d" d="M673.372,215.891a16.566,16.566,0,0,0-2.415-5.412,2.557,2.557,0,0,0-1.715-1.309,1.726,1.726,0,0,0-1.459.764,3.243,3.243,0,0,0-.534,1.6,4.611,4.611,0,0,0-4.125-.235,2.839,2.839,0,0,0-1.405,3.6c.641,1.277,2.271,1.651,3.687,1.881a1.6,1.6,0,0,0-.4,1.956,2.361,2.361,0,0,0,1.726,1.181,3.4,3.4,0,0,0,2.137-.208,12.29,12.29,0,0,0,4.483-3.831" transform="translate(-319.613 -109.534)"/><path class="b" d="M680.973,220.8a2.714,2.714,0,0,1-.566,0c-.363,0-.887-.064-1.528-.128-1.288-.128-3.019-.353-5.017-.716s-3.7-.759-4.948-1.069c-.625-.166-1.133-.31-1.48-.417a2.459,2.459,0,0,1-.534-.192,2.564,2.564,0,0,1,.534.1l1.491.347c1.261.289,3.008.668,4.953,1.026s3.708.609,4.99.78l1.523.2A2.182,2.182,0,0,1,680.973,220.8Z" transform="translate(-322.133 -113.776)"/><path class="b" d="M672.532,211.32a1.5,1.5,0,0,1,.214.358,10.006,10.006,0,0,1,.476,1.069,16.028,16.028,0,0,1,.989,3.7v.091l-.08.037-.315.134a19.167,19.167,0,0,0-3.478,2c-.8.582-1.3.988-1.336.988a1.549,1.549,0,0,1,.31-.337c.208-.2.534-.481.93-.8a16.563,16.563,0,0,1,3.484-2.084l.315-.139-.07.128a19.3,19.3,0,0,0-.9-3.676C672.74,211.876,672.5,211.336,672.532,211.32Z" transform="translate(-323.111 -110.535)"/><path class="b" d="M667.736,214.19a5.926,5.926,0,0,1,.534.844c.331.534.823,1.25,1.368,2.068l.1.139-.166.043-.326.075c-1.037.24-1.982.4-2.672.534a6.226,6.226,0,0,1-1.111.166,4.678,4.678,0,0,1,1.069-.326c.673-.166,1.6-.353,2.672-.588l.326-.075-.075.176c-.534-.812-1.01-1.555-1.309-2.11a3.925,3.925,0,0,1-.406-.946Z" transform="translate(-321.462 -111.872)"/><path class="d" d="M680.525,199.95a16.459,16.459,0,0,0,1.6-5.7,2.538,2.538,0,0,0-.481-2.105,1.689,1.689,0,0,0-1.6-.347,3.253,3.253,0,0,0-1.437.908,4.627,4.627,0,0,0-3.013-2.826,2.848,2.848,0,0,0-3.387,1.865c-.326,1.395.684,2.725,1.63,3.8a1.6,1.6,0,0,0-1.56,1.245,2.372,2.372,0,0,0,.566,2.014,3.43,3.43,0,0,0,1.779,1.213,12.331,12.331,0,0,0,5.877-.069" transform="translate(-324.575 -100.517)"/><path class="b" d="M681.143,195a1.487,1.487,0,0,1-.027.422c-.032.267-.1.652-.208,1.127a15.872,15.872,0,0,1-1.3,3.6l-.037.08h-.091l-.337-.069a18.947,18.947,0,0,0-4-.342c-1.031,0-1.667.1-1.672.059a1.6,1.6,0,0,1,.443-.1c.283-.043.7-.1,1.224-.123a16.2,16.2,0,0,1,4.05.278l.337.069-.128.059a19.3,19.3,0,0,0,1.357-3.532C681,195.6,681.105,195,681.143,195Z" transform="translate(-325.193 -102.935)"/><path class="b" d="M678.294,193.17a4.083,4.083,0,0,1,.059.988v2.565l-.15-.043-.272-.075c-.978-.267-1.865-.534-2.5-.727a5.742,5.742,0,0,1-1.021-.363,4.868,4.868,0,0,1,1.069.2c.647.155,1.539.39,2.522.663l.272.075-.15.112c0-.956.053-1.806.086-2.415A4.116,4.116,0,0,1,678.294,193.17Z" transform="translate(-325.63 -102.083)"/><path class="b" d="M677.22,194.79a1.738,1.738,0,0,1,.176.144l.465.46a9.357,9.357,0,0,1,.705.753,11.923,11.923,0,0,1,.882,1.069,31.4,31.4,0,0,1,2.057,2.917,40.738,40.738,0,0,1,2.089,3.831,39.836,39.836,0,0,1,1.64,4.05,31.093,31.093,0,0,1,.951,3.436c.048.251.1.486.15.711s.064.438.1.641c.064.4.118.737.134,1.026s.037.476.053.652a1.209,1.209,0,0,1,0,.224.648.648,0,0,1-.048-.224q-.043-.256-.1-.641c-.032-.283-.1-.62-.171-1.015-.037-.2-.075-.411-.118-.63l-.166-.705a34.439,34.439,0,0,0-.988-3.4c-.444-1.261-1-2.618-1.651-4.018a41.235,41.235,0,0,0-2.062-3.82,34.831,34.831,0,0,0-2-2.923c-.3-.411-.593-.759-.849-1.069s-.481-.572-.673-.78l-.438-.486a.94.94,0,0,1-.139-.2Z" transform="translate(-326.939 -102.837)"/><rect class="b" width="36.471" height="38.021" transform="translate(336.453 25.946)"/><rect class="c" width="36.471" height="38.021" transform="translate(333.985 25.946)"/><path class="d" d="M683.193,109.267H646.7V71.23h36.493Z" transform="translate(-312.726 -45.295)"/><rect class="e" width="26.667" height="27.794" transform="translate(338.884 31.053)"/><path class="b" d="M651.652,133.18a4.145,4.145,0,0,1-.657.764c-.427.454-1.026,1.069-1.694,1.72s-1.288,1.25-1.742,1.667a4.151,4.151,0,0,1-.769.641,3.982,3.982,0,0,1,.652-.759c.427-.449,1.026-1.069,1.7-1.726s1.293-1.25,1.747-1.667a4.558,4.558,0,0,1,.764-.641Z" transform="translate(-312.768 -74.145)"/><path class="b" d="M705.8,133.05a4.343,4.343,0,0,1,.764.663c.449.422,1.069,1.02,1.72,1.694s1.25,1.288,1.667,1.742a4.158,4.158,0,0,1,.641.769,4.562,4.562,0,0,1-.759-.652c-.454-.427-1.068-1.026-1.726-1.7s-1.25-1.293-1.667-1.747A3.894,3.894,0,0,1,705.8,133.05Z" transform="translate(-340.249 -74.085)"/><path class="b" d="M705.66,76.823a4.658,4.658,0,0,1,.663-.764c.422-.449,1.021-1.069,1.694-1.72s1.288-1.25,1.742-1.667a4.453,4.453,0,0,1,.769-.641,4.708,4.708,0,0,1-.652.764c-.427.449-1.026,1.069-1.7,1.72s-1.266,1.24-1.747,1.64a3.893,3.893,0,0,1-.769.668Z" transform="translate(-340.183 -45.668)"/><path class="b" d="M651.583,76.837a4.566,4.566,0,0,1-.769-.657c-.449-.427-1.069-1.026-1.715-1.7s-1.25-1.288-1.667-1.742a4.152,4.152,0,0,1-.641-.769,4.472,4.472,0,0,1,.759.657c.449.422,1.069,1.026,1.726,1.7s1.25,1.288,1.667,1.742a4.45,4.45,0,0,1,.641.769Z" transform="translate(-312.768 -45.64)"/><path class="b" d="M682.393,108.428v-7.689c0-4.873-.032-11.808-.053-20.111l.1.1H655.807l.118-.118V108.4l-.1-.1,19.235.048h5.45l-5.386.027-19.32.053h-.1v-28h26.817v.1c0,8.33-.043,15.292-.053,20.175v7.5a.587.587,0,0,1-.07.235Z" transform="translate(-316.917 -49.575)"/><path class="d" d="M670.258,106.2A5.877,5.877,0,0,1,670,98.44c.737-.85,1.726-1.469,2.41-2.367,1.485-1.94,1.464-4.99,3.537-6.289a3.774,3.774,0,0,1,4.777.994,5.054,5.054,0,0,1,.476,5.065,32.382,32.382,0,0,0-1.822,3.489c-.379,1.256-.166,2.7-.566,3.986-.481,1.555-2.137,2.533-3.644,3.1a6.807,6.807,0,0,1-4.9-.219" transform="translate(-322.953 -53.714)"/><path class="b" d="M676.65,97a4.445,4.445,0,0,1-.256.732c-.176.47-.46,1.138-.828,1.956a54.584,54.584,0,0,1-7.357,11.872c-.566.695-1.069,1.245-1.384,1.6a5.052,5.052,0,0,1-.534.534,5.11,5.11,0,0,1,.47-.62c.321-.385.769-.951,1.32-1.651a64.4,64.4,0,0,0,7.341-11.845c.385-.8.689-1.459.892-1.918A4.675,4.675,0,0,1,676.65,97Z" transform="translate(-321.849 -57.296)"/><path class="b" d="M675.357,106a9.165,9.165,0,0,1,.214,1.405c.107.876.235,2.1.369,3.484l-.176-.091.577-.337c1.33-.78,2.543-1.469,3.43-1.961a11.4,11.4,0,0,1,1.453-.753,10.782,10.782,0,0,1-1.368.9c-.866.534-2.062,1.245-3.4,2.025l-.577.331-.16.1v-.187c-.128-1.378-.23-2.607-.294-3.489A9.164,9.164,0,0,1,675.357,106Z" transform="translate(-326.069 -61.488)"/><path class="b" d="M685.026,100.746a4.478,4.478,0,0,1-.9.5c-.572.283-1.362.663-2.239,1.069l-.278.128-.144.064v-.155c-.139-.887-.251-1.683-.321-2.255a4.269,4.269,0,0,1-.07-.93,3.613,3.613,0,0,1,.23.9c.112.566.251,1.357.4,2.244l-.166-.091.273-.128c.882-.4,1.683-.753,2.271-.994a4.531,4.531,0,0,1,.946-.358Z" transform="translate(-328.734 -58.307)"/><rect class="b" width="36.471" height="38.021" transform="translate(336.453 135.146)"/><rect class="c" width="36.471" height="38.021" transform="translate(333.985 135.146)"/><path class="d" d="M683.193,313.652H646.7V275.61h36.493Z" transform="translate(-312.726 -140.475)"/><rect class="e" width="26.667" height="27.794" transform="translate(338.884 140.259)"/><path class="b" d="M651.652,337.57a4.36,4.36,0,0,1-.657.764c-.427.449-1.026,1.069-1.694,1.715s-1.288,1.25-1.742,1.667a4.357,4.357,0,0,1-.769.646,3.743,3.743,0,0,1,.652-.764c.427-.449,1.026-1.069,1.7-1.72s1.293-1.256,1.747-1.672A4.046,4.046,0,0,1,651.652,337.57Z" transform="translate(-312.768 -169.33)"/><path class="b" d="M705.8,337.44a4.147,4.147,0,0,1,.764.657c.449.427,1.069,1.026,1.72,1.694s1.25,1.288,1.667,1.742a4.155,4.155,0,0,1,.641.769,3.987,3.987,0,0,1-.759-.652c-.454-.427-1.069-1.026-1.726-1.7s-1.25-1.293-1.667-1.747a3.975,3.975,0,0,1-.641-.764Z" transform="translate(-340.249 -169.269)"/><path class="b" d="M705.66,281.153a4.936,4.936,0,0,1,.663-.764c.422-.449,1.021-1.069,1.694-1.715s1.288-1.25,1.742-1.667a4.363,4.363,0,0,1,.769-.647,4.222,4.222,0,0,1-.652.764c-.427.449-1.026,1.069-1.7,1.72s-1.293,1.256-1.747,1.672a3.967,3.967,0,0,1-.769.636Z" transform="translate(-340.183 -140.824)"/><path class="b" d="M651.583,281.217a4.273,4.273,0,0,1-.769-.657c-.449-.427-1.069-1.026-1.715-1.694s-1.25-1.288-1.667-1.742a3.878,3.878,0,0,1-.641-.775,4.47,4.47,0,0,1,.759.657c.449.427,1.069,1.026,1.726,1.7s1.25,1.288,1.667,1.747a4.562,4.562,0,0,1,.641.764Z" transform="translate(-312.768 -140.82)"/><path class="b" d="M682.417,312.9v-7.689c0-4.867-.032-11.8-.053-20.106l.1.1H655.878l.117-.118v27.784l-.1-.1,19.235.053,5.407.027h.021l-5.386.027-19.32.053h-.1V285h26.816v.107c0,8.33-.043,15.286-.053,20.17v7.507a.5.5,0,0,1-.1.118Z" transform="translate(-316.94 -144.848)"/><path class="d" d="M670.256,310.586a5.877,5.877,0,0,1-.262-7.763c.737-.85,1.726-1.469,2.41-2.367,1.485-1.934,1.464-4.99,3.537-6.289a3.781,3.781,0,0,1,4.777.994,5.065,5.065,0,0,1,.475,5.07,31.432,31.432,0,0,0-1.822,3.489c-.379,1.261-.166,2.7-.566,3.986-.481,1.549-2.137,2.533-3.644,3.094a6.834,6.834,0,0,1-4.9-.214" transform="translate(-322.951 -148.896)"/><path class="b" d="M676.65,301.34a4.445,4.445,0,0,1-.256.732c-.176.47-.46,1.138-.828,1.956a54.451,54.451,0,0,1-7.357,11.877c-.566.689-1.069,1.24-1.384,1.6a5.545,5.545,0,0,1-.534.561,4.281,4.281,0,0,1,.47-.62c.321-.39.769-.951,1.32-1.656a66,66,0,0,0,3.991-5.722,66.985,66.985,0,0,0,3.35-6.118c.385-.807.689-1.464.892-1.918A4.98,4.98,0,0,1,676.65,301.34Z" transform="translate(-321.849 -152.458)"/><path class="b" d="M675.357,310.36a8.875,8.875,0,0,1,.214,1.405c.107.876.235,2.1.369,3.478l-.176-.091.577-.337c1.33-.775,2.543-1.469,3.43-1.961a10.088,10.088,0,0,1,1.453-.748,11.552,11.552,0,0,1-1.368.9c-.866.534-2.062,1.24-3.4,2.02l-.577.337-.16.091v-.182c-.128-1.384-.23-2.613-.294-3.494A9.088,9.088,0,0,1,675.357,310.36Z" transform="translate(-326.069 -156.658)"/><path class="b" d="M685.026,305.136a4.8,4.8,0,0,1-.9.5c-.572.283-1.362.657-2.239,1.069l-.278.123-.144.064v-.155c-.139-.887-.251-1.683-.321-2.255a4.236,4.236,0,0,1-.07-.924,3.616,3.616,0,0,1,.23.9c.112.561.251,1.352.4,2.239l-.166-.091.273-.123c.882-.406,1.683-.753,2.271-1A3.991,3.991,0,0,1,685.026,305.136Z" transform="translate(-328.734 -153.491)"/><path class="d" d="M216.59,59.22V71.749h38.534V59.22Z" transform="translate(-112.423 -39.702)"/><path class="b" d="M213.56,52.66v3.505h41.5V52.66h-41.5Z" transform="translate(-111.012 -36.647)"/><path class="b" d="M251.692,68.694h19.4V56.165h1.352V52.66H250.88v3.184Z" transform="translate(-128.392 -36.647)"/><rect class="b" width="7.817" height="1.886" transform="translate(109.558 21.538)"/><rect class="f" width="10.034" height="3.981" transform="translate(108.548 25.785)"/><path class="d" d="M252.9,29.24V41.775h38.539V29.24Z" transform="translate(-129.333 -25.74)"/><path class="b" d="M249.88,22.69v3.5h41.5v-3.5h-41.5Z" transform="translate(-127.926 -22.69)"/><path class="b" d="M288.007,38.724h19.406V26.19h1.346v-3.5H287.2v3.179Z" transform="translate(-145.306 -22.69)"/><rect class="b" width="7.817" height="1.886" transform="translate(128.958 5.519)"/><rect class="f" width="10.034" height="3.981" transform="translate(127.954 9.767)"/><path class="d" d="M309.26,59.22V71.749h38.534V59.22Z" transform="translate(-155.58 -39.702)"/><path class="b" d="M306.23,52.66v3.505h41.5V52.66h-41.5Z" transform="translate(-154.169 -36.647)"/><path class="b" d="M344.362,68.694h19.4V56.165h1.346V52.66H343.55v3.184Z" transform="translate(-171.548 -36.647)"/><rect class="b" width="7.817" height="1.886" transform="translate(159.066 21.538)"/><rect class="f" width="10.034" height="3.981" transform="translate(158.062 25.785)"/><rect class="b" width="53.104" height="87.903" transform="translate(1.763 42.124)"/><rect class="g" width="53.104" height="87.903" transform="translate(0 42.124)"/><rect class="e" width="48.584" height="84.339" transform="translate(2.26 43.909)"/><rect class="g" width="29.873" height="62.422" transform="translate(11.509 54.867)"/><path class="b" d="M43.169,180.8c-.091-5.808,5.172-11.525,10.948-12.337,2.752-.39,5.68.155,8.25-.9,4.595-1.886,6.054-7.982,10.686-9.794l.214,45.116h-30.1Z" transform="translate(-31.66 -85.597)"/></g><g transform="translate(83.988 54.737)"><path class="h" d="M331.83,390v12.321H355V390Zm15.431,4.216h-7.9a1,1,0,0,1,0-2h7.9a1,1,0,0,1,0,2Z" transform="translate(-228.448 -225.794)"/><rect class="h" width="25.454" height="3.259" transform="translate(102.094 160.947)"/><path class="c" d="M371.26,383.9l3.1,2.709V383.9Z" transform="translate(-246.811 -222.953)"/><path class="c" d="M329.42,386.609l3.713-2.709H329.42Z" transform="translate(-227.326 -222.953)"/><path class="c" d="M354.925,389.83c0,.08-5.69.118-12.7.091s-12.695-.107-12.695-.187,5.685-.118,12.695-.091S354.925,389.755,354.925,389.83Z" transform="translate(-227.377 -225.623)"/><path class="h" d="M474.5,121.05v12.326h23.167V121.05Zm15.431,4.216h-7.9a1,1,0,0,1,0-2h7.9a1,1,0,0,1,0,2Z" transform="translate(-294.89 -100.544)"/><rect class="h" width="25.454" height="3.259" transform="translate(178.317 17.247)"/><path class="c" d="M513.93,114.95l3.094,2.709V114.95Z" transform="translate(-313.253 -97.703)"/><path class="c" d="M472.08,117.659l3.713-2.709H472.08Z" transform="translate(-293.763 -97.703)"/><path class="c" d="M497.585,120.882c0,.08-5.685.118-12.695.1s-12.7-.112-12.7-.187,5.685-.118,12.7-.1S497.585,120.807,497.585,120.882Z" transform="translate(-293.814 -100.376)"/><path class="h" d="M550.2,121.05v12.326h23.173V121.05Zm15.431,4.216h-7.9a1,1,0,1,1,0-2h7.9a1,1,0,0,1,0,2Z" transform="translate(-330.144 -100.544)"/><rect class="h" width="25.454" height="3.259" transform="translate(218.769 17.247)"/><path class="c" d="M589.63,114.95l3.094,2.709V114.95Z" transform="translate(-348.506 -97.703)"/><path class="c" d="M547.79,117.659l3.713-2.709H547.79Z" transform="translate(-329.021 -97.703)"/><path class="c" d="M573.285,120.882c0,.08-5.685.118-12.695.1s-12.7-.112-12.7-.187,5.685-.118,12.7-.1S573.285,120.807,573.285,120.882Z" transform="translate(-329.068 -100.376)"/><path class="i" d="M174.3,305.62v18.252h34.318V305.62Zm22.852,6.241h-11.7a1.485,1.485,0,0,1,0-2.965h11.7a1.485,1.485,0,0,1,0,2.965Z" transform="translate(-155.087 -186.498)"/><rect class="i" width="37.695" height="4.83" transform="translate(17.301 114.292)"/><path class="j" d="M232.7,296.58l4.584,4.013V296.58Z" transform="translate(-182.284 -182.288)"/><path class="j" d="M170.72,300.593l5.5-4.013h-5.5Z" transform="translate(-153.419 -182.288)"/><path class="h" d="M208.495,305.425c0,.08-8.426.107-18.807.069s-18.807-.134-18.807-.208,8.421-.107,18.807-.069S208.495,305.35,208.495,305.425Z" transform="translate(-153.494 -186.303)"/><rect class="b" width="80.364" height="4.355" transform="translate(169.314 72.804)"/><path class="h" d="M535.482,223.088v-1.074l-.027-3.275.043.043c-10.51.053-42.541.1-80.359.1h0l.139-.139v4.349l-.139-.139,56.935.059,17.135.043h.07l-17.1.043-57.036.053H455V218.52h.139c37.818,0,69.849.037,80.359.1h.043v4.135A1.062,1.062,0,0,1,535.482,223.088Z" transform="translate(-285.809 -145.935)"/><path class="k" d="M498.884,240.1h4.135a3.206,3.206,0,0,1,3.206,3.206v68.572H495.7V243.284A3.206,3.206,0,0,1,498.884,240.1Z" transform="translate(-304.763 -155.985)"/><path class="f" d="M502.906,261.69a6.228,6.228,0,0,1-1.069.753c-.764.5-1.667,1.069-2.672,1.731l-2.634,1.785a6.412,6.412,0,0,1-1.122.705,6.109,6.109,0,0,1,1-.866c.647-.5,1.56-1.165,2.6-1.854s2.009-1.272,2.725-1.667a5.664,5.664,0,0,1,1.17-.588Z" transform="translate(-304.628 -166.04)"/><path class="f" d="M502.065,248.18a25.191,25.191,0,0,1-2.88,2.335,23.931,23.931,0,0,1-3.046,2.11,24.616,24.616,0,0,1,2.88-2.335A23.92,23.92,0,0,1,502.065,248.18Z" transform="translate(-304.968 -159.748)"/><path class="f" d="M505.914,281.82a9.689,9.689,0,0,1-1.314,1.127c-.833.663-2.02,1.544-3.361,2.463s-2.6,1.7-3.516,2.239a9.838,9.838,0,0,1-1.523.812,12.113,12.113,0,0,1,1.421-.978c.887-.582,2.137-1.389,3.457-2.3s2.538-1.774,3.4-2.388a11.613,11.613,0,0,1,1.432-.972Z" transform="translate(-304.996 -175.414)"/><path class="f" d="M505.513,302a54.428,54.428,0,0,1-4.387,3.366,53.857,53.857,0,0,1-4.547,3.142,54.428,54.428,0,0,1,4.387-3.366A53.852,53.852,0,0,1,505.513,302Z" transform="translate(-305.173 -184.812)"/><path class="f" d="M506.346,320a12.562,12.562,0,0,1-1.475.94c-.919.534-2.175,1.357-3.521,2.3s-2.527,1.843-3.371,2.511a13,13,0,0,1-1.389,1.069,9.276,9.276,0,0,1,1.261-1.208,41.6,41.6,0,0,1,3.339-2.591c1.357-.94,2.639-1.715,3.585-2.239a8.925,8.925,0,0,1,1.571-.78Z" transform="translate(-305.177 -193.195)"/><path class="f" d="M506.791,341.94a13.964,13.964,0,0,1-1.491.924c-.93.534-2.2,1.33-3.58,2.233s-2.6,1.763-3.478,2.394a12.676,12.676,0,0,1-1.443.994,9.2,9.2,0,0,1,1.325-1.154c.85-.673,2.057-1.56,3.441-2.468s2.672-1.656,3.639-2.169a9.413,9.413,0,0,1,1.587-.753Z" transform="translate(-305.275 -203.412)"/><path class="f" d="M506.782,359.46a11.843,11.843,0,0,1-1.48.956c-.924.566-2.2,1.341-3.58,2.249s-2.6,1.779-3.484,2.4a10.914,10.914,0,0,1-1.459.978,10.686,10.686,0,0,1,1.341-1.133c.855-.668,2.062-1.565,3.446-2.479s2.672-1.667,3.639-2.191a9.875,9.875,0,0,1,1.576-.785Z" transform="translate(-305.266 -211.571)"/><path class="h" d="M495.584,250.326a1.678,1.678,0,0,1,0,.272v.807c0,.721,0,1.769.027,3.115,0,2.714.027,6.641.043,11.509,0,9.767.027,23.333.043,38.56l-.139-.134h6.818l-.139.139c0-16.216.032-30.834.043-41.408,0-5.274.032-9.543.043-12.5,0-1.464,0-2.607.027-3.393v0c0,.785,0,1.929.027,3.393,0,2.96.027,7.229.043,12.5,0,10.574.027,25.192.043,41.408v.144h-7.01V304.6c0-15.227.032-28.793.043-38.56,0-4.867.032-8.795.043-11.509,0-1.346,0-2.394.027-3.115v-.807A1.382,1.382,0,0,1,495.584,250.326Z" transform="translate(-304.646 -158.784)"/><path class="i" d="M556.873,241.21h.791a4.857,4.857,0,0,1,4.857,4.857v70.266H552V246.067a4.857,4.857,0,0,1,4.873-4.857Z" transform="translate(-330.982 -156.502)"/><rect class="c" width="6.251" height="3.623" rx="1.811" transform="translate(223.161 81.085)"/><path class="c" d="M564.175,265.89v4.5c0,2.917.027,7.122.043,12.337,0,10.456,0,24.952.048,41.141v.139H555.61v-.139c-.053-16.221-.069-30.722-.048-41.141,0-5.225.032-9.436.064-12.337,0-1.453.032-2.575.053-3.339a4.808,4.808,0,0,1,.043-.871.491.491,0,0,0,0-.289v16.836c.037,10.451.086,24.946.139,41.141l-.139-.139H564.1l-.139.139c0-16.211.032-30.706.043-41.141,0-5.215.032-9.42.043-12.337v-4.2A.352.352,0,0,1,564.175,265.89Z" transform="translate(-332.636 -167.996)"/><path class="h" d="M562.125,218.61a65.859,65.859,0,0,1,0,8.549,65.83,65.83,0,0,1,0-8.549Z" transform="translate(-335.624 -145.977)"/><rect class="c" width="6.251" height="3.623" rx="1.811" transform="translate(192.796 81.085)"/><path class="h" d="M505.3,218.61a65.816,65.816,0,0,1,0,8.549,65.823,65.823,0,0,1,0-8.549Z" transform="translate(-309.162 -145.977)"/><path class="b" d="M582.924,240.1h4.135a3.206,3.206,0,0,1,3.206,3.206v68.572H579.74V243.284A3.206,3.206,0,0,1,582.924,240.1Z" transform="translate(-343.9 -155.985)"/><path class="h" d="M579.624,250.326a1.678,1.678,0,0,1,0,.272v.807c0,.721,0,1.769.027,3.115,0,2.714,0,6.641.043,11.509,0,9.767.027,23.333.043,38.56l-.134-.134h6.839l-.139.139c0-16.216.032-30.834.043-41.408,0-5.274.032-9.543.043-12.5,0-1.464,0-2.607.027-3.393v0c0,.785,0,1.929.027,3.393,0,2.96,0,7.229.043,12.5,0,10.574.027,25.192.043,41.408v.144H579.49V304.6c0-15.227.032-28.793.043-38.56,0-4.867.032-8.795.043-11.509,0-1.346,0-2.394.027-3.115v-.807A1.386,1.386,0,0,1,579.624,250.326Z" transform="translate(-343.784 -158.784)"/><rect class="c" width="6.251" height="3.623" rx="1.811" transform="translate(237.699 81.085)"/><path class="h" d="M589.343,218.61a65.8,65.8,0,0,1,0,8.549,65.859,65.859,0,0,1,0-8.549Z" transform="translate(-348.299 -145.977)"/><path class="h" d="M525.957,240.1h.791a4.857,4.857,0,0,1,4.857,4.857v78.115H521.1V244.957A4.857,4.857,0,0,1,525.957,240.1Z" transform="translate(-316.592 -155.985)"/><path class="c" d="M520.979,250.326a1.692,1.692,0,0,1,0,.272v.807c0,.721,0,1.769.027,3.115,0,2.714,0,6.641.043,11.509,0,9.767.027,23.333.043,38.56l-.139-.134h6.818l-.139.139c0-16.216,0-30.834.037-41.408,0-5.274.037-9.543.048-12.5v-3.393c0,.785,0,1.929.027,3.393,0,2.96,0,7.229.043,12.5,0,10.574.027,25.192.043,41.408v.144H520.84V304.6c0-15.227.037-28.793.048-38.56,0-4.867.032-8.795.043-11.509v-3.922A2.511,2.511,0,0,1,520.979,250.326Z" transform="translate(-316.471 -158.784)"/><rect class="c" width="6.251" height="3.623" rx="1.811" transform="translate(206.368 81.085)"/><path class="h" d="M530.7,218.61a65.83,65.83,0,0,1,0,8.549,63.385,63.385,0,0,1,0-8.549Z" transform="translate(-320.986 -145.977)"/><rect class="c" width="6.732" height="211.235" transform="translate(0 0.721)"/><rect class="c" width="5.883" height="256.464" transform="translate(0 5.883) rotate(-90)"/><rect class="c" width="8.169" height="256.464" transform="translate(0 211.956) rotate(-90)"/><rect class="c" width="6.732" height="211.235" transform="translate(75.999 0.721)"/><rect class="c" width="6.732" height="211.235" transform="translate(162.865 0.721)"/><rect class="c" width="6.732" height="211.235" transform="translate(249.737 0.721)"/><rect class="c" width="74.241" height="31.342" transform="translate(3.366 176.527)"/><rect class="c" width="171.628" height="31.342" transform="translate(81.475 176.527)"/><rect class="c" width="84.734" height="33.971" transform="translate(79.365 4.087)"/><rect class="c" width="86.866" height="4.606" transform="translate(166.231 33.458)"/><rect class="c" width="86.866" height="4.606" transform="translate(166.231 63.662)"/><rect class="c" width="81.994" height="4.606" transform="translate(3.366 33.458)"/><rect class="c" width="77.687" height="4.606" transform="translate(3.366 69.812)"/><rect class="c" width="77.687" height="4.606" transform="translate(3.366 103.782)"/><rect class="c" width="77.687" height="4.606" transform="translate(3.366 137.753)"/><rect class="c" width="3.558" height="30.514" transform="translate(207.89 5.819)"/><path class="h" d="M373.044,121.46v-7.208c0-4.659-.032-11.429-.053-19.924l.091.091-80.353.048h0l.139-.139v27.142l-.134-.139,57.5.064,16.788.037h.059l-16.75.037-57.6.064H292.6V94.12h.144l80.353.048h.1v.091c0,8.517-.043,15.308-.053,19.977v6.716A3.512,3.512,0,0,0,373.044,121.46Z" transform="translate(-210.179 -88.002)"/><rect class="b" width="17.733" height="2.314" transform="translate(113.934 18.727)"/><path class="h" d="M220.656,447.132v-6.486c0-4.184-.032-10.259-.053-17.878l.091.1-72.1.043h0l.139-.139v24.353l-.134-.134,51.587.059,15.062.037h.037l-15.03.037-51.677.064h-.139V422.64h.139l72.1.048h.1v.091c0,7.646-.037,13.737-.053,17.931v6.038A.791.791,0,0,1,220.656,447.132Z" transform="translate(-143.044 -240.994)"/><rect class="b" width="15.906" height="2.073" transform="translate(33.704 192.925)"/><path class="h" d="M373.1,447.053v-6.47c0-4.168,0-10.243-.048-17.9l.086.091-80.294.048h0l.139-.139v24.353l-.134-.134,57.394.059,16.814.037h.064l-16.782.043-57.491.059h-.134V422.47h.144l80.294.053h.091v.085c0,7.683-.037,13.78-.048,17.958v5.989A2.949,2.949,0,0,0,373.1,447.053Z" transform="translate(-210.23 -240.915)"/><rect class="b" width="17.717" height="2.073" transform="translate(113.971 192.925)"/><path class="h" d="M535.073,447.053v-6.47c0-4.168-.027-10.243-.048-17.9l.086.091-80.294.048h0l.139-.139v24.353l-.134-.134,57.394.059,16.814.037h.016l-16.782.043-57.491.059h-.134V422.47h.144l80.294.053h.091v.085c0,7.683-.037,13.78-.048,17.958v5.989A2.51,2.51,0,0,1,535.073,447.053Z" transform="translate(-285.641 -240.915)"/><rect class="b" width="17.717" height="2.073" transform="translate(200.538 192.925)"/><rect class="k" width="51.522" height="5.957" rx="2.979" transform="translate(15.596 57.747)"/><rect class="i" width="51.522" height="5.957" rx="2.979" transform="translate(15.596 63.704)"/><rect class="l" width="51.522" height="5.957" rx="2.979" transform="translate(15.596 57.747)"/><rect class="k" width="51.522" height="5.957" rx="2.979" transform="translate(17.301 51.854)"/><rect class="m" width="51.522" height="5.957" rx="2.979" transform="translate(17.301 51.854)"/><rect class="k" width="51.522" height="5.957" rx="2.979" transform="translate(17.301 45.795)"/><rect class="m" width="51.522" height="5.957" rx="2.979" transform="translate(17.301 45.795)"/><path class="h" d="M186.919,181.928h-.481l-1.395.027h-1.015a1.062,1.062,0,0,1-.417-2.009,1.448,1.448,0,0,1,.775-.123h.764l16.916-.043,16.911.043,5.129.043H225.5l-1.395.027-5.129.043-16.911.043-16.916.064h-.791a1.271,1.271,0,0,0-.695.1.914.914,0,0,0-.46,1.069.935.935,0,0,0,.817.657h1l1.395.027h.358A.851.851,0,0,1,186.919,181.928Z" transform="translate(-159.151 -127.894)"/><rect class="k" width="51.522" height="5.957" rx="2.979" transform="translate(178.418 57.389)"/><rect class="m" width="51.522" height="5.957" rx="2.979" transform="translate(178.418 57.389)"/><rect class="k" width="51.522" height="5.957" rx="2.979" transform="translate(178.418 51.33)"/><rect class="m" width="51.522" height="5.957" rx="2.979" transform="translate(178.418 51.33)"/><path class="h" d="M488.475,192.278h-.486l-1.395.027h-1.01a1.069,1.069,0,0,1-.427-2.009,1.507,1.507,0,0,1,.775-.128h.791l16.911-.037,16.916.037,5.129.048h1.875a.5.5,0,0,1-.123,0h-.358l-1.394.027-5.129.043-16.916.043-16.911-.043h-.791a1.32,1.32,0,0,0-.695.1.908.908,0,0,0,.358,1.72h2.757A.321.321,0,0,1,488.475,192.278Z" transform="translate(-299.589 -132.714)"/><rect class="k" width="35.461" height="5.957" rx="2.979" transform="translate(181.678 45.506)"/><rect class="i" width="35.461" height="5.957" rx="2.979" transform="translate(181.678 39.447)"/><path class="h" d="M489.5,170.075a1.437,1.437,0,0,1-.342.032l-.972.027h-.716a.855.855,0,0,1-.609-.62,1.453,1.453,0,0,1,.043-.994.908.908,0,0,1,.369-.438.694.694,0,0,1,.31-.075h.278l11.819-.037,11.8.016,3.58.048h.978a1.293,1.293,0,0,1,.337.027,1.686,1.686,0,0,1-.337,0l-.978.027-3.58.043-11.824.043-11.819-.043h-.278a.428.428,0,0,0-.219.048.711.711,0,0,0-.3.347,1.3,1.3,0,0,0-.053.882.7.7,0,0,0,.481.534h.695l.972.027a2.456,2.456,0,0,1,.363.107Z" transform="translate(-300.615 -122.394)"/><rect class="h" width="51.522" height="5.957" rx="2.979" transform="translate(16.36 27.735)"/><rect class="h" width="51.522" height="5.957" rx="2.979" transform="translate(16.36 21.677)"/><path class="c" d="M185.154,136.765h-2.891a1.062,1.062,0,0,1-.422-2.009,1.448,1.448,0,0,1,.775-.123h.791l16.916-.043,16.916.043,5.124.043,1.395.027h.486a.384.384,0,0,1-.123,0h-.363l-1.395.027-5.124.048-16.916.037-16.916-.037h-.791a1.282,1.282,0,0,0-.695.1.908.908,0,0,0-.454,1.069.924.924,0,0,0,.812.652h2.762Z" transform="translate(-158.327 -106.849)"/><rect class="c" width="30.231" height="5.957" rx="2.979" transform="translate(16.633 16.05)"/><rect class="c" width="30.231" height="5.957" rx="2.979" transform="translate(16.633 9.991)"/><path class="h" d="M178.977,114.885a.962.962,0,0,1-.289,0h-.839a5.968,5.968,0,0,1-.62,0,.769.769,0,0,1-.5-.572,1.721,1.721,0,0,1-.032-.86,1.159,1.159,0,0,1,.192-.443.561.561,0,0,1,.476-.256l10.152-.043,10.152.043,3.078.043h.839a1.833,1.833,0,0,1,.294,0,1.069,1.069,0,0,1-.294.032l-.839.027-3.078.043-10.152.043-10.152-.043c-.272-.027-.433.289-.5.534a1.6,1.6,0,0,0,0,.775.657.657,0,0,0,.379.486h1.432a.962.962,0,0,1,.3.192Z" transform="translate(-156.184 -96.66)"/><rect class="b" width="51.522" height="5.957" rx="2.979" transform="translate(17.301 85.579)"/><rect class="b" width="51.522" height="5.957" rx="2.979" transform="translate(17.301 79.52)"/><path class="h" d="M186.917,245.01h-2.891A1.069,1.069,0,0,1,183.6,243a1.448,1.448,0,0,1,.775-.123h.775l16.916-.043,16.911.043,5.129.043,1.395.027h.363a.321.321,0,0,1,.123,0,.385.385,0,0,1-.123,0H224.1l-5.129.048-16.911.037-16.916.1h-.791a1.32,1.32,0,0,0-.695.1.919.919,0,0,0-.46,1.069.93.93,0,0,0,.817.652h1l1.395.027h.358A.849.849,0,0,1,186.917,245.01Z" transform="translate(-159.149 -157.257)"/><rect class="d" width="51.522" height="5.957" rx="2.979" transform="translate(17.301 97.494)"/><rect class="d" width="51.522" height="5.957" rx="2.979" transform="translate(17.301 91.435)"/><path class="h" d="M186.917,267.333h-.481l-1.395.027h-1.015a1.069,1.069,0,0,1-.427-2.014,1.448,1.448,0,0,1,.775-.123h.775l16.916-.043,16.911.043,5.129.043,1.395.027h.363a.32.32,0,0,1,.123,0H225.5l-1.395.027-5.129.048-16.911.037-16.916.048h-.791a1.32,1.32,0,0,0-.695.1.919.919,0,0,0-.46,1.069.93.93,0,0,0,.817.652h1l1.395.027h.358A.852.852,0,0,1,186.917,267.333Z" transform="translate(-159.149 -167.665)"/><rect class="k" width="20.33" height="30.434" rx="4.59" transform="translate(27.244 176.446) rotate(-89.8)"/><g class="n" transform="translate(27.244 156.116)"><rect width="20.33" height="30.434" rx="4.59" transform="translate(0 20.33) rotate(-89.8)"/></g><path class="h" d="M214.464,370.362a1.443,1.443,0,0,1,0-.39c0-.289.043-.657.069-1.106a24.58,24.58,0,0,0,0-4.066,9.158,9.158,0,0,0-2.3-5.391,5.979,5.979,0,0,0-3-1.683,16.715,16.715,0,0,0-3.777-.337c-2.591,0-5.161.5-6.909,1.934a6.567,6.567,0,0,0-1.9,2.5,9.7,9.7,0,0,0-.727,2.672,19.988,19.988,0,0,0,0,4.061c.032.449.059.818.085,1.106a1.351,1.351,0,0,1,0,.39,1.864,1.864,0,0,1-.08-.379c-.037-.251-.091-.625-.15-1.106a18.246,18.246,0,0,1-.1-4.1,9.761,9.761,0,0,1,.711-2.762,6.8,6.8,0,0,1,1.956-2.639,8.48,8.48,0,0,1,3.259-1.6,15.762,15.762,0,0,1,3.858-.443,16.752,16.752,0,0,1,3.863.353,6.262,6.262,0,0,1,3.147,1.8,9.308,9.308,0,0,1,2.319,5.589,21.425,21.425,0,0,1-.091,4.1c-.053.481-.1.855-.139,1.106a1.491,1.491,0,0,1-.1.4Z" transform="translate(-165.01 -210.43)"/><rect class="k" width="20.33" height="30.434" rx="4.59" transform="translate(23.405 176.322) rotate(-89.8)"/><path class="h" d="M210,394.779a3.2,3.2,0,0,0,.946-.224,2.58,2.58,0,0,0,.924-.716,2.42,2.42,0,0,0,.534-1.48V376.651a2.287,2.287,0,0,0-.839-1.533,2.447,2.447,0,0,0-1.753-.534h-6.337l-18.941-.016a2.287,2.287,0,0,0-1.945,1.069,2.239,2.239,0,0,0-.331,1.069v6.032c0,3.168-.027,6.219-.043,9.131a3.206,3.206,0,0,0,.1,1.026,2.313,2.313,0,0,0,.5.86,2.271,2.271,0,0,0,1.753.753l4.013.027,7.2.043,10.43.1,2.837.043H184.556a2.613,2.613,0,0,1-1.988-.85,2.672,2.672,0,0,1-.566-.983,3.377,3.377,0,0,1-.118-1.122V376.576a2.57,2.57,0,0,1,.39-1.256,2.634,2.634,0,0,1,2.244-1.25l18.941.08h6.31a2.757,2.757,0,0,1,1.94.593,2.591,2.591,0,0,1,.935,1.736c.027.652,0,1.245,0,1.854v3.452c-.037,4.392-.069,7.95-.091,10.43a2.533,2.533,0,0,1-.577,1.544,2.5,2.5,0,0,1-.972.716A1.929,1.929,0,0,1,210,394.779Z" transform="translate(-158.615 -218.375)"/><rect class="b" width="80.364" height="4.355" transform="translate(82.619 45.768)"/><path class="h" d="M373.221,172.563v-4.355l.043.043c-10.51.053-42.541.1-80.359.1h0l.139-.139v4.355l-.139-.139,56.935.059,17.135.043h.069l-17.1.043-57.068.134h-.139V168.07h.139c37.818,0,69.849.043,80.359.1h.043v4.141A.436.436,0,0,1,373.221,172.563Z" transform="translate(-210.244 -122.441)"/><path class="h" d="M308.4,190.61h.791a4.857,4.857,0,0,1,4.857,4.857v96.1h-10.5v-96.1A4.857,4.857,0,0,1,308.4,190.61Z" transform="translate(-215.274 -132.938)"/><path class="c" d="M336.629,189.51h4.135a3.206,3.206,0,0,1,3.206,3.206v68.567H333.45V192.689a3.206,3.206,0,0,1,3.179-3.179Z" transform="translate(-229.203 -132.425)"/><rect class="c" width="6.251" height="3.623" rx="1.811" transform="translate(90.393 54.05)"/><path class="c" d="M315.685,215.29v4.5c0,2.912,0,7.122.043,12.337,0,10.451.027,24.946.048,41.141v.139H307.12v-.139c-.053-16.216-.069-30.717-.048-41.141,0-5.225.032-9.43.064-12.337,0-1.448.032-2.575.053-3.339,0-.379.027-.673.043-.866a1.371,1.371,0,0,0,0-.294v16.836c.037,10.451.086,24.946.139,41.141l-.139-.139h8.453l-.139.139c0-16.211.032-30.706.043-41.141,0-5.215.032-9.425.043-12.337v-4.21A.6.6,0,0,1,315.685,215.29Z" transform="translate(-216.914 -144.431)"/><path class="h" d="M312.869,333.54a38.72,38.72,0,0,1-3.687,2.971,40.517,40.517,0,0,1-3.852,2.752,40.792,40.792,0,0,1,3.687-2.971,40.12,40.12,0,0,1,3.852-2.752Z" transform="translate(-216.107 -199.5)"/><path class="f" d="M340.646,211.1a6.672,6.672,0,0,1-1.069.753l-2.672,1.731-2.634,1.779a7.209,7.209,0,0,1-1.122.711,5.551,5.551,0,0,1,1-.866c.647-.5,1.56-1.17,2.6-1.859s2.009-1.266,2.725-1.667a5.931,5.931,0,0,1,1.17-.582Z" transform="translate(-229.063 -142.48)"/><path class="f" d="M339.835,197.58a24.53,24.53,0,0,1-2.88,2.335,25.053,25.053,0,0,1-3.046,2.137,23.912,23.912,0,0,1,2.88-2.335A25.067,25.067,0,0,1,339.835,197.58Z" transform="translate(-229.417 -136.184)"/><path class="f" d="M343.654,231.23a9.943,9.943,0,0,1-1.314,1.122c-.833.663-2.02,1.544-3.361,2.463s-2.6,1.7-3.516,2.239a9.828,9.828,0,0,1-1.523.812,12.114,12.114,0,0,1,1.421-.978c.892-.582,2.137-1.389,3.462-2.3s2.533-1.769,3.4-2.388a11.117,11.117,0,0,1,1.432-.967Z" transform="translate(-229.431 -151.855)"/><path class="f" d="M343.214,251.39c.043.059-1.918,1.565-4.387,3.361a52.37,52.37,0,0,1-4.547,3.142,54.427,54.427,0,0,1,4.387-3.366,52.972,52.972,0,0,1,4.547-3.136Z" transform="translate(-229.589 -161.243)"/><path class="f" d="M344.086,269.37a12.71,12.71,0,0,1-1.469.94c-.919.566-2.18,1.362-3.526,2.3s-2.527,1.843-3.371,2.511a13.989,13.989,0,0,1-1.389,1.069,8.967,8.967,0,0,1,1.266-1.213,41,41,0,0,1,3.366-2.6,40.008,40.008,0,0,1,3.58-2.239A9.8,9.8,0,0,1,344.086,269.37Z" transform="translate(-229.613 -169.616)"/><path class="f" d="M344.531,291.34a13.392,13.392,0,0,1-1.491.93c-.924.534-2.2,1.325-3.58,2.228s-2.6,1.763-3.478,2.394a12.676,12.676,0,0,1-1.443.994,9.854,9.854,0,0,1,1.325-1.149c.85-.673,2.057-1.565,3.441-2.474s2.672-1.656,3.639-2.164a9.45,9.45,0,0,1,1.587-.759Z" transform="translate(-229.711 -179.848)"/><path class="f" d="M344.522,308.87a12.441,12.441,0,0,1-1.475.951c-.924.566-2.207,1.346-3.585,2.255s-2.6,1.774-3.484,2.4a11.618,11.618,0,0,1-1.459.978,9.922,9.922,0,0,1,1.341-1.138c.86-.668,2.062-1.565,3.452-2.479s2.672-1.667,3.633-2.185a9.882,9.882,0,0,1,1.576-.785Z" transform="translate(-229.701 -188.012)"/><path class="h" d="M333.329,199.7v4.189c0,2.72,0,6.641.043,11.514,0,9.767.027,23.327.048,38.56l-.139-.139h6.86l-.139.139c0-16.216.032-30.834.043-41.408,0-5.279.032-9.543.043-12.5v-3.4c0,.791,0,1.929.027,3.4,0,2.96.027,7.224.043,12.5,0,10.574.027,25.192.043,41.408v.139h-7.01v-.139c0-15.233.032-28.793.043-38.56,0-4.873.032-8.795.043-11.514v-3.916a1.673,1.673,0,0,1,.053-.273Z" transform="translate(-229.082 -135.201)"/><path class="h" d="M313.634,168a32.339,32.339,0,0,1,.139,4.274,32.391,32.391,0,0,1-.139,4.274,33.524,33.524,0,0,1-.139-4.274A33.469,33.469,0,0,1,313.634,168Z" transform="translate(-219.902 -122.408)"/><path class="b" d="M394.627,190.61h.791a4.857,4.857,0,0,1,4.857,4.857v96.1h-10.5v-96.1a4.857,4.857,0,0,1,4.857-4.857Z" transform="translate(-255.431 -132.938)"/><rect class="c" width="6.251" height="3.623" rx="1.811" transform="translate(136.465 54.05)"/><path class="h" d="M401.91,215.29v4.5c0,2.912,0,7.122.043,12.337,0,10.451.027,24.946.043,41.141v.139H393.34v-.139c-.053-16.216-.069-30.717-.048-41.141,0-5.225.032-9.43.064-12.337,0-1.448.037-2.575.059-3.339a5.372,5.372,0,0,1,.037-.866,1.11,1.11,0,0,0,.027-.294v4.5c0,2.917,0,7.122.027,12.337.032,10.451.08,24.946.134,41.141l-.139-.139h8.378l-.139.139c0-16.211.032-30.706.043-41.141,0-5.215.032-9.425.043-12.337,0-1.443,0-2.57.027-3.339v-.871A.554.554,0,0,1,401.91,215.29Z" transform="translate(-257.067 -144.431)"/><path class="h" d="M399.859,168a33.468,33.468,0,0,1,.139,4.274,33.524,33.524,0,0,1-.139,4.274,31.8,31.8,0,0,1-.144-4.274A31.756,31.756,0,0,1,399.859,168Z" transform="translate(-260.054 -122.408)"/><rect class="c" width="6.251" height="3.623" rx="1.811" transform="translate(106.101 54.05)"/><path class="h" d="M343.043,168a33.474,33.474,0,0,1,.139,4.274,33.53,33.53,0,0,1-.139,4.274,32.391,32.391,0,0,1-.139-4.274A32.344,32.344,0,0,1,343.043,168Z" transform="translate(-233.597 -122.408)"/><path class="b" d="M420.669,189.51H424.8a3.206,3.206,0,0,1,3.206,3.206v68.567H417.49V192.689a3.206,3.206,0,0,1,3.179-3.179Z" transform="translate(-268.34 -132.425)"/><path class="f" d="M424.686,211.1a6.677,6.677,0,0,1-1.069.753l-2.672,1.731-2.634,1.779a7.207,7.207,0,0,1-1.122.711,5.551,5.551,0,0,1,1-.866c.647-.5,1.56-1.17,2.6-1.859s2.009-1.266,2.725-1.667A5.932,5.932,0,0,1,424.686,211.1Z" transform="translate(-268.201 -142.48)"/><path class="f" d="M423.835,197.58a24.537,24.537,0,0,1-2.88,2.335,25.06,25.06,0,0,1-3.046,2.137,23.915,23.915,0,0,1,2.88-2.335A25.062,25.062,0,0,1,423.835,197.58Z" transform="translate(-268.536 -136.184)"/><path class="f" d="M427.694,231.23a9.939,9.939,0,0,1-1.314,1.122c-.833.663-2.02,1.544-3.361,2.463s-2.6,1.7-3.516,2.239a9.833,9.833,0,0,1-1.523.812,12.113,12.113,0,0,1,1.421-.978c.892-.582,2.137-1.389,3.462-2.3s2.533-1.769,3.4-2.388a11.114,11.114,0,0,1,1.432-.967Z" transform="translate(-268.569 -151.855)"/><path class="f" d="M427.293,251.39c.043.059-1.918,1.565-4.387,3.361a52.356,52.356,0,0,1-4.547,3.142,54.419,54.419,0,0,1,4.387-3.366A52.979,52.979,0,0,1,427.293,251.39Z" transform="translate(-268.746 -161.243)"/><path class="f" d="M428.126,269.37a12.714,12.714,0,0,1-1.469.94c-.919.566-2.18,1.362-3.526,2.3s-2.527,1.843-3.371,2.511a13.988,13.988,0,0,1-1.389,1.069,8.967,8.967,0,0,1,1.266-1.213,41,41,0,0,1,3.345-2.6,40.008,40.008,0,0,1,3.58-2.239A9.8,9.8,0,0,1,428.126,269.37Z" transform="translate(-268.75 -169.616)"/><path class="f" d="M428.571,291.34a13.4,13.4,0,0,1-1.491.93c-.924.534-2.2,1.325-3.58,2.228s-2.6,1.763-3.478,2.394a12.676,12.676,0,0,1-1.443.994,9.857,9.857,0,0,1,1.325-1.149c.85-.673,2.057-1.565,3.441-2.474s2.671-1.656,3.639-2.164A9.454,9.454,0,0,1,428.571,291.34Z" transform="translate(-268.848 -179.848)"/><path class="f" d="M428.562,308.87a12.435,12.435,0,0,1-1.475.951c-.924.566-2.207,1.346-3.585,2.255s-2.6,1.774-3.484,2.4a11.618,11.618,0,0,1-1.459.978,9.918,9.918,0,0,1,1.341-1.138c.86-.668,2.062-1.565,3.452-2.479s2.671-1.667,3.633-2.185a9.882,9.882,0,0,1,1.576-.785Z" transform="translate(-268.839 -188.012)"/><path class="h" d="M417.369,199.7v4.189c0,2.72.027,6.641.043,11.514,0,9.767,0,23.327.048,38.56l-.139-.139h6.812l-.139.139c0-16.216.032-30.834.043-41.408,0-5.279.032-9.543.043-12.5,0-1.469,0-2.607.027-3.4v3.4c0,2.96.027,7.224.043,12.5,0,10.574.027,25.192.043,41.408v.139H417.23v-.139c0-15.233.032-28.793.043-38.56,0-4.873.032-8.795.043-11.514,0-1.346,0-2.388.027-3.11v-.807a1.67,1.67,0,0,1,.027-.273Z" transform="translate(-268.219 -135.201)"/><rect class="c" width="6.251" height="3.623" rx="1.811" transform="translate(151.004 54.05)"/><path class="h" d="M427.083,168a33.474,33.474,0,0,1,.139,4.274,33.524,33.524,0,0,1-.139,4.274,32.4,32.4,0,0,1-.139-4.274,32.334,32.334,0,0,1,.139-4.274Z" transform="translate(-272.735 -122.408)"/><path class="c" d="M363.7,189.51h.791a4.857,4.857,0,0,1,4.857,4.857v78.115H358.84V194.367a4.857,4.857,0,0,1,4.862-4.857Z" transform="translate(-241.027 -132.425)"/><path class="c" d="M358.724,199.7a1.665,1.665,0,0,1,0,.272v.807c0,.721,0,1.763.027,3.11,0,2.72.027,6.641.043,11.514,0,9.767.027,23.327.043,38.56l-.139-.139h6.844l-.139.139c0-16.216.032-30.834.043-41.408,0-5.279.032-9.543.043-12.5,0-1.469,0-2.607.027-3.4v0c0,.791,0,1.929.027,3.4,0,2.96.027,7.224.043,12.5,0,10.574.027,25.192.043,41.408v.139H358.59v-.139c0-15.233.032-28.793.043-38.56,0-4.873.032-8.795.043-11.514,0-1.346,0-2.388.027-3.11v-.807C358.718,199.787,358.724,199.691,358.724,199.7Z" transform="translate(-240.911 -135.201)"/><rect class="c" width="6.251" height="3.623" rx="1.811" transform="translate(119.672 54.05)"/><path class="h" d="M368.443,168a33.474,33.474,0,0,1,.139,4.274,33.53,33.53,0,0,1-.139,4.274,32.386,32.386,0,0,1-.139-4.274,32.334,32.334,0,0,1,.139-4.274Z" transform="translate(-245.426 -122.408)"/></g><g transform="translate(30.911 266.891)"><path class="h" d="M398.049,479.879c0,.075-80.385.139-179.524.139S39,479.938,39,479.879s80.364-.139,179.524-.139S398.049,479.788,398.049,479.879Z" transform="translate(-39 -479.74)"/></g><g transform="translate(244.39 128.764)"><path class="h" d="M458.64,294.4l.112.486c.069.331.171.812.3,1.443.267,1.272.652,3.147,1.154,5.562.988,4.851,2.426,11.883,4.216,20.645l14.127,69.635-.134-.112h29.21l-.134.166c-5.129-28.393-9.671-53.564-12.941-71.65-1.6-9.04-2.923-16.307-3.82-21.319-.443-2.5-.785-4.44-1.015-5.76-.112-.652-.2-1.149-.262-1.491s-.075-.508-.075-.508.037.166.1.5l.283,1.491c.246,1.314.6,3.249,1.069,5.744.919,5.012,2.249,12.289,3.9,21.3,3.291,18.086,7.87,43.251,13.032,71.633v.166H478.3l-.027-.112c-5.573-27.661-10.5-52.11-14.036-69.651-1.753-8.768-3.163-15.81-4.135-20.661-.476-2.42-.85-4.274-1.1-5.573l-.278-1.448C458.661,294.567,458.64,294.4,458.64,294.4Z" transform="translate(-447.906 -253.949)"/><path class="d" d="M451.365,221.3,438.83,359.47h32.453L483.1,221.3Z" transform="translate(-438.68 -221.257)"/><path class="h" d="M472.677,251.291c-2.052-2.02-6.449-1.507-8.746.23s-3.494,4.6-3.981,7.437-.369,5.744-.6,8.618a14.809,14.809,0,0,1-2.671,8.095c-.759.967-.476,2.068-.663,3.281a56.13,56.13,0,0,0-.582,6.839c0,2.335,2.276,2.565,4.574,2.137a7.431,7.431,0,0,0,5.124-4.729,23.6,23.6,0,0,0,1.25-7.138,196.654,196.654,0,0,1,3.029-22.441" transform="translate(-446.411 -234.615)"/><path class="o" d="M477.9,293.492l-2.137-.582h-9.4l-5.1,3.013s8.944,3.98,12.225,2.378a9.3,9.3,0,0,0,4.419-4.568" transform="translate(-449.126 -254.606)"/><path class="o" d="M470.779,263.034v-.657a5.017,5.017,0,0,1,3.927-5.028l3.478-.775c2.319-.315,4.916,1.94,5.135,4.274a42.158,42.158,0,0,1,.192,7.715c-.5,3.916-3.473,4.5-3.473,4.5l-.315,8.549-8.613.374Z" transform="translate(-453.558 -237.671)"/><path class="h" d="M490.519,269.7a.492.492,0,0,1-.465.534.481.481,0,0,1-.534-.433.534.534,0,0,1,.465-.534.481.481,0,0,1,.534.433Z" transform="translate(-462.287 -243.594)"/><path class="h" d="M491.04,266.766c-.059.064-.449-.2-.983-.182s-.924.3-.983.235.027-.15.2-.278a1.357,1.357,0,0,1,.785-.272,1.331,1.331,0,0,1,.785.23C491.008,266.622,491.072,266.734,491.04,266.766Z" transform="translate(-462.07 -242.199)"/><path class="h" d="M480.458,270.07a.5.5,0,0,1-.465.534.481.481,0,0,1-.534-.433.5.5,0,0,1,.47-.534.476.476,0,0,1,.529.433Z" transform="translate(-457.601 -243.766)"/><path class="h" d="M481.144,267.287c-.059.069-.449-.2-.983-.182s-.924.3-.988.235.032-.15.2-.278a1.357,1.357,0,0,1,1.571-.043C481.112,267.143,481.176,267.255,481.144,267.287Z" transform="translate(-457.459 -242.442)"/><path class="h" d="M486.435,271.692a3.783,3.783,0,0,1,.866-.182c.139,0,.267-.048.289-.144a.705.705,0,0,0-.107-.406c-.139-.326-.283-.673-.438-1.031a17.288,17.288,0,0,1-.994-2.709,18.743,18.743,0,0,1,1.213,2.623l.417,1.037a.791.791,0,0,1,.091.534.353.353,0,0,1-.219.208,1.065,1.065,0,0,1-.235.037,3.205,3.205,0,0,1-.882.032Z" transform="translate(-460.671 -242.642)"/><path class="p" d="M483.376,286.414a10.269,10.269,0,0,1-5.4-1.234s1.32,2.7,5.343,2.217Z" transform="translate(-456.913 -251.006)"/><path class="p" d="M485.039,277.7a.978.978,0,0,0-.882-.331.9.9,0,0,0-.6.347.566.566,0,0,0,0,.641.647.647,0,0,0,.711.16,2.137,2.137,0,0,0,.673-.433.535.535,0,0,0,.15-.166.166.166,0,0,0,0-.2" transform="translate(-459.462 -247.365)"/><path class="h" d="M483.754,276.38c.091,0,.107.577.62.978s1.133.315,1.143.4-.139.118-.4.134a1.458,1.458,0,0,1-.951-.3,1.271,1.271,0,0,1-.481-.817C483.657,276.524,483.716,276.38,483.754,276.38Z" transform="translate(-459.566 -246.908)"/><path class="h" d="M480.853,264.357c-.048.15-.588.1-1.218.192s-1.133.283-1.218.155.043-.2.246-.353a2.137,2.137,0,0,1,1.854-.262C480.762,264.175,480.885,264.287,480.853,264.357Z" transform="translate(-457.103 -241.136)"/><path class="h" d="M491.011,263.279c-.091.128-.465,0-.908,0s-.823.107-.914,0,0-.187.176-.31a1.341,1.341,0,0,1,1.469,0C490.995,263.1,491.054,263.22,491.011,263.279Z" transform="translate(-462.116 -240.561)"/><path class="h" d="M483.818,254.281c-.5-1.6-3.591-3.553-6.86-2.084a6.412,6.412,0,0,0-4.563,1.753c-2.885,2.639-1.785,9.083-1.785,9.083a14.618,14.618,0,0,0,4.611-3.74,18.568,18.568,0,0,0,3.238-5.049h0c3.013.727,4.157,3.366,4.686,4.5C483.829,258,484.7,257.081,483.818,254.281Z" transform="translate(-453.384 -235.404)"/><path class="o" d="M469.737,272.064c-.059-.032-2.57-.876-2.6,1.715a1.951,1.951,0,0,0,2.591,2.009C469.737,275.713,469.737,272.064,469.737,272.064Z" transform="translate(-451.864 -244.825)"/><path class="p" d="M469.493,275.521a.843.843,0,0,1-.123.064.422.422,0,0,1-.337,0,1.111,1.111,0,0,1-.534-1.01,1.485,1.485,0,0,1,.128-.646.534.534,0,0,1,.347-.342.224.224,0,0,1,.262.128c.037.069,0,.123.032.128s.059-.043.037-.15a.31.31,0,0,0-.1-.166.385.385,0,0,0-.251-.069.657.657,0,0,0-.476.4,1.56,1.56,0,0,0-.16.721,1.17,1.17,0,0,0,.646,1.127.5.5,0,0,0,.417-.064C469.488,275.586,469.5,275.527,469.493,275.521Z" transform="translate(-452.412 -245.547)"/><path class="k" d="M466.044,289.88s-6.027,2.891-6.278,3.265-4.648,8.549-4.648,8.549L455,303.034a47.83,47.83,0,0,1,2.02,6.038.81.81,0,0,0,.043.182,10.873,10.873,0,0,1-1.763,8.474l-2.078,2.928-1.6,20.351-.438,5.231,15.553,6.075s3.1-8.164,3.74-11.434,1.982-18.556,1.982-18.556a62.875,62.875,0,0,1,1-7.747c.63-2.511,4.67-9.617,3.291-12.893s-1.507-8.159-3.393-9.794S466.044,289.88,466.044,289.88Z" transform="translate(-444.432 -253.195)"/><g class="q" transform="translate(19.698 64.869)"><path d="M475.418,342.641c-.043.721.647,1.25.924,1.913a16.43,16.43,0,0,1,.289,2.255,4.207,4.207,0,0,0,1.827,2.217A6.837,6.837,0,0,1,480.6,351c.251.443.486,1.021.994,1.069s.833-.534,1.015-1.042a3.243,3.243,0,0,0,.289-1.806,2.549,2.549,0,0,0-1.186-1.459c-1.443-.951-3.361-1.341-4.274-2.8-.283-.449-.443-.962-.716-1.421a1.7,1.7,0,0,0-1.229-.914" transform="translate(-475.416 -342.63)"/></g><path class="o" d="M474.81,340.68s-.032,1.405.6,1.859q.71.5,1.368,1.069a2.769,2.769,0,0,0,.946,2.346,5.9,5.9,0,0,0,2.96,1.549s.294,3.74.882,3.035a4.275,4.275,0,0,0,.78-1.758.994.994,0,0,0,1.069-.689l.2-.78s1.464-1.069,1.122-1.95a25.111,25.111,0,0,1-.732-2.752s.908,2.062,1.106,1.282a3.141,3.141,0,0,0,0-1.475l-2.378-.978-5.877.369Z" transform="translate(-455.436 -276.853)"/><path class="k" d="M474.711,300.125s-1.566,6.465-1.384,8.234c.15,1.32,2.137,9.51,3.147,13.539a2.458,2.458,0,0,0,3.11,1.768,3.575,3.575,0,0,0,1.768-1.015,3.056,3.056,0,0,0,.689-2.447l-.492-11.845.1-1.956,2.255-2.324s2.052-6.978-1.069-8.549S476.191,296.017,474.711,300.125Z" transform="translate(-454.739 -255.581)"/><path class="k" d="M476.215,331.354c-.534-4.739-3.3-9.153-3.067-13.924" transform="translate(-454.656 -266.025)"/><path class="o" d="M449.295,396.44c-.134.641-2.586,15.96-2.586,15.96L444,438.917s5.835.353,5.835,0,4.429-19.261,5.637-21.484,1.6-2.217,2.212-4.029,5.7-11.466,5.7-11.466Z" transform="translate(-441.088 -302.82)"/><path class="h" d="M466.685,279.5c.625,2.094,2.6,3.51,4.632,4.317s4.226,1.181,6.214,2.094,3.836,2.565,4.13,4.734a.844.844,0,0,1-.214.812.652.652,0,0,1-.818-.166,2.575,2.575,0,0,1-.406-.812c-.866-2.169-3.281-3.382-5.6-3.585a25.076,25.076,0,0,0-6.946.855,3.719,3.719,0,0,1-3.126-.353,3.653,3.653,0,0,1-.967-2.752,6.892,6.892,0,0,1,.187-2.826,2.319,2.319,0,0,1,2.094-1.646" transform="translate(-450.175 -248.361)"/><path class="h" d="M458.509,291.371a31.609,31.609,0,0,1-1.8,7.811,16.349,16.349,0,0,0-1.3,4.461,4.082,4.082,0,0,0,1.891,3.97c1.6.8,3.532,0,4.809-1.2a12.064,12.064,0,0,0,3.382-6.294,72.813,72.813,0,0,0,.759-10.242" transform="translate(-446.397 -253.195)"/><path class="k" d="M473.16,306.741a22.55,22.55,0,0,1,1.48-6.139,12.374,12.374,0,0,1,2.239-4.483,4.306,4.306,0,0,1,4.52-1.437" transform="translate(-454.668 -255.336)"/><path class="h" d="M459.608,378.138a6.324,6.324,0,0,1-.8-1.2,32.973,32.973,0,0,1-1.6-3.072c-.561-1.229-1.042-2.362-1.341-3.206a6.374,6.374,0,0,1-.422-1.373,8.434,8.434,0,0,1,.6,1.3c.347.812.839,1.934,1.416,3.152s1.133,2.308,1.539,3.094A8.554,8.554,0,0,1,459.608,378.138Z" transform="translate(-446.416 -290.176)"/><path class="h" d="M483.731,318.1a9.685,9.685,0,0,1-.155-1.3,6.051,6.051,0,0,0-.315-1.346,3.158,3.158,0,0,0-.946-1.346,2.72,2.72,0,0,0-1.533-.534,4.418,4.418,0,0,0-1.362.15c-.769.214-1.224.433-1.24.39a3.521,3.521,0,0,1,1.181-.577,4.087,4.087,0,0,1,1.437-.219,2.933,2.933,0,0,1,1.694.582,3.291,3.291,0,0,1,1.01,1.475,5.588,5.588,0,0,1,.273,1.421,4.514,4.514,0,0,1-.043,1.3Z" transform="translate(-457.006 -264.11)"/><path class="h" d="M492.216,310.9a.662.662,0,0,0-.582.037,3.74,3.74,0,0,0-.534.465l-.641.614a9.709,9.709,0,0,1-1.769,1.459,9.25,9.25,0,0,1,1.576-1.662l.663-.6a2.5,2.5,0,0,1,.6-.449.614.614,0,0,1,.534,0C492.2,310.815,492.227,310.89,492.216,310.9Z" transform="translate(-461.9 -262.894)"/><path class="h" d="M489.022,328.983a3.3,3.3,0,0,1,0-.652c0-.47,0-1.069.037-1.758,0-1.485,0-3.537-.139-5.8s-.326-4.312-.476-5.792l-.176-1.753a3.27,3.27,0,0,1-.032-.646,2.671,2.671,0,0,1,.139.636c.075.406.166,1,.262,1.742.2,1.475.427,3.526.534,5.8a55.658,55.658,0,0,1,.053,5.824c-.032.743-.075,1.346-.123,1.763A2.737,2.737,0,0,1,489.022,328.983Z" transform="translate(-461.687 -263.766)"/><path class="h" d="M481.579,294.6a5.257,5.257,0,0,0-1.234-.1,4.979,4.979,0,0,0-3.013,1.362,9.35,9.35,0,0,0-2.511,4.274c-.283.9-.508,1.881-.732,2.9a31.3,31.3,0,0,0-.582,3.147,16.115,16.115,0,0,0,.6,6.1c.486,1.838.924,3.5,1.293,4.9s.641,2.5.855,3.313c.085.369.16.668.219.9a1.447,1.447,0,0,1,.053.321,1.566,1.566,0,0,1-.112-.3c-.069-.23-.155-.534-.267-.892-.23-.812-.534-1.923-.935-3.286s-.85-3.062-1.352-4.894a15.99,15.99,0,0,1-.63-6.193,31.369,31.369,0,0,1,.593-3.179c.23-1.01.46-1.993.753-2.907a9.483,9.483,0,0,1,2.623-4.344,4.969,4.969,0,0,1,3.142-1.32,2.972,2.972,0,0,1,.93.1A1.225,1.225,0,0,1,481.579,294.6Z" transform="translate(-454.666 -255.297)"/><g class="q" transform="translate(26.806 48.365)"><path d="M491.354,311.74a8.014,8.014,0,0,0-2.634,2.217l.727,11.423c.839-1.416.657-3.206.422-4.809s-.492-3.382.246-4.857c.326-.657.833-1.213,1.175-1.865a2.1,2.1,0,0,0,.064-2.11Z" transform="translate(-488.72 -311.74)"/></g><g class="q" transform="translate(9.003 79.183)"><path d="M455.4,369.42a25.791,25.791,0,0,0,.705,5.61,7.791,7.791,0,0,0,3.59,3.884c-1.266-3.174-2.907-6.166-4.274-9.495" transform="translate(-455.4 -369.42)"/></g><path class="f" d="M472.845,393c-.059.048-.465-.353-.9-.9a3.162,3.162,0,0,1-.684-1.069c.059-.043.465.358.9.9S472.9,392.955,472.845,393Z" transform="translate(-453.781 -300.303)"/><path class="f" d="M479.569,380.3a5.162,5.162,0,0,1-.978,1.373,5.263,5.263,0,0,1-1.191,1.191,10.151,10.151,0,0,1,2.169-2.565Z" transform="translate(-456.642 -295.304)"/><path class="f" d="M467.987,374.686a7.134,7.134,0,0,1-1.111-1.656,7.317,7.317,0,0,1-.866-1.79,6.882,6.882,0,0,1,1.111,1.651,7.3,7.3,0,0,1,.866,1.8Z" transform="translate(-451.338 -291.084)"/><path class="f" d="M476.964,362.314a3.821,3.821,0,0,1-1.742-.417,3.74,3.74,0,0,1-1.512-.967,14.6,14.6,0,0,1,1.6.711,13.024,13.024,0,0,1,1.651.673Z" transform="translate(-454.924 -286.283)"/><path class="f" d="M463.062,357.46c.043.069-.508.5-1.133,1.069a7.883,7.883,0,0,1-1.159,1.069,3.26,3.26,0,0,1,.967-1.261A3.206,3.206,0,0,1,463.062,357.46Z" transform="translate(-448.898 -284.667)"/><path class="f" d="M461.944,346.21a5.127,5.127,0,0,1-1.405.924,5.342,5.342,0,0,1-1.539.679,5.131,5.131,0,0,1,1.405-.924A5.392,5.392,0,0,1,461.944,346.21Z" transform="translate(-448.074 -279.428)"/><path class="f" d="M472.546,347.682a6.838,6.838,0,0,1-.839-1.715,6.746,6.746,0,0,1-.577-1.817,6.724,6.724,0,0,1,.839,1.715A6.469,6.469,0,0,1,472.546,347.682Z" transform="translate(-453.723 -278.469)"/><path class="f" d="M456.043,389.773a5.53,5.53,0,0,1-.1-2.463,2.907,2.907,0,0,1,.187,1.229A2.863,2.863,0,0,1,456.043,389.773Z" transform="translate(-446.608 -298.568)"/><path class="f" d="M485.839,367.407a13.97,13.97,0,0,1,.166-2.319,14.471,14.471,0,0,1,.267-2.308,7.482,7.482,0,0,1,0,2.335A7.762,7.762,0,0,1,485.839,367.407Z" transform="translate(-460.572 -287.145)"/><path class="f" d="M467.739,336.4a5.519,5.519,0,0,1-1.571.769,5.819,5.819,0,0,1-1.678.534,5.343,5.343,0,0,1,1.576-.769A5.573,5.573,0,0,1,467.739,336.4Z" transform="translate(-450.63 -274.859)"/><path class="f" d="M468.5,328.893a4.216,4.216,0,0,1-1.266-.8c-.657-.534-1.149-.983-1.1-1.042a4.12,4.12,0,0,1,1.272.823C468.061,328.364,468.552,328.835,468.5,328.893Z" transform="translate(-451.396 -270.505)"/><path class="f" d="M479.8,327.8a6.827,6.827,0,0,1,.588-2.671,3.453,3.453,0,0,1-.155,1.357,3.516,3.516,0,0,1-.433,1.314Z" transform="translate(-457.76 -269.611)"/><path class="f" d="M484.016,339.86a4.883,4.883,0,0,1-1.1-1.2,4.724,4.724,0,0,1-.871-1.368,4.927,4.927,0,0,1,1.069,1.2A4.808,4.808,0,0,1,484.016,339.86Z" transform="translate(-458.808 -275.274)"/><path class="f" d="M481.12,308.329a4.578,4.578,0,0,1,1.2-1,4.433,4.433,0,0,1,1.362-.775,4.664,4.664,0,0,1-1.2,1,4.441,4.441,0,0,1-1.357.775Z" transform="translate(-458.375 -260.958)"/><path class="f" d="M488.477,302.257a6.267,6.267,0,0,1-1.106-1.5,6.411,6.411,0,0,1-.871-1.646,6.268,6.268,0,0,1,1.106,1.5,6.5,6.5,0,0,1,.871,1.646Z" transform="translate(-460.88 -257.493)"/><path class="f" d="M494.18,319.479a3.307,3.307,0,0,1,.363-1.282,3.254,3.254,0,0,1,.609-1.2,3.308,3.308,0,0,1-.363,1.282,3.206,3.206,0,0,1-.609,1.2Z" transform="translate(-464.457 -265.825)"/><path class="f" d="M492.351,329.3a3.873,3.873,0,0,1-.187-1.427,3.815,3.815,0,0,1,.091-1.432,3.7,3.7,0,0,1,.187,1.421,3.741,3.741,0,0,1-.091,1.437Z" transform="translate(-463.504 -270.221)"/><path class="f" d="M477.856,295.243c.032.069-.246.283-.625.47s-.721.289-.753.224.246-.283.625-.47S477.824,295.179,477.856,295.243Z" transform="translate(-456.212 -255.684)"/><path class="c" d="M451.365,221.3,438.83,359.47h32.453L483.1,221.3Zm18.011,136.054H441.592l11.829-133.222,27.319-.534Z" transform="translate(-438.68 -221.257)"/><path class="h" d="M451.234,221.263h8.335l23.424-.043h.091v.085c-2.6,30.514-6.9,81.042-11.755,138.18v.128H438.55v-.15c3.59-39.378,6.748-73.931,9-98.648,1.138-12.342,2.046-22.227,2.671-29.028.315-3.393.534-6.016.721-7.8.085-.882.15-1.555.192-2.009s.075-.679.075-.679a6.151,6.151,0,0,1-.059.695c-.059.46-.1,1.138-.171,2.03-.16,1.79-.39,4.419-.695,7.827-.6,6.812-1.491,16.708-2.6,29.061-2.223,24.7-5.343,59.227-8.88,98.573l-.134-.15h32.453l-.139.128c4.916-57.133,9.254-107.656,11.877-138.164l.08.085-23.381-.043h-7.811Z" transform="translate(-438.55 -221.22)"/><path class="h" d="M471.3,477.921a1.035,1.035,0,0,1-.139-.128c-.085-.091-.235-.235-.385-.4l-1.427-1.56h.059c-3.046.043-8.276.064-14.218.064-5.573,0-10.52,0-13.587-.053h.048l-2.052,1.528-.534.4c-.123.091-.192.134-.2.123a1,1,0,0,1,.171-.16l.534-.427,2.009-1.6h.027c3.067-.032,8.014-.053,13.587-.053,5.941,0,11.172.027,14.218.064h.032l.027.027,1.368,1.6.353.427A.922.922,0,0,1,471.3,477.921Z" transform="translate(-438.699 -339.708)"/><path class="h" d="M509.731,221.3l-.134.144-.427.438-1.774,1.763h0c-.647,8.282-2.816,34.377-5.434,65.222-1.6,18.919-3.088,36.044-4.151,48.45-.534,6.193-.983,11.22-1.293,14.677-.155,1.726-.278,3.067-.363,3.991-.043.449-.075.8-.1,1.037s-.043.353-.043.353v-.353c0-.235.043-.593.075-1.042.069-.924.176-2.265.31-3.991.283-3.478.695-8.5,1.2-14.688,1.069-12.412,2.484-29.536,4.071-48.461,2.618-30.845,4.873-56.93,5.632-65.184h0l1.806-1.736.438-.417A1.658,1.658,0,0,1,509.731,221.3Z" transform="translate(-465.309 -221.257)"/><path class="h" d="M462.289,221.3a.842.842,0,0,1,.155.176l.422.534,1.555,2.062-.075-.037c2.773-.08,7.079-.182,11.9-.272l10.9-.166h4.2a1.346,1.346,0,0,1,.315,0,1.213,1.213,0,0,1-.315.032l-.9.043-3.3.107-10.894.246c-4.809.091-9.131.15-11.9.171H464.3l-.027-.037-1.485-2.105-.385-.572C462.321,221.375,462.278,221.305,462.289,221.3Z" transform="translate(-449.604 -221.257)"/><path class="h" d="M444,359.822c-.08,0,2.511-29.835,5.781-66.622s5.973-66.606,6.048-66.6-2.511,29.83-5.781,66.627S444.068,359.854,444,359.822Z" transform="translate(-441.087 -223.725)"/><path class="h" d="M482.724,409.63c.064.037-2.826,5.231-6.46,11.594s-6.631,11.5-6.695,11.461,2.821-5.231,6.454-11.6S482.654,409.587,482.724,409.63Z" transform="translate(-452.995 -308.962)"/><path class="h" d="M478.855,438.12c.064.037-1.421,2.741-3.318,6.032s-3.494,5.931-3.558,5.877,1.416-2.741,3.318-6.032S478.791,438.082,478.855,438.12Z" transform="translate(-454.117 -322.23)"/><path class="h" d="M502.643,228.92a48.461,48.461,0,0,1-3.147,4.237,48.117,48.117,0,0,1-3.366,4.071,51.832,51.832,0,0,1,3.147-4.242,51.113,51.113,0,0,1,3.366-4.066Z" transform="translate(-465.365 -224.806)"/><path class="h" d="M506.219,235.74a14.776,14.776,0,0,0-2.426,2.388,15.046,15.046,0,0,0-1.6,3.013,2.674,2.674,0,0,1,.208-1,8.017,8.017,0,0,1,1.149-2.18,7.784,7.784,0,0,1,1.758-1.731A2.638,2.638,0,0,1,506.219,235.74Z" transform="translate(-468.187 -227.982)"/></g><g transform="translate(164.291 108.197)"><path class="h" d="M384.622,216.34a68.7,68.7,0,0,1,0,16.985c-.182,1.421-.481,2.981-1.6,3.874a3.663,3.663,0,0,1-4.664-.5,6.416,6.416,0,0,1-1.646-4.707,30.325,30.325,0,0,1,.769-5.06c.411-2.212.614-4.515,1.6-6.534s3.04-3.74,5.279-3.516" transform="translate(-329.652 -198.38)"/><path class="h" d="M366.389,184.571c-2.554-2.522-10.178-2.34-13.042-.182s-4.355,5.733-4.958,9.27-.46,7.16-.753,10.739-1.1,7.256-3.3,10.088c-.946,1.208-2.137,2.228-2.965,3.505a8.057,8.057,0,0,0-.331,8.292,7.288,7.288,0,0,0,7.416,3.489c2.971-.566,5.252-3.094,6.412-5.877s1.32-5.877,1.555-8.891a244.786,244.786,0,0,1,3.778-27.944" transform="translate(-312.578 -182.725)"/><path class="o" d="M373.121,236.431l-2.671-.721H358.738l-6.358,3.74s11.113,5,15.233,2.992a11.567,11.567,0,0,0,5.509-5.685" transform="translate(-318.322 -207.4)"/><path class="o" d="M364.248,198.813h0a7.592,7.592,0,0,1,5.947-7.608l3.259-.727c2.891-.4,6.123,2.415,6.412,5.343a53.259,53.259,0,0,1,.24,9.617c-.62,4.883-4.322,5.615-4.322,5.615l-.4,10.686-10.739.465Z" transform="translate(-323.848 -186.318)"/><path class="h" d="M390.019,206.656a.631.631,0,0,1-.582.647.593.593,0,0,1-.657-.534.62.62,0,0,1,.577-.652.6.6,0,0,1,.663.54Z" transform="translate(-335.273 -193.617)"/><path class="h" d="M389.492,203.173c-.075.085-.534-.251-1.229-.23s-1.149.374-1.224.294.032-.182.246-.347a1.71,1.71,0,0,1,.978-.331,1.6,1.6,0,0,1,.978.283C389.454,202.992,389.529,203.136,389.492,203.173Z" transform="translate(-334.452 -191.961)"/><path class="h" d="M378.429,207.011a.63.63,0,0,1-.582.646.6.6,0,0,1-.657-.534.62.62,0,0,1,.577-.646.6.6,0,0,1,.663.534Z" transform="translate(-329.875 -193.784)"/><path class="h" d="M377.162,203.823c-.075.085-.534-.251-1.224-.23s-1.154.374-1.229.294.037-.182.246-.347a1.726,1.726,0,0,1,.978-.331,1.629,1.629,0,0,1,.983.283C377.125,203.631,377.2,203.786,377.162,203.823Z" transform="translate(-328.71 -192.264)"/><path class="h" d="M383.756,209.313a4.381,4.381,0,0,1,1.069-.23c.171,0,.331-.059.358-.176a.9.9,0,0,0-.128-.508c-.176-.406-.358-.833-.534-1.288a22.212,22.212,0,0,1-1.24-3.371A22.65,22.65,0,0,1,384.792,207l.534,1.3a.989.989,0,0,1,.107.668.427.427,0,0,1-.273.262,1.6,1.6,0,0,1-.289.048,3.906,3.906,0,0,1-1.117.032Z" transform="translate(-332.712 -192.512)"/><path class="p" d="M379.941,227.659a12.823,12.823,0,0,1-6.721-1.539s1.646,3.361,6.657,2.762Z" transform="translate(-328.027 -202.934)"/><path class="p" d="M382.01,216.84a1.208,1.208,0,0,0-1.1-.411,1.069,1.069,0,0,0-.753.433.7.7,0,0,0,0,.8.807.807,0,0,0,.887.2,2.506,2.506,0,0,0,.839-.534.748.748,0,0,0,.187-.2.224.224,0,0,0,0-.251" transform="translate(-331.202 -198.415)"/><path class="h" d="M380.414,215.16c.107,0,.134.716.769,1.213s1.411.4,1.421.5-.166.144-.5.166a1.8,1.8,0,0,1-1.181-.374,1.6,1.6,0,0,1-.6-1.021C380.291,215.336,380.366,215.155,380.414,215.16Z" transform="translate(-331.331 -197.83)"/><path class="h" d="M376.84,200.166c-.064.187-.737.123-1.517.24s-1.416.353-1.523.192c-.048-.075.053-.251.3-.438a2.57,2.57,0,0,1,1.122-.427,2.533,2.533,0,0,1,1.2.1C376.712,199.942,376.861,200.081,376.84,200.166Z" transform="translate(-328.292 -190.632)"/><path class="h" d="M389.484,198.832c-.112.155-.582,0-1.138,0s-1.021.134-1.133,0c-.053-.075,0-.23.219-.379a1.571,1.571,0,0,1,.914-.283,1.6,1.6,0,0,1,.914.278C389.463,198.613,389.532,198.758,389.484,198.832Z" transform="translate(-334.535 -189.918)"/><path class="h" d="M380.49,187.616c-.625-1.977-4.472-4.424-8.549-2.6a8.015,8.015,0,0,0-5.685,2.191c-3.6,3.281-2.223,11.332-2.223,11.332a18.24,18.24,0,0,0,5.738-4.632,23.054,23.054,0,0,0,4.034-6.294h0c3.74.908,5.183,4.194,5.845,5.615C380.5,192.259,381.591,191.121,380.49,187.616Z" transform="translate(-323.628 -183.494)"/><path class="o" d="M362.938,209.835c-.08-.043-3.206-1.069-3.238,2.137s3.206,2.6,3.206,2.506S362.938,209.835,362.938,209.835Z" transform="translate(-321.731 -195.262)"/><path class="p" d="M362.669,214.087a1.3,1.3,0,0,1-.155.08.534.534,0,0,1-.422,0,1.4,1.4,0,0,1-.63-1.256,1.86,1.86,0,0,1,.166-.807.646.646,0,0,1,.427-.427.289.289,0,0,1,.331.155c.043.091,0,.155.037.16s.07-.053.043-.187a.347.347,0,0,0-.123-.2.427.427,0,0,0-.31-.085.8.8,0,0,0-.593.5,1.886,1.886,0,0,0-.2.9,1.459,1.459,0,0,0,.807,1.405.6.6,0,0,0,.534-.08C362.664,214.162,362.68,214.093,362.669,214.087Z" transform="translate(-322.445 -196.132)"/><path class="o" d="M319.71,373.034l-14.96,50.32h7.614s15.334-24.808,16.184-33.6c.695-7.16,8.634-22.863,8.634-22.863Z" transform="translate(-296.141 -268.491)"/><path class="o" d="M372.82,359.459c.636.956,1.806,20.7,1.678,21.986s.93,14.64.219,19.769.24,17.135.24,17.135l7.234-.134c-.144.946,5.092-30.749,5.092-36.028s4.274-26.068,4.274-26.068Z" transform="translate(-327.841 -263.475)"/><path class="k" d="M397.191,241.721a11.142,11.142,0,0,0-3.51-2.11c-1-.288-7.881-1.651-7.881-1.651l9.484,14.982Z" transform="translate(-333.886 -208.448)"/><path class="k" d="M349.952,235.71s-8.869,3.329-10.28,4.579c-.6.534-.427,6.176.31,12.23.166,1.362.641,2.543.828,3.927.919,6.892,1.95,13.357,1.95,13.357l-2.778,14.96-7.042,26.929h38.069s2.746-10.921,3.366-18.359c.7-8.378-3.323-18.113-3.323-18.113s-6.374-10.216-6.374-11.755,6.15-12.027,6.15-12.027h0l-9.051-15.7Z" transform="translate(-309.269 -207.4)"/><path class="k" d="M402.716,254.619l9.324,11.4-9.569,6.946,2.02,5.012s13.235-6,14.96-8.437a24.05,24.05,0,0,0,1.891-2.891,21.818,21.818,0,0,0-2.073-4.691c-.9-1.085-11.172-17.039-15.981-18.861Z" transform="translate(-341.649 -210.842)"/><path class="k" d="M332,256l-8.923,10.926,9.564,6.946-2.02,5.012s-13.229-6.005-14.96-8.442a24.43,24.43,0,0,1-1.9-2.885,21.978,21.978,0,0,1,2.073-4.691c.9-1.079,10.387-17.456,15.2-19.277Z" transform="translate(-300.336 -211.07)"/><path class="h" d="M347.168,256.36a8.384,8.384,0,0,1-.406,1.362,12.43,12.43,0,0,0-.695,3.3,10.879,10.879,0,0,0,.508,3.329,8.012,8.012,0,0,1,.358,1.373,6.324,6.324,0,0,1-.534-1.314,9.527,9.527,0,0,1-.6-3.4,10.655,10.655,0,0,1,.785-3.355A6.412,6.412,0,0,1,347.168,256.36Z" transform="translate(-315.257 -217.017)"/><path class="h" d="M377.076,273.867a2.671,2.671,0,0,1-1.143.3,5.824,5.824,0,0,1-5.087-2.2,2.672,2.672,0,0,1-.566-1.037c.043-.027.251.374.716.914a6.411,6.411,0,0,0,2.223,1.6,6.337,6.337,0,0,0,2.7.534C376.638,273.947,377.076,273.819,377.076,273.867Z" transform="translate(-326.658 -223.806)"/><path class="h" d="M374.086,319.47a.98.98,0,0,1-.037.267l-.16.759c-.139.652-.374,1.6-.695,2.746a69.524,69.524,0,0,1-7.416,17.13c-.62,1.026-1.143,1.838-1.523,2.388l-.443.63c-.1.144-.16.219-.171.214a1.25,1.25,0,0,1,.123-.24c.107-.182.24-.4.4-.663.358-.566.855-1.395,1.453-2.431a79.075,79.075,0,0,0,7.389-17.1c.347-1.143.609-2.078.78-2.72l.2-.7a.875.875,0,0,1,.1-.283Z" transform="translate(-323.566 -246.407)"/><path class="h" d="M424.085,286.283a9.385,9.385,0,0,0-2-.534,9.766,9.766,0,0,0-2.052.208,3.548,3.548,0,0,1,4.055.3Z" transform="translate(-349.827 -230.569)"/><path class="h" d="M323.65,279.84a5.439,5.439,0,0,1,2.452,1.544,5.6,5.6,0,0,1,1.56,2.442,20.237,20.237,0,0,0-1.758-2.244,18.5,18.5,0,0,0-2.255-1.742Z" transform="translate(-304.942 -227.952)"/><g class="q" transform="translate(43.756 47.256)"><path d="M370.53,271.17a6.449,6.449,0,0,0,1.384,3.345,4.061,4.061,0,0,0,3.206,1.491,3,3,0,0,0,2.73-2.084,6.317,6.317,0,0,1-7.3-2.7" transform="translate(-370.53 -271.17)"/></g><g class="q" transform="translate(49.107 29.945)"><path d="M380.863,243.889a13.608,13.608,0,0,0,.705,8.1,4.846,4.846,0,0,0,1.224,1.881,2.137,2.137,0,0,0,2.105.476c1.021-.39,1.379-1.6,1.6-2.672a35.007,35.007,0,0,0,.871-6.524A13.187,13.187,0,0,0,386,238.77a21.222,21.222,0,0,0-4.226,8.014" transform="translate(-380.545 -238.77)"/></g><path class="h" d="M383.2,230.83c-.069,1.261,0,4.082-.625,5.044s-1.507,1.779-2.094,2.784c-1.448,2.458-1.042,5.583-.166,8.3a4.53,4.53,0,0,0,.785,1.6,1.71,1.71,0,0,0,1.576.63c.817-.171,1.245-1.069,1.528-1.843a35.488,35.488,0,0,0,1.9-14.9" transform="translate(-330.961 -205.128)"/><g class="q" transform="translate(39.256 74.414)"><path d="M373.1,322s-3.89,9.27-7.309,12.919c-1.523,1.635-3.313,3.286-3.633,5.5a2.469,2.469,0,0,0,.272,1.7,1.668,1.668,0,0,0,1.731.711C364.188,342.838,370.781,331.959,373.1,322Z" transform="translate(-362.109 -322)"/></g><g class="q" transform="translate(52.499 59.593)"><path d="M387.3,295.216c-.278-.155-.534.337-.342.582a1,1,0,0,0,.876.23,1.154,1.154,0,0,1,.9.192c.4.4,0,1.069-.449,1.411s-.983.812-.823,1.346c.235.785,1.6.534,1.993,1.272.3.534-.171,1.2-.128,1.822a1.507,1.507,0,0,0,1.138,1.218,4.424,4.424,0,0,0,1.758,0,3.072,3.072,0,0,0-.534,1.565,1.063,1.063,0,0,0,1.042,1.069c.556-.064.866-.78,1.069-1.346s.727-1.213,1.3-1c.278.1.47.4.764.433a.652.652,0,0,0,.641-.609,1.913,1.913,0,0,0-.224-.946l-2.095-4.809-.946-1.459-2.923-1.929Z" transform="translate(-386.895 -294.26)"/></g><g class="q" transform="translate(32.145 67.169)"><path d="M348.8,310c.187.3.465.636.812.572.262-.048.422-.3.641-.443a1.48,1.48,0,0,1,1.234-.027,2.388,2.388,0,0,0,1.25.187.593.593,0,0,0,.374-.235.337.337,0,0,0,0-.417.534.534,0,0,0-.2-.112l-2.5-.951a1.373,1.373,0,0,0-.593-.134.978.978,0,0,0-.785.63,2.859,2.859,0,0,0-.166,1.042" transform="translate(-348.8 -308.44)"/></g><path class="f" d="M355.761,282.164a6.491,6.491,0,0,1-.689-1.742,6.625,6.625,0,0,1-.422-1.822,6.3,6.3,0,0,1,.689,1.742A6.365,6.365,0,0,1,355.761,282.164Z" transform="translate(-319.379 -227.374)"/><path class="f" d="M367.875,289a6.228,6.228,0,0,1-.9,1.6,6.122,6.122,0,0,1-1.127,1.469,6.326,6.326,0,0,1,.9-1.6A6.124,6.124,0,0,1,367.875,289Z" transform="translate(-324.595 -232.217)"/><path class="f" d="M374,309.616a8.512,8.512,0,0,1-1.427-2.736,4.562,4.562,0,0,1,.834,1.3A4.435,4.435,0,0,1,374,309.616Z" transform="translate(-327.724 -240.544)"/><path class="f" d="M362.052,318.24a8.13,8.13,0,0,1-.785,1.956,7.844,7.844,0,0,1-1.037,1.833,8.126,8.126,0,0,1,.785-1.956A7.841,7.841,0,0,1,362.052,318.24Z" transform="translate(-321.978 -245.834)"/><path class="f" d="M369.355,333.885q-.147-2.019-.155-4.045a5.466,5.466,0,0,1,.321,2.014A5.541,5.541,0,0,1,369.355,333.885Z" transform="translate(-326.155 -251.237)"/><path class="f" d="M349.445,344.017a14.026,14.026,0,0,1-.4-3.927,7.107,7.107,0,0,1,.337,1.95A6.809,6.809,0,0,1,349.445,344.017Z" transform="translate(-316.766 -256.01)"/><path class="f" d="M349.189,358.61a9.086,9.086,0,0,1-1.571,1.6,8.86,8.86,0,0,1-1.758,1.384,9.392,9.392,0,0,1,1.571-1.6A9.2,9.2,0,0,1,349.189,358.61Z" transform="translate(-315.286 -264.635)"/><path class="f" d="M359.287,369.718a4.21,4.21,0,0,1-.834-1.24,4.087,4.087,0,0,1-.593-1.379,4.083,4.083,0,0,1,.833,1.245,4.04,4.04,0,0,1,.593,1.373Z" transform="translate(-320.874 -268.589)"/><path class="f" d="M378.775,366.116a11.061,11.061,0,0,1-1.694,1.822,10.82,10.82,0,0,1-1.891,1.6,22.444,22.444,0,0,1,3.585-3.441Z" transform="translate(-328.945 -268.123)"/><path class="f" d="M381.44,353.816a13.009,13.009,0,0,1-2.02-3.206,6.535,6.535,0,0,1,1.127,1.533,6.444,6.444,0,0,1,.892,1.672Z" transform="translate(-330.914 -260.909)"/><path class="f" d="M398.466,364.981a5.811,5.811,0,0,1-1.277,1.3,6.008,6.008,0,0,1-1.459,1.069,11.993,11.993,0,0,1,2.736-2.388Z" transform="translate(-338.51 -267.592)"/><path class="f" d="M394.307,348.406a23.343,23.343,0,0,1-1.667-4.766A22.52,22.52,0,0,1,394.307,348.406Z" transform="translate(-337.071 -257.663)"/><path class="f" d="M396.725,331.85a10.9,10.9,0,0,1-2.351.625,10.567,10.567,0,0,1-2.4.353A21.291,21.291,0,0,1,396.725,331.85Z" transform="translate(-336.759 -252.173)"/><path class="f" d="M407.011,333.363a11.533,11.533,0,0,1-.614-2.415,11.22,11.22,0,0,1-.337-2.468,11.538,11.538,0,0,1,.614,2.415A11.22,11.22,0,0,1,407.011,333.363Z" transform="translate(-343.321 -250.603)"/><path class="f" d="M392.378,318.3a4.318,4.318,0,0,1-1.24.892,4.381,4.381,0,0,1-1.379.657,8.264,8.264,0,0,1,2.618-1.549Z" transform="translate(-335.73 -245.862)"/><path class="f" d="M383.114,305.161a3.521,3.521,0,0,1-.315-1.352,3.623,3.623,0,0,1-.048-1.389,3.5,3.5,0,0,1,.321,1.352A3.43,3.43,0,0,1,383.114,305.161Z" transform="translate(-332.444 -238.467)"/><path class="f" d="M340.3,300.593a2.308,2.308,0,0,1-.379-1.293,2.175,2.175,0,0,1,.171-1.33,6.207,6.207,0,0,1,.107,1.309,6.113,6.113,0,0,1,.1,1.314Z" transform="translate(-312.501 -236.395)"/><path class="f" d="M330.812,297a7.2,7.2,0,0,1-1.988-.294,7.287,7.287,0,0,1-1.934-.566,14.469,14.469,0,0,1,3.922.86Z" transform="translate(-306.451 -235.542)"/><path class="f" d="M323.259,285.443a3.74,3.74,0,0,1,0-1.437,3.782,3.782,0,0,1,.256-1.416,3.863,3.863,0,0,1,0,1.437,3.911,3.911,0,0,1-.257,1.416Z" transform="translate(-304.728 -229.232)"/><path class="f" d="M329.226,276.247a6.785,6.785,0,0,1-1.576-1.069,6.621,6.621,0,0,1-1.4-1.3,6.784,6.784,0,0,1,1.576,1.069A6.32,6.32,0,0,1,329.226,276.247Z" transform="translate(-306.153 -225.176)"/><path class="f" d="M335.118,263.6a3.126,3.126,0,0,1-.3-1.3,3.27,3.27,0,0,1-.027-1.325,3.083,3.083,0,0,1,.3,1.293,3.3,3.3,0,0,1,.027,1.33Z" transform="translate(-310.105 -219.168)"/><path class="f" d="M343.957,252.778a6.38,6.38,0,0,1-1.817.5,6.572,6.572,0,0,1-1.87.224,6.379,6.379,0,0,1,1.817-.5,6.573,6.573,0,0,1,1.87-.224Z" transform="translate(-312.682 -215.348)"/><path class="f" d="M356.85,261.22a12.7,12.7,0,0,1,1.165-3.58A13.017,13.017,0,0,1,356.85,261.22Z" transform="translate(-320.404 -217.613)"/><path class="f" d="M361.552,245.5a3.948,3.948,0,0,1-2.089-.652,3.89,3.89,0,0,1-1.6-1.475c.059-.059.721.652,1.747,1.234S361.568,245.423,361.552,245.5Z" transform="translate(-320.874 -210.969)"/><path class="f" d="M371.476,259.635c.053.059-.358.5-.919,1a3.537,3.537,0,0,1-1.1.791c-.053-.059.358-.508.919-1S371.428,259.576,371.476,259.635Z" transform="translate(-326.272 -218.539)"/><path class="f" d="M375.895,242.028c-.086,0-.235-.8-.668-1.715s-.946-1.56-.882-1.6a3.4,3.4,0,0,1,1.138,1.5A3.355,3.355,0,0,1,375.895,242.028Z" transform="translate(-328.549 -208.797)"/><path class="f" d="M379.746,269.813a5.589,5.589,0,0,1-.716-2.383,2.869,2.869,0,0,1,.492,1.154A2.965,2.965,0,0,1,379.746,269.813Z" transform="translate(-330.733 -222.172)"/><path class="f" d="M363.745,274.861c-.037.059-.353-.1-.534-.476s-.134-.721-.059-.716.144.283.3.593S363.8,274.8,363.745,274.861Z" transform="translate(-323.307 -225.078)"/><path class="f" d="M381.884,288.59a9.885,9.885,0,0,1-1.694,1.651,10.029,10.029,0,0,1-1.881,1.443A20.538,20.538,0,0,1,381.884,288.59Z" transform="translate(-330.398 -232.026)"/><path class="f" d="M392.518,270.467a6.105,6.105,0,0,1,.08-1.865,6.631,6.631,0,0,1,.363-1.833A12.707,12.707,0,0,1,392.518,270.467Z" transform="translate(-336.997 -221.865)"/><path class="f" d="M399.166,256.33a7.373,7.373,0,0,1-2.736.844,3.831,3.831,0,0,1,1.325-.534,3.741,3.741,0,0,1,1.411-.31Z" transform="translate(-338.836 -217.003)"/><path class="f" d="M397.09,246.356a5.562,5.562,0,0,1,.582-1.662,5.652,5.652,0,0,1,.844-1.555,5.676,5.676,0,0,1-.588,1.667A5.743,5.743,0,0,1,397.09,246.356Z" transform="translate(-339.143 -210.86)"/><path class="f" d="M407.748,253.5a9.891,9.891,0,0,1-1.833-1.432,9.581,9.581,0,0,1-1.646-1.64,19.8,19.8,0,0,1,3.478,3.072Z" transform="translate(-342.487 -214.255)"/><path class="f" d="M414.848,267.65a9.543,9.543,0,0,1-2.244-.534,9.842,9.842,0,0,1-2.164-.785,9.682,9.682,0,0,1,2.244.534,9.558,9.558,0,0,1,2.164.785Z" transform="translate(-345.361 -221.66)"/><path class="f" d="M422.08,276.926a6.711,6.711,0,0,1,.716-1.785,6.525,6.525,0,0,1,.962-1.662,13.439,13.439,0,0,1-1.678,3.446Z" transform="translate(-350.781 -224.99)"/><path class="f" d="M423.621,294.216c-.059.053-.4-.224-.759-.62s-.609-.759-.534-.812.4.23.759.625S423.68,294.163,423.621,294.216Z" transform="translate(-350.891 -233.977)"/><path class="f" d="M410.89,299.259a7.785,7.785,0,0,1,.711-2.858,8.078,8.078,0,0,1-.711,2.858Z" transform="translate(-345.57 -235.664)"/><path class="f" d="M350.792,321.593a5.187,5.187,0,0,1,.027-1.672,5.129,5.129,0,0,1,.3-1.64,5.144,5.144,0,0,1,0,1.667A5.019,5.019,0,0,1,350.792,321.593Z" transform="translate(-317.557 -245.853)"/><path class="f" d="M339,360.385a11,11,0,0,1,.753-2.314,10.868,10.868,0,0,1,1.01-2.212,10.294,10.294,0,0,1-.753,2.313,10.864,10.864,0,0,1-1.01,2.212Z" transform="translate(-312.091 -263.354)"/><path class="f" d="M403.1,347.963a7.255,7.255,0,0,1,.246-1.961,7.119,7.119,0,0,1,.534-1.9,7.212,7.212,0,0,1-.246,1.956,6.894,6.894,0,0,1-.534,1.907Z" transform="translate(-341.942 -257.878)"/><path class="o" d="M394.325,296.3l-4.526-3.1s-4.483.454-4.365.737.053.844,1.133.817,2.72,0,2.72,0l.582.994-4.889,1.817a1.069,1.069,0,0,0,1.069,1.069,27.779,27.779,0,0,0,4.274-.908l.283.342-4.595,2.549s-.059,1.336.962.983,4.99-2.137,4.99-2.137.4.171.118.454-3.521,2.5-3.521,2.5-.566.449.342.673,1.191.534,1.7,0A29.152,29.152,0,0,1,393.7,301.1l.053.144a1.6,1.6,0,0,0,2.458.828.535.535,0,0,0,.128-.112C396.622,301.594,394.325,296.3,394.325,296.3Z" transform="translate(-333.504 -234.173)"/><path class="o" d="M347.044,296.3l1.875-3.233s4.445-1.549,4.408-1.272.411,1.069-.534,1.272a7.94,7.94,0,0,0-2.281,1.213l-.294,1.02,4.761.534a.973.973,0,0,1-.716,1.2,25.206,25.206,0,0,1-3.991.15l-.176.363,4.664,1.24s.353,1.175-.636,1.069-4.921-.759-4.921-.759-.315.24,0,.427,3.692,1.432,3.692,1.432.6.272-.155.679-.946.721-1.512.385a26.367,26.367,0,0,0-3.206-1.069v.139a1.485,1.485,0,0,1-1.988,1.256c-.059,0-.892-1.069-.924-1.069Z" transform="translate(-314.936 -233.502)"/><path class="k" d="M297.792,468.264v.534s-9.04,3.585-9.142,5.295h17.915l-.144-5.963A10.5,10.5,0,0,1,297.792,468.264Z" transform="translate(-288.643 -315.638)"/><g class="r" transform="translate(14.997 154.383)"><path class="f" d="M317.568,471.67a.732.732,0,0,1,.508.833.705.705,0,0,1-.823.534.78.78,0,0,1-.534-.887.737.737,0,0,1,.919-.438" transform="translate(-316.705 -471.67)"/></g><g class="r" transform="translate(0 157.001)"><path class="f" d="M306.559,478.007l-.059-1.437-17.151.534s-.8.347-.705.908Z" transform="translate(-288.636 -476.57)"/></g><path class="h" d="M305.639,469.4c0,.085.438.128.871.406s.663.652.743.614-.053-.534-.582-.871S305.618,469.318,305.639,469.4Z" transform="translate(-296.554 -316.191)"/><path class="h" d="M302.12,470.9c0,.086.358.23.657.6s.385.759.47.753.144-.5-.235-.951S302.125,470.813,302.12,470.9Z" transform="translate(-294.916 -316.91)"/><path class="h" d="M299.521,473.824c.08,0,.2-.417-.027-.9s-.63-.668-.668-.6.214.331.4.727S299.452,473.813,299.521,473.824Z" transform="translate(-293.38 -317.587)"/><path class="k" d="M384.965,468.982v.534s8.736,3.468,8.837,5.119H376.48l.144-5.765A10.152,10.152,0,0,0,384.965,468.982Z" transform="translate(-329.545 -315.983)"/><g class="r" transform="translate(48.434 154.685)"><path class="f" d="M379.785,472.248a.705.705,0,0,0-.486.807.684.684,0,0,0,.8.5.748.748,0,0,0,.534-.86.716.716,0,0,0-.887-.422" transform="translate(-379.286 -472.235)"/></g><g class="r" transform="translate(46.94 157.231)"><path class="f" d="M376.49,478.389l.059-1.389,16.563.534s.769.337.684.876Z" transform="translate(-376.49 -477)"/></g><path class="h" d="M391.107,470.078c0,.08-.422.118-.839.39s-.641.63-.716.593.048-.534.534-.839S391.129,470,391.107,470.078Z" transform="translate(-335.624 -316.513)"/><path class="h" d="M394.877,471.518c0,.08-.347.224-.63.582s-.374.732-.46.732-.134-.486.23-.924S394.877,471.432,394.877,471.518Z" transform="translate(-337.577 -317.199)"/><path class="h" d="M397.719,474.345c-.075,0-.192-.406,0-.871s.614-.647.652-.577-.208.321-.385.705S397.82,474.335,397.719,474.345Z" transform="translate(-339.387 -317.852)"/></g></g></g></svg>