<svg xmlns="http://www.w3.org/2000/svg" width="89.962" height="89.962" viewBox="0 0 89.962 89.962"><defs><style>.a{fill:#bf3976;}.b{fill:#fff;}</style></defs><g transform="translate(-1169 -1135)"><g transform="translate(874.697 -3154.523)"><circle class="a" cx="44.981" cy="44.981" r="44.981" transform="translate(294.303 4289.523)"/></g><g transform="translate(1163.829 1149.999)"><path class="b" d="M84.7,35.342c.694-.233,2.8-.944,2.81-3.156a3.576,3.576,0,0,0-1.753-2.836,11.842,11.842,0,0,1-2.907-3.031,1.688,1.688,0,0,1-.011-1.788c.053-.087.108-.174.163-.262a3.755,3.755,0,0,0,.854-2.816,5.694,5.694,0,0,0-.436-1.118,6.832,6.832,0,0,1-.774-2.7,15.872,15.872,0,0,0-2.9-8.381C76.471,4.738,71.011,2.228,65.161.925c-2.645-.656-16.1-3.43-24.4,5.482a23.062,23.062,0,0,0-5.439,8.337.864.864,0,1,0,1.618.606,21.322,21.322,0,0,1,5.044-7.722l.029-.03C49.664-.633,62.3,1.994,64.755,2.6,70.242,3.838,75.2,6.026,78.336,10.262a14.171,14.171,0,0,1,2.582,7.484,8.527,8.527,0,0,0,.935,3.326,4.567,4.567,0,0,1,.316.773c.084.364-.28.945-.633,1.507-.058.092-.116.184-.172.276a3.425,3.425,0,0,0,.029,3.627,13.454,13.454,0,0,0,3.3,3.463c.765.591,1.084.926,1.083,1.465,0,.471-.128,1.015-1.633,1.522a2.125,2.125,0,0,0-1.6,1.653,3.289,3.289,0,0,0,1.385,2.8.31.31,0,0,1,.127.2.583.583,0,0,1-.152.4,1.926,1.926,0,0,1-.713.585,1.08,1.08,0,0,0-.625.88,1.1,1.1,0,0,0,.443.994c.307.225.322.349.327.4a.306.306,0,0,1-.175.28,6.167,6.167,0,0,0-.963.492,1.7,1.7,0,0,0-.528,2.167,2.761,2.761,0,0,1,.449,2.252c-.359,1.466-1.462,2.3-3.472,2.632A24.329,24.329,0,0,1,73.542,49c-.414-.058-.834-.118-1.256-.175a6.248,6.248,0,0,0-6.612,2.9A18.578,18.578,0,0,0,63.6,57.935a.864.864,0,1,0,1.694.341c.929-4.61,2.08-8.375,6.761-7.737.419.057.836.116,1.248.174a23.385,23.385,0,0,0,5.628.425c2.7-.444,4.341-1.765,4.87-3.926a4.387,4.387,0,0,0-.578-3.434,4.526,4.526,0,0,1,.641-.307,2,2,0,0,0,.806-3.033,3.781,3.781,0,0,0,.612-.633,2.225,2.225,0,0,0,.492-1.68,2.022,2.022,0,0,0-.8-1.344,1.761,1.761,0,0,1-.724-1.144c.015-.095.186-.208.445-.295Z" transform="translate(-10.705 0)"/><path class="b" d="M53.694,181.319a.864.864,0,0,0-.864-.864H46.354a2.905,2.905,0,0,1-1.774-.608L39.2,175.7a3.7,3.7,0,0,0-2.246-.764H35.028v-7.579h3.545a6.074,6.074,0,0,1,3.988,1.489l5.706,5.14.012.011a1.913,1.913,0,0,1,.187,2.712.074.074,0,0,1-.1.014l-6.621-5.9a.864.864,0,0,0-1.149,1.29l6.629,5.9a2.058,2.058,0,0,0,1.144.443H57.49a1.935,1.935,0,0,1,1.941,1.924.069.069,0,0,1-.071.066H56.873a.864.864,0,1,0,0,1.728H59.36a1.8,1.8,0,0,0,1.8-1.793,3.665,3.665,0,0,0-3.669-3.652H50.435a3.645,3.645,0,0,0-1.017-4.039l-5.706-5.14-.011-.009a7.8,7.8,0,0,0-5.128-1.919H34.957a1.8,1.8,0,0,0-1.725-1.3H25.117a21.661,21.661,0,0,1,.113-6.811.864.864,0,0,0-1.7-.3c-1.177,6.643.569,13.5,5.047,19.842,2.3,3.038,4.589,5.655,4.5,10.27-.035,2.734-1.676,8.969-1.692,9.032a.864.864,0,1,0,1.67.442c.07-.265,1.716-6.518,1.75-9.462a13.974,13.974,0,0,0-3.327-9.294h1.76a1.8,1.8,0,0,0,1.746-1.382h1.977a1.961,1.961,0,0,1,1.191.4l5.376,4.144a4.639,4.639,0,0,0,2.832.969H52.83a.864.864,0,0,0,.864-.864ZM33.3,176.251a.068.068,0,0,1-.068.068H30.171a28.035,28.035,0,0,1-4.744-10.262h7.8a.068.068,0,0,1,.068.068v10.126Z" transform="translate(0 -138.476)"/><path class="b" d="M180.985,91.741a.864.864,0,1,0-1.179-1.263c-.095.088-.189.181-.279.274a7.644,7.644,0,0,0,.168,10.668l8.8,8.8a2.36,2.36,0,0,0,3.333,0l8.877-8.877a7.553,7.553,0,0,0-.092-10.772,7.64,7.64,0,0,0-10.449-.042,7.591,7.591,0,0,0-6.334-2,.864.864,0,0,0,.257,1.709,5.854,5.854,0,0,1,4.991,1.641l.473.473a.864.864,0,0,0,1.222,0l.395-.395a5.908,5.908,0,0,1,8.245-.148,5.825,5.825,0,0,1,.071,8.308L190.606,109a.629.629,0,0,1-.89,0l-8.8-8.8a5.908,5.908,0,0,1-.148-8.245C180.839,91.881,180.911,91.809,180.985,91.741Z" transform="translate(-136.499 -78.26)"/></g></g></svg>