<svg xmlns="http://www.w3.org/2000/svg" width="204.764" height="204.761" viewBox="0 0 204.764 204.761"><defs><style>.a{fill:#fff;}.b{fill:#c85aa2;}.c{opacity:0.3;}.c,.d{isolation:isolate;}</style></defs><g transform="translate(-836.629 -1384.73)"><path class="a" d="M1041.393,1589.491c-5.073-110.782-93.981-199.687-204.764-204.761v204.761Z"/><path class="b" d="M921.106,1589.491h100.271c-5.038-99.736-85.012-179.706-184.748-184.745v100.268A95.032,95.032,0,0,1,921.106,1589.491Z"/><g class="c"><circle class="a" cx="25" cy="25" r="25" transform="translate(903.996 1471.858)"/></g><g class="d"><g class="d"><path class="a" d="M936.4,1506.834h-14.62v-2.9l6.9-7.354a17,17,0,0,0,2.1-2.71,4.353,4.353,0,0,0,.681-2.2,3.255,3.255,0,0,0-.718-2.234,2.587,2.587,0,0,0-2.051-.813,2.789,2.789,0,0,0-2.262.989,3.913,3.913,0,0,0-.828,2.6h-4.248a6.994,6.994,0,0,1,.93-3.56,6.55,6.55,0,0,1,2.629-2.526,8,8,0,0,1,3.853-.916,7.567,7.567,0,0,1,5.12,1.582,5.6,5.6,0,0,1,1.823,4.468,7.166,7.166,0,0,1-.82,3.222,17.915,17.915,0,0,1-2.813,3.824l-4.848,5.112h9.17Z"/></g></g></g></svg>