<svg xmlns="http://www.w3.org/2000/svg" width="204.763" height="204.761" viewBox="0 0 204.763 204.761"><defs><style>.a{fill:#fff;}.b{fill:#c85aa2;}.c{opacity:0.3;}.c,.d{isolation:isolate;}</style></defs><g transform="translate(-611.866 -1609.491)"><path class="a" d="M611.866,1609.491c5.073,110.782,93.981,199.687,204.763,204.761V1609.491Z"/><path class="b" d="M732.152,1609.491H631.882c5.038,99.736,85.011,179.707,184.747,184.745V1693.968A95.032,95.032,0,0,1,732.152,1609.491Z"/><g class="c"><circle class="a" cx="25" cy="25" r="25" transform="translate(698.996 1676.858)"/></g><g class="d"><g class="d"><path class="a" d="M720.858,1701.454h2.256a3.177,3.177,0,0,0,2.388-.806,2.949,2.949,0,0,0,.776-2.138,2.611,2.611,0,0,0-.769-2.007,2.978,2.978,0,0,0-2.116-.718,3.128,3.128,0,0,0-2.037.667,2.133,2.133,0,0,0-.82,1.736H716.3a5.21,5.21,0,0,1,.9-3,6.013,6.013,0,0,1,2.52-2.073,8.408,8.408,0,0,1,3.567-.747,7.977,7.977,0,0,1,5.3,1.619,5.523,5.523,0,0,1,1.919,4.46,4.484,4.484,0,0,1-.894,2.695,5.8,5.8,0,0,1-2.344,1.89,4.975,4.975,0,0,1,3.575,4.981,5.613,5.613,0,0,1-2.074,4.555,8.329,8.329,0,0,1-5.485,1.714,7.905,7.905,0,0,1-5.223-1.684,5.5,5.5,0,0,1-2.028-4.454h4.233a2.45,2.45,0,0,0,.9,1.963,3.758,3.758,0,0,0,4.585-.036,2.757,2.757,0,0,0,.857-2.117q0-3.194-3.515-3.193h-2.242Z"/></g></g></g></svg>