<svg xmlns="http://www.w3.org/2000/svg" width="150" height="150" viewBox="0 0 150 150"><defs><style>.a{fill:#8f2b58;}.b{isolation:isolate;}.c{fill:#fff;}</style></defs><g transform="translate(-1174.419 -1651.277)"><circle class="a" cx="75" cy="75" r="75" transform="translate(1174.419 1651.277)"/><g class="b"><g class="b"><path class="c" d="M1235.357,1702.467h7.465v2.824h-10.98v-17.062h3.515Z"/><path class="c" d="M1251.963,1705.291a3.747,3.747,0,0,1-.34-1.136,4.1,4.1,0,0,1-3.2,1.371,4.5,4.5,0,0,1-3.088-1.078,3.466,3.466,0,0,1-1.225-2.719,3.584,3.584,0,0,1,1.494-3.094,7.373,7.373,0,0,1,4.319-1.09h1.558v-.726a2.091,2.091,0,0,0-.451-1.407,1.777,1.777,0,0,0-1.424-.527,2.018,2.018,0,0,0-1.341.41,1.393,1.393,0,0,0-.487,1.125h-3.386a3.4,3.4,0,0,1,.679-2.039,4.5,4.5,0,0,1,1.922-1.471,7.012,7.012,0,0,1,2.789-.533,5.535,5.535,0,0,1,3.721,1.178,4.12,4.12,0,0,1,1.377,3.31v5.5a6.065,6.065,0,0,0,.5,2.73v.2Zm-2.8-2.355a2.927,2.927,0,0,0,1.383-.334,2.194,2.194,0,0,0,.937-.9v-2.179h-1.265q-2.544,0-2.707,1.757l-.012.2a1.356,1.356,0,0,0,.445,1.043A1.732,1.732,0,0,0,1249.162,1702.936Z"/><path class="c" d="M1264.35,1701.787a1.091,1.091,0,0,0-.616-.978,7.011,7.011,0,0,0-1.974-.639q-4.524-.95-4.524-3.844a3.483,3.483,0,0,1,1.4-2.818,5.647,5.647,0,0,1,3.662-1.131,6.079,6.079,0,0,1,3.861,1.137,3.582,3.582,0,0,1,1.447,2.953h-3.386a1.641,1.641,0,0,0-.469-1.2,1.982,1.982,0,0,0-1.465-.475,2.025,2.025,0,0,0-1.324.387,1.22,1.22,0,0,0-.469.984,1.046,1.046,0,0,0,.533.909,5.5,5.5,0,0,0,1.8.6,14.674,14.674,0,0,1,2.133.569q2.684.984,2.684,3.41a3.307,3.307,0,0,1-1.489,2.806,6.419,6.419,0,0,1-3.844,1.073,6.708,6.708,0,0,1-2.83-.569,4.752,4.752,0,0,1-1.939-1.558,3.62,3.62,0,0,1-.7-2.139h3.211a1.766,1.766,0,0,0,.668,1.383,2.649,2.649,0,0,0,1.664.48,2.451,2.451,0,0,0,1.47-.369A1.147,1.147,0,0,0,1264.35,1701.787Z"/></g><g class="b"><path class="c" d="M1217.392,1726.869h1.933v2.731h-1.933v3.691h-3.387V1729.6h-7l-.153-2.133,7.114-11.238h3.422Zm-7.161,0h3.774v-6.023l-.223.387Z"/><path class="c" d="M1232.7,1727.069a7.6,7.6,0,0,1-1.33,4.693,4.265,4.265,0,0,1-3.592,1.764,3.952,3.952,0,0,1-3.105-1.336v5.976h-3.387v-17.554h3.141l.117,1.242a3.979,3.979,0,0,1,3.211-1.477,4.291,4.291,0,0,1,3.644,1.735,7.8,7.8,0,0,1,1.3,4.781Zm-3.387-.246a4.993,4.993,0,0,0-.626-2.731,2.042,2.042,0,0,0-1.823-.961,2.217,2.217,0,0,0-2.191,1.219v5.191a2.255,2.255,0,0,0,2.215,1.254Q1229.309,1730.8,1229.309,1726.823Z"/><path class="c" d="M1236.985,1715.291h3.692l-3.246,3.633h-2.754Z"/><path class="c" d="M1249.618,1729.787a1.091,1.091,0,0,0-.615-.978,7.021,7.021,0,0,0-1.975-.639q-4.523-.95-4.523-3.844a3.485,3.485,0,0,1,1.4-2.818,5.648,5.648,0,0,1,3.662-1.131,6.08,6.08,0,0,1,3.862,1.137,3.584,3.584,0,0,1,1.447,2.953h-3.387a1.637,1.637,0,0,0-.469-1.2,1.978,1.978,0,0,0-1.464-.475,2.028,2.028,0,0,0-1.325.387,1.222,1.222,0,0,0-.468.984,1.044,1.044,0,0,0,.533.909,5.494,5.494,0,0,0,1.8.6,14.694,14.694,0,0,1,2.132.569q2.685.984,2.684,3.41a3.306,3.306,0,0,1-1.488,2.806,6.42,6.42,0,0,1-3.844,1.073,6.7,6.7,0,0,1-2.83-.569,4.755,4.755,0,0,1-1.94-1.558,3.626,3.626,0,0,1-.7-2.139h3.211a1.77,1.77,0,0,0,.668,1.383,2.651,2.651,0,0,0,1.664.48,2.453,2.453,0,0,0,1.471-.369A1.148,1.148,0,0,0,1249.618,1729.787Z"/><path class="c" d="M1260.54,1726.858a7.64,7.64,0,0,1,1.33-4.723,4.316,4.316,0,0,1,3.639-1.758,3.882,3.882,0,0,1,3.058,1.383v-6.469h3.4v18h-3.059l-.164-1.347a3.988,3.988,0,0,1-3.258,1.582,4.305,4.305,0,0,1-3.592-1.764A7.89,7.89,0,0,1,1260.54,1726.858Zm3.387.252a5,5,0,0,0,.621,2.734,2.02,2.02,0,0,0,1.8.951,2.266,2.266,0,0,0,2.215-1.326v-5.012a2.233,2.233,0,0,0-2.191-1.326Q1263.927,1723.131,1263.927,1727.11Z"/><path class="c" d="M1280.427,1733.526a6.226,6.226,0,0,1-4.541-1.711,6.082,6.082,0,0,1-1.752-4.559v-.328a7.665,7.665,0,0,1,.738-3.416,5.413,5.413,0,0,1,2.092-2.32,5.869,5.869,0,0,1,3.088-.815,5.26,5.26,0,0,1,4.095,1.641,6.667,6.667,0,0,1,1.495,4.652v1.383h-8.075a3.149,3.149,0,0,0,.991,1.992,2.992,2.992,0,0,0,2.091.75,3.654,3.654,0,0,0,3.059-1.418l1.664,1.863a5.077,5.077,0,0,1-2.063,1.682A6.77,6.77,0,0,1,1280.427,1733.526Zm-.387-10.418a2.116,2.116,0,0,0-1.635.682,3.541,3.541,0,0,0-.8,1.954h4.711v-.27a2.516,2.516,0,0,0-.609-1.748A2.183,2.183,0,0,0,1280.04,1723.108Z"/><path class="c" d="M1291.138,1733.291h-3.4v-18h3.4Z"/></g><g class="b"><path class="c" d="M1200.03,1748.612l.106,1.418a4.454,4.454,0,0,1,3.644-1.653,3.381,3.381,0,0,1,3.363,1.934,4.356,4.356,0,0,1,3.809-1.934,3.782,3.782,0,0,1,3.07,1.2,5.522,5.522,0,0,1,1.008,3.616v8.1h-3.4V1753.2a2.417,2.417,0,0,0-.422-1.576,1.868,1.868,0,0,0-1.488-.5,2.114,2.114,0,0,0-2.11,1.453l.012,8.707h-3.387v-8.074a2.386,2.386,0,0,0-.433-1.594,1.89,1.89,0,0,0-1.477-.492,2.2,2.2,0,0,0-2.086,1.2v8.965h-3.387v-12.679Z"/><path class="c" d="M1223.468,1761.526a6.226,6.226,0,0,1-4.541-1.711,6.082,6.082,0,0,1-1.752-4.559v-.328a7.665,7.665,0,0,1,.738-3.416,5.413,5.413,0,0,1,2.092-2.32,5.869,5.869,0,0,1,3.088-.815,5.26,5.26,0,0,1,4.095,1.641,6.667,6.667,0,0,1,1.495,4.652v1.383h-8.075a3.149,3.149,0,0,0,.991,1.992,2.991,2.991,0,0,0,2.091.75,3.654,3.654,0,0,0,3.059-1.418l1.664,1.863a5.08,5.08,0,0,1-2.062,1.682A6.778,6.778,0,0,1,1223.468,1761.526Zm-.387-10.418a2.116,2.116,0,0,0-1.635.682,3.542,3.542,0,0,0-.8,1.954h4.711v-.27a2.516,2.516,0,0,0-.609-1.748A2.183,2.183,0,0,0,1223.081,1751.108Z"/><path class="c" d="M1237.729,1751.787a9.269,9.269,0,0,0-1.218-.093,2.481,2.481,0,0,0-2.52,1.3v8.3H1230.6v-12.679h3.2l.093,1.511a3.139,3.139,0,0,1,2.825-1.746,3.527,3.527,0,0,1,1.054.153Z"/><path class="c" d="M1244.409,1758.8a2.226,2.226,0,0,0,1.524-.515,1.811,1.811,0,0,0,.609-1.372h3.176a4.347,4.347,0,0,1-.7,2.362,4.642,4.642,0,0,1-1.893,1.664,5.931,5.931,0,0,1-2.654.592,5.506,5.506,0,0,1-4.289-1.729,6.839,6.839,0,0,1-1.571-4.775v-.223a6.763,6.763,0,0,1,1.559-4.676,5.441,5.441,0,0,1,4.277-1.746,5.332,5.332,0,0,1,3.815,1.354,4.793,4.793,0,0,1,1.459,3.6h-3.176a2.334,2.334,0,0,0-.609-1.608,2.266,2.266,0,0,0-3.334.244,5,5,0,0,0-.6,2.8v.351a5.063,5.063,0,0,0,.6,2.818A2.065,2.065,0,0,0,1244.409,1758.8Z"/><path class="c" d="M1259,1761.291a3.747,3.747,0,0,1-.34-1.136,4.1,4.1,0,0,1-3.2,1.371,4.506,4.506,0,0,1-3.088-1.078,3.47,3.47,0,0,1-1.225-2.719,3.582,3.582,0,0,1,1.495-3.094,7.37,7.37,0,0,1,4.318-1.09h1.558v-.726a2.091,2.091,0,0,0-.451-1.407,1.775,1.775,0,0,0-1.424-.527,2.018,2.018,0,0,0-1.341.41,1.393,1.393,0,0,0-.487,1.125h-3.386a3.4,3.4,0,0,1,.679-2.039,4.5,4.5,0,0,1,1.922-1.471,7.012,7.012,0,0,1,2.789-.533,5.535,5.535,0,0,1,3.721,1.178,4.12,4.12,0,0,1,1.377,3.31v5.5a6.065,6.065,0,0,0,.5,2.73v.2Zm-2.8-2.355a2.927,2.927,0,0,0,1.383-.334,2.194,2.194,0,0,0,.937-.9v-2.179h-1.265q-2.543,0-2.707,1.757l-.012.2a1.359,1.359,0,0,0,.445,1.043A1.734,1.734,0,0,0,1256.2,1758.936Z"/><path class="c" d="M1263.991,1754.858a7.639,7.639,0,0,1,1.33-4.723,4.316,4.316,0,0,1,3.639-1.758,3.882,3.882,0,0,1,3.058,1.383v-6.469h3.4v18h-3.059l-.164-1.347a3.985,3.985,0,0,1-3.258,1.582,4.3,4.3,0,0,1-3.591-1.764A7.884,7.884,0,0,1,1263.991,1754.858Zm3.387.252a5,5,0,0,0,.621,2.734,2.021,2.021,0,0,0,1.8.951,2.264,2.264,0,0,0,2.214-1.326v-5.012a2.232,2.232,0,0,0-2.191-1.326Q1267.377,1751.131,1267.378,1755.11Z"/><path class="c" d="M1283.878,1761.526a6.226,6.226,0,0,1-4.541-1.711,6.082,6.082,0,0,1-1.752-4.559v-.328a7.665,7.665,0,0,1,.738-3.416,5.418,5.418,0,0,1,2.092-2.32,5.872,5.872,0,0,1,3.088-.815,5.264,5.264,0,0,1,4.1,1.641,6.667,6.667,0,0,1,1.494,4.652v1.383h-8.075a3.149,3.149,0,0,0,.991,1.992,2.992,2.992,0,0,0,2.092.75,3.653,3.653,0,0,0,3.058-1.418l1.664,1.863a5.081,5.081,0,0,1-2.062,1.682A6.775,6.775,0,0,1,1283.878,1761.526Zm-.387-10.418a2.116,2.116,0,0,0-1.635.682,3.535,3.535,0,0,0-.8,1.954h4.711v-.27a2.521,2.521,0,0,0-.61-1.748A2.182,2.182,0,0,0,1283.491,1751.108Z"/><path class="c" d="M1290.487,1754.834a7.509,7.509,0,0,1,.727-3.363,5.313,5.313,0,0,1,2.092-2.285,6.1,6.1,0,0,1,3.17-.809,5.774,5.774,0,0,1,4.189,1.571,6.3,6.3,0,0,1,1.811,4.265l.023.867a6.627,6.627,0,0,1-1.629,4.682,6.313,6.313,0,0,1-8.748.006,6.744,6.744,0,0,1-1.635-4.781Zm3.387.24a4.737,4.737,0,0,0,.68,2.764,2.441,2.441,0,0,0,3.867.012,5.184,5.184,0,0,0,.691-3.022,4.693,4.693,0,0,0-.691-2.746,2.249,2.249,0,0,0-1.945-.974,2.211,2.211,0,0,0-1.922.968A5.274,5.274,0,0,0,1293.874,1755.074Z"/></g></g></g></svg>