<svg xmlns="http://www.w3.org/2000/svg" width="44" height="44" viewBox="0 0 44 44"><defs><style>.a,.b{fill:none;}.b{stroke:#bf3976;stroke-linecap:round;stroke-linejoin:round;stroke-width:2px;}</style></defs><g transform="translate(8566 10358)"><rect class="a" width="44" height="44" transform="translate(-8566 -10358)"/><g transform="translate(-8564 -10351)"><path class="b" d="M581.55,418.919a5.89,5.89,0,0,1,.211,2.364l6.581-1.958-1.958-6.581a5.955,5.955,0,1,0-3.128-10.513L581.3,395.65l-6.581,1.958a5.955,5.955,0,1,1-10.513,3.128l-6.581,1.958,1.958,6.581a5.955,5.955,0,1,0,3.168,10.513l1.958,6.581,6.581-1.958a5.848,5.848,0,0,1-1.113-2.1,5.955,5.955,0,1,1,11.374-3.4Z" transform="translate(-553 -395.65)"/></g></g></svg>