<svg xmlns="http://www.w3.org/2000/svg" width="100" height="100" viewBox="0 0 100 100"><defs><style>.a{fill:#bf3976;}.b,.d,.f{fill:#fff;}.b{opacity:0.5;}.c{opacity:0.7;}.e{opacity:0.74;}.f{opacity:0.64;}</style></defs><g transform="translate(-294 -5283)"><g transform="translate(114 4296.27)"><g transform="translate(180 986.417)"><circle class="a" cx="50" cy="50" r="50" transform="translate(0 0.313)"/></g></g><g transform="translate(266.475 5263.4)"><g transform="translate(88.069 44.927)"><path class="b" d="M333.59,108.921v-1.7a.922.922,0,0,0-.921-.921H319.221a.922.922,0,0,0-.921.921v1.7Z" transform="translate(-318.284 -106.284)"/><path class="b" d="M318.2,254.6v1.857a.922.922,0,0,0,.921.921h4.244a.922.922,0,0,0,.921-.921V254.6Z" transform="translate(-318.2 -231.446)"/><path class="b" d="M377.3,254.6v1.857a.922.922,0,0,0,.921.921h4.244a.922.922,0,0,0,.921-.921V254.6Z" transform="translate(-368.079 -231.446)"/><g class="c" transform="translate(0 0)"><path class="d" d="M392.8,123.1a4.537,4.537,0,0,0,2.262,3.807l1.4.811V123.1Z" transform="translate(-381.16 -120.463)"/><path class="d" d="M321.867,123.1a4.537,4.537,0,0,1-2.262,3.807l-1.4.811V123.1Z" transform="translate(-318.2 -120.463)"/><path class="d" d="M342.761,109.118h-.874a.18.18,0,0,1-.187-.187V106.2h1.248v2.73A.18.18,0,0,1,342.761,109.118Z" transform="translate(-338.033 -106.2)"/><path class="d" d="M385.861,109.118h-.874a.18.18,0,0,1-.187-.187V106.2h1.248v2.73A.18.18,0,0,1,385.861,109.118Z" transform="translate(-374.409 -106.2)"/></g></g><path class="b" d="M66.506,317.021v-1.7a.922.922,0,0,0-.921-.921H52.121a.922.922,0,0,0-.921.921v1.7Z" transform="translate(-4.79 -236.988)"/><path class="b" d="M51.2,402.7v1.857a.922.922,0,0,0,.921.921h4.244a.922.922,0,0,0,.921-.921V402.7Z" transform="translate(-4.79 -311.511)"/><path class="b" d="M110.2,402.7v1.857a.922.922,0,0,0,.921.921h4.244a.922.922,0,0,0,.921-.921V402.7Z" transform="translate(-54.584 -311.511)"/><g class="e" transform="translate(46.41 77.412)"><path class="d" d="M125.8,331.2a4.537,4.537,0,0,0,2.262,3.807l1.4.811V331.2Z" transform="translate(-114.161 -328.579)"/><path class="d" d="M54.867,331.2a4.537,4.537,0,0,1-2.262,3.807l-1.4.811V331.2Z" transform="translate(-51.2 -328.579)"/><path class="d" d="M75.761,317.318h-.874a.18.18,0,0,1-.187-.187V314.4h1.248v2.73A.19.19,0,0,1,75.761,317.318Z" transform="translate(-71.033 -314.4)"/><path class="d" d="M118.861,317.318h-.874a.18.18,0,0,1-.187-.187V314.4h1.248v2.73A.2.2,0,0,1,118.861,317.318Z" transform="translate(-107.409 -314.4)"/></g><g transform="translate(45.525 33.6)"><g transform="translate(0 0)"><path class="f" d="M341.6,385.461,347.061,380l2.528,2.528-5.461,5.461Z" transform="translate(-295.405 -325.953)"/><path class="d" d="M154.562,165.466a14.2,14.2,0,1,0,4.166,10.048A14.129,14.129,0,0,0,154.562,165.466Zm-1.092,19a12.656,12.656,0,1,1,3.713-8.956A12.594,12.594,0,0,1,153.47,184.47Z" transform="translate(-117.073 -141.376)"/><path class="d" d="M110.552,98.756,98.663,86.867a.783.783,0,0,0-1.108,1.108l11.889,11.889a.659.659,0,0,1,0,.921L106,104.232a.659.659,0,0,1-.921,0L89.458,88.6a.659.659,0,0,1,0-.921l3.448-3.448a.659.659,0,0,1,.921,0,.783.783,0,1,0,1.108-1.108,2.226,2.226,0,0,0-2.98-.14L87.6,78.629a18.27,18.27,0,0,0,3.183-7.006h2.465a1.7,1.7,0,0,0,1.7-1.7V54.086a.78.78,0,0,1,1.56,0V69.923a1.7,1.7,0,0,0,1.7,1.7h4.244a1.7,1.7,0,0,0,1.7-1.7V45.864a1.7,1.7,0,0,0-1.7-1.7H89.005a1.7,1.7,0,0,0-1.7,1.7V56.458a17.335,17.335,0,0,0-1.435-1.607,18.173,18.173,0,0,0-12.4-5.32V47.1l1.2,1.2a1.516,1.516,0,0,0,2.122,0l4.4-4.4a1.516,1.516,0,0,0,0-2.122L73.45,34.037a1.486,1.486,0,0,0-1.061-.437h-3.7a1.486,1.486,0,0,0-1.373.9,4.067,4.067,0,0,1-7.489,0,1.486,1.486,0,0,0-1.373-.9h-3.7a1.486,1.486,0,0,0-1.061.437L45.958,41.76a1.516,1.516,0,0,0,0,2.122l4.4,4.4a1.516,1.516,0,0,0,2.122,0l1.2-1.2V60.53a1.5,1.5,0,0,0,1.5,1.5h.468a18.3,18.3,0,0,0,1.389,14.588h-9.7a1.7,1.7,0,0,0-1.7,1.7V93.03a1.7,1.7,0,0,0,1.7,1.7h4.244a1.7,1.7,0,0,0,1.7-1.7V86.555a.78.78,0,1,1,1.56,0v6.491a1.7,1.7,0,0,0,1.7,1.7H60.78a1.7,1.7,0,0,0,1.7-1.7V86.492a.78.78,0,0,0-1.56,0v6.553a.14.14,0,0,1-.14.14H56.536a.14.14,0,0,1-.14-.14V86.555a2.34,2.34,0,1,0-4.681,0v6.491a.14.14,0,0,1-.14.14H47.331a.14.14,0,0,1-.14-.14V78.332a.14.14,0,0,1,.14-.14H58.019a19.035,19.035,0,0,0,2.06,2.45,18.242,18.242,0,0,0,23.778,1.732l4.353,4.353a2.226,2.226,0,0,0,.14,2.98l15.634,15.634a2.183,2.183,0,0,0,1.56.64,2.222,2.222,0,0,0,1.56-.64l3.448-3.448a2.2,2.2,0,0,0,0-3.136Zm-21.7-52.892a.14.14,0,0,1,.14-.14h13.449a.14.14,0,0,1,.14.14V69.938a.14.14,0,0,1-.14.14H98.2a.14.14,0,0,1-.14-.14V54.086a2.34,2.34,0,0,0-4.681,0V69.923a.14.14,0,0,1-.14.14h-2.2a18.324,18.324,0,0,0-2.184-11.281V45.864Zm-33.608,14.6V45.208a.778.778,0,0,0-.484-.718.766.766,0,0,0-.843.172l-2.481,2.481-4.322-4.322,7.676-7.676h3.635a5.632,5.632,0,0,0,10.329,0h3.635l7.676,7.676-4.353,4.322-2.481-2.481a.776.776,0,0,0-1.326.546v4.337a18.11,18.11,0,0,0-11.827,5.3,17.875,17.875,0,0,0-3.823,5.617ZM61.17,79.534a16.676,16.676,0,1,1,23.591,0,16.677,16.677,0,0,1-23.591,0Zm24.683,1.108q.374-.374.749-.8l4.228,4.228L89.3,85.6l-4.228-4.228c.265-.234.53-.484.78-.733Z" transform="translate(-45.525 -33.6)"/></g></g></g></g></svg>