<svg xmlns="http://www.w3.org/2000/svg" width="100" height="100" viewBox="0 0 100 100"><defs><style>.a{fill:#bf3976;}.b{fill:#fff;}</style></defs><g transform="translate(-294 -5528)"><g transform="translate(114 4541.27)"><g transform="translate(180 986.417)"><circle class="a" cx="50" cy="50" r="50" transform="translate(0 0.313)"/></g></g><g transform="translate(308.711 5542.711)"><path class="b" d="M2.072,16.577a1.037,1.037,0,0,1,1.036-1.036H6.216V50.006H8.288V2.072H21.54V0H6.216V13.469H3.108A3.112,3.112,0,0,0,0,16.577V44.826H2.072Z" transform="translate(0)"/><path class="b" d="M68.655,172.571H60.366v-5.1a4.8,4.8,0,0,0-2.314-4.061V151.1a11.3,11.3,0,0,0-2.552-7.132l-1.6,1.312a9.219,9.219,0,0,1,2.084,5.819v11.213c-.281-.119-.547-.224-.786-.319l-3.651-1.443a7.132,7.132,0,0,0,2.365-5.307v-3.113l-5.051.025-9.247-2.394v5.483a7.132,7.132,0,0,0,2.365,5.307l-2.845,1.124L37.539,159.1v-8a9.207,9.207,0,0,1,15.04-7.137l1.312-1.6A11.279,11.279,0,0,0,35.467,151.1v8.589l1.718,2.778c-1.565.7-3.448,1.852-3.918,3.971H25.9v2.072h7.253v4.063H2.072v-10.18H0v14.324a3.112,3.112,0,0,0,3.108,3.108H28.746l-1.381,4.144H20.859a3.112,3.112,0,0,0-3.108,3.108v4.144H32.364v-2.072H19.823v-2.072a1.037,1.037,0,0,1,1.036-1.036H45.291v-2.072H29.549l1.381-4.144H39.8l1.381,4.144H39.507v2.072h10.36a1.037,1.037,0,0,1,1.036,1.036v2.072H29.147v2.072H52.976v-4.144a3.112,3.112,0,0,0-3.108-3.108H43.362l-1.381-4.144H67.618a3.112,3.112,0,0,0,3.108-3.108V144.321H68.655ZM41.683,155.242v-2.806l6.916,1.79,3.238-.016v1.031a5.077,5.077,0,0,1-10.154,0Zm-6.458,12.23c0-1.7,1.416-2.586,3.861-3.553l5.092-2.012a7.122,7.122,0,0,0,5.163,0l3.2,1.264-8.291,5.256H39.369v4.144H35.225Zm32.393,10.279H3.108a1.037,1.037,0,0,1-1.036-1.036v-2.072H49.724v-2.072H41.441V170.5H44.85l10.068-6.383c2.146.895,3.376,1.776,3.376,3.356v5.1H54.15v-3.108H52.078v3.108H47.8v2.072H68.655v2.072A1.037,1.037,0,0,1,67.618,177.751Z" transform="translate(0 -120.493)"/><path class="b" d="M177.506,13.469H174.4V0H127.5V2.072h44.826V50.006H174.4V15.541h3.108a1.037,1.037,0,0,1,1.036,1.036v15.18h2.072V16.577A3.112,3.112,0,0,0,177.506,13.469Z" transform="translate(-109.887)"/><path class="b" d="M91.945,41.352v5.907l-2.553-3.835h-4.82v7.723l3.84,5.727L82.5,64.713v9.827h9.445v2.9H87.8v2.072h10.36V77.439H94.017v-2.9h9.445V64.713L100.8,61.188l-1.654,1.248,2.241,2.971v7.061H98.282V69.359H96.21v3.108H89.752V69.359H87.68v3.108H84.572V65.406L90.2,57.945h5.564l3.973,5.738,1.654-1.248-3.84-5.561,3.84-5.727V43.424H96.57l-2.553,3.835V41.352ZM97.68,45.5h1.638v5.02l-3.592,5.357H90.236l-3.592-5.357V45.5h1.638l4.7,7.058Z" transform="translate(-72.104 -31.64)"/></g></g></svg>