<svg xmlns="http://www.w3.org/2000/svg" width="483.999" height="192.362" viewBox="0 0 483.999 192.362"><defs><style>.a{fill:#f5f5f5;}.b{fill:#263238;}.c{fill:#ffbe9d;}.d{fill:#eb996e;}.e{fill:#455a64;}.f{fill:#bf3976;}.g{opacity:0.2;}.h{fill:#fff;}.i{fill:#ebebeb;}.j{opacity:0.3;}</style></defs><g transform="translate(-67.694 -155.819)"><g transform="translate(127.317 174.852)"><path class="a" d="M125.97,179.37c0,8.6-.477,14-5.584,20.916-3.111,4.219-2.966,13.779,4.453,9.949-2.845,4.671,2.206,10.927,4.849,4.388s1.4-21.012-2.982-26.88" transform="translate(-118.469 -179.37)"/></g><g transform="translate(387.147 156.008)"><path class="b" d="M612.232,191.723a1.923,1.923,0,0,0,1.988-1.237,3.911,3.911,0,0,0,0-2.489,8.364,8.364,0,0,0-3.6-4.849c-2-1.245-4.712-1.843-5.6-4.041s.735-4.728.445-7.12c-.267-2.231-2.231-3.96-4.372-4.647a11.055,11.055,0,0,0-2.764-.469,7.654,7.654,0,0,0,2.271-5.043,5.657,5.657,0,0,0-1.883-4.639,5.916,5.916,0,0,0-4.081-1.107,7.589,7.589,0,0,0-6.57,4.526,6,6,0,0,0,1.616,6.522,11.311,11.311,0,0,1-1.948-.348c-1.972-.558-3.7-1.754-5.6-2.53a14.264,14.264,0,0,0-13.513,1.616,11.314,11.314,0,0,0-4.291,5.762,8.2,8.2,0,0,0,.727,6.465,11.711,11.711,0,0,0-1.616,6.158c0,1.964.574,3.992-.073,5.851a13.026,13.026,0,0,1-2.424,3.548,5.448,5.448,0,0,0-1.5,3.92c.186,1.43,1.794,2.683,3.071,2.02a4.849,4.849,0,0,0,.162,5.285,8.008,8.008,0,0,0,4.55,3.087,23.686,23.686,0,0,0,5.552.687l13.739-1.536,11.363-6.433a5.266,5.266,0,0,0,3.758,4.615c2.069.445,4.485-1.293,4.267-3.4a6.037,6.037,0,0,0,6.32-10.175Z" transform="translate(-496.018 -156.053)"/><path class="c" d="M608.535,195.143c-.477-5.447-4.849-4.437-6.328-3.936l-.469-9.7-1.519-.905a32.877,32.877,0,0,0-33.289-.186s.962,21.756,2.206,31.131,10.781,9.706,10.781,9.706,1.042,10.215,1.495,12.834l22.791-.905-1.568-32.5C603.662,200.905,609.052,201.051,608.535,195.143Z" transform="translate(-497.461 -159.877)"/><path class="d" d="M613.1,202.011a1.737,1.737,0,0,0,.315.137,1.075,1.075,0,0,0,.808-.057,2.769,2.769,0,0,0,1.067-2.6,3.665,3.665,0,0,0-.453-1.616,1.318,1.318,0,0,0-.921-.808.582.582,0,0,0-.638.364c-.065.194,0,.315-.049.331s-.145-.1-.121-.372a.736.736,0,0,1,.218-.42.808.808,0,0,1,.606-.218,1.616,1.616,0,0,1,1.261.9,3.839,3.839,0,0,1,.55,1.762,2.922,2.922,0,0,1-1.4,2.926,1.229,1.229,0,0,1-1.035-.081C613.123,202.164,613.074,202.027,613.1,202.011Z" transform="translate(-506.316 -163.859)"/><path class="e" d="M614.533,205.673a1.054,1.054,0,0,1,0,.986,1.616,1.616,0,0,1-.808.808,1.544,1.544,0,0,1-1.39-.065,1.559,1.559,0,0,1-.808-1.123,1.616,1.616,0,0,1,.25-1.1c.38-.541.808-.582.808-.533a2.4,2.4,0,0,0-.574.687,1.431,1.431,0,0,0-.129.881,1.253,1.253,0,0,0,.646.808,1.213,1.213,0,0,0,1.034.081,1.382,1.382,0,0,0,.663-.6C614.549,206.061,614.46,205.681,614.533,205.673Z" transform="translate(-506.013 -165.372)"/><path class="e" d="M566.507,199.64a1.976,1.976,0,0,1,.186.582,5.477,5.477,0,0,1,0,1.689,10.569,10.569,0,0,1-.7,2.425c-.364.865-.808,1.762-1.293,2.724a10.708,10.708,0,0,0-.93,2.78,5.584,5.584,0,0,0,.121,2.36,5.091,5.091,0,0,0,1.091,1.9,1.7,1.7,0,0,1-.5-.364,3.613,3.613,0,0,1-.873-1.447,5.593,5.593,0,0,1-.218-2.5,10.056,10.056,0,0,1,.93-2.909c.452-.978.945-1.867,1.317-2.7a10.792,10.792,0,0,0,.76-2.287A9.42,9.42,0,0,0,566.507,199.64Z" transform="translate(-496.771 -164.414)"/><path class="d" d="M583,230.676a21.974,21.974,0,0,0,11.824-4.946s-2.085,7.1-11.557,7.387Z" transform="translate(-500.543 -169.419)"/><path class="b" d="M566.852,182.2s5.875,2.521,13.189-1.552c4.8-2.675,10.466-4.13,11.775-3.233s1.8,5.972,6.732,7.225c0,0,.105,9.7,3.936,9.149s.752-15.355.752-15.355l-9.625-4.17L583.25,172.79l-9.617,1.8-7.4,2.425Z" transform="translate(-497.326 -159.264)"/><path class="f" d="M606.233,168.75a10.838,10.838,0,0,1-9.633.566,16.7,16.7,0,0,0,9.633-.566Z" transform="translate(-503.152 -158.489)"/><path class="e" d="M602.016,170.708a2.007,2.007,0,0,1,1.164.655,3.629,3.629,0,0,1-.517,5.722,1.972,1.972,0,0,1-1.253.436c0-.073.469-.194,1.083-.679a3.548,3.548,0,0,0,.477-5.277C602.453,170.983,601.984,170.773,602.016,170.708Z" transform="translate(-504.075 -158.863)"/><path class="e" d="M609.344,171.7a.908.908,0,0,1,.485.21,2.633,2.633,0,0,1,.913,1.123,3.532,3.532,0,0,1,.242,2.142,4.122,4.122,0,0,1-1.406,2.231,5.657,5.657,0,0,1-2.344,1.172,8.617,8.617,0,0,1-2.109.218,5.657,5.657,0,0,1-1.915-.251,17.714,17.714,0,0,1,1.907-.048,6.829,6.829,0,0,0,4.186-1.414,3.862,3.862,0,0,0,1.3-2,3.338,3.338,0,0,0-.137-1.94A3.516,3.516,0,0,0,609.344,171.7Z" transform="translate(-504.42 -159.055)"/><path class="e" d="M586.848,167.337c0,.081-1.471-.17-3.839-.3a13.425,13.425,0,0,0-4.041.412,7.475,7.475,0,0,0-4.041,2.691,6.781,6.781,0,0,0-1.051,4.744,7.022,7.022,0,0,0,1.536,3.71,5.535,5.535,0,0,0,2.239,1.568c.614.218.986.251.978.291a.809.809,0,0,1-.267,0,3.912,3.912,0,0,1-.808-.145,5.31,5.31,0,0,1-2.424-1.527,7.548,7.548,0,0,1-.606-8.89,7.669,7.669,0,0,1,4.316-2.821,12.833,12.833,0,0,1,4.2-.331,26.56,26.56,0,0,1,2.813.356,4.544,4.544,0,0,1,.994.242Z" transform="translate(-498.694 -158.094)"/><path class="e" d="M569.047,170.72a20.2,20.2,0,0,0-1.067,1.891,6.967,6.967,0,0,0,2.958,8.93,18.111,18.111,0,0,0,1.988.873,1.535,1.535,0,0,1-.6-.057,6,6,0,0,1-1.527-.558,6.95,6.95,0,0,1-3.1-9.318,5.926,5.926,0,0,1,.9-1.358C568.861,170.833,569.031,170.7,569.047,170.72Z" transform="translate(-497.468 -158.866)"/><path class="e" d="M595.886,170a3.516,3.516,0,0,1-1.94.485,15.125,15.125,0,0,0-2.109.2,4.591,4.591,0,0,0-2.174,1.212,5.883,5.883,0,0,0-1.616,4.211c0,1.2.226,1.94.154,1.956a4.413,4.413,0,0,1-.453-1.948,6.467,6.467,0,0,1,.25-2.19,5.4,5.4,0,0,1,1.39-2.328,4.713,4.713,0,0,1,2.425-1.293,11.946,11.946,0,0,1,2.182-.121,12.405,12.405,0,0,0,1.891-.186Z" transform="translate(-501.452 -158.728)"/><path class="e" d="M621.572,196.4a9.043,9.043,0,0,0,.259-.994,4.575,4.575,0,0,0-.461-2.691,6.465,6.465,0,0,0-2.926-2.78,22.168,22.168,0,0,0-4.849-1.616,20.043,20.043,0,0,1-8.34-4.259,16.519,16.519,0,0,1-2.012-2.02,4.6,4.6,0,0,1-.622-.808c.065-.057.97,1.131,2.82,2.635a21.013,21.013,0,0,0,8.268,4.041,22.209,22.209,0,0,1,4.914,1.657,6.6,6.6,0,0,1,3.014,2.99,4.509,4.509,0,0,1,.356,2.837,3.388,3.388,0,0,1-.267.744C621.636,196.342,621.588,196.4,621.572,196.4Z" transform="translate(-504.307 -160.882)"/><path class="e" d="M616.484,208.433c0-.04.4-.048,1.075-.3a5.147,5.147,0,0,0,2.336-1.8,6.779,6.779,0,0,0,1.164-4.2,9.383,9.383,0,0,0-1.722-5.091,11.628,11.628,0,0,0-4.186-3.443c-1.5-.808-2.909-1.455-4.041-2.158a9.958,9.958,0,0,1-2.424-1.948,4.415,4.415,0,0,1-.509-.671.979.979,0,0,1-.146-.259,12.125,12.125,0,0,0,3.233,2.627c1.107.655,2.513,1.269,4.041,2.069a11.7,11.7,0,0,1,4.356,3.54,9.585,9.585,0,0,1,1.762,5.326,7,7,0,0,1-1.309,4.388,5.148,5.148,0,0,1-2.53,1.786,3.966,3.966,0,0,1-.808.154C616.589,208.457,616.484,208.449,616.484,208.433Z" transform="translate(-505.345 -162.289)"/><path class="b" d="M573.937,200.22a1.374,1.374,0,1,0-1.94.137A1.374,1.374,0,0,0,573.937,200.22Z" transform="translate(-498.342 -164.089)"/><path class="b" d="M570.154,198.467c.162.145,1-.679,2.3-.808s2.311.4,2.424.21-.121-.356-.566-.614a3.16,3.16,0,0,0-1.972-.372,3.127,3.127,0,0,0-1.81.873C570.17,198.087,570.073,198.4,570.154,198.467Z" transform="translate(-498.074 -163.88)"/><path class="b" d="M591.7,198.163a1.374,1.374,0,1,0-1.893.093,1.374,1.374,0,0,0,1.893-.093Z" transform="translate(-501.757 -163.705)"/><path class="b" d="M587.894,196.337c.17.145,1-.679,2.3-.808s2.311.4,2.424.21-.121-.356-.574-.614a3.12,3.12,0,0,0-1.964-.372,3.176,3.176,0,0,0-1.81.865C587.918,195.957,587.813,196.272,587.894,196.337Z" transform="translate(-501.477 -163.471)"/><path class="b" d="M580.767,209.42a6.264,6.264,0,0,0-2.15-.194c-.339,0-.614-.04-.663-.218a1.875,1.875,0,0,1,.129-1l.7-2.748c.97-3.912,1.616-7.12,1.39-7.168s-1.147,3.079-2.109,6.991c-.226.954-.436,1.867-.647,2.764a2.158,2.158,0,0,0,0,1.43.873.873,0,0,0,.647.469,2.368,2.368,0,0,0,.582,0,6.417,6.417,0,0,0,2.117-.323Z" transform="translate(-499.45 -164.117)"/><path class="b" d="M592.686,192.076c-.073.105-.453-.057-1.075-.186a7.71,7.71,0,0,0-2.425-.081,8.606,8.606,0,0,0-2.424.638c-.59.259-.937.477-1.026.388s.145-.477.727-.9a5.52,5.52,0,0,1,2.594-.97,5.286,5.286,0,0,1,2.748.356C592.46,191.631,592.751,191.995,592.686,192.076Z" transform="translate(-501.065 -162.741)"/><path class="b" d="M575.279,194.327c0,.234-1.212.541-2.764.679s-2.82.073-2.845-.154,1.22-.541,2.772-.679S575.263,194.1,575.279,194.327Z" transform="translate(-497.986 -163.352)"/><path class="d" d="M594.006,201.664c0,.121-.162.194-.323.178s-.3-.121-.283-.234.154-.194.323-.178S594.014,201.551,594.006,201.664Z" transform="translate(-502.538 -164.757)"/><path class="d" d="M591.706,204.8c0,.121-.154.2-.323.186s-.291-.129-.283-.242.154-.194.323-.178S591.722,204.691,591.706,204.8Z" transform="translate(-502.097 -165.359)"/><path class="d" d="M588.086,202.292c0,.113-.154.194-.323.178s-.291-.121-.283-.242.162-.194.323-.178S588.1,202.179,588.086,202.292Z" transform="translate(-501.403 -164.876)"/><path class="d" d="M571.026,204.342c0,.113-.162.194-.323.178s-.3-.121-.283-.242.154-.194.323-.178S571.034,204.229,571.026,204.342Z" transform="translate(-498.13 -165.269)"/><path class="d" d="M575.566,203.794a.267.267,0,0,1-.323.178c-.17,0-.3-.121-.283-.234s.154-.194.323-.178S575.574,203.681,575.566,203.794Z" transform="translate(-499.001 -165.166)"/><path class="d" d="M573.216,207.112c0,.113-.154.194-.323.178s-.291-.129-.283-.242.162-.194.323-.178S573.232,206.975,573.216,207.112Z" transform="translate(-498.55 -165.801)"/><path class="b" d="M589.6,209.58c.105,0,.2.364.121.937a4.42,4.42,0,0,1-.929,2.037A4.372,4.372,0,0,1,587,213.9c-.541.2-.905.186-.937.081-.073-.234,1.132-.744,2.077-1.948S589.357,209.556,589.6,209.58Z" transform="translate(-501.13 -166.321)"/><path class="b" d="M591.594,210.384c-.081.089-.542-.242-1.188-.331s-1.18.081-1.237,0,.493-.517,1.293-.388S591.691,210.319,591.594,210.384Z" transform="translate(-501.726 -166.333)"/><path class="c" d="M528.45,192.191c-.954-.711-4.55-.808-8.4.865s-.857-4.194.2-6.368,3.992-9.043,3.572-9.852c-.606-1.253-2.061-.808-3.063,1.358s-4.267,8.251-5.374,7.621a2.134,2.134,0,0,0-2.9.808,2.731,2.731,0,0,0-1.77-1.325,3.368,3.368,0,0,0-2.344,1s-.283-.493-1.616-.76c-1.867-.38-2.78,1.835-2.845,1.818-1.172,3.718-3.491,14.959-3.491,14.959h0l-17.489,45.928a17.682,17.682,0,0,0,1.705,18.879c5.479,7.274,18.96,2.425,25.288,1.245l12.381-2.966-6.231-21.489-9.439,2.045,9.981-43.439,2.069-4.138c.493-.428,1.018-.865,1.616-1.35a10.021,10.021,0,0,1,2.99-1.616,15.427,15.427,0,0,1,4.138-.962A1.308,1.308,0,0,0,528.45,192.191Z" transform="translate(-480.972 -159.907)"/><path class="d" d="M518.231,190.4a15.341,15.341,0,0,1-.574,2.424c-.2.752-.436,1.616-.735,2.643a4.8,4.8,0,0,1-.735,1.5,2.425,2.425,0,0,1-1.616.938,1.689,1.689,0,0,1-.97-.162,1.616,1.616,0,0,1-.679-.687,2.763,2.763,0,0,1-.251-1.7,11.715,11.715,0,0,1,.291-1.447l.315-1.237a14.536,14.536,0,0,1,.7-2.425,14.978,14.978,0,0,1-.412,2.5c-.081.388-.17.808-.258,1.245a12.048,12.048,0,0,0-.259,1.422,2.424,2.424,0,0,0,.226,1.447,1.2,1.2,0,0,0,1.244.63,2.012,2.012,0,0,0,1.325-.768,4.606,4.606,0,0,0,.687-1.382c.3-.946.582-1.818.808-2.6A15.032,15.032,0,0,1,518.231,190.4Z" transform="translate(-487.045 -162.613)"/><path class="d" d="M523.819,190.135a14.665,14.665,0,0,1-.566,2.465c-.21.752-.444,1.616-.743,2.643a4.8,4.8,0,0,1-.735,1.5,2.424,2.424,0,0,1-1.616.937,1.705,1.705,0,0,1-.978-.162,1.681,1.681,0,0,1-.679-.687,2.74,2.74,0,0,1-.25-1.689,11.535,11.535,0,0,1,.3-1.455c.1-.436.21-.849.307-1.237a14.542,14.542,0,0,1,.7-2.424,14.983,14.983,0,0,1-.412,2.5c-.081.388-.17.808-.259,1.245a12.115,12.115,0,0,0-.25,1.422,2.424,2.424,0,0,0,.226,1.447,1.2,1.2,0,0,0,1.245.63,2,2,0,0,0,1.317-.768,4.847,4.847,0,0,0,.7-1.382c.3-.946.574-1.818.808-2.6a16.107,16.107,0,0,1,.889-2.384Z" transform="translate(-488.115 -162.571)"/><path class="d" d="M512.85,190.645a11.755,11.755,0,0,1-.461,2.222c-.178.679-.372,1.479-.63,2.425a4.5,4.5,0,0,1-.622,1.374,2.077,2.077,0,0,1-1.422.9,1.422,1.422,0,0,1-.905-.178,1.52,1.52,0,0,1-.582-.663,2.78,2.78,0,0,1-.186-1.536c.137-.937.38-1.73.533-2.425a11.764,11.764,0,0,1,.622-2.182,11.973,11.973,0,0,1-.331,2.247c-.113.679-.331,1.5-.436,2.425a2.424,2.424,0,0,0,.17,1.309,1,1,0,0,0,1.051.6,1.673,1.673,0,0,0,1.14-.719,4.265,4.265,0,0,0,.582-1.245c.259-.849.5-1.616.711-2.352A12.7,12.7,0,0,1,512.85,190.645Z" transform="translate(-486.157 -162.676)"/><path class="d" d="M523.772,200.511a14.547,14.547,0,0,0-10.1,4.275,4.534,4.534,0,0,1,1.067-1.3,11.737,11.737,0,0,1,3.4-2.214,11.444,11.444,0,0,1,3.96-.9,4.267,4.267,0,0,1,1.673.137Z" transform="translate(-487.244 -164.549)"/><path class="d" d="M521.66,260.607l.719,22.839,5.479-1.35-5.576-21.546Z" transform="translate(-488.777 -176.098)"/><path class="c" d="M670.816,316.11a19.776,19.776,0,0,0-2.077-25.975l-8.461-8.235-12.761,17.052c.606.339,6.878,6.271,6.878,6.271l-18.588,27.235a14.814,14.814,0,0,0-1.374,14.232l1.22,3.7a9.108,9.108,0,0,0,12.963,5.132l5.584-3.031a1.236,1.236,0,0,0,.4-1.826h0a1.245,1.245,0,0,0-1.075-.485l-7.847.6A3.572,3.572,0,0,1,642,348.356h0Z" transform="translate(-510.177 -180.194)"/><path class="d" d="M668.813,307.6a16.908,16.908,0,0,0-4.792.178,17.148,17.148,0,0,0-4.421,1.891,3.571,3.571,0,0,1,1.1-.946,9.924,9.924,0,0,1,6.724-1.511A3.339,3.339,0,0,1,668.813,307.6Z" transform="translate(-515.237 -185.032)"/><path class="d" d="M662.794,305.52a8.889,8.889,0,0,1-1.616,2.069,8.517,8.517,0,0,1-1.948,1.786,8.252,8.252,0,0,1,1.616-2.069,8.163,8.163,0,0,1,1.948-1.786Z" transform="translate(-515.166 -184.725)"/><path class="d" d="M652.86,301.079,669.3,287.744l-2.061-2Z" transform="translate(-513.945 -180.931)"/><path class="f" d="M618.978,249.89h0l25.8,24.415L623.77,296.764l-13.044-12.931.7,30.145,2.788,29.66-66.133.412,2.7-65.325-20.56,8.825-8.534-33.24,28.286-9.7A110.121,110.121,0,0,1,570.665,241a45.048,45.048,0,0,0,24.9.21h0S607.187,240.329,618.978,249.89Z" transform="translate(-488.782 -172.348)"/><path class="b" d="M558.611,269.16a3.637,3.637,0,0,1,0,.808c0,.606-.073,1.325-.121,2.166-.129,1.94-.3,4.413-.485,7.144s-.4,5.318-.6,7.136c-.1.913-.186,1.616-.259,2.158a2.424,2.424,0,0,1-.154.808,3.607,3.607,0,0,1,0-.808c0-.606.073-1.325.121-2.166.129-1.94.3-4.4.477-7.144s.412-5.31.606-7.136c.1-.913.186-1.616.259-2.158a2.514,2.514,0,0,1,.153-.808Z" transform="translate(-495.551 -177.75)"/><path class="b" d="M629.578,285.042a1.833,1.833,0,0,1-.307-.315l-.873-1.051c-.752-.921-1.835-2.255-3.1-3.968a51.771,51.771,0,0,1-4.041-6.288,30.079,30.079,0,0,1-3.111-8.615,19.953,19.953,0,0,1,.331-9.14,16.067,16.067,0,0,1,3.685-6.465,13.1,13.1,0,0,1,4.089-2.95,10.3,10.3,0,0,1,1.293-.477,1.842,1.842,0,0,1,.461-.113c0,.048-.622.218-1.681.735a13.569,13.569,0,0,0-3.944,3.006,16.042,16.042,0,0,0-3.532,6.4,19.719,19.719,0,0,0-.283,8.954,29.96,29.96,0,0,0,3.039,8.5,55.288,55.288,0,0,0,3.928,6.3c1.237,1.721,2.279,3.087,2.99,4.041l.808,1.1A2.289,2.289,0,0,1,629.578,285.042Z" transform="translate(-507.214 -173.242)"/><g class="g" transform="translate(59.327 146.754)"><path class="h" d="M555.366,338.085a7.273,7.273,0,0,1,8.171,2.271c1.156,1.568,1.616,3.532,2.319,5.334s1.94,3.621,3.823,4.114c2.424.63,4.776-1.164,7.274-1.552,3.305-.525,6.619,1.616,8.276,4.518a17.248,17.248,0,0,1,1.843,9.658l-32.691.2Z" transform="translate(-554.38 -337.64)"/></g><g class="g" transform="translate(98.844 104.397)"><path class="h" d="M628.155,333.922a8.348,8.348,0,0,1-9.31.768,8.995,8.995,0,0,1-4.687-8.534,7.88,7.88,0,0,1-9.221-12.123c1.536-2,4.041-3.233,5.2-5.471,2.2-4.081-.889-8.995-.808-13.634.113-5.722,6.061-10.587,11.694-9.561l5.342,6.942.671,28.714Z" transform="translate(-603.277 -285.23)"/></g><g class="g" transform="translate(62.357 68.641)"><path class="h" d="M592.437,243.745a10.579,10.579,0,0,1-3.233,18.717c-2.061.606-4.372.622-6.11,1.875-3.233,2.336-2.618,7.225-3.766,11.056a11.177,11.177,0,0,1-21.2.655l1.948-32.262s13.892-2.9,17.57-2.8a27.066,27.066,0,0,0,12.212,1.859Z" transform="translate(-558.13 -240.987)"/></g><g class="g" transform="translate(124.423 79.158)"><path class="h" d="M642.462,254c-2.982,1.1-6.57,4.186-7.273,7.274a9.876,9.876,0,0,0,2.3,8.89c2.134,2.311,5.609,4.041,5.593,7.217,0,1.891-1.4,3.507-1.7,5.366-.558,3.386,2.812,6.465,6.231,6.708a13.027,13.027,0,0,0,8.963-2.109l9.924-10.6Z" transform="translate(-634.928 -254)"/></g><g class="g" transform="translate(32.908 76.281)"><path class="h" d="M538.266,250.44a30.708,30.708,0,0,1,1.988,11.137,15.493,15.493,0,0,1-3.685,10.005,10.765,10.765,0,0,1-9.779,3.556l-5.1-19.033Z" transform="translate(-521.69 -250.44)"/></g><g class="g" transform="translate(61.925 118.122)"><path class="h" d="M562.529,316.741a13.376,13.376,0,0,0,1.536,5.132,4.682,4.682,0,0,0,4.485,2.384c2.1-.356,3.807-2.61,5.884-2.15,1.341.291,2.182,1.616,3.4,2.255a4.76,4.76,0,0,0,4.728-.517,12.517,12.517,0,0,0,3.306-3.7,11.176,11.176,0,0,0,1.98-4.291,4.235,4.235,0,0,0-1.552-4.227c-1.778-1.172-4.485-.428-5.972-1.956-.889-.921-.978-2.328-1.422-3.532a6,6,0,0,0-10.6-1.277c-1.059,1.568-1.439,3.71-3.055,4.7-1.148.7-2.594.6-3.944.655s-2.869.444-3.475,1.616a3.022,3.022,0,0,0,1.131,3.548,8.818,8.818,0,0,0,3.766,1.342" transform="translate(-557.595 -302.212)"/></g></g><g transform="translate(226.956 155.819)"><path class="i" d="M350.553,180.292a8.082,8.082,0,0,1-1.051-6.983,11.21,11.21,0,0,1,4.291-5.762,14.264,14.264,0,0,1,13.513-1.616c1.9.808,3.621,1.972,5.6,2.53a18.819,18.819,0,0,0,6.7.226,17.391,17.391,0,0,1,6.692.331,6.065,6.065,0,0,1,4.372,4.647c.291,2.425-1.35,4.889-.444,7.12s3.6,2.772,5.6,4.041a8.365,8.365,0,0,1,3.6,4.849,3.912,3.912,0,0,1,0,2.489,1.932,1.932,0,0,1-1.988,1.237,6.045,6.045,0,0,1-6.32,10.175c.218,2.109-2.19,3.847-4.267,3.4a5.255,5.255,0,0,1-3.758-4.615" transform="translate(-280.944 -157.565)"/><path class="b" d="M383.064,202.351s.048.291.194.808a6.271,6.271,0,0,0,1.148,2.158,4.849,4.849,0,0,0,1.35,1.123,3.548,3.548,0,0,0,2.02.453,3.75,3.75,0,0,0,2.166-.962,2.853,2.853,0,0,0,1.01-2.376v-.234l.218.1a5.892,5.892,0,0,0,3.588.323,6.069,6.069,0,0,0,3.41-2.037,5.657,5.657,0,0,0,1.212-4.106,6.013,6.013,0,0,0-2.069-4.089l-.542-.453.7.121a1.8,1.8,0,0,0,1.883-1.43,4.735,4.735,0,0,0-.331-2.788,8.2,8.2,0,0,0-3.968-4.421c-.929-.493-1.932-.9-2.893-1.471a4.712,4.712,0,0,1-2.206-2.554,6.683,6.683,0,0,1,.105-3.435,11.17,11.17,0,0,0,.428-3.322,5.479,5.479,0,0,0-3.168-4.146,10.975,10.975,0,0,0-5.253-.921c-1.778.048-3.54.291-5.285.331a12.122,12.122,0,0,1-5.059-.808c-1.552-.638-2.926-1.5-4.348-2.1a13.94,13.94,0,0,0-4.364-1.026,14.28,14.28,0,0,0-7.8,1.7,12.252,12.252,0,0,0-4.752,4.574,8.785,8.785,0,0,0-1.2,4.849,7.928,7.928,0,0,0,.76,3.079c.323.655.566.962.55.978a5.175,5.175,0,0,1-.622-.946,7.532,7.532,0,0,1-.849-3.1,8.987,8.987,0,0,1,1.156-4.954,12.4,12.4,0,0,1,4.849-4.712,14.547,14.547,0,0,1,7.96-1.786,14.126,14.126,0,0,1,4.477,1.034c1.471.606,2.845,1.471,4.356,2.085a11.816,11.816,0,0,0,4.906.768c1.713,0,3.467-.283,5.285-.339a11.315,11.315,0,0,1,5.447.962,6.991,6.991,0,0,1,2.255,1.786,5.043,5.043,0,0,1,1.148,2.691,11.055,11.055,0,0,1-.444,3.451,6.465,6.465,0,0,0-.113,3.233,4.251,4.251,0,0,0,2.029,2.319c.913.55,1.915.962,2.869,1.471a8.607,8.607,0,0,1,4.146,4.639,5.172,5.172,0,0,1,.331,3.023,2.174,2.174,0,0,1-2.327,1.705l.081-.356a6.385,6.385,0,0,1,2.19,4.356,6.046,6.046,0,0,1-1.309,4.34,6.417,6.417,0,0,1-3.6,2.117,6.158,6.158,0,0,1-3.766-.372l.186-.137a3.087,3.087,0,0,1-1.115,2.586,4.04,4.04,0,0,1-2.311.986,3.726,3.726,0,0,1-2.125-.493,4.921,4.921,0,0,1-1.374-1.2,5.8,5.8,0,0,1-1.1-2.231,3.569,3.569,0,0,1-.113-.84Z" transform="translate(-280.933 -157.529)"/><path class="i" d="M350.614,180.87A11.654,11.654,0,0,0,347.5,189c.04,1.964.574,3.992-.073,5.851a13.214,13.214,0,0,1-2.424,3.548,5.491,5.491,0,0,0-1.511,3.92c.178,1.43,1.8,2.683,3.071,2.02a4.849,4.849,0,0,0,.17,5.285,8.009,8.009,0,0,0,4.55,3.087,23.687,23.687,0,0,0,5.552.687" transform="translate(-279.857 -160.625)"/><path class="b" d="M356.776,213.389h-1.269a20.641,20.641,0,0,1-3.507-.364,9.2,9.2,0,0,1-4.76-2.425,5.77,5.77,0,0,1-1.535-2.893,4.679,4.679,0,0,1,.638-3.507l.259.3a1.891,1.891,0,0,1-1.422.121,2.723,2.723,0,0,1-1.212-.808,2.8,2.8,0,0,1-.695-1.293,3.507,3.507,0,0,1,0-1.479,9.527,9.527,0,0,1,2.36-3.879,10.242,10.242,0,0,0,1.2-1.705,5.117,5.117,0,0,0,.582-1.875,19.628,19.628,0,0,0-.129-3.734,11.48,11.48,0,0,1,2.885-8.72c.21-.21.323-.323.339-.307s-.412.477-1.026,1.406a12.057,12.057,0,0,0-1.73,4.364,11.709,11.709,0,0,0-.137,3.233,19.96,19.96,0,0,1,.17,3.806,5.528,5.528,0,0,1-.614,2.012,11.179,11.179,0,0,1-1.236,1.786,9.309,9.309,0,0,0-2.271,3.7,3.071,3.071,0,0,0,0,1.3,2.319,2.319,0,0,0,.59,1.1,1.851,1.851,0,0,0,2.142.574l.735-.4-.477.7a4.356,4.356,0,0,0-.59,3.233,5.4,5.4,0,0,0,1.414,2.715,9.052,9.052,0,0,0,4.558,2.425,24.844,24.844,0,0,0,3.459.485,9.547,9.547,0,0,1,1.277.129Z" transform="translate(-279.804 -160.615)"/><path class="h" d="M350.55,181.963l.42,2.635s.436,17.941,1.681,27.324,10.716,8.2,10.716,8.2,1.616,15.533,2.109,18.152l22.79-.905L385.722,184.6l-10.668-7.847-24.5,5.213" transform="translate(-281.215 -159.834)"/><path class="b" d="M350.55,181.93s.145-.048.428-.113l1.253-.291,4.849-1.067,17.941-3.879h.065l.057.04,10.684,7.823.065.048v.081c.7,14.256,1.544,31.616,2.424,50.333l.121,2.425v.2h-.21l-22.766.913h-.186v-.17c-.881-6.409-1.471-12.486-2.093-18.176l.21.162A10.959,10.959,0,0,1,356,218.379a7.84,7.84,0,0,1-2.368-2.788,10.59,10.59,0,0,1-1.067-3.338c-.622-4.51-.808-8.623-1.067-12.252-.4-7.274-.525-12.608-.574-15.436h0c-.129-.889-.226-1.544-.291-2s-.081-.647-.081-.647.048.2.129.638.186,1.107.339,1.988h0c.113,2.837.283,8.171.735,15.428.242,3.621.485,7.75,1.115,12.211a10.507,10.507,0,0,0,1.051,3.233,7.532,7.532,0,0,0,2.287,2.667,10.619,10.619,0,0,0,7.136,1.794h.186v.178c.638,5.657,1.245,11.783,2.134,18.143l-.21-.17,22.79-.913-.2.218-.121-2.425c-.889-18.717-1.705-36.077-2.384-50.333l.073.137-10.66-7.872h.121L357.1,180.6l-4.849.994-1.261.251Z" transform="translate(-281.215 -159.802)"/><path class="b" d="M358.047,200.22a1.375,1.375,0,1,0-1.94.137A1.375,1.375,0,0,0,358.047,200.22Z" transform="translate(-282.19 -163.9)"/><path class="b" d="M354.255,198.469c.17.145,1.01-.679,2.3-.808s2.311.4,2.424.21-.121-.356-.574-.614a3.233,3.233,0,0,0-3.774.5C354.279,198.089,354.182,198.4,354.255,198.469Z" transform="translate(-281.921 -163.693)"/><path class="b" d="M375.8,198.15a1.366,1.366,0,1,0-.941.474,1.374,1.374,0,0,0,.941-.474Z" transform="translate(-285.596 -163.503)"/><path class="b" d="M371.994,196.337c.17.145,1-.679,2.3-.808s2.311.4,2.424.21-.121-.356-.566-.614a3.136,3.136,0,0,0-1.972-.372,3.176,3.176,0,0,0-1.8.865C371.994,195.957,371.921,196.272,371.994,196.337Z" transform="translate(-285.324 -163.282)"/><path class="b" d="M364.877,209.42a6.264,6.264,0,0,0-2.15-.194c-.339,0-.614-.04-.663-.218a1.793,1.793,0,0,1,.129-1l.7-2.748c.962-3.912,1.616-7.12,1.382-7.168s-1.14,3.079-2.1,6.991c-.226.954-.436,1.867-.647,2.764a2.158,2.158,0,0,0,0,1.43.873.873,0,0,0,.647.469,2.368,2.368,0,0,0,.582,0A6.416,6.416,0,0,0,364.877,209.42Z" transform="translate(-283.298 -163.928)"/><path class="h" d="M393.91,194.74c.145-.089,6.223-2.683,6.789,3.758s-6.021,5.657-6.053,5.5" transform="translate(-289.533 -163.172)"/><path class="b" d="M394.645,203.962a4.844,4.844,0,0,0,.744,0,7.273,7.273,0,0,0,2-.291,4.3,4.3,0,0,0,2.368-1.616,5.366,5.366,0,0,0,.743-3.459,5.657,5.657,0,0,0-1.2-3.322,3.774,3.774,0,0,0-2.651-1.026,11.355,11.355,0,0,0-2.732.436,1.794,1.794,0,0,1,.679-.339,6.653,6.653,0,0,1,2.053-.4,3.984,3.984,0,0,1,2.926,1.059,5.859,5.859,0,0,1,1.35,3.556,5.536,5.536,0,0,1-.849,3.71,4.445,4.445,0,0,1-2.6,1.7C395.72,204.4,394.6,204.059,394.645,203.962Z" transform="translate(-289.533 -163.132)"/><path class="b" d="M396.629,201.86a2.113,2.113,0,0,0,.315.145,1.156,1.156,0,0,0,.808-.057,2.792,2.792,0,0,0,1.067-2.61,3.743,3.743,0,0,0-.453-1.576,1.325,1.325,0,0,0-.921-.808.574.574,0,0,0-.638.372c-.065.186,0,.307-.048.323s-.145-.1-.121-.364a.752.752,0,0,1,.218-.428.808.808,0,0,1,.606-.218,1.616,1.616,0,0,1,1.261.9,3.839,3.839,0,0,1,.55,1.762,2.915,2.915,0,0,1-1.4,2.926,1.22,1.22,0,0,1-1.043-.081C396.653,202.014,396.6,201.877,396.629,201.86Z" transform="translate(-290.053 -163.649)"/><path class="b" d="M376.786,192.079c-.073.105-.453-.057-1.075-.186a7.726,7.726,0,0,0-2.465-.081,8.606,8.606,0,0,0-2.425.638c-.59.259-.937.477-1.026.388s.145-.477.727-.9a5.488,5.488,0,0,1,2.667-.954,5.286,5.286,0,0,1,2.748.356C376.56,191.635,376.851,192,376.786,192.079Z" transform="translate(-284.903 -162.556)"/><path class="b" d="M359.389,194.327c0,.234-1.212.541-2.764.679s-2.82.073-2.845-.154,1.22-.541,2.772-.679S359.373,194.1,359.389,194.327Z" transform="translate(-281.835 -163.163)"/><path class="b" d="M378.114,201.664c0,.121-.162.194-.331.178s-.291-.121-.283-.234.162-.194.331-.178S378.122,201.551,378.114,201.664Z" transform="translate(-286.385 -164.568)"/><path class="b" d="M375.856,204.8c0,.121-.154.2-.323.186s-.291-.129-.283-.242.154-.194.323-.178S375.856,204.691,375.856,204.8Z" transform="translate(-285.953 -165.17)"/><path class="b" d="M372.2,202.292c0,.113-.154.194-.323.178s-.291-.121-.283-.242.154-.194.323-.178S372.212,202.179,372.2,202.292Z" transform="translate(-285.251 -164.687)"/><path class="b" d="M355.136,204.342c0,.113-.162.194-.323.178s-.3-.121-.283-.242.154-.194.323-.178S355.144,204.229,355.136,204.342Z" transform="translate(-281.978 -165.08)"/><path class="b" d="M359.676,203.794a.267.267,0,0,1-.323.178c-.17,0-.3-.121-.283-.234s.154-.194.323-.178S359.684,203.681,359.676,203.794Z" transform="translate(-282.849 -164.977)"/><path class="b" d="M357.326,207.112c0,.113-.154.194-.323.178s-.291-.129-.283-.242.154-.194.323-.178S357.342,206.975,357.326,207.112Z" transform="translate(-282.399 -165.612)"/><path class="i" d="M388.281,190.226a1.568,1.568,0,0,1,.105.7c-.194,1.875-.719,3.233-1.843,3.4-3.055.412-3.742-5.657-3.9-8.13a1.511,1.511,0,0,0-.978-1.317c-4.041-1.616-4.582-6.061-5.795-6.926s-6.975.525-11.775,3.233a14.838,14.838,0,0,1-13.1.808,1.471,1.471,0,0,1-.808-.808l-.178-.436a1.519,1.519,0,0,1,1.2-2.077l23.865-3.233a1.511,1.511,0,0,1,1.212.364l9.383,8.171a1.5,1.5,0,0,1,.412.59Z" transform="translate(-281.091 -159.579)"/><path class="i" d="M381.537,167.8a5.821,5.821,0,0,1-2.627-7.2,7.589,7.589,0,0,1,6.57-4.526,5.916,5.916,0,0,1,4.081,1.107,5.657,5.657,0,0,1,1.883,4.639,7.71,7.71,0,0,1-4.591,6.643" transform="translate(-286.583 -155.862)"/><path class="b" d="M386.816,168.419a9.613,9.613,0,0,0,1.156-.719,8,8,0,0,0,2.384-2.748,6.982,6.982,0,0,0,.606-5.221,4.752,4.752,0,0,0-1.721-2.546,5.487,5.487,0,0,0-3.184-.954,7.847,7.847,0,0,0-5.875,2.546,5.972,5.972,0,0,0-1.35,2.5,5.9,5.9,0,0,0-.081,2.481,5.827,5.827,0,0,0,1.665,3.184,10.642,10.642,0,0,0,1.083.808.721.721,0,0,1-.331-.129,3.8,3.8,0,0,1-.857-.566,5.746,5.746,0,0,1-1.851-3.233,6.045,6.045,0,0,1,1.43-5.294,8.146,8.146,0,0,1,6.174-2.707,5.924,5.924,0,0,1,3.419,1.034,5.156,5.156,0,0,1,1.859,2.772,7.274,7.274,0,0,1-.719,5.479,7.6,7.6,0,0,1-2.562,2.732,5.482,5.482,0,0,1-.905.485A1.039,1.039,0,0,1,386.816,168.419Z" transform="translate(-286.544 -155.819)"/><path class="b" d="M373.709,209.58c.105,0,.194.364.113.937a4.315,4.315,0,0,1-.921,2.037,4.372,4.372,0,0,1-1.794,1.342c-.541.2-.905.186-.937.081-.073-.234,1.131-.744,2.077-1.948S373.467,209.556,373.709,209.58Z" transform="translate(-284.978 -166.132)"/><path class="b" d="M375.7,210.384c-.081.089-.541-.242-1.188-.331s-1.18.081-1.236,0,.493-.517,1.293-.388S375.8,210.319,375.7,210.384Z" transform="translate(-285.574 -166.144)"/><path class="b" d="M350.55,182.216a4.036,4.036,0,0,1,.477.226,10.886,10.886,0,0,0,1.414.549,11.316,11.316,0,0,0,2.336.509,12.875,12.875,0,0,0,3.16,0,15.154,15.154,0,0,0,3.726-.873l.978-.364.986-.469c.671-.291,1.35-.671,2.061-.994a38.8,38.8,0,0,1,4.623-1.818,22.79,22.79,0,0,1,2.53-.687,7.345,7.345,0,0,1,2.74-.17,1.067,1.067,0,0,1,.388.137.856.856,0,0,1,.339.234,2.947,2.947,0,0,1,.469.614c.25.428.445.857.647,1.277a15.013,15.013,0,0,0,1.35,2.368,7.549,7.549,0,0,0,1.81,1.81,7.767,7.767,0,0,0,2.231,1l.137.04v.145a23.216,23.216,0,0,0,.857,6.11,6.029,6.029,0,0,0,1.172,2.255,1.915,1.915,0,0,0,1.9.622,1.947,1.947,0,0,0,1.123-1.22,6.463,6.463,0,0,0,.372-1.277c.129-.719.162-1.107.186-1.107s0,.1,0,.291a3.633,3.633,0,0,1-.073.808,6.058,6.058,0,0,1-.323,1.317,2.15,2.15,0,0,1-1.228,1.382,2.19,2.19,0,0,1-2.166-.655,6.352,6.352,0,0,1-1.277-2.352,23.178,23.178,0,0,1-.937-6.207l.145.186a8.365,8.365,0,0,1-2.36-1.043,8.245,8.245,0,0,1-1.923-1.9,15.931,15.931,0,0,1-1.382-2.425c-.21-.42-.4-.808-.638-1.245a1.35,1.35,0,0,0-.921-.808,6.781,6.781,0,0,0-2.57.17,24.236,24.236,0,0,0-2.481.663,41,41,0,0,0-4.55,1.778c-.719.323-1.382.679-2.069.986l-1,.461-1.01.364a15.574,15.574,0,0,1-3.815.808,13.094,13.094,0,0,1-3.233-.065,11.7,11.7,0,0,1-2.36-.582,8.77,8.77,0,0,1-1.39-.638A1.746,1.746,0,0,1,350.55,182.216Z" transform="translate(-281.215 -160.087)"/><path class="b" d="M390.515,168.579a3.289,3.289,0,0,1-1.051,1.18,6.918,6.918,0,0,1-7.274.865,3.281,3.281,0,0,1-1.3-.9c.04-.057.533.283,1.414.622a7.411,7.411,0,0,0,7-.808C390.063,168.983,390.467,168.531,390.515,168.579Z" transform="translate(-287.035 -158.266)"/><path class="h" d="M312.554,192.179c-.946-.711-4.55-.808-8.4.865s-.849-4.194.21-6.368,3.992-9.052,3.58-9.9c-.6-1.253-2.053-.808-3.055,1.358s-4.267,8.251-5.374,7.621a2.134,2.134,0,0,0-2.9.808,2.732,2.732,0,0,0-1.77-1.325,3.367,3.367,0,0,0-2.344,1s-.291-.493-1.616-.76c-1.867-.38-2.78,1.835-2.845,1.818-1.172,3.718-3.5,14.959-3.5,14.959h0l-17.489,45.937a17.683,17.683,0,0,0,1.705,18.879c5.479,7.274,18.96,2.425,25.288,1.245l12.381-2.966L300.189,243.9l-9.439,2.045,9.981-43.439,2.069-4.138c.493-.428,1.018-.865,1.616-1.35a10.021,10.021,0,0,1,2.99-1.616,15.355,15.355,0,0,1,4.138-.962,1.317,1.317,0,0,0,1.01-2.263Z" transform="translate(-264.822 -159.706)"/><path class="b" d="M312.49,192.158a1.035,1.035,0,0,1,.461.711,1.35,1.35,0,0,1-.259,1.018,1.5,1.5,0,0,1-1.309.6,15.864,15.864,0,0,0-3.952.954,10.307,10.307,0,0,0-2.328,1.14c-.768.5-1.5,1.2-2.311,1.851h0c-.622,1.261-1.317,2.659-2.061,4.146h0c-2.425,10.506-5.8,25.457-9.908,43.455l-.21-.21,9.439-2.061h.17l.049.162c1.956,6.74,4.041,13.957,6.239,21.465l.065.2-.21.048-9.868,2.368-2.53.606c-.857.162-1.7.356-2.554.549-1.713.4-3.435.808-5.188,1.18a31.86,31.86,0,0,1-10.854.736,11.185,11.185,0,0,1-5.18-2.069,8.774,8.774,0,0,1-1.948-2.069l-.808-1.172a12.157,12.157,0,0,1-.687-1.237,17.052,17.052,0,0,1-1.988-8.235,17.277,17.277,0,0,1,.533-4.186,16.769,16.769,0,0,1,1.455-3.928h0l17.521-45.928.17.251-.178-.218q.808-3.976,1.681-7.718c.582-2.5,1.123-4.922,1.835-7.274l.194-.113c-.073-.057-.194.081-.145,0h0l.049-.073.1-.154c.057-.105.129-.2.194-.3a4.583,4.583,0,0,1,.469-.566,2.505,2.505,0,0,1,1.261-.719,2.74,2.74,0,0,1,1.406.113,2.368,2.368,0,0,1,1.228.719h-.251a3.427,3.427,0,0,1,2.352-1.051,2.748,2.748,0,0,1,2.012,1.422h-.275a2.926,2.926,0,0,1,.986-.954,1.956,1.956,0,0,1,1.342-.226,2.424,2.424,0,0,1,.638.218l.154.073h.089a.444.444,0,0,0,.226-.065,3.362,3.362,0,0,0,.881-.808,28.011,28.011,0,0,0,2.61-4.041c.38-.687.735-1.374,1.075-2.053a7.96,7.96,0,0,1,1.148-1.98,2.425,2.425,0,0,1,.938-.687,1.091,1.091,0,0,1,1.14.2,1.616,1.616,0,0,1,.347.469,1.977,1.977,0,0,1,.065.315v.283a8.52,8.52,0,0,1-.242,1.043,67.241,67.241,0,0,1-2.845,7.217,36.036,36.036,0,0,0-2.538,5.964,2.61,2.61,0,0,0-.057,1.358.542.542,0,0,0,.428.38,1.616,1.616,0,0,0,.622-.04,11.311,11.311,0,0,0,1.172-.445c.372-.154.743-.283,1.107-.4a14.715,14.715,0,0,1,3.75-.719,7.661,7.661,0,0,1,2.344.194,1.737,1.737,0,0,1,.719.331l-.178-.089a2.714,2.714,0,0,0-.558-.2,7.855,7.855,0,0,0-2.319-.137,14.968,14.968,0,0,0-3.718.744c-.356.121-.727.251-1.1.412a10.546,10.546,0,0,1-1.18.453,1.794,1.794,0,0,1-.7.049.719.719,0,0,1-.55-.469,2.724,2.724,0,0,1,.04-1.463,37.007,37.007,0,0,1,2.513-6.013,66.72,66.72,0,0,0,2.8-7.2,8.54,8.54,0,0,0,.226-1v-.251a.882.882,0,0,0,0-.2,1.4,1.4,0,0,0-.291-.388.808.808,0,0,0-.881-.145,2.013,2.013,0,0,0-.808.614,7.814,7.814,0,0,0-1.107,1.915c-.331.7-.687,1.382-1.067,2.077a27.722,27.722,0,0,1-2.635,4.106,3.54,3.54,0,0,1-.978.873.7.7,0,0,1-.38.089.549.549,0,0,1-.21-.057l-.137-.065a1.834,1.834,0,0,0-.558-.194,2.028,2.028,0,0,0-2.012,1.034l-.137.226-.137-.226a2.424,2.424,0,0,0-1.754-1.245,3.12,3.12,0,0,0-2.1.962l-.129.089-.121-.154a2.23,2.23,0,0,0-1.051-.566,2.425,2.425,0,0,0-1.253-.089,2.142,2.142,0,0,0-1.083.638,3.884,3.884,0,0,0-.436.517c-.065.089-.121.186-.186.283l-.089.154-.048.081v.04s-.105.129-.2.105l.2-.113c-.7,2.3-1.237,4.744-1.81,7.233s-1.115,5.067-1.665,7.71l-.186-.226.178.251C279.42,216.2,273.5,231.75,267.208,248.318h0a17.384,17.384,0,0,0,0,15.937,11.09,11.09,0,0,0,.679,1.212l.808,1.156a8.3,8.3,0,0,0,1.851,1.98,10.886,10.886,0,0,0,4.995,1.988,31.761,31.761,0,0,0,10.708-.727c1.746-.356,3.459-.808,5.172-1.172.857-.2,1.721-.4,2.57-.55l2.53-.606,9.86-2.36-.145.251c-2.174-7.516-4.267-14.733-6.215-21.473l.218.129-9.448,2.045-.267.057.057-.267,10.062-43.431h0l2.077-4.13h0c.808-.655,1.552-1.333,2.344-1.851a10.345,10.345,0,0,1,2.368-1.131,15.258,15.258,0,0,1,3.992-.913,1.446,1.446,0,0,0,1.253-.55,1.309,1.309,0,0,0,.267-.97A1.212,1.212,0,0,0,312.49,192.158Z" transform="translate(-264.758 -159.685)"/><path class="h" d="M298.159,190.29q-.606,2.206-1.01,4.445a4.731,4.731,0,0,0-.113,1.5,1.77,1.77,0,0,0,.7,1.285,1.859,1.859,0,0,0,2.279-.436,5.544,5.544,0,0,0,1.075-2.263c.428-1.471.865-2.95,1.3-4.421" transform="translate(-270.946 -162.432)"/><path class="b" d="M302.341,190.4a15.361,15.361,0,0,1-.574,2.424c-.2.752-.436,1.616-.735,2.643a4.98,4.98,0,0,1-.735,1.5,2.424,2.424,0,0,1-1.616.938,1.616,1.616,0,0,1-1.657-.849,2.82,2.82,0,0,1-.242-1.7,11.721,11.721,0,0,1,.291-1.447c.113-.436.21-.849.307-1.237a14.919,14.919,0,0,1,.711-2.425,15.671,15.671,0,0,1-.42,2.5c-.081.388-.162.808-.251,1.245a12.053,12.053,0,0,0-.259,1.422,2.425,2.425,0,0,0,.226,1.447,1.2,1.2,0,0,0,1.245.63,2.036,2.036,0,0,0,1.325-.768,4.606,4.606,0,0,0,.687-1.382l.808-2.6A15.023,15.023,0,0,1,302.341,190.4Z" transform="translate(-270.893 -162.424)"/><path class="h" d="M303.73,190c-.4,1.471-.735,2.95-1.01,4.453a4.906,4.906,0,0,0-.113,1.5,1.826,1.826,0,0,0,.7,1.285,1.859,1.859,0,0,0,2.279-.436,5.439,5.439,0,0,0,1.075-2.263l1.3-4.421" transform="translate(-272.015 -162.376)"/><path class="b" d="M307.929,190.135a14.662,14.662,0,0,1-.566,2.465c-.21.752-.444,1.616-.744,2.643a4.8,4.8,0,0,1-.735,1.5,2.425,2.425,0,0,1-1.616.937,1.705,1.705,0,0,1-.978-.162,1.681,1.681,0,0,1-.679-.687,2.74,2.74,0,0,1-.251-1.689,10.251,10.251,0,0,1,.3-1.455c.105-.436.21-.849.307-1.236a14.55,14.55,0,0,1,.7-2.425,14.976,14.976,0,0,1-.412,2.5c-.081.388-.17.808-.259,1.245a10.617,10.617,0,0,0-.251,1.422,2.425,2.425,0,0,0,.218,1.447,1.212,1.212,0,0,0,1.253.63,2,2,0,0,0,1.317-.768,4.607,4.607,0,0,0,.687-1.382c.307-.946.582-1.818.808-2.6A15.023,15.023,0,0,1,307.929,190.135Z" transform="translate(-271.964 -162.382)"/><path class="h" d="M293.4,190.54q-.517,2-.873,4.041a4.851,4.851,0,0,0-.1,1.366,1.616,1.616,0,0,0,.606,1.164,1.527,1.527,0,0,0,1.956-.4,4.947,4.947,0,0,0,.921-2.053c.38-1.342.752-2.675,1.123-4.041" transform="translate(-270.063 -162.48)"/><path class="b" d="M296.984,190.645a11.753,11.753,0,0,1-.461,2.222c-.178.679-.38,1.479-.63,2.425a4.7,4.7,0,0,1-.622,1.374,2.077,2.077,0,0,1-1.422.9,1.455,1.455,0,0,1-.9-.178,1.552,1.552,0,0,1-.574-.663,2.78,2.78,0,0,1-.186-1.536c.137-.937.38-1.729.533-2.424a11.769,11.769,0,0,1,.622-2.182,12.878,12.878,0,0,1-.331,2.247c-.113.679-.331,1.5-.436,2.425a2.344,2.344,0,0,0,.17,1.309,1,1,0,0,0,1.051.6,1.673,1.673,0,0,0,1.14-.719,4.267,4.267,0,0,0,.582-1.245c.259-.849.493-1.616.711-2.352A11.875,11.875,0,0,1,296.984,190.645Z" transform="translate(-270.013 -162.487)"/><path class="h" d="M297.78,204.82a12.365,12.365,0,0,1,10.1-4.275" transform="translate(-271.092 -164.395)"/><path class="b" d="M307.882,200.511a14.547,14.547,0,0,0-10.1,4.275,4.533,4.533,0,0,1,1.067-1.3,11.735,11.735,0,0,1,3.4-2.214,11.4,11.4,0,0,1,3.96-.9,4.267,4.267,0,0,1,1.673.137Z" transform="translate(-271.092 -164.36)"/><path class="h" d="M454.914,316.11a19.768,19.768,0,0,0-2.069-25.975l-8.462-8.235-12.777,17.052c.606.339,6.878,6.271,6.878,6.271L419.9,332.459a14.814,14.814,0,0,0-1.374,14.232l1.212,3.7a9.116,9.116,0,0,0,13.012,5.156l5.585-3.031a1.228,1.228,0,0,0,.388-1.826h0a1.229,1.229,0,0,0-1.067-.485l-7.847.6a3.572,3.572,0,0,1-3.669-2.424h0Z" transform="translate(-294.021 -180.005)"/><path class="b" d="M454.852,316.049s-.162.21-.493.6-.857.97-1.5,1.713l-5.77,6.53-20.907,23.518v-.17a3.427,3.427,0,0,0,3.4,2.328l4.849-.372,2.5-.194.63-.048a1.414,1.414,0,0,1,.865,2.594c-.4.234-.808.42-1.156.638l-2.311,1.261-2.352,1.269a9.472,9.472,0,0,1-2.6.905,8.768,8.768,0,0,1-2.8.1,10.357,10.357,0,0,1-1.4-.259,11.5,11.5,0,0,1-1.333-.493,9.278,9.278,0,0,1-4.243-3.815,13.457,13.457,0,0,1-1.107-2.7c-.3-.921-.606-1.843-.913-2.764h0a15.152,15.152,0,0,1-1.067-8.146,14.861,14.861,0,0,1,1.212-4.041,23.432,23.432,0,0,1,2.239-3.661l17.642-25.781v.259l-3.435-3.233c-1.139-1.034-2.279-2.142-3.4-3.031l-.17-.137.113-.145c4.607-6.134,8.89-11.856,12.785-17.036l.113-.154.129.137,6.288,6.134c.986.986,1.988,1.883,2.869,2.877a14.447,14.447,0,0,1,1.253,1.5,14.028,14.028,0,0,1,1.067,1.56,19.994,19.994,0,0,1,2.869,12.2,19.606,19.606,0,0,1-2.376,7.686,15.009,15.009,0,0,1-1.123,1.794c-.275.388-.428.582-.428.582s.129-.218.388-.614a15.867,15.867,0,0,0,1.075-1.81,19.671,19.671,0,0,0-.63-19.7,14.363,14.363,0,0,0-1.059-1.527,14.116,14.116,0,0,0-1.245-1.471c-.865-.97-1.883-1.875-2.869-2.853-2-1.932-4.105-3.976-6.3-6.118h.251L431.649,299.02l-.057-.283c.663.485,1.18.994,1.77,1.5l1.705,1.568,3.443,3.233.121.121-.1.137-17.562,25.756a23.571,23.571,0,0,0-2.206,3.6,13.959,13.959,0,0,0-1.172,3.96,14.692,14.692,0,0,0,1.018,7.952h0c.307.921.606,1.851.913,2.764a12.776,12.776,0,0,0,1.067,2.627,8.841,8.841,0,0,0,4.041,3.645,8.083,8.083,0,0,0,2.619.727,8.736,8.736,0,0,0,2.675-.065,9.284,9.284,0,0,0,2.489-.865l2.352-1.269,2.319-1.253,1.123-.614a1.043,1.043,0,0,0-.63-1.907l-.63.048-2.489.186-4.849.364a3.758,3.758,0,0,1-3.75-2.578v-.089l.024-.105L446.9,324.753l5.835-6.465c.671-.727,1.18-1.293,1.544-1.681A6.5,6.5,0,0,1,454.852,316.049Z" transform="translate(-293.959 -179.943)"/><path class="b" d="M452.893,307.6a13.124,13.124,0,0,0-9.213,2.069,5.012,5.012,0,0,1,1.1-.946,9.924,9.924,0,0,1,6.724-1.511A3.337,3.337,0,0,1,452.893,307.6Z" transform="translate(-299.08 -184.843)"/><path class="b" d="M446.9,305.52a8.885,8.885,0,0,1-1.616,2.069,8.517,8.517,0,0,1-1.948,1.786,8.252,8.252,0,0,1,1.616-2.069,8.163,8.163,0,0,1,1.948-1.786Z" transform="translate(-299.015 -184.536)"/><path class="f" d="M403.088,249.89h0l25.765,24.383L407.84,296.691l-12.979-12.858.711,30.145,2.756,29.66-66.133.412,2.7-65.325-20.56,8.833L305.8,254.294l28.286-9.7a110.719,110.719,0,0,1,20.722-3.6,45.193,45.193,0,0,0,24.9.21h0S391.3,240.3,403.088,249.89Z" transform="translate(-272.631 -172.159)"/><path class="b" d="M342.7,269.13a2.861,2.861,0,0,1,0,.808c0,.614-.081,1.334-.121,2.174-.129,1.932-.3,4.4-.485,7.136s-.4,5.318-.6,7.144c-.1.905-.186,1.616-.259,2.15a2.964,2.964,0,0,1-.154.808,3.129,3.129,0,0,1,0-.808c0-.614.073-1.333.121-2.174.129-1.932.3-4.4.477-7.136s.412-5.318.606-7.144c.1-.905.186-1.616.259-2.15A3.237,3.237,0,0,1,342.7,269.13Z" transform="translate(-279.394 -177.555)"/><path class="b" d="M413.68,285.017a1.757,1.757,0,0,1-.331-.356l-.873-1.043c-.752-.921-1.835-2.263-3.1-3.968a52.983,52.983,0,0,1-4.041-6.3,30.079,30.079,0,0,1-3.111-8.615,19.912,19.912,0,0,1,.331-9.132,16.1,16.1,0,0,1,3.685-6.465,13.1,13.1,0,0,1,4.089-2.95,9.227,9.227,0,0,1,1.285-.469,1.94,1.94,0,0,1,.469-.113c0,.049-.622.21-1.681.727a13.738,13.738,0,0,0-3.944,3.006,16.1,16.1,0,0,0-3.532,6.4,19.719,19.719,0,0,0-.283,8.955,30.246,30.246,0,0,0,3.031,8.51,56.23,56.23,0,0,0,3.936,6.3c1.236,1.73,2.271,3.087,2.982,4.041l.808,1.1A1.869,1.869,0,0,1,413.68,285.017Z" transform="translate(-291.054 -173.043)"/><path class="b" d="M371.4,362.333a2.307,2.307,0,0,1,0-.493v-1.4a19.145,19.145,0,0,0-.808-5.051,12.881,12.881,0,0,0-1.5-3.168,9.7,9.7,0,0,0-2.877-2.764,7.37,7.37,0,0,0-4.178-1.164c-1.527.048-3,.808-4.59,1.317a7.21,7.21,0,0,1-2.489.436,4.356,4.356,0,0,1-2.344-.808,8.081,8.081,0,0,1-2.627-3.742c-.525-1.358-.889-2.683-1.43-3.823a6.634,6.634,0,0,0-2.158-2.683,7.467,7.467,0,0,0-4.809-1.293,11.835,11.835,0,0,0-1.851.323,5.132,5.132,0,0,1,1.835-.485,7.419,7.419,0,0,1,4.994,1.212,6.8,6.8,0,0,1,2.3,2.78c.582,1.164.962,2.5,1.487,3.823a7.75,7.75,0,0,0,2.5,3.556,3.952,3.952,0,0,0,2.126.7,6.839,6.839,0,0,0,2.344-.42,17.7,17.7,0,0,1,4.7-1.325,7.645,7.645,0,0,1,4.4,1.253,9.859,9.859,0,0,1,2.966,2.893,12.973,12.973,0,0,1,1.487,3.233,17.718,17.718,0,0,1,.679,5.14,8.342,8.342,0,0,1-.065,1.406,1.835,1.835,0,0,1-.089.542Z" transform="translate(-279.141 -190.668)"/><path class="b" d="M405.12,285.358a12.3,12.3,0,0,0-3.079.081,10.886,10.886,0,0,0-3.354,1.293,11.315,11.315,0,0,0-3.459,3.233,9.957,9.957,0,0,0-1.2,2.481,11.1,11.1,0,0,0-.339,1.422,10.462,10.462,0,0,0-.073,1.519,37.83,37.83,0,0,0,1.2,6.57,14.267,14.267,0,0,1,.38,3.653,7.023,7.023,0,0,1-1.18,3.669c-1.511,2.2-4.138,3.4-5.415,5.77a7.839,7.839,0,0,0,1.277,9.205,7.977,7.977,0,0,0,8.292,1.689l.275-.105v.291a8.817,8.817,0,0,0,8.688,9.472,7.97,7.97,0,0,0,3.9-.946,10.772,10.772,0,0,0,1.228-.808,5.6,5.6,0,0,1-1.172.873,7.792,7.792,0,0,1-3.96,1.059,9.06,9.06,0,0,1-9.051-9.7l.251.186a8.34,8.34,0,0,1-8.712-1.746,8.235,8.235,0,0,1-1.366-9.7,11.142,11.142,0,0,1,2.715-3.063,15.922,15.922,0,0,0,2.732-2.74,6.7,6.7,0,0,0,1.123-3.451,14.55,14.55,0,0,0-.364-3.564,37.468,37.468,0,0,1-1.172-6.635,11.326,11.326,0,0,1,.089-1.576,9.642,9.642,0,0,1,.364-1.479,10.131,10.131,0,0,1,1.269-2.546,11.317,11.317,0,0,1,3.58-3.233,10.645,10.645,0,0,1,3.443-1.253,9.238,9.238,0,0,1,2.319-.057l.59.089a.669.669,0,0,1,.178.04Z" transform="translate(-288.257 -180.634)"/><path class="b" d="M342.29,276.456a14.475,14.475,0,0,0,1.406,2.425,11.7,11.7,0,0,0,6.2,4.3,10.3,10.3,0,0,0,5.221.121,11.468,11.468,0,0,0,5.245-2.877,10.886,10.886,0,0,0,3.233-5.746c.509-2.271.542-4.76,1.414-7.177a6.547,6.547,0,0,1,1.56-2.425,6.28,6.28,0,0,1,2.425-1.406c1.778-.558,3.58-.638,5.14-1.285a10.741,10.741,0,0,0,6.191-6.659,10.361,10.361,0,0,0-.533-7.411,10.6,10.6,0,0,0-3.233-4.1h0l-1.875-.711a3.6,3.6,0,0,1-.63-.267,4.854,4.854,0,0,1,.663.194l1.9.63h0a10.805,10.805,0,0,1,4.041,11.743,11.031,11.031,0,0,1-6.376,6.926,49.118,49.118,0,0,1-5.156,1.309,5.909,5.909,0,0,0-2.287,1.317,6.029,6.029,0,0,0-1.455,2.287c-.808,2.3-.881,4.792-1.406,7.112a11.249,11.249,0,0,1-3.33,5.94,11.791,11.791,0,0,1-5.431,2.934,10.506,10.506,0,0,1-5.382-.178,11.679,11.679,0,0,1-6.255-4.485,10.144,10.144,0,0,1-1.026-1.851c-.081-.2-.145-.372-.194-.517A.509.509,0,0,1,342.29,276.456Z" transform="translate(-279.631 -172.589)"/><path class="b" d="M440.614,287.332a2.479,2.479,0,0,1-.444.339,10.857,10.857,0,0,1-1.39.808,11.626,11.626,0,0,1-2.424.857,14.545,14.545,0,0,1-3.354.331,15.353,15.353,0,0,1-1.907-.1,8.4,8.4,0,0,1-2.053-.655,7.193,7.193,0,0,1-3.354-3.281,4.938,4.938,0,0,1-.469-2.546,7.718,7.718,0,0,1,.808-2.562,10.511,10.511,0,0,0,.889-2.505,4.041,4.041,0,0,0-.461-2.578,16.147,16.147,0,0,0-3.766-3.9,13.344,13.344,0,0,1-1.843-1.923,9.745,9.745,0,0,1-1.253-2.239,9.01,9.01,0,0,1,.663-8.5,13.674,13.674,0,0,1,4.372-3.936,9.314,9.314,0,0,1,1.439-.7,3.5,3.5,0,0,1,.533-.178c0,.048-.719.283-1.891,1.018a14.062,14.062,0,0,0-4.2,3.968,8.741,8.741,0,0,0-.558,8.187,9.613,9.613,0,0,0,1.22,2.142,12.933,12.933,0,0,0,1.794,1.859,16.343,16.343,0,0,1,3.863,4.041,4.436,4.436,0,0,1,.5,2.845,10.668,10.668,0,0,1-.921,2.6,7.612,7.612,0,0,0-.76,2.425,4.631,4.631,0,0,0,.42,2.344,6.878,6.878,0,0,0,3.16,3.128,7.606,7.606,0,0,0,1.956.647,15.78,15.78,0,0,0,1.915.154,12.576,12.576,0,0,0,5.657-1.034C439.983,287.761,440.59,287.292,440.614,287.332Z" transform="translate(-294.317 -174.664)"/><path class="b" d="M312.11,275.134c0-.04.461.057,1.293.073a10.508,10.508,0,0,0,3.451-.541,11.647,11.647,0,0,0,4.38-2.7,13.472,13.472,0,0,0,3.233-5.374,18.216,18.216,0,0,0,.881-6.288,31.518,31.518,0,0,0-.582-5.2c-.291-1.463-.606-2.635-.849-3.435a8.692,8.692,0,0,1-.356-1.253,1.218,1.218,0,0,1,.154.307c.089.2.21.5.356.9a27.939,27.939,0,0,1,.986,3.427,28.707,28.707,0,0,1,.679,5.245,18.064,18.064,0,0,1-.865,6.425,13.633,13.633,0,0,1-3.394,5.528,11.654,11.654,0,0,1-4.558,2.7,9.7,9.7,0,0,1-3.548.42,6.9,6.9,0,0,1-.962-.137A2.9,2.9,0,0,1,312.11,275.134Z" transform="translate(-273.841 -173.966)"/><path class="b" d="M346.764,316.665h-.218l-.59-.137a7.921,7.921,0,0,1-2.425-.808,3.92,3.92,0,0,1-1.382-1.2,3.112,3.112,0,0,1-.582-2.109,2.425,2.425,0,0,1,.485-1.148,3.056,3.056,0,0,1,1.051-.808,6.788,6.788,0,0,1,2.764-.517,7.968,7.968,0,0,0,2.942-.42A4.372,4.372,0,0,0,350.9,307.2a14.065,14.065,0,0,1,1.746-3.128,6.377,6.377,0,0,1,3.233-1.988,5.932,5.932,0,0,1,3.984.372,6.361,6.361,0,0,1,3.063,2.917c.679,1.293.646,2.845,1.511,3.912a3.233,3.233,0,0,0,1.746.994c.7.17,1.422.234,2.166.356a5.479,5.479,0,0,1,2.166.735,3.686,3.686,0,0,1,1.39,1.8,5.746,5.746,0,0,1-.25,4.308,20.815,20.815,0,0,1-2.117,3.572,10.837,10.837,0,0,1-2.78,2.877,5.447,5.447,0,0,1-3.7.905,3.925,3.925,0,0,1-1.721-.711c-.5-.356-.921-.768-1.358-1.123a3.685,3.685,0,0,0-1.39-.808,2.715,2.715,0,0,0-1.5.057,17.426,17.426,0,0,0-2.675,1.39,4.493,4.493,0,0,1-2.732.671,4.623,4.623,0,0,1-2.3-1.01,6.668,6.668,0,0,1-2.125-3.338,15.156,15.156,0,0,1-.525-2.424,4.985,4.985,0,0,0-.081-.647.885.885,0,0,1,0-.218.675.675,0,0,0,.057.21l.121.638a18.582,18.582,0,0,0,.6,2.425,6.6,6.6,0,0,0,2.125,3.233,4.308,4.308,0,0,0,2.182.929,4.2,4.2,0,0,0,2.554-.663A16.811,16.811,0,0,1,357,322.007a3.023,3.023,0,0,1,1.7-.081,4.122,4.122,0,0,1,1.527.849,5.717,5.717,0,0,0,2.909,1.738,5.108,5.108,0,0,0,3.435-.865,10.563,10.563,0,0,0,2.659-2.788,20.449,20.449,0,0,0,2.069-3.5,5.286,5.286,0,0,0,.234-4.041A3.3,3.3,0,0,0,370.3,311.7a5.025,5.025,0,0,0-2-.663c-.727-.121-1.463-.186-2.2-.364a3.637,3.637,0,0,1-1.972-1.139c-.978-1.261-.913-2.821-1.56-3.992a5.891,5.891,0,0,0-2.812-2.707,5.52,5.52,0,0,0-3.726-.356,5.98,5.98,0,0,0-3.063,1.851,13.877,13.877,0,0,0-1.705,3.039,4.711,4.711,0,0,1-2.279,2.425,8.4,8.4,0,0,1-3.063.42,6.546,6.546,0,0,0-2.659.461,2.3,2.3,0,0,0-1.414,1.746,2.9,2.9,0,0,0,.517,1.964,3.782,3.782,0,0,0,1.293,1.18,8.892,8.892,0,0,0,2.328.808l.63.154Z" transform="translate(-279.489 -183.841)"/><rect class="f" width="8.841" height="8.841" transform="translate(99.116 192.362) rotate(180)"/><rect class="f" width="8.841" height="8.841" transform="translate(86.412 192.362) rotate(180)"/><rect class="f" width="8.841" height="8.841" transform="translate(111.812 192.362) rotate(180)"/><g class="g" transform="translate(102.971 183.521)"><rect width="8.841" height="8.841" transform="translate(8.841 8.841) rotate(180)"/></g><g class="j" transform="translate(77.57 183.521)"><rect class="h" width="8.841" height="8.841" transform="translate(8.841 8.841) rotate(180)"/></g></g><g transform="translate(67.694 155.881)"><path class="a" d="M147.658,166.99c-7.67-1.754-25.773.9-23.235,12.931,1.261,6,11.112,5.77,15.565,4.534,4.041-1.115,8.486-4.8,12.931-3.871,5.56,1.172,4.259,7.2,8.437,9.633,1.422.808,3.6.17,4.849.808,1.786.994,1.325,2.158,2.174,4.194,2.02,4.849,6.837,6.53,10.506,1.972,4-4.914,1.519-10.159-2.918-13.739s-6.853-5.318-8.429-11.169c-.622-2.311.622-2.239-2.077-3.912-3.968-2.473-11.694-3.451-16.026-1.754" transform="translate(-59.942 -157.79)"/><path class="a" d="M135.277,241.17c-14.369,2.99-29.207-4.041-39.6,9.544-5.746,7.492-11.387,20.649-5.447,29.628,4.259,6.465,9.755,2.352,15.638,3.823,3.136.808,2.109-.137,3.467,2.651,1.616,3.4,0,8.971-.251,12.486-1.083,13.593-8.89,31.947,3.233,42.785,11.46,10.231,28.957,7.831,42.623,5.043,6.15-1.261,13.311-2.279,19.016-4.946,6-2.8,5.754-7.718,5.253-13.925-.614-7.6-1.818-15.355-2.893-22.912-.808-5.657-6.368-19.243,1.115-21.586,7-2.19,10.676,6.409,17.052,6.158,6.635-.259,12.64-8.89,13.472-14.854,1.01-7.225-5.132-9.342-10.3-13.973-7.33-6.546-12-15.04-19.824-21.013-5.391-4.13-10.611-6.134-17.44-5.552-13.739,1.164-11.977,6.069-25.9,6.465" transform="translate(-52.944 -170.961)"/><path class="b" d="M173.984,352.133h-.307l-.905.04-3.483.121c-3.031.081-7.435.17-12.931.186-10.951.048-26.209-.267-43.367-1.366h-.186v-.178a73.811,73.811,0,0,1,0-7.8c.186-4.76.663-9.375,1.059-13.836s.622-8.761.889-12.874c.517-8.211,1.123-15.6,1.794-21.821s1.39-11.185,1.948-14.62c.283-1.713.517-3.047.687-3.944.089-.436.154-.808.2-1.026a2.739,2.739,0,0,1,.081-.348,2.351,2.351,0,0,1,0,.356,10.063,10.063,0,0,1-.154,1.034c-.145.921-.348,2.255-.614,3.952-.509,3.443-1.188,8.437-1.81,14.62s-1.212,13.577-1.705,21.821c-.251,4.105-.444,8.429-.873,12.89s-.857,9.076-1.043,13.812c-.113,2.659-.113,5.285,0,7.758l-.2-.2c17.149,1.115,32.4,1.479,43.342,1.5,5.479,0,9.884,0,12.931-.057l3.483-.04h.905A1.285,1.285,0,0,1,173.984,352.133Z" transform="translate(-57.74 -178.68)"/><path class="b" d="M196.419,370.029a13.811,13.811,0,0,1-2.125.234l-5.108.493c-2,.21-3.807.364-5.124.428a9.857,9.857,0,0,1-2.142,0,12.925,12.925,0,0,1,2.117-.283l5.108-.541c2-.21,3.815-.339,5.132-.38a9.46,9.46,0,0,1,2.142.048Z" transform="translate(-71.018 -196.956)"/><path class="b" d="M193.9,302.09a2.712,2.712,0,0,1,0,.542c-.048.4-.113.913-.186,1.544s-.194,1.487-.267,2.425-.194,2.037-.242,3.233q-.049.913-.1,1.891c0,.655,0,1.342-.048,2.045-.048,1.414,0,2.934,0,4.518.089,3.184.291,6.684.63,10.345.7,7.322,1.665,13.917,2.319,18.7.331,2.384.59,4.324.752,5.657.081.63.137,1.148.186,1.544a2.714,2.714,0,0,1,0,.541,2.594,2.594,0,0,1-.121-.533c-.065-.4-.154-.9-.259-1.535-.218-1.382-.517-3.3-.881-5.657-.735-4.768-1.754-11.363-2.425-18.7-.339-3.669-.525-7.177-.6-10.377v-4.534c0-.711.048-1.39.065-2.053s.089-1.285.129-1.891c.065-1.212.2-2.3.315-3.233s.21-1.77.331-2.425.194-1.14.259-1.527a3.509,3.509,0,0,1,.137-.517Z" transform="translate(-73.078 -183.94)"/><path class="b" d="M195.343,333.662a1.617,1.617,0,0,1,0-.428V327.52c-.057-3.8-.259-9.035-.541-14.822s-.517-11.04-.582-14.838v-5.722a2.532,2.532,0,0,1,.04-.428,1.486,1.486,0,0,1,.049.428l.048,1.22c0,1.123.089,2.643.145,4.493.137,3.8.412,9.035.7,14.822s.445,11.04.42,14.838c0,1.9-.048,3.443-.1,4.5l-.073,1.22A1.488,1.488,0,0,1,195.343,333.662Z" transform="translate(-73.377 -181.949)"/><path class="b" d="M202.228,301.694a8.587,8.587,0,0,1-.808-.97l-2.166-2.707c-1.883-2.336-4.4-5.447-7.193-8.89s-5.285-6.676-7-9.052c-.857-1.188-1.536-2.166-1.98-2.853a6.816,6.816,0,0,1-.663-1.083,7.205,7.205,0,0,1,.808.994l2.093,2.764c1.77,2.328,4.275,5.5,7.088,8.963s5.334,6.635,7.1,8.971c.889,1.172,1.616,2.125,2.061,2.8A6.96,6.96,0,0,1,202.228,301.694Z" transform="translate(-71.114 -178.962)"/><path class="b" d="M234.662,286.52a6.954,6.954,0,0,1-.938.913,35.134,35.134,0,0,1-2.82,2.2c-1.228.873-2.74,1.843-4.429,2.9s-3.524,2.223-5.366,3.572a60.808,60.808,0,0,0-4.922,4.17c-1.463,1.342-2.788,2.554-3.936,3.532s-2.109,1.729-2.8,2.214c-.339.25-.614.428-.808.55s-.291.178-.3.162a10.71,10.71,0,0,1,1-.808c.655-.525,1.616-1.3,2.707-2.3s2.425-2.239,3.863-3.6a56.2,56.2,0,0,1,4.938-4.227c1.859-1.358,3.726-2.522,5.415-3.564s3.233-1.98,4.461-2.821,2.222-1.56,2.885-2.069A7.846,7.846,0,0,1,234.662,286.52Z" transform="translate(-76.086 -180.953)"/><path class="b" d="M191.857,246.865a24.527,24.527,0,0,0-3.8.63l-.881.283c-.307.105-.606.267-.921.4a13.737,13.737,0,0,0-1.94,1.075,15.024,15.024,0,0,0-3.629,3.516,12.93,12.93,0,0,0-2.037,4.607c-.065.38-.137.76-.2,1.123l-.04,1.067a4.124,4.124,0,0,0,0,1q.049.485.1.921a11.613,11.613,0,0,0,.768,2.7,5.219,5.219,0,0,1,.356.978,4.439,4.439,0,0,1-.509-.913,10.449,10.449,0,0,1-.905-2.707,8.029,8.029,0,0,0-.129-.946,4.365,4.365,0,0,1-.048-1.034c0-.356,0-.727,0-1.107a6.853,6.853,0,0,1,.186-1.164,12.655,12.655,0,0,1,2.077-4.768,14.951,14.951,0,0,1,3.75-3.6,13.164,13.164,0,0,1,2.012-1.067c.331-.137.638-.3.954-.4l.913-.259a9.055,9.055,0,0,1,1.616-.315c.234,0,.453-.073.663-.081h.558a4.468,4.468,0,0,1,1.091.049Z" transform="translate(-70.271 -173.335)"/><path class="b" d="M227.274,276.646a1.833,1.833,0,0,1-.356-.291c-.242-.242-.558-.542-.937-.905l-3.427-3.362L211.24,261.065c-4.429-4.316-8.389-8.284-11.177-11.217-1.4-1.471-2.513-2.667-3.233-3.516l-.9-.978a1.811,1.811,0,0,1-.283-.364,2.043,2.043,0,0,1,.339.307l.921.921,3.362,3.419c2.845,2.885,6.829,6.813,11.258,11.12s8.429,8.235,11.266,11.12c1.422,1.447,2.562,2.627,3.33,3.451l.889.962A2.192,2.192,0,0,1,227.274,276.646Z" transform="translate(-73.652 -172.987)"/><path class="b" d="M230.853,278.139a3.064,3.064,0,0,1-.323-.323l-.873-.994c-.364-.436-.808-.962-1.382-1.56s-1.172-1.285-1.891-2.012c-1.406-1.487-3.176-3.168-5.164-5s-4.267-3.75-6.692-5.714c-4.849-3.928-9.431-7.274-12.721-9.7l-3.887-2.909-1.043-.808a2.563,2.563,0,0,1-.348-.307,1.833,1.833,0,0,1,.4.234l1.091.743,3.968,2.8c3.33,2.425,7.928,5.714,12.8,9.642,2.424,1.972,4.7,3.928,6.7,5.762s3.734,3.564,5.116,5.083c.711.735,1.309,1.447,1.843,2.061s.994,1.156,1.342,1.616l.808,1.043A1.087,1.087,0,0,1,230.853,278.139Z" transform="translate(-73.82 -173.72)"/><path class="b" d="M221.729,309.521a14.288,14.288,0,0,1-3.968-2.853,19.4,19.4,0,0,1-3.281-3.629,48.111,48.111,0,0,1,3.564,3.313C219.992,308.171,221.786,309.424,221.729,309.521Z" transform="translate(-77.264 -184.122)"/><path class="b" d="M238.745,298.79c0,.065-1.269.259-3.3.7a33.027,33.027,0,0,0-7.629,2.6,21.066,21.066,0,0,0-3.718,2.425,16.067,16.067,0,0,0-1.414,1.317,12.758,12.758,0,0,0-1.115,1.261c-1.277,1.616-1.81,2.812-1.891,2.764a3.232,3.232,0,0,1,.356-.808,13.744,13.744,0,0,1,1.3-2.117,12.646,12.646,0,0,1,1.1-1.317,14.486,14.486,0,0,1,1.422-1.374,20.7,20.7,0,0,1,3.766-2.489,29.319,29.319,0,0,1,7.767-2.513c1.026-.186,1.867-.307,2.424-.364A3.652,3.652,0,0,1,238.745,298.79Z" transform="translate(-78.261 -183.307)"/><path class="b" d="M197,341.641a1.865,1.865,0,0,1,.089-.339c.081-.21.17-.533.356-.929a21.224,21.224,0,0,1,1.738-3.233c.808-1.3,1.915-2.78,3.128-4.4a58.232,58.232,0,0,0,3.75-5.407,50.925,50.925,0,0,1,3.871-5.358c1.261-1.616,2.424-3.023,3.233-4.291a28.491,28.491,0,0,0,1.883-3.079,10.27,10.27,0,0,1,.63-1.18,1.326,1.326,0,0,1-.105.331,9.522,9.522,0,0,1-.372.913,23.83,23.83,0,0,1-1.794,3.184,50.034,50.034,0,0,1-3.233,4.364,54.884,54.884,0,0,0-3.806,5.358,58.487,58.487,0,0,1-3.8,5.423c-1.237,1.616-2.344,3.063-3.192,4.332a26.4,26.4,0,0,0-1.843,3.12,10.793,10.793,0,0,1-.533,1.2Z" transform="translate(-73.91 -186.114)"/><path class="b" d="M217.536,369.324a6.054,6.054,0,0,1-.808.444l-2.271,1.172a31.815,31.815,0,0,1-3.483,1.576,8.712,8.712,0,0,1-4.663.558,12.405,12.405,0,0,1-4.308-1.9,26.048,26.048,0,0,1-4.833-4.17,4.187,4.187,0,0,1-.59-.735c.057-.049.962.937,2.61,2.328a27.707,27.707,0,0,0,3.023,2.255,12.751,12.751,0,0,0,4.17,1.81,8.542,8.542,0,0,0,4.461-.509,35.945,35.945,0,0,0,3.475-1.479c.978-.461,1.778-.808,2.344-1.051A3.328,3.328,0,0,1,217.536,369.324Z" transform="translate(-73.83 -196.251)"/><path class="b" d="M219.189,370.641a10.2,10.2,0,0,0,1.875-1.43,2.037,2.037,0,0,0,.517-2.206,2.634,2.634,0,0,0-.937-1.043,2.91,2.91,0,0,0-1.487-.323,14.1,14.1,0,0,0-3.12.372c-.954.194-1.81.42-2.522.614a17.674,17.674,0,0,1-2.336.59,11.087,11.087,0,0,1,2.279-.881c.711-.226,1.568-.485,2.53-.7a13.9,13.9,0,0,1,3.233-.42,3.37,3.37,0,0,1,1.7.4,2.991,2.991,0,0,1,1.075,1.245,2,2,0,0,1,0,1.5,3.233,3.233,0,0,1-.7,1.067,4.987,4.987,0,0,1-1.471,1.026A1.445,1.445,0,0,1,219.189,370.641Z" transform="translate(-76.631 -196.048)"/><path class="b" d="M206,363.439c0-.04.291.113.647.428s.808.808,1.277,1.309a19.69,19.69,0,0,0,1.891,1.7c-.04.081-.315,0-.744-.234a5.4,5.4,0,0,1-1.455-1.131c-.493-.533-.889-1.034-1.188-1.39S205.95,363.487,206,363.439Z" transform="translate(-75.635 -195.707)"/><path class="b" d="M233.476,329a1.658,1.658,0,0,1-.259.315l-.808.849c-.7.735-1.705,1.778-2.974,3.047l-9.981,9.876c-3.9,3.847-7.209,7.565-9.819,10.029a25.656,25.656,0,0,0-2.772,3.192c-.582.808-.808,1.317-.873,1.293a1.486,1.486,0,0,1,.154-.372,9.355,9.355,0,0,1,.582-1.01,22.5,22.5,0,0,1,2.691-3.305c2.57-2.53,5.827-6.263,9.738-10.126s7.484-7.274,10.07-9.787l3.063-2.95.849-.808A1.805,1.805,0,0,1,233.476,329Z" transform="translate(-75.635 -189.102)"/><path class="b" d="M246.216,298.616a11.719,11.719,0,0,1-1.891-1.309c-1.131-.865-2.659-2.1-4.267-3.564a46.821,46.821,0,0,1-3.9-3.96,9.591,9.591,0,0,1-1.382-1.843,18.712,18.712,0,0,1,1.616,1.616c.97,1.026,2.368,2.424,3.96,3.855s3.087,2.724,4.17,3.637A13.011,13.011,0,0,1,246.216,298.616Z" transform="translate(-81.158 -181.226)"/><path class="b" d="M248.712,308.119a4.616,4.616,0,0,1-.218-1.212c-.145-.962-.291-1.907-.445-2.942a19.326,19.326,0,0,1-.242-2.99,3.031,3.031,0,0,1,.145-1.245,4.686,4.686,0,0,1,.145,1.228c.065.76.2,1.794.364,2.942a28.765,28.765,0,0,1,.323,2.974,3.1,3.1,0,0,1-.073,1.245Z" transform="translate(-83.654 -183.487)"/><path class="b" d="M240.44,325.568c-.049-.065.719-.6,1.705-1.721A21.531,21.531,0,0,0,245.3,319a26.358,26.358,0,0,0,1.932-5.5c.323-1.455.388-2.425.461-2.384a2.321,2.321,0,0,1,0,.655,11.191,11.191,0,0,1-.194,1.786,21.886,21.886,0,0,1-1.843,5.657,18.8,18.8,0,0,1-3.314,4.906,7.354,7.354,0,0,1-.752.7,5.118,5.118,0,0,1-.606.477C240.658,325.463,240.456,325.568,240.44,325.568Z" transform="translate(-82.243 -185.67)"/><path class="b" d="M229.794,306.794a11.16,11.16,0,0,1-1.818.291,18.21,18.21,0,0,0-4.235,1.083,12.931,12.931,0,0,0-3.669,2.336,16.149,16.149,0,0,1-1.342,1.253,5.462,5.462,0,0,1,1.14-1.471,11.21,11.21,0,0,1,3.71-2.505,15.087,15.087,0,0,1,4.364-.994,6.756,6.756,0,0,1,1.851.008Z" transform="translate(-78.079 -184.83)"/><path class="b" d="M174.088,243.3a5.706,5.706,0,0,1-1.034.331c-.679.178-1.616.42-2.893.647a45.212,45.212,0,0,1-9.7.808,32.068,32.068,0,0,1-5.374-.638,38.955,38.955,0,0,1-4.162-1.43,14.265,14.265,0,0,0-2.821-.76c-.687-.1-1.067-.081-1.075-.121s.1,0,.283,0a4.4,4.4,0,0,1,.808,0,11.62,11.62,0,0,1,2.9.647c1.2.372,2.57.962,4.154,1.333a35.8,35.8,0,0,0,5.294.542,52.041,52.041,0,0,0,9.7-.647c1.228-.194,2.214-.388,2.9-.517A4.936,4.936,0,0,1,174.088,243.3Z" transform="translate(-64.325 -172.436)"/><path class="b" d="M192.656,245.512a23.445,23.445,0,0,1-2.424-.509c-1.479-.331-3.548-.719-5.835-1.148s-4.348-.881-5.819-1.317a10.9,10.9,0,0,1-2.328-.808,19.822,19.822,0,0,1,2.425.558c1.471.356,3.532.76,5.819,1.188s4.356.865,5.827,1.269a11,11,0,0,1,2.336.768Z" transform="translate(-69.93 -172.362)"/><path class="b" d="M119.487,359.7a.607.607,0,0,1,0-.194v-.582c0-.542,0-1.285-.065-2.214-.057-1.932-.17-4.72-.364-8.163s-.444-7.548-.7-12.123-.412-9.569-.242-14.838c.517-10.506,1.067-20.027,1.455-26.912.137-3.451.525-6.231.647-8.146a18.249,18.249,0,0,0,.048-2.206,2.344,2.344,0,0,0-.1-.566c-.048-.113-.105-.145-.1-.162a.332.332,0,0,1,.137.145,2.044,2.044,0,0,1,.137.574,14.4,14.4,0,0,1,0,2.222c-.065,1.94-.412,4.7-.509,8.146-.348,6.918-.808,16.422-1.333,26.912-.17,5.253,0,10.264.2,14.814s.444,8.639.622,12.123.218,6.231.226,8.163v2.8a.517.517,0,0,1-.065.2Z" transform="translate(-58.764 -180.391)"/><path class="b" d="M237.567,298a4.781,4.781,0,0,1,.6.17,9.009,9.009,0,0,1,1.616.7,10.11,10.11,0,0,1,4.34,4.849,9.44,9.44,0,0,1,.7,4.5,9.8,9.8,0,0,1-1.835,4.9,8.082,8.082,0,0,1-2.085,1.964,9.448,9.448,0,0,1-2.748,1.164,13.19,13.19,0,0,1-6.2-.065,15.609,15.609,0,0,1-2.99-1.051,12.358,12.358,0,0,1-2.594-1.665,8.7,8.7,0,0,1-2.861-5,10.021,10.021,0,0,1,2.95-9.027,7.111,7.111,0,0,1,3.322-1.762,6.95,6.95,0,0,1,2.837,0,6.273,6.273,0,0,1,1,.283,4.356,4.356,0,0,1,.7.283,3.665,3.665,0,0,1,.55.283,16.813,16.813,0,0,0-2.287-.687,6.789,6.789,0,0,0-5.924,1.827,9.771,9.771,0,0,0-2.74,8.752,8.4,8.4,0,0,0,2.748,4.768,12.851,12.851,0,0,0,2.505,1.616,15.886,15.886,0,0,0,2.909,1.018,12.931,12.931,0,0,0,6,.065,9.125,9.125,0,0,0,2.627-1.1,7.542,7.542,0,0,0,1.988-1.859,9.359,9.359,0,0,0,1.172-9.06,10.151,10.151,0,0,0-4.146-4.849,10.671,10.671,0,0,0-1.616-.768A3.015,3.015,0,0,1,237.567,298Z" transform="translate(-78.966 -183.065)"/><path class="b" d="M82.83,253.49a1.673,1.673,0,0,1,.17.331l.42.994c.348.865.808,2.126,1.414,3.693,1.164,3.136,2.643,7.516,4.106,12.405.727,2.425,1.406,4.768,1.972,6.926.42,2.2.59,4.162.954,5.795a9.488,9.488,0,0,0,1.333,3.637,3.451,3.451,0,0,0,1.083.921.889.889,0,0,1-.356-.121,1.228,1.228,0,0,1-.4-.251l-.226-.186-.218-.259a9.2,9.2,0,0,1-1.5-3.677c-.4-1.616-.606-3.637-1.043-5.77-.574-2.117-1.269-4.461-2-6.894-1.463-4.849-2.893-9.27-3.976-12.422-.533-1.536-.97-2.8-1.293-3.742l-.348-1.018A1.155,1.155,0,0,1,82.83,253.49Z" transform="translate(-52.01 -174.617)"/><path class="b" d="M116.838,288.41c0,.065-1.212.493-3.12,1.382s-4.493,2.223-7.411,3.6a35.025,35.025,0,0,1-7.791,2.764l-.752.145-.671.073a7.921,7.921,0,0,1-1.083.065,4.212,4.212,0,0,1-.921-.057,27.068,27.068,0,0,0,3.362-.517,40.344,40.344,0,0,0,7.67-2.885c2.9-1.374,5.512-2.691,7.468-3.5.978-.412,1.786-.7,2.352-.881a3.709,3.709,0,0,1,.9-.194Z" transform="translate(-54.361 -181.316)"/><path class="b" d="M132.294,241.22a2.479,2.479,0,0,1-.477.178l-1.382.444-5.116,1.568-16.931,5c-3.3.962-6.376,2.117-9.221,3.047a73.93,73.93,0,0,1-7.645,2.166,25.953,25.953,0,0,1-5.318.671,10.509,10.509,0,0,1-1.463-.048,1.889,1.889,0,0,1-.5-.065c0-.048.7,0,1.956-.048a30.005,30.005,0,0,0,5.261-.808c2.2-.509,4.768-1.293,7.589-2.255s5.908-2.109,9.229-3.079l16.972-4.849L130.4,241.7l1.406-.372A1.9,1.9,0,0,1,132.294,241.22Z" transform="translate(-52.28 -172.264)"/><path class="b" d="M46.42,258.623a2.336,2.336,0,0,1,.113-.517c.113-.38.251-.865.428-1.471.38-1.269.946-3.1,1.681-5.358,1.479-4.51,3.653-10.7,6.28-17.44,2.78-6.692,4.7-12.931,6.465-17.368.873-2.214,1.665-3.968,2.271-5.148.291-.6.541-1.051.711-1.35a2.2,2.2,0,0,1,.283-.461,2.6,2.6,0,0,1-.21.493l-.638,1.39c-.55,1.2-1.309,2.966-2.134,5.18-1.681,4.421-3.58,10.724-6.352,17.408-2.627,6.748-4.849,12.931-6.393,17.392l-1.81,5.31c-.2.6-.372,1.075-.5,1.447a2.652,2.652,0,0,1-.194.493Z" transform="translate(-45.025 -166.181)"/><path class="b" d="M57.557,266.489a4.394,4.394,0,0,1,.6.275c.4.178.954.493,1.665.905a17.781,17.781,0,0,1,5.213,4.615,8.712,8.712,0,0,1,1.729,4.518,8.817,8.817,0,0,1-1.616,5.334,10.263,10.263,0,0,1-4.631,3.992,11.782,11.782,0,0,1-6.522.76,11.953,11.953,0,0,1-5.956-2.788,9.851,9.851,0,0,1-1.067-1.156l-.493-.622-.4-.671a9.545,9.545,0,0,1-1.14-2.837,9.407,9.407,0,0,1,.38-5.52,10.887,10.887,0,0,1,2.7-4.041,13.657,13.657,0,0,1,1.616-1.358,17.331,17.331,0,0,1,1.616-.929,10.15,10.15,0,0,1,1.519-.6,8.289,8.289,0,0,1,1.333-.339l1.091-.162h.808a3.464,3.464,0,0,1,.663,0,6.137,6.137,0,0,1-.663.065l-.808.049-1.067.2a8.325,8.325,0,0,0-1.3.372,8.943,8.943,0,0,0-1.479.622,14.438,14.438,0,0,0-1.616.929,14.874,14.874,0,0,0-1.616,1.35,10.506,10.506,0,0,0-2.57,3.928,9.019,9.019,0,0,0-.331,5.3,6.466,6.466,0,0,0,.453,1.366,6.135,6.135,0,0,0,.671,1.317l.38.638.477.6a9.761,9.761,0,0,0,1.14,1.148,11.638,11.638,0,0,0,12.042,1.956,9.932,9.932,0,0,0,4.469-3.823,7.8,7.8,0,0,0-.057-9.448,18.185,18.185,0,0,0-5.059-4.639C58.357,266.925,57.533,266.537,57.557,266.489Z" transform="translate(-44.694 -176.988)"/><path class="b" d="M85.616,287.38a5.427,5.427,0,0,1-1.043.145q-1.006.1-2.837.339c-2.425.307-5.657.921-9.3,1.616a85.4,85.4,0,0,1-9.367,1.358c-1.212.1-2.2.129-2.869.121a4.8,4.8,0,0,1-1.059-.057,6.057,6.057,0,0,1,1.051-.113c.671,0,1.616-.113,2.845-.242,2.425-.251,5.657-.808,9.318-1.487s6.926-1.253,9.342-1.5c1.2-.121,2.182-.194,2.861-.2a4.229,4.229,0,0,1,1.059.016Z" transform="translate(-47.465 -181.11)"/><path class="b" d="M85.72,261.91a5.731,5.731,0,0,1-1.115.315c-.719.178-1.778.4-3.079.655-2.61.509-6.247,1.107-10.272,1.616s-7.694.808-10.345,1.034c-1.325.1-2.425.17-3.144.2a5.763,5.763,0,0,1-1.156,0,6.336,6.336,0,0,1,1.14-.17l3.128-.339c2.651-.275,6.3-.655,10.32-1.156s7.653-1.043,10.272-1.479l3.1-.525A7.225,7.225,0,0,1,85.72,261.91Z" transform="translate(-46.98 -176.233)"/><path class="b" d="M77,248.948a2.487,2.487,0,0,1,.057-.436l.226-1.253c.21-1.083.533-2.643.954-4.574.808-3.847,2.109-9.149,3.459-15.008.663-2.934,1.293-5.722,1.746-8.284s.9-4.849,1.382-6.789a31.924,31.924,0,0,1,1.439-4.453,11.187,11.187,0,0,1,.525-1.164,1.617,1.617,0,0,1,.218-.388s-.218.574-.59,1.616a38.273,38.273,0,0,0-1.333,4.453c-.445,1.915-.808,4.227-1.293,6.8s-1.059,5.374-1.721,8.308c-1.342,5.867-2.659,11.145-3.572,14.984-.445,1.867-.808,3.4-1.083,4.534l-.307,1.236a1.35,1.35,0,0,1-.105.42Z" transform="translate(-50.891 -165.623)"/><path class="b" d="M74.067,267.1c-.1-.04.469-1.956.808-4.413a16.879,16.879,0,0,1,.954-4.413,40.2,40.2,0,0,1-.541,4.477,12.317,12.317,0,0,1-1.22,4.348Z" transform="translate(-50.327 -175.534)"/><path class="b" d="M72.021,188a2.278,2.278,0,0,1,0,.744c-.057.469-.17,1.148-.348,1.98-.339,1.673-.978,3.928-1.705,6.409a61.286,61.286,0,0,0-1.616,6.4c-.291,1.657-.364,2.707-.428,2.707a2.425,2.425,0,0,1,0-.744,16.364,16.364,0,0,1,.17-2.012,43.641,43.641,0,0,1,1.479-6.465c.727-2.481,1.414-4.712,1.826-6.352S71.94,188,72.021,188Z" transform="translate(-49.145 -162.055)"/><path class="b" d="M85.8,188a10.812,10.812,0,0,1-2.174.4c-1.35.194-3.233.436-5.294.622s-3.96.267-5.326.267a10.157,10.157,0,0,1-2.206-.113,13.036,13.036,0,0,1,2.2-.186c1.358-.073,3.233-.2,5.294-.388l5.3-.493A11.84,11.84,0,0,1,85.8,188Z" transform="translate(-49.702 -162.052)"/><path class="b" d="M94.073,177.13a4.622,4.622,0,0,1-.857,1.35c-.606.808-1.511,1.81-2.473,2.95a18.444,18.444,0,0,0-2.222,3.079c-.461.849-.55,1.455-.622,1.439a2.821,2.821,0,0,1,.356-1.568,13.852,13.852,0,0,1,2.166-3.233c.978-1.148,1.907-2.134,2.562-2.861a8.7,8.7,0,0,1,1.091-1.156Z" transform="translate(-52.981 -159.969)"/><path class="b" d="M97.323,177.779a2.627,2.627,0,0,1-1.616.218,2.679,2.679,0,0,1-1.616-.517,4.91,4.91,0,0,1,1.616.1C96.579,177.674,97.307,177.657,97.323,177.779Z" transform="translate(-54.17 -160.028)"/><path class="b" d="M90.074,193.511a2.1,2.1,0,0,1,0-.647,14.425,14.425,0,0,1,.283-1.738,33.719,33.719,0,0,1,1.778-5.52c.857-2.1,1.738-3.944,2.425-5.277a13.584,13.584,0,0,1,1.131-2.109,14.111,14.111,0,0,1-.889,2.247c-.582,1.358-1.422,3.233-2.271,5.3a46.735,46.735,0,0,0-1.883,5.431C90.268,192.589,90.147,193.519,90.074,193.511Z" transform="translate(-53.394 -160.179)"/><path class="b" d="M100.968,195.654a10.508,10.508,0,0,1-1.616.178,27.6,27.6,0,0,0-3.831.711c-1.487.372-2.829.735-3.815.937a5.488,5.488,0,0,1-1.616.226,8.081,8.081,0,0,1,1.544-.509c.962-.283,2.287-.7,3.79-1.067a19.023,19.023,0,0,1,3.9-.6,4.388,4.388,0,0,1,1.641.121Z" transform="translate(-53.402 -163.494)"/><path class="b" d="M102.894,198.51c-.089.065-.477-.323-.808-.905s-.469-1.107-.364-1.156.412.388.727.954S102.991,198.413,102.894,198.51Z" transform="translate(-55.627 -163.675)"/><path class="b" d="M99.525,200.044c0,.073-.889.162-2.3.444a18.735,18.735,0,0,0-5.237,1.851,11.435,11.435,0,0,0-2.425,1.835,9.165,9.165,0,0,0-1.487,1.98c-.663,1.261-.808,2.15-.921,2.126a2.085,2.085,0,0,1,.089-.622,7.274,7.274,0,0,1,.574-1.616,8.4,8.4,0,0,1,1.463-2.117,10.958,10.958,0,0,1,2.5-1.932,16.165,16.165,0,0,1,5.391-1.778,13.1,13.1,0,0,1,1.705-.17,2.1,2.1,0,0,1,.647,0Z" transform="translate(-52.84 -164.36)"/><path class="b" d="M75.724,191.68a7.354,7.354,0,0,1-.323,1.794,15.357,15.357,0,0,1-.59,1.9,6.465,6.465,0,0,1-1.253,2.134,3.089,3.089,0,0,1-.7.525l-.17.1-.105-.178a4.905,4.905,0,0,1-.606-2.109,11.92,11.92,0,0,1,0-1.729,8.657,8.657,0,0,1,.186-1.552,5.212,5.212,0,0,1,.1,1.56,7.161,7.161,0,0,0,.655,3.621l-.267-.081a2.861,2.861,0,0,0,.582-.444,6.66,6.66,0,0,0,1.18-1.988c.291-.671.493-1.3.671-1.835a8.8,8.8,0,0,1,.638-1.713Z" transform="translate(-49.923 -162.761)"/><path class="b" d="M81.014,193.685a15,15,0,0,1-.574,2.029,12.664,12.664,0,0,1-.9,2.166,4.848,4.848,0,0,1-.849,1.156,2.352,2.352,0,0,1-1.43.711H77.11l-.057-.137a5.746,5.746,0,0,1-.364-1.236,13.739,13.739,0,0,1-.113-3.37c.073-1.026.21-1.94.339-2.707a11.816,11.816,0,0,1,.566-2.425,19.881,19.881,0,0,1-.275,2.489c-.089.768-.194,1.681-.242,2.691a15.04,15.04,0,0,0,.137,3.233,5.43,5.43,0,0,0,.331,1.148l-.21-.121a2.893,2.893,0,0,0,2-1.616,14.973,14.973,0,0,0,.913-2.061,9.244,9.244,0,0,1,.873-1.948Z" transform="translate(-50.8 -162.413)"/><path class="b" d="M87.95,195.015a5.9,5.9,0,0,1-1.043,1.657,5.656,5.656,0,0,1-.687.727,1.98,1.98,0,0,1-1.107.525,1,1,0,0,1-.687-.259,1.762,1.762,0,0,1-.4-.582,5,5,0,0,1-.372-1.342,18.5,18.5,0,0,1,.057-4.7,6.561,6.561,0,0,1,.42-1.9,13.837,13.837,0,0,1-.121,1.932,23.6,23.6,0,0,0,.065,4.615,4.745,4.745,0,0,0,.323,1.22c.162.364.412.647.719.63a1.616,1.616,0,0,0,.881-.412,6.053,6.053,0,0,0,.7-.655A16.249,16.249,0,0,1,87.95,195.015Z" transform="translate(-52.143 -162.273)"/><path class="b" d="M85.426,201.51a19.576,19.576,0,0,1-3.507,2.1,11.218,11.218,0,0,1-3.839,1.422c0-.105,1.616-.752,3.645-1.8a20.77,20.77,0,0,1,3.7-1.721Z" transform="translate(-51.098 -164.646)"/><path class="b" d="M88.459,211.084c0,.065-1.2.113-3.111.267s-4.558.445-7.468.873l-7.451,1.123c-.954.137-1.729.234-2.271.291a3.16,3.16,0,0,1-.808.048,4.113,4.113,0,0,1,.808-.21l2.247-.42c1.9-.348,4.518-.808,7.435-1.253a69.3,69.3,0,0,1,7.516-.752,19.262,19.262,0,0,1,2.287,0,3.7,3.7,0,0,1,.816.032Z" transform="translate(-49.04 -166.47)"/><path class="b" d="M204.211,361.181a17.78,17.78,0,0,1-1.01-2.352c-.59-1.455-1.439-3.459-2.5-5.617a41.018,41.018,0,0,0-3.071-5.293c-.905-1.277-1.616-1.972-1.544-2.02s.2.137.533.436a13.237,13.237,0,0,1,1.245,1.406,30.864,30.864,0,0,1,3.233,5.285,54.307,54.307,0,0,1,2.425,5.657A13.227,13.227,0,0,1,204.211,361.181Z" transform="translate(-73.735 -192.342)"/><path class="f" d="M168.75,323.4s-.59.073-1.738.178a23.338,23.338,0,0,0-4.9,1.358,65.466,65.466,0,0,0-7.33,3.79,48.059,48.059,0,0,1-4.7,2.376,18.985,18.985,0,0,1-5.787,1.535h-.057l-.04-.048a4.1,4.1,0,0,1-.647-2.174,7.953,7.953,0,0,1,.323-2.336,20.39,20.39,0,0,1,1.98-4.526,73.646,73.646,0,0,1,6.247-8.89l1.8-2.287c.606-.808,1.188-1.616,1.826-2.368,1.269-1.616,2.635-3.144,4.041-4.728a76.774,76.774,0,0,0,8.211-10.369l.21.234c-6.207,3.136-11.864,7.977-17.78,13-3.063,2.384-5.617,5.431-8.534,8.268a48.614,48.614,0,0,1-4.607,4.089l-1.285.905c-.453.259-.889.566-1.366.808a7.889,7.889,0,0,1-3.079.921h-.218v-.226a12.519,12.519,0,0,1,2.077-5.334,31.518,31.518,0,0,1,3.637-4.566c2.667-2.877,5.722-5.471,8.583-8.316s6.045-5.6,8.987-8.494a40.288,40.288,0,0,0,7.847-9.811l.121.291a4.564,4.564,0,0,0-3.233.865,23.039,23.039,0,0,0-2.934,2.117c-1.883,1.56-3.653,3.3-5.463,5.011-.889.881-1.883,1.681-2.829,2.489s-1.867,1.689-2.8,2.546a67.626,67.626,0,0,1-5.819,4.978,17.14,17.14,0,0,1-6.029,3.047l-.364.089.121-.356a24.245,24.245,0,0,1,5.374-8.7,69.4,69.4,0,0,1,7.468-6.789c2.578-2.109,5.172-4.154,7.564-6.376a30.792,30.792,0,0,0,6.11-7.427l.251.291a35.984,35.984,0,0,0-8.033,4.574c-2.489,1.794-4.889,3.693-7.322,5.455s-4.6,3.815-7.031,5.5a21.384,21.384,0,0,1-3.831,2.182,8.671,8.671,0,0,1-4.308.808h-.275l.129-.242a42.212,42.212,0,0,1,7.055-9.286c2.659-2.74,5.479-5.188,8.219-7.581s5.4-4.752,7.807-7.274a42.689,42.689,0,0,0,6.207-7.92l.162.242a21.416,21.416,0,0,0-9.31,4.356,64.146,64.146,0,0,0-7.12,6.57c-4.316,4.453-8.219,8.769-12.793,11.314l-.234.129.057-.259a19.51,19.51,0,0,1,3.435-6.635c1.39-1.9,2.829-3.572,4.1-5.188s2.328-3.184,3.314-4.623,1.826-2.788,2.586-3.984c1.519-2.424,2.635-4.291,3.386-5.56l.849-1.447c.186-.323.291-.485.291-.485s-1.422,2.715-4.421,7.556c-.752,1.2-1.616,2.546-2.57,4s-2.012,3.047-3.3,4.655-2.691,3.305-4.041,5.2a19.169,19.169,0,0,0-3.37,6.57l-.17-.129c4.518-2.562,8.4-6.861,12.7-11.314a65.506,65.506,0,0,1,7.136-6.611,21.7,21.7,0,0,1,9.448-4.429l.339-.057-.178.3a43.326,43.326,0,0,1-6.239,7.993c-2.425,2.5-5.083,4.849-7.815,7.273s-5.544,4.849-8.187,7.565a42.179,42.179,0,0,0-6.983,9.213l-.145-.283a8.2,8.2,0,0,0,4.106-.752,21.014,21.014,0,0,0,3.758-2.15c2.425-1.665,4.623-3.645,7.023-5.488s4.809-3.661,7.274-5.471a36.3,36.3,0,0,1,8.138-4.623l.517-.2-.267.493a31.743,31.743,0,0,1-6.191,7.532c-2.425,2.239-5.011,4.283-7.581,6.393a68.845,68.845,0,0,0-7.419,6.748,23.946,23.946,0,0,0-5.294,8.55l-.251-.267a16.849,16.849,0,0,0,5.875-2.982,67.65,67.65,0,0,0,5.787-4.946c.929-.865,1.851-1.729,2.8-2.554s1.932-1.616,2.821-2.473c1.81-1.721,3.588-3.459,5.487-5.035a23.225,23.225,0,0,1,2.99-2.158,8.894,8.894,0,0,1,1.681-.808,3.29,3.29,0,0,1,1.9-.113l.242.065-.113.226A40.073,40.073,0,0,1,154.9,296.5c-2.982,2.909-6.126,5.609-8.938,8.518s-5.932,5.447-8.591,8.308a31.716,31.716,0,0,0-3.6,4.5,12.123,12.123,0,0,0-2.012,5.164l-.2-.21a11.045,11.045,0,0,0,5.5-2.538,47.887,47.887,0,0,0,4.582-4.041c2.893-2.812,5.488-5.884,8.567-8.268,5.892-5.011,11.573-9.868,17.836-13.02l.509-.259-.3.485a75.021,75.021,0,0,1-8.26,10.4c-1.414,1.576-2.78,3.128-4.041,4.7-.638.808-1.22,1.616-1.826,2.36l-1.818,2.287a73.9,73.9,0,0,0-6.247,8.777,19.857,19.857,0,0,0-1.972,4.461,5.245,5.245,0,0,0,.283,4.332l-.1-.04a19.022,19.022,0,0,0,5.77-1.479,48.878,48.878,0,0,0,4.7-2.344,63.216,63.216,0,0,1,7.37-3.75,22.016,22.016,0,0,1,4.938-1.317C168.16,323.431,168.75,323.4,168.75,323.4Z" transform="translate(-60.903 -175.694)"/><path class="b" d="M147.985,241.838a9.633,9.633,0,0,1-1.164-3.887,9.989,9.989,0,0,1,0-4.041c.113,0,.1,1.81.428,4.041S148.082,241.8,147.985,241.838Z" transform="translate(-64.245 -170.861)"/><path class="b" d="M160.418,230.231a10.231,10.231,0,0,1-1.544.291,24.076,24.076,0,0,0-3.6,1.067c-1.39.517-2.651.994-3.588,1.269a4.485,4.485,0,0,1-1.552.315,8.035,8.035,0,0,1,1.455-.6c.905-.339,2.142-.857,3.54-1.382a16.592,16.592,0,0,1,3.7-.97,4.226,4.226,0,0,1,1.592.008Z" transform="translate(-64.92 -170.14)"/><path class="b" d="M148.466,224.734a1.98,1.98,0,0,1-.493.048,13.3,13.3,0,0,1-1.406,0,17.78,17.78,0,0,1-5.148-.808,10.911,10.911,0,0,1-3.233-1.616,11.25,11.25,0,0,1-2.8-3.055c-1.616-2.505-2.336-5.706-2.869-8.995a128.425,128.425,0,0,1-1.681-17.052c-.073-2.19-.081-3.96-.073-5.188v-1.414a2.362,2.362,0,0,1,.04-.493,1.98,1.98,0,0,1,.048.493c0,.372,0,.808.049,1.414,0,1.22.1,2.99.21,5.18a146.1,146.1,0,0,0,1.794,16.972,24.6,24.6,0,0,0,2.788,8.89,10.628,10.628,0,0,0,5.795,4.623,19.26,19.26,0,0,0,5.059.889c.614.04,1.083,0,1.406.048A2.933,2.933,0,0,1,148.466,224.734Z" transform="translate(-61.203 -161.702)"/><path class="b" d="M176.115,234.362a5.988,5.988,0,0,1-.1-1.2c0-.768-.1-1.875-.194-3.233-.186-2.74-.59-6.514-1.083-10.676s-.865-7.96-.978-10.716c-.065-1.374-.081-2.489-.065-3.233a6.272,6.272,0,0,1,.065-1.188,6.577,6.577,0,0,1,.1,1.188c0,.768.105,1.875.2,3.233.186,2.74.6,6.514,1.091,10.684s.857,7.952.97,10.708c.057,1.374.073,2.489.057,3.233a7.45,7.45,0,0,1-.065,1.2Z" transform="translate(-69.44 -165.147)"/><path class="b" d="M130.606,215.32a2.764,2.764,0,0,1-.735.477,3.912,3.912,0,0,1-2.425.331,3.427,3.427,0,0,1-1.616-.808,3.588,3.588,0,0,1-1.075-1.818,4.922,4.922,0,0,1,0-2.376,13.335,13.335,0,0,1,.929-2.425l.251.251a3.919,3.919,0,0,1-2.214.4,3.532,3.532,0,0,1-2.093-1.14,6.684,6.684,0,0,1-1.56-4.679,4.8,4.8,0,0,1,1.907-3.887c.59-.412,1.2-.719,1.7-1.123a4.041,4.041,0,0,0,1.1-1.5,16.165,16.165,0,0,0,.9-3.435c.218-1.123.428-2.15.574-3.1.307-1.907.436-3.467.509-4.542,0-.5.048-.913.073-1.245a2.527,2.527,0,0,1,0-.428,1.367,1.367,0,0,1,.04.428v1.253a39.688,39.688,0,0,1-.372,4.574c-.129.962-.331,2.012-.533,3.128a15.186,15.186,0,0,1-.929,3.548,4.2,4.2,0,0,1-1.2,1.616c-.533.453-1.156.76-1.705,1.156a4.388,4.388,0,0,0-1.729,3.564,6.287,6.287,0,0,0,1.447,4.388,3.144,3.144,0,0,0,1.843,1.026,3.661,3.661,0,0,0,2-.348l.469-.226-.218.477a13.441,13.441,0,0,0-.929,2.344,4.607,4.607,0,0,0,0,2.223,3.233,3.233,0,0,0,2.425,2.424,3.928,3.928,0,0,0,2.36-.21C130.339,215.482,130.59,215.288,130.606,215.32Z" transform="translate(-59.151 -161.339)"/><path class="b" d="M122.82,195.931c0-.089.574-.089,1.333-.509a3.7,3.7,0,0,0,1.083-1.034,6.659,6.659,0,0,0,.76-1.713,16.787,16.787,0,0,0,.533-3.451,6.132,6.132,0,0,1,.154-1.463,4.744,4.744,0,0,1,.145,1.471,12.543,12.543,0,0,1-.428,3.556,6.183,6.183,0,0,1-.808,1.818,3.418,3.418,0,0,1-1.261,1.075,2.489,2.489,0,0,1-1.075.275Q122.82,195.979,122.82,195.931Z" transform="translate(-59.681 -162.009)"/><path class="b" d="M119.69,194.8a4.56,4.56,0,0,1,1.115-.356,6.465,6.465,0,0,0,2.425-1.285,5.035,5.035,0,0,0,1.382-2.287,5.956,5.956,0,0,1,.315-1.123,2.425,2.425,0,0,1,0,1.188,4.687,4.687,0,0,1-1.39,2.538,5.552,5.552,0,0,1-2.594,1.253A2.53,2.53,0,0,1,119.69,194.8Z" transform="translate(-59.08 -162.39)"/><path class="b" d="M191.628,194.344a.946.946,0,0,0,.226-.04.509.509,0,0,0,.428-.315,3.548,3.548,0,0,0-.614-2.142,9.423,9.423,0,0,0-2.02-2.748,9.181,9.181,0,0,0-3.718-1.875,13.448,13.448,0,0,1-3.976-1.713,6.417,6.417,0,0,1-1.406-1.3,4.906,4.906,0,0,1-.808-1.487,5.826,5.826,0,0,1-.21-2.425,2.739,2.739,0,0,1,.194-.808,4.386,4.386,0,0,1,0,.865,6.522,6.522,0,0,0,.331,2.271,4.955,4.955,0,0,0,.768,1.366,6.765,6.765,0,0,0,1.35,1.2,13.924,13.924,0,0,0,3.887,1.616,8.2,8.2,0,0,1,5.884,4.9,3.427,3.427,0,0,1,.5,2.336.582.582,0,0,1-.574.331C191.709,194.377,191.628,194.36,191.628,194.344Z" transform="translate(-70.551 -160.422)"/><path class="b" d="M193.994,202.524c-.065,0-.121-.331-.283-.808a7.832,7.832,0,0,0-.929-1.875,23.32,23.32,0,0,1-1.762-2.481,7.532,7.532,0,0,1,2.109,2.247,5.5,5.5,0,0,1,.865,2.037C194.1,202.169,194.043,202.524,193.994,202.524Z" transform="translate(-72.763 -163.85)"/><path class="b" d="M193.027,206.225c-.073,0-.121-.307-.275-.808a10.014,10.014,0,0,0-.808-1.77,9.372,9.372,0,0,1-1.317-2.5,8.657,8.657,0,0,1,1.681,2.3,6,6,0,0,1,.719,1.907C193.132,205.878,193.075,206.225,193.027,206.225Z" transform="translate(-72.685 -164.577)"/><path class="b" d="M191.869,210.607c-.121,0,.073-1.18-.057-2.594a15.85,15.85,0,0,1-.242-2.6,5.81,5.81,0,0,1,.655,2.57A4.453,4.453,0,0,1,191.869,210.607Z" transform="translate(-72.869 -165.394)"/><path class="b" d="M186.79,215.247a7.9,7.9,0,0,1,.735-.663,5.73,5.73,0,0,0,1.317-1.891c.711-1.681.63-3.233.808-3.233a5.294,5.294,0,0,1-.4,3.41,4.679,4.679,0,0,1-1.5,1.948C187.194,215.182,186.814,215.3,186.79,215.247Z" transform="translate(-71.952 -166.171)"/><path class="b" d="M176.68,219.465a10.145,10.145,0,0,1,1.56-.226,8.185,8.185,0,0,0,1.616-.42,4.558,4.558,0,0,0,1.713-1.043,6.021,6.021,0,0,0,1.536-3.289,10.175,10.175,0,0,1,.3-1.487,4.138,4.138,0,0,1,.04,1.616,5.706,5.706,0,0,1-1.536,3.556,4.736,4.736,0,0,1-1.875,1.1,6.926,6.926,0,0,1-1.713.348A4.21,4.21,0,0,1,176.68,219.465Z" transform="translate(-70.013 -166.85)"/><path class="b" d="M177.356,202.935a11.208,11.208,0,0,0,1.479-1.455,4.1,4.1,0,0,0,.808-2.029,4.849,4.849,0,0,0-2.424-4.5,3.37,3.37,0,0,0-2.109-.38,6.724,6.724,0,0,0-1.9.808,2.453,2.453,0,0,1,.4-.4,3.734,3.734,0,0,1,1.439-.671,3.548,3.548,0,0,1,2.344.331,5.019,5.019,0,0,1,2.61,4.849,4.17,4.17,0,0,1-.921,2.174A4.711,4.711,0,0,1,177.9,202.7C177.55,202.935,177.364,202.991,177.356,202.935Z" transform="translate(-69.347 -163.25)"/><path class="b" d="M175,201.656a3.182,3.182,0,0,0,1.228.081,2.15,2.15,0,0,0,1.552-2.166,1.956,1.956,0,0,0-.622-1.374,2,2,0,0,0-1.2-.42.97.97,0,0,0-.752.339c-.137.162-.178.283-.21.275s-.04-.145.073-.364a1.1,1.1,0,0,1,.865-.55,2.15,2.15,0,0,1,1.455.412,2.239,2.239,0,0,1,.808,1.673,2.424,2.424,0,0,1-1.923,2.473,1.7,1.7,0,0,1-.986-.162C175.1,201.762,175,201.681,175,201.656Z" transform="translate(-69.685 -163.871)"/><path class="b" d="M177.251,192.675a3.7,3.7,0,0,1-.291.55,8.953,8.953,0,0,1-1.059,1.333,5.173,5.173,0,0,1-.913.76,2.618,2.618,0,0,1-1.325.477,2.206,2.206,0,0,1-1.5-.525,4.557,4.557,0,0,1-1.026-1.285,14.466,14.466,0,0,1-1.463-5.391,7.217,7.217,0,0,1,0-2.3c.065,0,.089.873.291,2.271a16.277,16.277,0,0,0,1.544,5.213c.485.913,1.261,1.681,2.134,1.616a3.524,3.524,0,0,0,2.053-1.059C176.7,193.378,177.194,192.626,177.251,192.675Z" transform="translate(-68.652 -161.727)"/><path class="b" d="M170.194,185.562a2.4,2.4,0,0,1-.517.121,7.568,7.568,0,0,1-1.463.065,6.983,6.983,0,0,1-4.38-1.948,11.961,11.961,0,0,1-2.57-4.041,7.161,7.161,0,0,1-.574-1.9,13.546,13.546,0,0,1,.849,1.778,13.739,13.739,0,0,0,2.586,3.887,7.2,7.2,0,0,0,4.114,1.948C169.434,185.578,170.186,185.481,170.194,185.562Z" transform="translate(-66.945 -160.11)"/><path class="b" d="M158.668,177.729a3.83,3.83,0,0,1-.582-.234c-.372-.154-.929-.388-1.665-.63a10.774,10.774,0,0,0-2.748-.525,9.142,9.142,0,0,0-3.621.59,19.063,19.063,0,0,0-3.984,2.077,34.5,34.5,0,0,1-4.437,2.78,18.935,18.935,0,0,1-5.528,1.762,10.046,10.046,0,0,1-6.174-.638,5.293,5.293,0,0,1-2.319-2.231,6.465,6.465,0,0,1-.671-3.047,13.06,13.06,0,0,1,1.5-5.617,9.7,9.7,0,0,1,3.693-3.726,19.4,19.4,0,0,1,4.267-1.616,19.4,19.4,0,0,1,6.514-.994,12.932,12.932,0,0,1,1.778.194,3.735,3.735,0,0,1,.614.154c0,.048-.857-.162-2.425-.186a19.841,19.841,0,0,0-6.417,1.123,19.186,19.186,0,0,0-4.178,1.657,9.431,9.431,0,0,0-3.532,3.613,12.592,12.592,0,0,0-1.422,5.431,5.892,5.892,0,0,0,.63,2.845,4.849,4.849,0,0,0,2.134,2.053,9.7,9.7,0,0,0,5.924.614,18.831,18.831,0,0,0,5.423-1.705,34.691,34.691,0,0,0,4.413-2.724,19.4,19.4,0,0,1,4.041-2.069,9.164,9.164,0,0,1,3.734-.541,10.635,10.635,0,0,1,2.788.606,15.036,15.036,0,0,1,1.616.711A2.756,2.756,0,0,1,158.668,177.729Z" transform="translate(-60.471 -157.772)"/><path class="b" d="M179.643,177.779c-.081,0-.113-.76-.477-1.9a8.252,8.252,0,0,0-2.6-3.766,9.754,9.754,0,0,0-4.194-1.932c-1.18-.226-1.94-.2-1.94-.275s.186-.057.533-.081a6.885,6.885,0,0,1,1.455.065,9.027,9.027,0,0,1,4.413,1.891,8.454,8.454,0,0,1,1.762,2.012,7.492,7.492,0,0,1,.857,2,6.133,6.133,0,0,1,.218,1.447A1.342,1.342,0,0,1,179.643,177.779Z" transform="translate(-68.814 -158.566)"/><path class="b" d="M169.463,166.2a1.043,1.043,0,0,1-.356.048c-.234,0-.582.048-1.034.065a19.105,19.105,0,0,1-3.8-.186A5.318,5.318,0,0,1,161.8,165.1a4.267,4.267,0,0,1-.517-.558,5.727,5.727,0,0,1-.356-.7,4.445,4.445,0,0,1-.162-.808,6.885,6.885,0,0,1,0-.808c.04-.275.081-.541.129-.808a8.2,8.2,0,0,1,.234-.808,7.4,7.4,0,0,1,.687-1.616,5.924,5.924,0,0,1,2.594-2.538,6.239,6.239,0,0,1,3.6-.477,4.688,4.688,0,0,1,3.063,1.447,4.388,4.388,0,0,1,.808,2.95,10.78,10.78,0,0,1-.4,2.627,4.7,4.7,0,0,1-2.206,3.063,3.185,3.185,0,0,1-1.333.4,9.472,9.472,0,0,0,1.253-.55,4.655,4.655,0,0,0,2-3,11.143,11.143,0,0,0,.339-2.546,4.114,4.114,0,0,0-.808-2.7,4.356,4.356,0,0,0-2.821-1.293,5.908,5.908,0,0,0-3.362.453,5.609,5.609,0,0,0-2.425,2.36,7.345,7.345,0,0,0-.663,1.511c-.073.259-.154.517-.234.808s-.081.509-.129.76a2.82,2.82,0,0,0,.873,2.57,5.181,5.181,0,0,0,2.3.994,21.826,21.826,0,0,0,3.742.307A9.415,9.415,0,0,1,169.463,166.2Z" transform="translate(-66.958 -155.896)"/><path class="b" d="M153.97,196.449a1.21,1.21,0,0,1,.339-.089,1.7,1.7,0,0,1,.428,0,1.325,1.325,0,0,1,.5.3,1.366,1.366,0,0,1,.283,1.439,1.35,1.35,0,0,1-1.544.873,2.884,2.884,0,0,1-.881-.331,1.374,1.374,0,0,1-.6-.687,1.342,1.342,0,0,1,.315-1.439,1.212,1.212,0,0,1,.905-.364c.234,0,.348.065.348.089s-.129,0-.331.073a1.148,1.148,0,0,0-.7.4,1.059,1.059,0,0,0-.178,1.091,1.616,1.616,0,0,0,1.188.752.962.962,0,0,0,1.115-.6,1.1,1.1,0,0,0-.137-1.1,1.14,1.14,0,0,0-.364-.275,2.943,2.943,0,0,0-.348-.1C154.1,196.505,153.978,196.481,153.97,196.449Z" transform="translate(-65.357 -163.618)"/><path class="b" d="M155.706,194.695c-.04.057-.3-.1-.735-.194a3.346,3.346,0,0,0-1.729.105,7.549,7.549,0,0,0-2.134,1.35c-.048,0,.057-.323.388-.7a3.717,3.717,0,0,1,1.616-1.051,2.893,2.893,0,0,1,1.948,0C155.528,194.412,155.738,194.663,155.706,194.695Z" transform="translate(-65.105 -163.213)"/><path class="b" d="M156.682,191.922a16.274,16.274,0,0,0-3.548-.622,4.849,4.849,0,0,0-1.342.226,3.323,3.323,0,0,0-.954.541c-.485.42-.671.808-.743.76s.057-.453.541-.97a2.885,2.885,0,0,1,1.018-.687,4.445,4.445,0,0,1,1.463-.291,6.659,6.659,0,0,1,2.61.493C156.359,191.631,156.706,191.874,156.682,191.922Z" transform="translate(-64.909 -162.607)"/><path class="b" d="M146.676,214.131a2.827,2.827,0,0,0,.574.42,4.129,4.129,0,0,0,1.843.453,4.769,4.769,0,0,0,2.691-.663,1.867,1.867,0,0,0,.533-.533,2.425,2.425,0,0,0,.3-.752,3.734,3.734,0,0,0-.154-1.738,7.687,7.687,0,0,1-.218-1.2l.4.065a4.85,4.85,0,0,1-1.018,1.382,8.26,8.26,0,0,1-1.188.986,9.821,9.821,0,0,1-2.271,1.212,5.205,5.205,0,0,1-1.681.356,1.3,1.3,0,0,1-.622-.073,7.161,7.161,0,0,0,2.2-.541,10.668,10.668,0,0,0,2.166-1.253,6.667,6.667,0,0,0,2.037-2.239l.331-.679.065.752a7.818,7.818,0,0,0,.218,1.14,4.041,4.041,0,0,1,.145,1.923,2.8,2.8,0,0,1-.364.873,2.264,2.264,0,0,1-.655.647,4.914,4.914,0,0,1-2.926.638,3.83,3.83,0,0,1-1.915-.614,1.793,1.793,0,0,1-.4-.388C146.692,214.2,146.66,214.147,146.676,214.131Z" transform="translate(-64.1 -166.146)"/><path class="b" d="M144.755,208.687a2.426,2.426,0,0,1-.509.259,10.046,10.046,0,0,1-1.463.541,3.235,3.235,0,0,1-.525.1.7.7,0,0,1-.655-.251,1.18,1.18,0,0,1-.1-.687,4.484,4.484,0,0,1,.105-.647c.089-.444.218-.849.291-1.309s.186-.937.283-1.422c.38-1.867.735-3.556,1.026-4.978a7.112,7.112,0,0,1,.4-1.511c.145-.347.315-.485.331-.469s-.089.178-.178.525a11.169,11.169,0,0,0-.259,1.5c-.178,1.309-.533,3.055-.905,5.011-.1.485-.194.954-.291,1.414s-.226.921-.323,1.325a2.207,2.207,0,0,0-.081,1.067c0,.065.186.105.339.1a1.874,1.874,0,0,0,.477-.057A14.19,14.19,0,0,1,144.755,208.687Z" transform="translate(-63.263 -164.032)"/><path class="b" d="M135.89,198.26a1.948,1.948,0,0,1,1.18.267,1.148,1.148,0,0,1,.477.485,1.2,1.2,0,0,1,.049.808,1.228,1.228,0,0,1-.525.7,1.616,1.616,0,0,1-.889.226,1.681,1.681,0,0,1-.865-.267,1.083,1.083,0,0,1-.509-.727,1.5,1.5,0,0,1,.477-1.3,1.4,1.4,0,0,1,.808-.4c.218,0,.331,0,.331.048a1.547,1.547,0,0,0-.929.558,1.253,1.253,0,0,0-.315,1.018.986.986,0,0,0,1.01.647.97.97,0,0,0,1.026-.606.744.744,0,0,0-.315-.913C136.342,198.43,135.866,198.333,135.89,198.26Z" transform="translate(-61.978 -163.982)"/><path class="b" d="M137.9,197.814c-.057.129-.913-.372-2-.364s-1.794.752-1.883.63.1-.251.4-.5a2.481,2.481,0,0,1,1.471-.55,3.015,3.015,0,0,1,1.5.38C137.75,197.58,137.928,197.749,137.9,197.814Z" transform="translate(-61.826 -163.787)"/><path class="b" d="M137.286,193.979a6.724,6.724,0,0,1-2.02.606,5.092,5.092,0,0,1-1.527.073c-.388-.065-.614-.178-.6-.226a15.959,15.959,0,0,0,2.045-.267C136.3,193.9,137.278,193.81,137.286,193.979Z" transform="translate(-61.66 -163.185)"/><path class="b" d="M167.28,170.962c0,.057-1.1-.606-2.9-1.5a40.8,40.8,0,0,0-7.274-2.8,26.386,26.386,0,0,0-4.227-.752,15.073,15.073,0,0,0-3.491.113,17.78,17.78,0,0,0-3.087.929,3.337,3.337,0,0,1,.752-.453,4.114,4.114,0,0,1,.954-.4l.614-.21.719-.154a13.658,13.658,0,0,1,3.564-.21,25.126,25.126,0,0,1,4.308.727,34.64,34.64,0,0,1,7.338,2.95,23.688,23.688,0,0,1,2.061,1.22A3.29,3.29,0,0,1,167.28,170.962Z" transform="translate(-64.185 -157.738)"/><path class="b" d="M146.58,240.485c0-.065.808-.388,1.988-1.059a41.484,41.484,0,0,0,4.51-2.974c1.705-1.261,3.233-2.424,4.388-3.233a9.94,9.94,0,0,1,1.932-1.18,14.858,14.858,0,0,1-1.762,1.414c-1.1.808-2.594,2.061-4.308,3.33a29.213,29.213,0,0,1-4.631,2.893A7.84,7.84,0,0,1,146.58,240.485Z" transform="translate(-64.239 -170.503)"/><path class="b" d="M148.07,237.96a7.518,7.518,0,0,1,1.616-1.309,40.177,40.177,0,0,1,4.227-2.441c1.705-.881,3.233-1.681,4.332-2.319a18.3,18.3,0,0,1,1.762-1.01,7.106,7.106,0,0,1-1.616,1.269,47.791,47.791,0,0,1-4.291,2.425c-1.705.881-3.233,1.705-4.3,2.36a14.871,14.871,0,0,1-1.729,1.026Z" transform="translate(-64.524 -170.28)"/><path class="b" d="M146.85,237.338A3.706,3.706,0,0,1,148,236.271c.824-.525,2.02-1.075,3.289-1.786a32.466,32.466,0,0,1,4.768-2.3,34,34,0,0,1-4.574,2.667c-1.269.719-2.513,1.2-3.33,1.665S146.9,237.378,146.85,237.338Z" transform="translate(-64.29 -170.531)"/><path class="b" d="M145.77,234.991a23.139,23.139,0,0,1,4.421-1.859c2.481-.889,4.388-1.851,4.453-1.754a14.24,14.24,0,0,1-4.3,2.15,33.894,33.894,0,0,1-4.574,1.463Z" transform="translate(-64.083 -170.375)"/></g></g></svg>