<svg xmlns="http://www.w3.org/2000/svg" width="252.724" height="275.196" viewBox="0 0 252.724 275.196"><defs><style>.a{fill:#ebebeb;}.b{fill:#fafafa;}.c{fill:#e0e0e0;}.d{fill:#dcebf5;}.e{fill:#b1d2eb;}.f{fill:#f5f5f5;}.g{fill:#263238;}.h{fill:#bf3976;}.i{opacity:0.8;}.j,.r{opacity:0.5;}.k{opacity:0.6;}.l{opacity:0.7;}.m,.q{opacity:0.3;}.n{opacity:0.4;}.o,.r{fill:#fff;}.p{fill:#455a64;}.s{opacity:0.2;}.t{fill:#ffbe9d;}.u{fill:#eb996e;}.v{fill:#709fc3;}</style></defs><g transform="translate(-46.84 -26.229)"><g transform="translate(46.84 42.193)"><path class="a" d="M64.48,421.28l5.07,33.308H99l6.835-32.826Z" transform="translate(-53.705 -195.935)"/><path class="b" d="M103.966,456.117c0,.092-7.55.171-16.853.171s-16.853-.079-16.853-.171,7.544-.177,16.853-.177S103.966,456.019,103.966,456.117Z" transform="translate(-55.954 -209.424)"/><path class="b" d="M104,453.431c0,.1-7.593.177-16.963.177s-16.969-.079-16.969-.177,7.6-.171,16.969-.171S104,453.339,104,453.431Z" transform="translate(-55.88 -208.381)"/><path class="b" d="M103.919,450.407c0,.092-7.6.171-16.969.171S70,450.5,70,450.407s7.593-.177,16.963-.177S103.919,450.309,103.919,450.407Z" transform="translate(-55.853 -207.202)"/><path class="b" d="M77.386,467.318a53.142,53.142,0,0,1-1.466-8.448,27.639,27.639,0,0,1,.9,4.19,27.254,27.254,0,0,1,.562,4.257Z" transform="translate(-58.157 -210.564)"/><path class="b" d="M81.24,466.9a31.868,31.868,0,0,1-.366-4.093,34.12,34.12,0,0,1-.2-4.1,19.333,19.333,0,0,1,.538,4.08,19.834,19.834,0,0,1,.024,4.117Z" transform="translate(-60.008 -210.498)"/><path class="b" d="M86.957,466.73A33.6,33.6,0,0,1,86,458.27a37.052,37.052,0,0,1,.568,4.221A35.469,35.469,0,0,1,86.957,466.73Z" transform="translate(-62.078 -210.331)"/><path class="b" d="M91.473,466.952a21.171,21.171,0,0,1-.409-4.276A20.157,20.157,0,0,1,91.2,458.4a37.132,37.132,0,0,1,.214,4.276,36.738,36.738,0,0,1,.061,4.276Z" transform="translate(-64.029 -210.381)"/><path class="b" d="M98.958,466.956a23.3,23.3,0,0,1-.312-4.05,23.873,23.873,0,0,1,.037-4.056A47.315,47.315,0,0,1,98.958,466.956Z" transform="translate(-66.975 -210.557)"/><path class="b" d="M104.514,467.068a25.49,25.49,0,0,1-.134-4.184,26.387,26.387,0,0,1,.2-4.184,25.21,25.21,0,0,1,.141,4.19,24.94,24.94,0,0,1-.208,4.178Z" transform="translate(-69.22 -210.498)"/><path class="b" d="M109.706,466.126a27.641,27.641,0,0,1,.25-4.374,28.178,28.178,0,0,1,.611-4.343,26.807,26.807,0,0,1-.25,4.374,28.483,28.483,0,0,1-.611,4.343Z" transform="translate(-71.303 -209.996)"/><path class="b" d="M116.27,466.345a14.66,14.66,0,0,1,.495-3.72,14.9,14.9,0,0,1,1.093-3.586,31.206,31.206,0,0,1-.757,3.665A33.151,33.151,0,0,1,116.27,466.345Z" transform="translate(-73.86 -210.631)"/><path class="a" d="M106.668,313.68l-.037.165-.14.47c-.134.44-.324,1.038-.562,1.8s-.55,1.735-.861,2.853-.709,2.376-1.063,3.8-.776,2.956-1.148,4.636-.751,3.47-1.136,5.363c-.7,3.8-1.35,8-1.832,12.43s-.611,8.68-.69,12.546c0,1.93,0,3.763.055,5.5s.122,3.317.208,4.777.2,2.773.293,3.928.189,2.156.281,2.969.147,1.417.2,1.869a1.628,1.628,0,0,0,.043.489.611.611,0,0,1,0,.171.611.611,0,0,1-.037-.165,3.906,3.906,0,0,0-.073-.483c-.067-.458-.153-1.081-.263-1.869s-.238-1.832-.342-2.962-.263-2.443-.342-3.934-.208-3.054-.25-4.777-.073-3.561-.086-5.5c.043-3.873.232-8.124.666-12.577s1.112-8.649,1.832-12.455c.391-1.894.751-3.7,1.173-5.369s.8-3.225,1.185-4.636.782-2.675,1.118-3.787.647-2.065.922-2.834.47-1.35.611-1.784c.073-.183.128-.336.171-.458A.61.61,0,0,1,106.668,313.68Z" transform="translate(-67.092 -154.061)"/><path class="a" d="M102.6,343.383a10.946,10.946,0,0,1,4.581-5.785,2.651,2.651,0,0,1,2.443-.446c1.032.495,1.112,1.942.806,3.054a8.045,8.045,0,0,1-3.335,4.545,6.774,6.774,0,0,1-5,1.258" transform="translate(-68.346 -163.135)"/><path class="a" d="M99.805,364.225c.757-2.877,3.054-6.963,5.43-8.741a3.433,3.433,0,0,1,1.222-.66,1.417,1.417,0,0,1,1.319.287,2.011,2.011,0,0,1,.3,1.906,11.606,11.606,0,0,1-8.576,8.649" transform="translate(-67.334 -170.051)"/><path class="a" d="M99.19,385.482a16.767,16.767,0,0,1,5.5-6.89,2.614,2.614,0,0,1,1.912-.684c1.038.189,1.509,1.46,1.417,2.51-.189,2.168-1.832,3.909-3.555,5.253a21.9,21.9,0,0,1-5.07,2.608" transform="translate(-67.213 -179.055)"/><path class="a" d="M99.64,400.954a16.126,16.126,0,0,1,4.667-5.308,3.3,3.3,0,0,1,1.4-.611,1.417,1.417,0,0,1,1.374.519c.47.69,0,1.619-.476,2.278a13.322,13.322,0,0,1-6.658,4.887" transform="translate(-67.388 -185.712)"/><path class="a" d="M93.777,394.205a52.349,52.349,0,0,0-6.67-6.8c-.379-.318-.855-.654-1.325-.5a1.008,1.008,0,0,0-.611.9,2.535,2.535,0,0,0,.257,1.112,12.931,12.931,0,0,0,8.588,7.226" transform="translate(-61.757 -182.543)"/><path class="a" d="M93.272,374.81l-5.259-6.389a6.291,6.291,0,0,0-1.68-1.619,2.162,2.162,0,0,0-2.236,0,2.12,2.12,0,0,0-.721,2.107,5.443,5.443,0,0,0,1.026,2.1,15.484,15.484,0,0,0,3.818,4.056A6.386,6.386,0,0,0,93,376.544" transform="translate(-61.038 -174.613)"/><path class="a" d="M94.935,353.409a18.252,18.252,0,0,0-5.278-7.941,3.1,3.1,0,0,0-1.374-.806,2.308,2.308,0,0,0-2.4,1.692,4.325,4.325,0,0,0,.476,3.469,9.083,9.083,0,0,0,2.443,2.6,21.079,21.079,0,0,0,5.833,3.152" transform="translate(-61.968 -166.106)"/><path class="a" d="M99.206,333.129c-.507-3.7-2.443-6.786-4.667-9.773-.47-.611-1.13-1.307-1.906-1.185a1.49,1.49,0,0,0-1.093.941,3.359,3.359,0,0,0-.208,1.478,11.429,11.429,0,0,0,7.422,10.219" transform="translate(-64.15 -157.36)"/><path class="a" d="M106.48,322.376a30.486,30.486,0,0,1-.2-5.73,10.2,10.2,0,0,1,1.906-5.333,4.373,4.373,0,0,1,1.9-1.515,2.394,2.394,0,0,1,2.333.305,2.535,2.535,0,0,1,.8,2.058,6.469,6.469,0,0,1-.611,2.193c-1.393,3.36-3.72,7.08-6.151,8.02" transform="translate(-69.953 -152.483)"/><path class="c" d="M69.167,337.73a3.409,3.409,0,0,1,0,.464v3.476c0,.831.031,1.771.1,2.81.092,2.083.293,4.563.611,7.33s.806,5.73,1.454,8.845,1.435,6.041,2.223,8.686,1.625,4.984,2.376,6.927c.354.983.733,1.832,1.038,2.614s.611,1.429.825,1.961.391.922.525,1.222a3.178,3.178,0,0,1,.165.44,1.924,1.924,0,0,1-.226-.409c-.153-.312-.348-.715-.611-1.222s-.556-1.173-.88-1.936-.715-1.625-1.087-2.6c-.788-1.942-1.625-4.276-2.443-6.927s-1.6-5.583-2.266-8.7-1.02-6.145-1.356-8.888-.476-5.235-.538-7.33c-.055-1.044-.043-1.991-.055-2.822s0-1.545,0-2.132.037-1,.049-1.344A1.973,1.973,0,0,1,69.167,337.73Z" transform="translate(-55.472 -163.42)"/><path class="c" d="M70.6,358.928A7.819,7.819,0,0,1,72.469,354a1.881,1.881,0,0,1,1.558-.825c.806.116,1.173,1.081,1.222,1.9a5.711,5.711,0,0,1-1.289,3.805,4.826,4.826,0,0,1-3.134,1.936" transform="translate(-56.087 -169.433)"/><path class="c" d="M73.5,373.64a13.083,13.083,0,0,1,1.832-7.122,2.608,2.608,0,0,1,.7-.715,1.014,1.014,0,0,1,.959-.086,1.423,1.423,0,0,1,.611,1.222,8.277,8.277,0,0,1-3.989,7.739" transform="translate(-57.213 -174.28)"/><path class="c" d="M77.28,388.287a12,12,0,0,1,2.272-5.852,1.875,1.875,0,0,1,1.154-.88c.745-.092,1.344.672,1.509,1.4a5.81,5.81,0,0,1-1.289,4.343,15.884,15.884,0,0,1-2.9,2.871" transform="translate(-58.686 -180.473)"/><path class="c" d="M80.7,398.819a11.526,11.526,0,0,1,2.016-4.618,2.309,2.309,0,0,1,.812-.727,1.026,1.026,0,0,1,1.051.055c.464.367.36,1.1.165,1.655a9.474,9.474,0,0,1-3.482,4.758" transform="translate(-60.017 -185.068)"/><path class="c" d="M74.547,396.259a37.918,37.918,0,0,0-6-3.189,1.075,1.075,0,0,0-1.014-.055.708.708,0,0,0-.226.739,1.79,1.79,0,0,0,.415.7,9.211,9.211,0,0,0,7.4,3.054" transform="translate(-54.793 -184.896)"/><path class="c" d="M70.135,382.988l-4.942-3.225a4.582,4.582,0,0,0-1.5-.733,1.539,1.539,0,0,0-1.527.464,1.5,1.5,0,0,0-.037,1.588,3.872,3.872,0,0,0,1.148,1.222,11.087,11.087,0,0,0,3.476,1.942,4.672,4.672,0,0,0,3.573,0" transform="translate(-52.708 -179.474)"/><path class="c" d="M66.747,368.005a13.06,13.06,0,0,0-5.3-4.276,2.229,2.229,0,0,0-1.112-.25,1.649,1.649,0,0,0-1.271,1.668,3.054,3.054,0,0,0,1.075,2.26,6.541,6.541,0,0,0,2.236,1.222,15.106,15.106,0,0,0,4.648.886" transform="translate(-51.599 -173.44)"/><path class="c" d="M65.207,353.426a15.223,15.223,0,0,0-5.284-5.656,1.606,1.606,0,0,0-1.552-.4,1.081,1.081,0,0,0-.544.873,2.517,2.517,0,0,0,.177,1.057,8.173,8.173,0,0,0,7.257,5.363" transform="translate(-51.115 -167.15)"/><path class="c" d="M68.473,344.066a21.325,21.325,0,0,1-1.362-3.86,7.257,7.257,0,0,1,.147-4.038,3.1,3.1,0,0,1,.965-1.417,1.7,1.7,0,0,1,1.655-.293,1.832,1.832,0,0,1,.99,1.222,4.642,4.642,0,0,1,.067,1.619c-.226,2.59-1.008,5.626-2.443,6.786" transform="translate(-54.644 -162.109)"/><path class="a" d="M124.191,337.2a1.973,1.973,0,0,1,.043.464c0,.342,0,.788.049,1.35a16.307,16.307,0,0,1,0,2.126c-.043.831,0,1.777-.049,2.822-.061,2.089-.238,4.575-.538,7.33s-.782,5.754-1.429,8.881-1.448,6.059-2.26,8.7-1.661,4.984-2.443,6.927c-.373.977-.764,1.832-1.087,2.6s-.611,1.411-.88,1.936-.434.9-.611,1.222a1.924,1.924,0,0,1-.226.409,3.178,3.178,0,0,1,.165-.44l.525-1.222c.238-.531.519-1.185.825-1.955s.684-1.637,1.038-2.62c.751-1.942,1.564-4.276,2.376-6.927s1.564-5.571,2.223-8.686,1.112-6.108,1.448-8.845.519-5.216.611-7.3c.067-1.038.073-1.985.1-2.81s0-1.545,0-2.126V337.7A2.518,2.518,0,0,1,124.191,337.2Z" transform="translate(-73.273 -163.214)"/><path class="a" d="M125.9,358.4a7.831,7.831,0,0,0-1.869-4.923,1.894,1.894,0,0,0-1.558-.825c-.806.116-1.173,1.081-1.222,1.9a5.748,5.748,0,0,0,1.313,3.812A4.825,4.825,0,0,0,125.7,360.3" transform="translate(-75.797 -169.227)"/><path class="a" d="M123.369,373.11a13.367,13.367,0,0,0-1.832-7.122,2.608,2.608,0,0,0-.7-.715,1.014,1.014,0,0,0-.959-.086,1.423,1.423,0,0,0-.611,1.222,8.271,8.271,0,0,0,3.989,7.739" transform="translate(-75.015 -174.074)"/><path class="a" d="M119,387.744a12,12,0,0,0-2.254-5.876,1.833,1.833,0,0,0-1.154-.874c-.745-.1-1.344.666-1.509,1.4a5.817,5.817,0,0,0,1.289,4.343,15.8,15.8,0,0,0,2.908,2.865" transform="translate(-72.975 -180.254)"/><path class="a" d="M116.067,398.289a11.563,11.563,0,0,0-2.034-4.618,2.279,2.279,0,0,0-.819-.727,1.014,1.014,0,0,0-1.045.055c-.464.373-.36,1.1-.165,1.655a9.474,9.474,0,0,0,3.482,4.758" transform="translate(-72.136 -184.862)"/><path class="a" d="M119.914,395.735a37.2,37.2,0,0,1,6-3.195,1.075,1.075,0,0,1,1.014-.055.709.709,0,0,1,.226.739,1.832,1.832,0,0,1-.415.709,9.23,9.23,0,0,1-7.4,3.054" transform="translate(-75.055 -184.69)"/><path class="a" d="M123.963,382.448l4.948-3.225a4.582,4.582,0,0,1,1.5-.733,1.539,1.539,0,0,1,1.527.464,1.515,1.515,0,0,1,.037,1.594,3.94,3.94,0,0,1-1.148,1.222,11.191,11.191,0,0,1-3.476,1.936,4.672,4.672,0,0,1-3.573,0" transform="translate(-76.783 -179.264)"/><path class="a" d="M127.641,367.475a13.108,13.108,0,0,1,5.3-4.276,2.23,2.23,0,0,1,1.112-.25,1.649,1.649,0,0,1,1.271,1.668,3.091,3.091,0,0,1-1.075,2.26,6.542,6.542,0,0,1-2.236,1.222,15.107,15.107,0,0,1-4.648.886" transform="translate(-78.176 -173.234)"/><path class="a" d="M129.509,352.9a15.061,15.061,0,0,1,5.29-5.656,1.606,1.606,0,0,1,1.552-.4,1.081,1.081,0,0,1,.544.88,2.51,2.51,0,0,1-.177,1.051,8.173,8.173,0,0,1-7.257,5.363" transform="translate(-78.993 -166.944)"/><path class="a" d="M128.4,343.52a21.43,21.43,0,0,0,1.362-3.854,7.275,7.275,0,0,0-.147-4.044,3.127,3.127,0,0,0-.965-1.442,1.7,1.7,0,0,0-1.655-.293,1.833,1.833,0,0,0-.99,1.222,4.649,4.649,0,0,0-.073,1.619c.232,2.59,1.014,5.626,2.443,6.786" transform="translate(-77.606 -161.887)"/><path class="a" d="M59,410.48v6.23a2.443,2.443,0,0,0,2.443,2.443h42.642a2.443,2.443,0,0,0,2.443-2.443v-6.23Z" transform="translate(-51.572 -191.732)"/><path class="c" d="M65,424.7l.354,1.985,39.35,2.8,1-4.789Z" transform="translate(-53.907 -197.266)"/><path class="c" d="M456.9,207.239a1.692,1.692,0,0,1,.727-.086h.244l-.079.079c0-.281.043-.483.079-.483s.067.2.079.483v.079h-.33A1.588,1.588,0,0,1,456.9,207.239Z" transform="translate(-206.424 -112.446)"/><path class="c" d="M453.72,207.5c0-.043.22-.086.489-.086s.483.043.483.086-.214.086-.483.086S453.72,207.544,453.72,207.5Z" transform="translate(-205.186 -112.703)"/><path class="c" d="M450.54,207.5c0-.043.22-.086.489-.086s.483.043.483.086-.214.086-.483.086S450.54,207.544,450.54,207.5Z" transform="translate(-203.949 -112.703)"/><path class="c" d="M447.36,207.5c0-.043.22-.086.489-.086s.483.043.483.086-.214.086-.483.086S447.36,207.544,447.36,207.5Z" transform="translate(-202.711 -112.703)"/><path class="c" d="M444.18,207.5c0-.043.22-.086.489-.086s.483.043.483.086-.214.086-.483.086S444.18,207.544,444.18,207.5Z" transform="translate(-201.473 -112.703)"/><path class="c" d="M441,207.5c0-.043.22-.086.489-.086s.483.043.483.086-.214.086-.483.086S441,207.544,441,207.5Z" transform="translate(-200.236 -112.703)"/><path class="c" d="M437.82,207.5c0-.043.22-.086.489-.086s.483.043.483.086-.214.086-.483.086S437.82,207.544,437.82,207.5Z" transform="translate(-198.998 -112.703)"/><path class="c" d="M434.64,207.5c0-.043.22-.086.489-.086s.483.043.483.086-.214.086-.483.086S434.64,207.544,434.64,207.5Z" transform="translate(-197.761 -112.703)"/><path class="c" d="M431.46,207.5c0-.043.22-.086.489-.086s.483.043.483.086-.214.086-.483.086S431.46,207.544,431.46,207.5Z" transform="translate(-196.523 -112.703)"/><path class="c" d="M428.28,207.5c0-.043.22-.086.489-.086s.483.043.483.086-.214.086-.483.086S428.28,207.544,428.28,207.5Z" transform="translate(-195.286 -112.703)"/><path class="c" d="M425.1,207.5c0-.043.22-.086.489-.086s.483.043.483.086-.214.086-.483.086S425.1,207.544,425.1,207.5Z" transform="translate(-194.048 -112.703)"/><path class="c" d="M421.93,207.5c0-.043.214-.086.483-.086s.489.043.489.086-.22.086-.489.086S421.93,207.544,421.93,207.5Z" transform="translate(-192.814 -112.703)"/><path class="c" d="M418.75,207.5c0-.043.214-.086.483-.086s.489.043.489.086-.22.086-.489.086S418.75,207.544,418.75,207.5Z" transform="translate(-191.577 -112.703)"/><path class="c" d="M415.57,207.5c0-.043.214-.086.483-.086s.489.043.489.086-.22.086-.489.086S415.57,207.544,415.57,207.5Z" transform="translate(-190.339 -112.703)"/><path class="c" d="M412.39,207.5c0-.043.214-.086.483-.086s.489.043.489.086-.22.086-.489.086S412.39,207.544,412.39,207.5Z" transform="translate(-189.102 -112.703)"/><path class="c" d="M409.21,207.5c0-.043.214-.086.483-.086s.489.043.489.086-.22.086-.489.086S409.21,207.544,409.21,207.5Z" transform="translate(-187.864 -112.703)"/><path class="c" d="M406,207.5c0-.043.214-.086.483-.086s.489.043.489.086-.22.086-.489.086S406,207.544,406,207.5Z" transform="translate(-186.615 -112.703)"/><path class="c" d="M402.85,207.5c0-.043.214-.086.483-.086s.489.043.489.086-.22.086-.489.086S402.85,207.544,402.85,207.5Z" transform="translate(-185.389 -112.703)"/><path class="c" d="M401.8,205.36c.049,0,.086.22.086.489s-.037.483-.086.483-.079-.214-.079-.483S401.757,205.36,401.8,205.36Z" transform="translate(-184.949 -111.906)"/><path class="c" d="M401.8,202.18c.049,0,.086.22.086.489s-.037.483-.086.483-.079-.214-.079-.483S401.757,202.18,401.8,202.18Z" transform="translate(-184.949 -110.668)"/><path class="c" d="M401.8,199c.049,0,.086.22.086.489s-.037.483-.086.483-.079-.214-.079-.483S401.757,199,401.8,199Z" transform="translate(-184.949 -109.43)"/><path class="c" d="M401.8,195.83c.049,0,.086.214.086.483s-.037.483-.086.483-.079-.214-.079-.483S401.757,195.83,401.8,195.83Z" transform="translate(-184.949 -108.197)"/><path class="c" d="M401.8,192.65c.049,0,.086.214.086.483s-.037.489-.086.489-.079-.22-.079-.489S401.757,192.65,401.8,192.65Z" transform="translate(-184.949 -106.959)"/><path class="c" d="M401.8,189.47c.049,0,.086.214.086.483s-.037.489-.086.489-.079-.22-.079-.489S401.757,189.47,401.8,189.47Z" transform="translate(-184.949 -105.722)"/><path class="c" d="M401.8,186.29c.049,0,.086.214.086.483s-.037.489-.086.489-.079-.22-.079-.489S401.757,186.29,401.8,186.29Z" transform="translate(-184.949 -104.484)"/><path class="c" d="M401.8,183.11c.049,0,.086.214.086.483s-.037.489-.086.489-.079-.22-.079-.489S401.757,183.11,401.8,183.11Z" transform="translate(-184.949 -103.246)"/><path class="c" d="M401.8,179.93c.049,0,.086.214.086.483s-.037.489-.086.489-.079-.22-.079-.489S401.757,179.93,401.8,179.93Z" transform="translate(-184.949 -102.009)"/><path class="c" d="M401.8,176.75c.049,0,.086.214.086.483s-.037.489-.086.489-.079-.22-.079-.489S401.757,176.75,401.8,176.75Z" transform="translate(-184.949 -100.771)"/><path class="c" d="M401.8,173.57c.049,0,.086.214.086.483s-.037.489-.086.489-.079-.22-.079-.489S401.757,173.57,401.8,173.57Z" transform="translate(-184.949 -99.534)"/><path class="c" d="M401.8,170.39c.049,0,.086.214.086.483s-.037.489-.086.489-.079-.22-.079-.489S401.757,170.39,401.8,170.39Z" transform="translate(-184.949 -98.296)"/><path class="c" d="M401.8,167.21c.049,0,.086.214.086.483s-.037.489-.086.489-.079-.22-.079-.489S401.757,167.21,401.8,167.21Z" transform="translate(-184.949 -97.059)"/><path class="c" d="M401.8,164c.049,0,.086.214.086.483s-.037.489-.086.489-.079-.22-.079-.489S401.757,164,401.8,164Z" transform="translate(-184.949 -95.809)"/><path class="c" d="M401.8,160.85c.049,0,.086.214.086.483s-.037.489-.086.489-.079-.22-.079-.489S401.757,160.85,401.8,160.85Z" transform="translate(-184.949 -94.583)"/><path class="c" d="M401.8,157.67c.049,0,.086.214.086.483s-.037.489-.086.489-.079-.22-.079-.489S401.757,157.67,401.8,157.67Z" transform="translate(-184.949 -93.346)"/><path class="c" d="M401.8,154.49c.049,0,.086.214.086.483s-.037.489-.086.489-.079-.22-.079-.489S401.757,154.49,401.8,154.49Z" transform="translate(-184.949 -92.108)"/><path class="c" d="M401.8,151.31c.049,0,.086.214.086.483s-.037.489-.086.489-.079-.22-.079-.489S401.757,151.31,401.8,151.31Z" transform="translate(-184.949 -90.871)"/><path class="c" d="M404.021,150.859c0,.049-.22.086-.489.086s-.483-.037-.483-.086.22-.079.483-.079S404.021,150.817,404.021,150.859Z" transform="translate(-185.467 -90.665)"/><path class="c" d="M407.2,150.859c0,.049-.22.086-.489.086s-.483-.037-.483-.086.22-.079.483-.079S407.2,150.817,407.2,150.859Z" transform="translate(-186.704 -90.665)"/><path class="c" d="M410.381,150.859c0,.049-.22.086-.489.086s-.483-.037-.483-.086.22-.079.483-.079S410.381,150.817,410.381,150.859Z" transform="translate(-187.942 -90.665)"/><path class="c" d="M413.561,150.859c0,.049-.22.086-.489.086s-.483-.037-.483-.086.214-.079.483-.079S413.561,150.817,413.561,150.859Z" transform="translate(-189.179 -90.665)"/><path class="c" d="M416.741,150.859c0,.049-.22.086-.489.086s-.483-.037-.483-.086.214-.079.483-.079S416.741,150.817,416.741,150.859Z" transform="translate(-190.417 -90.665)"/><path class="c" d="M419.921,150.859c0,.049-.22.086-.489.086s-.483-.037-.483-.086.214-.079.483-.079S419.921,150.817,419.921,150.859Z" transform="translate(-191.655 -90.665)"/><path class="c" d="M423.1,150.859c0,.049-.22.086-.489.086s-.483-.037-.483-.086.214-.079.483-.079S423.1,150.817,423.1,150.859Z" transform="translate(-192.892 -90.665)"/><path class="c" d="M426.281,150.859c0,.049-.22.086-.489.086s-.483-.037-.483-.086.214-.079.483-.079S426.281,150.817,426.281,150.859Z" transform="translate(-194.13 -90.665)"/><path class="c" d="M429.461,150.859c0,.049-.22.086-.489.086s-.483-.037-.483-.086.214-.079.483-.079S429.461,150.817,429.461,150.859Z" transform="translate(-195.367 -90.665)"/><path class="c" d="M432.641,150.859c0,.049-.22.086-.489.086s-.483-.037-.483-.086.214-.079.483-.079S432.641,150.817,432.641,150.859Z" transform="translate(-196.605 -90.665)"/><path class="c" d="M435.821,150.859c0,.049-.22.086-.489.086s-.483-.037-.483-.086.214-.079.483-.079S435.821,150.817,435.821,150.859Z" transform="translate(-197.842 -90.665)"/><path class="c" d="M439,150.859c0,.049-.22.086-.489.086s-.483-.037-.483-.086.214-.079.483-.079S439,150.817,439,150.859Z" transform="translate(-199.08 -90.665)"/><path class="c" d="M442.181,150.859c0,.049-.22.086-.489.086s-.483-.037-.483-.086.214-.079.483-.079S442.181,150.817,442.181,150.859Z" transform="translate(-200.318 -90.665)"/><path class="c" d="M445.381,150.859c0,.049-.22.086-.489.086s-.483-.037-.483-.086.214-.079.483-.079S445.381,150.817,445.381,150.859Z" transform="translate(-201.563 -90.665)"/><path class="c" d="M448.541,150.859c0,.049-.22.086-.489.086s-.483-.037-.483-.086.214-.079.483-.079S448.541,150.817,448.541,150.859Z" transform="translate(-202.793 -90.665)"/><path class="c" d="M451.721,150.859c0,.049-.22.086-.489.086s-.483-.037-.483-.086.214-.079.483-.079S451.721,150.817,451.721,150.859Z" transform="translate(-204.03 -90.665)"/><path class="c" d="M454.9,150.859c0,.049-.22.086-.489.086s-.483-.037-.483-.086.214-.079.483-.079S454.9,150.817,454.9,150.859Z" transform="translate(-205.268 -90.665)"/><path class="c" d="M457.949,150.967a.273.273,0,0,1-.055-.128l.055.061a2.626,2.626,0,0,1-.36,0c-.269,0-.489-.037-.489-.086s.22-.079.489-.079a1.914,1.914,0,0,1,.36,0h.067v.043C457.992,150.893,457.973,150.967,457.949,150.967Z" transform="translate(-206.501 -90.644)"/><ellipse class="c" cx="0.086" cy="0.483" rx="0.086" ry="0.483" transform="translate(251.362 61.294)"/><path class="c" d="M458.435,156.861c-.043,0-.086-.22-.086-.489s.043-.483.086-.483.086.214.086.483S458.484,156.861,458.435,156.861Z" transform="translate(-206.988 -92.653)"/><path class="c" d="M458.435,160.041c-.043,0-.086-.22-.086-.489s.043-.483.086-.483.086.214.086.483S458.484,160.041,458.435,160.041Z" transform="translate(-206.988 -93.891)"/><path class="c" d="M458.435,163.221c-.043,0-.086-.22-.086-.489s.043-.483.086-.483.086.214.086.483S458.484,163.221,458.435,163.221Z" transform="translate(-206.988 -95.128)"/><path class="c" d="M458.435,166.381c-.043,0-.086-.22-.086-.489s.043-.483.086-.483.086.214.086.483S458.484,166.381,458.435,166.381Z" transform="translate(-206.988 -96.358)"/><ellipse class="c" cx="0.086" cy="0.483" rx="0.086" ry="0.483" transform="translate(251.362 71.007)"/><ellipse class="c" cx="0.086" cy="0.483" rx="0.086" ry="0.483" transform="translate(251.362 72.949)"/><path class="c" d="M458.435,175.941c-.043,0-.086-.22-.086-.489s.043-.483.086-.483.086.214.086.483S458.484,175.941,458.435,175.941Z" transform="translate(-206.988 -100.079)"/><path class="c" d="M458.435,179.111c-.043,0-.086-.214-.086-.483s.043-.489.086-.489.086.22.086.489S458.484,179.111,458.435,179.111Z" transform="translate(-206.988 -101.312)"/><path class="c" d="M458.435,182.291c-.043,0-.086-.214-.086-.483s.043-.489.086-.489.086.22.086.489S458.484,182.291,458.435,182.291Z" transform="translate(-206.988 -102.55)"/><path class="c" d="M458.435,185.471c-.043,0-.086-.214-.086-.483s.043-.489.086-.489.086.22.086.489S458.484,185.471,458.435,185.471Z" transform="translate(-206.988 -103.787)"/><path class="c" d="M458.435,188.651c-.043,0-.086-.214-.086-.483s.043-.489.086-.489.086.22.086.489S458.484,188.651,458.435,188.651Z" transform="translate(-206.988 -105.025)"/><ellipse class="c" cx="0.086" cy="0.483" rx="0.086" ry="0.483" transform="translate(251.362 84.604)"/><ellipse class="c" cx="0.086" cy="0.483" rx="0.086" ry="0.483" transform="translate(251.362 86.546)"/><path class="c" d="M458.435,198.191c-.043,0-.086-.214-.086-.483s.043-.489.086-.489.086.22.086.489S458.484,198.191,458.435,198.191Z" transform="translate(-206.988 -108.738)"/><path class="c" d="M458.435,201.381c-.043,0-.086-.214-.086-.483s.043-.489.086-.489.086.22.086.489S458.484,201.381,458.435,201.381Z" transform="translate(-206.988 -109.979)"/><path class="c" d="M458.435,204.551c-.043,0-.086-.214-.086-.483s.043-.489.086-.489.086.22.086.489S458.484,204.551,458.435,204.551Z" transform="translate(-206.988 -111.213)"/><rect class="d" width="2.559" height="2.559" transform="translate(250.165 93.161)"/><rect class="d" width="2.559" height="2.559" transform="translate(215.574 93.509)"/><rect class="d" width="2.559" height="2.559" transform="translate(250.165 58.668)"/><rect class="d" width="2.559" height="2.559" transform="translate(215.574 58.918)"/><path class="e" d="M388.3,71.633l-6.682,1.71-.324,2.052a4.319,4.319,0,0,0,0,1.619,1.307,1.307,0,0,0,.935,1.008,5.424,5.424,0,0,0,1.942-.14l.134.519L378,80l-.128-.519a2.932,2.932,0,0,0,1.46-1.271,11.606,11.606,0,0,0,.886-3.274L383.123,58.1l.269-.067,10.8,13.78a9.774,9.774,0,0,0,2.321,2.37,2.242,2.242,0,0,0,1.466.159l.134.519L388.95,77.2l-.134-.513.379-.1a2.981,2.981,0,0,0,1.472-.7.77.77,0,0,0,.14-.721,1.6,1.6,0,0,0-.214-.495c-.043-.079-.269-.4-.69-.941Zm-.739-.91-4.49-5.8-1.222,7.269Z" transform="translate(-175.667 -54.569)"/><path class="e" d="M54.384,197.07,46.84,224.423l9.248,6.591,20.793,5.07,8.246-30.877Z" transform="translate(-46.84 -108.679)"/><path class="a" d="M50.853,239.84l-4.013,1.222a12.125,12.125,0,0,0,3.25,3.763,17.537,17.537,0,0,0,6,2.81A11.644,11.644,0,0,1,50.853,239.84Z" transform="translate(-46.84 -125.324)"/><path class="c" d="M84.8,220.954c0,.049-5.259-1.289-11.716-2.993S61.4,214.834,61.42,214.779s5.253,1.295,11.71,3S84.809,220.9,84.8,220.954Z" transform="translate(-52.514 -115.57)"/><path class="c" d="M82.8,227.808c0,.055-5.253-1.289-11.71-2.993s-11.679-3.121-11.667-3.176,5.259,1.289,11.716,2.993S82.815,227.759,82.8,227.808Z" transform="translate(-51.736 -118.24)"/><path class="c" d="M81.389,233.989c0,.049-5.253-1.289-11.71-2.993S58,227.868,58,227.819s5.259,1.289,11.716,2.993S81.407,233.94,81.389,233.989Z" transform="translate(-51.183 -120.645)"/><path class="c" d="M79.806,239.869c0,.049-5.259-1.289-11.716-2.993S56.418,233.748,56.43,233.7s5.253,1.289,11.71,2.993S79.819,239.82,79.806,239.869Z" transform="translate(-50.572 -122.934)"/><rect class="f" width="23.211" height="18.557" transform="matrix(0.968, -0.252, 0.252, 0.968, 6.274, 21.37)"/><rect class="e" width="21.581" height="16.217" transform="matrix(0.968, -0.252, 0.252, 0.968, 7.337, 22.303)"/><path class="d" d="M65.54,107.145,70.292,95.49l6.108,4.929,2.217-4.062,7.806,5.351Z" transform="translate(-54.118 -69.147)"/><path class="c" d="M81.22,89.977a1.7,1.7,0,1,1-.782-1.04,1.7,1.7,0,0,1,.782,1.04Z" transform="translate(-58.919 -66.505)"/><rect class="f" width="35.074" height="28.037" transform="translate(17.438 2.465) rotate(-4.03)"/><rect class="e" width="32.606" height="24.506" transform="translate(18.768 4.141) rotate(-4.03)"/><path class="d" d="M80.39,88.968l10.286-16,7.709,9.016,4.416-5.418,10.115,10.109Z" transform="translate(-59.897 -60.383)"/><path class="d" d="M110.157,67.248a2.572,2.572,0,1,1-2.743-2.382,2.572,2.572,0,0,1,2.743,2.382Z" transform="translate(-69.482 -57.227)"/><path class="c" d="M424.83,331.314a3.054,3.054,0,1,1,3.054,3.054A3.054,3.054,0,0,1,424.83,331.314Z" transform="translate(-193.943 -159.735)"/><circle class="c" cx="1.912" cy="1.912" r="1.912" transform="translate(240.159 153.328)"/><path class="c" d="M426.561,282.895a1.753,1.753,0,1,1,2.217,1.1,1.753,1.753,0,0,1-2.217-1.1Z" transform="translate(-194.58 -141.178)"/><circle class="c" cx="2.853" cy="2.853" r="2.853" transform="translate(218.567 199.928)"/><circle class="c" cx="2.046" cy="2.046" r="2.046" transform="translate(220.057 223.03)"/><path class="c" d="M407.3,458.374a1.454,1.454,0,1,1-1.454-1.454,1.454,1.454,0,0,1,1.454,1.454Z" transform="translate(-185.988 -209.805)"/><circle class="c" cx="2.853" cy="2.853" r="2.853" transform="translate(227.057 199.928)"/><path class="c" d="M440.693,416.186a2.046,2.046,0,1,1-2.046-2.046,2.046,2.046,0,0,1,2.046,2.046Z" transform="translate(-198.523 -193.157)"/><path class="c" d="M428.331,453.567a1.454,1.454,0,1,1-1.093-1.741,1.454,1.454,0,0,1,1.093,1.741Z" transform="translate(-194.188 -207.809)"/><path class="c" d="M416.253,353.556a4.722,4.722,0,1,1-4.722-4.716A4.722,4.722,0,0,1,416.253,353.556Z" transform="translate(-186.93 -167.744)"/><path class="c" d="M415.728,321.674a3.054,3.054,0,1,1-3.054-3.054A3.054,3.054,0,0,1,415.728,321.674Z" transform="translate(-188.024 -155.983)"/><path class="c" d="M398.848,331.314a3.054,3.054,0,1,1-3.054-3.054A3.054,3.054,0,0,1,398.848,331.314Z" transform="translate(-181.454 -159.735)"/><path class="c" d="M385.114,358.782a1.912,1.912,0,1,1-1.912-1.912A1.912,1.912,0,0,1,385.114,358.782Z" transform="translate(-176.998 -170.869)"/><path class="c" d="M398.826,381.385a1.753,1.753,0,1,1-2.223-1.093A1.753,1.753,0,0,1,398.826,381.385Z" transform="translate(-182.495 -179.948)"/><path class="f" d="M439.27,308.8s-4.887,11.025-6.878,13.383a10.994,10.994,0,0,1-3.592-2.15s5.852-11.233,6.841-13.114Z" transform="translate(-195.488 -151.43)"/><path class="f" d="M438.225,295.184c-.073-.232-7.739-11.844-7.739-11.844l-3.366,2.321,7.33,12.082Z" transform="translate(-194.834 -142.253)"/><path class="f" d="M430.45,277.14s4.966-5.583,1.49-7.489-4.4,4.673-4.086,6.56l2.743,1.038" transform="translate(-195.098 -136.793)"/><path class="c" d="M421.25,471.131H397.11a7.641,7.641,0,0,1,7.641-7.641h8.857A7.641,7.641,0,0,1,421.25,471.131Z" transform="translate(-183.155 -212.362)"/><path class="c" d="M415.134,362.4c.073,0,.134,13.872.134,30.987s-.061,30.993-.134,30.993S415,410.5,415,393.387,415.061,362.4,415.134,362.4Z" transform="translate(-190.117 -173.021)"/><path class="f" d="M404.9,359.03s-2.828,4.587-2.046,13.652h14.819s.922-10.781-2.59-13.9Z" transform="translate(-185.337 -171.612)"/><path class="f" d="M403.92,388.25h6.8l-.641,19.18h-4.654Z" transform="translate(-185.805 -183.081)"/><path class="f" d="M405.325,421.81l-1.4,22.008,3.4.647,3.042-22.014Z" transform="translate(-185.805 -196.142)"/><path class="f" d="M401.48,461.7a2.833,2.833,0,0,1,2.785-2.8c2.737-.1,3.054,2.8,3.054,2.8Z" transform="translate(-184.856 -210.574)"/><path class="f" d="M420.15,387.668l6.182-2.828,7.4,17.7-4.239,1.936Z" transform="translate(-192.122 -181.754)"/><path class="f" d="M431.653,417.49l-6.273,21.147,3.17,1.387,7.867-20.787Z" transform="translate(-194.157 -194.46)"/><path class="f" d="M422.93,456.2c.177.293,8.368,3.36,8.368,3.36s1.942-1.735-4.184-4.52l-1.307-.611a1.942,1.942,0,0,0-2.645,1.112Z" transform="translate(-193.203 -208.765)"/><path class="f" d="M402.136,325.864c-.226.049.189,12.125,2.84,16.608,0,0,9.517-.312,9.773,0s3.317-10.512,3.054-16.321A30.508,30.508,0,0,0,402.136,325.864Z" transform="translate(-185.09 -158.469)"/><path class="f" d="M409.208,295.707s-6.108.134-4.96,7.867,2.376,7.733,2.443,7.941,7.635-.525,7.635-.525S418.462,295.377,409.208,295.707Z" transform="translate(-185.877 -147.064)"/><path class="f" d="M381.63,348.033s4.887-10.995,6.878-13.383a11,11,0,0,1,3.592,2.15s-5.858,11.19-6.86,13.084Z" transform="translate(-177.131 -162.221)"/><path class="f" d="M382.27,362.149c.073.232,7.739,11.844,7.739,11.844l3.36-2.315-7.33-12.088Z" transform="translate(-177.38 -171.927)"/><path class="f" d="M393.417,384.934s-4.96,5.583-1.484,7.489,4.4-4.667,4.086-6.56l-2.743-1.032" transform="translate(-180.659 -181.75)"/></g><g transform="translate(97.715 43.057)"><path class="d" d="M282.287,132.1c.568-5.076-3.054-9.6-6.78-13.121s-7.9-7.11-8.979-12.107c-.831-3.824.36-7.751.9-11.606s.177-8.374-2.853-10.848c-5.32-4.361-14.495.079-19.9-4.178-5.748-4.532-.611-14.764-7.067-18.19-6.243-3.3-11.447,6.414-15.216-1.735-5.058-10.946-14.9-4.838-14.9-4.838-3.867,2.8-5.895,10.018-10.518,11.2-6.847,1.741-14.049-6.6-20.3-3.3-6.469,3.421-3.207,14.745-8.955,19.278-5.4,4.276-14.495-.8-19.815,3.555-3.054,2.48-3.39,6.976-2.853,10.848s1.729,7.8.9,11.606c-1.075,5-5.284,8.552-8.979,12.113s-7.33,8.039-6.78,13.115c.611,5.583,6.108,9.462,7.574,14.886,2.181,8.075-5.125,16.773-2.162,24.6,3.732,9.847,19.369,8.765,25.4,17.4,2.272,3.25,2.791,7.4,4.532,10.958,3.818,7.813,13.139,11.679,21.831,11.557,7.33-.1,14.379-2.51,21.226-5.247a51.426,51.426,0,0,0,16.529,3.457c8.692.122,18.013-3.751,21.831-11.557,1.741-3.561,2.26-7.709,4.532-10.958,6.029-8.637,21.666-7.55,25.4-17.4,2.963-7.825-4.343-16.492-2.162-24.6C276.173,141.574,281.658,137.695,282.287,132.1Z" transform="translate(-130.129 -53.778)"/></g><g transform="translate(108.913 61.317)"><path class="f" d="M180.943,132.646l6.658-7.874a1.222,1.222,0,0,0-.122-1.753L157.371,97.553a1.222,1.222,0,0,0-1.747.165l-6.664,7.874a1.222,1.222,0,0,0,.128,1.759l30.1,25.459a1.222,1.222,0,0,0,1.753-.165Z" transform="translate(-148.533 -88.96)"/><path class="g" d="M180.871,132.566a1.259,1.259,0,0,1-.2.2,1.3,1.3,0,0,1-.733.293,1.222,1.222,0,0,1-.611-.14,4.037,4.037,0,0,1-.611-.44l-1.38-1.161c-2.089-1.747-5.094-4.276-8.8-7.4L155.509,112.9l-3.763-3.182c-.647-.538-1.295-1.087-1.949-1.643-.33-.281-.654-.538-.99-.849a1.344,1.344,0,0,1-.281-1.319,1.662,1.662,0,0,1,.36-.611l.428-.5.855-1.014,1.735-2.046,3.543-4.19a1.387,1.387,0,0,1,1.356-.458,1.472,1.472,0,0,1,.611.354l.519.446c.7.611,1.393,1.173,2.083,1.759l4.068,3.439,7.684,6.511,13.06,11.056,2.639,2.242a1.313,1.313,0,0,1,.312,1.533,3.054,3.054,0,0,1-.464.611l-.476.556-3.231,3.8-2.034,2.37-.538.611-.183.2.171-.22.513-.611,2-2.4,3.182-3.787.47-.568a2.9,2.9,0,0,0,.446-.611,1.173,1.173,0,0,0-.287-1.374l-2.645-2.23-13.035-10.995-7.7-6.5q-2-1.692-4.068-3.439l-2.077-1.759-.489-.452a1.179,1.179,0,0,0-.55-.305,1.161,1.161,0,0,0-1.142.385l-3.561,4.2-1.735,2.052-.855,1.014-.428.5a1.472,1.472,0,0,0-.324.519,1.136,1.136,0,0,0,.238,1.112c.293.275.647.556.965.831l1.942,1.643,3.763,3.189,13,11.032,8.759,7.428,1.368,1.173a3.739,3.739,0,0,0,.562.44,1.173,1.173,0,0,0,.562.147,1.32,1.32,0,0,0,.751-.25C180.8,132.64,180.865,132.56,180.871,132.566Z" transform="translate(-148.461 -88.881)"/><rect class="h" width="7.208" height="10.506" transform="translate(7.024 22.394) rotate(-140.14)"/><rect class="h" width="7.208" height="10.506" transform="translate(25.043 37.435) rotate(-140.14)"/><rect class="h" width="7.208" height="10.506" transform="translate(19.029 32.418) rotate(-140.14)"/><rect class="h" width="7.208" height="10.506" transform="translate(13.01 27.397) rotate(-140.14)"/><g class="i" transform="translate(1.497 9.71)"><rect width="10.506" height="7.208" transform="translate(0 8.065) rotate(-50.14)"/></g><g class="j" transform="translate(19.51 24.75)"><rect width="7.208" height="10.506" transform="translate(5.533 12.684) rotate(-140.14)"/></g><g class="k" transform="translate(13.497 19.733)"><rect width="7.208" height="10.506" transform="translate(5.533 12.684) rotate(-140.14)"/></g><g class="l" transform="translate(7.478 14.713)"><rect width="7.208" height="10.506" transform="translate(5.533 12.684) rotate(-140.14)"/></g><path class="f" d="M183.972,129.15l8.466-5.882a1.222,1.222,0,0,0,.342-1.71L170.558,89.672a1.222,1.222,0,0,0-1.723-.275l-8.466,5.895a1.222,1.222,0,0,0-.336,1.71l22.216,31.891a1.222,1.222,0,0,0,1.723.257Z" transform="translate(-152.882 -85.807)"/><path class="g" d="M183.919,129.063a.911.911,0,0,1-.232.147,1.313,1.313,0,0,1-.8.073,1.185,1.185,0,0,1-.531-.269,3.666,3.666,0,0,1-.44-.574l-1.026-1.454c-1.551-2.205-3.781-5.387-6.53-9.315s-6.029-8.619-9.663-13.823l-2.785-3.995-1.423-2.065-.367-.525a3.53,3.53,0,0,1-.348-.562,1.35,1.35,0,0,1,.208-1.326,2.443,2.443,0,0,1,.519-.434l.531-.373,1.075-.745,2.181-1.521,4.453-3.1a1.38,1.38,0,0,1,1.411-.1,1.411,1.411,0,0,1,.525.495l.391.562,1.539,2.211,3.011,4.325,5.669,8.173,9.621,13.854c.684.99,1.338,1.918,1.949,2.828a1.3,1.3,0,0,1-.25,1.527,13.824,13.824,0,0,1-1.222.867l-4.019,2.779-2.547,1.753-.666.446c-.153.1-.232.147-.232.147l.22-.165.654-.464,2.523-1.784,4.007-2.816c.379-.275.812-.544,1.222-.855a1.173,1.173,0,0,0,.22-1.374c-.611-.88-1.271-1.832-1.949-2.8l-9.663-13.829c-1.832-2.6-3.72-5.339-5.7-8.167l-3.011-4.325-1.57-2.211-.391-.556a1.124,1.124,0,0,0-.452-.428,1.154,1.154,0,0,0-1.185.092l-4.453,3.1L162.211,94l-1.075.751-.531.373a2.205,2.205,0,0,0-.476.391,1.148,1.148,0,0,0-.177,1.112,2.724,2.724,0,0,0,.33.519l.36.525,1.442,2.065,2.779,4,9.621,13.854,6.475,9.352c.379.55.715,1.045,1.014,1.466a3.12,3.12,0,0,0,.421.568,1.142,1.142,0,0,0,.507.269,1.222,1.222,0,0,0,.776-.055A1.687,1.687,0,0,0,183.919,129.063Z" transform="translate(-152.829 -85.726)"/><rect class="h" width="7.208" height="10.506" transform="translate(12.973 17.109) rotate(-125.2)"/><rect class="h" width="7.239" height="10.552" transform="matrix(-0.577, -0.816, 0.816, -0.577, 26.302, 35.684)"/><rect class="h" width="7.208" height="10.506" transform="translate(21.986 29.882) rotate(-125.2)"/><rect class="h" width="7.208" height="10.506" transform="translate(17.469 23.483) rotate(-125.2)"/><g class="j" transform="translate(8.818 5.164)"><rect width="7.208" height="10.506" transform="translate(4.155 11.946) rotate(-125.2)"/></g><g class="m" transform="translate(17.832 17.936)"><rect width="7.208" height="10.506" transform="translate(4.155 11.946) rotate(-125.2)"/></g><g class="n" transform="translate(13.314 11.537)"><rect width="7.208" height="10.506" transform="translate(4.155 11.946) rotate(-125.2)"/></g><path class="f" d="M190.252,128.353l9.773-3.231a1.264,1.264,0,0,0,.794-1.6L188.059,84.74a1.264,1.264,0,0,0-1.594-.782l-9.773,3.231a1.258,1.258,0,0,0-.794,1.6l12.785,38.782A1.264,1.264,0,0,0,190.252,128.353Z" transform="translate(-159.112 -83.758)"/><path class="g" d="M190.164,128.267a.946.946,0,0,1-.275.067,1.27,1.27,0,0,1-.812-.189,1.387,1.387,0,0,1-.428-.452,5.371,5.371,0,0,1-.263-.7l-.611-1.759c-.886-2.651-2.162-6.481-3.732-11.209s-3.439-10.384-5.5-16.633q-.776-2.346-1.588-4.807c-.275-.819-.544-1.643-.825-2.48-.134-.421-.275-.837-.415-1.264a1.637,1.637,0,0,1-.11-.7,1.4,1.4,0,0,1,.244-.672,1.368,1.368,0,0,1,.562-.458c.226-.092.434-.147.647-.22l1.295-.428,2.62-.867,5.351-1.765a1.374,1.374,0,0,1,1.417.36,1.564,1.564,0,0,1,.36.66l.22.672.88,2.657,1.71,5.2,3.256,9.828c2.052,6.267,3.909,11.905,5.461,16.651.391,1.179.757,2.309,1.112,3.378.043.134.086.263.122.409a1.258,1.258,0,0,1,0,.428,1.277,1.277,0,0,1-.342.757,1.448,1.448,0,0,1-.7.4l-.715.238-4.832,1.57-3.054.99-.794.25-.275.079.269-.1.788-.275,3.054-1.026,4.826-1.606.715-.238a1.362,1.362,0,0,0,.641-.373,1.222,1.222,0,0,0,.305-.684,1.631,1.631,0,0,0-.147-.782c-.354-1.063-.727-2.193-1.124-3.378-1.564-4.734-3.433-10.384-5.5-16.633l-3.244-9.822-1.735-5.2c-.287-.88-.611-1.765-.873-2.657l-.226-.672a1.338,1.338,0,0,0-.305-.574,1.167,1.167,0,0,0-1.222-.305L181.057,85.7l-2.62.861-1.295.428c-.208.073-.44.14-.611.214a1.112,1.112,0,0,0-.47.385,1.222,1.222,0,0,0-.11,1.185l.415,1.258c.275.837.55,1.661.819,2.486l1.582,4.807,5.467,16.645,3.665,11.233.568,1.759a5.66,5.66,0,0,0,.25.7,1.35,1.35,0,0,0,.4.44,1.222,1.222,0,0,0,.788.2,1.934,1.934,0,0,0,.257-.037Z" transform="translate(-159.025 -83.671)"/><path class="g" d="M199.5,151.867c.043,0,.061.495.312,1.35a7.4,7.4,0,0,0,1.93,3.164,7.11,7.11,0,0,0,4.99,1.967,6.988,6.988,0,0,0,2.7-13.383,7.159,7.159,0,0,0-3.665-.611l-.611.079a2.195,2.195,0,0,0-.428.086,1.306,1.306,0,0,1-.36.055,1.349,1.349,0,0,1,.336-.14,4.176,4.176,0,0,1,.428-.128l.611-.122a7.2,7.2,0,0,1,6.035,1.955,7.324,7.324,0,0,1,.977,9.358,7.733,7.733,0,0,1-1.222,1.4,7.3,7.3,0,0,1-10.018-.293,7.214,7.214,0,0,1-1.869-3.335,5.5,5.5,0,0,1-.159-1.038.959.959,0,0,1,.012-.367Z" transform="translate(-168.316 -107.192)"/><path class="g" d="M204.092,143.21a1.57,1.57,0,1,1-1,1.985,1.57,1.57,0,0,1,1-1.985Z" transform="translate(-169.691 -106.812)"/><rect class="h" width="7.208" height="10.506" transform="matrix(-0.313, -0.95, 0.95, -0.313, 20.331, 11.42)"/><rect class="h" width="7.208" height="10.506" transform="matrix(-0.313, -0.95, 0.95, -0.313, 22.767, 18.826)"/><rect class="h" width="7.208" height="10.506" transform="matrix(-0.313, -0.95, 0.95, -0.313, 25.221, 26.269)"/><rect class="h" width="7.208" height="10.506" transform="matrix(-0.313, -0.95, 0.95, -0.313, 27.678, 33.708)"/><g class="i" transform="translate(25.421 23.572)"><rect class="o" width="7.208" height="10.506" transform="matrix(-0.313, -0.95, 0.95, -0.313, 2.257, 10.135)"/></g><g class="k" transform="translate(22.964 16.134)"><rect class="o" width="7.208" height="10.506" transform="matrix(-0.313, -0.95, 0.95, -0.313, 2.257, 10.135)"/></g><g class="n" transform="translate(20.51 8.691)"><rect class="o" width="7.208" height="10.506" transform="matrix(-0.313, -0.95, 0.95, -0.313, 2.257, 10.135)"/></g></g><g transform="translate(200.516 57.046)"><path class="p" d="M298.453,86.386l5.821,27.011,24.433-15.344-3.75-20.438a1.136,1.136,0,0,0-1.484-.873L299.2,85.067A1.136,1.136,0,0,0,298.453,86.386Z" transform="translate(-298.427 -76.681)"/><path class="p" d="M332.841,135.442l-24.861-8.491,24.464-15.442,17.335,2.956Z" transform="translate(-302.145 -90.235)"/><path class="g" d="M306.859,112.6,329.13,98.625l-3.922-19.6-23.5,8.5Z" transform="translate(-299.704 -77.595)"/><path class="g" d="M313.033,127.4,334.888,113h0l9.773,1.955h.122l-.092.086-.941.886-16.6,15.564h-.031l-14.135-4.08,14.165,3.989h-.049l16.578-15.588.941-.88v.11l-9.773-1.961h.043Z" transform="translate(-304.094 -90.815)"/><path class="g" d="M354.883,123.9l.391.067,1.118.226,4.044.825h.086l-.055.067-4.587,5.43v.031h-.043l-.324-.092-5.791-1.655h-.092l.067-.067,3.769-3.5,1.063-.977c.244-.226.379-.336.379-.336l-.373.373-1.045,1-3.714,3.518v-.1l5.8,1.643.324.092h-.067l4.606-5.412.031.086-4.019-.873-1.118-.25A1.667,1.667,0,0,1,354.883,123.9Z" transform="translate(-318.353 -95.057)"/><path class="g" d="M358.74,124.47s-1.014,1.222-2.327,2.62-2.4,2.565-2.443,2.541A34.274,34.274,0,0,1,356.3,127C357.61,125.6,358.715,124.445,358.74,124.47Z" transform="translate(-320.042 -95.279)"/><path class="o" d="M323.5,107.571a.75.75,0,0,1,.049-.22c.049-.14.11-.373.171-.611l.654-2.242c.574-1.955,1.338-4.538,2.181-7.4,1.576-5.3,2.657-8.906,3.115-10.451a2.053,2.053,0,0,1-.037.22c-.031.14-.092.348-.159.611-.165.611-.379,1.344-.611,2.248-.574,1.955-1.332,4.538-2.168,7.4l-2.217,7.385c-.281.9-.507,1.649-.69,2.236-.073.226-.141.428-.2.611S323.5,107.571,323.5,107.571Z" transform="translate(-308.184 -80.56)"/><path class="o" d="M322.129,107.117c-.031,0,.69-2.682,1.625-5.962s1.71-5.931,1.741-5.925-.69,2.675-1.613,5.968S322.166,107.123,322.129,107.117Z" transform="translate(-307.651 -83.9)"/></g><g transform="translate(168.805 89.166)"><path class="b" d="M394.119,165.37l-28.434,4.117-1.894,7.519-3.7,2.266,7.336,11.52,3.7-2.437,7.849,1.032Z" transform="translate(-290.713 -143.316)"/><path class="g" d="M394.049,165.37,378.98,189.437l-.031.043H378.9l-7.849-1.02h.067l-3.708,2.443-.079.055-.049-.079L363.538,185l-3.573-5.675-.055-.086.055-.043,3.7-2.26-.043.055q.99-3.9,1.9-7.519v-.055h.061l28.446-4.025L365.609,169.6l.073-.067-1.887,7.519v.037h0l-3.7,2.26.031-.134,3.592,5.638,3.744,5.882h-.134l3.708-2.443h.061L378.9,189.3l-.086.043C387.782,175.241,393.622,166.036,394.049,165.37Z" transform="translate(-290.643 -143.316)"/><path class="g" d="M386.762,185.777a4.1,4.1,0,0,1-5.717-1.222,4.239,4.239,0,0,1,1.222-5.809,4.086,4.086,0,0,1,5.711,1.222A4.239,4.239,0,0,1,386.762,185.777Z" transform="translate(-298.608 -148.257)"/><path class="g" d="M404.65,165.37c.031.043-3.867,2.755-8.7,6.047s-8.772,5.937-8.8,5.888,3.86-2.755,8.7-6.047S404.62,165.321,404.65,165.37Z" transform="translate(-301.244 -143.315)"/><path class="h" d="M247.573,243.39h0a6.762,6.762,0,0,1,1.918-9.242l62.6-41.658,7.159,11.251-62.537,41.591a6.524,6.524,0,0,1-9.138-1.942Z" transform="translate(-246.511 -153.87)"/><path class="h" d="M361.351,202.353l-8.411-13.224,4.52-2.969,8.417,13.224Z" transform="translate(-287.93 -151.407)"/><path class="h" d="M413.717,166.226l-1.637-2.394,2.358-1.661,1.637,2.394Z" transform="translate(-310.946 -142.07)"/><path class="h" d="M420.087,171.255c-.122.086-6.414-8.93-14.049-20.157s-13.731-20.353-13.609-20.438,6.408,8.924,14.049,20.127S420.2,171.182,420.087,171.255Z" transform="translate(-303.297 -129.807)"/><path class="h" d="M437.363,196.846a.843.843,0,0,1-1.185-.214.874.874,0,0,1,.214-1.222.837.837,0,0,1,1.185.22.867.867,0,0,1-.214,1.216Z" transform="translate(-320.262 -154.946)"/><path class="h" d="M392.363,130.856a.843.843,0,0,1-1.185-.214.874.874,0,0,1,.214-1.222.837.837,0,0,1,1.185.22.867.867,0,0,1-.214,1.216Z" transform="translate(-302.749 -129.265)"/><path class="q" d="M353.489,192.49l7.159,11.251-1.674,1.112-6.084-11.96Z" transform="translate(-287.911 -153.87)"/><path class="r" d="M362.927,192.09l-1.857,6.89.99,1.826,1.912-7.079Z" transform="translate(-291.094 -153.714)"/></g><g transform="translate(79.415 108.539)"><path class="h" d="M100.17,160.98l10.854,20.151L157.5,217.873l10.708-14.849L122.581,167.21Z" transform="translate(-100.17 -160.98)"/><g class="l" transform="translate(0 0.012)"><path class="o" d="M122.581,167.218a1.35,1.35,0,0,1-1.661,1.356,4.074,4.074,0,0,1-4.276,6.444,4.758,4.758,0,0,1-5.723,5.974L100.17,161Z" transform="translate(-100.17 -161)"/></g><path class="h" d="M104.543,169.086s4.343.611,4.819-5.552L100.2,160.98Z" transform="translate(-100.182 -160.98)"/><path class="q" d="M123.533,184l45.745,35.6-4.887,7.263-46.5-36.754-.079-.147a4.636,4.636,0,0,0,2.089.049,4.887,4.887,0,0,0,2.443-1.277,4.685,4.685,0,0,0,1.4-2.981,4.8,4.8,0,0,0-.208-1.753Z" transform="translate(-107.035 -169.939)"/><path class="q" d="M134.14,172.536,180.056,208.9l1.374-1.906L135.8,171.18a1.435,1.435,0,0,1-1.325,1.411A1.746,1.746,0,0,1,134.14,172.536Z" transform="translate(-113.39 -164.95)"/><path class="o" d="M116.909,179.767a.36.36,0,0,0,.208.134.5.5,0,0,0,.568-.342,1.887,1.887,0,0,0-.086-1.154,1.222,1.222,0,0,0-.421-.568.8.8,0,0,0-.751-.1,1.051,1.051,0,0,0-.531.672,3.506,3.506,0,0,0-.14.965,5.259,5.259,0,0,0,.367,2.126,1.338,1.338,0,0,0,.776.788A1.179,1.179,0,0,0,117.99,182a3.158,3.158,0,0,0,.788-2.352,4.538,4.538,0,0,0-2.443-4.013,1.179,1.179,0,0,0-1.045.061,2.12,2.12,0,0,0-.721.733,6.035,6.035,0,0,0-.733,1.741,6.927,6.927,0,0,0-.147,2.737c.055.324.11.574.153.739a1.891,1.891,0,0,1,.061.257,5.406,5.406,0,0,1-.263-.983,6.921,6.921,0,0,1,.1-2.767,6.6,6.6,0,0,1,.69-1.753,2.333,2.333,0,0,1,.757-.77,1.313,1.313,0,0,1,1.142-.073,4.642,4.642,0,0,1,2.559,4.123,4.593,4.593,0,0,1-.171,1.325,2.346,2.346,0,0,1-.666,1.124,1.3,1.3,0,0,1-1.222.3,1.454,1.454,0,0,1-.843-.855,5.345,5.345,0,0,1-.366-2.175,3.329,3.329,0,0,1,.153-1,1.142,1.142,0,0,1,.611-.721.849.849,0,0,1,.831.116,1.264,1.264,0,0,1,.446.611,1.985,1.985,0,0,1,.067,1.191.531.531,0,0,1-.611.354A.269.269,0,0,1,116.909,179.767Z" transform="translate(-105.376 -166.616)"/><path class="o" d="M119.909,167.27a4.009,4.009,0,0,0-.165.7,4.886,4.886,0,0,0,.122,1.949,12.661,12.661,0,0,0,1.1,2.706A10.922,10.922,0,0,1,122.188,176a6.218,6.218,0,0,1-.574,3.537,6.029,6.029,0,0,1-3.665,3.109,3.61,3.61,0,0,1-.709.153l.183-.049c.116-.031.293-.079.513-.153a6.382,6.382,0,0,0,1.741-.9,6.022,6.022,0,0,0,1.832-2.217,6.2,6.2,0,0,0,.556-3.469,10.94,10.94,0,0,0-1.222-3.335,12.626,12.626,0,0,1-1.087-2.737,4.887,4.887,0,0,1-.079-1.979A2.8,2.8,0,0,1,119.909,167.27Z" transform="translate(-106.813 -163.428)"/><path class="o" d="M129.351,169.16a1.887,1.887,0,0,0-.806,1.069,10.592,10.592,0,0,0-.183,3.311,18.324,18.324,0,0,0,.513,3.292c.1.415.2.751.269.983a2.088,2.088,0,0,1,.1.354,1.7,1.7,0,0,1-.14-.342c-.086-.226-.2-.556-.312-.971a16.1,16.1,0,0,1-.556-3.311,15.688,15.688,0,0,1,0-1.832,5.3,5.3,0,0,1,.238-1.5,1.863,1.863,0,0,1,.568-.849A1.185,1.185,0,0,1,129.351,169.16Z" transform="translate(-111.081 -164.163)"/><path class="o" d="M133.2,179.316a3.559,3.559,0,0,1-.348-.672,4.123,4.123,0,0,1-.4-1.784,2.1,2.1,0,0,1,.77-1.631,1.491,1.491,0,0,1,.5-.257.464.464,0,0,1,.2,0,2.315,2.315,0,0,0-.647.354,2.138,2.138,0,0,0-.7,1.57,4.514,4.514,0,0,0,.354,1.741A6.459,6.459,0,0,1,133.2,179.316Z" transform="translate(-112.732 -166.421)"/><path class="o" d="M114.819,165.51l.049.092a1.35,1.35,0,0,0,.122.287,1.35,1.35,0,0,1,.11.495,1.484,1.484,0,0,1-.171.641c-.2.446-.544.922-.867,1.466a12.369,12.369,0,0,0-.892,1.869,24.274,24.274,0,0,0-1,3.665c-.086.409-.159.782-.226,1.124a3.388,3.388,0,0,1-.1.409,1.954,1.954,0,0,1,.049-.421c.037-.269.1-.654.189-1.13a21.129,21.129,0,0,1,.965-3.665,11.46,11.46,0,0,1,.91-1.881c.336-.55.678-1.014.886-1.448a1.222,1.222,0,0,0,.1-1.075,2.2,2.2,0,0,1-.128-.428Z" transform="translate(-104.716 -162.743)"/></g><g transform="translate(147.517 26.229)"><path class="h" d="M260.683,68.937a16.022,16.022,0,1,0-23,14.257c0,1.9-.043,4.044-.043,4.044l14.049.147s.11-2.272.165-4.276A16.022,16.022,0,0,0,260.683,68.937Z" transform="translate(-218.267 -36.55)"/><path class="g" d="M251.3,97.463v-.2c0-.14.043-.33.073-.611.067-.507.165-1.222.318-2.211s.354-2.132.672-3.476a23.13,23.13,0,0,1,1.5-4.447,15.307,15.307,0,0,1,1.338-2.382,2.987,2.987,0,0,1,1.106-.971,1.637,1.637,0,0,1,1.521.067,1.087,1.087,0,0,1,.5.611,1.106,1.106,0,0,1-.073.825,2.291,2.291,0,0,1-1.252,1.051,4.355,4.355,0,0,1-3.323-.269,4.435,4.435,0,0,1-2.236-2.7,3.317,3.317,0,0,1-.079-1.832,1.442,1.442,0,0,1,1.472-1.1,1.032,1.032,0,0,1,.806.574,1.46,1.46,0,0,1,.122.99,3.14,3.14,0,0,1-1.148,1.576,4.752,4.752,0,0,1-3.744,1.045,4.16,4.16,0,0,1-3.054-2.339,2.394,2.394,0,0,1-.086-1.942,1.158,1.158,0,0,1,1.692-.6,1.6,1.6,0,0,1,.672.709,2.6,2.6,0,0,1,.232.928,4.624,4.624,0,0,1-.263,1.832,4.783,4.783,0,0,1-2.3,2.7,4.887,4.887,0,0,1-3.323.421,2.5,2.5,0,0,1-1.429-.782,1.222,1.222,0,0,1-.073-1.545,1.045,1.045,0,0,1,.721-.342,1.484,1.484,0,0,1,.764.159,2.358,2.358,0,0,1,.971,1.106c.391.873.709,1.723,1.026,2.535,1.222,3.237,2.126,5.913,2.718,7.758.293.928.507,1.649.654,2.138.073.244.122.428.165.562l.049.189a1.266,1.266,0,0,1-.067-.183l-.183-.556-.69-2.126c-.611-1.832-1.515-4.5-2.779-7.733-.318-.806-.611-1.661-1.032-2.517a2.162,2.162,0,0,0-.9-1.032.961.961,0,1,0-1.222,1.484,2.352,2.352,0,0,0,1.344.715,4.673,4.673,0,0,0,3.195-.409,4.606,4.606,0,0,0,2.193-2.565,4.477,4.477,0,0,0,.25-1.753,1.729,1.729,0,0,0-.806-1.478,1.02,1.02,0,0,0-.831-.092,1.038,1.038,0,0,0-.611.611,2.217,2.217,0,0,0,.086,1.784,3.989,3.989,0,0,0,2.932,2.23,4.587,4.587,0,0,0,3.6-1.02,2.926,2.926,0,0,0,1.081-1.466,1.271,1.271,0,0,0-.1-.861.843.843,0,0,0-.66-.47,1.13,1.13,0,0,0-.8.25,1.423,1.423,0,0,0-.464.715,3.189,3.189,0,0,0,.073,1.741,4.276,4.276,0,0,0,2.138,2.584,4.209,4.209,0,0,0,3.182.275,2.126,2.126,0,0,0,1.161-.965.947.947,0,0,0-.36-1.222,1.5,1.5,0,0,0-1.368-.061,2.828,2.828,0,0,0-1.051.922,15.5,15.5,0,0,0-1.338,2.352,24.188,24.188,0,0,0-1.49,4.38c-.324,1.338-.538,2.5-.7,3.463s-.269,1.692-.354,2.205c-.037.244-.067.44-.092.574a1.785,1.785,0,0,1-.043.2Z" transform="translate(-222.964 -46.752)"/><path class="g" d="M256.3,112.446l-12.058-.122a.9.9,0,0,1-.892-.916h0a.9.9,0,0,1,.91-.9l12.058.128a.91.91,0,0,1,.9.916h0A.9.9,0,0,1,256.3,112.446Z" transform="translate(-223.993 -59.029)"/><path class="g" d="M256.274,114.918l-12.058-.128a.916.916,0,0,0,0,1.832h1.319l1.723,3.36a1.161,1.161,0,0,0,1.02.611l4.312.049a1.173,1.173,0,0,0,1.038-.611l1.741-3.317h.9a.916.916,0,1,0,0-1.832Z" transform="translate(-223.973 -60.695)"/><g class="s" transform="translate(12.163 19.089)"><path class="o" d="M235.615,60.3a11.734,11.734,0,0,1,3.231-2.1,8.429,8.429,0,0,1,2.48-.69c.611-.061.947,0,.977.134.067.287-1.154.709-2.8,1.784A13.188,13.188,0,0,0,233.361,72.3c.2,1.955.641,3.164.373,3.3-.116.061-.379-.171-.715-.678a8.4,8.4,0,0,1-1.026-2.358,11.649,11.649,0,0,1-.4-3.83,12.467,12.467,0,0,1,1.167-4.624" transform="translate(-231.573 -57.481)"/></g><g class="s" transform="translate(24.726 18.006)"><path class="o" d="M254.15,57.676c-1.014,0-1.906-.305-2-.843-.043-.269.147-.55.519-.77a3.054,3.054,0,0,1,1.515-.354,2.963,2.963,0,0,1,1.509.4c.367.226.544.519.495.782" transform="translate(-252.14 -55.708)"/></g><path class="p" d="M256.167,123.339a8.083,8.083,0,0,1-.825-.263,6.719,6.719,0,0,0-4.074.073,8,8,0,0,1-.818.293,2.829,2.829,0,0,1,.77-.421,5.876,5.876,0,0,1,4.166-.079A2.377,2.377,0,0,1,256.167,123.339Z" transform="translate(-226.756 -63.734)"/><path class="p" d="M256.843,117.9c0,.055-2.181.079-4.887.049s-4.887-.1-4.887-.147,2.181-.079,4.887-.049S256.843,117.838,256.843,117.9Z" transform="translate(-225.441 -61.843)"/><path class="p" d="M256.63,120.3a7.411,7.411,0,0,1-1.185.11c-.739.037-1.753.067-2.877.073s-2.144,0-2.877-.055a6.9,6.9,0,0,1-1.191-.1,7.375,7.375,0,0,1,1.191-.043h5.748A6.721,6.721,0,0,1,256.63,120.3Z" transform="translate(-225.997 -62.826)"/><path class="g" d="M219.57,57.329a30.243,30.243,0,0,1-4.038-1.7,29.637,29.637,0,0,1-3.873-1.985,29.437,29.437,0,0,1,4.007,1.7A29.93,29.93,0,0,1,219.57,57.329Z" transform="translate(-211.66 -36.897)"/><path class="g" d="M233.718,39.654a12.83,12.83,0,0,1-1.271-1.7c-.751-1.081-1.753-2.6-2.816-4.276s-1.979-3.268-2.62-4.41a12.76,12.76,0,0,1-.971-1.894,15.721,15.721,0,0,1,1.2,1.759l2.694,4.355,2.73,4.343a14.478,14.478,0,0,1,1.057,1.826Z" transform="translate(-217.256 -26.673)"/><path class="g" d="M253.952,29.66a33.109,33.109,0,0,1,.305,4.569,31.984,31.984,0,0,1,0,4.575,33.742,33.742,0,0,1-.3-4.569,33.743,33.743,0,0,1-.006-4.575Z" transform="translate(-228.09 -27.564)"/><path class="g" d="M276.732,26.23c.079.037-1.185,2.9-2.828,6.377s-3.054,6.279-3.115,6.243,1.185-2.889,2.828-6.377S276.653,26.193,276.732,26.23Z" transform="translate(-234.67 -26.229)"/><path class="g" d="M287.5,47.48a28.9,28.9,0,0,1-3.237,2.773,29.1,29.1,0,0,1-3.433,2.529A28.616,28.616,0,0,1,284.067,50,28.851,28.851,0,0,1,287.5,47.48Z" transform="translate(-238.579 -34.5)"/></g><g transform="translate(231.402 164.289)"><path class="g" d="M348.99,252.25l2.028,10.775,1.668-3.005,3.586,5.369,1.79-1.209-3.579-5.369,3.286-.507Z" transform="translate(-348.99 -252.25)"/></g><g transform="translate(85.512 91.88)"><path class="g" d="M268.188,211.73c4.215-2.071,6.78-6.493,8.246-10.952s2.089-9.162,3.732-13.573c1.222-3.28-.324-8.429,2.553-10.427,3.592-2.5,3.408-8.912,1.93-12.082-1.613-3.451-5.833-5.949-6.145-7.043-.806-2.883,1.643-6.108.647-8.906-2.358-6.628-7.776-5.626-7.776-5.626-2.553-2.95-5.992-6.841-11.471-8.13-5.931-1.393-14.66-2.327-19.84.886s-8.991,5.363-10.555,11.251" transform="translate(-156.602 -133.707)"/><path class="t" d="M266.369,177.815a28.709,28.709,0,0,0-28.746-26.235h-1.484c-16.016,1.026-24.091,15.2-22.6,31.152l.739,80.416,39.918-.067-1.014-30.81s15.393-2.474,15.5-17.873C268.727,206.988,267.566,191.668,266.369,177.815Z" transform="translate(-150.318 -140.663)"/><path class="g" d="M286.206,212.208a2.205,2.205,0,0,1-2.113,2.23,2.1,2.1,0,0,1-2.272-1.967,2.2,2.2,0,0,1,2.1-2.236,2.113,2.113,0,0,1,2.284,1.973Z" transform="translate(-176.959 -163.487)"/><path class="g" d="M289.622,204.089c-.269.287-1.942-.935-4.312-.916s-4.093,1.222-4.349.922c-.128-.128.147-.648.9-1.222a6.054,6.054,0,0,1,3.482-1.093,5.8,5.8,0,0,1,3.433,1.087C289.524,203.441,289.757,203.96,289.622,204.089Z" transform="translate(-176.613 -160.199)"/><path class="g" d="M249.816,212.208a2.193,2.193,0,0,1-2.107,2.23,2.1,2.1,0,0,1-2.278-1.967,2.211,2.211,0,0,1,2.107-2.236,2.1,2.1,0,0,1,2.278,1.973Z" transform="translate(-162.797 -163.487)"/><path class="g" d="M251.038,203.5c-.238.312-2.034-.721-4.386-.446s-3.934,1.649-4.227,1.393c-.134-.116.079-.66.77-1.295a6.053,6.053,0,0,1,3.341-1.466,5.8,5.8,0,0,1,3.531.709C250.849,202.87,251.155,203.352,251.038,203.5Z" transform="translate(-161.613 -160.147)"/><path class="g" d="M270.143,223.907a15.858,15.858,0,0,1,3.842-.715c.611-.067,1.173-.189,1.271-.611a3.514,3.514,0,0,0-.409-1.79c-.58-1.46-1.179-2.987-1.832-4.587-2.517-6.542-4.343-11.917-4.08-12.015s2.523,5.119,5.039,11.655l1.735,4.618a3.644,3.644,0,0,1,.33,2.37,1.533,1.533,0,0,1-.99.892,3.946,3.946,0,0,1-1.026.147A15.477,15.477,0,0,1,270.143,223.907Z" transform="translate(-171.935 -161.136)"/><path class="g" d="M249.444,187.629c-.269.611-2.608.183-5.4.354s-5.076.794-5.412.2c-.147-.287.281-.867,1.222-1.435a9.382,9.382,0,0,1,8.234-.415C249.083,186.8,249.566,187.329,249.444,187.629Z" transform="translate(-160.141 -153.891)"/><path class="g" d="M288.173,194.15c-.415.538-2.052,0-4.007,0s-3.622.379-4.007-.183c-.165-.269.092-.806.812-1.319a5.809,5.809,0,0,1,6.456.165C288.125,193.331,288.351,193.887,288.173,194.15Z" transform="translate(-176.294 -156.295)"/><path class="g" d="M230.632,150.533a11.649,11.649,0,0,0,14.012,11.2c2.59-.538,5.412-1.912,7.7-.58,2.4,1.4,2.584,4.978,4.722,6.756,3.054,2.535,7.782,0,11.606,1.026,2.962.806,4.887,3.579,6.878,5.907s4.984,4.508,7.941,3.567a34.517,34.517,0,0,0-1.344-7.831,11.661,11.661,0,0,0-4.606-6.3c-1.222-.77-2.663-1.222-3.818-2.107-2.486-1.918-3.127-5.339-4.7-8.063a12.778,12.778,0,0,0-9.883-6.237c-3.353-.263-6.786.819-10.073.067-2.443-.55-4.575-2.071-7.031-2.48-4.783-.8-9.162,2.718-12.51,6.2" transform="translate(-156.605 -138.235)"/><path class="g" d="M228.819,158.019c-2.15-.562-6.548-1.832-7.739-3.665-2.578-3.97-7.025-6.615-11.5-6.273a10.781,10.781,0,0,0-9.511,8.741,15.447,15.447,0,0,0-13.121,8.869,17.965,17.965,0,0,0,.861,16.694c.788,1.277,1.778,2.547,1.832,4.074.067,1.9-1.3,3.433-2.254,5.021-2.6,4.337-2.266,10.207-.073,14.813s3.7,6.212,6.719,7.079c5.852,1.692.336,13.512,10.005,13.3L205.174,192a3.663,3.663,0,0,0,.916.312c5.754,1.167,6.255-10.03,4.887-13.2a33.067,33.067,0,0,0,5.607-6.169c1.527-2.376,2.773-8.771,2.376-11.606C221.043,161.367,229.766,158.27,228.819,158.019Z" transform="translate(-139.394 -139.29)"/><path class="t" d="M212.66,220.014c-.263-.116-10.6-3.054-10.207,7.452s10.885,7.941,10.891,7.654S212.66,220.014,212.66,220.014Z" transform="translate(-146.068 -167.115)"/><path class="u" d="M211.7,233.454c-.049-.031-.177.134-.483.287a1.8,1.8,0,0,1-1.368.079c-1.13-.367-2.132-2.1-2.254-3.989a6.109,6.109,0,0,1,.415-2.645,2.126,2.126,0,0,1,1.326-1.46.935.935,0,0,1,1.1.464c.153.287.1.5.153.519s.22-.189.116-.611a1.167,1.167,0,0,0-.44-.647,1.356,1.356,0,0,0-1.02-.226,2.565,2.565,0,0,0-1.832,1.7,6.237,6.237,0,0,0-.525,2.963c.147,2.113,1.307,4.062,2.846,4.441a1.967,1.967,0,0,0,1.668-.342C211.692,233.711,211.741,233.473,211.7,233.454Z" transform="translate(-147.793 -169.316)"/><path class="g" d="M190.579,247.535a6.53,6.53,0,0,1-.959,9.932,4.312,4.312,0,0,0,3.219,1.02c.44,1.319-1.4,2.266-1.753,3.61a2.382,2.382,0,0,0,.788,2.248,5.821,5.821,0,0,0,2.193,1.155,23.6,23.6,0,0,0,7.33,1.222c1.448,0,3.054-.2,3.976-1.319a5.488,5.488,0,0,0,.806-3.445q0-4.49.061-8.979a3.189,3.189,0,0,0-3.17-3.879l-12.827-2.969" transform="translate(-141.078 -177.459)"/><path class="u" d="M264.255,278.71s-14.049-1.833-22.375-7.88c0,0,4.6,12.742,22.466,12.705Z" transform="translate(-161.416 -187.072)"/><path class="g" d="M257.7,238.36c.385-.049.568,2.517,2.9,4.19s5.039,1.191,5.088,1.551c.049.159-.574.538-1.729.654a6.42,6.42,0,0,1-4.233-1.118,5.607,5.607,0,0,1-2.266-3.524C257.281,239.013,257.52,238.36,257.7,238.36Z" transform="translate(-167.453 -174.435)"/><path class="p" d="M194.261,193.279a2,2,0,0,1-.36-.263,3.964,3.964,0,0,1-.782-1.014,5.552,5.552,0,0,1-.073-4.6,7.653,7.653,0,0,1,1.912-2.627,16.145,16.145,0,0,1,3.054-2.144c1.136-.647,2.364-1.222,3.579-1.961a12.3,12.3,0,0,0,3.353-2.7,13.616,13.616,0,0,0,2.077-3.787c.513-1.313.922-2.62,1.423-3.836a14.427,14.427,0,0,1,1.771-3.274,7.208,7.208,0,0,1,2.443-2.126,5.339,5.339,0,0,1,4.593-.153,3.719,3.719,0,0,1,1.026.757,1.7,1.7,0,0,1,.269.36,4.141,4.141,0,0,0-1.35-1,5.229,5.229,0,0,0-4.435.238,7,7,0,0,0-2.346,2.083,14.051,14.051,0,0,0-1.716,3.225c-.483,1.222-.886,2.511-1.4,3.836a13.671,13.671,0,0,1-2.126,3.891,12.5,12.5,0,0,1-3.439,2.767c-1.222.721-2.443,1.313-3.6,1.949a16.008,16.008,0,0,0-3.005,2.083,7.489,7.489,0,0,0-1.881,2.523,5.5,5.5,0,0,0,0,4.453A4.5,4.5,0,0,0,194.261,193.279Z" transform="translate(-142.23 -145.632)"/><path class="p" d="M278.3,184.294a1.363,1.363,0,0,1,.128-.153l.391-.421a18,18,0,0,0,1.35-1.735,15.649,15.649,0,0,0,2.6-7.556,14.783,14.783,0,0,0-.684-5.5,15.461,15.461,0,0,0-3.134-5.5,17.325,17.325,0,0,0-2.565-2.315,20.552,20.552,0,0,1-2.767-2.388,9.718,9.718,0,0,1-1.869-3.3,13.225,13.225,0,0,0-1.661-3.433,4.063,4.063,0,0,0-1.46-1.154,4.465,4.465,0,0,0-1.8-.391,9.12,9.12,0,0,0-3.579.837c-1.124.483-2.193,1.081-3.3,1.533a8.282,8.282,0,0,1-3.439.757,7.146,7.146,0,0,1-3.195-1,17.323,17.323,0,0,0-2.792-1.338,8.68,8.68,0,0,0-5.442.086,8.094,8.094,0,0,0-3.665,2.6,8.875,8.875,0,0,0-1.594,3.054,8.649,8.649,0,0,0-.348,2.162c0,.507,0,.77,0,.77a4.687,4.687,0,0,1-.049-.77,7.855,7.855,0,0,1,.293-2.193,8.8,8.8,0,0,1,1.57-3.134,8.216,8.216,0,0,1,3.757-2.694,8.881,8.881,0,0,1,5.6-.128,17.672,17.672,0,0,1,2.846,1.338,6.847,6.847,0,0,0,3.054.959,8.051,8.051,0,0,0,3.311-.745c1.087-.452,2.144-1.045,3.292-1.539a9.352,9.352,0,0,1,3.7-.867,4.886,4.886,0,0,1,1.936.415,4.4,4.4,0,0,1,1.57,1.252,13.066,13.066,0,0,1,1.71,3.512,9.487,9.487,0,0,0,1.832,3.213,20.332,20.332,0,0,0,2.724,2.358,17.379,17.379,0,0,1,2.59,2.358,15.472,15.472,0,0,1,3.17,5.62,14.757,14.757,0,0,1,.654,5.589,15.081,15.081,0,0,1-1.057,4.52,14.83,14.83,0,0,1-1.661,3.054A11.607,11.607,0,0,1,278.3,184.294Z" transform="translate(-160.462 -140.099)"/><path class="v" d="M113.36,351.738s16.822-48.927,19.852-51.2c9.859-7.391,41.622-13.108,41.622-13.108s7.984,21.074,22.668,20.921c14.794-.153,19.547-15.979,19.547-15.979s21.019-.861,29.558,3.231c3.415,1.637,25.979,46.166,25.979,46.166L247.877,351.7l6.9,50.43-124.09.055,1.179-50.015Z" transform="translate(-111.399 -193.532)"/><path class="g" d="M156.189,325.148c-.061.061-2.187-1.9-4.74-4.38s-4.581-4.538-4.52-4.6,2.181,1.894,4.74,4.374a63.905,63.905,0,0,1,4.52,4.606Z" transform="translate(-124.463 -204.716)"/><path class="g" d="M216.992,298.2c0,.086-.745.336-1.606.819a16.624,16.624,0,0,1-1.545.922,3.255,3.255,0,0,1,1.393-1.222A3.17,3.17,0,0,1,216.992,298.2Z" transform="translate(-150.503 -197.723)"/><path class="g" d="M221.78,310.845a2.3,2.3,0,0,1,.672-1.606,2.248,2.248,0,0,1,1.466-.928c.043.086-.641.434-1.222,1.136S221.872,310.869,221.78,310.845Z" transform="translate(-153.593 -201.658)"/><path class="g" d="M228.69,317.607a4.1,4.1,0,0,1,.7-1.466,4.416,4.416,0,0,1,.983-1.3,8.406,8.406,0,0,1-1.686,2.767Z" transform="translate(-156.282 -204.199)"/><path class="g" d="M241.559,323.245a6.255,6.255,0,0,1,.421-2.755,3.249,3.249,0,0,1-.055,1.4A3.1,3.1,0,0,1,241.559,323.245Z" transform="translate(-161.284 -206.398)"/><path class="g" d="M252.738,324.665c-.092,0-.147-.843-.409-1.833a18.716,18.716,0,0,1-.544-1.832A4.819,4.819,0,0,1,252.738,324.665Z" transform="translate(-165.267 -206.596)"/><path class="g" d="M265.759,322.431c-.092,0-.238-.928-.611-2.028a18.864,18.864,0,0,1-.678-2,4.563,4.563,0,0,1,.983,1.906A4.459,4.459,0,0,1,265.759,322.431Z" transform="translate(-170.207 -205.584)"/><path class="g" d="M274.953,315.7a20.108,20.108,0,0,0-.831-1.936c-.592-1-1.356-1.588-1.295-1.668a3.25,3.25,0,0,1,1.57,1.509A3.207,3.207,0,0,1,274.953,315.7Z" transform="translate(-173.458 -203.133)"/><path class="b" d="M190.774,305.47a1.12,1.12,0,0,1,.128.147l.385.47,1.472,1.832c1.289,1.637,3.1,3.928,5.271,6.67l.067.086-.073.086-7.33,9.1-.122.153-.128-.153-.061-.079-7.226-9.028-.067-.086.067-.086,5.5-6.658,1.539-1.832.4-.47a1,1,0,0,1,.14-.147,1.833,1.833,0,0,1-.14.189l-.4.513-1.509,1.906c-1.307,1.643-3.146,3.934-5.339,6.676v-.171l7.263,9,.061.073h-.25l7.33-9.071v.171l-5.094-6.682c-.611-.8-1.081-1.442-1.435-1.906l-.379-.513A1.514,1.514,0,0,1,190.774,305.47Z" transform="translate(-138.536 -200.553)"/><path class="b" d="M165.957,297.3a2.443,2.443,0,0,1-.348.525c-.238.33-.611.8-1.045,1.374-.892,1.154-2.138,2.73-3.537,4.459l-1.466,1.833-.122.147-.116-.147c-1.032-1.3-1.912-2.443-2.523-3.231a11.126,11.126,0,0,1-.941-1.319,8.887,8.887,0,0,1,1.087,1.222c.654.776,1.564,1.875,2.614,3.158h-.238l1.46-1.832c1.393-1.729,2.669-3.28,3.61-4.4.464-.556.849-1,1.118-1.307A3.164,3.164,0,0,1,165.957,297.3Z" transform="translate(-127.939 -197.372)"/><path class="b" d="M122.26,358.86a2.77,2.77,0,0,1,.36.4l.959,1.173,3.372,4.233h-.214l4.966-6.188,2.352-2.908v.189c-2.016-2.639-3.781-4.935-5.07-6.621-.611-.8-1.087-1.46-1.46-1.949a6.245,6.245,0,0,1-.495-.727,4.743,4.743,0,0,1,.58.66l1.533,1.894,5.174,6.548.079.1-.079.1c-.739.922-1.533,1.9-2.346,2.908l-5,6.163-.11.134-.1-.134-3.28-4.276-.9-1.222A2.384,2.384,0,0,1,122.26,358.86Z" transform="translate(-114.863 -216.505)"/><path class="b" d="M197.684,386.16a.9.9,0,0,1,.147.134l.434.428,1.649,1.674c1.46,1.49,3.5,3.579,5.937,6.108l.073.073-.055.092-6.3,9.792-.11.165-.134-.141-.073-.067-8.124-8.228-.079-.079.061-.1,4.789-7.2c.568-.831,1.014-1.5,1.344-1.985l.348-.507a1.134,1.134,0,0,1,.122-.165,1.533,1.533,0,0,1-.116.208l-.342.55-1.35,2.052-4.612,7.2v-.171l8.155,8.2.067.067h-.244l6.365-9.773v.171c-2.37-2.517-4.349-4.618-5.766-6.108l-1.625-1.747-.428-.47Z" transform="translate(-141.634 -231.955)"/><path class="b" d="M168.71,371.033a2.5,2.5,0,0,1,.464.391l1.222,1.167h-.14c1.161-1.869,3.1-4.917,5.326-8.35l.965-1.484v.189c-2.046-2.138-3.836-4.031-5.113-5.406l-1.49-1.619a4.276,4.276,0,0,1-.513-.611,3.862,3.862,0,0,1,.611.538l1.564,1.558c1.313,1.332,3.134,3.2,5.186,5.333l.086.086-.067.11-.965,1.484c-2.217,3.433-4.209,6.456-5.436,8.277l-.061.1-.079-.079-1.185-1.222A2.916,2.916,0,0,1,168.71,371.033Z" transform="translate(-132.94 -219.949)"/><path class="b" d="M236.85,420.57a.9.9,0,0,1,.147.134l.428.428,1.655,1.674,5.937,6.078.073.079-.061.092c-1.832,2.859-4.007,6.224-6.328,9.81l-.1.171-.14-.141-.067-.073-8.13-8.216-.079-.086.061-.092,4.795-7.2,1.338-1.985.354-.513a1.221,1.221,0,0,1,.122-.159l-.116.2-.348.556-1.295,2.052-4.618,7.22v-.171l8.148,8.167.067.067h-.244c2.327-3.579,4.508-6.939,6.365-9.773v.165l-5.76-6.108-1.625-1.747-.434-.47a1.526,1.526,0,0,1-.14-.165Z" transform="translate(-156.862 -245.346)"/><path class="b" d="M282.088,375.36a.9.9,0,0,1,.147.134l.434.428,1.661,1.661,5.937,6.108.073.073-.055.092-6.328,9.816-.11.165-.141-.14-.067-.067c-2.969-3.011-5.754-5.827-8.13-8.228l-.079-.079.067-.1,4.789-7.2c.562-.831,1.014-1.5,1.338-1.985l.354-.507a1.137,1.137,0,0,1,.122-.165,1.534,1.534,0,0,1-.116.208c-.092.147-.208.324-.342.55l-1.313,2.065-4.618,7.2v-.171l8.155,8.2.067.067h-.244c2.327-3.579,4.508-6.939,6.365-9.773v.171c-2.364-2.517-4.343-4.618-5.76-6.108l-1.625-1.747-.434-.47A1.524,1.524,0,0,1,282.088,375.36Z" transform="translate(-174.472 -227.752)"/><path class="b" d="M321.194,311a.9.9,0,0,1,.147.134l.434.428,1.649,1.674c1.46,1.49,3.5,3.579,5.937,6.108l.079.073-.061.092-6.328,9.816-.1.165-.141-.141-.067-.067-8.13-8.228-.079-.079.061-.1,4.8-7.2,1.338-1.985.348-.507.122-.165a.982.982,0,0,1-.116.208l-.342.55-1.3,2.052-4.618,7.183v-.171l8.161,8.2.067.067h-.25c2.333-3.579,4.514-6.939,6.365-9.773v.171L323.4,313.4l-1.625-1.747-.434-.47Z" transform="translate(-189.689 -202.705)"/><path class="b" d="M363.512,365.247a2.56,2.56,0,0,1-.275.446l-.855,1.222c-.776,1.069-1.833,2.517-3.091,4.233l-.079.1-.11-.067-5.73-3.592-1.8-1.142-.141-.086.092-.134,4.667-7.043c.574-.849,1.051-1.545,1.411-2.071a5.022,5.022,0,0,1,.544-.727,6.545,6.545,0,0,1-.452.788c-.336.544-.782,1.252-1.326,2.12-1.179,1.832-2.779,4.306-4.581,7.11l-.049-.22,1.832,1.136,5.711,3.622-.189.037,3.189-4.166.91-1.155A2.168,2.168,0,0,1,363.512,365.247Z" transform="translate(-204.049 -220.369)"/><path class="b" d="M242.814,336.14l.147.134.434.428,1.649,1.674c1.46,1.49,3.5,3.579,5.937,6.108l.079.073-.061.1c-1.833,2.853-4.013,6.218-6.328,9.81l-.1.165-.14-.141-.067-.067-8.13-8.228-.079-.079.061-.092,4.795-7.2,1.338-1.985.348-.507.122-.165a.837.837,0,0,1-.116.208l-.342.55-1.3,2.052c-1.13,1.771-2.718,4.239-4.612,7.2V346l8.167,8.173.067.067-.25.031,6.365-9.773v.171l-5.76-6.108-1.643-1.771-.434-.47Z" transform="translate(-159.186 -212.488)"/><g class="m" transform="translate(33.003 136.21)"><path d="M167.808,356.7c-1.173,14.44-2.132,28.544-3.628,42.99l.825.134C169.6,386.111,169.14,371.1,167.808,356.7Z" transform="translate(-164.18 -356.7)"/></g><path class="g" d="M169.074,347.87c.086,0-.312,7.489-.892,16.712s-1.124,16.706-1.222,16.7.312-7.489.892-16.718S168.983,347.864,169.074,347.87Z" transform="translate(-132.254 -217.053)"/><g class="m" transform="translate(100.463 104.691)"><path d="M295.675,362.322c-3.28-15.668-7.819-31.03-12.363-46.374a25.074,25.074,0,0,0-2.773-6.829,8.5,8.5,0,0,0-5.919-4.019l.177,3.158c4.276,13.438,5.449,27.652,8.161,41.536s7.257,27.9,16.92,38.189Q298.338,375.052,295.675,362.322Z" transform="translate(-274.62 -305.1)"/></g><path class="t" d="M239.725,420.408c-2.877,0-19.8,6.157-19.8,6.157s-55.17-9.272-76.787-12.827l1.918-20.115-28.165-.733-5.742,23.92-.086.318a26.931,26.931,0,0,0,2.376,19.834c1.894,3.421,4.96,6.963,8.057,6.963,16.608,0,103.682.061,103.682.061l13.915-.208c2.877-2.242.959-.611,3.518-.318s10.891-.318,10.891-.318,4.8-.324,6.408-2.883,3.842-8.967,3.842-9.932S242.608,420.408,239.725,420.408Z" transform="translate(-110.15 -234.574)"/><path class="u" d="M333.113,460.63a2.445,2.445,0,0,1-.476.311c-.318.189-.776.452-1.35.776-1.148.611-2.737,1.5-4.5,2.443a19.272,19.272,0,0,0-2.443,1.4,2.835,2.835,0,0,0-1.222,1.79,2.015,2.015,0,0,0,.269,1.435,3.844,3.844,0,0,0,.379.409.315.315,0,0,1-.141-.055,1.547,1.547,0,0,1-.324-.287,2.034,2.034,0,0,1-.379-1.527,2.443,2.443,0,0,1,.379-1.045,3.844,3.844,0,0,1,.861-.928,17.958,17.958,0,0,1,2.443-1.435c1.765-.947,3.372-1.784,4.545-2.382.58-.3,1.057-.531,1.393-.69a2.064,2.064,0,0,1,.568-.214Z" transform="translate(-192.947 -260.936)"/><path class="u" d="M343.2,462.317c0,.037-.263.092-.684.067a3.867,3.867,0,0,1-1.594-.477,3.8,3.8,0,0,1-1.258-1.087,1.313,1.313,0,0,1-.318-.611,7.88,7.88,0,0,0,1.71,1.454A7.642,7.642,0,0,0,343.2,462.317Z" transform="translate(-199.348 -260.773)"/><path class="u" d="M153.4,427c0,.061-1.222.183-3.1.678a24.434,24.434,0,0,0-3.243,1.093,28.057,28.057,0,0,0-3.732,1.906,29,29,0,0,0-3.366,2.492,26.456,26.456,0,0,0-2.443,2.443c-1.283,1.478-1.924,2.51-1.979,2.474a4.331,4.331,0,0,1,.428-.739,9.779,9.779,0,0,1,.568-.831c.232-.312.489-.678.812-1.051a23.251,23.251,0,0,1,2.394-2.5,24.292,24.292,0,0,1,7.183-4.453,22.892,22.892,0,0,1,3.3-1.038c.476-.128.916-.189,1.3-.263s.721-.116,1-.141a4.277,4.277,0,0,1,.88-.073Z" transform="translate(-120.031 -247.848)"/><path class="t" d="M285.88,266.222s-4.734-1.832-4.062-4.215a9.022,9.022,0,0,1,2.48-3.952s3.543-4.6,4.771-4.752,2.578,1.417,2.578,1.417,2.333-1.832,3.97-.935a56.378,56.378,0,0,1,4.887,3.329s4.38.092,5.015,1.362,2.993,7.617,2.993,7.617-.275,4.447-1.887,5.565c-1.277.892-11.557,9.847-11.557,9.847s15.326,32.911,20.646,43.124c4.08,7.837,20,31.989,20.157,35.9s1.955,9.413-.971,12.6-3.054,11.221-9.737,12.412-6.652,2.077-10.665-.825-17.445-10.861-22.222-37.316-16.211-58.3-16.211-58.3-4.4-6.188-4.325-7.159-.293-5.632,3.3-8.032S285.88,266.222,285.88,266.222Z" transform="translate(-173.036 -180.247)"/><path class="u" d="M313.413,269.409s.214-.159.611-.464a9.9,9.9,0,0,0,1.417-1.46,22.537,22.537,0,0,0,1.674-2.535,14.122,14.122,0,0,0,.855-1.564,3.377,3.377,0,0,0,.3-1.832,3.6,3.6,0,0,0-.812-1.661,13.024,13.024,0,0,0-1.222-1.283c-.831-.788-1.564-1.515-2.211-2.1s-1.185-1.026-1.564-1.326a4.6,4.6,0,0,1-.58-.489,4.038,4.038,0,0,1,.641.409,20.1,20.1,0,0,1,1.625,1.271c.66.568,1.411,1.283,2.248,2.065a12.822,12.822,0,0,1,1.24,1.326,3.762,3.762,0,0,1,.861,1.777,3.506,3.506,0,0,1-.318,1.955,13.429,13.429,0,0,1-.88,1.588,20.567,20.567,0,0,1-1.741,2.523,8.34,8.34,0,0,1-1.49,1.429,5.05,5.05,0,0,1-.476.305C313.48,269.39,313.419,269.421,313.413,269.409Z" transform="translate(-188.658 -180.794)"/><path class="u" d="M305.409,258.427a1.505,1.505,0,0,0-.22-.263,2.712,2.712,0,0,0-.886-.483,13.987,13.987,0,0,0-3.909-.574h0c-1.014-.745-2.217-1.631-3.665-2.565a3.927,3.927,0,0,0-2.443-.959,5.565,5.565,0,0,0-2.7,1.161l-.055.037-.043-.049a4.887,4.887,0,0,0-1.68-1.252,1.448,1.448,0,0,0-1.032-.073,4.038,4.038,0,0,0-.922.641,31.157,31.157,0,0,0-3.274,3.622,13.223,13.223,0,0,0-1.448,2.162,10.593,10.593,0,0,0-.99,2.5,1.518,1.518,0,0,0-.037.33V263a2.607,2.607,0,0,0,.25.611,3.9,3.9,0,0,0,.916,1.038,9.629,9.629,0,0,0,2.59,1.429l.171.073-.147.11q-2.724,1.979-5.669,4.1l-3.017,2.132-1.558,1.075c-.257.177-.538.348-.782.544l-.373.281c-.128.1-.232.22-.348.324a7.171,7.171,0,0,0-1.894,3.3,14.172,14.172,0,0,0-.434,3.952,3.668,3.668,0,0,0,.348.9c.159.3.324.611.5.892.342.611.709,1.173,1.087,1.753.751,1.167,1.545,2.321,2.358,3.476h0c2.046,5.8,4.062,11.96,6.029,18.325,1.753,5.681,3.366,11.251,4.813,16.663.739,2.7,1.4,5.369,2.058,7.984s1.222,5.186,1.765,7.709,1.02,4.978,1.484,7.373c.244,1.191.489,2.37.727,3.524.128.611.226,1.154.373,1.716s.3,1.118.446,1.674.3,1.093.446,1.637c.067.275.14.544.214.812s.177.525.263.788l1.026,3.054c.4.983.788,1.942,1.167,2.889.092.238.189.47.281.7l.324.678.611,1.332a50.8,50.8,0,0,0,5.5,8.906,44.414,44.414,0,0,0,5.436,5.748A45.773,45.773,0,0,0,313,383.6l1.057.764.354.269-.373-.244-1.069-.745a43.224,43.224,0,0,1-9.443-8.8,50.46,50.46,0,0,1-5.54-8.912q-.324-.66-.641-1.338c-.11-.22-.22-.452-.33-.678s-.189-.464-.281-.7l-1.173-2.9q-.513-1.521-1.038-3.054c-.092-.263-.177-.525-.269-.794l-.22-.812c-.147-.538-.293-1.087-.446-1.643s-.3-1.106-.452-1.674-.244-1.142-.373-1.716q-.366-1.741-.739-3.531c-.47-2.394-.922-4.856-1.49-7.367s-1.154-5.076-1.771-7.7-1.325-5.278-2.065-7.977c-1.454-5.406-3.054-10.995-4.813-16.651-1.967-6.353-3.983-12.5-6.023-18.325v.031c-.812-1.161-1.606-2.321-2.358-3.488-.379-.611-.745-1.173-1.093-1.765-.177-.3-.342-.611-.5-.9a3.445,3.445,0,0,1-.379-1,14.474,14.474,0,0,1,.446-4.019,7.385,7.385,0,0,1,1.961-3.408c.122-.11.232-.232.36-.33l.391-.3c.257-.2.525-.36.788-.544l1.552-1.069,3.036-2.1,5.675-4.086v.177a9.945,9.945,0,0,1-2.565-1.472,4.13,4.13,0,0,1-.965-1.093,2.661,2.661,0,0,1-.269-.684l-.031-.367a1.874,1.874,0,0,1,.043-.367,10.763,10.763,0,0,1,1.014-2.553,13.166,13.166,0,0,1,1.472-2.187,30.827,30.827,0,0,1,3.311-3.628,4.055,4.055,0,0,1,.965-.666,1.551,1.551,0,0,1,1.148.073,4.886,4.886,0,0,1,1.729,1.3h-.1a5.778,5.778,0,0,1,2.779-1.179,2.3,2.3,0,0,1,1.374.305c.4.22.77.458,1.124.69,1.429.947,2.627,1.832,3.628,2.6h0a13.759,13.759,0,0,1,3.922.611,2.511,2.511,0,0,1,.886.513.769.769,0,0,1,.159.2Z" transform="translate(-172.951 -180.197)"/><path class="u" d="M297.687,269.31a.892.892,0,0,1-.061.342,3.579,3.579,0,0,1-.391.843,4.025,4.025,0,0,1-5.467,1.38,3.885,3.885,0,0,1-.751-.562c-.153-.159-.22-.263-.208-.269a11.991,11.991,0,0,0,1.038.672,4.276,4.276,0,0,0,2.871.342,4.19,4.19,0,0,0,2.364-1.661A10.775,10.775,0,0,0,297.687,269.31Z" transform="translate(-180.457 -186.48)"/><path class="u" d="M304.353,270.422s.238-.147.647-.421a9.81,9.81,0,0,0,1.564-1.38,24.475,24.475,0,0,0,1.918-2.443,11.177,11.177,0,0,0,.977-1.539,3.054,3.054,0,0,0,.348-1.832,3.976,3.976,0,0,0-.8-1.729c-.366-.507-.794-.953-1.179-1.4-.77-.892-1.417-1.729-1.991-2.407a18.546,18.546,0,0,0-1.417-1.545,6.032,6.032,0,0,1-.55-.55.7.7,0,0,1,.171.116c.1.073.257.2.44.36a17.3,17.3,0,0,1,1.49,1.5c.611.666,1.258,1.49,2.034,2.37.385.44.819.886,1.222,1.411a4.227,4.227,0,0,1,.849,1.833,3.335,3.335,0,0,1-.373,1.991,11.5,11.5,0,0,1-1.014,1.564,21.32,21.32,0,0,1-1.979,2.443,8.417,8.417,0,0,1-1.643,1.338,3.936,3.936,0,0,1-.507.269.7.7,0,0,1-.208.055Z" transform="translate(-185.54 -180.977)"/></g><g transform="translate(52.618 301.109)"><path class="g" d="M296.661,476.4c0,.086-53.814.159-120.174.159S56.3,476.484,56.3,476.4s53.8-.159,120.187-.159S296.661,476.307,296.661,476.4Z" transform="translate(-56.3 -476.24)"/></g></g></svg>