<svg xmlns="http://www.w3.org/2000/svg" width="269.776" height="267.941" viewBox="0 0 269.776 267.941"><defs><style>.a{fill:#f5f5f5;}.b{fill:#b1d2eb;}.c{fill:#ebebeb;}.d{fill:#fff;}.e{fill:#e0e0e0;}.f{fill:#bf3976;}.g{fill:#dee4f0;}.h{fill:#263238;}.i{fill:#fafafa;}.j{fill:#ffd5be;}.k{fill:#ffb194;}.l{fill:#455a64;}.m{opacity:0.3;}.n{fill:#ffbe9d;}.o{fill:#eb996e;}.p{fill:#c58984;}.q{fill:#9c6664;}</style></defs><g transform="translate(-19.208 -30.564)"><g transform="translate(19.208 31.209)"><path class="a" d="M404.246,43.293c.369-2.707-3.452-4.935-6.322-5.166a16.417,16.417,0,0,1-4.094-.351c-2.81-.981-3.93-4.615-6.661-5.771-2.053-.866-4.415-.1-6.4.908s-3.954,2.259-6.177,2.422c-1.932.127-4.027-.606-5.717.351-1.26.7-1.92,2.156-3.082,3.028a7.145,7.145,0,0,1-4.027,1.1,11.4,11.4,0,0,0-4.154.678,3.279,3.279,0,0,0-2.077,3.331Z" transform="translate(-151.845 -31.63)"/><path class="b" d="M412.559,92.651a5.45,5.45,0,1,1-2.81-3.089,5.45,5.45,0,0,1,2.81,3.089Z" transform="translate(-170.18 -54.275)"/><path class="b" d="M430.177,67.077a5.45,5.45,0,1,1-2.809-3.093,5.45,5.45,0,0,1,2.809,3.093Z" transform="translate(-177.129 -44.186)"/><path class="b" d="M443.075,102.724a5.473,5.473,0,1,1-7.146-3.73A5.708,5.708,0,0,1,443.075,102.724Z" transform="translate(-182.196 -58.081)"/><path class="c" d="M426.957,105.151c-.1.4-4.239-.309-9.187-1.593s-8.914-2.64-8.811-3.028,4.239.309,9.187,1.587S427.06,104.745,426.957,105.151Z" transform="translate(-172.933 -58.763)"/><path class="c" d="M420.642,72.532c.351.224-1.411,3.633-3.93,7.576s-4.845,6.988-5.19,6.764,1.4-3.633,3.924-7.57S420.272,72.308,420.642,72.532Z" transform="translate(-173.928 -47.758)"/><path class="b" d="M65.67,110.817a2.719,2.719,0,1,1-.786-1.93,2.725,2.725,0,0,1,.786,1.93Z" transform="translate(-35.384 -61.783)"/><path class="b" d="M54.044,103.266a7.552,7.552,0,0,1,10.9-.145,1.532,1.532,0,0,0,2.174-2.156,10.634,10.634,0,0,0-15.242.127c-1.363,1.423.787,3.633,2.15,2.174Z" transform="translate(-31.921 -57.733)"/><path class="b" d="M38.746,80.1a22.279,22.279,0,0,1,14.613-5.844,21.674,21.674,0,0,1,14.909,5.7C69.7,81.3,71.9,79.153,70.442,77.8a24.829,24.829,0,0,0-17.071-6.613c-6.365,0-12.027,2.616-16.781,6.734C35.094,79.213,37.244,81.369,38.746,80.1Z" transform="translate(-25.864 -47.232)"/><path class="b" d="M44.823,92.266a14.976,14.976,0,0,1,22.007-.3C68.2,93.386,70.384,91.23,69,89.813a18.028,18.028,0,0,0-26.337.3c-1.332,1.441.818,3.633,2.156,2.174Z" transform="translate(-28.295 -52.382)"/><path class="b" d="M86.524,434.924c1.774-4.148.7-8.478-2.222-11.906a12.481,12.481,0,0,0-12.215-3.967,13.662,13.662,0,0,0-20.59-9.235,13.928,13.928,0,0,0-6.492,11,10.228,10.228,0,0,0-7.818,13.874Z" transform="translate(-26.013 -180)"/><path class="d" d="M69.7,443.01v-6.946H66.22l5.238-7.394,5.238,7.34H73.281v7Z" transform="translate(-37.75 -188.231)"/><path class="e" d="M405,379.39a15.612,15.612,0,0,1,1.611,2.7,14.5,14.5,0,0,1,1.211,3.222,31.578,31.578,0,0,1,.811,4.136,15.617,15.617,0,0,1-.866,7.558,10.944,10.944,0,0,1-1.084,2.053,2.675,2.675,0,0,1-.545.648c-.085-.055.642-1.023,1.278-2.834a16.72,16.72,0,0,0,.69-7.364,39.163,39.163,0,0,0-.781-4.051,16.351,16.351,0,0,0-1.06-3.185A21.6,21.6,0,0,1,405,379.39Z" transform="translate(-171.372 -168.794)"/><path class="e" d="M428.582,406.275a9.442,9.442,0,0,1-1.151-1.1c-.721-.727-1.744-1.817-3.028-3.131-2.507-2.665-5.923-6.389-9.6-10.6s-6.867-8.1-9.114-10.979c-1.132-1.435-2.041-2.6-2.646-3.428a9.561,9.561,0,0,1-.908-1.308,8.729,8.729,0,0,1,1.072,1.181l2.78,3.319c2.344,2.81,5.6,6.661,9.277,10.864l9.477,10.695c1.163,1.314,2.126,2.422,2.87,3.246A9.086,9.086,0,0,1,428.582,406.275Z" transform="translate(-170.24 -167.35)"/><path class="e" d="M425.234,385.287a2.422,2.422,0,0,1-.781.309c-.509.17-1.26.363-2.2.606a20.589,20.589,0,0,1-7.515.388,12.965,12.965,0,0,1-3.967-1.32,12.437,12.437,0,0,1-2.743-2.017,12.2,12.2,0,0,1-1.49-1.738c-.315-.436-.472-.69-.442-.715s.781.908,2.186,2.174A13.53,13.53,0,0,0,411,384.833a13.323,13.323,0,0,0,3.821,1.211,23.236,23.236,0,0,0,7.358-.23A28.6,28.6,0,0,1,425.234,385.287Z" transform="translate(-171.804 -169.349)"/><path class="a" d="M116.067,42.706c.236-1.732-2.21-3.161-4.051-3.306a10.3,10.3,0,0,1-2.616-.23c-1.817-.606-2.525-2.949-4.281-3.694a4.957,4.957,0,0,0-4.1.606,10.063,10.063,0,0,1-3.954,1.514c-1.211.079-2.58-.382-3.633.224-.805.454-1.211,1.381-1.974,1.932a4.73,4.73,0,0,1-2.58.7,7.267,7.267,0,0,0-2.658.436,2.1,2.1,0,0,0-1.332,2.132Z" transform="translate(-45.11 -33.052)"/><path class="b" d="M401.183,453.634c.242-1.732-2.21-3.161-4.051-3.312a10.175,10.175,0,0,1-2.616-.224c-1.817-.606-2.519-2.955-4.275-3.694a4.932,4.932,0,0,0-4.1.606,10.289,10.289,0,0,1-3.961,1.538c-1.211.079-2.58-.382-3.664.224-.805.448-1.211,1.381-1.968,1.926a4.7,4.7,0,0,1-2.58.7,7.309,7.309,0,0,0-2.665.436,2.089,2.089,0,0,0-1.308,2.1Z" transform="translate(-157.564 -195.13)"/><path class="a" d="M50.421,144.133c.242-1.738-2.21-3.161-4.045-3.313a10.1,10.1,0,0,1-2.622-.224c-1.817-.606-2.519-2.955-4.275-3.694a5.032,5.032,0,0,0-4.1.575,10.779,10.779,0,0,1-3.954,1.544c-1.241.079-2.586-.382-3.67.224-.805.448-1.211,1.381-1.968,1.926a4.7,4.7,0,0,1-2.58.7,7.267,7.267,0,0,0-2.658.43,2.107,2.107,0,0,0-1.332,2.138Z" transform="translate(-19.208 -73.056)"/><path class="a" d="M159.8,467.593c.236-1.738-2.21-3.161-4.051-3.312a10.5,10.5,0,0,1-2.622-.224c-1.817-.606-2.519-2.955-4.275-3.694a4.91,4.91,0,0,0-4.1.606,10.168,10.168,0,0,1-3.954,1.538c-1.211.079-2.58-.375-3.633.23-.805.448-1.211,1.375-1.974,1.926a4.681,4.681,0,0,1-2.58.7,7.406,7.406,0,0,0-2.658.436,2.107,2.107,0,0,0-1.332,2.138Z" transform="translate(-62.358 -200.635)"/></g><g transform="translate(36.541 47.036)"><path class="f" d="M445.776,233.833c-.127-1.308-.279-2.592-.46-3.876s-.381-2.713-.606-4.057q.345,2.017.606,4.057C445.491,231.241,445.649,232.525,445.776,233.833Z" transform="translate(-204.368 -124.081)"/><path class="g" d="M285.695,187.947c-1.132-2.537-1.393-5.341-2.144-8.006-.4-1.429-1.078-2.955-2.422-3.585a21.775,21.775,0,0,0-2.907-.654c-3.428-1.017-4.36-5.741-7.6-7.212a11.306,11.306,0,0,0-3.264-.666c-4.336-.509-8.823-1.992-11.548-5.365a21.777,21.777,0,0,0-2.677-3.258c-1.1-.89-2.84-1.266-3.918-.363.914,1.817,1.817,3.633,2.713,5.42a14.353,14.353,0,0,0,3.028,4.506,4.989,4.989,0,0,0,5.111,1.09,3.471,3.471,0,0,1,1.72-.606,1.871,1.871,0,0,1,1.12.709c2.362,2.586,1.593,6.879-.715,9.526s-5.7,4-8.975,5.287a7.015,7.015,0,0,1-3.664.709c-2.265-.418-3.476-2.858-4.136-5.051-1.484-4.845-2.2-10.125-5.238-14.219a18.013,18.013,0,0,1-2.761-3.967c-.606-1.635-.478-3.537-1.465-4.966s-3.2-2.374-3.349-4.185a3.293,3.293,0,0,1,2.138-2.931c1.169-.539,2.495-.727,3.7-1.211.478-.2,1.005-.545,1.023-1.048,0-.763-1.06-1.072-1.332-1.774-.3-.8.527-1.544.878-2.319.751-1.774-1.12-3.573-2.931-4.294s-3.973-1.254-4.814-2.992a10.033,10.033,0,0,1-.606-2.586,5.692,5.692,0,0,0-4.281-4.675c-2.229-.363-4.748,1.611-4.378,3.821.218,1.211,1.132,2.156,1.629,3.276s.363,2.792-.805,3.155c-1.926.606-3.773-2.9-5.384-1.7.66,2.229,1.3,4.451,1.962,6.7-2.531,1.272-5.553-1.029-6.661-3.633s-1.12-5.559-2.422-8.06-4.742-4.384-6.94-2.61c-.109,3.228,4.191,4.53,6.1,7.14,1.369,1.883,1.169,4.942-.86,6.141s-5.22-.89-4.451-3.082c.273-.757.914-1.393.987-2.21.073-1.011-.787-1.817-1.575-2.477-1.211-1.036-2.453-2.047-3.682-3.064a7.818,7.818,0,0,0-2.616-1.629c-2.525-.727-5.057,1.3-6.389,3.531s-2.089,4.875-3.936,6.74c-2.658,2.719-7.691,2.877-10.186.036s-1.211-8.169,2.459-9.2c1.387-.382,3.149-.345,3.882-1.562,1.278-2.156-2.386-4.905-1.12-7.079.969-1.665,3.537-.908,5.4-1.472s2.895-2.422,3.991-4,2.786-3.173,4.687-2.755a5.75,5.75,0,0,1,.206-3.3c.5-1,1.883-1.665,2.8-1.011-.933,1.52.182,3.633,1.817,4.4a9.662,9.662,0,0,0,5.323.382c1.793-.224,4.051-.872,4.2-2.646.055-.606-.163-1.211.055-1.738.787-2.12,4.742.793,6.262-.908.878-.884-.091-2.465-1.32-2.749s-2.471.139-3.712.182-2.768-.606-2.822-1.817,1.32-2.083,1.466-3.276c.236-2.029-3.24-2.556-4.469-.908s-.787,3.918-.418,5.929.563,4.378-.939,5.8c-.642.957-2.307.448-2.852-.563a8.443,8.443,0,0,1-.533-3.385c-.091-1.138-.606-2.465-1.738-2.774a6.168,6.168,0,0,0-2.422.273c-3.191.382-5.4-3.694-4.4-6.7s3.882-4.96,6.661-6.5c2.053-1.12,4.6-2.174,6.631-1.029.951.527,1.611,1.429,2.543,1.974,1.611.939,3.633.606,5.45.636a12.8,12.8,0,0,1,7.969,3.028c.824.745,1.593,1.974.951,2.864s-2.689,1.138-2.344,2.247a3.973,3.973,0,0,0,4.978-3.173,3.294,3.294,0,0,1,1.926,2.683,5.971,5.971,0,0,1,8.7.7,7.355,7.355,0,0,0,1.611,2.047c.733.484,2.017.236,2.107-.606a1.738,1.738,0,0,0-.145-.8c-.442-1.211-.9-2.422-1.338-3.633,1.7-.908,3.718.509,4.845,2.029,4.287,5.668,7.346,2.265,13.389,3.185,4.082.606,5.874,3.21,8.181,6.34,7.067,9.635,16.405,17.562,22.836,27.608.678,1.048,1.3,2.113,1.883,3.2-.109-.273-.2-.545-.309-.818a111.881,111.881,0,0,0-9.338-18.773q-1.211-1.908-2.422-3.749c-.515-.763-1.048-1.544-1.574-2.283-.678-.981-1.393-1.92-2.107-2.864-.569-.763-1.138-1.5-1.726-2.229-.4-.509-.824-1.011-1.241-1.52s-.914-1.138-1.429-1.7l-1.538-1.756a5.781,5.781,0,0,0-.5-.545c-.527-.606-1.1-1.211-1.665-1.817a.515.515,0,0,0-.164-.182c-.145-.164-.309-.327-.478-.491-.454-.509-.951-.993-1.423-1.484-.787-.8-1.593-1.593-2.422-2.356-.672-.672-1.369-1.3-2.083-1.938s-1.247-1.12-1.889-1.665-1.241-1.072-1.883-1.593c-.769-.654-1.556-1.29-2.362-1.92h0q-3.325-2.64-6.849-4.984c-.606-.4-1.157-.781-1.738-1.157s-1.211-.763-1.78-1.126-1.211-.739-1.817-1.084-1.211-.727-1.817-1.072c-.5-.291-.969-.563-1.466-.811a7.759,7.759,0,0,0-.751-.418c-1.042-.606-2.107-1.145-3.167-1.665-.533-.273-1.066-.545-1.611-.8-.678-.345-1.375-.672-2.071-.975a1.61,1.61,0,0,0-.309-.145c-.606-.291-1.247-.606-1.889-.854-.9-.382-1.817-.763-2.689-1.12-1.029-.418-2.053-.836-3.094-1.211-1.157-.436-2.307-.848-3.482-1.211s-2.362-.781-3.549-1.145-2.38-.684-3.591-1.011c-2.38-.606-4.8-1.211-7.231-1.684a.2.2,0,0,1-.133-.036c-.933-.182-1.865-.363-2.8-.509a.8.8,0,0,0-.182-.036c-.406-.073-.824-.145-1.248-.2-1.738-.291-3.5-.527-5.275-.727-.2-.036-.418-.055-.642-.073-.509-.067-1.023-.1-1.556-.157q-1.75-.164-3.531-.273c-1.211-.091-2.471-.145-3.718-.182s-2.6-.073-3.9-.073c-3.446,0-6.849.145-10.216.454-.805.054-1.593.127-2.38.218s-1.647.176-2.477.285-1.647.218-2.422.345-1.629.254-2.453.4c-.7.109-1.411.236-2.107.382-1.72.327-3.422.684-5.105,1.084q-1.211.273-2.362.606c-.787.2-1.575.418-2.344.606-1.3.357-2.568.757-3.827,1.157h0c-1.029.345-2.071.69-3.076,1.036a.187.187,0,0,0-.073,0c-1.048.363-2.053.745-3.076,1.145l-.17.055c-.933.363-1.865.745-2.78,1.12-1.157.472-2.289.981-3.409,1.49-.951.43-1.883.866-2.8,1.32s-1.98.981-2.949,1.484l-.109.054c-.933.491-1.871,1-2.786,1.52s-1.883,1.072-2.816,1.653h0c-.884.521-1.744,1.048-2.6,1.593-.327.2-.642.418-.969.636-.914.575-1.817,1.175-2.695,1.817-1.1.739-2.156,1.52-3.222,2.3-.933.684-1.817,1.393-2.743,2.1A114.18,114.18,0,0,0,94.6,107.181c-1.556,1.7-3.028,3.44-4.451,5.214-1.211,1.526-2.38,3.064-3.494,4.657-1.005,1.387-1.98,2.8-2.913,4.239.933-1.435,1.908-2.846,2.913-4.239.291-.036.606-.073.878-.091,1.647-.127,3.385-.073,4.845-.781,1.375-.666,2.344-1.883,3.591-2.749,3.185-2.247,8.405-2.665,9.265-6.431.291-1.266-.055-2.646.418-3.858.9-2.265,3.96-2.592,6.413-2.556,1.042,0,2.271.145,2.743,1.054a2.562,2.562,0,0,1-.109,2.1,19.724,19.724,0,0,1-8.327,10.192c-3.185,1.926-7.34,3.409-8.218,6.994.436,1.211,2.671,1.12,2.852,2.392.133,1.011-1.211,1.538-1.665,2.422-.7,1.32.9,2.931,2.422,2.858s2.786-1.157,3.9-2.174c3.337-3.028,6.831-6.359,8.042-10.7.509-1.817.7-3.894,2.156-5.093a3.61,3.61,0,0,1,5.45,1.72c1.441-.793,3.694-1.393,4.445.091a7.34,7.34,0,0,1,.315,1.7c.472,2.319,3.682,3.373,4.009,5.711.382,2.695-3.113,4.094-5.844,4.506-2.471.382-4.942.763-7.412,1.163a6.946,6.946,0,0,0-3.076.975,2.362,2.362,0,0,0-.914,2.846,7.213,7.213,0,0,0,1.278,1.3c2.053,2.029.369,6.213-2.525,6.3-.987.036-1.962-.327-2.949-.363-2.931-.127-5.256,2.422-6.661,4.984s-2.422,5.45-4.784,7.206c-3.767,2.81-10.295,2.156-12.112,6.468-.733,1.738-.351,3.694-.055,5.559s.418,3.912-.678,5.45-3.9,1.847-4.705.145a4.082,4.082,0,0,1-.109-2.422q.654-4.027,1.278-8.042c.315-1.992.606-4.239-.606-5.85-1.665-2.283-5.4-2.065-7.558-.236s-3.028,4.687-3.633,7.424a31.868,31.868,0,0,1-2.089,7.206h0c-.382,2.247-.7,4.53-.933,6.831s-.406,4.693-.5,7.085a9.9,9.9,0,0,0,.939-.872c1.151-1.175,3.476-6.159,5.565-3.712a1.817,1.817,0,0,1,.036,2.265c-.642.811-1.926.993-2.422,1.883-.606,1.048.236,2.356,1.211,3.028s2.241,1.187,2.919,2.192c1.338,1.9.055,4.784,1.356,6.722,1.114,1.665,3.494,1.774,5.529,1.992l.7.109c.569-3.985,2.422-7.231,7.945-8.478,7.582-1.7,17.562,4.512,21.8,10.162,4.76,6.322,7.013,15.267,14.3,18.44,5.22,2.265,12.632,1.447,15.176,6.5,2.271,4.524-1.684,9.617-2.283,14.631-.388,3.319.709,6.613.969,9.931s-.769,7.225-3.8,8.623c-1.7.763-3.845.672-5.22,1.938-2.422,2.283-.442,6.994-2.876,9.277a12.618,12.618,0,0,1-3.095,1.611c-5.45,2.737-5.323,10.707-2.78,16.23l.273.606a116.668,116.668,0,0,0,113.619,2.81h0a115.185,115.185,0,0,0,10.295-6.1,113.653,113.653,0,0,0,14.376-11.3,110.983,110.983,0,0,0,8.787-9.084c1.944-2.21,3.773-4.505,5.535-6.861.9-1.211,1.774-2.422,2.6-3.676a111.057,111.057,0,0,0,6.855-11.427,113.534,113.534,0,0,0,11.9-37.255c.351-2.574.606-5.184.805-7.812a6.661,6.661,0,0,1-4.651,2.047C289.1,192.786,286.839,190.485,285.695,187.947Z" transform="translate(-54.799 -62.129)"/><path class="e" d="M201.643,100.267c-2.3,1.356-3.512,3.912-5.281,5.892s-4.942,3.391-7.031,1.744a4.76,4.76,0,0,1-1.568-3.367,8.545,8.545,0,0,1,1.248-5.244c.993-1.6,2.513-2.87,3.361-4.56s.666-4.166-1.06-4.96c-.933-.43-2.113-.26-2.943-.866-1.49-1.084-.424-3.633,1.308-4.306s3.633-.145,5.5,0c6.71.424,11.639-3.918,16.684-7.527,3.918-2.8,12.275-6.122,16.811-3.252,1.817,1.145,2.519,4.082.811,5.378-.763.575-1.817.7-2.525,1.344-.854.769-.975,2.029-1.459,3.064-1.272,2.683-4.929,3.633-6.11,6.383-.709,1.641-.388,3.682-1.484,5.105a6.137,6.137,0,0,1-3.761,1.817l-8.72,2.059a13.02,13.02,0,0,0-3.785,1.3Z" transform="translate(-102.982 -63.662)"/><path class="b" d="M292.694,287.779c-2.9,4.324-3.428,9.732-4.239,14.861s-2.192,10.579-6.171,13.959-11.306,3.179-13.5-1.538c-1.211-2.562-.606-5.577-1.211-8.321-.842-3.573-3.718-6.334-5.087-9.75-1.163-2.907-1.169-6.128-1.26-9.259-.521-17.1-4.736-34.954-16.508-47.49a11.483,11.483,0,0,0-5.141-3.579,6.613,6.613,0,0,0-6.758,2.3c-.945,1.241-1.429,2.816-2.586,3.864-2.519,2.271-6.91.642-8.593-2.289s-1.447-6.522-1.163-9.883q.515-6.237,1.048-12.487c.182-2.18.424-4.518,1.871-6.171,2.053-2.35,5.741-2.465,8.254-4.324,3.3-2.422,3.736-7.1,5.814-10.622s8.587-5,9.55-1.042c6.879-14.57,22.085,7.073,31.133,5.45,2.622-.478,5.19-1.726,7.836-1.356,4.663.642,7.073,5.735,8.666,10.125q3.954,10.9,7.909,21.855c1.005,2.78,2.3,5.862,5.081,6.928,2.126.818,4.6.194,6.746.969,5.674,2.041,3.833,10.9-.733,14.782s-10.979,6.377-13.147,11.948c-1.635,4.2-.333,9.12-2.1,13.274C297.145,282.952,294.493,285.1,292.694,287.779Z" transform="translate(-115.847 -110.292)"/><path class="b" d="M365.7,348.752c-1.865.254-4.063-.654-5.48.569a5.993,5.993,0,0,0-1.338,2.931,6.274,6.274,0,0,1-2.646,3.567,4.009,4.009,0,0,1-4.312-.073,2.887,2.887,0,0,1-.606-4c.454-.521,1.108-.83,1.611-1.3,2.477-2.313.781-6.607,2.665-9.356,1.108-1.623,2.858-3.27,4.076-4.911.939-1.266,1.278-2.265,3.028-2.6C370.228,332.111,373.631,347.65,365.7,348.752Z" transform="translate(-167.31 -166.512)"/><path class="b" d="M80.475,289.99c-.369-3.276.733-6.552.787-9.871.036-2.283-.127-4.693-.164-6.988a32.044,32.044,0,0,1-5.88-.818,1.744,1.744,0,0,1-1.078-.545,2.059,2.059,0,0,1-.242-1.211c-.145-2.574-2.652-4.275-4.905-5.559a19.263,19.263,0,0,0-3.573-1.738c0,.266,0,.521,0,.793a112.965,112.965,0,0,0,7.364,36.335,109.007,109.007,0,0,0,7.067,15c1.132,2.083,2.38,4.13,3.682,6.141,1.611,2.483,3.294,4.905,5.105,7.267,1.69,2.247,3.482,4.439,5.365,6.54a115.512,115.512,0,0,0,8.206,8.309c2.543,2.356,5.2,4.578,7.963,6.7C103.856,333.574,97.9,316.43,87.1,302.181,84.266,298.432,81,294.629,80.475,289.99Z" transform="translate(-54.768 -138.816)"/><path class="e" d="M81.309,259.989l-.7-.109c-2.035-.218-4.415-.327-5.529-1.992-1.3-1.938,0-4.845-1.356-6.722-.7-1.005-1.908-1.429-2.889-2.138s-1.817-1.992-1.211-3.028c.491-.89,1.774-1.072,2.422-1.883a1.817,1.817,0,0,0-.036-2.265c-2.089-2.422-4.415,2.537-5.565,3.712a10.7,10.7,0,0,1-.933.872h0c0,.212-.042.412-.042.606,0,.678,0,1.375-.036,2.065s-.036,1.381-.036,2.065v3.355a19.209,19.209,0,0,1,3.567,1.738c2.253,1.284,4.76,2.986,4.905,5.559a2.113,2.113,0,0,0,.242,1.211,1.762,1.762,0,0,0,1.078.545,32.044,32.044,0,0,0,5.88.818" transform="translate(-54.76 -130.113)"/><path class="b" d="M90.916,271c.036,2.3.2,4.711.164,6.994-.054,3.313-1.151,6.595-.787,9.871.533,4.639,3.791,8.442,6.661,12.172,10.8,14.273,16.75,31.387,23.073,48.162h0c1.169.927,2.362,1.817,3.567,2.646.957.678,1.914,1.344,2.889,1.992s1.956,1.284,2.955,1.9c.7.436,1.393.848,2.107,1.266-.091-.2-.188-.382-.279-.575-2.543-5.529-2.689-13.5,2.786-16.229a12.538,12.538,0,0,0,3.095-1.617c2.422-2.277.436-6.988,2.876-9.271,1.369-1.266,3.512-1.175,5.214-1.938,3.028-1.393,4.051-5.269,3.809-8.605s-1.35-6.613-.969-9.925c.606-5.014,4.56-10.107,2.289-14.637-2.543-5.051-9.962-4.239-15.182-6.5-7.267-3.173-9.538-12.112-14.3-18.44-4.269-5.656-14.231-11.863-21.8-10.162-5.493,1.211-7.382,4.475-7.951,8.478" transform="translate(-64.549 -136.67)"/><path class="b" d="M73.632,170.59c2.156-1.817,5.892-2.047,7.558.236,1.211,1.629.92,3.858.606,5.85q-.606,4.015-1.278,8.042a4.082,4.082,0,0,0,.109,2.422c.805,1.7,3.633,1.375,4.705-.145s.969-3.633.678-5.45-.678-3.821.054-5.559c1.817-4.312,8.333-3.633,12.112-6.468,2.344-1.738,3.391-4.651,4.784-7.206s3.712-5.111,6.661-4.984c.987.036,1.962.4,2.949.363,2.895-.091,4.578-4.275,2.525-6.3a7.212,7.212,0,0,1-1.278-1.3,2.362,2.362,0,0,1,.914-2.846,6.946,6.946,0,0,1,3.076-.975c2.471-.4,4.942-.781,7.412-1.163,2.731-.412,6.225-1.817,5.844-4.506-.327-2.338-3.537-3.391-4.009-5.711a7.34,7.34,0,0,0-.315-1.7c-.751-1.484-3.028-.884-4.445-.091a3.609,3.609,0,0,0-5.45-1.72c-1.459,1.211-1.647,3.3-2.156,5.093-1.211,4.342-4.705,7.642-8.042,10.7-1.114,1.017-2.38,2.1-3.9,2.174s-3.113-1.538-2.422-2.858c.478-.908,1.817-1.435,1.665-2.422-.182-1.272-2.422-1.181-2.852-2.392.878-3.585,5.032-5.069,8.218-6.994a19.724,19.724,0,0,0,8.405-10.21,2.562,2.562,0,0,0,.109-2.1c-.472-.908-1.7-1.054-2.743-1.054-2.453-.036-5.511.291-6.413,2.556-.472,1.211-.127,2.592-.418,3.858-.86,3.767-6.056,4.185-9.265,6.431-1.247.866-2.216,2.083-3.591,2.749a13.576,13.576,0,0,1-4.845.781,6.841,6.841,0,0,0-.878.091c-1.005,1.387-1.98,2.8-2.913,4.239s-1.817,2.895-2.707,4.372a112.244,112.244,0,0,0-10.034,22.134c-.9,2.707-1.69,5.45-2.38,8.254s-1.266,5.626-1.744,8.478a31.868,31.868,0,0,0,2.089-7.206C70.592,175.278,71.489,172.419,73.632,170.59Z" transform="translate(-55.762 -82.827)"/><path class="b" d="M368.431,197.049q0-2.471-.151-4.905c-.085-1.629-.218-3.246-.382-4.845-.127-1.3-.273-2.592-.454-3.876s-.388-2.713-.606-4.051a109.183,109.183,0,0,0-2.707-11.888c-.43-1.5-.769-2.979-1.26-4.451s-1.12-2.919-1.671-4.372h0c-.606-1.084-1.211-2.156-1.883-3.2-6.425-10.071-15.745-17.968-22.836-27.6-2.3-3.137-4.1-5.729-8.181-6.34-6.056-.927-9.084,2.477-13.383-3.191-1.157-1.52-3.167-2.931-4.845-2.029.442,1.211.9,2.422,1.338,3.633a1.738,1.738,0,0,1,.145.8c-.091.854-1.375,1.09-2.107.606a7.443,7.443,0,0,1-1.611-2.047,5.981,5.981,0,0,0-8.7-.709,3.306,3.306,0,0,0-1.92-2.683,3.979,3.979,0,0,1-4.984,3.173c-.345-1.108,1.647-1.308,2.344-2.247s-.127-2.12-.951-2.864a12.8,12.8,0,0,0-7.963-3.028c-1.853-.036-3.845.309-5.45-.606-.939-.545-1.593-1.447-2.549-1.974-2.029-1.138-4.578-.091-6.625,1.036-2.8,1.538-5.7,3.476-6.661,6.5s1.211,7.085,4.4,6.7a6.217,6.217,0,0,1,2.422-.273c1.132.309,1.647,1.611,1.738,2.774a7.981,7.981,0,0,0,.533,3.385c.569,1.011,2.216,1.52,2.858.563,1.5-1.411,1.314-3.785.933-5.8s-.787-4.275.418-5.923,4.705-1.126,4.469.9c-.145,1.211-1.52,2.065-1.466,3.282s1.574,1.883,2.822,1.817,2.507-.491,3.718-.182,2.2,1.865,1.314,2.755c-1.52,1.7-5.45-1.211-6.262.9-.218.545,0,1.157-.055,1.738-.145,1.774-2.422,2.422-4.191,2.646a9.753,9.753,0,0,1-5.329-.382c-1.629-.763-2.749-2.883-1.817-4.4a2.053,2.053,0,0,0-2.8,1.017,5.691,5.691,0,0,0-.2,3.294c-1.908-.418-3.633,1.175-4.687,2.755s-2.144,3.44-4,4-4.427-.2-5.4,1.465c-1.26,2.174,2.422,4.929,1.12,7.079-.733,1.211-2.489,1.211-3.882,1.562-3.682,1.029-4.966,6.359-2.453,9.2s7.521,2.683,10.18-.036c1.817-1.865,2.6-4.493,3.936-6.734s3.864-4.239,6.389-3.537a7.709,7.709,0,0,1,2.622,1.635c1.211,1.011,2.422,2.023,3.676,3.028.787.654,1.653,1.465,1.575,2.483-.073.811-.715,1.447-.987,2.21-.769,2.192,2.422,4.269,4.451,3.076s2.235-4.239.86-6.141c-1.9-2.61-6.207-3.912-6.1-7.134,2.2-1.774,5.656.091,6.94,2.6s1.32,5.45,2.422,8.06,4.106,4.911,6.631,3.633c-.66-2.247-1.3-4.475-1.962-6.7,1.611-1.211,3.464,2.283,5.384,1.7,1.175-.363,1.32-2.029.805-3.149s-1.484-2.041-1.7-3.252c-.363-2.21,2.126-4.185,4.378-3.821a5.66,5.66,0,0,1,4.281,4.675,10.67,10.67,0,0,0,.606,2.592c.842,1.738,3.028,2.259,4.845,2.986s3.682,2.519,2.931,4.294c-.345.781-1.169,1.52-.878,2.319.273.709,1.338,1.011,1.338,1.774,0,.509-.551.854-1.029,1.048-1.211.491-2.525.654-3.694,1.211a3.329,3.329,0,0,0-2.144,2.931c.145,1.817,2.325,2.683,3.349,4.185s.842,3.337,1.466,4.966a19.359,19.359,0,0,0,2.768,3.967c3.028,4.094,3.755,9.362,5.232,14.219.66,2.192,1.871,4.639,4.142,5.051a7.081,7.081,0,0,0,3.664-.7c3.276-1.29,6.661-2.665,8.969-5.293s3.076-6.934.715-9.526a1.859,1.859,0,0,0-1.114-.709,3.416,3.416,0,0,0-1.726.606,4.938,4.938,0,0,1-5.105-1.084,13.886,13.886,0,0,1-3.028-4.512c-.9-1.817-1.817-3.633-2.713-5.414,1.084-.908,2.8-.527,3.918.357a19.914,19.914,0,0,1,2.677,3.264c2.725,3.367,7.212,4.845,11.554,5.359a11.076,11.076,0,0,1,3.258.672c3.24,1.465,4.172,6.2,7.6,7.206a22.081,22.081,0,0,1,2.913.654c1.35.606,2.029,2.156,2.422,3.585.751,2.665,1.005,5.45,2.138,8.006s3.409,4.845,6.2,4.875a6.71,6.71,0,0,0,4.651-2.047h0c.145-2.5.236-5,.236-7.539C368.467,198.1,368.467,197.57,368.431,197.049Z" transform="translate(-126.496 -77.523)"/><path class="h" d="M48.151,269.067a21.377,21.377,0,0,1-.266-3.633,20.82,20.82,0,0,1,.055-3.633,42.878,42.878,0,0,1,.212,7.267Z" transform="translate(-47.83 -138.24)"/><path class="h" d="M50.5,292.91a21.3,21.3,0,0,1-.69-3.567,20.535,20.535,0,0,1-.382-3.633,21.468,21.468,0,0,1,.69,3.567A20.445,20.445,0,0,1,50.5,292.91Z" transform="translate(-48.461 -147.671)"/><path class="h" d="M55.606,316.32a21.544,21.544,0,0,1-1.138-3.458,20.5,20.5,0,0,1-.818-3.543,21.245,21.245,0,0,1,1.145,3.44,20.79,20.79,0,0,1,.811,3.561Z" transform="translate(-50.126 -156.983)"/><path class="h" d="M63.537,338.936a21.067,21.067,0,0,1-1.526-3.294A21.476,21.476,0,0,1,60.8,332.22a21,21,0,0,1,1.526,3.3A21.073,21.073,0,0,1,63.537,338.936Z" transform="translate(-52.946 -166.016)"/><path class="h" d="M74.057,360.444a20.84,20.84,0,0,1-1.9-3.088,21.8,21.8,0,0,1-1.635-3.246,20.631,20.631,0,0,1,1.908,3.095A20.587,20.587,0,0,1,74.057,360.444Z" transform="translate(-56.779 -174.649)"/><path class="h" d="M87.067,380.564a21.2,21.2,0,0,1-2.253-2.846,20.945,20.945,0,0,1-2-3.028,21.327,21.327,0,0,1,2.259,2.846A20.45,20.45,0,0,1,87.067,380.564Z" transform="translate(-61.627 -182.767)"/><path class="h" d="M102.347,399.017a20.588,20.588,0,0,1-2.574-2.568,20.436,20.436,0,0,1-2.344-2.78A21.671,21.671,0,0,1,100,396.238a21.11,21.11,0,0,1,2.344,2.78Z" transform="translate(-67.393 -190.253)"/><path class="h" d="M119.653,415.582a21.057,21.057,0,0,1-2.846-2.253,19.984,19.984,0,0,1-2.646-2.489,21.467,21.467,0,0,1,2.852,2.253,21.193,21.193,0,0,1,2.64,2.489Z" transform="translate(-73.992 -197.025)"/><path class="h" d="M138.751,430.046a20.746,20.746,0,0,1-3.088-1.908,21.071,21.071,0,0,1-2.913-2.168,20.658,20.658,0,0,1,3.088,1.908,20.955,20.955,0,0,1,2.913,2.168Z" transform="translate(-81.324 -202.993)"/><path class="h" d="M159.381,442.231a20.983,20.983,0,0,1-3.288-1.544,20.782,20.782,0,0,1-3.143-1.817,21.8,21.8,0,0,1,3.288,1.544A20.591,20.591,0,0,1,159.381,442.231Z" transform="translate(-89.292 -208.081)"/><path class="h" d="M181.27,451.97a20.852,20.852,0,0,1-3.44-1.157,20.636,20.636,0,0,1-3.331-1.453,21.131,21.131,0,0,1,3.44,1.157A20.588,20.588,0,0,1,181.27,451.97Z" transform="translate(-97.791 -212.218)"/><path class="h" d="M204.125,459.153a20.959,20.959,0,0,1-3.549-.757,21.318,21.318,0,0,1-3.476-1.066,20.832,20.832,0,0,1,3.555.757A20.465,20.465,0,0,1,204.125,459.153Z" transform="translate(-106.705 -215.362)"/><path class="h" d="M227.636,463.681a20.294,20.294,0,0,1-3.633-.345,20.52,20.52,0,0,1-3.573-.666,42.206,42.206,0,0,1,7.206,1.011Z" transform="translate(-115.907 -217.468)"/><path class="h" d="M251.527,465.477a21.57,21.57,0,0,1-3.633.054,20.414,20.414,0,0,1-3.633-.26,21.732,21.732,0,0,1,3.633-.054,20.38,20.38,0,0,1,3.633.26Z" transform="translate(-125.306 -218.452)"/><path class="h" d="M275.487,464.327a19.984,19.984,0,0,1-3.6.46,20.3,20.3,0,0,1-3.633.145,42.424,42.424,0,0,1,7.237-.606Z" transform="translate(-134.768 -218.113)"/><path class="h" d="M299.2,460.33a21.144,21.144,0,0,1-3.531.866,20.735,20.735,0,0,1-3.591.551,42.772,42.772,0,0,1,7.122-1.417Z" transform="translate(-144.167 -216.545)"/><path class="h" d="M322.356,453.66a20.377,20.377,0,0,1-3.409,1.26,21.192,21.192,0,0,1-3.506.963,21.479,21.479,0,0,1,3.409-1.26,21.766,21.766,0,0,1,3.506-.963Z" transform="translate(-153.381 -213.914)"/><path class="h" d="M344.693,444.41a20.775,20.775,0,0,1-3.24,1.641,20.244,20.244,0,0,1-3.373,1.35A42.734,42.734,0,0,1,344.693,444.41Z" transform="translate(-162.311 -210.266)"/><path class="h" d="M365.825,432.69a20.932,20.932,0,0,1-3.028,2,20.5,20.5,0,0,1-3.2,1.726,21.935,21.935,0,0,1,3.028-2A21.192,21.192,0,0,1,365.825,432.69Z" transform="translate(-170.799 -205.643)"/><path class="h" d="M385.559,418.66a21.456,21.456,0,0,1-2.786,2.331A20.8,20.8,0,0,1,379.8,423.1a21.08,21.08,0,0,1,2.78-2.331,21.468,21.468,0,0,1,2.979-2.113Z" transform="translate(-178.766 -200.109)"/><path class="h" d="M403.6,402.49a20.4,20.4,0,0,1-2.495,2.634,21.1,21.1,0,0,1-2.719,2.422A42.2,42.2,0,0,1,403.6,402.5Z" transform="translate(-186.098 -193.731)"/><path class="h" d="M419.7,384.39a22.254,22.254,0,0,1-2.174,2.907A20.26,20.26,0,0,1,415.1,390a21.362,21.362,0,0,1,2.174-2.907A20.232,20.232,0,0,1,419.7,384.39Z" transform="translate(-192.689 -186.592)"/><path class="h" d="M433.626,364.57a42.96,42.96,0,0,1-3.906,6.122A40.751,40.751,0,0,1,433.626,364.57Z" transform="translate(-198.455 -178.775)"/><path class="h" d="M445.161,343.3a20.928,20.928,0,0,1-1.435,3.337,20.587,20.587,0,0,1-1.726,3.2,20.422,20.422,0,0,1,1.435-3.337A20.116,20.116,0,0,1,445.161,343.3Z" transform="translate(-203.299 -170.386)"/><path class="h" d="M454.12,320.87a20.974,20.974,0,0,1-1.023,3.482,21.635,21.635,0,0,1-1.326,3.385,41.009,41.009,0,0,1,2.35-6.867Z" transform="translate(-207.152 -161.539)"/><path class="h" d="M460.334,297.59a42.714,42.714,0,0,1-1.514,7.1,42.69,42.69,0,0,1,1.5-7.1Z" transform="translate(-209.933 -152.357)"/><path class="h" d="M463.737,273.79a21.092,21.092,0,0,1-.17,3.633,20.839,20.839,0,0,1-.478,3.633,21.407,21.407,0,0,1,.164-3.633A20.817,20.817,0,0,1,463.737,273.79Z" transform="translate(-211.61 -142.97)"/><path class="h" d="M464.1,249.82a20.962,20.962,0,0,1,.26,3.633,21.257,21.257,0,0,1-.048,3.633,21.457,21.457,0,0,1-.266-3.633,20.932,20.932,0,0,1,.054-3.633Z" transform="translate(-211.972 -133.515)"/><path class="h" d="M461.32,226a20.923,20.923,0,0,1,.7,3.567,21.256,21.256,0,0,1,.382,3.633,50.767,50.767,0,0,1-1.078-7.2Z" transform="translate(-210.919 -124.12)"/><path class="h" d="M455.64,202.74a20.271,20.271,0,0,1,1.12,3.458,20.934,20.934,0,0,1,.811,3.537,21.1,21.1,0,0,1-1.114-3.458A21.8,21.8,0,0,1,455.64,202.74Z" transform="translate(-208.679 -114.946)"/><path class="h" d="M447.21,180.3a21.317,21.317,0,0,1,1.526,3.3,20.438,20.438,0,0,1,1.211,3.415,40.113,40.113,0,0,1-2.737-6.716Z" transform="translate(-205.354 -106.095)"/><path class="h" d="M436.16,159a20.634,20.634,0,0,1,1.908,3.095,20.167,20.167,0,0,1,1.629,3.246,21.968,21.968,0,0,1-1.9-3.095A21.24,21.24,0,0,1,436.16,159Z" transform="translate(-200.995 -97.694)"/><path class="h" d="M422.68,139.23a19.986,19.986,0,0,1,2.259,2.846,21.583,21.583,0,0,1,2,3.028,21.2,21.2,0,0,1-2.259-2.852A21.2,21.2,0,0,1,422.68,139.23Z" transform="translate(-195.679 -89.896)"/><path class="h" d="M407,121.12a21.083,21.083,0,0,1,2.574,2.568,21.571,21.571,0,0,1,2.331,2.81,21.158,21.158,0,0,1-2.574-2.568A21.108,21.108,0,0,1,407,121.12Z" transform="translate(-189.494 -82.753)"/><path class="h" d="M389.29,105a20.878,20.878,0,0,1,2.852,2.253,20.479,20.479,0,0,1,2.646,2.489,21.194,21.194,0,0,1-2.852-2.253A21.511,21.511,0,0,1,389.29,105Z" transform="translate(-182.509 -76.395)"/><path class="h" d="M369.86,90.91a20.988,20.988,0,0,1,3.113,1.914,21.54,21.54,0,0,1,2.913,2.168,20.538,20.538,0,0,1-3.094-1.908,21.031,21.031,0,0,1-2.931-2.174Z" transform="translate(-174.845 -70.838)"/><path class="h" d="M349,79.2a42.384,42.384,0,0,1,6.437,3.361,21.667,21.667,0,0,1-3.294-1.544A21.328,21.328,0,0,1,349,79.2Z" transform="translate(-166.618 -66.219)"/><path class="h" d="M326.84,70a20.592,20.592,0,0,1,3.446,1.157,20.311,20.311,0,0,1,3.331,1.453,21.8,21.8,0,0,1-3.446-1.157A21.921,21.921,0,0,1,326.84,70Z" transform="translate(-157.877 -62.59)"/><path class="h" d="M303.82,63.28a20.959,20.959,0,0,1,3.555.757,20.633,20.633,0,0,1,3.476,1.066,21.559,21.559,0,0,1-3.555-.781,21.1,21.1,0,0,1-3.476-1.042Z" transform="translate(-148.798 -59.94)"/><path class="h" d="M280.2,59.27a21.455,21.455,0,0,1,3.633.351,21.2,21.2,0,0,1,3.573.66A40.66,40.66,0,0,1,280.2,59.27Z" transform="translate(-139.482 -58.358)"/><path class="h" d="M256.26,57.871a21.6,21.6,0,0,1,3.634-.054,21.359,21.359,0,0,1,3.633.254,41.262,41.262,0,0,1-7.267-.2Z" transform="translate(-130.039 -57.765)"/><path class="h" d="M232.32,58.862a44.131,44.131,0,0,1,7.267-.606,42.441,42.441,0,0,1-7.267.606Z" transform="translate(-120.597 -57.951)"/><path class="h" d="M208.69,62.367a21.135,21.135,0,0,1,3.531-.866,20.056,20.056,0,0,1,3.591-.551,21.2,21.2,0,0,1-3.531.86A20.971,20.971,0,0,1,208.69,62.367Z" transform="translate(-111.277 -59.021)"/><path class="h" d="M185.67,68.556a21.451,21.451,0,0,1,3.4-1.254,20.668,20.668,0,0,1,3.506-.963,20.918,20.918,0,0,1-3.409,1.26A20.657,20.657,0,0,1,185.67,68.556Z" transform="translate(-102.197 -61.147)"/><path class="h" d="M163.55,77.258a21.378,21.378,0,0,1,3.246-1.641,21.057,21.057,0,0,1,3.373-1.356,20.461,20.461,0,0,1-3.246,1.659A20.591,20.591,0,0,1,163.55,77.258Z" transform="translate(-93.472 -64.271)"/><path class="h" d="M142.65,88.5a20.936,20.936,0,0,1,3.028-2,20.591,20.591,0,0,1,3.191-1.726,21.478,21.478,0,0,1-3.028,2A21.322,21.322,0,0,1,142.65,88.5Z" transform="translate(-85.229 -68.416)"/><path class="h" d="M123.22,102.121a20.9,20.9,0,0,1,2.786-2.331,21.8,21.8,0,0,1,2.973-2.089,20.59,20.59,0,0,1-2.786,2.338A21.224,21.224,0,0,1,123.22,102.121Z" transform="translate(-77.565 -73.516)"/><path class="h" d="M105.53,117.833a21.553,21.553,0,0,1,2.5-2.64,21.426,21.426,0,0,1,2.713-2.422,20.777,20.777,0,0,1-2.495,2.64A20.4,20.4,0,0,1,105.53,117.833Z" transform="translate(-70.588 -79.46)"/><path class="h" d="M89.84,135.57a21.2,21.2,0,0,1,2.174-2.907,21.875,21.875,0,0,1,2.422-2.713,20.772,20.772,0,0,1-2.174,2.913A20.957,20.957,0,0,1,89.84,135.57Z" transform="translate(-64.4 -86.236)"/><path class="h" d="M76.36,155.062a20.589,20.589,0,0,1,1.817-3.143,21.154,21.154,0,0,1,2.089-2.979,21.154,21.154,0,0,1-1.817,3.149,21.9,21.9,0,0,1-2.089,2.973Z" transform="translate(-59.083 -93.726)"/><path class="h" d="M65.31,176.06a20.929,20.929,0,0,1,1.435-3.337,20.59,20.59,0,0,1,1.72-3.2,21.348,21.348,0,0,1-1.435,3.319A21.339,21.339,0,0,1,65.31,176.06Z" transform="translate(-54.724 -101.843)"/><path class="h" d="M56.88,198.277A20.8,20.8,0,0,1,57.9,194.8a20.31,20.31,0,0,1,1.326-3.385A21.723,21.723,0,0,1,58.2,194.9a21.275,21.275,0,0,1-1.32,3.379Z" transform="translate(-51.399 -110.477)"/><path class="h" d="M51.2,221.377a21.1,21.1,0,0,1,.606-3.585,20.82,20.82,0,0,1,.908-3.512,20.8,20.8,0,0,1-.606,3.579,20.518,20.518,0,0,1-.908,3.518Z" transform="translate(-49.159 -119.498)"/><path class="h" d="M48.349,245.121a21.5,21.5,0,0,1,.164-3.633,20.444,20.444,0,0,1,.484-3.6,21.08,21.08,0,0,1-.17,3.633,21.323,21.323,0,0,1-.478,3.6Z" transform="translate(-48.028 -128.81)"/></g><g transform="translate(169.485 97.743)"><path class="h" d="M279.1,233.075s0-.254.03-.751.03-1.241.139-2.2a45.362,45.362,0,0,1,1.562-8.339A46.63,46.63,0,0,1,282.9,216a44.446,44.446,0,0,1,3.379-6.449,46.9,46.9,0,0,1,12.19-12.844,45.733,45.733,0,0,1,9.041-5.038,45.03,45.03,0,0,1,10.791-3.028,47.011,47.011,0,0,1,18.2.769,48.443,48.443,0,0,1,6.159,1.968,46.575,46.575,0,0,1,21.1,16.877,45.771,45.771,0,0,1,3.6,6.219c.539,1.084.993,2.21,1.459,3.337a31.263,31.263,0,0,1,1.175,3.476,46.932,46.932,0,0,1,1.914,14.746,50.143,50.143,0,0,1-.848,7.467,45.076,45.076,0,0,1-2,7.134c-.412,1.163-.908,2.277-1.393,3.4a31.408,31.408,0,0,1-1.665,3.24,45.835,45.835,0,0,1-3.991,5.977,46.581,46.581,0,0,1-22.134,15.509,48.971,48.971,0,0,1-6.274,1.568,47.236,47.236,0,0,1-18.216-.388,46.438,46.438,0,0,1-30.606-22.927,44.168,44.168,0,0,1-3.028-6.661,45.172,45.172,0,0,1-1.7-5.892,45.82,45.82,0,0,1-1-8.424c-.048-.969,0-1.708,0-2.2v2.2a46.693,46.693,0,0,0,1.169,8.393,45.422,45.422,0,0,0,1.714,5.868,44.59,44.59,0,0,0,3.028,6.619,46.841,46.841,0,0,0,11.294,13.48,45.369,45.369,0,0,0,8.666,5.559,44.9,44.9,0,0,0,10.519,3.688,47.066,47.066,0,0,0,18.107.369,49.1,49.1,0,0,0,6.231-1.562,46.357,46.357,0,0,0,25.943-21.365c.606-1.042,1.12-2.132,1.653-3.222a31.424,31.424,0,0,0,1.381-3.367,45.367,45.367,0,0,0,1.986-7.091,50.307,50.307,0,0,0,.842-7.412,46.63,46.63,0,0,0-1.9-14.649c-.327-1.175-.757-2.313-1.163-3.452a30.45,30.45,0,0,0-1.447-3.313A44.861,44.861,0,0,0,363.5,208.4a46.3,46.3,0,0,0-20.953-16.787,48.767,48.767,0,0,0-6.116-1.956,45.846,45.846,0,0,0-6.159-1.011,46.131,46.131,0,0,0-31.666,8.278,46.86,46.86,0,0,0-12.172,12.76,45.107,45.107,0,0,0-3.428,6.413,45.645,45.645,0,0,0-2.089,5.747,46.856,46.856,0,0,0-1.593,8.315c-.115.963-.121,1.7-.17,2.2S279.1,233.075,279.1,233.075Z" transform="translate(-271.967 -159.877)"/><circle class="i" cx="38.248" cy="38.248" r="38.248" transform="translate(0 75.475) rotate(-45)"/><path class="h" d="M293.544,239.92s0-.842.133-2.422a37.476,37.476,0,0,1,1.26-6.885,38.242,38.242,0,0,1,4.53-10.095A38.812,38.812,0,0,1,309.556,209.9a38.289,38.289,0,0,1,26.258-6.9,37.846,37.846,0,0,1,5.117.878,39.646,39.646,0,0,1,5.087,1.623,38.424,38.424,0,0,1,17.429,13.928,36.426,36.426,0,0,1,2.967,5.135,35.225,35.225,0,0,1,2.174,5.626,38.363,38.363,0,0,1-.769,24.223,35.726,35.726,0,0,1-2.549,5.493,38.515,38.515,0,0,1-21.577,17.743,40.933,40.933,0,0,1-5.178,1.29,37.8,37.8,0,0,1-5.166.551,38.306,38.306,0,0,1-39.011-30.17,37.271,37.271,0,0,1-.818-6.946v0a38.23,38.23,0,0,0,39.847,36.843,37.279,37.279,0,0,0,5.129-.551,40.318,40.318,0,0,0,5.135-1.29,38.151,38.151,0,0,0,24.665-47.1,36.271,36.271,0,0,0-2.156-5.577,38.151,38.151,0,0,0-20.251-18.942,41.414,41.414,0,0,0-5.051-1.617,38.758,38.758,0,0,0-14.934-.654,38.242,38.242,0,0,0-16.278,6.6A38.757,38.757,0,0,0,299.588,220.6a38.212,38.212,0,0,0-5.874,16.89c-.1.793-.1,1.4-.145,1.817A3.573,3.573,0,0,0,293.544,239.92Z" transform="translate(-277.68 -165.669)"/><path class="h" d="M330.674,161.93a4.487,4.487,0,0,0-2.834-3.633,4.2,4.2,0,0,0-4.427,1.066,3.954,3.954,0,0,0-.521,4.493,4.53,4.53,0,0,0,3.288,2.1,7.485,7.485,0,0,0,3.936-.606" transform="translate(-289.079 -148.03)"/><path class="h" d="M342.464,175.631a19.53,19.53,0,0,1,1.9,9.447,11.417,11.417,0,0,1-4.384,8.351,2.422,2.422,0,0,1-1.72.606c-.606-.1-1.145-.805-.842-1.35a7.981,7.981,0,0,1-2.21,2.362,1.478,1.478,0,0,1-.993.357,1.1,1.1,0,0,1-.824-1.157,3.185,3.185,0,0,1,.545-1.441,3.563,3.563,0,0,0-1.756.648c-.545.279-1.4.339-1.714-.212s.048-1.1.369-1.562c1.453-2.132,2.931-4.384,3.246-6.952.218-1.817-.164-3.712.273-5.5a6.28,6.28,0,0,1,4.524-4.512,3.49,3.49,0,0,1,3.549.9" transform="translate(-292.203 -154.55)"/><path class="h" d="M372.17,180.471c1.3-1.653,3.688-2.138,4.736-3.96,1.847-3.2,1.714-6.225,1.708-9.931,0-2.531.357-6.116-1.132-8.163-1.048-1.447-1.817-2.331-2.725-3.851-1.023-1.671-2.077-3.633-.981-5.275" transform="translate(-308.701 -144.571)"/><path class="h" d="M370.484,180.23a3.633,3.633,0,0,1,4.336-.569L372.6,148.625c1.411-.145,4.639,1.847,5.535,2.943a13.02,13.02,0,0,1,1.908,3.773c2.029,5.45.291,11.881-2.307,16.684h0c1.5,4.178,1.435,8.042-1.114,10.416l-.042.036-.363.345a3.5,3.5,0,0,0-1.1,2.967v.042a3.529,3.529,0,0,1,.048.975.939.939,0,0,1-.551.751c-.5.17-1-.291-1.211-.781a5.8,5.8,0,0,0-.606-1.459,15.842,15.842,0,0,0-.854,1.732c-.339.551-1.108.963-1.623.575a1.508,1.508,0,0,1-.424-.684,9.49,9.49,0,0,1-.733-3.482A4.639,4.639,0,0,1,370.484,180.23Z" transform="translate(-307.518 -144.306)"/><path class="j" d="M344.664,161.223l.139,26.894a8,8,0,0,0,8.436,7.945h0a7.751,7.751,0,0,0,7.315-7.994c0-2.023.1-4.415.115-4.621,0,0,6.776-1.3,7.237-8.078.224-3.276.321-8.787.164-14.921a12.651,12.651,0,0,0-11.954-12.311l-.654-.036C348.383,148.118,344.446,154.144,344.664,161.223Z" transform="translate(-297.849 -144.102)"/><path class="k" d="M365.478,204.558a15.836,15.836,0,0,1-8.708-3.028s1.817,5,8.623,4.76Z" transform="translate(-302.627 -165.176)"/><path class="h" d="M376.038,176.326a.963.963,0,0,1-.987.927.933.933,0,0,1-.951-.927.975.975,0,0,1,.987-.927.927.927,0,0,1,.951.927Z" transform="translate(-309.462 -154.869)"/><path class="h" d="M377.705,173.227c-.109.091-.866-.073-1.9.109s-1.744.606-1.865.545.048-.164.363-.351a4.542,4.542,0,0,1,1.484-.527,4.015,4.015,0,0,1,1.52,0C377.638,173.081,377.76,173.19,377.705,173.227Z" transform="translate(-309.385 -153.895)"/><path class="h" d="M358.738,175.186a.975.975,0,0,1-.987.927.927.927,0,0,1-.951-.927.963.963,0,0,1,.987-.927.933.933,0,0,1,.951.927Z" transform="translate(-302.639 -154.42)"/><path class="h" d="M361.113,173.546a17.587,17.587,0,0,0-1.684-.866c-.975-.363-1.817-.375-1.889-.478s.127-.121.491-.121a4.415,4.415,0,0,1,1.544.3,4.033,4.033,0,0,1,1.308.769C361.131,173.388,361.18,173.539,361.113,173.546Z" transform="translate(-302.925 -153.56)"/><path class="h" d="M369.209,180.69a6.546,6.546,0,0,1,1.684-.212c.266,0,.521-.055.575-.23a1.332,1.332,0,0,0-.133-.8q-.315-.987-.672-2.071A36.365,36.365,0,0,1,369.209,172a34.639,34.639,0,0,1,1.908,5.269l.642,2.083a1.526,1.526,0,0,1,.079,1.048.666.666,0,0,1-.46.369,1.756,1.756,0,0,1-.454.036A7.023,7.023,0,0,1,369.209,180.69Z" transform="translate(-307.527 -153.529)"/><path class="h" d="M363.949,187.26c.17,0,.115,1.126,1.036,1.986s2.138.8,2.138.957-.285.206-.793.188a2.792,2.792,0,0,1-1.786-.733,2.465,2.465,0,0,1-.793-1.665C363.731,187.52,363.9,187.248,363.949,187.26Z" transform="translate(-305.379 -159.547)"/><path class="h" d="M360.537,167.136c-.115.279-1.151.085-2.38.164s-2.241.363-2.386.1c-.067-.127.121-.382.533-.636a4.191,4.191,0,0,1,3.633-.2C360.374,166.767,360.592,167,360.537,167.136Z" transform="translate(-302.228 -151.257)"/><path class="h" d="M377.953,168.059c-.2.23-.9-.055-1.768-.115s-1.6.073-1.756-.188c-.067-.121.061-.357.394-.563a2.555,2.555,0,0,1,2.84.248C377.953,167.7,378.038,167.95,377.953,168.059Z" transform="translate(-309.585 -151.507)"/><path class="h" d="M327.538,167.842c.254-1.29.424-2.592.606-3.894.309-2.265,5.384-10.295,5.384-10.295a28.666,28.666,0,0,1,6.213-8.617,12.874,12.874,0,0,1,9.689-3.476,8.6,8.6,0,0,1,7.515,6.5l-.563-.9c.091,1.241-1.254,2.138-2.477,2.192a35.107,35.107,0,0,1-3.633-.484,7.312,7.312,0,0,0-6.092,3.2,15.288,15.288,0,0,0-2.477,6.758c-.375,2.4-.478,4.845-.914,7.219-.46,2.556-1.944,3.4-3.924,5.032a37.967,37.967,0,0,0-5.2,5.244,3.337,3.337,0,0,1-2.707,1.054c-.757-.194-.933-1.338-1.017-2.132-.073-.89.5-1.726.606-2.919a2.513,2.513,0,0,1-1.211-2.017A8.479,8.479,0,0,1,327.538,167.842Z" transform="translate(-291.011 -141.498)"/><path class="j" d="M342.942,180.434c-.109-.055-4.584-1.635-4.693,3.028s4.578,3.8,4.59,3.664S342.942,180.434,342.942,180.434Z" transform="translate(-295.321 -156.736)"/><path class="k" d="M342.253,186.289a1.733,1.733,0,0,1-.224.115.83.83,0,0,1-.606,0,2.009,2.009,0,0,1-.884-1.817,2.676,2.676,0,0,1,.254-1.151.951.951,0,0,1,.606-.606.418.418,0,0,1,.472.236c.061.133,0,.224.048.23s.1-.073.073-.266a.551.551,0,0,0-.176-.3.605.605,0,0,0-.448-.127,1.145,1.145,0,0,0-.86.7,2.683,2.683,0,0,0-.309,1.284,2.1,2.1,0,0,0,1.132,2.035.878.878,0,0,0,.739-.1C342.241,186.4,342.265,186.3,342.253,186.289Z" transform="translate(-296.091 -157.711)"/><path class="l" d="M335.52,160.572a9.568,9.568,0,0,0,2.792-.23,11.759,11.759,0,0,0,2.8-1.169,30.924,30.924,0,0,0,3.131-2.071,33.758,33.758,0,0,1,3.143-2.12,12.2,12.2,0,0,1,2.846-1.211,7.061,7.061,0,0,1,2.077-.273,3.748,3.748,0,0,1,.569.048c.127,0,.194,0,.194.042a10.229,10.229,0,0,0-2.774.394,12.717,12.717,0,0,0-2.768,1.272,37.426,37.426,0,0,0-3.1,2.12,28.544,28.544,0,0,1-3.179,2.071,11.2,11.2,0,0,1-2.895,1.126,6.571,6.571,0,0,1-2.089.157,2.938,2.938,0,0,1-.563-.085C335.58,160.6,335.514,160.585,335.52,160.572Z" transform="translate(-294.245 -146.231)"/><path class="l" d="M333.54,166.379c0-.054.678.176,1.774.333a11.8,11.8,0,0,0,4.306-.206,11.652,11.652,0,0,0,2.235-.8,10.973,10.973,0,0,0,1.665-1c.9-.66,1.356-1.211,1.4-1.151s-.085.157-.291.4a7.766,7.766,0,0,1-.969.927,9.4,9.4,0,0,1-1.671,1.084,11.009,11.009,0,0,1-2.3.848,10.592,10.592,0,0,1-4.415.115,7.31,7.31,0,0,1-1.29-.351A1.544,1.544,0,0,1,333.54,166.379Z" transform="translate(-293.465 -150.197)"/><path class="f" d="M334.555,163.77a17.937,17.937,0,0,1-1.332,2.319,19.05,19.05,0,0,1-1.393,2.283,8.321,8.321,0,0,1,1.12-2.422A8.422,8.422,0,0,1,334.555,163.77Z" transform="translate(-292.79 -150.283)"/><path class="l" d="M386.323,164.784a3.742,3.742,0,0,1-3.773-1.308,19.384,19.384,0,0,0,1.817.9,16.211,16.211,0,0,0,1.956.406Z" transform="translate(-312.795 -150.164)"/><path class="l" d="M386.595,169.159a2.113,2.113,0,0,1-1.556.436,2.162,2.162,0,0,1-1.538-.5c.036-.085.7.17,1.544.182S386.558,169.075,386.595,169.159Z" transform="translate(-313.17 -152.378)"/><path class="j" d="M396.786,268.73l-11.506,9.3.49,3.2,2.477,7.352s3,.388,6.934-4.445,8.623-14.128,8.623-14.128Z" transform="translate(-313.872 -191.681)"/><path class="h" d="M422.805,232.6a1.145,1.145,0,0,0-.963-.606l-6.831-.285a2.1,2.1,0,0,0-1.593.66L395.73,251.142l.957.787,7.412,1.1,18.87-20.148Z" transform="translate(-317.994 -177.079)"/><path class="d" d="M431.785,235.87a.478.478,0,0,0,.727-.606.484.484,0,0,0-.727.606Z" transform="translate(-332.193 -178.441)"/><path class="l" d="M423.813,233.333a9.63,9.63,0,0,1-1.338,0l-3.633-.091-2.507-.079a1.411,1.411,0,0,0-1.138.418l-1.011,1.084-4.518,4.808c-3.216,3.409-6.147,6.48-8.278,8.684l-2.543,2.6a7.873,7.873,0,0,1-.975.92,8.22,8.22,0,0,1,.86-1.023l2.422-2.689c2.083-2.259,4.978-5.359,8.193-8.769l4.542-4.79,1.029-1.072a1.72,1.72,0,0,1,1.4-.509l2.507.133,3.633.218A7.776,7.776,0,0,1,423.813,233.333Z" transform="translate(-318.838 -177.516)"/><path class="j" d="M415.9,243.987s-.606-.218-1.211,1.35-2.507,6.056-2.507,6.056l-2.816-2.216-3.991-.2s-.987.636-.442,1.175a13.988,13.988,0,0,0,2.931,1.423l1.344,2.937-4.76-3.452s-1.817.139-1.5,1.29,3.228,5.111,3.228,5.111l-2.574-.672-2.761-2.422s-.963-.127-.751.751,2.907,4.39,2.907,4.39l3.573,2.6s2.168.218,2.483-.369a7.371,7.371,0,0,0,.533-1.478s1.211-.1,1.5-.606a3.4,3.4,0,0,0,.333-1.4s1.726.636,2.126-.321a11.453,11.453,0,0,0,.527-3.736c-.042-.793,2.18-7.727,2.144-7.951S417.107,243.733,415.9,243.987Z" transform="translate(-319.701 -181.914)"/><path class="k" d="M410.971,271.506a2.228,2.228,0,0,1-1.078.133,7.013,7.013,0,0,1-4.73-2.065c-.466-.491-.672-.854-.636-.884a11,11,0,0,0,2.967,1.992A16.6,16.6,0,0,0,410.971,271.506Z" transform="translate(-321.462 -191.665)"/><path class="k" d="M412.57,269.009c-.073.085-.7-.406-1.332-1.151s-1.017-1.435-.927-1.5.606.515,1.211,1.241S412.655,268.93,412.57,269.009Z" transform="translate(-323.74 -190.743)"/><path class="k" d="M417.115,264.007c-.073.079-.7-.4-1.278-1.169s-.866-1.5-.769-1.55.533.563,1.1,1.3S417.2,263.923,417.115,264.007Z" transform="translate(-325.614 -188.745)"/><path class="k" d="M421.712,259.732a11.532,11.532,0,0,1-.848-1.69,9.881,9.881,0,0,1-.89-1.677c.085-.079.751.515,1.247,1.49A3.268,3.268,0,0,1,421.712,259.732Z" transform="translate(-327.552 -186.801)"/><path class="f" d="M363.656,270.335c-2.628-3.906-4.978-12.4-4.978-12.4s-1.023-7.782-2.3-10.682-.92-4.088-.92-4.088,1.072-7.715.357-11.6-2.525-12.85-5.711-16.7l-16.75-5.22s-9.084,4.306-9.9,5.269-6.661,5.8-6.783,12.85c-.085,4.409,3.21,20.432,3.21,20.432l3.652,30.091s12.112,5.644,23.733,3.234,18.295-8.309,18.295-8.309Z" transform="translate(-286.81 -168.379)"/><path class="h" d="M381.746,263.224a1.968,1.968,0,0,0-.03-.418c-.03-.273-.085-.672-.157-1.211-.157-1.029-.394-2.519-.8-4.348a49.813,49.813,0,0,0-1.853-6.31,8.182,8.182,0,0,1-.472-3.742c.1-1.326.363-2.689.484-4.118a37.957,37.957,0,0,0-1.714-14.431,34.739,34.739,0,0,0-1.623-4.142c-.212-.478-.412-.842-.539-1.09a1.763,1.763,0,0,0-.212-.363,1.893,1.893,0,0,0,.151.394c.1.254.279.606.472,1.108a41.782,41.782,0,0,1,1.508,4.16,39.325,39.325,0,0,1,1.6,14.358c-.121,1.4-.388,2.768-.478,4.118a8.381,8.381,0,0,0,.509,3.864,55.6,55.6,0,0,1,1.92,6.262c.436,1.817.709,3.3.9,4.324.091.484.163.872.224,1.211A1.817,1.817,0,0,0,381.746,263.224Z" transform="translate(-309.75 -173.664)"/><path class="h" d="M372.592,240.17a38.587,38.587,0,0,1,.454,12.76,32.181,32.181,0,0,0-7.872,2.174q-.17-6.54-.333-13.087a1.011,1.011,0,0,1,.212-.805,1.029,1.029,0,0,1,.569-.188l7.1-.83" transform="translate(-305.805 -180.416)"/><g class="m" transform="translate(36.024 81.452)"><path d="M360.9,276q-17.017,5.014-33.482,11.669l-.563,10.022a3.949,3.949,0,0,0,3.67,2.338,10.482,10.482,0,0,0,4.439-1.151,75.292,75.292,0,0,0,22.406-15.03C359.515,281.765,361.719,278.925,360.9,276Z" transform="translate(-326.85 -276)"/></g><path class="f" d="M325.268,218.726a4.306,4.306,0,0,0-5.741.127c-2.967,2.786-7.3,7.485-7.558,11.4-.382,6-1.859,21.837-1.859,21.837l22.1-.067s.672-21.1-1.108-26C330.094,223.25,327.411,220.549,325.268,218.726Z" transform="translate(-284.223 -171.551)"/><path class="j" d="M314.48,269.39s.127,12.208,2.144,17.592c2.1,5.559,4.917,5.154,7.334,5.051s37.861-24.151,37.861-24.151l-5.032-6.952-27.409,11.779-.224-3.4Z" transform="translate(-285.947 -188.604)"/><path class="j" d="M384,253.889l5.832-9.29,5.983-2.12,7.582-.03a1.538,1.538,0,0,1-.7,1.817l2.634-.145a1.5,1.5,0,0,1-.739,2.053l1.908.121a2.7,2.7,0,0,1-2.743,1.871,41.181,41.181,0,0,0-5.583.26l-3.44,2.422,5.45-.848,4.051.3s.642.951-.23,1.3a25.525,25.525,0,0,1-4.342.5l-5.087,1.962a20.656,20.656,0,0,1-1.332,4.324c-.594.83-4.239,2.223-4.239,2.223Z" transform="translate(-313.367 -181.316)"/><path class="k" d="M410.381,245.131a10.518,10.518,0,0,1-2.047.151c-1.26.048-3.028.079-4.935.091h-1.774c-1.375.563-2.568,1.036-3.422,1.357a6.354,6.354,0,0,1-1.393.448,5.734,5.734,0,0,1,1.3-.678c.83-.388,2-.9,3.367-1.49H403.4c1.926,0,3.67,0,4.935.03a9.854,9.854,0,0,1,2.047.091Z" transform="translate(-318.42 -182.325)"/><path class="k" d="M412.487,248.486a8.578,8.578,0,0,1-1.859.085c-1.145,0-2.731,0-4.481-.085l-1.738-.061h.1a35.882,35.882,0,0,1-4.136,2,31.762,31.762,0,0,1,3.948-2.35h.1l1.738.048c1.75.054,3.331.127,4.475.2A8.891,8.891,0,0,1,412.487,248.486Z" transform="translate(-319.823 -183.536)"/><path class="k" d="M388.943,260.558a4.346,4.346,0,0,1,.575-.272c.382-.17.951-.418,1.665-.775.357-.176.751-.382,1.163-.636a5.138,5.138,0,0,0,.606-.442,1.853,1.853,0,0,0,.394-.678,26.975,26.975,0,0,0,1.017-3.773v-.067l.067-.03L399.5,251.9h.055c.9-.042,1.847-.109,2.822-.224a7.545,7.545,0,0,0,1.447-.266.478.478,0,0,0,.357-.412,1.151,1.151,0,0,0-.2-.606l.139.079-4.057-.285h.042l-5.45.854-.836.133.69-.491,3.44-2.422h.091c1.387-.145,2.858-.26,4.354-.285.412,0,.83,0,1.241.03a2.828,2.828,0,0,0,1.108-.157,2.6,2.6,0,0,0,1.453-1.575l.182.26-1.908-.115-.7-.048.606-.333a1.526,1.526,0,0,0,.739-.763,1.362,1.362,0,0,0-.067-1.023l.188.1-2.64.145-.721.042.606-.4a1.508,1.508,0,0,0,.606-.7,1.29,1.29,0,0,0,0-.89l.182.121h-7.527l-5.989,2.1.073-.055-4.33,6.77-1.211,1.817-.321.466c-.073.1-.109.157-.115.151a.765.765,0,0,1,.085-.176l.285-.484,1.12-1.865c1.011-1.641,2.453-3.967,4.239-6.843l.03-.042h.048l5.965-2.15h.055l7.582-.055h.139l.042.121a1.72,1.72,0,0,1,0,1.169,1.944,1.944,0,0,1-.757.89l-.115-.357,2.634-.151h.133l.054.109a1.756,1.756,0,0,1,.091,1.344,1.956,1.956,0,0,1-.92.987l-.085-.382,1.908.115h.273l-.091.242a3.028,3.028,0,0,1-1.7,1.817,3.179,3.179,0,0,1-1.278.182h-1.211a40.943,40.943,0,0,0-4.312.279l.091-.036-3.44,2.422-.145-.357,5.45-.836h.042l4.051.309h.1l.042.073a1.49,1.49,0,0,1,.248.86.842.842,0,0,1-.606.709,7.67,7.67,0,0,1-1.532.279c-.993.109-1.944.164-2.852.206h.048l-5.093,1.938.079-.1a25.745,25.745,0,0,1-1.09,3.8,1.986,1.986,0,0,1-.454.739,3.852,3.852,0,0,1-.642.448,9.022,9.022,0,0,1-1.211.606c-.727.333-1.3.563-1.7.715l-.448.157A.435.435,0,0,1,388.943,260.558Z" transform="translate(-313.308 -181.256)"/><path class="h" d="M309.49,254.7a1.484,1.484,0,0,1,.369-.036l1.072-.03,4-.067,13.7-.085-.2.182c.115-1.914.145-3.96.1-6.056-.061-3.476-.26-6.795-.357-9.81-.054-1.514-.054-2.949-.133-4.281a25,25,0,0,0-.448-3.682,13.928,13.928,0,0,0-1.98-4.948c-.715-1.054-1.247-1.526-1.211-1.55a1.907,1.907,0,0,1,.388.333,8.61,8.61,0,0,1,.957,1.126,13.371,13.371,0,0,1,2.132,4.978,24.512,24.512,0,0,1,.509,3.718c.1,1.35.1,2.786.17,4.287.121,3.028.327,6.328.394,9.822.042,2.113,0,4.172-.115,6.1v.188h-.188l-13.7-.054-4-.055h-1.072A1.483,1.483,0,0,1,309.49,254.7Z" transform="translate(-283.979 -174.173)"/></g><g transform="translate(86.405 30.564)"><path class="h" d="M154.563,95.936s.551-.727,1.684-2.059a50.131,50.131,0,0,1,5.45-5.347,47.532,47.532,0,0,1,10.119-6.54A43.511,43.511,0,0,1,187.2,77.817a40.144,40.144,0,0,1,9.3.388,36.159,36.159,0,0,1,9.623,3.028,35.008,35.008,0,0,1,15.812,15.236,40.557,40.557,0,0,1,4.1,23.945,49.439,49.439,0,0,1-31.333,39.55,40.574,40.574,0,0,1-24.253,1.484A35.015,35.015,0,0,1,152,149.542a36.528,36.528,0,0,1-5.111-8.678,39.859,39.859,0,0,1-2.5-8.969,43.263,43.263,0,0,1,.545-15.933,47.047,47.047,0,0,1,4.051-11.361,49.882,49.882,0,0,1,3.954-6.528c1.036-1.4,1.623-2.113,1.623-2.113l-.4.551c-.254.363-.672.884-1.169,1.6a51.423,51.423,0,0,0-3.9,6.546A47.326,47.326,0,0,0,145.11,116a43.208,43.208,0,0,0-.5,15.86,39.55,39.55,0,0,0,2.507,8.908,36.333,36.333,0,0,0,5.111,8.575,34.8,34.8,0,0,0,18.319,11.809,40.322,40.322,0,0,0,24.072-1.5,49.2,49.2,0,0,0,31.139-39.3A40.324,40.324,0,0,0,221.7,96.584a34.791,34.791,0,0,0-15.66-15.139,36.1,36.1,0,0,0-9.556-3.028,39.969,39.969,0,0,0-9.241-.4,43.226,43.226,0,0,0-15.333,4.112A47.483,47.483,0,0,0,161.775,88.6a51.583,51.583,0,0,0-5.45,5.293c-.606.648-.993,1.169-1.29,1.508Z" transform="translate(-135.584 -49.158)"/><ellipse class="d" cx="36.704" cy="32.302" rx="36.704" ry="32.302" transform="matrix(0.621, -0.784, 0.784, 0.621, 0, 76.908)"/><path class="h" d="M162.053,100.2s.454-.606,1.393-1.714a41.519,41.519,0,0,1,4.512-4.433,39.175,39.175,0,0,1,8.393-5.45A36.02,36.02,0,0,1,189.1,85.139a32.967,32.967,0,0,1,7.7.321,30.085,30.085,0,0,1,7.982,2.489,29.068,29.068,0,0,1,13.087,12.663,33.634,33.634,0,0,1,3.4,19.851,40.955,40.955,0,0,1-25.967,32.774,33.585,33.585,0,0,1-20.105,1.211,29.019,29.019,0,0,1-15.291-9.871,30.225,30.225,0,0,1-4.239-7.2,33.308,33.308,0,0,1-2.065-7.43,35.905,35.905,0,0,1,.454-13.2,39.363,39.363,0,0,1,3.361-9.417,41.52,41.52,0,0,1,3.288-5.353c.86-1.163,1.344-1.744,1.344-1.744l-.327.454c-.212.3-.557.733-.969,1.326a43.485,43.485,0,0,0-3.222,5.42,39.509,39.509,0,0,0-3.3,9.4,35.862,35.862,0,0,0-.406,13.129,33.169,33.169,0,0,0,2.071,7.376,30.31,30.31,0,0,0,4.239,7.128,28.808,28.808,0,0,0,15.139,9.756,33.422,33.422,0,0,0,19.924-1.211,40.737,40.737,0,0,0,25.773-32.532,33.391,33.391,0,0,0-3.337-19.712,28.82,28.82,0,0,0-12.965-12.548,29.945,29.945,0,0,0-7.873-2.489,32.9,32.9,0,0,0-7.655-.333,35.923,35.923,0,0,0-12.687,3.4,39.5,39.5,0,0,0-8.393,5.359,43,43,0,0,0-4.542,4.378c-.484.533-.824.969-1.072,1.247Z" transform="translate(-139.254 -52.053)"/><path class="h" d="M163.279,39.877a3.537,3.537,0,0,0-6.34.551,6.309,6.309,0,0,1-.606,1.556c-.9,1.211-3.143.866-3.87,2.2s1.011,3.125.606,4.687c-.345,1.247-1.95,1.817-2.313,3.028-.484,1.647,1.5,3.276,1.023,4.923-.412,1.417-2.422,1.944-2.725,3.379-.345,1.593,1.611,2.889,1.581,4.518-.042,2.083-3.222,3.228-2.931,5.293.164,1.138,1.375,1.9,1.581,3.028.382,2.132-2.919,3.633-2.525,5.747.133,1,1.1,1.659,1.95,2.265s1.665,1.472,1.5,2.477-1.332,1.6-1.962,2.465c-.975,1.32.569,4.748,2.071,5.408l6.237-4.663s-1.786-1.49-.388-2.858.5-1.98.442-3.028c0,0,1.393,1.169.878,2.422a3.028,3.028,0,0,0,.327,2.907l9.514-4.239,1.023-9.029Z" transform="translate(-136.701 -33.558)"/><path class="h" d="M148.407,81.584a2.423,2.423,0,0,1-.606.03,3.827,3.827,0,0,1-1.659-.5,3.755,3.755,0,0,1-1.726-2.1,3.833,3.833,0,0,1-.176-1.72,5.323,5.323,0,0,1,.636-1.817c.315-.606.7-1.211.993-1.859a3.791,3.791,0,0,0,.363-2.168,6.252,6.252,0,0,0-1.175-2.089,2.15,2.15,0,0,1-.412-1.26,1.532,1.532,0,0,1,.7-1.163,9.247,9.247,0,0,1,1.211-.66,2.3,2.3,0,0,0,.993-.842,1.647,1.647,0,0,0,.091-1.284,4.088,4.088,0,0,0-.606-1.247,14.3,14.3,0,0,1-.854-1.211,3.307,3.307,0,0,1-.563-1.423,2.071,2.071,0,0,1,.466-1.484,6.249,6.249,0,0,1,1.138-1.036,7.267,7.267,0,0,0,1.169-.951,1.883,1.883,0,0,0,.569-1.266,3.083,3.083,0,0,0-.4-1.363c-.218-.43-.484-.848-.7-1.29a2.652,2.652,0,0,1-.321-1.447,1.853,1.853,0,0,1,.218-.715,3.5,3.5,0,0,1,.442-.606c.666-.672,1.508-1.132,1.865-1.92a2.186,2.186,0,0,0,.151-1.211,6,6,0,0,0-.315-1.211,5.5,5.5,0,0,1-.46-2.422,1.877,1.877,0,0,1,.515-1.09,2.289,2.289,0,0,1,1-.606c.721-.218,1.435-.248,2.077-.4a2.422,2.422,0,0,0,1.55-.951c.333-.491.509-1.048.836-1.49a3.512,3.512,0,0,1,4.057-1.169,3.028,3.028,0,0,1,.406.206l.127.085a3.752,3.752,0,0,0-.551-.248,3.458,3.458,0,0,0-1.69-.151,3.312,3.312,0,0,0-2.241,1.35c-.309.43-.478.981-.824,1.5a2.5,2.5,0,0,1-1.629,1.023c-.666.17-1.375.2-2.065.412a2.12,2.12,0,0,0-.92.539,1.684,1.684,0,0,0-.454.981,5.3,5.3,0,0,0,.466,2.344,6.982,6.982,0,0,1,.327,1.26,2.459,2.459,0,0,1-.164,1.344c-.406.878-1.278,1.338-1.9,1.986a2.64,2.64,0,0,0-.406.533,1.659,1.659,0,0,0-.194.606,2.5,2.5,0,0,0,.3,1.326c.206.424.466.836.7,1.284a3.276,3.276,0,0,1,.43,1.465,2.216,2.216,0,0,1-.606,1.429,8.012,8.012,0,0,1-1.211.975,6.1,6.1,0,0,0-1.145,1.066,1.853,1.853,0,0,0-.424,1.32,3.191,3.191,0,0,0,.527,1.32c.26.412.569.781.854,1.211a4.469,4.469,0,0,1,.648,1.32,1.871,1.871,0,0,1-.115,1.453,2.5,2.5,0,0,1-1.084.927,9.728,9.728,0,0,0-1.169.642,1.314,1.314,0,0,0-.606,1.005,1.926,1.926,0,0,0,.363,1.1,6.8,6.8,0,0,1,1.211,2.162,3.948,3.948,0,0,1-.388,2.277c-.3.684-.7,1.272-1.005,1.865a5.3,5.3,0,0,0-.642,1.768,3.852,3.852,0,0,0,.151,1.659,3.718,3.718,0,0,0,1.647,2.065,4.058,4.058,0,0,0,1.623.527C148.2,81.6,148.407,81.572,148.407,81.584Z" transform="translate(-135.708 -33.268)"/><path class="l" d="M151.408,90.1a.733.733,0,0,1-.127-.091.672.672,0,0,1-.194-.418,1.211,1.211,0,0,1,.163-.727,1.459,1.459,0,0,1,.818-.606c.363-.133.793-.182,1.211-.291a1.859,1.859,0,0,0,1.211-.763.89.89,0,0,0,.042-.757,3.338,3.338,0,0,0-.448-.745,1.926,1.926,0,0,1-.394-.89,1.647,1.647,0,0,1,.248-.993c.164-.309.369-.606.551-.9a1.884,1.884,0,0,0,.321-.969,1.466,1.466,0,0,0-.454-.945c-.254-.279-.563-.527-.836-.836a1.387,1.387,0,0,1-.418-1.211,1.1,1.1,0,0,1,.309-.606,2.265,2.265,0,0,1,.545-.382c.394-.194.805-.333,1.211-.5a2.38,2.38,0,0,0,1.023-.733,1.465,1.465,0,0,0,.188-1.211,8.556,8.556,0,0,0-.478-1.29,5.45,5.45,0,0,1-.442-1.387,2.889,2.889,0,0,1,.248-1.478,15.91,15.91,0,0,0,1.26-2.665,2.216,2.216,0,0,0-.188-1.417,14.956,14.956,0,0,0-.763-1.332,3.234,3.234,0,0,1-.539-1.5,2.3,2.3,0,0,1,.533-1.478c.309-.418.672-.769.981-1.151a2.471,2.471,0,0,0,.606-1.247,2.253,2.253,0,0,0-.333-1.32c-.224-.412-.5-.8-.739-1.211a2.622,2.622,0,0,1-.4-1.381,2.755,2.755,0,0,1,.472-1.32c.242-.388.5-.745.69-1.126a1.762,1.762,0,0,0,.176-1.211c-.176-.8-.8-1.441-.951-2.277a1.587,1.587,0,0,1,.26-1.211,5.862,5.862,0,0,1,.775-.854,3.931,3.931,0,0,0,.7-.745,2.114,2.114,0,0,0,.26-.957c0-.666-.127-1.308-.085-1.938a3.633,3.633,0,0,1,.527-1.665,3.458,3.458,0,0,1,2.222-1.6,3.633,3.633,0,0,1,1.756.048,2.465,2.465,0,0,1,.563.236,3.434,3.434,0,0,0-.606-.188,3.573,3.573,0,0,0-1.72,0,3.379,3.379,0,0,0-2.138,1.575,3.543,3.543,0,0,0-.491,1.6c0,.606.121,1.211.1,1.938a2.247,2.247,0,0,1-.273,1.042,3.991,3.991,0,0,1-.715.848,5.335,5.335,0,0,0-.745.83,1.411,1.411,0,0,0-.23,1.054c.133.763.757,1.393.969,2.271a2.023,2.023,0,0,1-.194,1.326c-.194.406-.46.769-.69,1.151a2.519,2.519,0,0,0-.442,1.211,2.422,2.422,0,0,0,.382,1.26c.224.406.5.793.739,1.211a2.422,2.422,0,0,1,.357,1.459,2.671,2.671,0,0,1-.666,1.369c-.321.388-.684.739-.975,1.138a2.1,2.1,0,0,0-.491,1.332,3.119,3.119,0,0,0,.509,1.387,13.978,13.978,0,0,1,.775,1.35,2.507,2.507,0,0,1,.206,1.556,15.763,15.763,0,0,1-1.278,2.713,2.592,2.592,0,0,0-.23,1.356,5.075,5.075,0,0,0,.418,1.332,8.249,8.249,0,0,1,.484,1.326,1.69,1.69,0,0,1-.218,1.393,2.628,2.628,0,0,1-1.12.8c-.406.176-.818.309-1.211.5a1.078,1.078,0,0,0-.382,1.853c.254.291.563.539.83.836a1.659,1.659,0,0,1,.5,1.066,2,2,0,0,1-.357,1.066c-.188.309-.394.606-.551.884a1.5,1.5,0,0,0-.236.9,1.683,1.683,0,0,0,.357.818,3.632,3.632,0,0,1,.46.781,1.029,1.029,0,0,1-.061.866,1.926,1.926,0,0,1-1.278.811,11.321,11.321,0,0,0-1.211.266,1.375,1.375,0,0,0-.787.557,1.175,1.175,0,0,0-.182.684.769.769,0,0,0,.3.509Z" transform="translate(-138.419 -34.952)"/><path class="f" d="M163.07,159.494c2.828,3.028,12.015,6.34,12.015,6.34l-4.118-6.891-5.093-23.1-3.379-21.74c-.279.345-8.478,5.565-9.689,8.926s.866,18.888,1.211,21.262a29.631,29.631,0,0,0,9.053,15.206Z" transform="translate(-138.951 -63.513)"/><path class="f" d="M172.418,98.766l-.642,4.039-6.056,4.845a69.351,69.351,0,0,0-.091,18.416s8.854,24.005,9.084,25.053c.4,1.944,5.371,6.879,5.371,6.879s6.74,2.356,17.071-.363c9.653-2.543,17.071-10.549,18.125-11.506a63.062,63.062,0,0,0,4.191-5.335L207.777,116.9l-.466-16.266L194.976,97.47l-4.191-3.24Z" transform="translate(-143.932 -55.675)"/><path class="f" d="M234.319,104.85s6.831,2.368,8.617,6.468,7.872,21.4,8.012,24.956c0,.478-2.471,7.812-4.469,9.011-2.659,1.6-6.661-2.035-6.661-2.035l-2.774-4.518L237.2,134l-3.155-12.608Z" transform="translate(-171.139 -59.864)"/><path class="n" d="M177.65,100.717,191.754,118l1.92-15.987,2.671-7.873-18.367,4.542Z" transform="translate(-148.898 -55.64)"/><path class="h" d="M190.958,124.218a1.21,1.21,0,0,1-.133-.151l-.357-.466c-.315-.406-.775-1-1.381-1.732a57.108,57.108,0,0,0-5.329-5.674l.206-.085c-.054,2.338-.121,4.966-.182,7.733v1.26l-.242-.491c-2.162-4.451-4.112-8.478-5.529-11.367l-1.641-3.434-.436-.939a2.2,2.2,0,0,1-.133-.333,1.737,1.737,0,0,1,.182.309c.121.23.279.539.478.914l1.714,3.4,5.608,11.33-.254.055v-.715c.073-2.768.139-5.4.206-7.733v-.273l.194.188a51.4,51.4,0,0,1,5.281,5.759c.606.751,1.029,1.357,1.326,1.78l.327.484A.679.679,0,0,1,190.958,124.218Z" transform="translate(-148.168 -61.32)"/><path class="h" d="M221.891,155c.048.048-4.069,4.457-9.2,9.847s-9.338,9.689-9.393,9.659,4.057-4.433,9.2-9.816S221.842,155,221.891,155Z" transform="translate(-159.014 -79.644)"/><path class="h" d="M219.112,184.784a12.109,12.109,0,0,1-.4-1.6c-.23-.987-.575-2.35-1.054-3.821s-1-2.78-1.393-3.712a16.183,16.183,0,0,1-.606-1.526,7.51,7.51,0,0,1,.793,1.447,31.217,31.217,0,0,1,1.478,3.712,32.179,32.179,0,0,1,.963,3.851,8.763,8.763,0,0,1,.218,1.653Z" transform="translate(-163.89 -87.186)"/><path class="h" d="M159.88,142.438a31.447,31.447,0,0,1-3.428-2.168,30.969,30.969,0,0,1-3.282-2.38,31.236,31.236,0,0,1,3.428,2.162,29.748,29.748,0,0,1,3.282,2.386Z" transform="translate(-139.242 -72.896)"/><path class="h" d="M246.214,155.5a.7.7,0,0,1-.182,0h-.527a4.518,4.518,0,0,1-.842-.067,6.548,6.548,0,0,1-1.108-.248,7.346,7.346,0,0,1-2.634-1.526,9.156,9.156,0,0,1-2.259-3.185h0c-.478-1.944-1.011-4.1-1.575-6.365l-2.683-11.112c-.327-1.4-.606-2.543-.781-3.373-.085-.375-.151-.684-.2-.92a2.165,2.165,0,0,1-.055-.321,1.265,1.265,0,0,1,.1.309c.067.236.145.533.248.908l.866,3.349c.715,2.864,1.684,6.77,2.755,11.082.551,2.271,1.078,4.433,1.55,6.371h0a9.084,9.084,0,0,0,2.168,3.119,7.419,7.419,0,0,0,2.543,1.538,10.483,10.483,0,0,0,2.61.442Z" transform="translate(-170.875 -69.145)"/><path class="h" d="M168.555,173.658a10.006,10.006,0,0,1-1.005.224,6.946,6.946,0,0,0-3.985,2.713c-.369.521-.539.878-.575.86a2.477,2.477,0,0,1,.418-.963,6.128,6.128,0,0,1,1.756-1.817,6.056,6.056,0,0,1,2.344-.963A2.423,2.423,0,0,1,168.555,173.658Z" transform="translate(-143.116 -86.99)"/><path class="h" d="M169.115,172.714a10.816,10.816,0,0,1-4.935,1.211c0-.079,1.12-.236,2.477-.575S169.085,172.641,169.115,172.714Z" transform="translate(-143.585 -86.627)"/><path class="h" d="M210.4,157.622a.933.933,0,0,1-.139-.212l-.357-.606c-.309-.545-.733-1.344-1.241-2.344-1.023-1.992-2.35-4.79-3.633-7.945s-2.356-6.056-3.028-8.2c-.345-1.066-.606-1.932-.787-2.537-.073-.273-.139-.5-.188-.7a1.212,1.212,0,0,1-.055-.242,1.76,1.76,0,0,1,.1.23l.242.678c.212.606.509,1.478.86,2.507.739,2.107,1.817,5.008,3.113,8.157s2.616,5.953,3.591,7.963l1.163,2.38.315.648C210.375,157.537,210.411,157.616,210.4,157.622Z" transform="translate(-158.096 -71.693)"/><g class="m" transform="translate(44.425 76.428)"><path d="M203.53,174.937a41.667,41.667,0,0,0,17.6-18.167Z" transform="translate(-203.53 -156.77)"/></g><g class="m" transform="translate(19.88 85.744)"><path d="M163,176.906c1.447-3.113,4.3-3.973,7.079-3.93a.678.678,0,0,0-.478-.757,1.9,1.9,0,0,0-.975,0,10.9,10.9,0,0,0-3.833,1.314,3.827,3.827,0,0,0-1.75,3.264" transform="translate(-163 -172.155)"/></g><g class="m" transform="translate(27.686 47.305)"><path d="M175.89,108.68a70.083,70.083,0,0,0,8.7,19.494A11.246,11.246,0,0,0,186.3,120.7a8.66,8.66,0,0,0,4.239,2.973,40.816,40.816,0,0,0-6.564-7.424s-.224,8.672-.212,8.448c-2.677-5.371-5.275-10.658-7.873-16.018" transform="translate(-175.89 -108.68)"/></g><path class="h" d="M182.79,178.954a1.734,1.734,0,0,1-.127-.266c-.073-.182-.182-.478-.309-.8-.248-.69-.642-1.69-1.132-2.919-.987-2.422-2.483-5.783-4.209-9.435s-3.264-6.976-4.239-9.441c-.5-1.211-.878-2.229-1.114-2.937-.1-.321-.194-.606-.266-.805a.908.908,0,0,1-.073-.291,1.387,1.387,0,0,1,.133.266l.321.787c.273.69.684,1.677,1.211,2.895,1.036,2.422,2.6,5.735,4.324,9.393s3.2,7.007,4.13,9.489c.466,1.241.83,2.253,1.048,2.961l.248.811A.975.975,0,0,1,182.79,178.954Z" transform="translate(-146.401 -78.485)"/><path class="d" d="M165.753,156.9c0,.048-.666-.145-1.726-.321a15.684,15.684,0,0,0-8.266.872c-1.005.394-1.6.715-1.623.672s.127-.121.388-.279a9.294,9.294,0,0,1,1.145-.606,13.753,13.753,0,0,1,8.393-.884,8.834,8.834,0,0,1,1.247.345C165.6,156.813,165.759,156.88,165.753,156.9Z" transform="translate(-139.623 -80.065)"/><path class="d" d="M175.984,177.753a20.589,20.589,0,0,0-5.147,1.55,21.013,21.013,0,0,0-4.4,3.107,5.365,5.365,0,0,1,1.066-1.211,13.293,13.293,0,0,1,6.879-3.361,5.282,5.282,0,0,1,1.6-.085Z" transform="translate(-144.476 -88.608)"/><path class="d" d="M195,151.928c.042.079-3.773,2.113-8.514,4.548s-8.623,4.342-8.66,4.239,3.773-2.113,8.514-4.548S194.968,151.85,195,151.928Z" transform="translate(-148.969 -78.432)"/><path class="d" d="M222.943,136.627c0,.085-4.1,1.278-9.217,2.665s-9.277,2.422-9.3,2.368,4.1-1.284,9.217-2.671S222.943,136.542,222.943,136.627Z" transform="translate(-159.46 -72.396)"/><path class="d" d="M253.832,155.878a3.693,3.693,0,0,1-.406.345,8.98,8.98,0,0,1-1.211.769,12.778,12.778,0,0,1-2,.83,13.981,13.981,0,0,1-2.6.521,13.726,13.726,0,0,1-2.652,0,12.149,12.149,0,0,1-2.113-.442,8.7,8.7,0,0,1-1.357-.521,1.847,1.847,0,0,1-.466-.266c0-.054.709.266,1.883.575a13.04,13.04,0,0,0,2.083.363,14.775,14.775,0,0,0,2.592,0,15.3,15.3,0,0,0,2.543-.484,13.828,13.828,0,0,0,1.98-.751C253.184,156.271,253.8,155.829,253.832,155.878Z" transform="translate(-173.896 -79.989)"/><path class="d" d="M236.533,171a2.786,2.786,0,0,1-.5.5,17.245,17.245,0,0,1-1.478,1.211,36.625,36.625,0,0,1-5.353,3.446,35.941,35.941,0,0,1-5.874,2.422c-.775.242-1.417.418-1.859.515a2.768,2.768,0,0,1-.7.127,3.029,3.029,0,0,1,.666-.242c.43-.139,1.054-.339,1.817-.606a42.646,42.646,0,0,0,11.167-5.856c.654-.478,1.175-.872,1.532-1.151A3.221,3.221,0,0,1,236.533,171Z" transform="translate(-165.905 -85.955)"/><path class="d" d="M207.75,188.81a3.233,3.233,0,0,1-.606.363c-.418.218-1.029.5-1.817.836a41.9,41.9,0,0,1-12.675,3.222c-.836.073-1.514.109-1.98.121a3.834,3.834,0,0,1-.733,0,3.028,3.028,0,0,1,.721-.109c.466-.042,1.138-.115,1.968-.218a52.37,52.37,0,0,0,6.413-1.211,51.532,51.532,0,0,0,6.2-2.011c.781-.3,1.4-.563,1.817-.745A2.883,2.883,0,0,1,207.75,188.81Z" transform="translate(-153.745 -92.98)"/><path class="d" d="M172.474,128.41a17.652,17.652,0,0,1-1.877,1.157c-1.169.69-2.792,1.647-4.56,2.731s-3.349,2.1-4.493,2.84a14.928,14.928,0,0,1-1.883,1.151,2.537,2.537,0,0,1,.454-.382c.3-.236.745-.563,1.3-.951,1.12-.787,2.683-1.817,4.457-2.925s3.415-2.017,4.615-2.658c.606-.321,1.1-.569,1.441-.739A2.168,2.168,0,0,1,172.474,128.41Z" transform="translate(-141.802 -69.157)"/><path class="d" d="M182.113,114.129a3.028,3.028,0,0,1-.327,1.332,3.419,3.419,0,0,1-.606,1.211,3.094,3.094,0,0,1,.333-1.332A3.055,3.055,0,0,1,182.113,114.129Z" transform="translate(-150.29 -63.524)"/><path class="d" d="M219.454,112.707c0,.079-3.633,1.266-8.193,2.646s-8.26,2.428-8.26,2.374,3.633-1.266,8.193-2.646S219.429,112.622,219.454,112.707Z" transform="translate(-158.896 -62.961)"/><g class="m" transform="translate(26.009 76.942)"><path d="M173.12,157.62l10.622,23.945A35.281,35.281,0,0,0,173.12,157.62Z" transform="translate(-173.12 -157.62)"/></g><path class="n" d="M184.175,46.341,170,43.8c-4.487-.164-7.073,5.523-7.049,10.016.03,4.99.26,11.076,1.1,14.746,1.7,7.37,7.473,7.927,7.473,7.927l.327,4.366,14.716.236.115-32.229A2.634,2.634,0,0,0,184.175,46.341Z" transform="translate(-143.1 -35.782)"/><path class="h" d="M167.3,68.5a.945.945,0,0,0,.987.9.92.92,0,0,0,.927-.927.963.963,0,0,0-.987-.9.914.914,0,0,0-.927.933Z" transform="translate(-144.815 -45.16)"/><path class="h" d="M165.668,63.868c.127.121.811-.466,1.817-.533s1.817.394,1.92.26-.085-.279-.43-.5a2.677,2.677,0,0,0-1.544-.363,2.525,2.525,0,0,0-1.459.606C165.7,63.584,165.608,63.82,165.668,63.868Z" transform="translate(-144.165 -43.251)"/><path class="h" d="M182.81,68.5a.945.945,0,0,0,.987.9.92.92,0,0,0,.945-.927.963.963,0,0,0-.987-.9.914.914,0,0,0-.945.933Z" transform="translate(-150.933 -45.16)"/><path class="h" d="M182.438,63.838c.127.115.818-.466,1.847-.533s1.817.394,1.92.26-.085-.279-.43-.5a2.7,2.7,0,0,0-1.55-.363,2.483,2.483,0,0,0-1.453.606C182.469,63.554,182.378,63.79,182.438,63.838Z" transform="translate(-150.779 -43.239)"/><path class="h" d="M175.4,72a6.6,6.6,0,0,0-1.69-.188c-.266,0-.515-.042-.606-.218a1.393,1.393,0,0,1,.121-.793c.206-.648.418-1.332.642-2.053a34.894,34.894,0,0,0,1.387-5.347,34.781,34.781,0,0,0-1.817,5.226c-.212.721-.418,1.4-.606,2.059a1.52,1.52,0,0,0-.061,1.042.654.654,0,0,0,.454.357,2.059,2.059,0,0,0,.454.03A6.7,6.7,0,0,0,175.4,72Z" transform="translate(-146.947 -43.515)"/><path class="o" d="M177.08,95.6a18.961,18.961,0,0,0,9.8-3.349s-2.162,5.3-9.689,5.117Z" transform="translate(-148.673 -54.894)"/><path class="h" d="M181.335,59.623c.121.273,1.138.073,2.356.133s2.216.327,2.362.067c.061-.127-.127-.382-.539-.606a4,4,0,0,0-1.78-.491,3.954,3.954,0,0,0-1.817.345C181.493,59.26,181.287,59.5,181.335,59.623Z" transform="translate(-150.349 -41.67)"/><path class="h" d="M165.983,59.67c.2.224.89-.067,1.744-.139s1.581.048,1.732-.206c.067-.121-.067-.351-.394-.551a2.422,2.422,0,0,0-1.447-.285,2.489,2.489,0,0,0-1.356.563C165.983,59.313,165.91,59.561,165.983,59.67Z" transform="translate(-144.286 -41.572)"/><path class="h" d="M170.652,38.446c-.442.927,1.363,2.634,2.338,2.961s2.222.157,2.749,1.036c.606,1-.606,2.61,1.4,3.7.636.345,1.575-.375,2.107.115.66.606-.2,1.653-.176,2.543.054,1.744,3.228,1.877,3.434,3.633.133,1.084-1.078,2.12-.654,3.125s2.162.945,2.592,1.974c.551,1.326-1.69,2.477-1.411,3.882s2.616,1.393,3.082,2.737c.4,1.145-.89,2.422-.448,3.531.5,1.3,2.683,1.108,3.27,2.362.709,1.52-1.7,3.27-.878,4.73.273.491.9.66,1.266,1.084a4.648,4.648,0,0,1-.151,5.541h.878a7.981,7.981,0,0,0,6.595-3.682h0l.727,1.69a18.376,18.376,0,0,0,6.056-3.845,3.779,3.779,0,0,1,3.4-.745l.515.145a8.851,8.851,0,0,0,4.923-1.532c-1.726-.345-2.652-2.229-3.082-3.936s-.69-3.633-1.98-4.8c-1.4-1.3-3.815-1.587-4.463-3.379-.5-1.411.436-3.028,0-4.439s-2.15-2.15-2.8-3.512c-.89-1.853.394-4.306-.739-6.056-1.211-1.865-4.524-1.593-5.45-3.633-.515-1.126-.1-2.652-.987-3.512-.709-.684-1.92-.575-2.671-1.211-1.09-.951-.557-2.9-1.508-3.991-1.29-1.478-3.93-.176-5.583-1.211-1.042-.666-1.387-2.089-2.422-2.767-1.4-.927-3.228-.091-4.808.46-1.211.424-2.507.672-3.694,1.211a4.742,4.742,0,0,0-2.725,2.61,2.562,2.562,0,0,0,1.332,3.228" transform="translate(-145.569 -30.564)"/><path class="h" d="M217.258,67.775l.121.109c.079.073.2.188.345.339a4.438,4.438,0,0,1,.5.606,2.331,2.331,0,0,1,.406.993,1.653,1.653,0,0,1-.394,1.272,1.048,1.048,0,0,1-1.5.139,2.562,2.562,0,0,1-.709-1.684,17.958,17.958,0,0,1,0-2.053,17.463,17.463,0,0,1,.2-2.247c.048-.388.115-.781.182-1.211a4.8,4.8,0,0,0,.073-1.211,1.326,1.326,0,0,0-.551-1.023,2.017,2.017,0,0,0-1.211-.224,10.15,10.15,0,0,1-1.375.067,1.684,1.684,0,0,1-1.3-.606,2.422,2.422,0,0,1-.448-1.4,7.146,7.146,0,0,1,.115-1.484,5.408,5.408,0,0,0,.042-1.465,1.768,1.768,0,0,0-.7-1.211,8.084,8.084,0,0,0-1.363-.684,2.652,2.652,0,0,1-1.211-1.084,6.334,6.334,0,0,1-.515-3.21,9.38,9.38,0,0,0-.079-1.6,3.234,3.234,0,0,0-.563-1.435,5.927,5.927,0,0,0-2.592-1.611,7.079,7.079,0,0,1-1.363-.745,2.562,2.562,0,0,1-.945-1.211,8.006,8.006,0,0,1-.218-1.472,1.817,1.817,0,0,0-.521-1.211,2.513,2.513,0,0,0-1.211-.5,7.037,7.037,0,0,1-1.344-.333,1.817,1.817,0,0,1-.987-.933,3.863,3.863,0,0,1-.266-1.284,5.4,5.4,0,0,0-.424-2.338,3.246,3.246,0,0,0-1.684-1.332,6.262,6.262,0,0,0-1.974-.382c-.642,0-1.247,0-1.817-.048a8.393,8.393,0,0,1-1.581-.182,4.44,4.44,0,0,1-1.247-.5,2.955,2.955,0,0,1-1.26-1.332,1.817,1.817,0,0,1-.163-.606,3.989,3.989,0,0,0,.206.606,2.925,2.925,0,0,0,1.26,1.278,4.481,4.481,0,0,0,1.211.472,8.775,8.775,0,0,0,1.562.164h1.817a6.425,6.425,0,0,1,2.023.375,3.331,3.331,0,0,1,1.774,1.381,5.45,5.45,0,0,1,.46,2.422,3.634,3.634,0,0,0,.254,1.211,1.641,1.641,0,0,0,.9.836,6.709,6.709,0,0,0,1.3.309,2.755,2.755,0,0,1,1.332.545,2.047,2.047,0,0,1,.606,1.35,7.818,7.818,0,0,0,.212,1.429,2.337,2.337,0,0,0,.848,1.132,6.6,6.6,0,0,0,1.357.709c.466.212.951.406,1.417.666a3.7,3.7,0,0,1,1.26,1.017,3.494,3.494,0,0,1,.606,1.526,10.69,10.69,0,0,1,.085,1.647,5.989,5.989,0,0,0,.484,3.1,2.362,2.362,0,0,0,1.114.987,8.987,8.987,0,0,1,1.4.709,1.986,1.986,0,0,1,.787,1.363,5.578,5.578,0,0,1-.048,1.526,7.339,7.339,0,0,0-.145,1.435,2.289,2.289,0,0,0,.4,1.29,1.526,1.526,0,0,0,1.157.551,12.553,12.553,0,0,0,1.344-.061,2.156,2.156,0,0,1,1.338.254,1.514,1.514,0,0,1,.606,1.163,4.755,4.755,0,0,1-.085,1.254c-.067.406-.133.793-.182,1.211-.109.769-.176,1.514-.218,2.229a17.714,17.714,0,0,0-.03,2.029,2.5,2.5,0,0,0,.672,1.587.993.993,0,0,0,.721.218,1,1,0,0,0,.606-.333,1.587,1.587,0,0,0,.382-1.211,2.307,2.307,0,0,0-.375-.963,5.068,5.068,0,0,0-.472-.606l-.327-.351C217.294,67.823,217.252,67.781,217.258,67.775Z" transform="translate(-152.874 -30.91)"/><path class="l" d="M195.183,82.218a1.084,1.084,0,0,1,.206-.091,5.628,5.628,0,0,0,.606-.266,2.253,2.253,0,0,0,.8-.636,1.284,1.284,0,0,0,.151-1.3,1.029,1.029,0,0,0-.606-.46c-.279-.091-.606-.127-.9-.236a1.1,1.1,0,0,1-.448-.266.811.811,0,0,1-.218-.5,2.168,2.168,0,0,1,.375-1.048,2.368,2.368,0,0,0,.369-1.06,2.241,2.241,0,0,0-.218-1.163,2.174,2.174,0,0,0-2.138-1.145h-.091v-.091a3.028,3.028,0,0,1,.606-1.865,11.221,11.221,0,0,0,1.078-1.72,2.652,2.652,0,0,0,.236-.993,1.4,1.4,0,0,0-.315-.945,5.067,5.067,0,0,0-1.944-.981,1.732,1.732,0,0,1-.9-.805,1.641,1.641,0,0,1,0-1.211,7.079,7.079,0,0,0,.727-2.241,1.768,1.768,0,0,0-.454-1.042,3.724,3.724,0,0,0-.933-.769,17.053,17.053,0,0,1-2.2-1.278,2.253,2.253,0,0,1-.86-1.356,3.361,3.361,0,0,1,.151-1.575c.139-.5.315-.975.412-1.459a2.845,2.845,0,0,0,.055-.715,1.477,1.477,0,0,0-.224-.654,2.053,2.053,0,0,0-1.2-.757,7.812,7.812,0,0,1-1.357-.539,1.726,1.726,0,0,1-.854-1.175,3.542,3.542,0,0,1,.085-1.411c.091-.448.206-.884.26-1.314a2.465,2.465,0,0,0-.109-1.247,2.029,2.029,0,0,0-.775-.914,4.239,4.239,0,0,0-1.108-.46c-.769-.206-1.568-.266-2.289-.533a3.094,3.094,0,0,1-.981-.563,2.852,2.852,0,0,1-.648-.86c-.327-.606-.5-1.26-.763-1.817a3.246,3.246,0,0,0-1.054-1.332,3.185,3.185,0,0,0-2.616-.569,3.367,3.367,0,0,0-1.538.8c-.3.279-.412.46-.424.454a2.344,2.344,0,0,1,.394-.484,3.343,3.343,0,0,1,1.55-.854,3.294,3.294,0,0,1,2.707.551,3.4,3.4,0,0,1,1.09,1.369c.273.563.454,1.211.769,1.817a2.8,2.8,0,0,0,.606.811,2.749,2.749,0,0,0,.933.521c.7.254,1.478.315,2.277.521a4.366,4.366,0,0,1,1.163.478,2.174,2.174,0,0,1,.866.981,2.67,2.67,0,0,1,.127,1.344c-.055.448-.17.884-.26,1.326a3.554,3.554,0,0,0-.079,1.332,1.514,1.514,0,0,0,.757,1.036,8.63,8.63,0,0,0,1.326.521,2.3,2.3,0,0,1,1.241.86,1.659,1.659,0,0,1,.254.751,3.028,3.028,0,0,1-.055.775c-.1.509-.279.987-.418,1.478a3.227,3.227,0,0,0-.145,1.472,2.059,2.059,0,0,0,.787,1.211,17.4,17.4,0,0,0,2.192,1.272,4.106,4.106,0,0,1,.987.811,1.974,1.974,0,0,1,.5,1.175,7.4,7.4,0,0,1-.733,2.313,1.429,1.429,0,0,0,0,1.072,1.532,1.532,0,0,0,.787.709c.339.157.7.266,1.054.406a2.422,2.422,0,0,1,.963.606,1.6,1.6,0,0,1,.351,1.078,2.865,2.865,0,0,1-.248,1.066,11.264,11.264,0,0,1-1.1,1.744,2.846,2.846,0,0,0-.606,1.75l-.1-.079a2.307,2.307,0,0,1,2.3,1.247,2.386,2.386,0,0,1-.164,2.356,2.1,2.1,0,0,0-.369.975.757.757,0,0,0,.569.66c.3.109.606.151.9.242a1.054,1.054,0,0,1,.787,1.284,1.465,1.465,0,0,1-.273.606,2.265,2.265,0,0,1-.836.642A4.427,4.427,0,0,1,195.183,82.218Z" transform="translate(-147.119 -34.556)"/><path class="l" d="M206.117,76.984a2.909,2.909,0,0,0,.309-.606,2.422,2.422,0,0,0-.121-1.817,2.119,2.119,0,0,0-.933-.945,6.094,6.094,0,0,1-.672-.424,1.138,1.138,0,0,1-.46-.739c-.091-.606.351-1.211.339-1.817a1.066,1.066,0,0,0-.442-.818,4.487,4.487,0,0,0-.945-.491,4.282,4.282,0,0,1-1.011-.557,1.647,1.647,0,0,1-.606-1.054,14.724,14.724,0,0,1,.145-2.519,2.059,2.059,0,0,0-.3-1.211,2.368,2.368,0,0,0-1.066-.739,11.463,11.463,0,0,1-1.314-.551,1.641,1.641,0,0,1-.9-1.181,5.4,5.4,0,0,1,.073-1.5,1.768,1.768,0,0,0-.266-1.375,3.028,3.028,0,0,0-1.29-.727,2.6,2.6,0,0,1-1.344-.9,2.386,2.386,0,0,1-.285-1.623,10.038,10.038,0,0,1,.406-1.6,4.239,4.239,0,0,0,.212-1.593,1.817,1.817,0,0,0-.811-1.3,4.687,4.687,0,0,0-1.544-.539c-.539-.109-1.1-.194-1.629-.351a3.137,3.137,0,0,1-1.465-.811,3.791,3.791,0,0,1-.836-1.417,25.756,25.756,0,0,1-.606-3.076,5.7,5.7,0,0,0-.478-1.411,2.7,2.7,0,0,0-.975-1.011,5.177,5.177,0,0,0-2.755-.291,6.661,6.661,0,0,1-1.387-.042,2.852,2.852,0,0,1-1.254-.527,8.872,8.872,0,0,1-1.574-1.986,5.347,5.347,0,0,0-.757-.884,4.16,4.16,0,0,0-.927-.606,5.317,5.317,0,0,0-3.845-.224,7.636,7.636,0,0,0-2.586,1.459,11.662,11.662,0,0,0-1.35,1.338l-.321.375-.115.127s.03-.048.1-.139.163-.224.3-.394a11.749,11.749,0,0,1,1.326-1.375,7.727,7.727,0,0,1,2.61-1.514,5.45,5.45,0,0,1,3.948.206,4.42,4.42,0,0,1,.969.606,5.4,5.4,0,0,1,.787.908,8.478,8.478,0,0,0,1.55,1.938,2.574,2.574,0,0,0,1.169.484,6.256,6.256,0,0,0,1.35.036c.46,0,.933-.061,1.417-.042a3.294,3.294,0,0,1,1.441.345,2.925,2.925,0,0,1,1.036,1.108,6.122,6.122,0,0,1,.509,1.453c.218,1.011.309,2.059.606,3.058a3.524,3.524,0,0,0,.781,1.332,3.028,3.028,0,0,0,1.375.757c.515.151,1.066.236,1.611.345a4.845,4.845,0,0,1,1.623.563,2.047,2.047,0,0,1,.908,1.465,4.434,4.434,0,0,1-.218,1.677,9.465,9.465,0,0,0-.4,1.568,2.174,2.174,0,0,0,.248,1.484,2.368,2.368,0,0,0,1.26.83,3.191,3.191,0,0,1,1.375.793,1.532,1.532,0,0,1,.315.751,3.314,3.314,0,0,1,0,.775,5.68,5.68,0,0,0-.079,1.453,1.466,1.466,0,0,0,.793,1.042,12.87,12.87,0,0,0,1.29.545,2.507,2.507,0,0,1,1.145.805,2.18,2.18,0,0,1,.333,1.32,18.235,18.235,0,0,0-.164,2.489,1.49,1.49,0,0,0,.521.927,3.93,3.93,0,0,0,.975.539,4.529,4.529,0,0,1,.969.521,1.211,1.211,0,0,1,.491.927c0,.709-.442,1.26-.357,1.817a1.023,1.023,0,0,0,.412.672,5.411,5.411,0,0,0,.654.418,2.223,2.223,0,0,1,.957,1,2.422,2.422,0,0,1,.085,1.877,1.7,1.7,0,0,1-.333.6Z" transform="translate(-146.05 -33.227)"/><path class="o" d="M179.169,81.748a1.344,1.344,0,0,1,1.659-2,2.131,2.131,0,0,1,.824.769,1.441,1.441,0,0,1,.309,1.108,1.151,1.151,0,0,1-.606.7,1.817,1.817,0,0,1-1.429.121,1.568,1.568,0,0,1-.957-1.036" transform="translate(-149.399 -49.915)"/><path class="h" d="M181.391,79.489c.085,0,.121.273,0,.648a2.6,2.6,0,0,1-2.356,1.738c-.394,0-.606-.1-.606-.188,0-.182.884-.254,1.671-.848S181.2,79.44,181.391,79.489Z" transform="translate(-149.205 -49.86)"/><path class="n" d="M233.77,106.089l-3.4-5.365-.236-5.281,1.338-3.633s1.066-.254,1.211,1.017a6.879,6.879,0,0,1-.4,2.81l.733,2.562s.242.279.466-.787-.17-8.963-.17-9.508.036-1.817.842-1.72,1.06,1.211,1.066,1.732.606,5.844.606,5.844.188.478.375.406-.164-5.686-.206-6.577-.23-2.852.811-2.858,1.042.987,1.1,2.077.739,7.164.739,7.164.157.382.309-.127.333-7.128.454-7.437.721-.715,1.211.03.357,2.495.291,5.577c-.055,2.78-.145,3.93.176,4.148s1.49-1.49,1.49-1.49,1.423-3.633,2.628-3.531.394,1.066.188,1.914c-.176.721-2.283,5.02-2.325,5.057s-2.107,7.727-2.107,7.727l5.365,10.265a6.855,6.855,0,0,1,.448,4.566c-.273,1.871-1.593,2.822-4.324,3.676a5.309,5.309,0,0,1-5.16-1.017,5.959,5.959,0,0,1-1.5-3.21c-.606-3.367-2-14.013-2-14.013Z" transform="translate(-169.597 -51.928)"/><path class="o" d="M239,110.877c-.048,0,0-.406-.109-1.029a4.112,4.112,0,0,0-1.108-2.144,2.9,2.9,0,0,0-1.72-.878,1.774,1.774,0,0,0-1.169.266h-.048v-.042c-.073-.145-.1-.224-.085-.23s.067.055.163.182h-.073a1.677,1.677,0,0,1,1.247-.406,2.949,2.949,0,0,1,1.883.9,3.924,3.924,0,0,1,1.108,2.3A2.1,2.1,0,0,1,239,110.877Z" transform="translate(-171.421 -60.55)"/><path class="o" d="M245.425,107c.048.067-.412.46-.866,1.048s-.727,1.126-.8,1.1A3.179,3.179,0,0,1,245.425,107Z" transform="translate(-174.973 -60.712)"/></g><g transform="translate(71.441 151.138)"><ellipse class="i" cx="33.525" cy="36.286" rx="33.525" ry="36.286" transform="translate(0 47.292) rotate(-19.78)"/><path class="h" d="M124.177,333.217s-.279-.715-.721-2.107a38.026,38.026,0,0,1-1.344-6.25c-.115-.69-.145-1.423-.23-2.192a19.716,19.716,0,0,1-.085-2.422,36.644,36.644,0,0,1,4.621-18.167,33.465,33.465,0,0,1,4.6-6.3,31.931,31.931,0,0,1,6.534-5.371,31.49,31.49,0,0,1,17.84-4.657,34.27,34.27,0,0,1,19.118,7.025,38.86,38.86,0,0,1,14.219,39.532A34.269,34.269,0,0,1,178.431,349.9a31.49,31.49,0,0,1-16.72,7.776,32.133,32.133,0,0,1-8.478,0,33.386,33.386,0,0,1-7.558-1.932A36.481,36.481,0,0,1,130.536,344.7c-.545-.648-1.011-1.308-1.478-1.926a16.9,16.9,0,0,1-1.211-1.817,38.477,38.477,0,0,1-2.943-5.68c-.551-1.35-.787-2.083-.787-2.083s.079.176.218.521.327.872.606,1.538a39.584,39.584,0,0,0,2.985,5.638c.351.606.8,1.175,1.211,1.817a17.807,17.807,0,0,0,1.478,1.908,36.158,36.158,0,0,0,3.779,3.967,35.59,35.59,0,0,0,11.306,6.97,33.432,33.432,0,0,0,7.509,1.9,31.907,31.907,0,0,0,8.387-.036,31.23,31.23,0,0,0,16.641-7.7A34,34,0,0,0,188.4,332.255a38.563,38.563,0,0,0-14.1-39.211,34.034,34.034,0,0,0-18.943-6.982,31.272,31.272,0,0,0-17.689,4.59,31.9,31.9,0,0,0-6.486,5.311,33.523,33.523,0,0,0-4.584,6.244,35.644,35.644,0,0,0-4.275,12.572,36.134,36.134,0,0,0-.394,5.45c0,.842.048,1.647.079,2.422a18.355,18.355,0,0,0,.212,2.18,40.235,40.235,0,0,0,1.284,6.25c.194.7.388,1.211.5,1.587S124.177,333.217,124.177,333.217Z" transform="translate(-111.903 -251.779)"/><path class="h" d="M114.754,330.7s-.327-.854-.848-2.513a45.81,45.81,0,0,1-1.593-7.443c-.133-.818-.176-1.69-.266-2.6a25.986,25.986,0,0,1-.109-2.877,43.177,43.177,0,0,1,.436-6.522,42.39,42.39,0,0,1,5.051-15.018,39.624,39.624,0,0,1,5.45-7.5,38.182,38.182,0,0,1,7.757-6.377,37.443,37.443,0,0,1,21.2-5.529,40.7,40.7,0,0,1,22.7,8.345,46.127,46.127,0,0,1,16.89,46.951,40.738,40.738,0,0,1-12.2,20.892,37.389,37.389,0,0,1-19.857,9.235,38.188,38.188,0,0,1-10.041,0,39.539,39.539,0,0,1-8.975-2.3A43.439,43.439,0,0,1,122.4,344.36c-.648-.763-1.211-1.556-1.756-2.283a23.006,23.006,0,0,1-1.447-2.18,45.626,45.626,0,0,1-3.5-6.74c-.654-1.6-.945-2.471-.945-2.471s.091.206.26.606.388,1.042.745,1.817a47.361,47.361,0,0,0,3.543,6.7c.418.709.951,1.4,1.459,2.162a24.941,24.941,0,0,0,1.756,2.271,43.514,43.514,0,0,0,4.493,4.717,42.355,42.355,0,0,0,13.426,8.321,39.824,39.824,0,0,0,8.926,2.259,37.7,37.7,0,0,0,9.974-.042,37.134,37.134,0,0,0,19.7-9.193,40.4,40.4,0,0,0,12.112-20.747,45.854,45.854,0,0,0-16.768-46.63,40.428,40.428,0,0,0-22.534-8.3,37.146,37.146,0,0,0-21.038,5.45,37.631,37.631,0,0,0-7.715,6.316,39.362,39.362,0,0,0-5.45,7.43,42.233,42.233,0,0,0-5.087,14.946,43,43,0,0,0-.46,6.492c0,1.005.055,1.962.091,2.877a22.512,22.512,0,0,0,.254,2.592,46.667,46.667,0,0,0,1.532,7.424c.23.836.46,1.459.606,1.883A3.762,3.762,0,0,1,114.754,330.7Z" transform="translate(-108.015 -247.268)"/><path class="p" d="M194.75,268.02c.121-.061,4.845-1.817,5.057,3.113s-4.8,4.13-4.814,3.991S194.75,268.02,194.75,268.02Z" transform="translate(-140.678 -244.657)"/><path class="q" d="M197.508,274.242a1.854,1.854,0,0,0,.242.115.835.835,0,0,0,.642,0,2.13,2.13,0,0,0,.908-1.95,2.8,2.8,0,0,0-.3-1.211.987.987,0,0,0-.672-.606.436.436,0,0,0-.5.26c-.061.139-.03.236-.055.248s-.109-.079-.079-.285a.606.606,0,0,1,.182-.321.654.654,0,0,1,.472-.145,1.211,1.211,0,0,1,.933.727,2.943,2.943,0,0,1,.357,1.369,2.257,2.257,0,0,1-1.169,2.186.933.933,0,0,1-.793-.1C197.527,274.375,197.5,274.254,197.508,274.242Z" transform="translate(-141.765 -245.713)"/><path class="p" d="M154.181,267.271c-.3-3.482-.333-10.7-.291-17.235a13.474,13.474,0,0,1,12.493-13.323l.69-.055c7.539-.109,11.845,6.225,11.754,13.765l.733,24.829-8.442,1.956a5.4,5.4,0,0,1-.824.121l-8.048.545-.151-2.786S154.8,274.478,154.181,267.271Z" transform="translate(-124.556 -232.426)"/><path class="h" d="M160.2,267.035a1.023,1.023,0,0,0,1.066.969.987.987,0,0,0,.993-1.005,1.029,1.029,0,0,0-1.066-.969.987.987,0,0,0-.993,1.005Z" transform="translate(-127.051 -244.011)"/><path class="h" d="M178.12,264.9a1.023,1.023,0,0,0,1.066.963.993.993,0,0,0,1-1.005,1.042,1.042,0,0,0-1.072-.969.987.987,0,0,0-.993,1.011Z" transform="translate(-134.119 -243.167)"/><path class="h" d="M156.807,264.1c.133.127.872-.509,1.98-.606s1.962.418,2.077.273-.1-.3-.466-.527a2.8,2.8,0,0,0-1.671-.388,2.725,2.725,0,0,0-1.568.636C156.837,263.8,156.74,264.047,156.807,264.1Z" transform="translate(-125.705 -242.754)"/><path class="h" d="M175.176,262.252c.145.115.848-.563,1.944-.715s1.986.291,2.089.139-.115-.291-.5-.5a2.84,2.84,0,0,0-1.69-.279,2.737,2.737,0,0,0-1.526.733C175.188,261.943,175.109,262.2,175.176,262.252Z" transform="translate(-132.949 -241.977)"/><path class="h" d="M167.411,271.441a7.194,7.194,0,0,0-1.817-.194c-.285,0-.557-.042-.606-.236a1.435,1.435,0,0,1,.127-.848l.678-2.222a36.788,36.788,0,0,0,1.465-5.771,37.521,37.521,0,0,0-1.926,5.644c-.224.775-.442,1.52-.642,2.229a1.629,1.629,0,0,0-.067,1.12.709.709,0,0,0,.5.382,2.357,2.357,0,0,0,.484.03,7.533,7.533,0,0,0,1.8-.133Z" transform="translate(-128.769 -242.488)"/><path class="h" d="M172.589,278.35c-.182,0-.1,1.211-1.066,2.138s-2.259.89-2.253,1.06c0,.073.3.212.842.188a3.028,3.028,0,0,0,1.889-.818,2.58,2.58,0,0,0,.811-1.786C172.825,278.622,172.667,278.338,172.589,278.35Z" transform="translate(-130.629 -248.87)"/><path class="h" d="M173.921,255.1c.151.285,1.211,0,2.537-.079s2.422.139,2.543-.157c.054-.139-.17-.394-.606-.606a4.3,4.3,0,0,0-1.956-.351,4.239,4.239,0,0,0-1.914.533C174.048,254.693,173.848,254.965,173.921,255.1Z" transform="translate(-132.457 -239.226)"/><path class="h" d="M156.776,259.14c.212.236.957-.079,1.877-.163s1.708.048,1.865-.23c.073-.133-.073-.375-.43-.606a2.713,2.713,0,0,0-3.028.315C156.77,258.752,156.679,259.018,156.776,259.14Z" transform="translate(-125.686 -240.772)"/><path class="q" d="M185.157,262.9c.03.042-.285.321-.751.533a1.563,1.563,0,0,1-.9.212,3.706,3.706,0,0,1,.811-.394A3.353,3.353,0,0,1,185.157,262.9Z" transform="translate(-136.245 -242.777)"/><path class="q" d="M186.216,264.55a3.1,3.1,0,0,1-1.078.085,2.979,2.979,0,0,1-1.078-.1,2.986,2.986,0,0,1,1.078-.091A3.058,3.058,0,0,1,186.216,264.55Z" transform="translate(-136.462 -243.379)"/><path class="q" d="M170.126,249.42c0,.03-.339.127-.866.375s-1.211.642-2.029,1.048a5.711,5.711,0,0,1-2.216.654,2.827,2.827,0,0,1-.7-.048c-.164-.03-.248-.067-.242-.079a6.421,6.421,0,0,0,.939,0,6.571,6.571,0,0,0,2.132-.69c.793-.4,1.508-.793,2.065-1.005a2.671,2.671,0,0,1,.92-.254Z" transform="translate(-128.577 -237.46)"/><path class="q" d="M168.725,249.28a5.183,5.183,0,0,1-2.156.866,5.329,5.329,0,0,1-2.319.048c0-.061,1.042,0,2.283-.242a21.682,21.682,0,0,0,2.192-.672Z" transform="translate(-128.649 -237.405)"/><path class="q" d="M176.009,278.166c-.048.03-.242-.388-.721-.545a2.083,2.083,0,0,0-.908,0,.5.5,0,0,1,.242-.176,1.09,1.09,0,0,1,1.3.43C176.021,278.039,176.033,278.16,176.009,278.166Z" transform="translate(-132.644 -248.486)"/><path class="q" d="M177.535,277.533a2.2,2.2,0,0,0-.678-.715,2.307,2.307,0,0,0-.957-.218.55.55,0,0,1,.3-.115,1.241,1.241,0,0,1,.757.163,1.211,1.211,0,0,1,.527.569C177.559,277.4,177.553,277.527,177.535,277.533Z" transform="translate(-133.244 -248.132)"/><path class="h" d="M178.526,240.05a3.506,3.506,0,0,0-2.107-4.463c.46-.7-.182-1.653-.945-1.986s-1.647-.345-2.422-.715a11.987,11.987,0,0,1-1.453-1.036,4.79,4.79,0,0,0-4.8-.309,2.846,2.846,0,0,0-2.828-1.726,8.242,8.242,0,0,0-3.355,1.078,8.187,8.187,0,0,0-3.633-1.211,4.415,4.415,0,0,0-3.488,1.32,3.064,3.064,0,0,0-.406,3.573,3.149,3.149,0,0,0-1.6,5.814,2.749,2.749,0,0,0,.273,3.088c.721.836,1.157,0,1.157,0l1.78-2.64a11.312,11.312,0,0,0,2.071-.048,7.872,7.872,0,0,0,3.288-.854,11.609,11.609,0,0,0,1.72-1.369,18.731,18.731,0,0,1,1.817-1.393,7.782,7.782,0,0,1,6.564.248c2.047,1.005,3.749,3.918,4.118,6.395a70.982,70.982,0,0,1,.884,10c0,.993.151,2.241,1.1,2.556a1.211,1.211,0,0,0,1.671-1.066,20.731,20.731,0,0,0,.03-2.507l.751-.1c.551-3.373.109-6.431-.351-9.816a13.959,13.959,0,0,0-.424-1.95,2.61,2.61,0,0,0,.6-.878Z" transform="translate(-123.032 -229.67)"/><path class="h" d="M175.439,239.4a8.284,8.284,0,0,0-4.845-1.986,7.643,7.643,0,0,0-4.348.842,5.141,5.141,0,0,0-2.592,3.488l-5.244,1.417a6.25,6.25,0,0,0,8.072-1.889,5.789,5.789,0,0,0,5.45.03,6.34,6.34,0,0,0,5.559,2.846,6.1,6.1,0,0,0-2.053-4.748Z" transform="translate(-126.345 -232.708)"/><path class="d" d="M159.7,241.725a1,1,0,0,1-.454-.067,2.549,2.549,0,0,1-1.072-.684,2.489,2.489,0,0,1-.69-1.817,2.7,2.7,0,0,1,1.211-2.12l.048.279a2.677,2.677,0,0,1-1.629-1.163,2.579,2.579,0,0,1,2.549-3.936,1.653,1.653,0,0,1,.848.46,1.314,1.314,0,0,1,.327.684.751.751,0,0,1-.109.606,1.853,1.853,0,0,0,0-.606,1.344,1.344,0,0,0-1.145-.969,2.271,2.271,0,0,0-2.1.89,2.344,2.344,0,0,0-.521,1.272,2.277,2.277,0,0,0,.375,1.417,2.422,2.422,0,0,0,1.429,1.036l.351.079-.3.194a2.483,2.483,0,0,0-1.084,1.883,2.356,2.356,0,0,0,.575,1.665A3.2,3.2,0,0,0,159.7,241.725Z" transform="translate(-125.668 -230.661)"/><path class="d" d="M194.045,251.159a4.512,4.512,0,0,1-4.045.606c0-.091.939.042,2.053-.139S194,251.056,194.045,251.159Z" transform="translate(-138.805 -238.139)"/><path class="d" d="M194.873,253.63a4.057,4.057,0,0,1-4.033,1.12,19.638,19.638,0,0,0,2.089-.3A20.025,20.025,0,0,0,194.873,253.63Z" transform="translate(-139.136 -239.12)"/><path class="q" d="M167.43,297.891a16.829,16.829,0,0,0,9.211-3.361s-1.786,5.45-9.029,5.311Z" transform="translate(-129.903 -255.252)"/><path class="f" d="M178.973,305.377l-4.185-1.26-.533-3.4a1.09,1.09,0,0,0-1.241-1.017l-18.821,2.646a1.1,1.1,0,0,0-.927,1.266v2.652l-14.685,6.171a44.205,44.205,0,0,0-1.211,12.184c.345,4.36,1.9,29.286,1.9,29.286s10.355,10.18,22.5,10.464a35.644,35.644,0,0,0,24.768-9.508c0-.291,2.78-30.079,2.78-30.079l1.526-14.2Z" transform="translate(-118.016 -257.288)"/><path class="f" d="M134.253,362.18l-.684-41.47s-7.424,5.656-9,25.368C124.57,346.078,128.96,357.475,134.253,362.18Z" transform="translate(-112.998 -265.578)"/><path class="f" d="M218.24,316.13s6.819,2.083,8.811,7.6S243.6,351.587,244.7,353.6c3.379,6.056.194,14.57-4.893,16.048S213,360.422,212.59,359.15a12.716,12.716,0,0,1-.3-3.549l1.338-8.666,3.73.854Z" transform="translate(-147.588 -263.772)"/><g class="m" transform="translate(28.795 86.833)"><path d="M186.686,380.2c-.3-.551-.254-2.126-.606-2.659-.533-.878-1.629-.521-2.477-1.108l-3.924-2.719a3.156,3.156,0,0,0-1.387-.654,2.222,2.222,0,0,0-1.847.878,10.324,10.324,0,0,0-1.09,1.817c-.315.606-.678.363-1.35.436a8.571,8.571,0,0,1-2.216.157,2.422,2.422,0,0,0-2.1,1c-.521.606-.9,1.356-1.459,1.932-1.369,1.4-3.543,1.593-5.5,1.538s-4.039-.224-5.765.7c-2.168,1.157-3.149,3.682-3.96,6l.327,1.145c2.331,1.005,5.577.606,8-.121s4.887-1.69,7.412-1.484c2.677.212,5.4,1.708,7.909.745,1.453-.557,2.507-1.847,3.918-2.5,1.859-.866,4.021-.509,6.056-.291s4.336.206,5.85-1.181C190.265,383.142,187.807,382.27,186.686,380.2Z" transform="translate(-153.01 -373.058)"/></g><path class="h" d="M216.551,381.278a.673.673,0,0,1-.182-.061l-.515-.206-1.95-.811-6.964-2.992-.091-.042v-.1c.551-3.827,1.211-8.478,1.926-13.45a3.522,3.522,0,0,1,.048-.375v-.164l.17.03c6.419,1.357,12.112,3.028,16.2,4.239,2.047.606,3.688,1.175,4.845,1.562l1.3.454a2.758,2.758,0,0,1,.448.182,4.447,4.447,0,0,1-.466-.121l-1.314-.4c-1.145-.351-2.792-.86-4.845-1.466-4.106-1.211-9.8-2.8-16.205-4.154l.188-.133-.055.375c-.733,4.99-1.411,9.617-1.974,13.444l-.079-.139,6.934,3.095,1.92.884.5.236a.769.769,0,0,1,.163.109Z" transform="translate(-145.451 -282.29)"/><path class="h" d="M224.568,362.638a5.553,5.553,0,0,1-.945-1.084,27.377,27.377,0,0,1-3.415-6,5.389,5.389,0,0,1-.448-1.363,8.1,8.1,0,0,1,.654,1.272c.382.793.927,1.877,1.587,3.028s1.32,2.186,1.817,2.919A7.586,7.586,0,0,1,224.568,362.638Z" transform="translate(-150.543 -278.783)"/><path class="h" d="M220.863,318.28a18.006,18.006,0,0,1-.484,1.9,35.491,35.491,0,0,0-.884,4.633,36.126,36.126,0,0,0-.248,4.705,18.225,18.225,0,0,1,0,1.962,1.538,1.538,0,0,1-.109-.515c-.048-.339-.1-.83-.133-1.435a27.3,27.3,0,0,1,1.138-9.411c.182-.606.345-1.048.472-1.363A1.587,1.587,0,0,1,220.863,318.28Z" transform="translate(-150.229 -264.62)"/><path class="h" d="M144.743,374.047c-.091,0-1-5.886-2.029-13.177s-1.817-13.208-1.72-13.22,1,5.886,2.029,13.177S144.828,374.035,144.743,374.047Z" transform="translate(-119.473 -276.204)"/><path class="p" d="M173.246,355.45l8.436.454,11.124,6.994-1.254,8.157a58.178,58.178,0,0,1-5.874-2.21c-1.017-.563-.939-2.422-.939-2.422l-1.393.763s-.757,1.9-1.344,3.531-2.313.606-2.313.606l-.218-1.714c-.878.914-2.222.121-2.222.121l-.606-6.328L179,360.373l-2.761.279a16.75,16.75,0,0,0-3.246,2.64c-1.635,1.7-4.033-.133-4.033-.133l4.766-5.45-.787.357s-3.095,2.15-4.384,2.222-1.568-1.514-1.568-1.514Z" transform="translate(-129.729 -279.28)"/><path class="h" d="M158.951,365.3l11.621,14.958-22.927-2.307L134.94,362.02Z" transform="translate(-117.088 -281.872)"/><path class="h" d="M147.452,377.969H147.4l-12.923-16.2,24.308,3.313h.048l11.827,15.224Zm-12.408-15.89,12.469,15.654,22.6,2.277-11.421-14.7Z" transform="translate(-116.907 -281.773)"/><path class="p" d="M145.338,386.707a9.466,9.466,0,0,0,4.4,1.968l10.1-3.028,7.733-3.161a.636.636,0,0,0,.394-.606l1.254-1.157s.048-.805-1.211-1.132-4.608,1.036-4.79,1.138-2.883.606-2.883.606a39.364,39.364,0,0,1,5.384-2.277s.727-2.961-2.247-2.277a29.526,29.526,0,0,0-6.268,2.471l-2.107,1.036-1.011-.388.636-1.211s3.107-3.4,3.149-3.555.824-1.211.048-1.659a3.483,3.483,0,0,0-3.585.763c-.884.987-4.039,4.372-4.039,4.372a4.143,4.143,0,0,0-1.369-.067,3.74,3.74,0,0,1-2.6-1.453c-.133-.363-.242-2.247-1.29-3.319s-2.822-1.538-3.2-.763c-.067.127-.266.345.067,1.266a5.7,5.7,0,0,0,.642,1.332l.236,4.269L143.9,382.3l-.836.048S142.025,384.224,145.338,386.707Z" transform="translate(-119.759 -286.054)"/><path class="q" d="M193.683,367.275a7.619,7.619,0,0,0-1.665-.212,4.385,4.385,0,0,0-1.732.406,4.463,4.463,0,0,0-1.659,1.381,4.954,4.954,0,0,0-.818,2.017,9.69,9.69,0,0,0-.151,1.817,11.918,11.918,0,0,1,0,1.7,7.388,7.388,0,0,1-.218-1.7,8.879,8.879,0,0,1,.085-1.871,5,5,0,0,1,.854-2.15,4.439,4.439,0,0,1,1.817-1.459,4.239,4.239,0,0,1,1.853-.369,3.865,3.865,0,0,1,1.247.224A1.032,1.032,0,0,1,193.683,367.275Z" transform="translate(-137.789 -283.772)"/><path class="q" d="M189.943,362.721c0,.1-.769,0-1.677.164s-1.587.466-1.635.382A3.494,3.494,0,0,1,189.943,362.721Z" transform="translate(-137.476 -282.07)"/><path class="q" d="M172,363.12a8.33,8.33,0,0,1,.945-1.3c.606-.787,1.5-1.871,2.5-3.088l.042-.048h.061l.89-.091c1.817-.164,3.409-.23,4.584-.242a9.864,9.864,0,0,1,1.9.067,11.858,11.858,0,0,1-1.889.157c-1.169.067-2.786.17-4.56.333l-.89.085.109-.055c-1.017,1.211-1.926,2.271-2.586,3.028a8.672,8.672,0,0,1-1.1,1.157Z" transform="translate(-131.705 -280.416)"/><path class="h" d="M185.846,307.39a4.8,4.8,0,0,1-.757.5,24.421,24.421,0,0,1-2.192,1.151,27.948,27.948,0,0,1-7.873,2.265,27.2,27.2,0,0,1-4.5.242,17.935,17.935,0,0,1-3.633-.424,7.127,7.127,0,0,1-2.3-.957,3.989,3.989,0,0,1-.539-.412c-.109-.1-.164-.164-.157-.17s.26.188.763.478a7.9,7.9,0,0,0,2.283.842,18.693,18.693,0,0,0,3.633.351,29.566,29.566,0,0,0,4.451-.26,30.068,30.068,0,0,0,7.794-2.162c.951-.412,1.708-.787,2.222-1.054A5.537,5.537,0,0,1,185.846,307.39Z" transform="translate(-128.51 -260.324)"/><path class="d" d="M184.959,323.013s-.1-.042-.279-.145a6.666,6.666,0,0,0-.824-.4,7.817,7.817,0,0,0-3.446-.606,14.3,14.3,0,0,0-5.347,1.478,16.58,16.58,0,0,0-5.923,4.312,10.294,10.294,0,0,0-2.011,3.742,8.169,8.169,0,0,0-.054,4.548A6.849,6.849,0,0,0,170,339.775a5.172,5.172,0,0,0,4.96.321,5.111,5.111,0,0,0,2.053-1.677,4.56,4.56,0,0,0,.606-1.211,4.845,4.845,0,0,0,.17-1.356A5.559,5.559,0,0,0,177,333.18a6.836,6.836,0,0,0-1.974-2.071,11.009,11.009,0,0,0-11.506-.26,45.123,45.123,0,0,0-5.111,3.506,19.211,19.211,0,0,1-5.3,2.961,9.926,9.926,0,0,1-5.832.055,9.617,9.617,0,0,1-4.687-3.058,10.089,10.089,0,0,1-2.21-4.845,7.268,7.268,0,0,1,0-2.586,3.979,3.979,0,0,1,1.169-2.223,2.7,2.7,0,0,1,2.331-.606,3.312,3.312,0,0,1,1.992,1.211,3.749,3.749,0,0,1,.727,2.126,4.584,4.584,0,0,1-.424,2.107,6.789,6.789,0,0,1-2.695,2.864,9.4,9.4,0,0,1-3.294,1.241,10.5,10.5,0,0,1-3.028.085,10.235,10.235,0,0,1-2.5-.606,9.605,9.605,0,0,1-3.028-1.817,7.321,7.321,0,0,1-.654-.648c-.145-.158-.212-.242-.212-.242a10.293,10.293,0,0,0,.908.842,9.787,9.787,0,0,0,3.028,1.738,10.144,10.144,0,0,0,2.477.563,10.423,10.423,0,0,0,3.028-.109,9.289,9.289,0,0,0,3.222-1.211,6.619,6.619,0,0,0,2.6-2.786,3.979,3.979,0,0,0-.3-3.991,3.028,3.028,0,0,0-1.817-1.126,2.422,2.422,0,0,0-2.113.569,3.719,3.719,0,0,0-1.084,2.077,7.152,7.152,0,0,0,0,2.489,9.823,9.823,0,0,0,2.156,4.711,9.332,9.332,0,0,0,4.554,2.955,9.538,9.538,0,0,0,5.656-.061,18.9,18.9,0,0,0,5.208-2.919,44.818,44.818,0,0,1,5.147-3.531,11.318,11.318,0,0,1,11.815.291,7.062,7.062,0,0,1,2.053,2.162,5.777,5.777,0,0,1,.824,2.816,4.887,4.887,0,0,1-.182,1.453,4.8,4.8,0,0,1-.606,1.3,5.45,5.45,0,0,1-2.174,1.78,5.716,5.716,0,0,1-2.7.491,5.632,5.632,0,0,1-2.525-.842,7.067,7.067,0,0,1-3.028-3.991,8.478,8.478,0,0,1,.067-4.693,10.518,10.518,0,0,1,2.071-3.815,16.732,16.732,0,0,1,6.019-4.33,14.456,14.456,0,0,1,5.45-1.447,7.752,7.752,0,0,1,3.476.654,5.453,5.453,0,0,1,.818.436Z" transform="translate(-115.439 -265.991)"/><path class="d" d="M234.332,343.139a2.792,2.792,0,0,1-.345.521,13.441,13.441,0,0,1-1.114,1.3,16.726,16.726,0,0,1-1.9,1.677,18.507,18.507,0,0,1-2.634,1.647,19.022,19.022,0,0,1-2.889,1.157,16.351,16.351,0,0,1-2.477.539,12.138,12.138,0,0,1-1.7.133,2.313,2.313,0,0,1-.606,0c0-.055.89-.079,2.3-.321a19.445,19.445,0,0,0,2.422-.606,20.5,20.5,0,0,0,2.828-1.157,20.886,20.886,0,0,0,2.6-1.6,19.807,19.807,0,0,0,1.914-1.6C233.744,343.811,234.283,343.1,234.332,343.139Z" transform="translate(-150.902 -274.424)"/><path class="d" d="M251.245,367.92c0,.048-.509-.127-1.326-.273a10.1,10.1,0,0,0-6.3.884,13.067,13.067,0,0,1-1.211.606,3.851,3.851,0,0,1,1.1-.818,8.9,8.9,0,0,1,6.449-.908A3.524,3.524,0,0,1,251.245,367.92Z" transform="translate(-159.477 -283.902)"/><path class="d" d="M229.6,385.562a1.47,1.47,0,0,1-.151-.321,8.712,8.712,0,0,1-.327-.969,10.023,10.023,0,0,1-.357-3.736,7.824,7.824,0,0,1,.7-2.519,6.334,6.334,0,0,1,.787-1.211,6.827,6.827,0,0,1,1.132-1.072,5.959,5.959,0,0,1,3.1-1.175,4.784,4.784,0,0,1,1.768.2,2.949,2.949,0,0,1,1.55,1.017,1.423,1.423,0,0,1,.272.945,1.5,1.5,0,0,1-.375.89,3.028,3.028,0,0,1-1.55.92,5.759,5.759,0,0,1-3.313-.26,5.947,5.947,0,0,1-2.453-1.738,5.45,5.45,0,0,1-1.126-2.356,5.892,5.892,0,0,1,.424-3.712,3.93,3.93,0,0,1,.763-1.145,11.036,11.036,0,0,0-.654,1.211,5.965,5.965,0,0,0-.315,3.633,5.293,5.293,0,0,0,1.108,2.241,5.735,5.735,0,0,0,2.356,1.629,5.45,5.45,0,0,0,3.131.23,2.713,2.713,0,0,0,1.387-.818,1.151,1.151,0,0,0,.091-1.453,2.7,2.7,0,0,0-1.393-.9,4.518,4.518,0,0,0-1.653-.188,5.771,5.771,0,0,0-2.949,1.1,6.445,6.445,0,0,0-1.09,1.011,5.9,5.9,0,0,0-.763,1.175,7.6,7.6,0,0,0-.715,2.422,10.476,10.476,0,0,0,.248,3.682C229.446,385.1,229.622,385.549,229.6,385.562Z" transform="translate(-154.076 -284.751)"/><path class="d" d="M135.721,360.575a9.76,9.76,0,0,1-1.435-.5,27.788,27.788,0,0,0-3.512-1.017,28.136,28.136,0,0,0-3.633-.515,9.822,9.822,0,0,1-1.52-.133,5.8,5.8,0,0,1,1.532-.085,19.379,19.379,0,0,1,7.2,1.538A5.8,5.8,0,0,1,135.721,360.575Z" transform="translate(-113.412 -280.409)"/><path class="d" d="M191.171,388.77a1.265,1.265,0,0,1-.273.212l-.818.563c-.357.242-.793.533-1.326.83s-1.114.684-1.817,1.017-1.429.751-2.259,1.1-1.72.727-2.671,1.09a43.149,43.149,0,0,1-6.377,1.756,44.7,44.7,0,0,1-6.571.7c-1.017,0-1.986.03-2.889,0s-1.744-.1-2.507-.17-1.453-.17-2.059-.248-1.12-.176-1.544-.26l-.969-.194a1.382,1.382,0,0,1-.333-.091,1.817,1.817,0,0,1,.345,0l.981.133c.418.067.939.151,1.544.206s1.29.164,2.053.2,1.6.127,2.495.133,1.859,0,2.87,0a46.913,46.913,0,0,0,6.528-.721,45.33,45.33,0,0,0,6.34-1.72c.951-.351,1.853-.678,2.665-1.054s1.581-.721,2.265-1.06,1.284-.684,1.817-.975.981-.557,1.344-.787l.848-.5A1.641,1.641,0,0,1,191.171,388.77Z" transform="translate(-126.483 -292.422)"/><g class="m" transform="translate(73.583 83.164)"><path d="M241.237,370.742c-1.151-1.423-3.088-1.877-4.887-2.2-3.095-.557-6.25-1.254-9.38-1.544,4.178,1.889,9.368,2.235,13.323,4.8.3.194.678.418.993.242C241.74,371.808,241.552,371.13,241.237,370.742Z" transform="translate(-226.97 -367)"/></g><g class="m" transform="translate(36.056 48.684)"><path d="M183.167,310.067c.363-.157-5.5,3.912-8.823,4.154a13.7,13.7,0,0,1-9.344-2.84S172.764,314.615,183.167,310.067Z" transform="translate(-165 -310.063)"/></g></g></g></svg>