<svg xmlns="http://www.w3.org/2000/svg" width="378.254" height="253.868" viewBox="0 0 378.254 253.868"><defs><style>.a{fill:#ebebeb;}.b{fill:#f0f0f0;}.c{fill:#e0e0e0;}.d{fill:#f5f5f5;}.e{fill:#efd8de;}.f{fill:#fafafa;}.g{fill:#263238;}.aa,.ac,.aj,.h,.i,.l,.n,.r,.y{fill:#fff;}.ae,.h,.s{opacity:0.2;}.ab,.i{opacity:0.4;}.j,.q{fill:#b1d2eb;}.j,.n{opacity:0.6;}.k{fill:#86b5d9;}.m,.w{fill:#bf3976;}.ad,.o{opacity:0.1;}.p{fill:#8f2b58;}.p,.r{opacity:0.7;}.ai,.t,.u,.v,.x,.z{fill:none;}.t,.u,.v,.w,.x{stroke:#fff;}.aa,.t,.u,.v,.w,.z{stroke-miterlimit:10;}.u{stroke-dasharray:5.284 5.284;}.v{stroke-dasharray:4.529 4.529;}.ai,.x{stroke-linecap:round;stroke-linejoin:round;}.x{stroke-width:1.5px;}.y{opacity:0.5;}.aa,.z{stroke:#bf3976;}.ac{opacity:0.9;}.af,.aj{opacity:0.3;}.ag{fill:#ebb376;}.ah{fill:#65a7d9;}.ai{stroke:#263238;stroke-width:0.5px;}.ak{fill:#b97964;}.al{fill:#a24e3f;}</style></defs><g transform="translate(-40.794 -139.564)"><g transform="translate(46.979 158.16)"><rect class="a" width="29.195" height="0.22" transform="translate(325.248 209.647)"/><rect class="a" width="7.66" height="0.22" transform="translate(242.166 212.045)"/><rect class="a" width="16.916" height="0.22" transform="translate(307.45 201.467)"/><rect class="a" width="38.072" height="0.22" transform="translate(4.099 202.948)"/><rect class="a" width="5.58" height="0.22" transform="translate(50.025 202.948)"/><rect class="a" width="82.579" height="0.22" transform="translate(73.746 206.668)"/><rect class="b" width="27.097" height="16.969" rx="1.19" transform="translate(128.514)"/><rect class="c" width="25.22" height="14.298" rx="0.42" transform="translate(129.448 1.992)"/><rect class="b" width="27.097" height="16.969" rx="1.19" transform="translate(166.357)"/><rect class="c" width="25.22" height="14.298" rx="0.42" transform="translate(167.291 1.992)"/><rect class="b" width="27.097" height="16.969" rx="1.19" transform="translate(202.075)"/><rect class="c" width="25.22" height="14.298" rx="0.42" transform="translate(203.01 1.992)"/><rect class="c" width="8.136" height="7.493" rx="0.87" transform="translate(45.292 9.767)"/><rect class="d" width="59.193" height="38.495" transform="translate(285.985 144.011)"/><rect class="e" width="54.856" height="29.354" transform="translate(288.145 151.23)"/><rect class="d" width="40.584" height="1.261" transform="translate(292.614 155.62)"/><rect class="d" width="19.472" height="1.261" transform="translate(292.614 159.481)"/><rect class="d" width="24.523" height="1.261" transform="translate(292.614 163.351)"/><rect class="d" width="8.639" height="1.261" transform="translate(292.614 167.221)"/><rect class="d" width="5.598" height="1.261" transform="translate(292.614 171.091)"/><rect class="a" width="42.118" height="25.978" transform="translate(0 143.984) rotate(-0.26)"/><path class="f" d="M64.989,344.3a.882.882,0,0,1-.52-.167l-7.678-5.615a.884.884,0,0,1-.009-1.419l7.634-5.686a.882.882,0,1,1,1.049,1.419l-6.673,4.972,6.717,4.9a.882.882,0,0,1-.52,1.6Z" transform="translate(-48.831 -180.874)"/><path class="f" d="M77.335,344.246a.879.879,0,0,1-.529-1.587l6.673-4.972-6.717-4.9a.882.882,0,0,1,1.049-1.419l7.678,5.606a.884.884,0,0,1,.009,1.419l-7.634,5.686A.882.882,0,0,1,77.335,344.246Z" transform="translate(-51.198 -180.868)"/><path class="f" d="M69.4,344.291a.887.887,0,0,1-.829-1.172L72.531,331.8a.882.882,0,0,1,1.666.582L70.239,343.7A.881.881,0,0,1,69.4,344.291Z" transform="translate(-50.265 -180.87)"/></g><g transform="translate(54.295 373.476)"><ellipse class="d" cx="170.914" cy="9.979" rx="170.914" ry="9.979"/></g><g transform="translate(273.145 332.433)"><path class="g" d="M334.38,409.694h6.479L349.674,361H343.2Z" transform="translate(-307.935 -358.673)"/><path class="h" d="M334.38,409.694h6.479L349.674,361H343.2Z" transform="translate(-307.935 -358.673)"/><path class="h" d="M334.38,409.694H339.1L347.911,361H343.2Z" transform="translate(-307.935 -358.673)"/><path class="g" d="M313.5,377.046h25.907a1.419,1.419,0,0,0,1.428-1.428h0a1.419,1.419,0,0,0-1.428-1.428H313.5a1.419,1.419,0,0,0-1.428,1.428h0a1.419,1.419,0,0,0,1.428,1.428Z" transform="translate(-305.291 -360.236)"/><path class="g" d="M310.228,395.545h25.916a1.437,1.437,0,0,0,1.428-1.437h0a1.437,1.437,0,0,0-1.428-1.428H310.228a1.437,1.437,0,0,0-1.428,1.428h0a1.437,1.437,0,0,0,1.428,1.437Z" transform="translate(-304.904 -362.427)"/><path class="g" d="M304.38,409.694h6.479L319.674,361H313.2Z" transform="translate(-304.38 -358.673)"/><path class="h" d="M304.38,409.694h6.479L319.674,361H313.2Z" transform="translate(-304.38 -358.673)"/><path class="h" d="M304.38,409.694H309.1L317.911,361H313.2Z" transform="translate(-304.38 -358.673)"/><path class="g" d="M370.674,409.694H364.2L355.38,361h6.479Z" transform="translate(-310.423 -358.673)"/><path class="i" d="M370.674,409.694H364.2L355.38,361h6.479Z" transform="translate(-310.423 -358.673)"/><path class="h" d="M368.911,409.694H364.2L355.38,361H360.1Z" transform="translate(-310.423 -358.673)"/><path class="g" d="M356.144,377.046H330.228a1.428,1.428,0,0,1-1.428-1.428h0a1.428,1.428,0,0,1,1.428-1.428h25.916a1.428,1.428,0,0,1,1.428,1.428h0A1.428,1.428,0,0,1,356.144,377.046Z" transform="translate(-307.274 -360.236)"/><path class="g" d="M359.405,395.545H333.5a1.428,1.428,0,0,1-1.428-1.437h0a1.428,1.428,0,0,1,1.428-1.428h25.907a1.428,1.428,0,0,1,1.428,1.428h0a1.428,1.428,0,0,1-1.428,1.437Z" transform="translate(-307.661 -362.427)"/><path class="h" d="M356.144,377.046H330.228a1.428,1.428,0,0,1-1.428-1.428h0a1.428,1.428,0,0,1,1.428-1.428h25.916a1.428,1.428,0,0,1,1.428,1.428h0A1.428,1.428,0,0,1,356.144,377.046Z" transform="translate(-307.274 -360.236)"/><path class="h" d="M359.405,395.545H333.5a1.428,1.428,0,0,1-1.428-1.437h0a1.428,1.428,0,0,1,1.428-1.428h25.907a1.428,1.428,0,0,1,1.428,1.428h0a1.428,1.428,0,0,1-1.428,1.437Z" transform="translate(-307.661 -362.427)"/><path class="g" d="M340.674,409.694H334.2L325.38,361h6.479Z" transform="translate(-306.868 -358.673)"/><path class="i" d="M340.674,409.694H334.2L325.38,361h6.479Z" transform="translate(-306.868 -358.673)"/><path class="h" d="M338.911,409.694H334.2L325.38,361H330.1Z" transform="translate(-306.868 -358.673)"/><rect class="g" width="48.897" height="4.646" rx="1.19" transform="translate(6.109)"/><rect class="h" width="19.887" height="4.646" rx="1.19" transform="translate(6.109)"/></g><g transform="translate(116.965 344.324)"><rect class="j" width="59.193" height="38.495" transform="translate(0)"/><rect class="k" width="54.865" height="29.354" transform="translate(2.164 7.219)"/><rect class="l" width="40.584" height="1.261" transform="translate(6.633 11.601)"/><rect class="l" width="19.472" height="1.261" transform="translate(6.633 15.47)"/><rect class="l" width="24.523" height="1.261" transform="translate(6.633 19.34)"/><rect class="l" width="8.639" height="1.261" transform="translate(6.633 23.201)"/><rect class="l" width="5.598" height="1.261" transform="translate(6.633 27.071)"/></g><g transform="translate(105.801 161.439)"><path class="m" d="M270.853,407.629H222.67l8.154-64.059H262.7Z" transform="translate(-127.353 -185.614)"/><path class="n" d="M270.853,407.629H222.67l5.58-43.828,2.583-20.23H262.69l3.808,29.848Z" transform="translate(-127.353 -185.614)"/><path class="o" d="M267.248,373.418,229,363.8l2.583-20.23H263.44Z" transform="translate(-128.103 -185.614)"/><path class="m" d="M347.547,164.38h-227.2a5.809,5.809,0,0,0-5.809,5.818V324a5.809,5.809,0,0,0,5.809,5.809h227.2A5.809,5.809,0,0,0,353.356,324V170.216a5.809,5.809,0,0,0-5.809-5.836Z" transform="translate(-114.54 -164.38)"/><path class="p" d="M347.547,164.38h-227.2a5.809,5.809,0,0,0-5.809,5.818V324a5.809,5.809,0,0,0,5.809,5.809h227.2A5.809,5.809,0,0,0,353.356,324V170.216a5.809,5.809,0,0,0-5.809-5.836Z" transform="translate(-114.54 -164.38)"/><path class="q" d="M0,0H223.522V148.313H0Z" transform="translate(7.651 5.694)"/><rect class="m" width="82.764" height="4.734" rx="1.04" transform="translate(78.022 217.202)"/><rect class="r" width="82.764" height="4.734" rx="1.04" transform="translate(78.022 217.202)"/><rect class="s" width="223.522" height="22.108" transform="translate(7.651 5.836)"/><rect class="i" width="95.784" height="125.799" transform="translate(7.651 28.208)"/><path class="t" d="M337.464,232.78v2.2h-2.2" transform="translate(-140.695 -172.485)"/><line class="u" x1="72.195" transform="translate(117.716 62.498)"/><path class="t" d="M245.144,234.984h-2.2v-2.2" transform="translate(-129.755 -172.485)"/><line class="v" y1="37.931" transform="translate(113.185 18.37)"/><path class="t" d="M242.94,182.664v-2.2h2.2" transform="translate(-129.755 -166.285)"/><line class="u" x2="72.195" transform="translate(120.043 14.175)"/><path class="t" d="M335.26,180.46h2.2v2.2" transform="translate(-140.695 -166.285)"/><line class="v" y2="37.931" transform="translate(196.769 20.371)"/><rect class="w" width="2.794" height="2.794" transform="translate(195.376 12.773)"/><rect class="w" width="2.794" height="2.794" transform="translate(195.376 61.106)"/><rect class="w" width="2.794" height="2.794" transform="translate(111.783 12.773)"/><rect class="w" width="2.794" height="2.794" transform="translate(111.783 61.106)"/><rect class="w" width="2.794" height="2.794" transform="translate(153.584 12.773)"/><rect class="w" width="2.794" height="2.794" transform="translate(153.584 61.106)"/><rect class="w" width="2.794" height="2.794" transform="translate(195.376 36.935)"/><rect class="w" width="2.794" height="2.794" transform="translate(111.783 36.935)"/><rect class="r" width="23.792" height="8.806" rx="1.89" transform="translate(167.053 30.403)"/><rect class="r" width="23.792" height="8.806" rx="1.89" transform="translate(131.793 30.403)"/><rect class="r" width="23.792" height="8.806" rx="1.89" transform="translate(86.405 137.585)"/><line class="x" x2="7.44" transform="translate(216.417 13.699)"/><line class="x" x2="7.44" transform="translate(216.417 17.225)"/><line class="x" x2="7.44" transform="translate(216.417 20.751)"/><rect class="y" width="74.972" height="74.972" transform="translate(22.804 47.707)"/><line class="z" y2="64.676" transform="translate(54.186 53.833)"/><path class="z" d="M208.342,290.126h0A32.342,32.342,0,0,1,176,257.783h0a32.333,32.333,0,0,1,32.333-32.333h0" transform="translate(-121.823 -171.617)"/><rect class="aa" width="2.794" height="2.794" transform="translate(85.127 52.44)"/><rect class="aa" width="2.794" height="2.794" transform="translate(85.127 117.107)"/><rect class="aa" width="2.794" height="2.794" transform="translate(52.793 84.774)"/><path class="aa" d="M176.636,225.353a.723.723,0,1,1-.723-.723A.732.732,0,0,1,176.636,225.353Z" transform="translate(-121.727 -171.52)"/><path class="aa" d="M176.636,298.723a.723.723,0,1,1-.215-.514.723.723,0,0,1,.215.514Z" transform="translate(-121.727 -180.214)"/><path class="r" d="M313,319.907H290.3a6.558,6.558,0,0,1-6.558-6.558h0a6.558,6.558,0,0,1,6.558-6.558H313a6.558,6.558,0,0,1,6.558,6.558h0A6.558,6.558,0,0,1,313,319.907Z" transform="translate(-134.59 -181.255)"/><path class="r" d="M329.93,257.838H259.807a1.437,1.437,0,0,1-1.437-1.437h0a1.428,1.428,0,0,1,1.437-1.4h70.115a1.428,1.428,0,0,1,1.437,1.428h0A1.437,1.437,0,0,1,329.93,257.838Z" transform="translate(-131.584 -175.118)"/><path class="r" d="M329.93,269.7H259.807a1.428,1.428,0,0,1-1.437-1.428h0a1.437,1.437,0,0,1,1.437-1.437h70.115a1.437,1.437,0,0,1,1.437,1.437h0A1.428,1.428,0,0,1,329.93,269.7Z" transform="translate(-131.584 -176.521)"/><path class="r" d="M333.485,281.615H289.807a1.437,1.437,0,0,1-1.437-1.428h0a1.437,1.437,0,0,1,1.437-1.437h43.67a1.437,1.437,0,0,1,1.437,1.437h0a1.437,1.437,0,0,1-1.428,1.428Z" transform="translate(-135.139 -177.933)"/><rect class="ab" width="4.954" height="4.954" transform="translate(14.712 11.962)"/><rect class="ab" width="4.954" height="4.954" rx="1.44" transform="translate(24.338 11.962)"/><rect class="ab" width="4.954" height="4.954" rx="2.477" transform="translate(33.973 11.962)"/><path class="ac" d="M146.823,315.558v-1.93l-.987-.088a5.447,5.447,0,0,0-.74-1.763l.635-.767-1.366-1.366-.767.635a5.448,5.448,0,0,0-1.763-.74l-.088-.987h-1.93l-.1.987a5.483,5.483,0,0,0-1.763.74l-.767-.635-1.366,1.366.635.767a5.1,5.1,0,0,0-.74,1.763l-1,.088v1.93l1,.1a5.122,5.122,0,0,0,.74,1.763l-.635.776,1.366,1.358.767-.635a5.122,5.122,0,0,0,1.763.74l.1,1h1.93l.088-1a5.1,5.1,0,0,0,1.763-.74l.767.635,1.366-1.358-.635-.776a5.288,5.288,0,0,0,.74-1.763Zm-6.074,1.648a2.645,2.645,0,1,1,2.645-2.645A2.645,2.645,0,0,1,140.749,317.206Z" transform="translate(-116.931 -181.464)"/><path class="n" d="M156.05,321.942v-1.481l-.776-.079a4.063,4.063,0,0,0-.582-1.393l.494-.608-1.067-1.067-.6.5a4.108,4.108,0,0,0-1.4-.582l-.071-.785h-1.516l-.071.785a4.108,4.108,0,0,0-1.4.582l-.6-.5-1.075,1.067.5.608a4.064,4.064,0,0,0-.582,1.393l-.776.079v1.507l.776.079a4.064,4.064,0,0,0,.582,1.393l-.5.608,1.075,1.067.6-.5a4.108,4.108,0,0,0,1.4.582l.071.776h1.516l.071-.776a4.107,4.107,0,0,0,1.4-.582l.6.5,1.067-1.067-.494-.608a4.063,4.063,0,0,0,.582-1.393Zm-4.76,1.3a2.045,2.045,0,1,1,1.449-.6,2.054,2.054,0,0,1-1.449.6Z" transform="translate(-118.331 -182.4)"/><path class="i" d="M147.378,326.93v-1.269l-.652-.062a3.438,3.438,0,0,0-.485-1.172l.423-.5-.882-.882-.511.414a3.438,3.438,0,0,0-1.172-.485l-.062-.652H142.75l-.062.652a3.438,3.438,0,0,0-1.172.485l-.511-.414-.882.882.423.5a3.437,3.437,0,0,0-.485,1.172l-.661.062v1.269l.661.062a3.411,3.411,0,0,0,.485,1.181l-.423.5.882.881.511-.423a3.288,3.288,0,0,0,1.172.494l.062.652h1.269l.062-.652a3.288,3.288,0,0,0,1.172-.494l.511.423.882-.881-.423-.5a3.411,3.411,0,0,0,.485-1.181Zm-3.993,1.084a1.719,1.719,0,1,1,1.244-.488A1.719,1.719,0,0,1,143.384,328.015Z" transform="translate(-117.486 -183.096)"/><path class="m" d="M337.18,179.89l3.738,10,6.25-6.259Z" transform="translate(-140.923 -166.218)"/><rect class="m" width="1.975" height="4.381" transform="translate(200.882 19.69) rotate(-45)"/><path class="i" d="M347.167,183.628l-9.987-3.738,3.738,10,2.433-2.433L344.893,189l1.393-1.393-1.543-1.551Z" transform="translate(-140.923 -166.218)"/><path class="g" d="M163.321,219.442l9.406,3.526-4.928-4.928a.961.961,0,0,1-1.155-.15.972.972,0,0,1,1.375-1.375.961.961,0,0,1,.15,1.155L173.1,222.6l-3.526-9.406-3.121.688-.115-1.12-.591-.591-3.455,3.455.591.591,1.128.115Z" transform="translate(-120.198 -170.043)"/><path class="h" d="M163.321,219.442l9.406,3.526-4.928-4.928a.961.961,0,0,1-1.155-.15.972.972,0,0,1,1.375-1.375.961.961,0,0,1,.15,1.155L173.1,222.6l-3.526-9.406-3.121.688-.115-1.12-.591-.591-3.455,3.455.591.591,1.128.115Z" transform="translate(-120.198 -170.043)"/><g class="ad" transform="translate(7.211 5.694)"><path class="l" d="M155.847,170.84,122.72,294.62V170.84Z" transform="translate(-122.72 -170.84)"/><path class="l" d="M193.7,170.84,154,319.153H126.66L166.345,170.84Z" transform="translate(-123.187 -170.84)"/><path class="l" d="M240.811,170.84,201.117,319.153H188.75L228.444,170.84Z" transform="translate(-130.544 -170.84)"/><path class="l" d="M283.409,170.84,243.715,319.153H239.29L278.984,170.84Z" transform="translate(-136.533 -170.84)"/></g></g><g transform="translate(311.686 158.503)"><path class="g" d="M440.067,208c3.129,3.605,19.049,34.273,15.973,41.431s-28.587-1.093-28.587-1.093l1.525-10.111s9.908.353,10.86-.591S426.43,222.36,426.43,222.36Z" transform="translate(-357.383 -166.612)"/><g class="ae" transform="translate(69.029 41.388)"><path class="l" d="M456.02,249.431a3.861,3.861,0,0,1-1.86,1.886h0l-.511.229h-.071a3.912,3.912,0,0,1-.485.167,10.7,10.7,0,0,1-2.2.458l-.643.062c-.317,0-.635.044-.961.053H448.4c-8.551,0-20.989-4.011-20.989-4.011l1.525-10.111s9.908.353,10.86-.591c.229-.229-.45-1.252-1.6-2.644h0c-2.8-3.447-8.418-9.185-10.737-11.53l-1.049-1.058L440.064,208C443.194,211.57,459.114,242.238,456.02,249.431Z" transform="translate(-426.41 -208)"/></g><path class="s" d="M454.315,252.362h0l-.511.229h-.07a3.917,3.917,0,0,1-.485.167,10.7,10.7,0,0,1-2.2.458l-.643.062c-.317,0-.635.044-.961.053h-.881c-8.551,0-20.989-4.011-20.989-4.011L429.1,239.21s11.16.943,12.112,0c.176-.37-1.058-1.622-2.883-3.217h0c-2.8-3.447-8.418-9.185-10.737-11.53l6.453-6.893,4.91-.529S449.819,234.635,454.315,252.362Z" transform="translate(-357.518 -167.684)"/><path class="g" d="M405.117,206.663c-1.763,1.278-2.645,3.094-1.939,4.055l46.579,64.217c.7.961,2.7.7,4.46-.582s2.645-3.1,1.939-4.055l-46.579-64.226C408.881,205.121,406.888,205.376,405.117,206.663Z" transform="translate(-354.599 -166.316)"/><path class="r" d="M409.58,206.073l46.578,64.217c.7.952-.176,2.768-1.939,4.055s-3.764,1.534-4.452.582L403.189,210.7a1.992,1.992,0,0,1,.168-2.133,5.157,5.157,0,0,1,.881-1.155,6.379,6.379,0,0,1,.882-.758C406.891,205.386,408.883,205.121,409.58,206.073Z" transform="translate(-354.601 -166.316)"/><path class="af" d="M456.212,270.55c.7.952-.176,2.768-1.939,4.055s-3.764,1.534-4.452.582c-.388-.529.573-1.331,1.137-2.486L403.41,208.845a5.158,5.158,0,0,1,.882-1.155l46.587,64.226a7.541,7.541,0,0,1,.882-.767C453.523,269.862,455.516,269.6,456.212,270.55Z" transform="translate(-354.655 -166.576)"/><path class="m" d="M398.661,204.562c-1.49,1.587-2,3.526-1.137,4.346l57.915,54.221c.882.811,2.777.176,4.266-1.419s2-3.526,1.137-4.355l-57.915-54.221C402.063,202.331,400.15,202.975,398.661,204.562Z" transform="translate(-353.908 -165.995)"/><path class="r" d="M402.925,203.143l57.915,54.221c.881.8.353,2.75-1.137,4.346s-3.4,2.221-4.266,1.419l-57.915-54.221a2.019,2.019,0,0,1-.238-2.133,5.466,5.466,0,0,1,.652-1.3,7.4,7.4,0,0,1,.723-.881C400.148,202.975,402.061,202.332,402.925,203.143Z" transform="translate(-353.905 -165.995)"/><path class="af" d="M460.866,257.726c.882.8.353,2.75-1.137,4.346s-3.4,2.221-4.266,1.419c-.476-.45.317-1.41.652-2.645l-58.8-53.692a5.466,5.466,0,0,1,.652-1.3l57.923,54.23a6.78,6.78,0,0,1,.714-.882C458.09,257.55,460,256.915,460.866,257.726Z" transform="translate(-353.932 -166.358)"/><path class="ag" d="M412.428,388.193l-4.408.07c-4.487-21.077-7.66-47.16-9.635-66.835-.309-3.085-.591-6-.882-8.727-.115-1.3-.229-2.539-.335-3.738-.529-5.915-.882-10.578-1.111-13.5-.159-2.116-.238-3.279-.238-3.279h16.026l-.15,4.064-.529,13.408-.053,1.534-.335,8.859-.555,15.082C415.7,356.371,412.428,388.193,412.428,388.193Z" transform="translate(-353.756 -176.588)"/><path class="ag" d="M450.868,387.115l-4.346.82c-8.7-21.747-16.872-49.593-22.187-69.048-.82-3.015-1.578-5.836-2.257-8.392a1.411,1.411,0,0,0-.1-.379c-1.34-5.077-2.371-9.124-3.015-11.689l-.767-3.112,15.691-2.715.882,6.611,1.313,9.7.256,1.9.882,6.62,2.389,17.753C448.673,355.2,450.868,387.115,450.868,387.115Z" transform="translate(-356.408 -176.637)"/><path class="s" d="M436.233,309.709l-14.051,1.569a1.411,1.411,0,0,0-.1-.379c-1.34-5.077-2.371-9.124-3.015-11.689l15.867.785Z" transform="translate(-356.511 -177.421)"/><path class="s" d="M411.7,296.683l-.494,13.408-.053,1.534-13.575,1.507c-.115-1.3-.229-2.539-.335-3.738-.529-5.915-.882-10.578-1.111-13.5Z" transform="translate(-353.793 -177.027)"/><path class="g" d="M399.818,415.758a8.816,8.816,0,0,1,2.759-1.516h0s3.006-2.979,4.46-11.953l3.931-1.031a3.367,3.367,0,0,1,3.579,1.4,1.877,1.877,0,0,1,.247.52,23.032,23.032,0,0,1,.423,2.918,81.231,81.231,0,0,1,.062,9.855h-.714l-.282-6.171c-.106-2.107-1.719.361-2.177,2.645s-1.437,4.663-6.038,4.778C400.69,417.283,398.46,417.072,399.818,415.758Z" transform="translate(-354.184 -189.502)"/><path class="g" d="M415.609,402.227c.256-2.1.335-5.747.335-5.747l-8.745.97s1.058,4.152.185,7.272C411.793,403.514,415.609,402.227,415.609,402.227Z" transform="translate(-355.104 -188.947)"/><path class="g" d="M440.178,415.759a8.816,8.816,0,0,1,2.759-1.507h0s3.006-2.979,4.452-11.953l3.94-1.031a3.367,3.367,0,0,1,3.579,1.4,1.877,1.877,0,0,1,.247.52,23.033,23.033,0,0,1,.423,2.918,80.652,80.652,0,0,1,.053,9.855h-.67l-.282-6.17c-.106-2.107-1.719.361-2.177,2.644s-1.437,4.663-6.047,4.778C441.051,417.285,438.82,417.073,440.178,415.759Z" transform="translate(-358.966 -189.504)"/><path class="g" d="M455.961,402.227c.264-2.1.344-5.747.344-5.747l-8.745.97s1.058,4.152.185,7.272C452.153,403.514,455.961,402.227,455.961,402.227Z" transform="translate(-359.887 -188.947)"/><path class="ah" d="M434.628,298.756l-16.634,2.124-.643.079-3.42-12.535-.882,13.434-17.824-.934c-7.934-46.6,5.633-57.615,5.633-57.615l24.18,4.866c10.948,18.617,8.348,40.249,8.348,40.249Z" transform="translate(-353.39 -170.797)"/><path class="ai" d="M413.8,176.994c0,1.834-.811,3.314-1.763,3.314s-1.816-1.481-1.816-3.314.811-3.314,1.816-3.314S413.8,175.161,413.8,176.994Z" transform="translate(-355.462 -162.546)"/><path class="ag" d="M425.982,186.99a1.209,1.209,0,0,1-.212.159,9.582,9.582,0,0,1-3.376,1.648c-3.57.829-6.012.335-7.607-1.278h0c-2.23-2.424-2.786-6.717-2.468-11.9a19.6,19.6,0,0,1,1.128-6.047s0-.079,0-.1a1.382,1.382,0,0,1,.088-.22,7.052,7.052,0,0,1,5.2-4.311,14.271,14.271,0,0,1,3.059-.344C431.906,164.521,433.722,181.252,425.982,186.99Z" transform="translate(-355.701 -161.47)"/><path class="s" d="M426.114,190.107a9.344,9.344,0,0,1-3.376,1.507c-3.57.829-6.012.22-7.607-1.419a10.076,10.076,0,0,0,6.409-.529,5.289,5.289,0,0,1,4.575.441Z" transform="translate(-356.044 -164.401)"/><path class="ag" d="M427.362,198.954c.626,2.874-3.1,4.046-3.1,4.046-6.091-2.645-7.219-5.844-7.219-5.844,5.086-2.645,3.614-10.146,3.614-10.146l1.031.511,7.255,1.419s-2.01,3.861-2.274,4.742h0C425.291,198.311,427.362,198.954,427.362,198.954Z" transform="translate(-356.27 -164.125)"/><path class="g" d="M413.6,169.178a10.645,10.645,0,0,0,6.171,10.128s2.883,7.361,7.123,7.458c5.791.141,10.887-8.083,8.885-16.466C433.159,159.42,416.684,158.538,413.6,169.178Z" transform="translate(-355.861 -161.12)"/><path class="ag" d="M416.72,179c0-1.1.882-2.962,2.645-2.706s2.768,4.646-1.6,5.624C417.1,182.062,416.72,181.321,416.72,179Z" transform="translate(-356.232 -162.853)"/><path class="g" d="M425.633,161.579s-6.752-1.71-10.49,1.014c-4.363,3.173-6.021,6.453-.881,11.548,0,0,11.345-3.676,15.118-2.9a40.435,40.435,0,0,1,6.47,1.878C436.67,165.625,429.406,160.045,425.633,161.579Z" transform="translate(-355.564 -161.049)"/><path class="g" d="M416.585,175.532s1.763,8.163-1,15.127c0,0,16.043,5.562,21.623,2.539s.467-13.17.229-19.023-2.777-14.5-11.266-12.561S416.585,175.532,416.585,175.532Z" transform="translate(-356.097 -161.083)"/><line class="ai" x2="6.779" transform="translate(54.714 13.929)"/><path class="s" d="M420.844,304.385l-.643.079-3.42-12.535s7.334-12.526,5.042-19.049C422.148,273.338,430.047,285.054,420.844,304.385Z" transform="translate(-356.24 -174.301)"/><path class="g" d="M404.686,199.691s8.066-2.874,20.222.635,12.614,8.683,12.614,8.683-7.7,17.463-8.921,37.235l-31.681-1.181S393.139,217.154,404.686,199.691Z" transform="translate(-353.816 -165.497)"/><path class="h" d="M437.523,209s-7.7,17.463-8.921,37.235l-31.681-1.181a85.011,85.011,0,0,1-.582-9.7,94.511,94.511,0,0,1,.882-14.183c1.058-7.316,3.235-15.127,7.466-21.526,0,0,8.066-2.874,20.222.635S437.523,209,437.523,209Z" transform="translate(-353.816 -165.492)"/><path class="s" d="M404.242,225.45s-1.313,8.039-7.934,12.993a94.511,94.511,0,0,1,.882-14.183Z" transform="translate(-353.813 -168.539)"/><path class="ag" d="M363.526,197.474l-3.993-5.924s-.608-2.574-1.384-3.156-8.445-3.852-9.37-3.835-.881,5.977,0,6.99,5.765,3.182,7.052,3.4.652,0,.652,0L360.009,202Z" transform="translate(-348.101 -163.835)"/><path class="g" d="M400.118,199.184a173.6,173.6,0,0,0-24.682,12.746l-12.9-17.63s-3.473,1.075-4.76,7.123c0,0,6.62,25.22,15.224,27.723s26.692-7.29,26.692-7.29S404.931,208.757,400.118,199.184Z" transform="translate(-349.248 -164.989)"/><path class="h" d="M400.118,199.184a173.6,173.6,0,0,0-24.682,12.746l-12.9-17.63s-3.473,1.075-4.76,7.123c0,0,6.62,25.22,15.224,27.723s26.692-7.29,26.692-7.29S404.931,208.757,400.118,199.184Z" transform="translate(-349.248 -164.989)"/><path class="g" d="M415.06,198.579s2.812,20.133,11.724,20.944,12.905-14.1,11.4-15.867S425.188,198.447,415.06,198.579Z" transform="translate(-356.036 -165.496)"/><path class="aj" d="M415.06,198.579s2.812,20.133,11.724,20.944,12.905-14.1,11.4-15.867S425.188,198.447,415.06,198.579Z" transform="translate(-356.036 -165.496)"/></g><g transform="translate(40.794 139.565)"><path class="ak" d="M55.36,406.637h6.532l.538-15.127H55.9Z" transform="translate(-42.52 -169.42)"/><path class="g" d="M62.473,407.81H54.539a.555.555,0,0,0-.555.45L52.7,414.069a.961.961,0,0,0,.74,1.146h.212c2.565-.044,4.408-.2,7.651-.2,1.992,0,7.934.212,10.719.212s3.094-2.706,1.975-2.953c-5.033-1.1-8.815-2.645-10.428-4.064a1.587,1.587,0,0,0-1.093-.4Z" transform="translate(-42.201 -171.351)"/><path class="m" d="M64.284,408.649a.159.159,0,0,1-.115-.132.141.141,0,0,1,.071-.15c.238-.15,2.345-1.446,3.068-1.075a.458.458,0,0,1,.264.432.881.881,0,0,1-.326.829,1.9,1.9,0,0,1-1.252.335,8.078,8.078,0,0,1-1.71-.238Zm.45-.22a3.173,3.173,0,0,0,2.327-.115.635.635,0,0,0,.2-.555c0-.123-.053-.185-.1-.185a.405.405,0,0,0-.2-.044,6.39,6.39,0,0,0-2.23.9Z" transform="translate(-43.563 -171.282)"/><path class="m" d="M64.24,408.477a.159.159,0,0,1-.071-.141c0-.088.167-1.966.882-2.583a.793.793,0,0,1,.652-.194.52.52,0,0,1,.5.405c.132.688-1.172,2.124-1.851,2.495h-.071Zm1.049-2.53a3.667,3.667,0,0,0-.767,2.045c.67-.511,1.5-1.6,1.419-2.019,0,0,0-.159-.229-.159h-.071A.52.52,0,0,0,65.289,405.947Z" transform="translate(-43.564 -171.084)"/><path class="s" d="M55.932,391.52h6.532l-.282,7.8H55.65Z" transform="translate(-42.554 -169.421)"/><path class="ak" d="M93.49,407.267l6.743.714,1.261-14.527-6.735-.714Z" transform="translate(-47.038 -169.566)"/><path class="g" d="M100.629,407.57H92.748a.573.573,0,0,0-.555.45l-1.287,5.818A.952.952,0,0,0,91.6,415h.212c2.565-.044,4.408-.2,7.66-.2,1.983,0,7.934.2,10.71.2s3.094-2.706,1.975-2.953c-5.033-1.093-8.815-2.645-10.428-4.064A1.631,1.631,0,0,0,100.629,407.57Z" transform="translate(-46.728 -171.323)"/><path class="m" d="M102.434,408.409a.159.159,0,0,1-.115-.132.132.132,0,0,1,.079-.15c.229-.15,2.336-1.446,3.059-1.067a.441.441,0,0,1,.264.423.934.934,0,0,1-.317.837,1.983,1.983,0,0,1-1.261.326,8.074,8.074,0,0,1-1.71-.238Zm.45-.212a3.173,3.173,0,0,0,2.327-.123.626.626,0,0,0,.2-.555c0-.123-.053-.176-.1-.176a.317.317,0,0,0-.194-.044,6.171,6.171,0,0,0-2.2.9Z" transform="translate(-48.084 -171.254)"/><path class="m" d="M102.4,408.246a.167.167,0,0,1-.079-.141c0-.1.167-1.966.926-2.583a.881.881,0,0,1,.652-.2.511.511,0,0,1,.5.406c.132.7-1.172,2.133-1.851,2.495h-.071Zm1.04-2.539a3.64,3.64,0,0,0-.767,2.036c.67-.5,1.5-1.6,1.419-2.019,0,0,0-.159-.229-.159H103.8a.573.573,0,0,0-.361.141Z" transform="translate(-48.084 -171.056)"/><path class="s" d="M94.841,392.74l6.735.714-.661,7.493-6.735-.714Z" transform="translate(-47.12 -169.566)"/><path class="g" d="M58.278,241.05H92.948c3.288,17.991,13.6,81.645,6.171,138.4l-11.733-1.454S88.47,302.7,78.121,274.856c-1.19,14.9-2.645,30.747-3.835,39.183-3.015,20.759-9.467,66.113-9.467,66.113H52.91s2.442-43.423,3.57-63.821C57.714,294.16,58.278,245.6,58.278,241.05Z" transform="translate(-42.229 -151.591)"/><path class="m" d="M104.938,400.279,90.42,398.12l.45-4.02,15.1,1.983Z" transform="translate(-46.674 -169.727)"/><path class="m" d="M66.2,398.338H52.11v-4.2l14.615-.273Z" transform="translate(-42.135 -169.698)"/><path class="s" d="M81.55,277.711A93.646,93.646,0,0,1,85.42,292.7c.97-13.223-2.909-27.327-2.909-27.327Z" transform="translate(-45.623 -154.472)"/><path class="m" d="M57.8,247.89l-.793,4.187s24.25,3.138,39.333,3.05l-.529-2.874Z" transform="translate(-42.715 -152.401)"/><path class="ak" d="M113.74,206.356s8.383,26.445,14.1,28.208,20.275-20.089,20.275-20.089,13.073-.123,13.654-1.014-3.394-10.1-4.346-10.111-12.341,4.275-12.773,5-13.5,13.223-14.1,12.852-5.571-16.087-5.571-16.087Z" transform="translate(-49.438 -147.123)"/><path class="ak" d="M154.7,214.326a3.172,3.172,0,0,0,.309-.079l-.15-.1a1.509,1.509,0,0,1-.159.176Z" transform="translate(-54.291 -148.403)"/><path class="m" d="M108.34,201.276l1.023,1.878,4.769,8.815,1,1.825,13.39-4.654s-5.571-20.786-7.5-22.919Z" transform="translate(-48.798 -145.093)"/><path class="i" d="M108.34,201.276l1.023,1.878,4.769,8.815,1,1.825,13.39-4.654s-5.571-20.786-7.5-22.919Z" transform="translate(-48.798 -145.093)"/><path class="s" d="M109.5,204.77l4.769,8.815c2.953-5.791,2.1-13.725,2.1-13.725Z" transform="translate(-48.935 -146.71)"/><path class="m" d="M114.932,184.9a28.42,28.42,0,0,0-20.169-9.785c-13.117-.617-17.242.688-22.038,4.972C65.718,186.341,57,240.227,57,240.227A121.708,121.708,0,0,0,96.333,244.5s.159-14.986,4.892-25.043A279.5,279.5,0,0,0,114.932,184.9Z" transform="translate(-42.714 -143.76)"/><path class="i" d="M57,240.23a121.848,121.848,0,0,0,39.333,4.284s0-1.851.256-4.681c.106-1.34.264-2.909.485-4.6s.538-3.623.882-5.545c.212-1.031.458-2.072.723-3.1a41.308,41.308,0,0,1,2.5-7.131c.582-1.234,1.146-2.459,1.692-3.658.943-2.1,1.842-4.134,2.645-6.082,1.763-4.1,3.262-7.845,4.513-11.125.882-2.354,1.675-4.46,2.318-6.267.714-2.019,1.278-3.676,1.692-4.91.538-1.631.8-2.521.8-2.521a17.261,17.261,0,0,0-1.41-1.56,28.684,28.684,0,0,0-18.318-8.2h-.441c-10-.467-14.765.176-18.591,2.407a21.094,21.094,0,0,0-3.447,2.574,11.707,11.707,0,0,0-2.31,3.7,81.1,81.1,0,0,0-4,11.689l-.582,2.142c-.882,3.27-1.71,6.752-2.5,10.278-.229,1-.45,2.01-.67,3.006-.326,1.534-.652,3.059-.961,4.566-.793,3.8-1.507,7.484-2.133,10.8-.882,4.76-1.6,8.745-2.019,11.222C57.167,239.26,57,240.23,57,240.23Zm38.522-64.614a25.9,25.9,0,0,1,2.645.2c3.526.476,8.947,3.306,8.815,4.646s-2.195,4.76-7.466,3.932a13.116,13.116,0,0,1-5.113-2.133c-2.909-1.922-5.025-4.522-5.236-5.368-.264-1.014,3.156-1.358,6.364-1.261Z" transform="translate(-42.714 -143.762)"/><path class="m" d="M86.754,196.08s-6.946,16.81-8.374,30.782l18.785,2.4s8.427-22.716,10.173-29.821C107.337,199.421,92.334,197.922,86.754,196.08Z" transform="translate(-45.248 -146.262)"/><path class="i" d="M107.07,200.62l2.609.256-1.913,1.481Z" transform="translate(-48.647 -146.8)"/><path class="ak" d="M95.47,175.148c1.419,4.055,6.7,5.906,9.467,6.171a4.707,4.707,0,0,0,5.025-2.715s-3.165-1.578-2.847-3.35a8.092,8.092,0,0,1,1.3-3.015,15.942,15.942,0,0,1,1.075-1.49l-5.069-10.869C103.3,164.587,99.833,173.631,95.47,175.148Z" transform="translate(-47.273 -141.972)"/><path class="s" d="M105.288,165.57c-2.415,5.289,1,8.93,2.891,10.322a8.092,8.092,0,0,1,1.3-3.015Z" transform="translate(-48.337 -142.646)"/><path class="ak" d="M123.578,149.479s1.622,8.956-3.05,12.544-5.148-13.143-5.148-13.143Z" transform="translate(-49.632 -140.669)"/><path class="ab" d="M123.578,149.479s1.622,8.956-3.05,12.544-5.148-13.143-5.148-13.143Z" transform="translate(-49.632 -140.669)"/><path class="ak" d="M105.45,169.512a8.163,8.163,0,0,0,9.459,2.9A9.1,9.1,0,0,0,119.977,168c.15-.273.282-.573.414-.882,2.186-5.562,2.645-19.137-3.244-18.635-4.866.414-9.626-1.084-12.112,3.12a8.815,8.815,0,0,0-1.216,3.932C103.29,162.028,102.673,165.792,105.45,169.512Z" transform="translate(-48.208 -140.621)"/><path class="g" d="M114.607,160.012c-.106.511.141.978.485,1.031s.679-.344.758-.882-.15-.978-.485-1.023S114.686,159.483,114.607,160.012Z" transform="translate(-49.537 -141.884)"/><path class="g" d="M121.3,160.961c-.106.511.15.978.485,1.031s.679-.344.749-.882-.141-.978-.485-1.031S121.367,160.467,121.3,160.961Z" transform="translate(-50.33 -141.995)"/><path class="al" d="M119.034,161.07a18.908,18.908,0,0,0,1.86,4.813,3.059,3.059,0,0,1-2.574.115Z" transform="translate(-49.98 -142.113)"/><path class="g" d="M112.825,157.475a.309.309,0,0,0,.309-.079,2.5,2.5,0,0,1,2.107-.74.317.317,0,0,0,.37-.238.3.3,0,0,0-.238-.361h0a3.094,3.094,0,0,0-2.645.881.317.317,0,0,0,0,.441h0A.529.529,0,0,0,112.825,157.475Z" transform="translate(-49.307 -141.515)"/><path class="g" d="M124.235,158.855a.247.247,0,0,0,.176,0,.291.291,0,0,0,.2-.379h0a3.059,3.059,0,0,0-1.957-2.027.3.3,0,0,0-.379.212h0a.309.309,0,0,0,.212.379h0a2.5,2.5,0,0,1,1.534,1.631A.3.3,0,0,0,124.235,158.855Z" transform="translate(-50.448 -141.564)"/><path class="ai" d="M113.68,166.92s1.084,2.327,3.3,2.239" transform="translate(-49.431 -142.806)"/><path class="ak" d="M109.223,148.23l.088,2.874A2.116,2.116,0,0,0,108,153.669c.688,2.468-1.014,6.047-2.979,7.352,0,0,0-1.04-.882-.882s-1.155,5.571.3,8.295a15.638,15.638,0,0,1-4.037-8.656c-.882-5.351-.714-8.744,0-11.31Z" transform="translate(-47.786 -140.592)"/><path class="ab" d="M109.223,148.23l.088,2.874A2.116,2.116,0,0,0,108,153.669c.688,2.468-1.014,6.047-2.979,7.352,0,0,0-1.04-.882-.882s-1.155,5.571.3,8.295a15.638,15.638,0,0,1-4.037-8.656c-.882-5.351-.714-8.744,0-11.31Z" transform="translate(-47.786 -140.592)"/><path class="g" d="M99.6,150.65a29.866,29.866,0,0,0,9.406-.573c8.877-1.763,12.658,1.5,12.658,1.5a5.58,5.58,0,0,0,1.842-4.408c-.256-2.556-3.808-2.988-3.808-2.988s-1.067-2.883-3.42-3.755-4.716,1.313-4.716,1.313-2.935-2.838-6.356-2.027a5.13,5.13,0,0,0-4.1,4.989s-4.011.406-3.923,2.468S99.6,150.65,99.6,150.65Z" transform="translate(-47.475 -139.565)"/><ellipse class="ai" cx="2.883" cy="3.323" rx="2.883" ry="3.323" transform="translate(62.874 15.237)"/><path class="ai" d="M126.1,160.733a2.909,2.909,0,1,1-2.883-3.323A3.129,3.129,0,0,1,126.1,160.733Z" transform="translate(-50.217 -141.679)"/><path class="ai" d="M118.65,161.039s.934-.582,1.49.1" transform="translate(-50.019 -142.082)"/><path class="ai" d="M111.161,160.526l-5.051-.679a2.521,2.521,0,0,0-1.86.5l-.22.176" transform="translate(-48.287 -141.966)"/><path class="ak" d="M99.833,161.493a6.171,6.171,0,0,0,3.059,3.579c1.93.961,3.306-.661,3.112-2.7-.176-1.816-1.384-4.549-3.526-4.654a2.75,2.75,0,0,0-2.644,3.773Z" transform="translate(-47.766 -141.716)"/><path class="s" d="M63.32,213.023c8.321-3.455,14.9-17.727,14.9-17.727l-4.725-2.856L67.075,197.6l-.582,2.142c-.882,3.27-1.71,6.752-2.5,10.278C63.761,211.022,63.54,212.027,63.32,213.023Z" transform="translate(-43.463 -145.83)"/><path class="m" d="M115.31,216.8l14.351-5.271.414,1.216-14.36,5.113Z" transform="translate(-49.624 -148.093)"/><path class="ak" d="M65.843,183.38s-15.682,15.735-17.815,18.794-6.223,36.97-6.223,36.97-.882.3-.934,1.031-.141,10.252,0,10.693,7.352,4.892,8.418,3.835,2.548-11.839,2.548-11.839l-3.808-3.72s4.408-24.973,7.2-29.019,14.183-12.7,14.183-12.7Z" transform="translate(-40.794 -144.757)"/><path class="m" d="M79.458,176.19c2.283,4.839.547,15.03-3.667,18.626a123.406,123.406,0,0,1-14.1,10.111L54,194.851s8.18-7.986,13.134-12.588a22.381,22.381,0,0,1,12.323-6.074Z" transform="translate(-42.359 -143.905)"/><path class="i" d="M79.458,176.19c2.283,4.839.547,15.03-3.667,18.626a123.406,123.406,0,0,1-14.1,10.111L54,194.851s8.18-7.986,13.134-12.588a22.381,22.381,0,0,1,12.323-6.074Z" transform="translate(-42.359 -143.905)"/><path class="m" d="M53.872,196.63l-.952,1.3,8.03,10.5,1.137-.811Z" transform="translate(-42.231 -146.327)"/></g></g></svg>