<svg xmlns="http://www.w3.org/2000/svg" width="89.962" height="89.962" viewBox="0 0 89.962 89.962"><defs><style>.a{fill:#bf3976;}.b{fill:#fff;}</style></defs><g transform="translate(-753 -1135)"><g transform="translate(577.915 -3154.523)"><circle class="a" cx="44.981" cy="44.981" r="44.981" transform="translate(175.085 4289.523)"/></g><g transform="translate(766 1150.5)"><path class="b" d="M57.659,45.017,55.1,44.129a6.173,6.173,0,0,0,2.351-4.847V37.408a6.207,6.207,0,0,0-.123-1.231.937.937,0,1,0-1.836.371,4.33,4.33,0,0,1,.086.86v1.874a4.309,4.309,0,0,1-8.618,0V37.408A4.311,4.311,0,0,1,53.467,33.7a.937.937,0,0,0,.957-1.611,6.154,6.154,0,0,0-2.216-.789V20.047a8.44,8.44,0,0,0-8.431-8.431H40.154L43.006,9.97a.937.937,0,0,0,.343-1.28l-2.5-4.326a.936.936,0,0,0-1.28-.343L36.611,5.73A8.349,8.349,0,0,0,35.1,4.853V1.437A.937.937,0,0,0,34.16.5h-5a.937.937,0,0,0-.937.937V4.853a8.349,8.349,0,0,0-1.515.876L23.752,4.02a.937.937,0,0,0-1.28.343l-2.5,4.326a.937.937,0,0,0,.343,1.28l2.852,1.647H19.546a8.44,8.44,0,0,0-8.431,8.431V31.3a6.158,6.158,0,0,0-2.216.789A.937.937,0,0,0,9.856,33.7a4.311,4.311,0,0,1,6.505,3.709v1.874a4.309,4.309,0,0,1-8.618,0V37.408a4.366,4.366,0,0,1,.086-.86.937.937,0,1,0-1.836-.371,6.243,6.243,0,0,0-.123,1.231v1.874a6.173,6.173,0,0,0,2.352,4.847l-2.557.888A8.436,8.436,0,0,0,0,52.981v3.662a.937.937,0,0,0,.937.937H26.728a.937.937,0,0,0,0-1.874H21.482V52.981a6.562,6.562,0,0,1,4.407-6.195l1.1-.381,3.866,6.708a.937.937,0,0,0,1.623,0l3.866-6.708,1.1.381a6.562,6.562,0,0,1,4.406,6.195v2.725H31.107a.937.937,0,1,0,0,1.874h31.28a.937.937,0,0,0,.936-.937V52.981a8.435,8.435,0,0,0-5.665-7.964Zm-4.422.448.91.316L51.271,50.77,48.4,45.781l.91-.316ZM23.627,6.111l2.7,1.558a.937.937,0,0,0,1.077-.1,6.529,6.529,0,0,1,2.074-1.2.937.937,0,0,0,.625-.883V2.374h3.122V5.487a.937.937,0,0,0,.624.883,6.523,6.523,0,0,1,2.074,1.2.938.938,0,0,0,1.077.1l2.7-1.558,1.561,2.7-2.7,1.558a.936.936,0,0,0-.453.981,6.523,6.523,0,0,1,0,2.4.936.936,0,0,0,.453.981l2.7,1.558-1.561,2.7L37,17.437a.937.937,0,0,0-1.077.1,6.523,6.523,0,0,1-2.074,1.2.936.936,0,0,0-.624.883v3.113H30.1V19.619a.937.937,0,0,0-.625-.883,6.529,6.529,0,0,1-2.074-1.2.937.937,0,0,0-1.077-.1l-2.7,1.558-1.561-2.7,2.7-1.558a.936.936,0,0,0,.453-.981,6.523,6.523,0,0,1,0-2.4.936.936,0,0,0-.453-.981l-2.7-1.558Zm8.035,37.48a4.314,4.314,0,0,1-4.309-4.309V37.408a4.309,4.309,0,1,1,8.618,0v1.874A4.314,4.314,0,0,1,31.662,43.591ZM14.018,45.465l.91.316L12.052,50.77,9.177,45.781l.91-.316ZM1.873,55.706V52.981A6.561,6.561,0,0,1,6.28,46.786l1.1-.38,3.866,6.708a.936.936,0,0,0,1.623,0l3.866-6.708,1.1.38a6.493,6.493,0,0,1,2.9,2.011,8.416,8.416,0,0,0-1.114,4.183v2.725Zm23.4-10.69a8.415,8.415,0,0,0-3.416,2.234,8.358,8.358,0,0,0-3.419-2.234l-2.557-.888a6.173,6.173,0,0,0,2.352-4.847V37.408A6.193,6.193,0,0,0,12.989,31.3V20.047a6.565,6.565,0,0,1,6.557-6.558H23.17l-2.852,1.647a.936.936,0,0,0-.343,1.279l2.5,4.327a.937.937,0,0,0,1.28.343l2.96-1.709a8.377,8.377,0,0,0,1.515.876v3.416a.937.937,0,0,0,.937.937h1.561V31.3a6.193,6.193,0,0,0-5.246,6.112v1.874a6.173,6.173,0,0,0,2.352,4.847Zm6.387,5.753-2.876-4.989.91-.316h3.931l.91.316Zm6.387-5.753-2.556-.888a6.173,6.173,0,0,0,2.351-4.847V37.408A6.193,6.193,0,0,0,32.6,31.3v-6.69H34.16a.937.937,0,0,0,.937-.937V20.253a8.381,8.381,0,0,0,1.515-.876l2.96,1.709a.937.937,0,0,0,1.28-.343l2.5-4.327a.937.937,0,0,0-.343-1.279L40.154,13.49h3.623a6.565,6.565,0,0,1,6.558,6.558V31.3a6.193,6.193,0,0,0-5.246,6.112v1.874a6.173,6.173,0,0,0,2.351,4.847l-2.556.888a8.36,8.36,0,0,0-3.419,2.234,8.409,8.409,0,0,0-3.416-2.234Zm23.4,10.69H43.715V52.981A8.411,8.411,0,0,0,42.6,48.8a6.5,6.5,0,0,1,2.9-2.011l1.1-.381,3.866,6.708a.937.937,0,0,0,1.623,0l3.866-6.708,1.1.381a6.561,6.561,0,0,1,4.407,6.194Zm0,0"/><path class="b" d="M231.665,77.05a3.435,3.435,0,1,0-3.435-3.435A3.439,3.439,0,0,0,231.665,77.05Zm0-5a1.561,1.561,0,1,1-1.561,1.561A1.563,1.563,0,0,1,231.665,72.054Zm0,0" transform="translate(-200.003 -61.062)"/></g></g></svg>