<svg xmlns="http://www.w3.org/2000/svg" width="89.962" height="89.962" viewBox="0 0 89.962 89.962"><defs><style>.a{fill:#bf3976;}.b{fill:#fff;}</style></defs><g transform="translate(-337.017 -1134.753)"><g transform="translate(282.24 -3154.771)"><circle class="a" cx="44.981" cy="44.981" r="44.981" transform="translate(54.777 4289.523)"/></g><g transform="translate(351.184 1148.92)"><g transform="translate(0 0)"><path class="b" d="M61.655,246H29.711a1.228,1.228,0,1,0,0,2.456h4.9a2.792,2.792,0,0,0-.021.333v5.794a2.774,2.774,0,0,0,1.06,2.188l2.169,1.715a.331.331,0,0,1,.124.222l1.044,8.726a2.78,2.78,0,0,0,.968,1.8l.635.538a2.717,2.717,0,0,0,1.761.652,2.752,2.752,0,0,0,1.159-.258,2.711,2.711,0,0,0,1.586-2.483v-.113a.335.335,0,0,1,.042-.161l2.935-5.313a.333.333,0,0,1,.292-.172h.3a2.807,2.807,0,0,0,2.673-1.992l1.279-4.289a2.8,2.8,0,0,0-1.373-3.265l-2.208-1.163a.333.333,0,0,1-.124-.112l-1.732-2.643H60.4a28.985,28.985,0,0,1-49.455,19.267q-.8-.8-1.526-1.648l2.663-4.746a3.621,3.621,0,0,0,.462-1.768V256.4a1.164,1.164,0,0,1,.34-.819l1.656-1.65a3.631,3.631,0,0,0,.345-4.719l-.566-.759h4.337a1.228,1.228,0,1,0,0-2.456H1.228A1.228,1.228,0,0,0,0,247.228,31.441,31.441,0,0,0,53.674,269.46a31.235,31.235,0,0,0,9.209-22.232A1.228,1.228,0,0,0,61.655,246Zm-17.32,2.607,2.516,3.839a2.8,2.8,0,0,0,1.033.939l2.208,1.163a.334.334,0,0,1,.164.39l-1.279,4.289a.335.335,0,0,1-.319.238h-.3a2.79,2.79,0,0,0-2.442,1.441l-2.935,5.313a2.8,2.8,0,0,0-.348,1.349v.113a.281.281,0,0,1-.462.214l-.635-.538a.332.332,0,0,1-.116-.215l-1.044-8.727a2.772,2.772,0,0,0-1.04-1.857l-2.17-1.715a.331.331,0,0,1-.127-.261v-5.794a.334.334,0,0,1,.333-.333h6.679A.333.333,0,0,1,44.335,248.607Zm-33.079-.151,1.661,2.228a1.162,1.162,0,0,1-.111,1.51l-1.655,1.65a3.637,3.637,0,0,0-1.062,2.559v3.159a1.16,1.16,0,0,1-.148.566L7.78,263.979a28.731,28.731,0,0,1-5.3-15.523Z" transform="translate(0 -215.787)"/><path class="b" d="M43.228,27.567h50.11a1.228,1.228,0,0,0,1.228-1.228V20.66a7.076,7.076,0,0,0-5.4-6.864,4.976,4.976,0,0,0,.826-2.75v-1.3a5,5,0,0,0-8.352-3.721V5.006a5.006,5.006,0,1,0-10.012,0V6.023a5,5,0,0,0-6.691,0V5.006a5.006,5.006,0,0,0-10.013,0V6.023a5,5,0,0,0-8.352,3.721v1.3A4.977,4.977,0,0,0,47.4,13.8,7.075,7.075,0,0,0,42,20.66v5.678a1.228,1.228,0,0,0,1.228,1.228ZM55.76,13.8a4.976,4.976,0,0,0,.826-2.75V10.029a5,5,0,0,0,6.691,0v1.017A4.977,4.977,0,0,0,64.1,13.8a7.085,7.085,0,0,0-4.171,2.889A7.084,7.084,0,0,0,55.76,13.8Zm5.4,6.864a4.613,4.613,0,0,1,4.608-4.608H70.8a4.613,4.613,0,0,1,4.608,4.608v4.45H61.16Zm12.13-9.614V10.029a5,5,0,0,0,6.691,0v1.017a4.977,4.977,0,0,0,.826,2.75,7.085,7.085,0,0,0-4.171,2.889A7.085,7.085,0,0,0,72.463,13.8a4.975,4.975,0,0,0,.826-2.75ZM92.11,20.66v4.45H77.863V20.66a4.613,4.613,0,0,1,4.608-4.608H87.5A4.613,4.613,0,0,1,92.11,20.66ZM82.436,9.744a2.55,2.55,0,1,1,5.1,0v1.3a2.55,2.55,0,1,1-5.1,0ZM74.085,5.006a2.55,2.55,0,1,1,5.1,0v1.3a2.55,2.55,0,1,1-5.1,0ZM65.733,9.744a2.55,2.55,0,0,1,5.1,0v1.3a2.55,2.55,0,0,1-5.1,0ZM57.381,5.006a2.55,2.55,0,0,1,5.1,0v1.3a2.55,2.55,0,0,1-5.1,0ZM49.03,9.744a2.55,2.55,0,1,1,5.1,0v1.3a2.55,2.55,0,1,1-5.1,0ZM44.456,20.66a4.613,4.613,0,0,1,4.608-4.608H54.1A4.613,4.613,0,0,1,58.7,20.66v4.45H44.456Z" transform="translate(-36.842 0)"/><path class="b" d="M143.4,335.285a3.292,3.292,0,0,0-1.848,2.947V339.4a3.277,3.277,0,0,0,3.273,3.273h2.761a.822.822,0,0,1,.583.245,3.251,3.251,0,0,0,2.308.981h.029a3.251,3.251,0,0,0,2.3-.94l1.372-1.351a3.274,3.274,0,0,0-.2-4.843l-2.9-2.427a3.276,3.276,0,0,0-2.093-.763c-.394,0-.873-.006-1.222-.011a3.3,3.3,0,0,0-1.469.326Zm4.32.73h.011c.357,0,.848.01,1.251.011h0a.815.815,0,0,1,.521.191l2.9,2.427a.817.817,0,0,1,.049,1.209l-1.372,1.351a.831.831,0,0,1-.58.235.812.812,0,0,1-.576-.245,3.293,3.293,0,0,0-2.336-.981h-2.761a.818.818,0,0,1-.817-.817v-1.164a.822.822,0,0,1,.461-.736l2.9-1.4A.825.825,0,0,1,147.719,336.014Z" transform="translate(-124.166 -292.591)"/><circle class="b" cx="1.228" cy="1.228" r="1.228" transform="translate(22.956 30.213)"/></g></g></g></svg>